%FSTAX23Y23*%
%MOIN*%
%SFA1B1*%

%IPPOS*%
%ADD10R,0.035430X0.027560*%
%ADD11R,0.226380X0.187010*%
%ADD12O,0.037400X0.009840*%
%ADD13O,0.009840X0.037400*%
%ADD14R,0.106300X0.106300*%
%ADD15R,0.019690X0.023620*%
%ADD16R,0.023620X0.019690*%
%ADD17R,0.020000X0.025000*%
%ADD18R,0.035430X0.031500*%
%ADD19R,0.031500X0.035430*%
%ADD20R,0.066930X0.043310*%
%ADD21R,0.059060X0.059060*%
%ADD22R,0.047240X0.011810*%
%ADD23R,0.011810X0.047240*%
%ADD24R,0.129920X0.094490*%
%ADD25R,0.039370X0.094490*%
%ADD26R,0.027560X0.035430*%
%ADD27C,0.010000*%
%ADD28C,0.008270*%
%ADD29C,0.006000*%
%ADD30C,0.006890*%
%ADD31C,0.008000*%
%ADD32C,0.059060*%
%ADD33R,0.059060X0.059060*%
%ADD34C,0.025000*%
%LNhanc_digital-1*%
%LPD*%
G36*
X06572Y0455D02*
Y02692D01*
X0474*
X042Y0299*
X03475Y0339*
Y04665*
X06572*
Y0455*
G37*
%LNhanc_digital-2*%
%LPC*%
G36*
X05028Y03805D02*
X05007D01*
Y03782*
X05028*
Y03805*
G37*
G36*
X04997D02*
X04976D01*
Y03782*
X04997*
Y03805*
G37*
G36*
X05119Y03751D02*
X05105D01*
Y03734*
X05119*
Y03751*
G37*
G36*
X05028Y03837D02*
X05007D01*
Y03815*
X05028*
Y03837*
G37*
G36*
X04997D02*
X04976D01*
Y03815*
X04997*
Y03837*
G37*
G36*
X06385Y0387D02*
X06375Y03869D01*
X06367Y03866*
X06359Y0386*
X06353Y03852*
X0635Y03844*
X06349Y03835*
X0635Y03825*
X06353Y03817*
X06359Y03809*
X06367Y03803*
X06375Y038*
X06385Y03799*
X06394Y038*
X06402Y03803*
X0641Y03809*
X06416Y03817*
X06419Y03825*
X0642Y03835*
X06419Y03844*
X06416Y03852*
X0641Y0386*
X06402Y03866*
X06394Y03869*
X06385Y0387*
G37*
G36*
X03827Y03747D02*
X03806D01*
Y03725*
X03827*
Y03747*
G37*
G36*
X06385Y0367D02*
X06375Y03669D01*
X06367Y03666*
X06359Y0366*
X06353Y03652*
X0635Y03644*
X06349Y03635*
X0635Y03625*
X06353Y03617*
X06359Y03609*
X06367Y03603*
X06375Y036*
X06385Y03599*
X06394Y036*
X06402Y03603*
X0641Y03609*
X06416Y03617*
X06419Y03625*
X0642Y03635*
X06419Y03644*
X06416Y03652*
X0641Y0366*
X06402Y03666*
X06394Y03669*
X06385Y0367*
G37*
G36*
X05145Y03545D02*
X05128D01*
Y0353*
X05145*
Y03545*
G37*
G36*
X06385Y0357D02*
X06375Y03569D01*
X06367Y03566*
X06359Y0356*
X06353Y03552*
X0635Y03544*
X06349Y03535*
X0635Y03525*
X06353Y03517*
X06359Y03509*
X06367Y03503*
X06375Y035*
X06385Y03499*
X06394Y035*
X06402Y03503*
X0641Y03509*
X06416Y03517*
X06419Y03525*
X0642Y03535*
X06419Y03544*
X06416Y03552*
X0641Y0356*
X06402Y03566*
X06394Y03569*
X06385Y0357*
G37*
G36*
X0501Y03723D02*
X05002Y03722D01*
X04996Y03718*
X04995Y03716*
X0497*
Y03716*
X04965Y03715*
X04962Y03712*
X04946Y03697*
X04944Y03693*
X04943Y03689*
Y02999*
X04939Y02995*
X04933*
X04931*
X04897*
Y02964*
X04904*
Y02824*
X04904Y0282*
X04907Y02816*
X04929Y02794*
X04933Y02791*
X04937Y0279*
X05091*
Y02766*
X05162*
Y02837*
X05091*
Y02813*
X04942*
X04926Y02829*
Y0296*
X0493Y02964*
X04936*
X04938*
X04972*
Y02995*
X04965*
Y03685*
X04974Y03693*
X04995*
X04996Y03691*
X05002Y03687*
X0501Y03686*
X05017Y03687*
X05023Y03691*
X05027Y03697*
X05028Y03705*
X05027Y03712*
X05023Y03718*
X05017Y03722*
X0501Y03723*
G37*
G36*
X06385Y0377D02*
X06375Y03769D01*
X06367Y03766*
X06359Y0376*
X06353Y03752*
X0635Y03744*
X06349Y03735*
X0635Y03725*
X06353Y03717*
X06359Y03709*
X06367Y03703*
X06375Y037*
X06385Y03699*
X06394Y037*
X06402Y03703*
X0641Y03709*
X06416Y03717*
X06419Y03725*
X0642Y03735*
X06419Y03744*
X06416Y03752*
X0641Y0376*
X06402Y03766*
X06394Y03769*
X06385Y0377*
G37*
G36*
X03827Y03715D02*
X03806D01*
Y03692*
X03827*
Y03715*
G37*
G36*
X03898Y04077D02*
X03877D01*
Y04055*
X03898*
Y04077*
G37*
G36*
X03867D02*
X03846D01*
Y04055*
X03867*
Y04077*
G37*
G36*
X04134Y04103D02*
X04065D01*
Y0405*
X04134*
Y04103*
G37*
G36*
X06283Y0421D02*
X06236D01*
Y04201*
X06193*
Y0421*
X06146*
Y0417*
X06193*
Y04179*
X06236*
Y0417*
X06283*
Y0421*
G37*
G36*
X0389Y04238D02*
X03882Y04237D01*
X03876Y04233*
X03872Y04227*
X03871Y0422*
X03872Y04212*
X03876Y04206*
X03882Y04202*
X0389Y04201*
X03897Y04202*
X03903Y04206*
X03907Y04212*
X03908Y0422*
X03907Y04227*
X03903Y04233*
X03897Y04237*
X0389Y04238*
G37*
G36*
X06385Y0417D02*
X06375Y04169D01*
X06367Y04166*
X06359Y0416*
X06353Y04152*
X0635Y04144*
X06349Y04135*
X0635Y04125*
X06353Y04117*
X06359Y04109*
X06367Y04103*
X06375Y041*
X06385Y04099*
X06394Y041*
X06402Y04103*
X0641Y04109*
X06416Y04117*
X06419Y04125*
X0642Y04135*
X06419Y04144*
X06416Y04152*
X0641Y0416*
X06402Y04166*
X06394Y04169*
X06385Y0417*
G37*
G36*
X03898Y04045D02*
X03877D01*
Y04022*
X03898*
Y04045*
G37*
G36*
X05127Y03942D02*
X05105D01*
Y03921*
X05127*
Y03942*
G37*
G36*
X05095D02*
X05072D01*
Y03921*
X05095*
Y03942*
G37*
G36*
X06385Y0397D02*
X06375Y03969D01*
X06367Y03966*
X06359Y0396*
X06353Y03952*
X0635Y03944*
X06349Y03935*
X0635Y03925*
X06353Y03917*
X06359Y03909*
X06367Y03903*
X06375Y039*
X06385Y03899*
X06394Y039*
X06402Y03903*
X0641Y03909*
X06416Y03917*
X06419Y03925*
X0642Y03935*
X06419Y03944*
X06416Y03952*
X0641Y0396*
X06402Y03966*
X06394Y03969*
X06385Y0397*
G37*
G36*
X03867Y04045D02*
X03846D01*
Y04022*
X03867*
Y04045*
G37*
G36*
X06385Y0407D02*
X06375Y04069D01*
X06367Y04066*
X06359Y0406*
X06353Y04052*
X0635Y04044*
X06349Y04035*
X0635Y04025*
X06353Y04017*
X06359Y04009*
X06367Y04003*
X06375Y04*
X06385Y03999*
X06394Y04*
X06402Y04003*
X0641Y04009*
X06416Y04017*
X06419Y04025*
X0642Y04035*
X06419Y04044*
X06416Y04052*
X0641Y0406*
X06402Y04066*
X06394Y04069*
X06385Y0407*
G37*
G36*
X04134Y0404D02*
X04065D01*
Y03988*
X04134*
Y0404*
G37*
G36*
X05166Y02979D02*
X05132D01*
Y02945*
X05166*
Y02979*
G37*
G36*
X05725D02*
X0569D01*
Y02945*
X05725*
Y02979*
G37*
G36*
X05122D02*
X05087D01*
Y02945*
X05122*
Y02979*
G37*
G36*
X05474Y03065D02*
X0544D01*
Y0303*
X05474*
Y03065*
G37*
G36*
X0543D02*
X05395D01*
Y0303*
X0543*
Y03065*
G37*
G36*
X05769Y02979D02*
X05735D01*
Y02945*
X05769*
Y02979*
G37*
G36*
X06102Y02961D02*
X06068D01*
Y02927*
X06102*
Y02961*
G37*
G36*
X05166Y02935D02*
X05132D01*
Y029*
X05166*
Y02935*
G37*
G36*
X05122D02*
X05087D01*
Y029*
X05122*
Y02935*
G37*
G36*
X06058Y02917D02*
X06023D01*
Y02882*
X06058*
Y02917*
G37*
G36*
Y02961D02*
X06023D01*
Y02927*
X06058*
Y02961*
G37*
G36*
X05769Y02935D02*
X05735D01*
Y029*
X05769*
Y02935*
G37*
G36*
X05725D02*
X0569D01*
Y029*
X05725*
Y02935*
G37*
G36*
X05085Y03482D02*
X05062D01*
Y03461*
X05085*
Y03482*
G37*
G36*
X0428Y0345D02*
X04264D01*
Y03433*
X04267Y03433*
X04275Y03438*
X0428Y03446*
X0428Y0345*
G37*
G36*
X04254D02*
X04237D01*
X04237Y03446*
X04242Y03438*
X0425Y03433*
X04254Y03433*
Y0345*
G37*
G36*
X05117Y03513D02*
X05095D01*
Y03492*
X05117*
Y03513*
G37*
G36*
X05085D02*
X05062D01*
Y03492*
X05085*
Y03513*
G37*
G36*
X05117Y03482D02*
X05095D01*
Y03461*
X05117*
Y03482*
G37*
G36*
X06385Y0347D02*
X06375Y03469D01*
X06367Y03466*
X06359Y0346*
X06353Y03452*
X0635Y03444*
X06349Y03435*
X0635Y03425*
X06353Y03417*
X06359Y03409*
X06367Y03403*
X06375Y034*
X06385Y03399*
X06394Y034*
X06402Y03403*
X0641Y03409*
X06416Y03417*
X06419Y03425*
X0642Y03435*
X06419Y03444*
X06416Y03452*
X0641Y0346*
X06402Y03466*
X06394Y03469*
X06385Y0347*
G37*
G36*
X04775Y03112D02*
X0474D01*
Y03077*
X04775*
Y03112*
G37*
G36*
X04819Y03067D02*
X04785D01*
Y03033*
X04819*
Y03067*
G37*
G36*
X04775D02*
X0474D01*
Y03033*
X04775*
Y03067*
G37*
G36*
X03904Y03399D02*
X03899Y03398D01*
X03897Y03397*
X03894Y03396*
X0389Y03397*
X03888Y03398*
X03884Y03399*
X0388Y03398*
X03878Y03397*
X03874Y03396*
X03871Y03397*
X03869Y03398*
X03864Y03399*
X0386Y03398*
X03858Y03397*
X03855Y03396*
X03851Y03397*
X03849Y03398*
X03845Y03399*
X0384Y03398*
X03838Y03397*
X03835Y03396*
X03831Y03397*
X03829Y03398*
X03825Y03399*
X03821Y03398*
X03819Y03397*
X03815Y03396*
X03812Y03397*
X0381Y03398*
X03805Y03399*
X03801Y03398*
X03797Y03396*
X03795Y03392*
X03794Y03388*
Y0336*
X03795Y03356*
X03797Y03352*
X03801Y0335*
X03805Y03349*
X0381Y0335*
X03812Y03351*
X03815Y03352*
X03819Y03351*
X03821Y0335*
X03825Y03349*
X03829Y0335*
X03831Y03351*
X03835Y03352*
X03838Y03351*
X0384Y0335*
X03845Y03349*
X03849Y0335*
X0385Y03351*
X03855Y03348*
Y03328*
X03852Y03325*
X0385Y03322*
X03849Y03319*
Y03295*
X03845Y03292*
X03841Y03286*
X0384Y03279*
X03841Y03271*
X03845Y03265*
X03851Y03261*
X03859Y0326*
X03866Y03261*
X03869Y03263*
X03869Y03263*
X03874Y03261*
X03875Y03259*
X03877Y03256*
X0388Y03252*
X0388Y03249*
X03881Y03241*
X03885Y03235*
X03891Y03231*
X03899Y0323*
X03906Y03231*
X03912Y03235*
X03916Y03241*
X03917Y03249*
X03916Y03256*
X03912Y03262*
X03906Y03266*
X03899Y03267*
X03898Y03267*
X03893Y03271*
Y03348*
X03898Y03351*
X03899Y0335*
X03904Y03349*
X03908Y0335*
X03912Y03352*
X03914Y03356*
X03915Y0336*
Y03388*
X03914Y03392*
X03912Y03396*
X03908Y03398*
X03904Y03399*
G37*
G36*
X06385Y0337D02*
X06375Y03369D01*
X06367Y03366*
X06359Y0336*
X06353Y03352*
X0635Y03344*
X06349Y03335*
X0635Y03325*
X06353Y03317*
X06359Y03309*
X06367Y03303*
X06375Y033*
X06385Y03299*
X06394Y033*
X06402Y03303*
X0641Y03309*
X06416Y03317*
X06419Y03325*
X0642Y03335*
X06419Y03344*
X06416Y03352*
X0641Y0336*
X06402Y03366*
X06394Y03369*
X06385Y0337*
G37*
G36*
X04819Y03112D02*
X04785D01*
Y03077*
X04819*
Y03112*
G37*
G36*
X05719Y04515D02*
X05685D01*
Y0448*
X0569Y04481*
X05699Y04485*
X05708Y04491*
X05714Y045*
X05718Y04509*
X05719Y04515*
G37*
G36*
X0373Y04555D02*
X0372Y04554D01*
X03712Y04551*
X03704Y04545*
X03698Y04537*
X03695Y04529*
X03694Y0452*
X03695Y0451*
X03698Y04502*
X03701Y04498*
X03689Y04482*
X03689Y0448*
X03688Y04479*
X03688Y04478*
X03687Y04478*
X03687Y04476*
X03687Y04475*
Y04183*
X03641Y04137*
X03639Y04133*
X03638Y04129*
Y03678*
X03638Y03675*
Y03586*
X03592Y03539*
X03589Y03535*
X03588Y03531*
Y03471*
X03584Y03469*
X03571Y03482*
Y041*
X03607Y04137*
X0361Y0414*
X03611Y04145*
Y04155*
X03613Y04156*
X03617Y04162*
X03618Y0417*
X03617Y04177*
X03613Y04183*
X03607Y04187*
X036Y04188*
X03592Y04187*
X03586Y04183*
X03582Y04177*
X03581Y0417*
X03582Y04162*
X03586Y04156*
X03588Y04155*
Y04149*
X03552Y04112*
X03549Y04109*
X03548Y04105*
Y03478*
X03549Y03473*
X03552Y0347*
X03598Y03424*
X03601Y03421*
X03606Y0342*
X0361Y03421*
X03611Y03422*
X03736*
X03736Y03422*
X03739Y03417*
X03739Y03415*
X0374Y03411*
X03742Y03407*
X03746Y03405*
X0375Y03404*
X03778*
X03782Y03405*
X03786Y03407*
X03788Y03411*
X03789Y03415*
X03788Y0342*
X03787Y03422*
X03786Y03425*
X03787Y03429*
X03788Y03431*
X03789Y03435*
X03788Y03439*
X03787Y03441*
X03786Y03445*
X03787Y03448*
X03788Y0345*
X03789Y03455*
X03788Y03459*
X03787Y03461*
X03786Y03465*
X03787Y03468*
X03788Y0347*
X03789Y03474*
X03788Y03479*
X03787Y03481*
X03786Y03484*
X03787Y03488*
X03788Y0349*
X03789Y03494*
X03788Y03498*
X03787Y035*
X03786Y03504*
X03787Y03507*
X03788Y03509*
X03789Y03514*
X03788Y03518*
X03786Y03522*
X03782Y03524*
X03778Y03525*
X0375*
X03746Y03524*
X03744Y03523*
X03723*
X03705Y0354*
X03704Y03541*
X03706Y03546*
X03794*
Y03541*
X03795Y03537*
X03797Y03533*
X03801Y03531*
X03805Y0353*
X0381Y03531*
X03812Y03532*
X03815Y03533*
X03819Y03532*
X03821Y03531*
X03825Y0353*
X03829Y03531*
X03831Y03532*
X03835Y03533*
X03838Y03532*
X0384Y03531*
X03845Y0353*
X03849Y03531*
X03851Y03532*
X03855Y03533*
X03858Y03532*
X0386Y03531*
X03864Y0353*
X03869Y03531*
X03871Y03532*
X03874Y03533*
X03878Y03532*
X0388Y03531*
X03884Y0353*
X03888Y03531*
X0389Y03532*
X03894Y03533*
X03897Y03532*
X03899Y03531*
X03903Y0353*
X03904Y03529*
X03903Y03525*
X03901Y03524*
X03795*
Y03405*
X03914*
Y03472*
X03915Y03473*
X03921Y03471*
X03921Y0347*
X03922Y03468*
X03923Y03465*
X03922Y03461*
X03921Y03459*
X0392Y03455*
X03921Y0345*
X03922Y03448*
X03923Y03445*
X03922Y03441*
X03921Y03439*
X0392Y03435*
X03921Y03431*
X03922Y03429*
X03923Y03425*
X03922Y03422*
X03921Y0342*
X0392Y03415*
X03921Y03411*
X03923Y03407*
X03927Y03405*
X03931Y03404*
X03948*
X04009Y03343*
X04009Y03341*
X04011Y03338*
X04015Y03335*
X04019Y03334*
X04187*
X04191Y03335*
X04195Y03338*
X04207Y0335*
X0421Y03354*
X04211Y03358*
Y03591*
X04213Y03592*
X04217Y03598*
X04218Y03606*
X04217Y03613*
X04213Y03619*
X04207Y03623*
X042Y03624*
X04192Y03623*
X04186Y03619*
X04182Y03613*
X04181Y03606*
X04182Y03598*
X04186Y03592*
X04188Y03591*
Y03363*
X04182Y03357*
X04021*
X03968Y0341*
X03969Y03411*
X0397Y03415*
X0397Y03417*
X03972Y03422*
X03973Y03423*
X03975Y03423*
X03989Y03409*
X03989Y03408*
X03992Y03404*
X03995Y03402*
X04Y03401*
X04015*
X04019Y03402*
X04023Y03404*
X0405Y03431*
X04056Y03435*
X0406Y03441*
X04061Y03449*
X0406Y03456*
X04056Y03462*
X0405Y03466*
X04043Y03467*
X04035Y03466*
X04029Y03462*
X04025Y03456*
X04024Y03449*
X04025Y03441*
X04026Y03439*
X0401Y03423*
X04002*
X03986Y03439*
X03988Y03443*
X03989Y03444*
X03996Y03442*
X04003Y03444*
X04009Y03448*
X04013Y03454*
X04015Y03461*
X04013Y03468*
X04009Y03474*
X04003Y03478*
X03999Y03479*
X03998Y03485*
X04032Y03519*
X04034Y03519*
X04037Y03522*
X04067Y03552*
X0407Y03555*
X04071Y0356*
Y0358*
X04083*
Y03624*
X04036*
Y0358*
X04048*
Y03564*
X04022Y03537*
X04019Y03534*
X04019Y03532*
X04002Y03515*
X03997Y03517*
X03997Y03518*
Y03681*
X04002Y03682*
X04002Y03682*
X04006Y03676*
X04012Y03672*
X0402Y03671*
X04027Y03672*
X04029Y03674*
X04036Y03667*
Y03635*
X04083*
Y03679*
X04056*
X04037Y03697*
X04036Y03699*
X04033Y03703*
X04027Y03707*
X04026Y03707*
X04024Y03712*
X04041Y03728*
X04125*
X04177Y03676*
X04181Y03673*
X04185Y03673*
X04191*
X04248Y03615*
Y03475*
X04242Y03471*
X04237Y03463*
X04237Y0346*
X0428*
X0428Y03463*
X04275Y03471*
X04271Y03473*
Y0362*
X0427Y03624*
X04267Y03627*
X04203Y03692*
X04199Y03694*
X04195Y03695*
X0419*
X04137Y03747*
X04134Y0375*
X0413Y03751*
Y03751*
X04036*
Y03751*
X04032Y0375*
X04028Y03747*
X03983Y03702*
X03979Y03704*
Y03732*
X0398Y03734*
X03981Y03738*
Y03764*
X04205*
X04206Y03762*
X04212Y03758*
X0422Y03756*
X04227Y03758*
X04233Y03762*
X04237Y03768*
X04238Y03775*
X04237Y03782*
X04233Y03788*
X04227Y03792*
X0422Y03794*
X04212Y03792*
X04206Y03788*
X04205Y03786*
X03981*
Y03985*
X03985Y03988*
X04055*
Y04045*
Y04103*
X03985*
X03981Y04105*
X0398Y04106*
Y0422*
X03995*
Y04327*
X0398*
Y04356*
X03984*
Y04403*
X0394*
Y04356*
X03958*
Y04327*
X03943*
Y0422*
X03958*
Y041*
X03959Y04095*
X03961Y04092*
X03972Y0408*
Y04068*
X03965Y04061*
X03949*
Y04073*
X03905*
Y04026*
X03949*
Y04038*
X03958*
Y0377*
X03958*
X03958*
Y03747*
X03942*
Y0372*
Y03692*
X0396*
Y03643*
X03919Y03602*
X03914Y03604*
Y03654*
X03917Y03658*
X0392Y03661*
X03921Y03665*
Y03692*
X03932*
Y0372*
Y03747*
X03911*
Y03718*
X03907Y03716*
X03904Y03718*
Y03743*
X03863*
X0386*
X03858Y03747*
X03858*
X03837*
Y0372*
Y03692*
X03858*
X0386Y03696*
X03863*
X03894*
X03898Y03691*
Y0367*
X03895Y03667*
X03893Y03663*
X03892Y03663*
X03888Y03663*
X03887Y03667*
X03883Y03673*
X03877Y03677*
X0387Y03678*
X03862Y03677*
X03856Y03673*
X03852Y03667*
X03851Y0366*
X03852Y03652*
X03856Y03646*
X03858Y03645*
Y03627*
X03859Y03623*
X0386Y03622*
Y03612*
X03855Y0361*
X0379Y03675*
X03786Y03677*
X03782Y03678*
X03753*
Y03689*
X03706*
Y03645*
X03753*
Y03656*
X03777*
X03805Y03628*
X03803Y03623*
X03753*
Y03634*
X03706*
Y0359*
X03753*
Y03601*
X03804*
X03816Y03589*
Y03581*
X03811Y03578*
X0381Y03579*
X03805Y0358*
X03801Y03579*
X03797Y03577*
X03795Y03573*
X03794Y03569*
Y03564*
X03708*
X03673Y03599*
Y03679*
X03703Y0371*
X03755*
Y03696*
X03799*
Y03743*
X03755*
Y03729*
X037*
X03696Y03728*
X03693Y03726*
X03665Y03699*
X0366Y037*
Y04124*
X03706Y0417*
X03709Y04174*
X0371Y04178*
Y04472*
X03719Y04485*
X0372Y04485*
X0373Y04484*
X03739Y04485*
X03747Y04488*
X03755Y04494*
X03761Y04502*
X03764Y0451*
X03765Y0452*
X03764Y04529*
X03761Y04537*
X03755Y04545*
X03747Y04551*
X03739Y04554*
X0373Y04555*
G37*
G36*
X0483D02*
X0482Y04554D01*
X04812Y04551*
X04804Y04545*
X04798Y04537*
X04795Y04529*
X04794Y0452*
X04795Y0451*
X04798Y04502*
X04804Y04494*
X04812Y04488*
X04818Y04486*
Y04434*
X04793Y04409*
X04766*
Y04369*
X04813*
Y04397*
X04837Y04421*
X0484Y04425*
X04841Y04429*
Y04486*
X04847Y04488*
X04855Y04494*
X04861Y04502*
X04864Y0451*
X04865Y0452*
X04864Y04529*
X04861Y04537*
X04855Y04545*
X04847Y04551*
X04839Y04554*
X0483Y04555*
G37*
G36*
X05675Y04515D02*
X0564D01*
X05641Y04509*
X05645Y045*
X05651Y04491*
X0566Y04485*
X05669Y04481*
X05675Y0448*
Y04515*
G37*
G36*
X03669D02*
X03635D01*
Y0448*
X0364Y04481*
X03649Y04485*
X03658Y04491*
X03664Y045*
X03668Y04509*
X03669Y04515*
G37*
G36*
X05595Y04389D02*
X05578D01*
Y04375*
X05595*
Y04389*
G37*
G36*
X0383Y04555D02*
X0382Y04554D01*
X03812Y04551*
X03804Y04545*
X03798Y04537*
X03795Y04529*
X03794Y0452*
X03795Y0451*
X03798Y04502*
X03804Y04494*
X03812Y04488*
X0382Y04485*
X0383Y04484*
X03839Y04485*
X03847Y04488*
X03855Y04494*
X03861Y04502*
X03864Y0451*
X03865Y0452*
X03864Y04529*
X03861Y04537*
X03855Y04545*
X03847Y04551*
X03839Y04554*
X0383Y04555*
G37*
G36*
X04198Y04375D02*
X04177D01*
Y04352*
X04198*
Y04375*
G37*
G36*
X04012D02*
X03991D01*
Y04352*
X04012*
Y04375*
G37*
G36*
X05941Y04365D02*
X05924D01*
Y0435*
X05941*
Y04365*
G37*
G36*
X05197Y04382D02*
X05175D01*
Y04361*
X05197*
Y04382*
G37*
G36*
X0538Y04555D02*
X0537Y04554D01*
X05362Y04551*
X05354Y04545*
X05348Y04537*
X05345Y04529*
X05344Y0452*
X05345Y0451*
X05348Y04502*
X05354Y04494*
X05362Y04488*
X0537Y04485*
X0538Y04484*
X05389Y04485*
X05397Y04488*
X05405Y04494*
X05411Y04502*
X05414Y0451*
X05415Y0452*
X05414Y04529*
X05411Y04537*
X05405Y04545*
X05397Y04551*
X05389Y04554*
X0538Y04555*
G37*
G36*
X05165Y04382D02*
X05142D01*
Y04361*
X05165*
Y04382*
G37*
G36*
X04525Y04462D02*
X04502D01*
Y04441*
X04525*
Y04462*
G37*
G36*
X05941Y04429D02*
X05924D01*
Y04415*
X05941*
Y04429*
G37*
G36*
X05197Y04413D02*
X05175D01*
Y04392*
X05197*
Y04413*
G37*
G36*
X04459Y04505D02*
X04425D01*
Y0447*
X0443Y04471*
X04439Y04475*
X04448Y04481*
X04454Y0449*
X04458Y04499*
X04459Y04505*
G37*
G36*
X04415D02*
X0438D01*
X04381Y04499*
X04385Y0449*
X04391Y04481*
X044Y04475*
X04409Y04471*
X04415Y0447*
Y04505*
G37*
G36*
X04557Y04462D02*
X04535D01*
Y04441*
X04557*
Y04462*
G37*
G36*
X04525Y04493D02*
X04502D01*
Y04472*
X04525*
Y04493*
G37*
G36*
X03965Y04555D02*
X03894D01*
Y04484*
X03965*
Y04505*
X03969Y04508*
X04074Y04508*
X04074Y04508*
X04074Y04508*
X04186*
Y04499*
X04233*
Y04508*
X04284*
Y04474*
X04355*
Y04545*
X04284*
Y0453*
X04233*
Y04539*
X04186*
Y0453*
X04074*
X03965Y04531*
Y04555*
G37*
G36*
X03625Y04515D02*
X0359D01*
X03591Y04509*
X03595Y045*
X03601Y04491*
X0361Y04485*
X03619Y04481*
X03625Y0448*
Y04515*
G37*
G36*
X04012Y04407D02*
X03991D01*
Y04385*
X04012*
Y04407*
G37*
G36*
X05165Y04413D02*
X05142D01*
Y04392*
X05165*
Y04413*
G37*
G36*
X04167Y04407D02*
X04146D01*
Y04391*
X04043*
Y04407*
X04022*
Y0438*
Y04352*
X04043*
Y04368*
X04146*
Y04352*
X04167*
Y0438*
Y04407*
G37*
G36*
X04557Y04493D02*
X04535D01*
Y04472*
X04557*
Y04493*
G37*
G36*
X05645Y04275D02*
X05628D01*
Y0426*
X05645*
Y04275*
G37*
G36*
X05452Y04276D02*
X05437D01*
Y04259*
X05452*
Y04276*
G37*
G36*
X06287Y04273D02*
X06265D01*
Y04254*
X06287*
Y04273*
G37*
G36*
X05675Y04559D02*
X05669Y04558D01*
X0566Y04554*
X05651Y04548*
X05645Y04539*
X05641Y0453*
X0564Y04525*
X05675*
Y04559*
G37*
G36*
X05411Y04285D02*
X05394D01*
Y0427*
X05411*
Y04285*
G37*
G36*
X05621Y04275D02*
X05604D01*
Y0426*
X05621*
Y04275*
G37*
G36*
X06255Y04273D02*
X06232D01*
Y04254*
X06255*
Y04273*
G37*
G36*
X05685Y04559D02*
Y04525D01*
X05719*
X05718Y0453*
X05714Y04539*
X05708Y04548*
X05699Y04554*
X0569Y04558*
X05685Y04559*
G37*
G36*
X04089Y04269D02*
X04065D01*
Y04216*
X04089*
Y04269*
G37*
G36*
X04055D02*
X0403D01*
Y04216*
X04055*
Y04269*
G37*
G36*
X06287Y04244D02*
X06265D01*
Y04225*
X06287*
Y04244*
G37*
G36*
X03635Y04559D02*
Y04525D01*
X03669*
X03668Y0453*
X03664Y04539*
X03658Y04548*
X03649Y04554*
X0364Y04558*
X03635Y04559*
G37*
G36*
X06255Y04244D02*
X06232D01*
Y04225*
X06255*
Y04244*
G37*
G36*
X04233Y0448D02*
X04186D01*
Y0444*
X04198*
Y04412*
X04198Y04407*
X04193*
X04177*
Y04385*
X04198*
X04203Y04386*
X04205Y04384*
Y04356*
X04209*
X04211Y04351*
X0418Y0432*
X04176Y04322*
Y04327*
X04124*
Y0422*
X04176*
Y04284*
X04235Y04343*
X04237Y04346*
X04238Y04351*
X04238*
Y04356*
X04249*
Y04403*
X04221*
Y0444*
X04233*
Y0448*
G37*
G36*
X0548Y04555D02*
X0547Y04554D01*
X05462Y04551*
X05454Y04545*
X05448Y04537*
X05445Y04529*
X05444Y0452*
X05445Y0451*
X05448Y04502*
X05454Y04494*
X05462Y04488*
X0547Y04485*
X0548Y04484*
X05489Y04485*
X05497Y04488*
X05505Y04494*
X05511Y04502*
X05514Y0451*
X05515Y0452*
X05514Y04529*
X05511Y04537*
X05505Y04545*
X05497Y04551*
X05489Y04554*
X0548Y04555*
G37*
G36*
X05595Y04365D02*
X05578D01*
Y0435*
X05595*
Y04365*
G37*
G36*
X0558Y04555D02*
X0557Y04554D01*
X05562Y04551*
X05554Y04545*
X05548Y04537*
X05545Y04529*
X05544Y0452*
X05545Y0451*
X05548Y04502*
X05554Y04494*
X05562Y04488*
X0557Y04485*
X0558Y04484*
X05589Y04485*
X05597Y04488*
X05605Y04494*
X05611Y04502*
X05614Y0451*
X05615Y0452*
X05614Y04529*
X05611Y04537*
X05605Y04545*
X05597Y04551*
X05589Y04554*
X0558Y04555*
G37*
G36*
X0578D02*
X0577Y04554D01*
X05762Y04551*
X05754Y04545*
X05748Y04537*
X05745Y04529*
X05744Y0452*
X05745Y0451*
X05748Y04502*
X05754Y04494*
X05762Y04488*
X0577Y04485*
X0578Y04484*
X05789Y04485*
X05797Y04488*
X05805Y04494*
X05811Y04502*
X05814Y0451*
X05815Y0452*
X05814Y04529*
X05811Y04537*
X05805Y04545*
X05797Y04551*
X05789Y04554*
X0578Y04555*
G37*
G36*
X05915Y04555D02*
X05844D01*
Y04484*
X05868*
Y04425*
X05862*
Y04394*
X05868*
Y04385*
X05862*
Y04354*
X05868*
Y04344*
X05859Y04335*
X05857Y04337*
X0585Y04338*
X05842Y04337*
X05836Y04333*
X05835Y04331*
X05694*
X05677Y04347*
X05657Y04368*
Y04385*
X05622*
Y04389*
X05605*
Y0437*
Y0435*
X05622*
Y04354*
X05639*
X05653Y0434*
X05625Y04312*
X05581*
X05576Y04311*
X05573Y04308*
X0556Y04295*
X05542*
Y04291*
X0552*
X05515Y0429*
X05512Y04287*
X05509Y04284*
X05509Y04282*
X05482Y04255*
X05477Y04257*
Y04276*
X05462*
Y04254*
X05457*
Y04249*
X05437*
Y04232*
X05441*
Y04226*
X05403*
X05399Y04225*
X05395Y04222*
X05384Y04211*
X05272*
X05255Y04227*
Y04232*
X05302Y04278*
X05332*
Y04274*
X05367*
Y0427*
X05384*
Y0429*
Y04309*
X05367*
Y04305*
X05332*
Y04301*
X05303*
X05303Y04301*
X05298Y04302*
X05294Y04301*
X0529Y04299*
X05264Y04272*
X05259Y04274*
Y04291*
X05245*
Y04269*
X0524*
Y04264*
X0522*
Y04247*
X05224*
Y04242*
X05219Y0424*
X05181Y04278*
Y0431*
X05193*
Y04354*
X05146*
Y0431*
X05158*
Y04274*
X05159Y04269*
X05162Y04266*
X05202Y04225*
Y04183*
X052*
Y04136*
X05202*
Y04024*
X05203Y0402*
X05206Y04016*
X0526Y03962*
Y03951*
X05256Y03949*
X05127Y04078*
Y04151*
X05126Y04155*
X05123Y04158*
X05011Y04271*
Y0431*
X05023*
Y0435*
X04996*
X04981Y04365*
X04983Y04369*
X05023*
Y04409*
X05011*
Y0445*
X0501Y04454*
X05007Y04457*
X04965Y045*
Y04555*
X04894*
Y04484*
X04949*
X04988Y04445*
Y04409*
X04976*
Y04376*
X04971Y04374*
X04948Y04397*
X04945Y04399*
X0494Y044*
X04913*
Y04409*
X04866*
Y04369*
X04913*
Y04378*
X04936*
X04976Y04338*
Y0431*
X04988*
Y04267*
X04989Y04262*
X04992Y04259*
X05104Y04146*
X05103Y04143*
X05098Y04141*
X04942Y04297*
X04942Y04297*
X04942Y04297*
X04913Y04324*
Y0435*
X04866*
Y0431*
X04895*
X04927Y04281*
X05088Y0412*
Y04024*
X05076*
Y04013*
X04923*
X04923Y04013*
X04919Y04014*
X04859*
Y04102*
X04633*
X04631Y04107*
X04792Y04269*
X04793Y0427*
X04794Y04271*
X04795Y04272*
X04795Y04272*
X04795Y04274*
X04796Y04276*
X04799Y0431*
X04813*
Y0435*
X04781*
X04695Y0441*
X04648Y04456*
Y04484*
X04601*
Y04444*
X04628*
X04643Y04429*
X04641Y04425*
X04601*
Y04421*
X04601Y04416*
X04553*
Y04434*
X04506*
Y0439*
X04553*
Y04394*
X04567*
X04569Y04389*
X04569Y04388*
X04568Y04384*
Y04147*
X04567Y04146*
X04463*
X04461Y04152*
X04455Y0416*
X04447Y04166*
X04439Y04169*
X0443Y0417*
X0442Y04169*
X04412Y04166*
X04405Y0416*
X044Y04161*
Y04189*
X0441Y04199*
X04465*
Y0427*
X04394*
Y04215*
X04381Y04201*
X04378Y04198*
X04377Y04194*
Y03599*
X04375Y03598*
X04371Y03592*
X0437Y03585*
X04371Y03577*
X04375Y03571*
X04381Y03567*
X04389Y03566*
X04396Y03567*
X04402Y03571*
X04406Y03577*
X04407Y03585*
X04406Y03592*
X04402Y03598*
X044Y03599*
Y03608*
X04405Y03609*
X04412Y03603*
X0442Y036*
X0443Y03599*
X04439Y036*
X04447Y03603*
X04455Y03609*
X04461Y03617*
X04462Y03621*
X04467Y0362*
Y03549*
X04462Y03548*
X04461Y03552*
X04455Y0356*
X04447Y03566*
X04439Y03569*
X0443Y0357*
X0442Y03569*
X04412Y03566*
X04404Y0356*
X04398Y03552*
X04395Y03544*
X04394Y03535*
X04395Y03525*
X04398Y03517*
X04404Y03509*
X04412Y03503*
X0442Y035*
X0443Y03499*
X04439Y035*
X04447Y03503*
X04455Y03509*
X04461Y03517*
X04462Y03521*
X04467Y0352*
Y03449*
X04462Y03448*
X04461Y03452*
X04455Y0346*
X04447Y03466*
X04439Y03469*
X0443Y0347*
X0442Y03469*
X04412Y03466*
X04404Y0346*
X04398Y03452*
X04395Y03444*
X04394Y03435*
X04395Y03425*
X04398Y03417*
X04404Y03409*
X04412Y03403*
X0442Y034*
X0443Y03399*
X04439Y034*
X04447Y03403*
X04455Y03409*
X04461Y03417*
X04462Y03421*
X04467Y0342*
Y03349*
X04462Y03348*
X04461Y03352*
X04455Y0336*
X04447Y03366*
X04439Y03369*
X0443Y0337*
X0442Y03369*
X04412Y03366*
X04404Y0336*
X04398Y03352*
X04395Y03344*
X04394Y03335*
X04395Y03325*
X04398Y03317*
X04404Y03309*
X04412Y03303*
X04418Y03301*
Y0316*
X04419Y03155*
X04422Y03152*
X04441Y03132*
X04441Y0313*
X04442Y03122*
X04446Y03116*
X04452Y03112*
X0446Y03111*
X04467Y03112*
X04473Y03116*
X04477Y03122*
X04478Y0313*
X04477Y03137*
X04473Y03143*
X04467Y03147*
X0446Y03148*
X04457Y03148*
X04441Y03164*
Y03301*
X04447Y03303*
X04455Y03309*
X04461Y03317*
X04461Y03319*
X04467Y03318*
X04467Y03316*
X04468Y03311*
X04471Y03308*
X04555Y03223*
X04555Y03221*
X04556Y03213*
X0456Y03207*
X04566Y03203*
X04574Y03202*
X04581Y03203*
X04587Y03207*
X04591Y03213*
X04592Y03221*
X04591Y03228*
X04587Y03234*
X04581Y03238*
X04574Y03239*
X04571Y03239*
X0449Y0332*
Y03986*
X04489Y0399*
X04486Y03993*
X04461Y04019*
X04464Y04025*
X04465Y04035*
X04464Y04044*
X04461Y04052*
X04455Y0406*
X04447Y04066*
X04439Y04069*
X0443Y0407*
X0442Y04069*
X04412Y04066*
X04405Y0406*
X044Y04061*
Y04108*
X04405Y04109*
X04412Y04103*
X0442Y041*
X0443Y04099*
X04439Y041*
X04447Y04103*
X04455Y04109*
X04461Y04117*
X04463Y04123*
X04556*
Y04047*
X04551Y04045*
X04549Y04049*
X04543Y04053*
X04536Y04054*
X04528Y04053*
X04522Y04049*
X04518Y04043*
X04517Y04036*
X04518Y04028*
X04522Y04022*
X04524Y04021*
Y03408*
X04525Y03403*
X04528Y034*
X04633Y03294*
Y03089*
X04629Y03085*
X04623*
X04621*
X04587*
Y03054*
X04594*
Y03044*
X04594Y03039*
X04597Y03036*
X04659Y02974*
X04663Y02971*
X04667Y0297*
X04728*
X04744Y02954*
Y02899*
X04815*
Y0297*
X0476*
X0474Y02989*
X04737Y02992*
X04733Y02993*
X04671*
X04618Y03046*
Y03052*
X0462Y03054*
X04626*
X04628*
X04662*
Y03085*
X04655*
Y03299*
X04655Y03303*
X04652Y03307*
X04547Y03412*
Y04021*
X04549Y04022*
X04551Y04026*
X04556Y04024*
Y03499*
X04557Y03494*
X0456Y03491*
X04839Y03212*
X04842Y03209*
X04847Y03208*
Y03208*
X04865*
X04866Y03206*
X04872Y03202*
X0488Y03201*
X04887Y03202*
X04893Y03206*
X04897Y03212*
X04898Y0322*
X04897Y03227*
X04893Y03233*
X04887Y03237*
X0488Y03238*
X04872Y03237*
X04866Y03233*
X04865Y03231*
X04851*
X0463Y03452*
X04632Y03457*
X04859*
Y03656*
X04751*
Y03742*
X0475Y03747*
X04747Y0375*
X04616Y03881*
X04619Y03886*
X04863*
Y03886*
X04867Y03887*
X0487Y0389*
X04943Y03962*
X05072*
Y03952*
X05127*
Y03962*
X05166*
X05223Y03905*
Y03767*
X05224Y03763*
X05226Y03759*
X05254Y03732*
X05257Y03729*
X05262Y03728*
X05266Y03729*
X05266Y03729*
X0529*
Y0371*
X05251*
X05224Y03737*
X0522Y0374*
X05216Y03741*
Y03741*
X05214*
X05188Y03767*
X05188Y0377*
X05187Y03777*
X05183Y03783*
X05177Y03787*
X0517Y03788*
X05162Y03787*
X05156Y03783*
X05156Y03782*
X05151Y03784*
Y0387*
X0515Y03874*
X05147Y03877*
X05139Y03886*
X05135Y03889*
X05131Y03889*
X04982*
X04977Y03889*
X04974Y03886*
X04967Y0388*
X04965Y03876*
X04964Y03872*
Y0387*
X04882Y03788*
X0488Y03788*
X04872Y03787*
X04866Y03783*
X04862Y03777*
X04861Y0377*
X04862Y03762*
X04866Y03756*
X04872Y03752*
X0488Y03751*
X04887Y03752*
X04893Y03756*
X04897Y03762*
X04898Y0377*
X04898Y03772*
X04983Y03857*
X04986Y03861*
X04986Y03865*
X04991Y03867*
X05126*
X05128Y03865*
Y03731*
X05129Y03727*
X05132Y03723*
X05241Y03613*
X05245Y03611*
X05249Y0361*
X05253Y03611*
X05255Y03612*
X05286*
Y03607*
X05319*
Y03597*
X05286*
Y03592*
X05227*
X05223Y03597*
X05219Y03599*
X05216Y036*
X05204*
X0516Y03644*
X0516Y03644*
X05158Y03647*
X05115Y0369*
Y03707*
X05119*
Y03724*
X051*
Y03729*
X05095*
Y03751*
X0508*
Y03728*
X05075Y03726*
X05068Y03733*
Y03786*
X05079*
Y03833*
X05035*
Y03786*
X05046*
Y03728*
X05046*
X05047Y03723*
X05048Y03721*
Y03649*
X05049Y03645*
X05052Y03641*
X05074Y03619*
Y03601*
Y03598*
Y03562*
X05105*
Y03569*
X05128*
Y03555*
X0515*
Y0355*
X05155*
Y0353*
X05172*
Y03534*
X05178*
Y03446*
X05175Y03443*
X05113*
Y03454*
X05066*
Y0341*
X05113*
Y03421*
X0517*
X05178Y03412*
Y03383*
X05174*
Y03348*
Y03346*
Y03343*
Y03306*
X05206*
Y03314*
X0523*
X05231Y03312*
X05237Y03308*
X05245Y03307*
X05252Y03308*
X05258Y03312*
X05259Y03314*
X05289*
X0529Y03312*
X05296Y03308*
X05304Y03307*
X05311Y03308*
X05317Y03312*
X05318Y03314*
X05427*
Y03314*
X05431Y03315*
X05435Y03318*
X05436Y03319*
X05438Y03322*
X05439Y03327*
X05438Y03331*
X05438Y03331*
Y03405*
X05555*
Y03345*
X0555Y03339*
X05547Y03336*
X05547Y03332*
Y03238*
X05435Y03127*
X05048*
X05027Y03147*
X05024Y0315*
X0502Y03151*
X05004*
X05003Y03153*
X04997Y03157*
X0499Y03158*
X04982Y03157*
X04976Y03153*
X04972Y03147*
X04971Y0314*
X04972Y03132*
X04976Y03126*
X04982Y03122*
X0499Y03121*
X04997Y03122*
X05003Y03126*
X05004Y03128*
X05015*
X05036Y03108*
X05039Y03105*
X05044Y03104*
X05395*
Y03075*
X05435*
X05474*
Y03109*
X05455*
X05454Y03114*
X05565Y03225*
X05567Y03229*
X05568Y03233*
X05567Y03237*
X05567Y03237*
Y0329*
X05572Y03293*
X05572Y03292*
X0558Y03291*
X05587Y03292*
X05593Y03296*
X05597Y03302*
X05598Y0331*
X05597Y03317*
X05596Y03318*
Y03339*
X05595Y03343*
X05595Y03343*
Y03383*
X056Y03385*
X05633Y03352*
Y03284*
X05631Y03283*
X05627Y03277*
X05626Y0327*
X05627Y03262*
X05631Y03256*
X05637Y03252*
X05645Y03251*
X05652Y03252*
X05658Y03256*
X05662Y03262*
X05663Y0327*
X05662Y03277*
X05658Y03283*
X05656Y03284*
Y03356*
X05655Y0336*
X05652Y03364*
X05649Y03366*
X05649Y03366*
X05615Y034*
X05615Y03405*
X0577*
Y03366*
X05766Y03363*
X05762Y03357*
X05761Y0335*
X05762Y03342*
X05766Y03336*
X05772Y03332*
X0578Y03331*
X05787Y03332*
X05793Y03336*
X05797Y03342*
X05798Y0335*
X05797Y03357*
X05793Y03363*
X05789Y03366*
Y03405*
X05811*
Y03336*
X05806Y03333*
X05802Y03327*
X05801Y0332*
X05802Y03312*
X05803Y03312*
X058Y03307*
X05747*
X05743Y03313*
X05737Y03317*
X0573Y03318*
X05722Y03317*
X05716Y03313*
X05712Y03307*
X05711Y033*
X05712Y03292*
X05716Y03286*
X05722Y03282*
X0573Y03281*
X05737Y03282*
X05743Y03286*
X05743Y03287*
X05847*
X05851Y03287*
X05854Y0329*
X05897Y03332*
X05899Y03336*
X059Y0334*
Y03406*
X05899Y0341*
X05897Y03413*
X05883Y03427*
X05885Y03431*
X0589Y03431*
X05897Y03432*
X05903Y03436*
X05907Y03442*
X05908Y0345*
X05907Y03457*
X05906Y03458*
Y03491*
X05937*
Y03478*
X05938Y03474*
X0594Y03471*
X05956Y03455*
X05955Y03452*
X05957Y03444*
X05961Y03438*
X05967Y03434*
X05974Y03433*
X05981Y03434*
X05987Y03438*
X05991Y03444*
X05993Y03452*
X05991Y03459*
X05987Y03465*
X05981Y03469*
X05974Y0347*
X0597Y0347*
X05958Y03482*
Y03491*
X05959*
Y03531*
Y0357*
Y03611*
X05964Y03611*
X05988Y03587*
X05988Y03587*
X05991Y03583*
X06008Y03566*
Y03344*
X06006Y03343*
X06002Y03337*
X06001Y0333*
X06002Y03322*
X06006Y03316*
X06012Y03312*
X0602Y03311*
X06027Y03312*
X06033Y03316*
X06037Y03322*
X06038Y0333*
X06037Y03337*
X06033Y03343*
X06031Y03344*
Y0357*
X0603Y03575*
X06027Y03578*
X06006Y03599*
X06003Y03602*
X06003Y03602*
X05997Y03608*
X06Y03612*
X06001Y03611*
X06008Y0361*
X06015Y03611*
X06021Y03615*
X06025Y03621*
X06026Y03622*
X0603Y03624*
X06045Y03609*
Y03197*
X06005Y03157*
X0592*
Y03161*
X05886*
X05884*
X05881*
X05879*
X05845*
Y0313*
X05852*
Y03086*
X05852Y03082*
X05855Y03078*
X05872Y03062*
X05875Y03059*
X0588Y03058*
X06027*
Y03024*
X06098*
Y03095*
X06027*
Y03081*
X05884*
X05874Y03091*
Y03126*
X05878Y0313*
X05884*
X05886*
X0592*
Y03134*
X0601*
X06014Y03135*
X06017Y03138*
X06064Y03185*
X06067Y03188*
X06068Y03193*
Y036*
X06072Y03602*
X06109Y03566*
X06112Y03563*
X06113Y03563*
X06119Y03557*
Y02903*
X06107Y02891*
X06102Y02892*
Y02917*
X06068*
Y02882*
X06092*
X06094Y02877*
X06085Y02869*
X05963*
X05958Y02868*
X05955Y02865*
X05916Y02827*
X05899*
X05897*
X05894*
X05892*
X05858*
Y02811*
X05765*
Y02837*
X05694*
Y02766*
X05765*
Y02789*
X05868*
X05868Y02789*
X05868Y02789*
X0587Y02789*
X05872Y02789*
X05872Y0279*
X05873Y0279*
X05874Y02791*
X05876Y02792*
X05876Y02792*
X05876Y02792*
X05879Y02796*
X05892*
X05894*
X05897*
X05899*
X05933*
Y02812*
X05967Y02846*
X0609*
Y02846*
X06094Y02847*
X06097Y0285*
X06138Y02891*
X06141Y02894*
X06142Y02899*
Y03562*
X06141Y03566*
X06138Y03569*
X06138Y0357*
X0614Y03575*
X0615*
Y03606*
Y03638*
X06125*
X061Y03653*
Y03711*
X061Y03716*
X06098Y03718*
Y03743*
X06103Y03743*
X06111*
X06115Y0374*
Y03685*
X06194*
X06197Y03686*
X06202Y03681*
Y0364*
X06198Y03638*
X0616*
Y03606*
Y03575*
X06198*
X06202Y03573*
Y03444*
X06169Y03411*
X06167Y03411*
X06159Y0341*
X06153Y03406*
X06149Y034*
X06148Y03393*
X06149Y03385*
X06153Y03379*
X06159Y03375*
X06167Y03374*
X06174Y03375*
X0618Y03379*
X06184Y03385*
X06185Y03393*
X06185Y03395*
X06214Y03424*
X06218Y03422*
Y02956*
X05998Y02736*
X05499*
X05477Y02758*
Y02775*
X05443*
X05441*
X05438*
X05436*
X0542*
X05401Y02794*
Y02882*
X05415Y02896*
X0547*
Y02967*
X05399*
Y02912*
X05382Y02895*
X05379Y02891*
X05378Y02887*
Y0279*
X05379Y02786*
X05382Y02782*
X05402Y02761*
Y02744*
X05436*
X05438*
X05441*
X05443*
X05459*
X05486Y02717*
X0549Y02714*
X05494Y02713*
X06003*
X06007Y02714*
X06011Y02717*
X06237Y02943*
X0624Y02947*
X06241Y02951*
Y0372*
X0624Y03724*
X06237Y03727*
X06202Y03762*
X062Y03764*
X062Y03768*
X062Y03769*
X06302*
X06306Y0377*
X06309Y03773*
X06326Y0379*
X06329Y03793*
X0633Y03798*
Y04149*
X0638Y04199*
X0642*
Y0427*
X06349*
Y042*
X06311Y04161*
X06308Y04158*
X06307Y04154*
Y03802*
X06297Y03792*
X06094*
Y03845*
X06064*
Y03897*
X06063Y03901*
X0606Y03904*
X06021Y03944*
X06017Y03947*
X06013Y03948*
X06008Y03947*
X06008Y03947*
X05963*
Y03951*
X0593*
Y03961*
X05963*
Y03967*
X0597*
X05971Y03965*
X05976Y03965*
X0598Y03965*
X05984Y03968*
X06007Y03991*
X0601Y03991*
X06017Y03992*
X06023Y03996*
X06027Y04002*
X06028Y0401*
X06028Y04012*
X06087Y04072*
X0609Y04075*
X06091Y0408*
Y0417*
X06103*
Y0421*
X06063*
X06061Y04214*
X06076Y04229*
X06103*
Y04238*
X06146*
Y04229*
X06193*
Y04269*
X06146*
Y0426*
X06103*
Y04269*
X06056*
Y04241*
X06035Y04221*
X05646*
X05642Y0422*
X05638Y04217*
X05498Y04078*
X05496Y04074*
X05496Y04074*
X05438*
Y04111*
X05441Y04113*
X05445Y04119*
X05447Y04127*
X05445Y04134*
X05441Y0414*
X05435Y04144*
X05428Y04145*
X0542Y04144*
X05414Y0414*
X0541Y04134*
X05409Y04127*
X0541Y04119*
X05414Y04113*
X05417Y04111*
Y04078*
X05413*
Y04045*
X05403*
Y04078*
X05399*
Y04194*
X05408Y04203*
X05441*
Y04197*
X05473*
Y04214*
X05527Y04268*
X05542*
Y04264*
X05577*
Y0426*
X05594*
Y0428*
X05599*
Y04285*
X05621*
Y04289*
X05628*
Y04285*
X0565*
Y0428*
X05655*
Y0426*
X05672*
Y04264*
X05707*
Y04295*
X057*
Y04308*
X05835*
X05836Y04306*
X05842Y04302*
X0585Y04301*
X05857Y04302*
X05863Y04306*
X05866Y0431*
X05867Y04312*
X05887Y04332*
X0589Y04335*
X05891Y0434*
Y04354*
X05897*
Y0435*
X05914*
Y0437*
X05919*
Y04375*
X05941*
Y04389*
Y0439*
Y04405*
X05919*
Y0441*
X05914*
Y04429*
X05897*
Y04425*
X05891*
Y04484*
X05915*
Y04555*
G37*
G36*
X05411Y04309D02*
X05394D01*
Y04295*
X05411*
Y04309*
G37*
G36*
X03625Y04559D02*
X03619Y04558D01*
X0361Y04554*
X03601Y04548*
X03595Y04539*
X03591Y0453*
X0359Y04525*
X03625*
Y04559*
G37*
G36*
X04055Y04331D02*
X0403D01*
Y04279*
X04055*
Y04331*
G37*
G36*
X05235Y04291D02*
X0522D01*
Y04274*
X05235*
Y04291*
G37*
G36*
X04415Y04549D02*
X04409Y04548D01*
X044Y04544*
X04391Y04538*
X04385Y04529*
X04381Y0452*
X0438Y04515*
X04415*
Y04549*
G37*
G36*
X04425D02*
Y04515D01*
X04459*
X04458Y0452*
X04454Y04529*
X04448Y04538*
X04439Y04544*
X0443Y04548*
X04425Y04549*
G37*
G36*
X04089Y04331D02*
X04065D01*
Y04279*
X04089*
Y04331*
G37*
%LNhanc_digital-3*%
%LPD*%
G36*
X03626Y03535D02*
Y0351D01*
X03673*
Y03521*
X03693*
X03706Y03508*
X03706Y03504*
X03706Y03502*
X03706Y03501*
X03693Y03488*
X03673*
Y03499*
X03626*
Y03458*
X03618*
X03611Y03465*
Y03526*
X03621Y03537*
X03626Y03535*
G37*
G36*
X03975Y03625D02*
Y03524D01*
X03972Y03521*
X03967Y03522*
X03963Y03524*
X03959Y03525*
X03934*
X03915Y03548*
Y03553*
X03923Y03561*
X03923Y03561*
X03926Y03563*
X03928Y03566*
X03929Y0357*
Y03586*
X0397Y03627*
X03975Y03625*
G37*
G36*
X05846Y03401D02*
X05857D01*
Y03405*
X05873*
X05877Y03403*
X05879Y03401*
Y03344*
X05843Y03308*
X0584Y03308*
X0584Y03309*
X05837Y03313*
X05838Y0332*
X05837Y03327*
X05833Y03333*
X05832Y03334*
Y03401*
X05836*
Y03434*
X05846*
Y03401*
G37*
G36*
X0529Y03491D02*
X05344D01*
X05344Y03385*
X05344Y03385*
X05343Y03381*
X05306Y03344*
X05304Y03344*
X05296Y03343*
X0529Y03339*
X05289Y03337*
X05259*
X05258Y03339*
X05252Y03343*
X05245Y03344*
X0524Y03343*
X05239Y03344*
X05236Y03348*
X05237Y03354*
X05236Y03361*
X05232Y03367*
X0523Y03368*
Y03482*
X0524Y03493*
X0529*
Y03491*
G37*
G36*
X04467Y0382D02*
Y03749D01*
X04462Y03748*
X04461Y03752*
X04455Y0376*
X04447Y03766*
X04439Y03769*
X0443Y0377*
X0442Y03769*
X04412Y03766*
X04405Y0376*
X044Y03761*
Y03808*
X04405Y03809*
X04412Y03803*
X0442Y038*
X0443Y03799*
X04439Y038*
X04447Y03803*
X04455Y03809*
X04461Y03817*
X04462Y03821*
X04467Y0382*
G37*
G36*
X06041Y03892D02*
Y03845D01*
X06015*
Y03792*
X06001*
X05986Y03806*
X05983Y03809*
X05979Y0381*
X05974Y03809*
X05974Y03809*
X05959*
Y03826*
Y03865*
Y03899*
X05961Y03901*
X05964Y03902*
X05967Y039*
X05971Y03899*
X05984*
X05986Y03896*
X05992Y03892*
X06Y03891*
X06007Y03892*
X06013Y03896*
X06017Y03902*
X06018Y03908*
X06023Y0391*
X06041Y03892*
G37*
G36*
X05896Y0394D02*
X059D01*
Y03905*
Y03865*
Y03829*
X05897*
X05893Y03828*
X05889Y03826*
X05856Y03793*
X05853Y03794*
X05851Y03795*
Y03931*
X05866Y03946*
X05896*
Y0394*
G37*
G36*
X05403Y03715D02*
Y03632D01*
X05389*
X05387Y03637*
X0539Y03642*
X05392Y03649*
X0539Y03656*
X05386Y03662*
X0538Y03666*
X05373Y03668*
X05369Y03667*
X05368Y03668*
X05365Y0367*
X05361Y03671*
X05349*
Y03701*
X05353Y03703*
X05354Y03702*
X05362Y03701*
X05369Y03702*
X05375Y03706*
X05379Y03713*
X05381Y0372*
X05379Y03727*
X05375Y03733*
X05369Y03737*
X05362Y03739*
X05354Y03737*
X05353Y03737*
X05349Y03739*
Y03762*
X05354Y03764*
X05403Y03715*
G37*
G36*
X05456Y03916D02*
Y03732D01*
X05457Y03727*
X0546Y03724*
X05518Y03665*
X0546Y03606*
X05458Y03603*
X05457Y03599*
Y03546*
X05401Y0349*
X05398Y03486*
X05398Y03483*
Y03468*
X05392*
Y03464*
X05376*
Y03405*
X05378*
Y03373*
X05375Y03371*
X05371Y03365*
X05369Y03358*
X05371Y0335*
X05375Y03344*
X05379Y03342*
X05377Y03337*
X05337*
X05335Y03341*
X05362Y03369*
X05365Y03372*
X05366Y03377*
Y03381*
X05365Y03385*
X05365Y03385*
X05364Y03608*
X05367Y03611*
X05409*
X05409Y03611*
X05413Y0361*
X05418Y03611*
X05421Y03613*
X05422Y03614*
X05424Y03618*
X05425Y03622*
Y03718*
X05424Y03723*
X05422Y03726*
X05418Y03729*
X05418Y03729*
X05364Y03783*
X05366Y03788*
X0539*
X0539Y03788*
X05395Y03787*
X05399Y03788*
X05402Y03791*
X05416Y03804*
X05418Y03808*
X05419Y03812*
X05418Y03816*
X05418Y03816*
Y03948*
X05423Y0395*
X05456Y03916*
G37*
G36*
X05263Y04188D02*
X05261Y04183D01*
X05259*
Y04136*
X05299*
Y04183*
X05292*
X05292Y04183*
X05296Y04188*
X05378*
Y04074*
X05376*
Y04056*
X05367*
X05365Y04059*
X05359Y04063*
X05352Y04064*
X05344Y04063*
X05338Y04059*
X05334Y04053*
X05333Y04046*
X05334Y04038*
X05338Y04032*
X05344Y04028*
X05352Y04027*
X05359Y04028*
X05365Y04032*
X05367Y04035*
X05376*
Y04015*
X05392*
Y04011*
X05398*
Y03985*
X05398Y03985*
X05397Y03981*
X05398Y03976*
X05398Y03976*
Y03818*
X05389Y03809*
X05353*
Y03814*
X05349*
Y03865*
Y03905*
Y03944*
Y03988*
X0529*
Y03944*
Y03899*
X05285Y03896*
X05283Y03898*
Y03966*
X05282Y03971*
X05279Y03974*
X05225Y04029*
Y04136*
X0524*
Y04183*
X05225*
Y04212*
X05239*
X05263Y04188*
G37*
G36*
X06056Y04203D02*
Y0417D01*
X06068*
Y04084*
X06012Y04028*
X0601Y04028*
X06002Y04027*
X05996Y04023*
X05992Y04017*
X05991Y0401*
X05991Y04007*
X05969Y03985*
X05959*
Y03988*
X059*
Y03972*
X05896*
Y03966*
X05864*
X05864Y03966*
X0586Y03967*
X05856Y03966*
X05856Y03966*
X05829*
X05829Y03966*
X05825Y03967*
X0582Y03966*
X05817Y03964*
X05534Y03681*
X05479Y03736*
Y03921*
X05478Y03925*
X05476Y03928*
X0548Y03931*
X05551Y0386*
X05551Y03858*
X05552Y0385*
X05556Y03844*
X05562Y0384*
X0557Y03839*
X05577Y0384*
X05583Y03844*
X05587Y0385*
X05588Y03858*
X05587Y03865*
X05583Y03871*
X05577Y03875*
X0557Y03876*
X05567Y03876*
X05458Y03985*
Y04015*
X0575*
Y03964*
X05729Y03943*
X05723Y03943*
X05717Y03947*
X0571Y03948*
X05702Y03947*
X05696Y03943*
X05692Y03937*
X05691Y0393*
X05692Y03922*
X05696Y03916*
X05702Y03912*
X0571Y03911*
X05717Y03912*
X05723Y03916*
X05725Y03919*
X05731*
X05734Y0392*
X05738Y03922*
X05768Y03952*
X0577Y03956*
X05771Y0396*
Y04015*
X05873*
Y04059*
X0588Y04135*
X05883Y04136*
X05887Y04142*
X05888Y0415*
X05887Y04157*
X05883Y04163*
X05877Y04167*
X0587Y04168*
X05862Y04167*
X05856Y04163*
X05852Y04157*
X05851Y0415*
X05852Y04142*
X05856Y04136*
X0586Y04134*
X05853Y04074*
X05769*
X05767Y04079*
X0578Y04091*
X05783Y04091*
X05791Y04092*
X05797Y04096*
X05801Y04102*
X05802Y0411*
X05801Y04117*
X05797Y04123*
X05791Y04127*
X05783Y04128*
X05776Y04127*
X0577Y04123*
X05766Y04117*
X05764Y0411*
X05765Y04106*
X05739Y0408*
X05737Y04076*
X05736Y04074*
X05615*
Y04114*
X05618Y04116*
X05622Y04122*
X05624Y0413*
X05622Y04137*
X05618Y04143*
X05612Y04147*
X05607Y04148*
X05605Y04153*
X05651Y04198*
X0604*
X06044Y04199*
X06048Y04202*
X06051Y04205*
X06056Y04203*
G37*
G36*
X04915Y03992D02*
X04919Y03991D01*
X05076*
Y03985*
X04939*
X04934Y03984*
X04931Y03982*
X04863Y03914*
X04859Y03916*
Y03992*
X04915*
X04915Y03992*
G37*
G36*
X04467Y0392D02*
Y03849D01*
X04462Y03848*
X04461Y03852*
X04455Y0386*
X04447Y03866*
X04439Y03869*
X0443Y0387*
X0442Y03869*
X04412Y03866*
X04405Y0386*
X044Y03861*
Y03908*
X04405Y03909*
X04412Y03903*
X0442Y039*
X0443Y03899*
X04439Y039*
X04447Y03903*
X04455Y03909*
X04461Y03917*
X04462Y03921*
X04467Y0392*
G37*
G36*
X05244Y03929D02*
Y03923D01*
X05239Y03921*
X05178Y03982*
X05175Y03984*
X0517Y03985*
X05123*
Y04024*
X05111*
Y04056*
X05115Y04058*
X05244Y03929*
G37*
G36*
X04467Y0372D02*
Y03649D01*
X04462Y03648*
X04461Y03652*
X04455Y0366*
X04447Y03666*
X04439Y03669*
X0443Y0367*
X0442Y03669*
X04412Y03666*
X04405Y0366*
X044Y03661*
Y03708*
X04405Y03709*
X04412Y03703*
X0442Y037*
X0443Y03699*
X04439Y037*
X04447Y03703*
X04455Y03709*
X04461Y03717*
X04462Y03721*
X04467Y0372*
G37*
G36*
X0468Y04393D02*
X0468Y04393D01*
X04681Y04392*
X04766Y04333*
Y0431*
X04773*
X04776Y04306*
X04774Y04282*
X04607Y04115*
X04605Y04112*
X04604Y04108*
Y03901*
X04599Y03899*
X04595Y03903*
Y0414*
X04594Y04144*
X04591Y04148*
X04591Y04149*
Y04379*
X04598Y04386*
X04601Y04385*
X04648*
Y04418*
X04653Y0442*
X0468Y04393*
G37*
G36*
X0529Y03514D02*
X05239D01*
X05239Y03514*
X05235Y03515*
X0523Y03514*
X05227Y03511*
X05211Y03495*
X05208Y03491*
X05207Y03487*
Y03387*
X05206Y03383*
X05201*
Y03417*
Y03534*
X05207*
Y03552*
X0529*
Y03514*
G37*
G36*
X05867Y03548D02*
X05867Y03546D01*
X05868Y03538*
X05872Y03532*
X05878Y03528*
X05881Y03527*
X05885Y03526*
X05885Y03522*
Y03522*
X05885Y03522*
X05885Y03522*
X05886Y0352*
Y03468*
X05882Y03467*
X05878Y03464*
X05873Y03464*
X05857*
Y03468*
X05851*
Y03557*
X05856Y03559*
X05867Y03548*
G37*
G36*
X04728Y03738D02*
Y03656D01*
X0462*
Y03468*
X04616Y03466*
X04579Y03503*
Y03881*
X04583Y03883*
X04728Y03738*
G37*
G36*
X05156Y03756D02*
X05162Y03752D01*
X0517Y03751*
X05172Y03751*
X05202Y03722*
X05205Y03719*
X0521Y03718*
X05211*
X05237Y03692*
X05238Y03692*
X0524Y03689*
X05239Y03686*
X05237Y03682*
X05235Y03675*
X05237Y03668*
X05241Y03662*
X05247Y03658*
X05254Y03656*
X05261Y03658*
X05267Y03662*
X05271Y03668*
X05272Y0367*
X0529*
Y03631*
X05256*
X05151Y03736*
Y03755*
X05156Y03757*
X05156Y03756*
G37*
G36*
X0583Y03939D02*
X0583Y03937D01*
X05831Y03933*
X05831Y03933*
Y03468*
X05825*
Y03464*
X05812*
Y03468*
X05811Y03471*
X05809Y03475*
X05758Y03526*
X05758Y0353*
X05757Y03537*
X05753Y03543*
X05747Y03547*
X0574Y03548*
X05732Y03547*
X05726Y03543*
X05722Y03537*
X05721Y0353*
X05722Y03522*
X05726Y03516*
X05732Y03512*
X0574Y03511*
X05743Y03511*
X05786Y03469*
X05784Y03464*
X0553*
X05528Y03469*
X05646Y03587*
X05649Y03586*
X05657Y03588*
X05663Y03592*
X05667Y03598*
X05668Y03605*
X05667Y03612*
X05663Y03618*
X05657Y03623*
X05656Y03623*
X05654Y03628*
X05671Y03644*
X05675Y03644*
X05682Y03645*
X05688Y03649*
X05692Y03655*
X05693Y03663*
X05692Y0367*
X05688Y03676*
X05682Y0368*
X05675Y03681*
X05667Y0368*
X05661Y03676*
X05657Y0367*
X05656Y03663*
X05656Y03659*
X05482Y03485*
X05477Y03487*
Y03512*
X05524Y03559*
X05528Y0356*
X05534Y03564*
X05538Y0357*
X05539Y03578*
X05538Y03585*
X05534Y03591*
X05528Y03595*
X05521Y03596*
X05513Y03595*
X05507Y03591*
X05503Y03585*
X05502Y03578*
X05503Y0357*
X05503Y0357*
X05482Y03549*
X05478Y03551*
Y03595*
X05538Y03655*
X05538Y03655*
X05542Y03657*
X05826Y03941*
X0583Y03939*
G37*
G36*
X05084Y03688D02*
Y03672D01*
X05101*
X05142Y03632*
X05146Y03629*
X05146Y03629*
X05179Y03596*
X05177Y03591*
X05105*
Y03598*
Y03601*
Y03637*
X05088*
X05071Y03654*
Y03693*
X05073Y03694*
X05076Y03694*
X05084Y03688*
G37*
G36*
X05876Y03727D02*
X05884Y03726D01*
X05884Y03725*
Y03662*
X05885Y03658*
X05887Y03654*
X05888Y03653*
X05892Y03651*
X05896Y0365*
X059*
Y03609*
Y03564*
X05895Y03561*
X05893Y03563*
X05886Y03564*
X05883Y03564*
X05871Y03576*
Y03725*
X05875Y03728*
X05876Y03727*
G37*
G54D10*
X0626Y04249D03*
Y0419D03*
X0617Y04249D03*
Y0419D03*
X0608D03*
Y04249D03*
X0421Y0446D03*
Y04519D03*
X05Y04389D03*
Y0433D03*
X04625Y04464D03*
Y04405D03*
X0479Y04389D03*
Y0433D03*
X0489Y04389D03*
Y0433D03*
G54D11*
X0474Y04003D03*
Y03556D03*
G54D12*
X03764Y03514D03*
Y03494D03*
Y03474D03*
Y03455D03*
Y03435D03*
Y03415D03*
X03945D03*
Y03435D03*
Y03455D03*
Y03474D03*
Y03494D03*
Y03514D03*
G54D13*
X03805Y03374D03*
X03825D03*
X03845D03*
X03864D03*
X03884D03*
X03904D03*
Y03555D03*
X03884D03*
X03864D03*
X03845D03*
X03825D03*
X03805D03*
G54D14*
X03855Y03465D03*
G54D15*
X0509Y03619D03*
Y0358D03*
X05457Y04215D03*
Y04254D03*
X0524Y0423D03*
Y04269D03*
X051Y0369D03*
Y03729D03*
G54D16*
X04644Y0307D03*
X04605D03*
X04954Y0298D03*
X04915D03*
X05459Y0276D03*
X0542D03*
X05915Y02812D03*
X05876D03*
X05902Y03146D03*
X05863D03*
X0588Y0437D03*
X05919D03*
X0588Y0441D03*
X05919D03*
X05689Y0428D03*
X0565D03*
X05639Y0437D03*
X056D03*
X0556Y0428D03*
X05599D03*
X0535Y0429D03*
X05389D03*
X0515Y0355D03*
X05189D03*
G54D17*
X0519Y03325D03*
Y03365D03*
G54D18*
X0509Y03432D03*
Y03487D03*
X0365Y03477D03*
Y03532D03*
X0373Y03612D03*
Y03667D03*
X0406Y03602D03*
Y03657D03*
X0517Y04332D03*
Y04387D03*
X0453Y04467D03*
Y04412D03*
X051Y03947D03*
Y04002D03*
G54D19*
X05057Y0381D03*
X05002D03*
X03832Y0372D03*
X03777D03*
X03937D03*
X03882D03*
X03872Y0405D03*
X03927D03*
X04227Y0438D03*
X04172D03*
X03962D03*
X04017D03*
G54D20*
X06055Y03818D03*
Y03711D03*
X06155Y03713D03*
Y03606D03*
G54D21*
X0478Y03072D03*
Y02935D03*
X05127Y0294D03*
Y02802D03*
X0573Y0294D03*
Y02802D03*
X06063Y02922D03*
Y03059D03*
X05435Y0307D03*
Y02932D03*
X06385Y04235D03*
X0443D03*
G54D22*
X05319Y03976D03*
Y03956D03*
Y03936D03*
Y03917D03*
Y03897D03*
Y03877D03*
Y03858D03*
Y03838D03*
Y03818D03*
Y03799D03*
Y03779D03*
Y03759D03*
Y0374D03*
Y0372D03*
Y037D03*
Y0368D03*
Y03661D03*
Y03641D03*
Y03621D03*
Y03602D03*
Y03582D03*
Y03562D03*
Y03543D03*
Y03523D03*
Y03503D03*
X0593D03*
Y03523D03*
Y03543D03*
Y03562D03*
Y03582D03*
Y03602D03*
Y03621D03*
Y03641D03*
Y03661D03*
Y0368D03*
Y037D03*
Y0372D03*
Y0374D03*
Y03759D03*
Y03779D03*
Y03799D03*
Y03818D03*
Y03838D03*
Y03858D03*
Y03877D03*
Y03897D03*
Y03917D03*
Y03936D03*
Y03956D03*
Y03976D03*
G54D23*
X05388Y03434D03*
X05408D03*
X05428D03*
X05447D03*
X05467D03*
X05487D03*
X05506D03*
X05526D03*
X05546D03*
X05565D03*
X05585D03*
X05605D03*
X05625D03*
X05644D03*
X05664D03*
X05684D03*
X05703D03*
X05723D03*
X05743D03*
X05762D03*
X05782D03*
X05802D03*
X05821D03*
X05841D03*
X05861D03*
Y04045D03*
X05841D03*
X05821D03*
X05802D03*
X05782D03*
X05762D03*
X05743D03*
X05723D03*
X05703D03*
X05684D03*
X05664D03*
X05644D03*
X05625D03*
X05605D03*
X05585D03*
X05565D03*
X05546D03*
X05526D03*
X05506D03*
X05487D03*
X05467D03*
X05447D03*
X05428D03*
X05408D03*
X05388D03*
G54D24*
X0406Y04045D03*
G54D25*
X03969Y04274D03*
X0406D03*
X0415D03*
G54D26*
X05279Y0416D03*
X0522D03*
G54D27*
X06089Y03647D02*
Y03711D01*
X0426Y03455D02*
Y0362D01*
X0588Y0434D02*
Y0452D01*
X05237Y0423D02*
X05298Y04291D01*
X05237Y0423D02*
X05267Y042D01*
X0519Y03326D02*
X05245D01*
X0604Y0421D02*
X0608Y04249D01*
X05646Y0421D02*
X0604D01*
X05506Y0407D02*
X05646Y0421D01*
X05506Y04045D02*
Y0407D01*
X05669Y0434D02*
X05689Y0432D01*
X05639Y0437D02*
X05669Y0434D01*
X0563Y043D02*
X05669Y0434D01*
X05581Y043D02*
X0563D01*
X0556Y0428D02*
X05581Y043D01*
X0601Y0401D02*
X0608Y0408D01*
Y0419*
X0617D02*
X0626D01*
X0617Y04249D02*
D01*
X0608D02*
X0617D01*
X05689Y0432D02*
D01*
X0585D01*
X05689D02*
D01*
X0569Y0432*
X05689Y0432D02*
D01*
X05976Y03976D02*
X0601Y0401D01*
X0577Y0451D02*
X0578Y0452D01*
X06053Y03818D02*
Y03897D01*
X06013Y03936D02*
X06053Y03897D01*
X0585Y0432D02*
X0586D01*
X0588Y0434*
X05689Y0428D02*
Y0432D01*
X0506Y03726D02*
X05083Y03703D01*
X05057Y03728D02*
X0506Y03725D01*
X05057Y03728D02*
Y0381D01*
X0397Y0377D02*
Y0405D01*
Y03738D02*
Y0377D01*
X03975Y03775*
X0422*
X0488Y0377D02*
X04975Y03865D01*
X0453Y04405D02*
X04601D01*
X04975Y03865D02*
Y03872D01*
X04982Y03878*
X05131*
X0514Y0387*
Y03731D02*
Y0387D01*
Y03731D02*
X05249Y03621D01*
X0517Y0377D02*
X0521Y0373D01*
X05216*
X051Y0369D02*
X0515Y0364D01*
X05083Y03703D02*
X051Y0369D01*
X0519Y03417D02*
Y03563D01*
X05185Y0358D02*
X0519Y03575D01*
X0509Y0358D02*
X05185D01*
X0519Y03365D02*
Y03417D01*
X0506Y03649D02*
X0509Y03619D01*
X0506Y03649D02*
Y03725D01*
X0506Y03726*
X05219Y03487D02*
X05235Y03503D01*
X04195Y03684D02*
X0426Y0362D01*
X03986Y03689D02*
X04036Y0374D01*
X0413*
X04185Y03684*
X04195*
X04389Y03585D02*
Y04194D01*
X03986Y03518D02*
Y03689D01*
X0402Y0369D02*
X0403D01*
X03886Y0372D02*
X0391Y03696D01*
Y03665D02*
Y03696D01*
X0397Y0405D02*
X03984Y04064D01*
X03927Y0405D02*
X0397D01*
X0387Y03627D02*
Y0366D01*
X03903Y03659D02*
X0391Y03665D01*
X03882Y0372D02*
X03886D01*
X03885Y03584D02*
X03903Y03601D01*
Y03659*
X0373Y03612D02*
X03807D01*
X0373Y03667D02*
X03782D01*
X03649Y04129D02*
X03698Y04178D01*
X03649Y03678D02*
Y04129D01*
X0365Y03581D02*
Y03677D01*
X03649Y03678D02*
X0365Y03677D01*
X03782Y03667D02*
X03849Y036D01*
X0406Y0356D02*
Y03602D01*
X0403Y0353D02*
X0406Y0356D01*
X03984Y04064D02*
Y04085D01*
X03891Y03468D02*
X03917Y03494D01*
X0403Y0369D02*
X0406Y0366D01*
X03969Y041D02*
X03984Y04085D01*
X0443Y0316D02*
X0446Y0313D01*
X0499Y0314D02*
X0502D01*
X05044Y03116*
X04954Y0298D02*
Y03689D01*
X0497Y03705*
X04847Y0322D02*
X0488D01*
X04568Y03499D02*
X04847Y0322D01*
X05044Y03116D02*
X0544D01*
X05267Y042D02*
X05279Y04188D01*
Y0416D02*
Y04188D01*
X05214Y04024D02*
Y0423D01*
X0517Y04274D02*
Y04332D01*
X05916Y02811D02*
X05963Y02858D01*
X05Y04267D02*
X05116Y04151D01*
Y04073D02*
Y04151D01*
Y04073D02*
X05255Y03934D01*
X05468Y03732D02*
Y03921D01*
Y03732D02*
X05534Y03665D01*
X05825Y03956*
X03715Y03447D02*
X03724Y03455D01*
X04536Y03408D02*
Y04036D01*
Y03408D02*
X04644Y03299D01*
Y0307D02*
Y03299D01*
X05447Y0398D02*
X0557Y03858D01*
X0497Y03705D02*
X0501D01*
X05989Y0372D02*
X06023Y03755D01*
X06195*
X0623Y0372*
Y02951D02*
Y0372D01*
X06003Y02725D02*
X0623Y02951D01*
X05974Y037D02*
X05995Y03679D01*
X06072*
X06073Y03678*
X06001Y03663D02*
X06007D01*
X06057Y03613*
X05884Y03745D02*
X05895Y03734D01*
X05995Y03641D02*
X06008Y03629D01*
X0602Y0333D02*
Y0357D01*
X05999Y03591D02*
X0602Y0357D01*
X06319Y04154D02*
X06385Y0422D01*
X06319Y03798D02*
Y04154D01*
X06302Y03781D02*
X06319Y03798D01*
X05997Y03781D02*
X06302D01*
X05979Y03799D02*
X05997Y03781D01*
X042Y03358D02*
Y03606D01*
X04187Y03346D02*
X042Y03358D01*
X04019Y03346D02*
X04187D01*
X05254Y03675D02*
X05259Y0368D01*
X05216Y0373D02*
X05245Y037D01*
X04043Y0344D02*
Y03449D01*
X04015Y03412D02*
X04043Y0344D01*
X04Y03412D02*
X04015D01*
X05645Y0327D02*
Y03356D01*
X04479Y03316D02*
X04574Y03221D01*
X04479Y03316D02*
Y03986D01*
X0443Y04035D02*
X04479Y03986D01*
X04568Y03499D02*
Y04134D01*
X04567Y04135D02*
X04568Y04134D01*
X0443Y04135D02*
X04567D01*
X0443Y0316D02*
Y03335D01*
X04389Y04194D02*
X0443Y04235D01*
X05219Y03354D02*
Y03487D01*
X05395Y03799D02*
X05408Y03812D01*
Y03981D02*
X05468Y03921D01*
X05841Y03937D02*
X0586Y03956D01*
X05255Y03793D02*
Y03934D01*
X04625Y04464D02*
X04687Y04401D01*
X0479Y0433*
X04733Y02982D02*
X0478Y02935D01*
X04667Y02982D02*
X04733D01*
X04605Y03044D02*
X04667Y02982D01*
X04605Y03044D02*
Y0307D01*
X04937Y02802D02*
X05127D01*
X04915Y02824D02*
X04937Y02802D01*
X04915Y02824D02*
Y0298D01*
X03698Y03477D02*
X03715Y03494D01*
X03698Y03532D02*
X03716Y03514D01*
X06155Y03713D02*
X06191Y03708D01*
X06214Y03686*
Y0344D02*
Y03686D01*
X06167Y03393D02*
X06214Y0344D01*
X06053Y03818D02*
X06055D01*
X05214Y04024D02*
X05272Y03966D01*
Y03893D02*
Y03966D01*
X0519Y03563D02*
Y03575D01*
Y03563D02*
X0519Y03562D01*
X05175Y03432D02*
X0519Y03417D01*
X0509Y03432D02*
X05175D01*
X0474Y03556D02*
Y03742D01*
X04601Y04405D02*
X04625D01*
X0489Y0433D02*
X04935Y04289D01*
X051Y04124*
Y04002D02*
Y04124D01*
X04919Y04002D02*
X051D01*
X04919Y04003D02*
X04919Y04002D01*
X0474Y04003D02*
X04919D01*
X06055Y03711D02*
X06089D01*
Y03647D02*
X06155Y03606D01*
X03969Y041D02*
Y04274D01*
X05413Y03621D02*
X05414Y03622D01*
X0519Y03325D02*
Y03326D01*
X05304D02*
X05427D01*
X05428Y03327*
X05355Y03377D02*
Y03381D01*
X05245Y03326D02*
X05304D01*
X05414Y03622D02*
Y03718D01*
X05304Y03326D02*
X05355Y03377D01*
X05388Y042D02*
X05403Y04215D01*
X05234Y03767D02*
X05262Y0374D01*
X05234Y03767D02*
Y0391D01*
X0517Y03974D02*
X05234Y0391D01*
X04939Y03974D02*
X0517D01*
X04863Y03898D02*
X04939Y03974D01*
X04616Y03898D02*
X04863D01*
X04615Y03899D02*
X04616Y03898D01*
X04615Y03899D02*
Y04108D01*
X04785Y04277*
X0479Y0433*
X06118Y03574D02*
X06131Y03562D01*
X06116Y03574D02*
X06118D01*
X06073Y03618D02*
Y03678D01*
Y03618D02*
X06116Y03574D01*
X05963Y02858D02*
X0609D01*
X06131Y02899*
Y03562*
X05868Y028D02*
X05876Y02809D01*
X0573Y028D02*
X05868D01*
X0573Y028D02*
X0573Y028D01*
X05494Y02725D02*
X06003D01*
X0539Y0279D02*
X0542Y0276D01*
X0539Y0279D02*
Y02887D01*
X05435Y02932*
X05459Y0276D02*
X05494Y02725D01*
X06057Y03193D02*
Y03613D01*
X05902Y03146D02*
X0601D01*
X06057Y03193*
X05863Y03086D02*
Y03146D01*
Y03086D02*
X0588Y0307D01*
X06052*
X06063Y03059*
X03849Y036D02*
Y036D01*
X05585Y03315D02*
Y03339D01*
X0558Y0331D02*
X05585Y03315D01*
X0544Y03116D02*
X05557Y03233D01*
X05467Y03518D02*
X05521Y03572D01*
Y03578*
X053Y0429D02*
X0535D01*
X05298Y04291D02*
X053Y0429D01*
X05267Y042D02*
X05388D01*
X0552Y0428D02*
X05521Y04278D01*
X0552Y0428D02*
X0556D01*
X03989Y03455D02*
X0399D01*
X03996Y03461*
X03962Y0438D02*
X03969Y04372D01*
Y04274D02*
Y04372D01*
X04017Y0438D02*
X04172D01*
X04227Y04351D02*
Y0438D01*
X0415Y04274D02*
X04227Y04351D01*
X04074Y04519D02*
X0421D01*
X0393Y0452D02*
X04074Y04519D01*
X0421Y04397D02*
Y0446D01*
Y04397D02*
X04227Y0438D01*
X04584Y03898D02*
X0474Y03742D01*
X04584Y03898D02*
Y0414D01*
X0458Y04144D02*
X04584Y0414D01*
X0458Y04144D02*
Y04384D01*
X04601Y04405*
X03698Y04475D02*
X0373Y0452D01*
X03698Y04178D02*
Y04475D01*
X0356Y03478D02*
X03606Y03432D01*
X0356Y03478D02*
Y04105D01*
X0365Y03532D02*
X03698D01*
X0365Y03477D02*
X03698D01*
X036Y03531D02*
X0365Y03581D01*
X036Y0346D02*
Y03531D01*
Y0346D02*
X03613Y03447D01*
X03715*
X0356Y04105D02*
X036Y04145D01*
Y0417*
X0421Y04519D02*
X0431D01*
X0432Y0451*
X0517Y04274D02*
X05214Y0423D01*
X05Y04267D02*
Y0433D01*
X0489Y04389D02*
X0494D01*
X05Y0433*
X0483Y04429D02*
Y0452D01*
X0479Y04389D02*
X0483Y04429D01*
X0493Y0452D02*
X05Y0445D01*
Y04389D02*
Y0445D01*
X0586Y03572D02*
X05886Y03546D01*
X0586Y03572D02*
Y03781D01*
X05457Y04215D02*
X05521Y04278D01*
X05403Y04215D02*
X05457D01*
G54D28*
X05352Y04046D02*
X05388D01*
X05861Y04045D02*
X05872Y04149D01*
X05971Y0391D02*
X06D01*
X05964Y03917D02*
X05971Y0391D01*
X0593Y03936D02*
X06013D01*
X05223Y03582D02*
X05319D01*
X05216Y0359D02*
X05223Y03582D01*
X052Y0359D02*
X05216D01*
X0515Y0364D02*
X052Y0359D01*
X05235Y03503D02*
X05319D01*
X05948Y03478D02*
Y03503D01*
X05468Y03599D02*
X05534Y03665D01*
X05447Y0398D02*
Y04045D01*
X05955Y0368D02*
X05972Y03663D01*
X06001*
X05895Y03662D02*
Y03734D01*
Y03662D02*
X05896Y03661D01*
X0593*
X05969Y03621D02*
X05999Y03591D01*
X05361Y03661D02*
X05373Y03649D01*
X05259Y0368D02*
X05319D01*
X05245Y037D02*
X05319D01*
X05896Y03522D02*
X0593Y03523D01*
X05948Y03478D02*
X05974Y03452D01*
X05605Y03396D02*
Y03434D01*
Y03396D02*
X05645Y03356D01*
X05585Y03339D02*
Y03434D01*
X05897Y03818D02*
X0593D01*
X05487Y03475D02*
X05675Y03663D01*
X05388Y03358D02*
Y03434D01*
X05408Y03981D02*
Y04045D01*
Y03812D02*
Y03981D01*
X05468Y03542D02*
Y03599D01*
X05408Y03483D02*
X05468Y03542D01*
X0586Y03956D02*
X0593D01*
X05825D02*
X0586D01*
X05289Y03759D02*
X05319D01*
X05255Y03793D02*
X05289Y03759D01*
X05272Y03893D02*
X05287Y03877D01*
X05319*
X0519Y03562D02*
X05319D01*
X05354Y03621D02*
X05355Y03381D01*
X05428Y03327D02*
Y03434D01*
X05354Y03621D02*
X05413D01*
X05354Y03779D02*
X05414Y03718D01*
X05388Y04045D02*
Y04046D01*
X05262Y0374D02*
X05319D01*
X05565Y03341D02*
Y03434D01*
X05557Y03233D02*
Y03332D01*
X05565Y03341*
X05506Y03462D02*
X05649Y03605D01*
X0593Y0368D02*
X05955D01*
X05506Y03434D02*
Y03462D01*
X0593Y03799D02*
X05979D01*
X05487Y03434D02*
Y03475D01*
X05428Y04045D02*
Y04127D01*
X05388Y04046D02*
Y042D01*
X05319Y03779D02*
X05354D01*
X0593Y03641D02*
X05995D01*
X05467Y03434D02*
Y03518D01*
X05319Y03661D02*
X05361D01*
X0593Y0372D02*
X05989D01*
X0593Y03621D02*
X05969D01*
X05319Y0372D02*
X05362D01*
X0593Y03917D02*
X05964D01*
X0593Y037D02*
X05974D01*
X0593Y03503D02*
X05948D01*
X05319Y03799D02*
X05395D01*
X05408Y03434D02*
Y03483D01*
X0574Y0353D02*
X0574D01*
X05802Y03434D02*
Y03468D01*
X0574Y0353D02*
X05802Y03468D01*
X05841Y03434D02*
Y03937D01*
X05896Y03522D02*
X05896Y03522D01*
X0589Y0345D02*
X05896Y03456D01*
Y03522*
X05861Y03434D02*
X0589Y03406D01*
Y0334D02*
Y03406D01*
X0573Y033D02*
X05732Y03297D01*
X05847*
X0582Y0332D02*
X05821Y03321D01*
Y03434*
X05847Y03297D02*
X0589Y0334D01*
X0586Y03781D02*
X05897Y03818D01*
X05605Y04045D02*
Y0413D01*
X05743Y04045D02*
X05746Y04048D01*
Y04072*
X05761Y04043D02*
X05762Y04045D01*
X05761Y0396D02*
Y04043D01*
X05731Y0393D02*
X05761Y0396D01*
X0571Y0393D02*
X05731D01*
X05746Y04072D02*
X05783Y0411D01*
G54D29*
X0397Y0364D02*
Y03738D01*
X0593Y03976D02*
X05976D01*
X05249Y03621D02*
X05319D01*
X0392Y0359D02*
X0397Y0364D01*
X0392Y03571D02*
Y0359D01*
Y0357D02*
Y03571D01*
X03704Y03555D02*
X03805D01*
X03664Y03596D02*
X03704Y03555D01*
X03664Y03596D02*
Y03684D01*
X03945Y03474D02*
X03974D01*
X0403Y0353*
X03949Y03498D02*
X03965D01*
X03945Y03494D02*
X03949Y03498D01*
X03965D02*
X03986Y03518D01*
X03917Y03494D02*
X03945D01*
X03904Y03555D02*
X0392Y03571D01*
X03743Y03435D02*
X03764D01*
X0374Y03432D02*
X03743Y03435D01*
X03724Y03455D02*
X03764D01*
X0395Y03415D02*
X04019Y03346D01*
X03945Y03415D02*
X0395D01*
X03945Y03455D02*
X03989D01*
X03884Y03263D02*
Y03374D01*
Y03555D02*
Y03583D01*
X03715Y03494D02*
X03764D01*
X03716Y03514D02*
X03764D01*
X03864Y03555D02*
Y03587D01*
X03904Y03547D02*
X03932Y03514D01*
X03945*
X03845Y03555D02*
Y03595D01*
X03825Y03555D02*
Y03594D01*
X03864Y03324D02*
Y03374D01*
X03859Y03319D02*
X03864Y03324D01*
X03859Y03279D02*
Y03319D01*
X05319Y03621D02*
X05354D01*
X0578Y0335D02*
Y0343D01*
X03945Y03435D02*
X03977D01*
G54D30*
X0387Y03592D02*
Y03627D01*
X03864Y03587D02*
X0387Y03592D01*
X03777Y0372D02*
X0378D01*
X037D02*
X03777D01*
X03664Y03684D02*
X037Y0372D01*
X03606Y03432D02*
X0374D01*
X03884Y03583D02*
X03885Y03584D01*
X03977Y03435D02*
X04Y03412D01*
G54D31*
X03807Y03612D02*
X03825Y03594D01*
X03884Y03263D02*
X03899Y03249D01*
X03845Y03595D02*
X03849Y036D01*
G54D32*
X06385Y04135D03*
Y03935D03*
Y03835D03*
Y03735D03*
Y03635D03*
Y03535D03*
Y03435D03*
Y03335D03*
Y04035D03*
X0443Y04135D03*
Y03935D03*
Y03835D03*
Y03735D03*
Y03635D03*
Y03535D03*
Y03435D03*
Y03335D03*
Y04035D03*
X0442Y0451D03*
X0383Y0452D03*
X0373D03*
X0363D03*
X0483D03*
X0538D03*
X0548D03*
X0558D03*
X0568D03*
X0578D03*
G54D33*
X0432Y0451D03*
X0393Y0452D03*
X0493D03*
X0588D03*
G54D34*
X0601Y0401D03*
X0587Y0415D03*
X06Y0391D03*
X0585Y0432D03*
X04259Y03455D03*
X0422Y03775D03*
X0488Y0377D03*
X0517D03*
X0402Y0369D03*
X0387Y0366D03*
X03833Y03486D03*
X03876D03*
X03833Y03443D03*
X03876D03*
X0446Y0313D03*
X0499Y0314D03*
X0488Y0322D03*
X05428Y04127D03*
X04536Y04036D03*
X0557Y03858D03*
X0501Y03705D03*
X05884Y03745D03*
X06008Y03629D03*
X0602Y0333D03*
X05373Y03649D03*
X042Y03606D03*
X05254Y03675D03*
X04043Y03449D03*
X05974Y03452D03*
X05645Y0327D03*
X04574Y03221D03*
X05886Y03546D03*
X04389Y03585D03*
X05675Y03663D03*
X05388Y03358D03*
X03899Y03249D03*
X05219Y03354D03*
X05362Y0372D03*
X06167Y03393D03*
X05304Y03326D03*
X05245D03*
X05352Y04046D03*
X0558Y0331D03*
X03859Y03279D03*
X05521Y03578D03*
X05649Y03605D03*
X0574Y0353D03*
X0589Y0345D03*
X0573Y033D03*
X0582Y0332D03*
X0578Y0335D03*
X03996Y03461D03*
X0389Y0422D03*
X036Y0417D03*
X05605Y0413D03*
X0571Y0393D03*
X05783Y0411D03*
M02*