%FSTAX23Y23*%
%MOIN*%
%SFA1B1*%

%IPPOS*%
%ADD27C,0.010000*%
%ADD35C,0.009840*%
%ADD36C,0.023620*%
%ADD37C,0.007870*%
%ADD38C,0.005000*%
%LNhanc_digital-1*%
%LPD*%
G54D27*
X05861Y04329D02*
X05853Y04337D01*
X05837*
X0583Y04329*
Y04297*
X05837Y0429*
X05853*
X05861Y04297*
X05877Y0429D02*
X05892D01*
X05885*
Y04337*
X05877Y04329*
X05916Y0429D02*
X05932D01*
X05924*
Y04337*
X05916Y04329*
X05955D02*
X05963Y04337D01*
X05979*
X05987Y04329*
Y04321*
X05979Y04313*
X05971*
X05979*
X05987Y04305*
Y04297*
X05979Y0429*
X05963*
X05955Y04297*
X0624Y04029D02*
X0623Y04019D01*
Y04*
X0624Y0399*
X0625*
X0626Y04*
Y04019*
X0627Y04029*
X0628*
X0629Y04019*
Y04*
X0628Y0399*
X0623Y04049D02*
X0629D01*
Y04079*
X0628Y04089*
X0627*
X0626Y04079*
Y04049*
Y04079*
X0625Y04089*
X0624*
X0623Y04079*
Y04049*
Y04109D02*
X0629D01*
Y04139*
X0628Y04149*
X0627*
X0626Y04139*
Y04109*
Y04139*
X0625Y04149*
X0624*
X0623Y04139*
Y04109*
X062Y04D02*
X0614D01*
Y04029*
X0615Y04039*
X0617*
X0618Y04029*
Y04*
Y04019D02*
X062Y04039D01*
X0614Y04059D02*
X062D01*
Y04089*
X0619Y04099*
X0618*
X0617Y04089*
Y04059*
Y04089*
X0616Y04099*
X0615*
X0614Y04089*
Y04059*
X062Y04119D02*
Y04139D01*
Y04129*
X0614*
X0615Y04119*
X0611Y04D02*
X0605D01*
Y04029*
X0606Y04039*
X0608*
X0609Y04029*
Y04*
Y04019D02*
X0611Y04039D01*
X0605Y04059D02*
X0611D01*
Y04089*
X061Y04099*
X0609*
X0608Y04089*
Y04059*
Y04089*
X0607Y04099*
X0606*
X0605Y04089*
Y04059*
X0611Y04159D02*
Y04119D01*
X0607Y04159*
X0606*
X0605Y04149*
Y04129*
X0606Y04119*
X04532Y0366D02*
X0458Y03691D01*
X04532D02*
X0458Y0366D01*
X04532Y03707D02*
Y03738D01*
Y03722*
X0458*
X04532Y03754D02*
X0458D01*
Y03785*
Y03801D02*
Y03817D01*
Y03809*
X04532*
X0454Y03801*
X0355Y03407D02*
X03581D01*
X03565*
Y0336*
X03628D02*
X03597D01*
X03628Y03391*
Y03399*
X0362Y03407*
X03605*
X03597Y03399*
X03644D02*
X03652Y03407D01*
X03668*
X03675Y03399*
Y03367*
X03668Y0336*
X03652*
X03644Y03367*
Y03399*
X03691D02*
X03699Y03407D01*
X03715*
X03723Y03399*
Y03367*
X03715Y0336*
X03699*
X03691Y03367*
Y03399*
X04091Y04399D02*
X04083Y04407D01*
X04067*
X0406Y04399*
Y04367*
X04067Y0436*
X04083*
X04091Y04367*
X04107Y0436D02*
X04122D01*
X04115*
Y04407*
X04107Y04399*
X04301D02*
X04293Y04407D01*
X04277*
X0427Y04399*
Y04367*
X04277Y0436*
X04293*
X04301Y04367*
X04348Y0436D02*
X04317D01*
X04348Y04391*
Y04399*
X0434Y04407*
X04325*
X04317Y04399*
X04916Y03994D02*
X04908Y04002D01*
X04892*
X04885Y03994*
Y03962*
X04892Y03955*
X04908*
X04916Y03962*
X04932Y03955D02*
X04947D01*
X0494*
Y04002*
X04932Y03994*
X04971D02*
X04979Y04002D01*
X04995*
X05003Y03994*
Y03962*
X04995Y03955*
X04979*
X04971Y03962*
Y03994*
X05018D02*
X05026Y04002D01*
X05042*
X0505Y03994*
Y03962*
X05042Y03955*
X05026*
X05018Y03962*
Y03994*
X0451Y04281D02*
X04502Y04273D01*
Y04257*
X0451Y0425*
X04542*
X0455Y04257*
Y04273*
X04542Y04281*
X0455Y04297D02*
Y04312D01*
Y04305*
X04502*
X0451Y04297*
Y04336D02*
X04502Y04344D01*
Y0436*
X0451Y04368*
X04542*
X0455Y0436*
Y04344*
X04542Y04336*
X0451*
X0455Y04383D02*
Y04399D01*
Y04391*
X04502*
X0451Y04383*
X04946Y03884D02*
X04938Y03892D01*
X04922*
X04915Y03884*
Y03852*
X04922Y03845*
X04938*
X04946Y03852*
X04962Y03845D02*
X04977D01*
X0497*
Y03892*
X04962Y03884*
X05001D02*
X05009Y03892D01*
X05025*
X05033Y03884*
Y03852*
X05025Y03845*
X05009*
X05001Y03852*
Y03884*
X0508Y03845D02*
X05048D01*
X0508Y03876*
Y03884*
X05072Y03892*
X05056*
X05048Y03884*
X04921Y03734D02*
X04913Y03741D01*
X04897*
X0489Y03734*
Y03702*
X04897Y03694*
X04913*
X04921Y03702*
X04937Y03694D02*
X04952D01*
X04945*
Y03741*
X04937Y03734*
X04976D02*
X04984Y03741D01*
X05*
X05008Y03734*
Y03702*
X05Y03694*
X04984*
X04976Y03702*
Y03734*
X05023D02*
X05031Y03741D01*
X05047*
X05055Y03734*
Y03726*
X05047Y03718*
X05039*
X05047*
X05055Y0371*
Y03702*
X05047Y03694*
X05031*
X05023Y03702*
X04901Y03474D02*
X04893Y03482D01*
X04877*
X0487Y03474*
Y03442*
X04877Y03435*
X04893*
X04901Y03442*
X04917Y03435D02*
X04932D01*
X04925*
Y03482*
X04917Y03474*
X04956D02*
X04964Y03482D01*
X0498*
X04988Y03474*
Y03442*
X0498Y03435*
X04964*
X04956Y03442*
Y03474*
X05027Y03435D02*
Y03482D01*
X05003Y03458*
X05035*
X0522Y03451D02*
X05212Y03443D01*
Y03427*
X0522Y0342*
X05252*
X0526Y03427*
Y03443*
X05252Y03451*
X0526Y03467D02*
Y03482D01*
Y03475*
X05212*
X0522Y03467*
Y03506D02*
X05212Y03514D01*
Y0353*
X0522Y03538*
X05252*
X0526Y0353*
Y03514*
X05252Y03506*
X0522*
X05212Y03585D02*
Y03553D01*
X05236*
X05228Y03569*
Y03577*
X05236Y03585*
X05252*
X0526Y03577*
Y03561*
X05252Y03553*
X05301Y04259D02*
X05293Y04267D01*
X05277*
X0527Y04259*
Y04227*
X05277Y0422*
X05293*
X05301Y04227*
X05317Y0422D02*
X05332D01*
X05325*
Y04267*
X05317Y04259*
X05356D02*
X05364Y04267D01*
X0538*
X05388Y04259*
Y04227*
X0538Y0422*
X05364*
X05356Y04227*
Y04259*
X05435Y04267D02*
X05419Y04259D01*
X05403Y04243*
Y04227*
X05411Y0422*
X05427*
X05435Y04227*
Y04235*
X05427Y04243*
X05403*
X05316Y04369D02*
X05308Y04377D01*
X05292*
X05285Y04369*
Y04337*
X05292Y0433*
X05308*
X05316Y04337*
X05332Y0433D02*
X05347D01*
X0534*
Y04377*
X05332Y04369*
X05371D02*
X05379Y04377D01*
X05395*
X05403Y04369*
Y04337*
X05395Y0433*
X05379*
X05371Y04337*
Y04369*
X05418Y04377D02*
X0545D01*
Y04369*
X05418Y04337*
Y0433*
X05411Y04179D02*
X05403Y04187D01*
X05387*
X0538Y04179*
Y04147*
X05387Y0414*
X05403*
X05411Y04147*
X05427Y0414D02*
X05442D01*
X05435*
Y04187*
X05427Y04179*
X05466D02*
X05474Y04187D01*
X0549*
X05498Y04179*
Y04147*
X0549Y0414*
X05474*
X05466Y04147*
Y04179*
X05513D02*
X05521Y04187D01*
X05537*
X05545Y04179*
Y04171*
X05537Y04163*
X05545Y04155*
Y04147*
X05537Y0414*
X05521*
X05513Y04147*
Y04155*
X05521Y04163*
X05513Y04171*
Y04179*
X05521Y04163D02*
X05537D01*
X05491Y04339D02*
X05483Y04347D01*
X05467*
X0546Y04339*
Y04307*
X05467Y043*
X05483*
X05491Y04307*
X05507Y043D02*
X05522D01*
X05515*
Y04347*
X05507Y04339*
X05546D02*
X05554Y04347D01*
X0557*
X05578Y04339*
Y04307*
X0557Y043*
X05554*
X05546Y04307*
Y04339*
X05593Y04307D02*
X05601Y043D01*
X05617*
X05625Y04307*
Y04339*
X05617Y04347*
X05601*
X05593Y04339*
Y04331*
X05601Y04323*
X05625*
X05581Y04429D02*
X05573Y04437D01*
X05557*
X0555Y04429*
Y04397*
X05557Y0439*
X05573*
X05581Y04397*
X05597Y0439D02*
X05612D01*
X05605*
Y04437*
X05597Y04429*
X05636Y0439D02*
X05652D01*
X05644*
Y04437*
X05636Y04429*
X05675D02*
X05683Y04437D01*
X05699*
X05707Y04429*
Y04397*
X05699Y0439*
X05683*
X05675Y04397*
Y04429*
X05701Y04239D02*
X05693Y04247D01*
X05677*
X0567Y04239*
Y04207*
X05677Y042*
X05693*
X05701Y04207*
X05717Y042D02*
X05732D01*
X05725*
Y04247*
X05717Y04239*
X05756Y042D02*
X05772D01*
X05764*
Y04247*
X05756Y04239*
X05795Y042D02*
X05811D01*
X05803*
Y04247*
X05795Y04239*
X05991Y04429D02*
X05983Y04437D01*
X05967*
X0596Y04429*
Y04397*
X05967Y0439*
X05983*
X05991Y04397*
X06007Y0439D02*
X06022D01*
X06015*
Y04437*
X06007Y04429*
X06046Y0439D02*
X06062D01*
X06054*
Y04437*
X06046Y04429*
X06117Y0439D02*
X06085D01*
X06117Y04421*
Y04429*
X06109Y04437*
X06093*
X06085Y04429*
X051Y04321D02*
X05092Y04313D01*
Y04297*
X051Y0429*
X05132*
X0514Y04297*
Y04313*
X05132Y04321*
X0514Y04337D02*
Y04352D01*
Y04345*
X05092*
X051Y04337*
X0514Y04376D02*
Y04392D01*
Y04384*
X05092*
X051Y04376*
X0514Y04439D02*
X05092D01*
X05116Y04415*
Y04447*
X06181Y03829D02*
X06173Y03837D01*
X06157*
X0615Y03829*
Y03797*
X06157Y0379*
X06173*
X06181Y03797*
X06197Y0379D02*
X06212D01*
X06205*
Y03837*
X06197Y03829*
X06236Y0379D02*
X06252D01*
X06244*
Y03837*
X06236Y03829*
X06307Y03837D02*
X06275D01*
Y03813*
X06291Y03821*
X06299*
X06307Y03813*
Y03797*
X06299Y0379*
X06283*
X06275Y03797*
X0412Y03561D02*
X04112Y03553D01*
Y03537*
X0412Y0353*
X04152*
X0416Y03537*
Y03553*
X04152Y03561*
X0416Y03608D02*
Y03577D01*
X04128Y03608*
X0412*
X04112Y036*
Y03585*
X0412Y03577*
Y03624D02*
X04112Y03632D01*
Y03648*
X0412Y03655*
X04152*
X0416Y03648*
Y03632*
X04152Y03624*
X0412*
Y03671D02*
X04112Y03679D01*
Y03695*
X0412Y03703*
X04152*
X0416Y03695*
Y03679*
X04152Y03671*
X0412*
X0365Y03631D02*
X03642Y03623D01*
Y03607*
X0365Y036*
X03682*
X0369Y03607*
Y03623*
X03682Y03631*
X0369Y03678D02*
Y03647D01*
X03658Y03678*
X0365*
X03642Y0367*
Y03655*
X0365Y03647*
Y03694D02*
X03642Y03702D01*
Y03718*
X0365Y03725*
X03682*
X0369Y03718*
Y03702*
X03682Y03694*
X0365*
X0369Y03741D02*
Y03757D01*
Y03749*
X03642*
X0365Y03741*
X03791Y04119D02*
X03783Y04127D01*
X03767*
X0376Y04119*
Y04087*
X03767Y0408*
X03783*
X03791Y04087*
X03838Y0408D02*
X03807D01*
X03838Y04111*
Y04119*
X0383Y04127*
X03815*
X03807Y04119*
X03854D02*
X03862Y04127D01*
X03878*
X03885Y04119*
Y04087*
X03878Y0408*
X03862*
X03854Y04087*
Y04119*
X03933Y0408D02*
X03901D01*
X03933Y04111*
Y04119*
X03925Y04127*
X03909*
X03901Y04119*
X0357Y03482D02*
X03562Y03474D01*
Y03458*
X0357Y0345*
X03602*
X0361Y03458*
Y03474*
X03602Y03482*
X0361Y03529D02*
Y03497D01*
X03578Y03529*
X0357*
X03562Y03521*
Y03505*
X0357Y03497*
Y03545D02*
X03562Y03552D01*
Y03568*
X0357Y03576*
X03602*
X0361Y03568*
Y03552*
X03602Y03545*
X0357*
Y03592D02*
X03562Y036D01*
Y03615*
X0357Y03623*
X03578*
X03586Y03615*
Y03608*
Y03615*
X03594Y03623*
X03602*
X0361Y03615*
Y036*
X03602Y03592*
X03929Y03918D02*
X03937Y03926D01*
Y03942*
X03929Y0395*
X03897*
X0389Y03942*
Y03926*
X03897Y03918*
X0389Y03871D02*
Y03902D01*
X03921Y03871*
X03929*
X03937Y03879*
Y03894*
X03929Y03902*
Y03855D02*
X03937Y03847D01*
Y03831*
X03929Y03824*
X03897*
X0389Y03831*
Y03847*
X03897Y03855*
X03929*
X0389Y03784D02*
X03937D01*
X03913Y03808*
Y03776*
X03795Y03806D02*
X03787Y03798D01*
Y03782*
X03795Y03775*
X03827*
X03835Y03782*
Y03798*
X03827Y03806*
X03835Y03853D02*
Y03822D01*
X03803Y03853*
X03795*
X03787Y03845*
Y0383*
X03795Y03822*
Y03869D02*
X03787Y03877D01*
Y03893*
X03795Y039*
X03827*
X03835Y03893*
Y03877*
X03827Y03869*
X03795*
X03787Y03948D02*
Y03916D01*
X03811*
X03803Y03932*
Y0394*
X03811Y03948*
X03827*
X03835Y0394*
Y03924*
X03827Y03916*
X06024Y03186D02*
Y03139D01*
X06047*
X06055Y03146*
Y03178*
X06047Y03186*
X06024*
X06071Y03139D02*
X06086D01*
X06079*
Y03186*
X06071Y03178*
X05691Y03078D02*
Y03031D01*
X05714*
X05722Y03038*
Y0307*
X05714Y03078*
X05691*
X05769Y03031D02*
X05738D01*
X05769Y03062*
Y0307*
X05761Y03078*
X05746*
X05738Y0307*
X0549Y03187D02*
Y0314D01*
X05513*
X05521Y03147*
Y03179*
X05513Y03187*
X0549*
X05537Y03179D02*
X05545Y03187D01*
X0556*
X05568Y03179*
Y03171*
X0556Y03163*
X05552*
X0556*
X05568Y03155*
Y03147*
X0556Y0314*
X05545*
X05537Y03147*
X05088Y03078D02*
Y03031D01*
X05111*
X05119Y03038*
Y0307*
X05111Y03078*
X05088*
X05159Y03031D02*
Y03078D01*
X05135Y03054*
X05166*
X04741Y03211D02*
Y03163D01*
X04764*
X04772Y03171*
Y03203*
X04764Y03211*
X04741*
X04819D02*
X04788D01*
Y03187*
X04803Y03195*
X04811*
X04819Y03187*
Y03171*
X04811Y03163*
X04796*
X04788Y03171*
X04935Y03337D02*
Y0329D01*
X04966*
X04982D02*
X04997D01*
X0499*
Y03337*
X04982Y03329*
X05021D02*
X05029Y03337D01*
X05045*
X05053Y03329*
Y03297*
X05045Y0329*
X05029*
X05021Y03297*
Y03329*
X05068D02*
X05076Y03337D01*
X05092*
X051Y03329*
Y03297*
X05092Y0329*
X05076*
X05068Y03297*
Y03329*
X0372Y04367D02*
Y0432D01*
X03751*
X03767D02*
Y04367D01*
X03782Y04351*
X03798Y04367*
Y0432*
X03814Y04367D02*
Y0432D01*
X03838*
X03845Y04327*
Y04359*
X03838Y04367*
X03814*
X03861Y0432D02*
X03877D01*
X03869*
Y04367*
X03861Y04359*
X036Y0439D02*
Y04437D01*
X03623*
X03631Y04429*
Y04413*
X03623Y04405*
X036*
X0367Y0439D02*
Y04437D01*
X03647Y04413*
X03678*
X04276Y04594D02*
Y04641D01*
X04299*
X04307Y04633*
Y04617*
X04299Y04609*
X04276*
X04354Y04633D02*
X04346Y04641D01*
X04331*
X04323Y04633*
Y04601*
X04331Y04594*
X04346*
X04354Y04601*
X0437Y04594D02*
X04386D01*
X04378*
Y04641*
X0437Y04633*
X0437Y0431D02*
Y04357D01*
X04393*
X04401Y04349*
Y04333*
X04393Y04325*
X0437*
X04417Y0431D02*
Y04357D01*
X04432Y04341*
X04448Y04357*
Y0431*
X04464D02*
X0448D01*
X04472*
Y04357*
X04464Y04349*
X06341Y04319D02*
Y04366D01*
X06364*
X06372Y04358*
Y04342*
X06364Y04334*
X06341*
X06388Y04319D02*
Y04366D01*
X06403Y0435*
X06419Y04366*
Y04319*
X06466D02*
X06435D01*
X06466Y0435*
Y04358*
X06459Y04366*
X06443*
X06435Y04358*
X05844Y03199D02*
Y03247D01*
X05867*
X05875Y03239*
Y03223*
X05867Y03215*
X05844*
X05859D02*
X05875Y03199D01*
X05891D02*
X05906D01*
X05899*
Y03247*
X05891Y03239*
X05857Y02865D02*
Y02913D01*
X0588*
X05888Y02905*
Y02889*
X0588Y02881*
X05857*
X05872D02*
X05888Y02865D01*
X05935D02*
X05904D01*
X05935Y02897*
Y02905*
X05927Y02913*
X05912*
X05904Y02905*
X05401Y02814D02*
Y02861D01*
X05424*
X05432Y02853*
Y02837*
X05424Y02829*
X05401*
X05416D02*
X05432Y02814D01*
X05448Y02853D02*
X05456Y02861D01*
X05471*
X05479Y02853*
Y02845*
X05471Y02837*
X05463*
X05471*
X05479Y02829*
Y02821*
X05471Y02814*
X05456*
X05448Y02821*
X04896Y03034D02*
Y03081D01*
X04919*
X04927Y03073*
Y03057*
X04919Y03049*
X04896*
X04911D02*
X04927Y03034D01*
X04966D02*
Y03081D01*
X04943Y03057*
X04974*
X04586Y03124D02*
Y03171D01*
X04609*
X04617Y03163*
Y03147*
X04609Y03139*
X04586*
X04601D02*
X04617Y03124D01*
X04664Y03171D02*
X04633D01*
Y03147*
X04648Y03155*
X04656*
X04664Y03147*
Y03131*
X04656Y03124*
X04641*
X04633Y03131*
X0465Y0421D02*
X04602D01*
Y04233*
X0461Y04241*
X04626*
X04634Y04233*
Y0421*
Y04225D02*
X0465Y04241D01*
Y04257D02*
Y04272D01*
Y04265*
X04602*
X0461Y04257*
Y04296D02*
X04602Y04304D01*
Y0432*
X0461Y04328*
X04642*
X0465Y0432*
Y04304*
X04642Y04296*
X0461*
Y04343D02*
X04602Y04351D01*
Y04367*
X0461Y04375*
X04642*
X0465Y04367*
Y04351*
X04642Y04343*
X0461*
X0504Y0353D02*
X04992D01*
Y03553*
X05Y03561*
X05016*
X05024Y03553*
Y0353*
Y03546D02*
X0504Y03561D01*
Y03577D02*
Y03593D01*
Y03585*
X04992*
X05Y03577*
Y03616D02*
X04992Y03624D01*
Y0364*
X05Y03648*
X05032*
X0504Y0364*
Y03624*
X05032Y03616*
X05*
X0504Y03664D02*
Y03679D01*
Y03672*
X04992*
X05Y03664*
X0505Y0419D02*
Y04237D01*
X05073*
X05081Y04229*
Y04213*
X05073Y04205*
X0505*
X05065D02*
X05081Y0419D01*
X05097D02*
X05112D01*
X05105*
Y04237*
X05097Y04229*
X05136D02*
X05144Y04237D01*
X0516*
X05168Y04229*
Y04197*
X0516Y0419*
X05144*
X05136Y04197*
Y04229*
X05215Y0419D02*
X05183D01*
X05215Y04221*
Y04229*
X05207Y04237*
X05191*
X05183Y04229*
X04985Y04162D02*
X04977Y04154D01*
Y04139*
X04985Y04131*
X04993*
X05001Y04139*
Y04154*
X05009Y04162*
X05017*
X05025Y04154*
Y04139*
X05017Y04131*
X04977Y04178D02*
X05025D01*
Y04202*
X05017Y0421*
X05009*
X05001Y04202*
Y04178*
Y04202*
X04993Y0421*
X04985*
X04977Y04202*
Y04178*
Y04249D02*
Y04233D01*
X04985Y04225*
X05017*
X05025Y04233*
Y04249*
X05017Y04257*
X04985*
X04977Y04249*
X04985Y04272D02*
X04977Y0428D01*
Y04296*
X04985Y04304*
X05017*
X05025Y04296*
Y0428*
X05017Y04272*
X04985*
X04875Y04176D02*
X04867Y04168D01*
Y04152*
X04875Y04145*
X04883*
X04891Y04152*
Y04168*
X04899Y04176*
X04907*
X04915Y04168*
Y04152*
X04907Y04145*
X04867Y04192D02*
X04915D01*
Y04215*
X04907Y04223*
X04899*
X04891Y04215*
Y04192*
Y04215*
X04883Y04223*
X04875*
X04867Y04215*
Y04192*
Y04263D02*
Y04247D01*
X04875Y04239*
X04907*
X04915Y04247*
Y04263*
X04907Y0427*
X04875*
X04867Y04263*
X04915Y04286D02*
Y04302D01*
Y04294*
X04867*
X04875Y04286*
X04775Y0416D02*
X04767Y04152D01*
Y04136*
X04775Y04128*
X04783*
X04791Y04136*
Y04152*
X04799Y0416*
X04807*
X04815Y04152*
Y04136*
X04807Y04128*
X04767Y04176D02*
X04815D01*
Y04199*
X04807Y04207*
X04799*
X04791Y04199*
Y04176*
Y04199*
X04783Y04207*
X04775*
X04767Y04199*
Y04176*
Y04247D02*
Y04231D01*
X04775Y04223*
X04807*
X04815Y04231*
Y04247*
X04807Y04254*
X04775*
X04767Y04247*
X04815Y04302D02*
Y0427D01*
X04783Y04302*
X04775*
X04767Y04294*
Y04278*
X04775Y0427*
X0413Y04461D02*
X04122Y04453D01*
Y04437*
X0413Y0443*
X04138*
X04146Y04437*
Y04453*
X04154Y04461*
X04162*
X0417Y04453*
Y04437*
X04162Y0443*
X04122Y04477D02*
X0417D01*
Y045*
X04162Y04508*
X04154*
X04146Y045*
Y04477*
Y045*
X04138Y04508*
X0413*
X04122Y045*
Y04477*
X0417Y04524D02*
X04122D01*
Y04548*
X0413Y04555*
X04146*
X04154Y04548*
Y04524*
X0417Y04571D02*
Y04587D01*
Y04579*
X04122*
X0413Y04571*
X0512Y04107D02*
Y04067D01*
X05127Y0406*
X05143*
X05151Y04067*
Y04107*
X05167Y0406D02*
X05182D01*
X05175*
Y04107*
X05167Y04099*
X05206D02*
X05214Y04107D01*
X0523*
X05238Y04099*
Y04067*
X0523Y0406*
X05214*
X05206Y04067*
Y04099*
X05253D02*
X05261Y04107D01*
X05277*
X05285Y04099*
Y04067*
X05277Y0406*
X05261*
X05253Y04067*
Y04099*
X06151Y03529D02*
X06143Y03537D01*
X06127*
X0612Y03529*
Y03497*
X06127Y0349*
X06143*
X06151Y03497*
X06167Y0349D02*
X06182D01*
X06175*
Y03537*
X06167Y03529*
X06206Y0349D02*
X06222D01*
X06214*
Y03537*
X06206Y03529*
X06277Y03537D02*
X06261Y03529D01*
X06245Y03513*
Y03497*
X06253Y0349*
X06269*
X06277Y03497*
Y03505*
X06269Y03513*
X06245*
X04815Y04663D02*
X04796D01*
X04786Y04653*
Y04614*
X04796Y04604*
X04815*
X04825Y04614*
Y04653*
X04815Y04663*
X04885Y04653D02*
X04875Y04663D01*
X04855*
X04845Y04653*
Y04643*
X04855Y04633*
X04875*
X04885Y04623*
Y04614*
X04875Y04604*
X04855*
X04845Y04614*
X04945Y04653D02*
X04935Y04663D01*
X04915*
X04905Y04653*
Y04614*
X04915Y04604*
X04935*
X04945Y04614*
X04965Y04604D02*
X04985D01*
X04975*
Y04663*
X04965Y04653*
X05195Y0455D02*
Y04597D01*
X05218*
X05226Y04589*
Y04573*
X05218Y04565*
X05195*
X05242Y0455D02*
X05257D01*
X0525*
Y04597*
X05242Y04589*
X0358Y04649D02*
Y046D01*
Y04624*
X03613*
Y04649*
Y046*
X03629D02*
Y04633D01*
X03646Y04649*
X03663Y04633*
Y046*
Y04624*
X03629*
X03679Y046D02*
Y04649D01*
X03713Y046*
Y04649*
X03763Y04641D02*
X03754Y04649D01*
X03738*
X03729Y04641*
Y04608*
X03738Y046*
X03754*
X03763Y04608*
X03829Y04649D02*
Y046D01*
X03854*
X03863Y04608*
Y04641*
X03854Y04649*
X03829*
X03879Y046D02*
X03896D01*
X03888*
Y04633*
X03879*
X03938Y04583D02*
X03946D01*
X03954Y04591*
Y04633*
X03929*
X03921Y04624*
Y04608*
X03929Y046*
X03954*
X03971D02*
X03988D01*
X03979*
Y04633*
X03971*
X04021Y04641D02*
Y04633D01*
X04013*
X04029*
X04021*
Y04608*
X04029Y046*
X04063Y04633D02*
X04079D01*
X04088Y04624*
Y046*
X04063*
X04054Y04608*
X04063Y04616*
X04088*
X04104Y046D02*
X04121D01*
X04113*
Y04649*
X04104*
X06529Y03954D02*
X06524Y03959D01*
X06515*
X0651Y03954*
Y03935*
X06515Y0393*
X06524*
X06529Y03935*
X06559Y03954D02*
X06554Y03959D01*
X06544*
X06539Y03954*
Y03949*
X06544Y03944*
X06554*
X06559Y0394*
Y03935*
X06554Y0393*
X06544*
X06539Y03935*
X0646Y0383D02*
Y03859D01*
X0647Y03849*
X06479Y03859*
Y0383*
X06489Y03859D02*
X06499D01*
X06494*
Y0383*
X06489*
X06499*
X06534Y03854D02*
X06529Y03859D01*
X06519*
X06514Y03854*
Y03849*
X06519Y03845*
X06529*
X06534Y0384*
Y03835*
X06529Y0383*
X06519*
X06514Y03835*
X06559Y03859D02*
X06549D01*
X06544Y03854*
Y03835*
X06549Y0383*
X06559*
X06564Y03835*
Y03854*
X06559Y03859*
X0646Y0374D02*
Y03769D01*
X0647Y03759*
X06479Y03769*
Y0374*
X06504Y03769D02*
X06494D01*
X06489Y03764*
Y03745*
X06494Y0374*
X06504*
X06509Y03745*
Y03764*
X06504Y03769*
X06539Y03764D02*
X06534Y03769D01*
X06524*
X06519Y03764*
Y03759*
X06524Y03755*
X06534*
X06539Y0375*
Y03745*
X06534Y0374*
X06524*
X06519Y03745*
X06549Y03769D02*
X06559D01*
X06554*
Y0374*
X06549*
X06559*
X06479Y03654D02*
X06475Y03659D01*
X06465*
X0646Y03654*
Y03649*
X06465Y03644*
X06475*
X06479Y0364*
Y03635*
X06475Y0363*
X06465*
X0646Y03635*
X06509Y03654D02*
X06504Y03659D01*
X06494*
X06489Y03654*
Y03635*
X06494Y0363*
X06504*
X06509Y03635*
X06519Y03659D02*
Y0363D01*
X06539*
X06549Y03659D02*
Y0363D01*
Y0364*
X06569Y03659*
X06554Y03644*
X06569Y0363*
X06504Y04259D02*
X06495D01*
X0649Y04254*
Y04235*
X06495Y0423*
X06504*
X06509Y04235*
Y04254*
X06504Y04259*
X06539Y04254D02*
X06534Y04259D01*
X06524*
X06519Y04254*
Y04249*
X06524Y04245*
X06534*
X06539Y0424*
Y04235*
X06534Y0423*
X06524*
X06519Y04235*
X06569Y04254D02*
X06564Y04259D01*
X06554*
X06549Y04254*
Y04235*
X06554Y0423*
X06564*
X06569Y04235*
X0648Y04159D02*
Y04135D01*
X06485Y0413*
X06495*
X06499Y04135*
Y04159*
X06509Y0413D02*
X06529Y04149D01*
X06539Y04159D02*
Y0413D01*
X06554*
X06559Y04135*
Y04154*
X06554Y04159*
X06539*
X0648Y04059D02*
Y0403D01*
X06495*
X06499Y04035*
Y04054*
X06495Y04059*
X0648*
X06509Y04044D02*
X06529D01*
X06559Y04054D02*
X06554Y04059D01*
X06544*
X06539Y04054*
Y04049*
X06544Y04044*
X06554*
X06559Y0404*
Y04035*
X06554Y0403*
X06544*
X06539Y04035*
X06509Y03559D02*
X0649D01*
Y0353*
X06509*
X0649Y03545D02*
X065D01*
X06534Y03559D02*
X06524D01*
X06519Y03554*
Y03535*
X06524Y0353*
X06534*
X06539Y03535*
Y03554*
X06534Y03559*
X06569Y03554D02*
X06564Y03559D01*
X06554*
X06549Y03554*
Y03535*
X06554Y0353*
X06564*
X06569Y03535*
X06499Y03444D02*
X06495Y03449D01*
X06485*
X0648Y03444*
Y03425*
X06485Y0342*
X06495*
X06499Y03425*
X06509Y03434D02*
X06529D01*
X06539Y0342D02*
Y03449D01*
X06554*
X06559Y03444*
Y03434*
X06554Y0343*
X06539*
X06549D02*
X06559Y0342D01*
X06499Y03344D02*
X06495Y03349D01*
X06485*
X0648Y03344*
Y03339*
X06485Y03335*
X06495*
X06499Y0333*
Y03325*
X06495Y0332*
X06485*
X0648Y03325*
X06509Y03349D02*
Y0332D01*
Y03335*
X06529*
Y03349*
Y0332*
X06539Y03349D02*
Y0332D01*
X06554*
X06559Y03325*
Y03344*
X06554Y03349*
X06539*
X04309Y03324D02*
X04305Y03329D01*
X04295*
X0429Y03324*
Y03319*
X04295Y03315*
X04305*
X04309Y0331*
Y03305*
X04305Y033*
X04295*
X0429Y03305*
X04319Y03329D02*
Y033D01*
Y03315*
X04339*
Y03329*
Y033*
X04349Y03329D02*
Y033D01*
X04364*
X04369Y03305*
Y03324*
X04364Y03329*
X04349*
X04309Y03424D02*
X04305Y03429D01*
X04295*
X0429Y03424*
Y03405*
X04295Y034*
X04305*
X04309Y03405*
X04319Y03414D02*
X04339D01*
X04349Y034D02*
Y03429D01*
X04364*
X04369Y03424*
Y03414*
X04364Y0341*
X04349*
X04359D02*
X04369Y034D01*
X04319Y03539D02*
X043D01*
Y0351*
X04319*
X043Y03525D02*
X0431D01*
X04344Y03539D02*
X04334D01*
X04329Y03534*
Y03515*
X04334Y0351*
X04344*
X04349Y03515*
Y03534*
X04344Y03539*
X04379Y03534D02*
X04374Y03539D01*
X04364*
X04359Y03534*
Y03515*
X04364Y0351*
X04374*
X04379Y03515*
X0429Y04039D02*
Y0401D01*
X04305*
X04309Y04015*
Y04034*
X04305Y04039*
X0429*
X04319Y04024D02*
X04339D01*
X04369Y04034D02*
X04364Y04039D01*
X04354*
X04349Y04034*
Y04029*
X04354Y04024*
X04364*
X04369Y0402*
Y04015*
X04364Y0401*
X04354*
X04349Y04015*
X0429Y04139D02*
Y04115D01*
X04295Y0411*
X04305*
X04309Y04115*
Y04139*
X04319Y0411D02*
X04339Y04129D01*
X04349Y04139D02*
Y0411D01*
X04364*
X04369Y04115*
Y04134*
X04364Y04139*
X04349*
X04314Y04239D02*
X04305D01*
X043Y04234*
Y04215*
X04305Y0421*
X04314*
X04319Y04215*
Y04234*
X04314Y04239*
X04349Y04234D02*
X04344Y04239D01*
X04334*
X04329Y04234*
Y04229*
X04334Y04225*
X04344*
X04349Y0422*
Y04215*
X04344Y0421*
X04334*
X04329Y04215*
X04379Y04234D02*
X04374Y04239D01*
X04364*
X04359Y04234*
Y04215*
X04364Y0421*
X04374*
X04379Y04215*
X04289Y03634D02*
X04285Y03639D01*
X04275*
X0427Y03634*
Y03629*
X04275Y03624*
X04285*
X04289Y0362*
Y03615*
X04285Y0361*
X04275*
X0427Y03615*
X04319Y03634D02*
X04314Y03639D01*
X04304*
X04299Y03634*
Y03615*
X04304Y0361*
X04314*
X04319Y03615*
X04329Y03639D02*
Y0361D01*
X04349*
X04359Y03639D02*
Y0361D01*
Y0362*
X04379Y03639*
X04364Y03624*
X04379Y0361*
X0427Y0372D02*
Y03749D01*
X0428Y03739*
X04289Y03749*
Y0372*
X04314Y03749D02*
X04304D01*
X04299Y03744*
Y03725*
X04304Y0372*
X04314*
X04319Y03725*
Y03744*
X04314Y03749*
X04349Y03744D02*
X04344Y03749D01*
X04334*
X04329Y03744*
Y03739*
X04334Y03734*
X04344*
X04349Y0373*
Y03725*
X04344Y0372*
X04334*
X04329Y03725*
X04359Y03749D02*
X04369D01*
X04364*
Y0372*
X04359*
X04369*
X0427Y0381D02*
Y03839D01*
X0428Y03829*
X04289Y03839*
Y0381*
X04299Y03839D02*
X04309D01*
X04304*
Y0381*
X04299*
X04309*
X04344Y03834D02*
X04339Y03839D01*
X04329*
X04324Y03834*
Y03829*
X04329Y03825*
X04339*
X04344Y0382*
Y03815*
X04339Y0381*
X04329*
X04324Y03815*
X04369Y03839D02*
X04359D01*
X04354Y03834*
Y03815*
X04359Y0381*
X04369*
X04374Y03815*
Y03834*
X04369Y03839*
X04339Y03934D02*
X04334Y03939D01*
X04325*
X0432Y03934*
Y03915*
X04325Y0391*
X04334*
X04339Y03915*
X04369Y03934D02*
X04364Y03939D01*
X04354*
X04349Y03934*
Y03929*
X04354Y03924*
X04364*
X04369Y0392*
Y03915*
X04364Y0391*
X04354*
X04349Y03915*
G54D35*
X0373Y03562D02*
D01*
X0373Y03562*
X0373Y03563*
X0373Y03563*
X0373Y03563*
X0373Y03564*
X0373Y03564*
X0373Y03564*
X0373Y03565*
X0373Y03565*
X03729Y03565*
X03729Y03565*
X03729Y03566*
X03729Y03566*
X03728Y03566*
X03728Y03566*
X03728Y03566*
X03727Y03567*
X03727Y03567*
X03727Y03567*
X03726Y03567*
X03726Y03567*
X03726Y03567*
X03725*
X03725Y03567*
X03725Y03567*
X03724Y03567*
X03724Y03567*
X03724Y03567*
X03723Y03566*
X03723Y03566*
X03723Y03566*
X03723Y03566*
X03722Y03566*
X03722Y03565*
X03722Y03565*
X03722Y03565*
X03721Y03565*
X03721Y03564*
X03721Y03564*
X03721Y03564*
X03721Y03563*
X03721Y03563*
X03721Y03563*
X03721Y03562*
X03721Y03562*
X03721Y03562*
X03721Y03561*
X03721Y03561*
X03721Y03561*
X03721Y0356*
X03721Y0356*
X03721Y0356*
X03721Y03559*
X03722Y03559*
X03722Y03559*
X03722Y03559*
X03722Y03558*
X03723Y03558*
X03723Y03558*
X03723Y03558*
X03723Y03558*
X03724Y03557*
X03724Y03557*
X03724Y03557*
X03725Y03557*
X03725Y03557*
X03725Y03557*
X03726*
X03726Y03557*
X03726Y03557*
X03727Y03557*
X03727Y03557*
X03727Y03557*
X03728Y03558*
X03728Y03558*
X03728Y03558*
X03729Y03558*
X03729Y03558*
X03729Y03559*
X03729Y03559*
X0373Y03559*
X0373Y03559*
X0373Y0356*
X0373Y0356*
X0373Y0356*
X0373Y03561*
X0373Y03561*
X0373Y03561*
X0373Y03562*
X0373Y03562*
X05324Y04003D02*
D01*
X05324Y04004*
X05324Y04004*
X05324Y04004*
X05324Y04005*
X05324Y04005*
X05324Y04005*
X05324Y04006*
X05324Y04006*
X05323Y04006*
X05323Y04006*
X05323Y04007*
X05323Y04007*
X05322Y04007*
X05322Y04007*
X05322Y04008*
X05322Y04008*
X05321Y04008*
X05321Y04008*
X05321Y04008*
X0532Y04008*
X0532Y04008*
X0532Y04008*
X05319*
X05319Y04008*
X05319Y04008*
X05318Y04008*
X05318Y04008*
X05318Y04008*
X05317Y04008*
X05317Y04008*
X05317Y04007*
X05316Y04007*
X05316Y04007*
X05316Y04007*
X05316Y04006*
X05315Y04006*
X05315Y04006*
X05315Y04006*
X05315Y04005*
X05315Y04005*
X05315Y04005*
X05315Y04004*
X05315Y04004*
X05314Y04004*
X05314Y04003*
X05314Y04003*
X05315Y04003*
X05315Y04002*
X05315Y04002*
X05315Y04002*
X05315Y04001*
X05315Y04001*
X05315Y04001*
X05315Y04*
X05316Y04*
X05316Y04*
X05316Y04*
X05316Y03999*
X05317Y03999*
X05317Y03999*
X05317Y03999*
X05318Y03999*
X05318Y03999*
X05318Y03999*
X05319Y03998*
X05319Y03998*
X05319Y03998*
X0532*
X0532Y03998*
X0532Y03998*
X05321Y03999*
X05321Y03999*
X05321Y03999*
X05322Y03999*
X05322Y03999*
X05322Y03999*
X05322Y03999*
X05323Y04*
X05323Y04*
X05323Y04*
X05323Y04*
X05324Y04001*
X05324Y04001*
X05324Y04001*
X05324Y04002*
X05324Y04002*
X05324Y04002*
X05324Y04003*
X05324Y04003*
X05324Y04003*
X04196Y04274D02*
D01*
X04196Y04274*
X04196Y04274*
X04196Y04275*
X04196Y04275*
X04196Y04275*
X04196Y04276*
X04196Y04276*
X04196Y04276*
X04195Y04277*
X04195Y04277*
X04195Y04277*
X04195Y04277*
X04194Y04278*
X04194Y04278*
X04194Y04278*
X04194Y04278*
X04193Y04278*
X04193Y04278*
X04193Y04278*
X04192Y04279*
X04192Y04279*
X04192Y04279*
X04191*
X04191Y04279*
X04191Y04279*
X0419Y04278*
X0419Y04278*
X0419Y04278*
X04189Y04278*
X04189Y04278*
X04189Y04278*
X04188Y04278*
X04188Y04277*
X04188Y04277*
X04188Y04277*
X04187Y04277*
X04187Y04276*
X04187Y04276*
X04187Y04276*
X04187Y04275*
X04187Y04275*
X04187Y04275*
X04187Y04274*
X04186Y04274*
X04186Y04274*
X04186Y04273*
X04187Y04273*
X04187Y04273*
X04187Y04272*
X04187Y04272*
X04187Y04272*
X04187Y04271*
X04187Y04271*
X04187Y04271*
X04188Y04271*
X04188Y0427*
X04188Y0427*
X04188Y0427*
X04189Y0427*
X04189Y04269*
X04189Y04269*
X0419Y04269*
X0419Y04269*
X0419Y04269*
X04191Y04269*
X04191Y04269*
X04191Y04269*
X04192*
X04192Y04269*
X04192Y04269*
X04193Y04269*
X04193Y04269*
X04193Y04269*
X04194Y04269*
X04194Y04269*
X04194Y0427*
X04194Y0427*
X04195Y0427*
X04195Y0427*
X04195Y04271*
X04195Y04271*
X04196Y04271*
X04196Y04271*
X04196Y04272*
X04196Y04272*
X04196Y04272*
X04196Y04273*
X04196Y04273*
X04196Y04273*
X04196Y04274*
G54D36*
X0541Y03966D02*
D01*
X0541Y03967*
X0541Y03968*
X0541Y03968*
X05409Y03969*
X05409Y0397*
X05409Y03971*
X05409Y03971*
X05408Y03972*
X05408Y03973*
X05407Y03973*
X05407Y03974*
X05406Y03975*
X05405Y03975*
X05405Y03976*
X05404Y03976*
X05403Y03976*
X05403Y03977*
X05402Y03977*
X05401Y03977*
X054Y03978*
X05399Y03978*
X05399Y03978*
X05398*
X05397Y03978*
X05396Y03978*
X05395Y03977*
X05394Y03977*
X05394Y03977*
X05393Y03976*
X05392Y03976*
X05392Y03976*
X05391Y03975*
X0539Y03975*
X0539Y03974*
X05389Y03973*
X05389Y03973*
X05388Y03972*
X05388Y03971*
X05387Y03971*
X05387Y0397*
X05387Y03969*
X05387Y03968*
X05386Y03968*
X05386Y03967*
X05386Y03966*
X05386Y03965*
X05386Y03964*
X05387Y03963*
X05387Y03963*
X05387Y03962*
X05387Y03961*
X05388Y0396*
X05388Y0396*
X05389Y03959*
X05389Y03958*
X0539Y03958*
X0539Y03957*
X05391Y03957*
X05392Y03956*
X05392Y03956*
X05393Y03955*
X05394Y03955*
X05394Y03955*
X05395Y03954*
X05396Y03954*
X05397Y03954*
X05398Y03954*
X05399*
X05399Y03954*
X054Y03954*
X05401Y03954*
X05402Y03955*
X05403Y03955*
X05403Y03955*
X05404Y03956*
X05405Y03956*
X05405Y03957*
X05406Y03957*
X05407Y03958*
X05407Y03958*
X05408Y03959*
X05408Y0396*
X05409Y0396*
X05409Y03961*
X05409Y03962*
X05409Y03963*
X0541Y03963*
X0541Y03964*
X0541Y03965*
X0541Y03966*
G54D37*
X06273Y04212D02*
Y04227D01*
X06246Y04212D02*
Y04227D01*
X06183Y04212D02*
Y04227D01*
X06156Y04212D02*
Y04227D01*
X06066Y04212D02*
Y04227D01*
X06093Y04212D02*
Y04227D01*
X04849Y03665D02*
Y03894D01*
X0463Y03665D02*
Y03894D01*
X03751Y03534D02*
Y03568D01*
X03785*
X03924D02*
X03958D01*
Y03534D02*
Y03568D01*
Y03361D02*
Y03395D01*
X03924Y03361D02*
X03958D01*
X03751D02*
Y03395D01*
Y03361D02*
X03785D01*
X06084Y03749D02*
Y0378D01*
X06025Y03749D02*
Y0378D01*
X06335Y03285D02*
X06435D01*
X06335D02*
Y04285D01*
X06435*
Y0421D02*
Y04285D01*
Y03285D02*
Y0421D01*
X04196Y04482D02*
Y04497D01*
X04223Y04482D02*
Y04497D01*
X05013Y04352D02*
Y04367D01*
X04986Y04352D02*
Y04367D01*
X04638Y04427D02*
Y04442D01*
X04611Y04427D02*
Y04442D01*
X0438Y03285D02*
X0448D01*
X0438D02*
Y04285D01*
X0448*
Y0421D02*
Y04285D01*
Y03285D02*
Y0421D01*
X0427Y0456D02*
X0447D01*
X0427Y0446D02*
Y0456D01*
Y0446D02*
X0447D01*
Y0456*
X0358Y0447D02*
Y0457D01*
X0398*
X0358Y0447D02*
X0398D01*
Y0457*
X04825Y02889D02*
Y02964D01*
X04734Y02889D02*
Y02964D01*
Y02889D02*
X04825D01*
X0475Y03129D02*
X04809D01*
X04825Y03043D02*
Y0311D01*
X04734D02*
X0475Y03129D01*
X04809D02*
X04825Y0311D01*
X04734Y03043D02*
Y0311D01*
X05172Y02756D02*
Y02831D01*
X05081Y02756D02*
Y02831D01*
Y02756D02*
X05172D01*
X05097Y02997D02*
X05156D01*
X05172Y0291D02*
Y02977D01*
X05081D02*
X05097Y02997D01*
X05156D02*
X05172Y02977D01*
X05081Y0291D02*
Y02977D01*
X05775Y02756D02*
Y02831D01*
X05684Y02756D02*
Y02831D01*
Y02756D02*
X05775D01*
X057Y02997D02*
X05759D01*
X05775Y0291D02*
Y02977D01*
X05684D02*
X057Y02997D01*
X05759D02*
X05775Y02977D01*
X05684Y0291D02*
Y02977D01*
X06017Y0303D02*
Y03105D01*
X06108Y0303D02*
Y03105D01*
X06017D02*
X06108D01*
X06033Y02865D02*
X06092D01*
X06017Y02884D02*
Y02951D01*
X06092Y02865D02*
X06108Y02884D01*
X06017D02*
X06033Y02865D01*
X06108Y02884D02*
Y02951D01*
X04803Y04352D02*
Y04367D01*
X04776Y04352D02*
Y04367D01*
X04903Y04352D02*
Y04367D01*
X04876Y04352D02*
Y04367D01*
X0548Y02886D02*
Y02961D01*
X05389Y02886D02*
Y02961D01*
Y02886D02*
X0548D01*
X05405Y03127D02*
X05464D01*
X0548Y0304D02*
Y03107D01*
X05389D02*
X05405Y03127D01*
X05464D02*
X0548Y03107D01*
X05389Y0304D02*
Y03107D01*
X06184Y03644D02*
Y03675D01*
X06125Y03644D02*
Y03675D01*
X05359Y03474D02*
Y04005D01*
X0589Y03474D02*
Y04005D01*
X05359D02*
X0589D01*
X05359Y03474D02*
X0589D01*
X03928Y04104D02*
Y04215D01*
X04191Y04104D02*
Y04215D01*
X03928Y04104D02*
X04191D01*
X03928Y04215D02*
X04191D01*
X0478Y0447D02*
X0498D01*
Y0457*
X0478D02*
X0498D01*
X0478Y0447D02*
Y0457D01*
X0533D02*
X0593D01*
X0533Y0447D02*
X0593D01*
Y0457*
X0533Y0447D02*
Y0457D01*
X05242Y04146D02*
X05257D01*
X05242Y04173D02*
X05257D01*
G54D38*
X05171Y03304D02*
X05209D01*
X05171D02*
Y03386D01*
X05209*
Y03304D02*
Y03386D01*
M02*