%FSTAX23Y23*%
%MOIN*%
%SFA1B1*%

%IPPOS*%
%ADD9500C,0.015000*%
%ADD9501C,0.035430*%
%LNhanc_digital-1*%
%LPD*%
G54D9500*
X03859Y03279D03*
X03899Y03249D03*
X03876Y03443D03*
Y03486D03*
X03833D03*
Y03443D03*
X03996Y03461D03*
X04043Y03449D03*
X04259Y03455D03*
X042Y03606D03*
X0422Y03775D03*
X0402Y0369D03*
X0387Y0366D03*
X0389Y0422D03*
X036Y0417D03*
X04536Y04036D03*
X04389Y03585D03*
X0446Y0313D03*
X04574Y03221D03*
X0488Y0322D03*
X0499Y0314D03*
X05245Y03326D03*
X05219Y03354D03*
X05304Y03326D03*
X05388Y03358D03*
X0558Y0331D03*
X05645Y0327D03*
X0573Y033D03*
X0578Y0335D03*
X0582Y0332D03*
X0589Y0345D03*
X05974Y03452D03*
X0602Y0333D03*
X06167Y03393D03*
X06008Y03629D03*
X05886Y03546D03*
X0574Y0353D03*
X05649Y03605D03*
X05675Y03663D03*
X05521Y03578D03*
X05373Y03649D03*
X05362Y0372D03*
X05254Y03675D03*
X0517Y0377D03*
X0501Y03705D03*
X0488Y0377D03*
X05352Y04046D03*
X05428Y04127D03*
X05605Y0413D03*
X05783Y0411D03*
X0587Y0415D03*
X0585Y0432D03*
X0601Y0401D03*
X06Y0391D03*
X05884Y03745D03*
X0571Y0393D03*
X0557Y03858D03*
G54D9501*
X0443Y03335D03*
Y03435D03*
Y03535D03*
Y03635D03*
Y03735D03*
Y03835D03*
Y03935D03*
Y04035D03*
Y04135D03*
Y04235D03*
X0442Y0451D03*
X0432D03*
X0393Y0452D03*
X0383D03*
X0373D03*
X0363D03*
X0483D03*
X0493D03*
X0538D03*
X0548D03*
X0558D03*
X0568D03*
X0578D03*
X0588D03*
X06385Y04235D03*
Y04135D03*
Y04035D03*
Y03935D03*
Y03835D03*
Y03735D03*
Y03635D03*
Y03535D03*
Y03435D03*
Y03335D03*
M02*