%FSTAX23Y23*%
%MOIN*%
%SFA1B1*%

%IPPOS*%
%ADD61C,0.002000*%
%LNhanc_digital-1*%
%LPD*%
G54D61*
X06367Y04235D02*
X06402D01*
X06385Y04217D02*
Y04252D01*
X06367Y04135D02*
X06402D01*
X06385Y04117D02*
Y04152D01*
X06367Y03935D02*
X06402D01*
X06385Y03917D02*
Y03952D01*
X06367Y03835D02*
X06402D01*
X06385Y03817D02*
Y03852D01*
X06367Y03735D02*
X06402D01*
X06385Y03717D02*
Y03752D01*
X06367Y03635D02*
X06402D01*
X06385Y03617D02*
Y03652D01*
X06367Y03535D02*
X06402D01*
X06385Y03517D02*
Y03552D01*
X06367Y03435D02*
X06402D01*
X06385Y03417D02*
Y03452D01*
X06367Y03335D02*
X06402D01*
X06385Y03317D02*
Y03352D01*
X06367Y04035D02*
X06402D01*
X06385Y04017D02*
Y04052D01*
X04412Y04235D02*
X04447D01*
X0443Y04217D02*
Y04252D01*
X04412Y04135D02*
X04447D01*
X0443Y04117D02*
Y04152D01*
X04412Y03935D02*
X04447D01*
X0443Y03917D02*
Y03952D01*
X04412Y03835D02*
X04447D01*
X0443Y03817D02*
Y03852D01*
X04412Y03735D02*
X04447D01*
X0443Y03717D02*
Y03752D01*
X04412Y03635D02*
X04447D01*
X0443Y03617D02*
Y03652D01*
X04412Y03535D02*
X04447D01*
X0443Y03517D02*
Y03552D01*
X04412Y03435D02*
X04447D01*
X0443Y03417D02*
Y03452D01*
X04412Y03335D02*
X04447D01*
X0443Y03317D02*
Y03352D01*
X04412Y04035D02*
X04447D01*
X0443Y04017D02*
Y04052D01*
X04402Y0451D02*
X04437D01*
X0442Y04492D02*
Y04527D01*
X04302Y0451D02*
X04337D01*
X0432Y04492D02*
Y04527D01*
X03912Y0452D02*
X03947D01*
X0393Y04502D02*
Y04537D01*
X03812Y0452D02*
X03847D01*
X0383Y04502D02*
Y04537D01*
X03712Y0452D02*
X03747D01*
X0373Y04502D02*
Y04537D01*
X03612Y0452D02*
X03647D01*
X0363Y04502D02*
Y04537D01*
X04812Y0452D02*
X04847D01*
X0483Y04502D02*
Y04537D01*
X04912Y0452D02*
X04947D01*
X0493Y04502D02*
Y04537D01*
X05362Y0452D02*
X05397D01*
X0538Y04502D02*
Y04537D01*
X05462Y0452D02*
X05497D01*
X0548Y04502D02*
Y04537D01*
X05562Y0452D02*
X05597D01*
X0558Y04502D02*
Y04537D01*
X05662Y0452D02*
X05697D01*
X0568Y04502D02*
Y04537D01*
X05762Y0452D02*
X05797D01*
X0578Y04502D02*
Y04537D01*
X05862Y0452D02*
X05897D01*
X0588Y04502D02*
Y04537D01*
X06002Y0401D02*
X06017D01*
X0601Y04002D02*
Y04017D01*
X05862Y0415D02*
X05877D01*
X0587Y04142D02*
Y04157D01*
X05992Y0391D02*
X06007D01*
X06Y03902D02*
Y03917D01*
X05842Y0432D02*
X05857D01*
X0585Y04312D02*
Y04327D01*
X04251Y03455D02*
X04266D01*
X04259Y03447D02*
Y03462D01*
X04212Y03775D02*
X04227D01*
X0422Y03768D02*
Y03783D01*
X04872Y0377D02*
X04887D01*
X0488Y03762D02*
Y03777D01*
X05162Y0377D02*
X05177D01*
X0517Y03762D02*
Y03777D01*
X04012Y0369D02*
X04027D01*
X0402Y03682D02*
Y03697D01*
X03862Y0366D02*
X03877D01*
X0387Y03652D02*
Y03667D01*
X03825Y03486D02*
X0384D01*
X03833Y03479D02*
Y03494D01*
X03869Y03486D02*
X03884D01*
X03876Y03479D02*
Y03494D01*
X03825Y03443D02*
X0384D01*
X03833Y03435D02*
Y0345D01*
X03869Y03443D02*
X03884D01*
X03876Y03435D02*
Y0345D01*
X04452Y0313D02*
X04467D01*
X0446Y03122D02*
Y03137D01*
X04982Y0314D02*
X04997D01*
X0499Y03132D02*
Y03147D01*
X04872Y0322D02*
X04887D01*
X0488Y03212D02*
Y03227D01*
X0542Y04127D02*
X05435D01*
X05428Y04119D02*
Y04134D01*
X04528Y04036D02*
X04543D01*
X04536Y04028D02*
Y04043D01*
X05562Y03858D02*
X05577D01*
X0557Y0385D02*
Y03865D01*
X05002Y03705D02*
X05017D01*
X0501Y03697D02*
Y03712D01*
X05876Y03745D02*
X05891D01*
X05884Y03737D02*
Y03752D01*
X06Y03629D02*
X06015D01*
X06008Y03621D02*
Y03636D01*
X06012Y0333D02*
X06027D01*
X0602Y03322D02*
Y03337D01*
X05365Y03649D02*
X0538D01*
X05373Y03641D02*
Y03656D01*
X04192Y03606D02*
X04207D01*
X042Y03598D02*
Y03613D01*
X05247Y03675D02*
X05262D01*
X05254Y03668D02*
Y03683D01*
X04035Y03449D02*
X0405D01*
X04043Y03441D02*
Y03456D01*
X05967Y03452D02*
X05982D01*
X05974Y03444D02*
Y03459D01*
X05637Y0327D02*
X05652D01*
X05645Y03262D02*
Y03277D01*
X04566Y03221D02*
X04581D01*
X04574Y03213D02*
Y03228D01*
X05878Y03546D02*
X05893D01*
X05886Y03538D02*
Y03553D01*
X04381Y03585D02*
X04396D01*
X04389Y03577D02*
Y03592D01*
X05667Y03663D02*
X05682D01*
X05675Y03655D02*
Y0367D01*
X05381Y03358D02*
X05396D01*
X05388Y0335D02*
Y03365D01*
X03891Y03249D02*
X03906D01*
X03899Y03241D02*
Y03256D01*
X05211Y03354D02*
X05226D01*
X05219Y03346D02*
Y03361D01*
X05354Y0372D02*
X05369D01*
X05362Y03712D02*
Y03727D01*
X06159Y03393D02*
X06174D01*
X06167Y03385D02*
Y034D01*
X05296Y03326D02*
X05311D01*
X05304Y03318D02*
Y03333D01*
X05237Y03326D02*
X05252D01*
X05245Y03318D02*
Y03333D01*
X05344Y04046D02*
X05359D01*
X05352Y04038D02*
Y04053D01*
X05572Y0331D02*
X05587D01*
X0558Y03302D02*
Y03317D01*
X03851Y03279D02*
X03866D01*
X03859Y03271D02*
Y03286D01*
X05513Y03578D02*
X05528D01*
X05521Y0357D02*
Y03585D01*
X05642Y03605D02*
X05657D01*
X05649Y03598D02*
Y03613D01*
X05732Y0353D02*
X05747D01*
X0574Y03522D02*
Y03537D01*
X05882Y0345D02*
X05897D01*
X0589Y03442D02*
Y03457D01*
X05722Y033D02*
X05737D01*
X0573Y03292D02*
Y03307D01*
X05812Y0332D02*
X05827D01*
X0582Y03312D02*
Y03327D01*
X05772Y0335D02*
X05787D01*
X0578Y03342D02*
Y03357D01*
X03988Y03461D02*
X04003D01*
X03996Y03453D02*
Y03468D01*
X03882Y0422D02*
X03897D01*
X0389Y04212D02*
Y04227D01*
X03592Y0417D02*
X03607D01*
X036Y04162D02*
Y04177D01*
X05597Y0413D02*
X05612D01*
X05605Y04122D02*
Y04137D01*
X05702Y0393D02*
X05717D01*
X0571Y03922D02*
Y03937D01*
X05776Y0411D02*
X05791D01*
X05783Y04102D02*
Y04117D01*
M02*