%FSTAX23Y23*%
%MOIN*%
%SFA1B1*%

%IPPOS*%
%ADD23C,0.010000*%
%ADD24C,0.047240*%
%ADD25C,0.047240*%
%ADD26R,0.047240X0.047240*%
%ADD27R,0.059060X0.059060*%
%ADD28C,0.059060*%
%ADD29R,0.059060X0.059060*%
%ADD30C,0.129920*%
%ADD31C,0.025000*%
%LNhanc_analog-1*%
%LPD*%
G54D23*
X03115Y0403D02*
Y04168D01*
X03055Y0397D02*
X03115Y0403D01*
X02605Y02055D02*
X0267Y0212D01*
X04924Y04065D02*
Y04117D01*
X02733Y04075D02*
X02738Y0407D01*
X02695Y04075D02*
X02733D01*
X02703Y04133D02*
X03018D01*
X03086Y04198D02*
X03115Y04168D01*
X03086Y04198D02*
Y04328D01*
X02835Y04075D02*
X02871Y04111D01*
X0289Y04065D02*
X02999D01*
X03002Y04068*
X03044Y04159D02*
X03092D01*
X03018Y04133D02*
X03044Y04159D01*
X02885Y04071D02*
X0289Y04065D01*
X03016Y04111D02*
X03032Y04095D01*
Y0398D02*
Y04095D01*
X02871Y04111D02*
X03016D01*
X03026Y03806D02*
Y03834D01*
X0291Y0369D02*
X03026Y03806D01*
X03031Y03979D02*
X03032Y0398D01*
X03031Y0396D02*
Y03979D01*
Y0396D02*
X03032Y03959D01*
Y0384D02*
Y03959D01*
X03026Y03834D02*
X03032Y0384D01*
X0257Y03562D02*
X02585Y03547D01*
X0257Y03562D02*
Y03798D01*
X04838Y04066D02*
X04901D01*
X0285Y0337D02*
X04445D01*
X04559Y03819D02*
X04775Y04035D01*
X04445Y0337D02*
X04558Y03483D01*
X04559*
Y03819*
X03445Y0333D02*
X03475Y033D01*
X04938Y02993D02*
X04975Y0303D01*
X04925Y02993D02*
X04938D01*
X04916Y02985D02*
X04925Y02993D01*
X04005Y02985D02*
X04916D01*
X04975Y0303D02*
X0511D01*
X0669Y03135D02*
X0691D01*
X066Y03225D02*
X0669Y03135D01*
X04135Y03855D02*
Y04245D01*
X0404Y0434D02*
X04135Y04245D01*
Y03855D02*
X04165Y03825D01*
X04075Y04005D02*
Y0401D01*
X0404Y0364D02*
Y03975D01*
X0399Y0359D02*
X0404Y0364D01*
X0393Y0359D02*
X0399D01*
X06125Y02975D02*
X0615Y03D01*
X05515Y02975D02*
X06125D01*
X0543Y0306D02*
X05515Y02975D01*
X05415Y03225D02*
X066D01*
X05365Y03275D02*
X05415Y03225D01*
X063Y03875D02*
Y03925D01*
X06267Y03842D02*
X063Y03875D01*
X05072Y03842D02*
X06267D01*
X0661Y03425D02*
X06645Y0339D01*
X0629Y03305D02*
X0672D01*
X06255Y0334D02*
X0629Y03305D01*
X0672D02*
X068Y03225D01*
X0639Y03705D02*
X06415Y0373D01*
X056Y03705D02*
X0639D01*
X0313Y02705D02*
X03145Y0272D01*
X0292Y02705D02*
X0313D01*
X03145Y0272D02*
X03239D01*
X03575Y02785D02*
X0368Y0268D01*
X0329Y02785D02*
X03575D01*
X0326Y02815D02*
X0329Y02785D01*
X0211Y04065D02*
X0213Y04085D01*
X03305Y0369D02*
Y03855D01*
X0278Y0333D02*
X03445D01*
X0278Y02815D02*
X0283Y02765D01*
X02765Y02815D02*
X0278D01*
X02765D02*
X0281Y0286D01*
X0272D02*
X02765Y02815D01*
X04677Y03225D02*
X0472D01*
X04636Y03184D02*
X04677Y03225D01*
X04584Y03184D02*
X04636D01*
X0447Y0307D02*
X04584Y03184D01*
X0483Y02945D02*
X0485Y02925D01*
X0585*
X04935Y0297D02*
X0495Y02955D01*
X0419Y0293D02*
X04285Y02835D01*
X03565Y0293D02*
X0419D01*
X03535Y029D02*
X03565Y0293D01*
X04285Y02835D02*
X05675D01*
X0613Y028D02*
X0617Y0276D01*
X0528Y028D02*
X0613D01*
X04205Y02815D02*
X04246Y02775D01*
X0549*
X0697Y02785D02*
X0699D01*
X068Y02955D02*
X0697Y02785D01*
X0495Y02955D02*
X068D01*
X0658Y0249D02*
Y0274D01*
X06655Y02815*
X02344Y02465D02*
X02345D01*
X02365Y02445*
X04415Y02525D02*
X04565Y02675D01*
X02965Y02525D02*
X04415D01*
X0387Y0247D02*
Y0248D01*
Y0247D02*
X03879Y02461D01*
X05899D02*
X0591Y0245D01*
X03879Y02461D02*
X05899D01*
X05865Y02445D02*
X0591Y024D01*
X02365Y02445D02*
X05865D01*
X0123Y0244D02*
Y02485D01*
Y0244D02*
X0125Y0242D01*
X03239Y0272D02*
X0328Y0268D01*
X06065Y0245D02*
X06085Y0247D01*
X0591Y0245D02*
X06065D01*
X0602Y024D02*
X06035Y02415D01*
X0591Y024D02*
X0602D01*
X0599Y0235D02*
X06Y0236D01*
X0588Y0235D02*
X0599D01*
X0581Y0242D02*
X0588Y0235D01*
X0125Y0242D02*
X0581D01*
X05605Y0237D02*
X0563Y02395D01*
X05035Y0237D02*
X05605D01*
X05015Y0235D02*
X05035Y0237D01*
X04161Y0286D02*
X04205Y02815D01*
X0281Y0286D02*
X04161D01*
X017D02*
X0272D01*
X01695Y02855D02*
X017Y0286D01*
X06655Y02815D02*
X06685D01*
X06495Y02405D02*
X0658Y0249D01*
X06265Y0238D02*
X0684D01*
X0686Y024*
X059Y02515D02*
X05925Y0249D01*
X05095Y02515D02*
X059D01*
X0507Y0254D02*
X05095Y02515D01*
X0464Y01265D02*
X0469Y01315D01*
X0249Y01265D02*
X0464D01*
X04621Y013D02*
X047Y01378D01*
X03695Y013D02*
X04621D01*
X0368Y01315D02*
X03695Y013D01*
X0247Y01285D02*
X0249Y01265D01*
X0664Y01495D02*
X06745Y016D01*
X02893Y0149D02*
X03004Y016D01*
X01646Y0149D02*
X01756Y016D01*
X04135Y01485D02*
X04251Y016D01*
X05377Y0148D02*
X05498Y016D01*
X047Y0138D02*
X04735Y01415D01*
X047Y01378D02*
Y0138D01*
X04735Y01415D02*
Y01435D01*
X04625Y01225D02*
X04635Y01235D01*
X0124Y01225D02*
X04625D01*
X0122Y01245D02*
X0124Y01225D01*
X04925Y0148D02*
X05377D01*
X06367Y0228D02*
X06472Y02175D01*
X0548Y0228D02*
X06367D01*
X05375Y02175D02*
X0548Y0228D01*
X05225Y02175D02*
X05375D01*
X0512Y0228D02*
X05225Y02175D01*
X04165Y0228D02*
X0512D01*
X04065Y0218D02*
X04165Y0228D01*
X03973Y0218D02*
X04065D01*
X03878Y02275D02*
X03973Y0218D01*
X03085Y02275D02*
X03878D01*
X03024Y02214D02*
X03085Y02275D01*
X02976Y02214D02*
X03024D01*
X02942Y0218D02*
X02976Y02214D01*
X027Y02205D02*
X02725Y0218D01*
X02448Y02205D02*
X027D01*
X02408Y02245D02*
X02448Y02205D01*
X01755Y02245D02*
X02408D01*
X0169Y0218D02*
X01755Y02245D01*
X0123Y02135D02*
X01982D01*
X01725Y02114D02*
X0176Y0208D01*
X01468Y02114D02*
X01725D01*
X01482Y0218D02*
X0169D01*
X06472Y02037D02*
Y02075D01*
X0671Y02109D02*
X06745Y02075D01*
X06966Y02125D02*
X07017Y02075D01*
X0624Y02355D02*
X06265Y0238D01*
X06185Y02125D02*
X06966D01*
X0617Y0214D02*
X06185Y02125D01*
X04345Y0238D02*
X0436Y02395D01*
X0377Y0238D02*
X04345D01*
X0375Y0236D02*
X0377Y0238D01*
X0275Y0237D02*
X02765Y02385D01*
X02545Y0237D02*
X0275D01*
X02515Y0234D02*
X02545Y0237D01*
X01665Y02335D02*
X0171Y0238D01*
X0126Y02335D02*
X01665D01*
X0122Y02295D02*
X0126Y02335D01*
X0122Y02285D02*
Y02295D01*
X05465Y02109D02*
X055Y02075D01*
X05725Y02125D02*
X05775Y02075D01*
X0617Y0214D02*
Y02175D01*
X0613Y01495D02*
X0664D01*
X01982Y02135D02*
X02037Y0208D01*
X012Y02164D02*
X0123Y02135D01*
X01447Y02094D02*
X01468Y02114D01*
X01447Y02092D02*
Y02094D01*
X014Y02045D02*
X01447Y02092D01*
X0136Y02045D02*
X014D01*
X01434Y01994D02*
X01476Y02036D01*
X0119Y01994D02*
X01434D01*
X02725Y0204D02*
Y0208D01*
X02685Y02D02*
X02725Y0204D01*
X02425Y02D02*
X02685D01*
X03973Y02033D02*
Y0208D01*
X0393Y0199D02*
X03973Y02033D01*
X03619Y0199D02*
X0393D01*
X05225Y0203D02*
Y02075D01*
X05194Y01999D02*
X05225Y0203D01*
X0487Y01999D02*
X05194D01*
X06429Y01994D02*
X06472Y02037D01*
X0609Y01994D02*
X06429D01*
X0633Y02045D02*
X06394Y02109D01*
X0671*
X04925Y0214D02*
Y0216D01*
Y0214D02*
X0494Y02125D01*
X05472Y02125D02*
X05725D01*
X05472Y02125D02*
X05472Y02125D01*
X0494Y02125D02*
X05472D01*
X0519Y02109D02*
X05465D01*
X05125Y02045D02*
X0519Y02109D01*
X0509Y02045D02*
X05125D01*
X03675Y0217D02*
X03699Y02145D01*
X04525Y0208D02*
X04528D01*
X04459Y02145D02*
X04525Y0208D01*
X03699Y02145D02*
X04459D01*
X04216Y02115D02*
X04251Y0208D01*
X03959Y02115D02*
X04216D01*
X03889Y02045D02*
X03959Y02115D01*
X0383Y02045D02*
X03889D01*
X0369Y01485D02*
X04135D01*
X0245Y02155D02*
Y0217D01*
Y02155D02*
X0246Y02145D01*
X0322D02*
X03285Y0208D01*
X0246Y02145D02*
X0322D01*
X02605Y02055D02*
X0261D01*
X0267Y0212D02*
X02965D01*
X03005Y0208*
X02455Y0149D02*
X02893D01*
X0123D02*
X01646D01*
X01975Y0439D02*
X01995D01*
X02055Y0372D02*
X02085Y0369D01*
X02055Y0372D02*
Y0402D01*
X01975Y0359D02*
X02065D01*
X02055Y0402D02*
Y0433D01*
X01995Y0439D02*
X02055Y0433D01*
X02065Y0359D02*
X0211Y03635D01*
Y04065*
X03155Y02655D02*
X0318Y0268D01*
X0175Y02685D02*
X0178Y02655D01*
X03155*
X02795Y0218D02*
X0283Y02215D01*
Y02285*
X02725Y0218D02*
X02795D01*
X02942*
X02635Y03405D02*
Y0411D01*
X0175Y02685D02*
Y02735D01*
X0188Y02465D02*
X02301D01*
X0187Y02475D02*
X0188Y02465D01*
X0283Y02735D02*
Y02765D01*
X02301Y02465D02*
X02326Y0249D01*
X04465D02*
X0451Y02535D01*
X02326Y0249D02*
X03846D01*
X0386Y02503*
X03879*
X03893Y0249*
X04465*
X01835Y03255D02*
X01865Y03285D01*
X02515*
X02635Y03405*
X0305Y03445D02*
X03075Y0342D01*
X0305Y03445D02*
Y03825D01*
X03335Y0341D02*
Y04155D01*
X03455Y04275*
X03705Y03735D02*
X0371D01*
X01175Y0327D02*
X01245Y0334D01*
X0237*
X0243Y034*
Y04285*
X02465Y0432*
X03626Y03725D02*
X0363Y03721D01*
X03626Y03836D02*
X0363Y0384D01*
X03626Y03725D02*
Y03836D01*
X02715Y04247D02*
X02742Y04275D01*
X0292*
X02945Y043*
X01195Y0449D02*
Y04495D01*
X0123Y0453*
X04345*
X0445Y04425*
X045*
X0443Y04605D02*
X0447Y04565D01*
X013Y0458D02*
X01325Y04605D01*
X0443*
X0424Y0434D02*
X04285Y04295D01*
X05355Y0408D02*
X054Y04125D01*
X0363Y03475D02*
Y03721D01*
X03755Y03475D02*
Y03685D01*
X03845Y0348D02*
Y0361D01*
X03795Y0366D02*
X03845Y0361D01*
X02275Y02895D02*
X0328D01*
X0309Y03875D02*
X0318Y03965D01*
X0309Y03525D02*
Y03875D01*
Y03525D02*
X0315Y03465D01*
X0319*
X0277Y0345D02*
X0285Y0337D01*
X04915Y0346D02*
X05465D01*
X055Y03495*
X0338Y0268D02*
X0343Y0263D01*
X04315*
X0437Y02685*
X0284Y0369D02*
X0291D01*
X02655Y04035D02*
X02695Y04075D01*
X0489Y03425D02*
X0661D01*
X0493Y04185D02*
X06415D01*
X0535Y04085D02*
X05355Y0408D01*
X0534Y04075D02*
X0535Y04085D01*
X0516Y04075D02*
X0534D01*
X04885Y0414D02*
X0493Y04185D01*
X04825Y0414D02*
X04885D01*
X04285Y04295D02*
X04725D01*
X04825Y04195*
Y0414D02*
Y04195D01*
X02655Y03725D02*
Y04035D01*
Y03725D02*
X0267Y0371D01*
X02685Y03425D02*
X0278Y0333D01*
X0267Y0368D02*
Y0371D01*
Y0368D02*
X0277Y0358D01*
Y0345D02*
Y0358D01*
X02685Y03425D02*
Y03555D01*
X0271Y0358*
X05045Y04415D02*
X0593D01*
X06125Y0461*
X0477Y0452D02*
X05935D01*
X06025Y0461*
X04775Y04035D02*
Y0409D01*
X04825Y0414*
X049Y03475D02*
X04915Y0346D01*
X049Y03475D02*
Y036D01*
Y0361*
X0486Y03455D02*
X0489Y03425D01*
X0486Y03455D02*
Y03535D01*
X049Y0361D02*
X0503Y0374D01*
Y0396*
X01476Y02036D02*
Y02086D01*
X0257Y03798D02*
Y04095D01*
X02674Y04199*
X02741*
X04924Y04065D02*
X0503Y0396D01*
X04925Y04115D02*
Y04117D01*
X04784Y03635D02*
X04826D01*
X04657Y03853D02*
Y03885D01*
Y03762D02*
Y03853D01*
Y03762D02*
X04784Y03635D01*
X04657Y03885D02*
X04838Y04066D01*
X0404Y03975D02*
X04075Y0401D01*
X03705Y03735D02*
X03755Y03685D01*
G54D24*
X01Y01D02*
X0727D01*
Y04835*
X01D02*
X0727D01*
X01Y01D02*
Y04835D01*
G54D25*
X01482Y0198D03*
Y0208D03*
X02037Y0198D03*
Y0208D03*
X0176Y0198D03*
Y0208D03*
X03285Y0198D03*
Y0208D03*
X03005Y0198D03*
Y0208D03*
X02725Y0198D03*
Y0208D03*
X04528Y0198D03*
Y0208D03*
X04251Y0198D03*
Y0208D03*
X03973Y0198D03*
Y0208D03*
X05775Y01975D03*
Y02075D03*
X055Y01975D03*
Y02075D03*
X05225Y01975D03*
Y02075D03*
X07017Y01975D03*
Y02075D03*
X06745Y01975D03*
Y02075D03*
X06472Y01975D03*
Y02075D03*
G54D26*
X01482Y0218D03*
X02037D03*
X0176D03*
X03285D03*
X03005D03*
X02725D03*
X04528D03*
X04251D03*
X03973D03*
X05775Y02175D03*
X055D03*
X05225D03*
X07017D03*
X06745D03*
X06472D03*
G54D27*
X01865Y04665D03*
X05135Y0461D03*
X05885Y0266D03*
X0318Y0268D03*
X04655Y0266D03*
X0452Y03225D03*
X066D03*
X06025Y0461D03*
G54D28*
X01965Y04665D03*
X01975Y0419D03*
Y0349D03*
Y0359D03*
Y0369D03*
Y0379D03*
Y0389D03*
Y0399D03*
Y0409D03*
Y0429D03*
X0393Y0419D03*
Y0349D03*
Y0359D03*
Y0369D03*
Y0379D03*
Y0389D03*
Y0399D03*
Y0409D03*
Y0429D03*
X01855Y016D03*
X03102D03*
X04349D03*
X05596D03*
X06844D03*
X05435Y0461D03*
X05335D03*
X05235D03*
X06285Y0266D03*
X06185D03*
X06085D03*
X05985D03*
X0328Y0268D03*
X0338D03*
X0348D03*
X0358D03*
X0368D03*
X05055Y0266D03*
X04955D03*
X04855D03*
X04755D03*
X0492Y03225D03*
X0482D03*
X0472D03*
X0462D03*
X067D03*
X068D03*
X06125Y0461D03*
X06225D03*
X06325D03*
G54D29*
X01975Y0439D03*
X0393D03*
X01756Y016D03*
X03004D03*
X04251D03*
X05498D03*
X06745D03*
G54D30*
X01556Y014D03*
X01957D03*
X02803D03*
X03204D03*
X0405D03*
X04452D03*
X05297D03*
X05699D03*
X06545D03*
X06946D03*
G54D31*
X02738Y0407D03*
X02703Y04133D03*
X03086Y04328D03*
X02835Y04075D03*
X03002Y04068D03*
X03092Y04159D03*
X02885Y04071D03*
X02585Y03547D03*
X0257Y03798D03*
X04901Y04066D03*
X04559Y03483D03*
X03475Y033D03*
X0511Y0303D03*
X04005Y02985D03*
X0691Y03135D03*
X04165Y03825D03*
X04075Y04005D03*
X0615Y03D03*
X0543Y0306D03*
X05365Y03275D03*
X063Y03925D03*
X05072Y03842D03*
X06645Y0339D03*
X0404Y0434D03*
X06255Y0334D03*
X06415Y0373D03*
X056Y03705D03*
X0363Y0384D03*
X01175Y0327D03*
X0318Y03965D03*
X0326Y02815D03*
X0213Y04085D03*
X0305Y03825D03*
X03305Y0369D03*
Y03855D03*
X02765Y02815D03*
X0447Y0307D03*
X0549Y02775D03*
X0483Y02945D03*
X0585Y02925D03*
X04935Y0297D03*
X03535Y029D03*
X05675Y02835D03*
X0528Y028D03*
X0617Y0276D03*
X0699Y02785D03*
X02344Y02465D03*
X04565Y02675D03*
X02965Y02525D03*
X0387Y0248D03*
X0451Y02535D03*
X0292Y02705D03*
X06085Y0247D03*
X06Y0236D03*
X06035Y02415D03*
X0123Y02485D03*
X0563Y02395D03*
X05015Y0235D03*
X01695Y02855D03*
X06685Y02815D03*
X06495Y02405D03*
X04205Y02815D03*
X0507Y0254D03*
X05925Y0249D03*
X0469Y01315D03*
X04735Y01435D03*
X0368Y01315D03*
X04635Y01235D03*
X0247Y01285D03*
X0122Y01245D03*
X04925Y0148D03*
X0686Y024D03*
X0624Y02355D03*
X0436Y02395D03*
X0375Y0236D03*
X02765Y02385D03*
X02515Y0234D03*
X0171Y0238D03*
X0122Y02285D03*
X0617Y02175D03*
X0613Y01495D03*
X012Y02164D03*
X0136Y02045D03*
X0633D03*
X0609Y01994D03*
X04925Y0216D03*
X0509Y02045D03*
X0487Y01999D03*
X03675Y0217D03*
X0383Y02045D03*
X03619Y0199D03*
X0369Y01485D03*
X0245Y0217D03*
X0261Y02055D03*
X02425Y02D03*
X02455Y0149D03*
X0123D03*
X0119Y01994D03*
X02055Y0402D03*
X02085Y0369D03*
X0283Y02285D03*
X02635Y0411D03*
X01835Y03255D03*
X0175Y02735D03*
X0187Y02475D03*
X0283Y02735D03*
X03075Y0342D03*
X03335Y0341D03*
X03455Y04275D03*
X0371Y03735D03*
X06415Y04185D03*
X02465Y0432D03*
X02715Y04247D03*
X02945Y043D03*
X03055Y0397D03*
X01195Y0449D03*
X045Y04425D03*
X0447Y04565D03*
X013Y0458D03*
X0424Y0434D03*
X054Y04125D03*
X0363Y03475D03*
X03795Y0366D03*
X03755Y03475D03*
X03845Y0348D03*
X02275Y02895D03*
X0328D03*
X0319Y03465D03*
X055Y03495D03*
X0437Y02685D03*
X0284Y0369D03*
X0516Y04075D03*
X04825Y0414D03*
X0267Y0371D03*
X0271Y0358D03*
X05045Y04415D03*
X0477Y0452D03*
X049Y036D03*
X0486Y03535D03*
X02741Y04199D03*
X04925Y04117D03*
X04826Y03635D03*
X04657Y03853D03*
M02*