%FSTAX23Y23*%
%MOIN*%
%SFA1B1*%

%IPPOS*%
%ADD24C,0.047240*%
%ADD25C,0.047240*%
%ADD26R,0.047240X0.047240*%
%ADD27R,0.059060X0.059060*%
%ADD28C,0.059060*%
%ADD29R,0.059060X0.059060*%
%ADD30C,0.129920*%
%LNhanc_analog-1*%
%LPD*%
G54D24*
X01Y01D02*
X0727D01*
Y04835*
X01D02*
X0727D01*
X01Y01D02*
Y04835D01*
G54D25*
X01482Y0198D03*
Y0208D03*
X02037Y0198D03*
Y0208D03*
X0176Y0198D03*
Y0208D03*
X03285Y0198D03*
Y0208D03*
X03005Y0198D03*
Y0208D03*
X02725Y0198D03*
Y0208D03*
X04528Y0198D03*
Y0208D03*
X04251Y0198D03*
Y0208D03*
X03973Y0198D03*
Y0208D03*
X05775Y01975D03*
Y02075D03*
X055Y01975D03*
Y02075D03*
X05225Y01975D03*
Y02075D03*
X07017Y01975D03*
Y02075D03*
X06745Y01975D03*
Y02075D03*
X06472Y01975D03*
Y02075D03*
G54D26*
X01482Y0218D03*
X02037D03*
X0176D03*
X03285D03*
X03005D03*
X02725D03*
X04528D03*
X04251D03*
X03973D03*
X05775Y02175D03*
X055D03*
X05225D03*
X07017D03*
X06745D03*
X06472D03*
G54D27*
X01865Y04665D03*
X05135Y0461D03*
X05885Y0266D03*
X0318Y0268D03*
X04655Y0266D03*
X0452Y03225D03*
X066D03*
X06025Y0461D03*
G54D28*
X01965Y04665D03*
X01975Y0419D03*
Y0349D03*
Y0359D03*
Y0369D03*
Y0379D03*
Y0389D03*
Y0399D03*
Y0409D03*
Y0429D03*
X0393Y0419D03*
Y0349D03*
Y0359D03*
Y0369D03*
Y0379D03*
Y0389D03*
Y0399D03*
Y0409D03*
Y0429D03*
X01855Y016D03*
X03102D03*
X04349D03*
X05596D03*
X06844D03*
X05435Y0461D03*
X05335D03*
X05235D03*
X06285Y0266D03*
X06185D03*
X06085D03*
X05985D03*
X0328Y0268D03*
X0338D03*
X0348D03*
X0358D03*
X0368D03*
X05055Y0266D03*
X04955D03*
X04855D03*
X04755D03*
X0492Y03225D03*
X0482D03*
X0472D03*
X0462D03*
X067D03*
X068D03*
X06125Y0461D03*
X06225D03*
X06325D03*
G54D29*
X01975Y0439D03*
X0393D03*
X01756Y016D03*
X03004D03*
X04251D03*
X05498D03*
X06745D03*
G54D30*
X01556Y014D03*
X01957D03*
X02803D03*
X03204D03*
X0405D03*
X04452D03*
X05297D03*
X05699D03*
X06545D03*
X06946D03*
M02*