%FSTAX23Y23*%
%MOIN*%
%SFA1B1*%

%IPPOS*%
%ADD10R,0.043310X0.055120*%
%ADD11R,0.027560X0.035430*%
%ADD12O,0.098430X0.027560*%
%ADD13O,0.086610X0.023620*%
%ADD14R,0.035430X0.027560*%
%ADD15R,0.031500X0.035430*%
%ADD16R,0.019690X0.011810*%
%ADD17R,0.039370X0.094490*%
%ADD18R,0.129920X0.094490*%
%ADD19O,0.074800X0.023620*%
%ADD20R,0.161420X0.161420*%
%ADD21O,0.037400X0.009840*%
%ADD22O,0.009840X0.037400*%
%ADD24C,0.047240*%
%LNhanc_analog-1*%
%LPD*%
G54D10*
X05029Y01855D03*
X0497D03*
X03505Y02235D03*
X03564D03*
X02539Y01855D03*
X0248D03*
X0108D03*
X01139D03*
X0108Y02235D03*
X01139D03*
X01299Y01855D03*
X0124D03*
X02265D03*
X02324D03*
X02265Y02235D03*
X02324D03*
X03505Y01855D03*
X03564D03*
X03764D03*
X03705D03*
X04765D03*
X04824D03*
X04765Y02235D03*
X04824D03*
X0598Y01855D03*
X06039D03*
X0598Y02235D03*
X06039D03*
X06264Y01855D03*
X06205D03*
G54D11*
X03764Y02235D03*
X03705D03*
X02539D03*
X0248D03*
X01299D03*
X0124D03*
X02265Y02045D03*
X02324D03*
X02485D03*
X02544D03*
X0124D03*
X01299D03*
X0108D03*
X01139D03*
X04629Y0447D03*
X0457D03*
X048D03*
X04859D03*
X04629Y046D03*
X0457D03*
X048Y04595D03*
X04859D03*
X02304Y0276D03*
X02245D03*
X02304Y0258D03*
X02245D03*
X06344Y02875D03*
X06285D03*
X06344Y0303D03*
X06285D03*
X01229Y0276D03*
X0117D03*
X01229Y0258D03*
X0117D03*
X03859Y0275D03*
X038D03*
X03859Y0257D03*
X038D03*
X05264Y0303D03*
X05205D03*
X05264Y02875D03*
X05205D03*
X018Y0276D03*
X01859D03*
Y0258D03*
X018D03*
X01199Y01555D03*
X0114D03*
Y0138D03*
X01199D03*
X0289Y0276D03*
X02949D03*
Y0258D03*
X0289D03*
X02432Y01555D03*
X02372D03*
X0237Y0138D03*
X02429D03*
X06129Y01555D03*
X0607D03*
Y0138D03*
X06129D03*
X0695Y0303D03*
X0701D03*
Y02875D03*
X0695D03*
X0441Y0276D03*
X04469D03*
Y0258D03*
X0441D03*
X03664Y01555D03*
X03605D03*
Y0138D03*
X03664D03*
X0575Y0303D03*
X05809D03*
Y02875D03*
X0575D03*
X04897Y01555D03*
X04837D03*
Y0138D03*
X04897D03*
X03221Y0321D03*
X03162D03*
X03705Y02045D03*
X03764D03*
X03505D03*
X03564D03*
X0497D03*
X05029D03*
Y02235D03*
X0497D03*
X04765Y02045D03*
X04824D03*
X06205D03*
X06264D03*
Y02235D03*
X06205D03*
X0598Y02045D03*
X06039D03*
X01582Y0368D03*
X01523D03*
Y0443D03*
X01582D03*
X06214Y03975D03*
X06155D03*
G54D12*
X05946Y038D03*
Y0385D03*
Y039D03*
Y0395D03*
X05753Y038D03*
Y0385D03*
Y039D03*
Y0395D03*
G54D13*
X02709Y02605D03*
Y02655D03*
Y02705D03*
Y02755D03*
X0252Y02605D03*
Y02655D03*
Y02705D03*
Y02755D03*
X04284Y02595D03*
Y02645D03*
Y02695D03*
Y02745D03*
X04095Y02595D03*
Y02645D03*
Y02695D03*
Y02745D03*
X05569Y02575D03*
Y02625D03*
Y02675D03*
Y02725D03*
X0538Y02575D03*
Y02625D03*
Y02675D03*
Y02725D03*
X06745Y02595D03*
Y02645D03*
Y02695D03*
Y02745D03*
X06556Y02595D03*
Y02645D03*
Y02695D03*
Y02745D03*
X01639Y02605D03*
Y02655D03*
Y02705D03*
Y02755D03*
X0145Y02605D03*
Y02655D03*
Y02705D03*
Y02755D03*
G54D14*
X0675Y04179D03*
Y0412D03*
G54D15*
X01285Y0368D03*
X0123D03*
X01377D03*
X01432D03*
X04462Y03677D03*
X04517D03*
X06537Y03821D03*
X06592D03*
X06537Y03683D03*
X06592D03*
X06537Y03545D03*
X06592D03*
X02612Y04355D03*
X02667D03*
X02922D03*
X02867D03*
X02612Y042D03*
X02667D03*
X06537Y04475D03*
X06592D03*
X06537Y04337D03*
X06592D03*
X06537Y04199D03*
X06592D03*
X03512Y0418D03*
X03457D03*
X0316Y04432D03*
X03216D03*
X03512Y04355D03*
X03457D03*
X03164Y0307D03*
X0322D03*
X02557D03*
X02502D03*
X02557Y0321D03*
X02502D03*
X0321Y04309D03*
X03155D03*
X02372Y042D03*
X02317D03*
X03512Y03853D03*
X03457D03*
X0322Y0385D03*
X03164D03*
X03512Y0369D03*
X03457D03*
X02922Y034D03*
X02867D03*
X02922Y0353D03*
X02867D03*
X0322D03*
X03164D03*
X03222Y03385D03*
X03167D03*
X03972Y0304D03*
X03917D03*
X03912Y03205D03*
X03967D03*
X03684Y03115D03*
X0374D03*
X06872Y03821D03*
X06927D03*
X06872Y03683D03*
X06927D03*
X06872Y03545D03*
X06927D03*
X05252Y04195D03*
X05197D03*
X04954D03*
X05009D03*
X05252Y04D03*
X05197D03*
X06872Y04475D03*
X06927D03*
X06872Y04337D03*
X06927D03*
X06872Y04199D03*
X06927D03*
X05527Y03775D03*
X05472D03*
X06157Y0378D03*
X06212D03*
X04705Y04195D03*
X0476D03*
X04517D03*
X04462D03*
X05009Y03526D03*
X04954D03*
X05197D03*
X05252D03*
Y03725D03*
X05197D03*
X06212Y04105D03*
X06157D03*
X02867Y042D03*
X02922D03*
X05467Y04195D03*
X05412D03*
X0322Y04016D03*
X03164D03*
X03457D03*
X03512D03*
X0322Y03685D03*
X03164D03*
X0123Y0443D03*
X01285D03*
X01432D03*
X01377D03*
X02317Y0366D03*
X02372D03*
Y0401D03*
X02317D03*
X04462Y03525D03*
X04517D03*
X04462Y03835D03*
X04517D03*
X05527Y03975D03*
X05472D03*
X02317Y03525D03*
X02372D03*
G54D16*
X04332Y0446D03*
X04305D03*
X04333Y04595D03*
X04306D03*
G54D17*
X015Y03414D03*
X0141D03*
X01319D03*
Y04134D03*
X0141D03*
X015D03*
G54D18*
X0141Y03185D03*
Y03905D03*
G54D19*
X02977Y0305D03*
Y031D03*
Y0315D03*
Y032D03*
X02792Y0305D03*
Y031D03*
Y0315D03*
Y032D03*
G54D20*
X04885Y03871D03*
X0281Y0388D03*
G54D21*
X04998Y0396D03*
Y0394D03*
Y03921D03*
Y03901D03*
Y03881D03*
Y03861D03*
Y03842D03*
Y03822D03*
Y03802D03*
Y03783D03*
X04772D03*
Y03802D03*
Y03822D03*
Y03842D03*
Y03861D03*
Y03881D03*
Y03901D03*
Y03921D03*
Y0394D03*
Y0396D03*
X02696Y03968D03*
Y03948D03*
Y03929D03*
Y03909D03*
Y03889D03*
Y0387D03*
Y0385D03*
Y0383D03*
Y03811D03*
Y03791D03*
X02923D03*
Y03811D03*
Y0383D03*
Y0385D03*
Y0387D03*
Y03889D03*
Y03909D03*
Y03929D03*
Y03948D03*
Y03968D03*
G54D22*
X04974Y03758D03*
X04954D03*
X04934D03*
X04915D03*
X04895D03*
X04875D03*
X04855D03*
X04836D03*
X04816D03*
X04796D03*
Y03985D03*
X04816D03*
X04836D03*
X04855D03*
X04875D03*
X04895D03*
X04915D03*
X04934D03*
X04954D03*
X04974D03*
X02898Y03993D03*
X02878D03*
X02859D03*
X02839D03*
X02819D03*
X028D03*
X0278D03*
X0276D03*
X02741D03*
X02721D03*
Y03766D03*
X02741D03*
X0276D03*
X0278D03*
X028D03*
X02819D03*
X02839D03*
X02859D03*
X02878D03*
X02898D03*
G54D24*
X01Y01D02*
X0727D01*
Y04835*
X01D02*
X0727D01*
X01Y01D02*
Y04835D01*
M02*