%FSTAX23Y23*%
%MOIN*%
%SFA1B1*%

%IPPOS*%
%ADD25C,0.047240*%
%ADD26C,0.059060*%
%ADD27R,0.059060X0.059060*%
%ADD28R,0.059060X0.059060*%
%ADD29C,0.129920*%
%ADD30R,0.047240X0.047240*%
%ADD31C,0.047240*%
%LNhanc_analog-1*%
%LPD*%
G54D25*
X01Y01D02*
Y04835D01*
X0727*
Y01D02*
Y04835D01*
X01Y01D02*
X0727D01*
G54D26*
X06325Y0461D03*
X06225D03*
X06125D03*
X068Y03225D03*
X067D03*
X0462D03*
X0472D03*
X0482D03*
X0492D03*
X04755Y0266D03*
X04855D03*
X04955D03*
X05055D03*
X0368Y0268D03*
X0358D03*
X0348D03*
X0338D03*
X0328D03*
X05985Y0266D03*
X06085D03*
X06185D03*
X06285D03*
X05235Y0461D03*
X05335D03*
X05435D03*
X06844Y016D03*
X05596D03*
X04349D03*
X03102D03*
X01855D03*
X0393Y0429D03*
Y0409D03*
Y0399D03*
Y0389D03*
Y0379D03*
Y0369D03*
Y0359D03*
Y0349D03*
Y0419D03*
X01975Y0429D03*
Y0409D03*
Y0399D03*
Y0389D03*
Y0379D03*
Y0369D03*
Y0359D03*
Y0349D03*
Y0419D03*
X01965Y04665D03*
G54D27*
X06025Y0461D03*
X066Y03225D03*
X0452D03*
X04655Y0266D03*
X0318Y0268D03*
X05885Y0266D03*
X05135Y0461D03*
X01865Y04665D03*
G54D28*
X06745Y016D03*
X05498D03*
X04251D03*
X03004D03*
X01756D03*
X0393Y0439D03*
X01975D03*
G54D29*
X06946Y014D03*
X06545D03*
X05699D03*
X05297D03*
X04452D03*
X0405D03*
X03204D03*
X02803D03*
X01957D03*
X01556D03*
G54D30*
X06745Y02175D03*
X07017D03*
X055D03*
X05775D03*
X04251Y0218D03*
X04528D03*
X03005D03*
X03285D03*
X0176D03*
X02037D03*
G54D31*
X06745Y02075D03*
Y01975D03*
X07017Y02075D03*
Y01975D03*
X055Y02075D03*
Y01975D03*
X05775Y02075D03*
Y01975D03*
X04251Y0208D03*
Y0198D03*
X04528Y0208D03*
Y0198D03*
X03005Y0208D03*
Y0198D03*
X03285Y0208D03*
Y0198D03*
X0176Y0208D03*
Y0198D03*
X02037Y0208D03*
Y0198D03*
M02*