%FSTAX23Y23*%
%MOIN*%
%SFA1B1*%

%IPPOS*%
%ADD24C,0.010000*%
%ADD25C,0.047240*%
%ADD33C,0.009840*%
%ADD34C,0.000980*%
%ADD35C,0.015750*%
%ADD36C,0.007870*%
%ADD37C,0.000980*%
%LNhanc_analog-1*%
%LPD*%
G54D24*
X02685Y04144D02*
Y04099D01*
X02694Y0409*
X02712*
X02721Y04099*
Y04144*
X02739Y0409D02*
X02758D01*
X02749*
Y04144*
X02739Y04135*
X02785D02*
X02794Y04144D01*
X02813*
X02822Y04135*
Y04099*
X02813Y0409*
X02794*
X02785Y04099*
Y04135*
X0284Y0409D02*
X02859D01*
X02849*
Y04144*
X0284Y04135*
X05694Y04079D02*
Y04034D01*
X05703Y04025*
X05721*
X0573Y04034*
Y04079*
X05785Y04025D02*
X05748D01*
X05785Y04061*
Y0407*
X05776Y04079*
X05758*
X05748Y0407*
X05803D02*
X05813Y04079D01*
X05831*
X0584Y0407*
Y04034*
X05831Y04025*
X05813*
X05803Y04034*
Y0407*
X05858D02*
X05868Y04079D01*
X05886*
X05895Y0407*
Y04034*
X05886Y04025*
X05868*
X05858Y04034*
Y0407*
X02503Y02882D02*
X02484D01*
X02475Y02873*
Y02837*
X02484Y02828*
X02503*
X02512Y02837*
Y02873*
X02503Y02882*
X0253Y02828D02*
Y02882D01*
X02558*
X02567Y02873*
Y02855*
X02558Y02846*
X0253*
X02622Y02828D02*
X02585D01*
X02622Y02864*
Y02873*
X02613Y02882*
X02594*
X02585Y02873*
X06935Y02974D02*
X06972Y0292D01*
Y02974D02*
X06935Y0292D01*
X07027Y02974D02*
X0699D01*
Y02947*
X07009*
X0699*
Y0292*
X07082Y02974D02*
X07045D01*
Y02947*
X07064Y02956*
X07073*
X07082Y02947*
Y02929*
X07073Y0292*
X07055*
X07045Y02929*
X0574Y02969D02*
X05776Y02915D01*
Y02969D02*
X0574Y02915D01*
X05831Y02969D02*
X05794D01*
Y02942*
X05813*
X05794*
Y02915*
X05877D02*
Y02969D01*
X05849Y02942*
X05886*
X044Y02674D02*
X04436Y0262D01*
Y02674D02*
X044Y0262D01*
X04491Y02674D02*
X04454D01*
Y02647*
X04473*
X04454*
Y0262*
X04509Y02665D02*
X04519Y02674D01*
X04537*
X04546Y02665*
Y02656*
X04537Y02647*
X04528*
X04537*
X04546Y02638*
Y02629*
X04537Y0262*
X04519*
X04509Y02629*
X02875Y02679D02*
X02911Y02625D01*
Y02679D02*
X02875Y02625D01*
X02966Y02679D02*
X02929D01*
Y02652*
X02948*
X02929*
Y02625*
X03021D02*
X02984D01*
X03021Y02661*
Y0267*
X03012Y02679*
X02994*
X02984Y0267*
X01785Y02674D02*
X01821Y0262D01*
Y02674D02*
X01785Y0262D01*
X01876Y02674D02*
X01839D01*
Y02647*
X01858*
X01839*
Y0262*
X01894D02*
X01913D01*
X01904*
Y02674*
X01894Y02665*
X06307Y03115D02*
X06297Y03124D01*
X06279*
X0627Y03115*
Y03106*
X06279Y03097*
X06297*
X06307Y03088*
Y03079*
X06297Y0307*
X06279*
X0627Y03079*
X06362Y03124D02*
X06325D01*
Y03097*
X06343Y03106*
X06352*
X06362Y03097*
Y03079*
X06352Y0307*
X06334*
X06325Y03079*
X05227Y03135D02*
X05217Y03144D01*
X05199*
X0519Y03135*
Y03126*
X05199Y03117*
X05217*
X05227Y03108*
Y03099*
X05217Y0309*
X05199*
X0519Y03099*
X05272Y0309D02*
Y03144D01*
X05245Y03117*
X05282*
X03831Y02845D02*
X03822Y02854D01*
X03803*
X03794Y02845*
Y02836*
X03803Y02827*
X03822*
X03831Y02818*
Y02809*
X03822Y028*
X03803*
X03794Y02809*
X03849Y02845D02*
X03858Y02854D01*
X03877*
X03886Y02845*
Y02836*
X03877Y02827*
X03867*
X03877*
X03886Y02818*
Y02809*
X03877Y028*
X03858*
X03849Y02809*
X02268Y02848D02*
X02259Y02857D01*
X02241*
X02232Y02848*
Y02839*
X02241Y0283*
X02259*
X02268Y02821*
Y02812*
X02259Y02803*
X02241*
X02232Y02812*
X02323Y02803D02*
X02286D01*
X02323Y02839*
Y02848*
X02314Y02857*
X02296*
X02286Y02848*
X01191Y0285D02*
X01182Y02859D01*
X01164*
X01155Y0285*
Y02841*
X01164Y02832*
X01182*
X01191Y02823*
Y02814*
X01182Y02805*
X01164*
X01155Y02814*
X01209Y02805D02*
X01228D01*
X01219*
Y02859*
X01209Y0285*
X06935Y03124D02*
X06953D01*
X06944*
Y0307*
X06935*
X06953*
X07017Y03124D02*
X06981D01*
Y03097*
X06999*
X06981*
Y0307*
X07072Y03124D02*
X07036D01*
Y03097*
X07054Y03106*
X07063*
X07072Y03097*
Y03079*
X07063Y0307*
X07045*
X07036Y03079*
X0574Y03124D02*
X05758D01*
X05749*
Y0307*
X0574*
X05758*
X05822Y03124D02*
X05785D01*
Y03097*
X05804*
X05785*
Y0307*
X05868D02*
Y03124D01*
X0584Y03097*
X05877*
X044Y02854D02*
X04418D01*
X04409*
Y028*
X044*
X04418*
X04482Y02854D02*
X04445D01*
Y02827*
X04464*
X04445*
Y028*
X045Y02845D02*
X04509Y02854D01*
X04528*
X04537Y02845*
Y02836*
X04528Y02827*
X04519*
X04528*
X04537Y02818*
Y02809*
X04528Y028*
X04509*
X045Y02809*
X0288Y02859D02*
X02898D01*
X02889*
Y02805*
X0288*
X02898*
X02962Y02859D02*
X02925D01*
Y02832*
X02944*
X02925*
Y02805*
X03017D02*
X0298D01*
X03017Y02841*
Y0285*
X03008Y02859*
X02989*
X0298Y0285*
X01786Y02865D02*
X01804D01*
X01795*
Y02811*
X01786*
X01804*
X01868Y02865D02*
X01831D01*
Y02838*
X0185*
X01831*
Y02811*
X01886D02*
X01905D01*
X01895*
Y02865*
X01886Y02856*
X06272Y02984D02*
Y0293D01*
X06299*
X06308Y02939*
Y02975*
X06299Y02984*
X06272*
X06363D02*
X06326D01*
Y02957*
X06345Y02966*
X06354*
X06363Y02957*
Y02939*
X06354Y0293*
X06336*
X06326Y02939*
X05185Y02974D02*
Y0292D01*
X05212*
X05222Y02929*
Y02965*
X05212Y02974*
X05185*
X05267Y0292D02*
Y02974D01*
X0524Y02947*
X05277*
X03784Y02659D02*
Y02605D01*
X03812*
X03821Y02614*
Y0265*
X03812Y02659*
X03784*
X03839Y0265D02*
X03848Y02659D01*
X03867*
X03876Y0265*
Y02641*
X03867Y02632*
X03857*
X03867*
X03876Y02623*
Y02614*
X03867Y02605*
X03848*
X03839Y02614*
X0223Y02679D02*
Y02625D01*
X02257*
X02266Y02634*
Y0267*
X02257Y02679*
X0223*
X02321Y02625D02*
X02284D01*
X02321Y02661*
Y0267*
X02312Y02679*
X02294*
X02284Y0267*
X01154Y02689D02*
Y02635D01*
X01181*
X0119Y02644*
Y0268*
X01181Y02689*
X01154*
X01208Y02635D02*
X01227D01*
X01218*
Y02689*
X01208Y0268*
X0614Y04015D02*
Y04069D01*
X06167*
X06176Y0406*
Y04042*
X06167Y04033*
X0614*
X06158D02*
X06176Y04015D01*
X06194Y04069D02*
Y04015D01*
X06222*
X06231Y04024*
Y04033*
X06222Y04042*
X06194*
X06222*
X06231Y04051*
Y0406*
X06222Y04069*
X06194*
X06249Y04015D02*
Y04069D01*
X06277*
X06286Y0406*
Y04042*
X06277Y04033*
X06249*
X06341Y04015D02*
X06304D01*
X06341Y04051*
Y0406*
X06332Y04069*
X06314*
X06304Y0406*
X03153Y03264D02*
Y03318D01*
X0318*
X0319Y03309*
Y03291*
X0318Y03282*
X03153*
X03171D02*
X0319Y03264D01*
X03208Y03318D02*
Y03264D01*
X03235*
X03245Y03273*
Y03282*
X03235Y03291*
X03208*
X03235*
X03245Y033*
Y03309*
X03235Y03318*
X03208*
X03263Y03264D02*
Y03318D01*
X0329*
X033Y03309*
Y03291*
X0329Y03282*
X03263*
X03318Y03264D02*
X03336D01*
X03327*
Y03318*
X03318Y03309*
X04555Y04694D02*
X04573D01*
X04564*
Y0464*
X04555*
X04573*
X046Y04694D02*
Y0464D01*
X04628*
X04637Y04649*
Y04685*
X04628Y04694*
X046*
X04655D02*
Y04658D01*
X04674Y0464*
X04692Y04658*
Y04694*
X0471Y0464D02*
X04729D01*
X04719*
Y04694*
X0471Y04685*
X04551Y04564D02*
X04569D01*
X0456*
Y0451*
X04551*
X04569*
X04596D02*
Y04546D01*
X04615Y04564*
X04633Y04546*
Y0451*
Y04537*
X04596*
X04651Y04564D02*
Y04528D01*
X0467Y0451*
X04688Y04528*
Y04564*
X04706Y0451D02*
X04725D01*
X04715*
Y04564*
X04706Y04555*
X0606Y01469D02*
Y01415D01*
Y01442*
X06096*
Y01469*
Y01415*
X06114D02*
Y01469D01*
X06142*
X06151Y0146*
Y01442*
X06142Y01433*
X06114*
X06206Y01469D02*
X06169D01*
Y01442*
X06188Y01451*
X06197*
X06206Y01442*
Y01424*
X06197Y01415*
X06179*
X06169Y01424*
X06252Y01469D02*
X06234D01*
X06224Y0146*
Y01424*
X06234Y01415*
X06252*
X06261Y01424*
Y0146*
X06252Y01469*
X0606Y01644D02*
Y0159D01*
Y01617*
X06096*
Y01644*
Y0159*
X06114D02*
Y01644D01*
X06142*
X06151Y01635*
Y01617*
X06142Y01608*
X06114*
X06206Y01644D02*
X06169D01*
Y01617*
X06188Y01626*
X06197*
X06206Y01617*
Y01599*
X06197Y0159*
X06179*
X06169Y01599*
X06224Y01644D02*
X06243D01*
X06234*
Y0159*
X06224*
X06243*
X04819Y01493D02*
Y01439D01*
Y01466*
X04855*
Y01493*
Y01439*
X04873D02*
Y01493D01*
X04901*
X0491Y01484*
Y01466*
X04901Y01457*
X04873*
X04956Y01439D02*
Y01493D01*
X04928Y01466*
X04965*
X05011Y01493D02*
X04993D01*
X04983Y01484*
Y01448*
X04993Y01439*
X05011*
X0502Y01448*
Y01484*
X05011Y01493*
X04824Y01647D02*
Y01593D01*
Y0162*
X0486*
Y01647*
Y01593*
X04878D02*
Y01647D01*
X04906*
X04915Y01638*
Y0162*
X04906Y01611*
X04878*
X04961Y01593D02*
Y01647D01*
X04933Y0162*
X0497*
X04988Y01647D02*
X05007D01*
X04998*
Y01593*
X04988*
X05007*
X03592Y01483D02*
Y01429D01*
Y01456*
X03628*
Y01483*
Y01429*
X03646D02*
Y01483D01*
X03674*
X03683Y01474*
Y01456*
X03674Y01447*
X03646*
X03701Y01474D02*
X03711Y01483D01*
X03729*
X03738Y01474*
Y01465*
X03729Y01456*
X0372*
X03729*
X03738Y01447*
Y01438*
X03729Y01429*
X03711*
X03701Y01438*
X03784Y01483D02*
X03766D01*
X03756Y01474*
Y01438*
X03766Y01429*
X03784*
X03793Y01438*
Y01474*
X03784Y01483*
X03595Y01649D02*
Y01595D01*
Y01622*
X03631*
Y01649*
Y01595*
X03649D02*
Y01649D01*
X03677*
X03686Y0164*
Y01622*
X03677Y01613*
X03649*
X03704Y0164D02*
X03714Y01649D01*
X03732*
X03741Y0164*
Y01631*
X03732Y01622*
X03723*
X03732*
X03741Y01613*
Y01604*
X03732Y01595*
X03714*
X03704Y01604*
X03759Y01649D02*
X03778D01*
X03769*
Y01595*
X03759*
X03778*
X02356Y01479D02*
Y01425D01*
Y01452*
X02392*
Y01479*
Y01425*
X0241D02*
Y01479D01*
X02438*
X02447Y0147*
Y01452*
X02438Y01443*
X0241*
X02502Y01425D02*
X02465D01*
X02502Y01461*
Y0147*
X02493Y01479*
X02475*
X02465Y0147*
X02548Y01479D02*
X0253D01*
X0252Y0147*
Y01434*
X0253Y01425*
X02548*
X02557Y01434*
Y0147*
X02548Y01479*
X02361Y01649D02*
Y01595D01*
Y01622*
X02397*
Y01649*
Y01595*
X02415D02*
Y01649D01*
X02443*
X02452Y0164*
Y01622*
X02443Y01613*
X02415*
X02507Y01595D02*
X0247D01*
X02507Y01631*
Y0164*
X02498Y01649*
X0248*
X0247Y0164*
X02525Y01649D02*
X02544D01*
X02535*
Y01595*
X02525*
X02544*
X01131Y01481D02*
Y01427D01*
Y01454*
X01167*
Y01481*
Y01427*
X01185D02*
Y01481D01*
X01213*
X01222Y01472*
Y01454*
X01213Y01445*
X01185*
X0124Y01427D02*
X01259D01*
X0125*
Y01481*
X0124Y01472*
X01314Y01481D02*
X01295D01*
X01286Y01472*
Y01436*
X01295Y01427*
X01314*
X01323Y01436*
Y01472*
X01314Y01481*
X01128Y01645D02*
Y01591D01*
Y01618*
X01164*
Y01645*
Y01591*
X01182D02*
Y01645D01*
X0121*
X01219Y01636*
Y01618*
X0121Y01609*
X01182*
X01237Y01591D02*
X01256D01*
X01247*
Y01645*
X01237Y01636*
X01283Y01645D02*
X01302D01*
X01292*
Y01591*
X01283*
X01302*
X04821Y04689D02*
X04784D01*
Y04635*
X04821*
X04784Y04662D02*
X04802D01*
X04839Y04689D02*
Y04635D01*
X04867*
X04876Y04644*
Y0468*
X04867Y04689*
X04839*
X04894D02*
Y04653D01*
X04912Y04635*
X04931Y04653*
Y04689*
X04949Y04635D02*
X04967D01*
X04958*
Y04689*
X04949Y0468*
X04821Y04559D02*
X04785D01*
Y04505*
X04821*
X04785Y04532D02*
X04803D01*
X04839Y04505D02*
Y04541D01*
X04858Y04559*
X04876Y04541*
Y04505*
Y04532*
X04839*
X04894Y04559D02*
Y04523D01*
X04913Y04505*
X04931Y04523*
Y04559*
X04949Y04505D02*
X04968D01*
X04959*
Y04559*
X04949Y0455*
X04078Y02872D02*
X0406D01*
X04051Y02863*
Y02827*
X0406Y02818*
X04078*
X04087Y02827*
Y02863*
X04078Y02872*
X04105Y02818D02*
Y02872D01*
X04133*
X04142Y02863*
Y02845*
X04133Y02836*
X04105*
X0416Y02863D02*
X0417Y02872D01*
X04188*
X04197Y02863*
Y02854*
X04188Y02845*
X04179*
X04188*
X04197Y02836*
Y02827*
X04188Y02818*
X0417*
X0416Y02827*
X05363Y02852D02*
X05345D01*
X05336Y02843*
Y02807*
X05345Y02798*
X05363*
X05372Y02807*
Y02843*
X05363Y02852*
X0539Y02798D02*
Y02852D01*
X05418*
X05427Y02843*
Y02825*
X05418Y02816*
X0539*
X05473Y02798D02*
Y02852D01*
X05445Y02825*
X05482*
X03186Y02306D02*
Y0236D01*
X03213*
X03222Y02351*
Y02333*
X03213Y02324*
X03186*
X03204D02*
X03222Y02306D01*
X0324D02*
Y0236D01*
X03268*
X03277Y02351*
Y02333*
X03268Y02324*
X0324*
X03332Y02306D02*
X03295D01*
X03332Y02342*
Y02351*
X03323Y0236*
X03305*
X03295Y02351*
X03387Y02306D02*
X0335D01*
X03387Y02342*
Y02351*
X03378Y0236*
X0336*
X0335Y02351*
X02906Y02306D02*
Y0236D01*
X02933*
X02942Y02351*
Y02333*
X02933Y02324*
X02906*
X02924D02*
X02942Y02306D01*
X0296D02*
Y0236D01*
X02988*
X02997Y02351*
Y02333*
X02988Y02324*
X0296*
X03052Y02306D02*
X03015D01*
X03052Y02342*
Y02351*
X03043Y0236*
X03025*
X03015Y02351*
X0307Y02306D02*
X03089D01*
X0308*
Y0236*
X0307Y02351*
X02466Y02098D02*
Y02152D01*
X02493*
X02502Y02143*
Y02125*
X02493Y02116*
X02466*
X02484D02*
X02502Y02098D01*
X0252D02*
X02539D01*
X0253*
Y02152*
X0252Y02143*
X02566Y02098D02*
X02585D01*
X02575*
Y02152*
X02566Y02143*
X02431Y02287D02*
Y02341D01*
X02458*
X02467Y02332*
Y02314*
X02458Y02305*
X02431*
X02449D02*
X02467Y02287D01*
X02485D02*
X02504D01*
X02495*
Y02341*
X02485Y02332*
X02568Y02287D02*
X02531D01*
X02568Y02323*
Y02332*
X02559Y02341*
X0254*
X02531Y02332*
X02255Y021D02*
Y02154D01*
X02282*
X02291Y02145*
Y02127*
X02282Y02118*
X02255*
X02273D02*
X02291Y021D01*
X02309D02*
X02328D01*
X02319*
Y02154*
X02309Y02145*
X02355D02*
X02364Y02154D01*
X02383*
X02392Y02145*
Y02136*
X02383Y02127*
X02374*
X02383*
X02392Y02118*
Y02109*
X02383Y021*
X02364*
X02355Y02109*
X0443Y02306D02*
Y0236D01*
X04457*
X04466Y02351*
Y02333*
X04457Y02324*
X0443*
X04448D02*
X04466Y02306D01*
X04484D02*
Y0236D01*
X04512*
X04521Y02351*
Y02333*
X04512Y02324*
X04484*
X04539Y02351D02*
X04549Y0236D01*
X04567*
X04576Y02351*
Y02342*
X04567Y02333*
X04558*
X04567*
X04576Y02324*
Y02315*
X04567Y02306*
X04549*
X04539Y02315*
X04631Y02306D02*
X04594D01*
X04631Y02342*
Y02351*
X04622Y0236*
X04604*
X04594Y02351*
X04152Y02306D02*
Y0236D01*
X04179*
X04188Y02351*
Y02333*
X04179Y02324*
X04152*
X0417D02*
X04188Y02306D01*
X04206D02*
Y0236D01*
X04234*
X04243Y02351*
Y02333*
X04234Y02324*
X04206*
X04261Y02351D02*
X04271Y0236D01*
X04289*
X04298Y02351*
Y02342*
X04289Y02333*
X0428*
X04289*
X04298Y02324*
Y02315*
X04289Y02306*
X04271*
X04261Y02315*
X04316Y02306D02*
X04335D01*
X04326*
Y0236*
X04316Y02351*
X03696Y02099D02*
Y02153D01*
X03723*
X03732Y02144*
Y02126*
X03723Y02117*
X03696*
X03714D02*
X03732Y02099D01*
X0375D02*
X03769D01*
X0376*
Y02153*
X0375Y02144*
X03796Y02153D02*
X03833D01*
Y02144*
X03796Y02108*
Y02099*
X03691Y02275D02*
Y02329D01*
X03718*
X03727Y0232*
Y02302*
X03718Y02293*
X03691*
X03709D02*
X03727Y02275D01*
X03745D02*
X03764D01*
X03755*
Y02329*
X03745Y0232*
X03791D02*
X038Y02329D01*
X03819*
X03828Y0232*
Y02311*
X03819Y02302*
X03828Y02293*
Y02284*
X03819Y02275*
X038*
X03791Y02284*
Y02293*
X038Y02302*
X03791Y02311*
Y0232*
X038Y02302D02*
X03819D01*
X03496Y02099D02*
Y02153D01*
X03523*
X03532Y02144*
Y02126*
X03523Y02117*
X03496*
X03514D02*
X03532Y02099D01*
X0355D02*
X03569D01*
X0356*
Y02153*
X0355Y02144*
X03596Y02108D02*
X03605Y02099D01*
X03624*
X03633Y02108*
Y02144*
X03624Y02153*
X03605*
X03596Y02144*
Y02135*
X03605Y02126*
X03633*
X05676Y02301D02*
Y02355D01*
X05703*
X05712Y02346*
Y02328*
X05703Y02319*
X05676*
X05694D02*
X05712Y02301D01*
X0573D02*
Y02355D01*
X05758*
X05767Y02346*
Y02328*
X05758Y02319*
X0573*
X05813Y02301D02*
Y02355D01*
X05785Y02328*
X05822*
X05877Y02301D02*
X0584D01*
X05877Y02337*
Y02346*
X05868Y02355*
X0585*
X0584Y02346*
X05401Y02301D02*
Y02355D01*
X05428*
X05437Y02346*
Y02328*
X05428Y02319*
X05401*
X05419D02*
X05437Y02301D01*
X05455D02*
Y02355D01*
X05483*
X05492Y02346*
Y02328*
X05483Y02319*
X05455*
X05538Y02301D02*
Y02355D01*
X0551Y02328*
X05547*
X05565Y02301D02*
X05584D01*
X05575*
Y02355*
X05565Y02346*
X04961Y02099D02*
Y02153D01*
X04988*
X04997Y02144*
Y02126*
X04988Y02117*
X04961*
X04979D02*
X04997Y02099D01*
X05052D02*
X05015D01*
X05052Y02135*
Y02144*
X05043Y02153*
X05025*
X05015Y02144*
X0507D02*
X0508Y02153D01*
X05098*
X05107Y02144*
Y02135*
X05098Y02126*
X05089*
X05098*
X05107Y02117*
Y02108*
X05098Y02099*
X0508*
X0507Y02108*
X04965Y02282D02*
Y02336D01*
X04992*
X05001Y02327*
Y02309*
X04992Y023*
X04965*
X04983D02*
X05001Y02282D01*
X05056D02*
X05019D01*
X05056Y02318*
Y02327*
X05047Y02336*
X05029*
X05019Y02327*
X05102Y02282D02*
Y02336D01*
X05074Y02309*
X05111*
X04756Y02099D02*
Y02153D01*
X04783*
X04792Y02144*
Y02126*
X04783Y02117*
X04756*
X04774D02*
X04792Y02099D01*
X04847D02*
X0481D01*
X04847Y02135*
Y02144*
X04838Y02153*
X0482*
X0481Y02144*
X04902Y02153D02*
X04865D01*
Y02126*
X04884Y02135*
X04893*
X04902Y02126*
Y02108*
X04893Y02099*
X04875*
X04865Y02108*
X06918Y02301D02*
Y02355D01*
X06945*
X06954Y02346*
Y02328*
X06945Y02319*
X06918*
X06936D02*
X06954Y02301D01*
X06972D02*
Y02355D01*
X07*
X07009Y02346*
Y02328*
X07Y02319*
X06972*
X07064Y02355D02*
X07027D01*
Y02328*
X07046Y02337*
X07055*
X07064Y02328*
Y0231*
X07055Y02301*
X07037*
X07027Y0231*
X07119Y02301D02*
X07082D01*
X07119Y02337*
Y02346*
X0711Y02355*
X07092*
X07082Y02346*
X06646Y02301D02*
Y02355D01*
X06673*
X06682Y02346*
Y02328*
X06673Y02319*
X06646*
X06664D02*
X06682Y02301D01*
X067D02*
Y02355D01*
X06728*
X06737Y02346*
Y02328*
X06728Y02319*
X067*
X06792Y02355D02*
X06755D01*
Y02328*
X06774Y02337*
X06783*
X06792Y02328*
Y0231*
X06783Y02301*
X06765*
X06755Y0231*
X0681Y02301D02*
X06829D01*
X0682*
Y02355*
X0681Y02346*
X06195Y02099D02*
Y02153D01*
X06223*
X06232Y02144*
Y02126*
X06223Y02117*
X06195*
X06213D02*
X06232Y02099D01*
X06287D02*
X0625D01*
X06287Y02135*
Y02144*
X06278Y02153*
X06259*
X0625Y02144*
X06305Y02108D02*
X06314Y02099D01*
X06332*
X06342Y02108*
Y02144*
X06332Y02153*
X06314*
X06305Y02144*
Y02135*
X06314Y02126*
X06342*
X06196Y02289D02*
Y02343D01*
X06223*
X06232Y02334*
Y02316*
X06223Y02307*
X06196*
X06214D02*
X06232Y02289D01*
X0625Y02334D02*
X0626Y02343D01*
X06278*
X06287Y02334*
Y02325*
X06278Y02316*
X06269*
X06278*
X06287Y02307*
Y02298*
X06278Y02289*
X0626*
X0625Y02298*
X06305Y02334D02*
X06315Y02343D01*
X06333*
X06342Y02334*
Y02298*
X06333Y02289*
X06315*
X06305Y02298*
Y02334*
X05971Y02099D02*
Y02153D01*
X05998*
X06007Y02144*
Y02126*
X05998Y02117*
X05971*
X05989D02*
X06007Y02099D01*
X06025Y02144D02*
X06035Y02153D01*
X06053*
X06062Y02144*
Y02135*
X06053Y02126*
X06044*
X06053*
X06062Y02117*
Y02108*
X06053Y02099*
X06035*
X06025Y02108*
X0608Y02099D02*
X06099D01*
X0609*
Y02153*
X0608Y02144*
X02292Y01954D02*
X02283Y01963D01*
X02265*
X02256Y01954*
Y01918*
X02265Y01909*
X02283*
X02292Y01918*
X0231Y01909D02*
X02329D01*
X0232*
Y01963*
X0231Y01954*
X02393Y01909D02*
X02356D01*
X02393Y01945*
Y01954*
X02384Y01963*
X02365*
X02356Y01954*
X02268Y02344D02*
X02259Y02353D01*
X02241*
X02232Y02344*
Y02308*
X02241Y02299*
X02259*
X02268Y02308*
X02286Y02299D02*
X02305D01*
X02296*
Y02353*
X02286Y02344*
X02332D02*
X02341Y02353D01*
X0236*
X02369Y02344*
Y02335*
X0236Y02326*
X02351*
X0236*
X02369Y02317*
Y02308*
X0236Y02299*
X02341*
X02332Y02308*
X02493Y01963D02*
X02484Y01972D01*
X02466*
X02457Y01963*
Y01927*
X02466Y01918*
X02484*
X02493Y01927*
X02511Y01918D02*
X0253D01*
X02521*
Y01972*
X02511Y01963*
X02585Y01918D02*
Y01972D01*
X02557Y01945*
X02594*
X03532Y01954D02*
X03523Y01963D01*
X03505*
X03496Y01954*
Y01918*
X03505Y01909*
X03523*
X03532Y01918*
X0355Y01909D02*
X03569D01*
X0356*
Y01963*
X0355Y01954*
X03633Y01963D02*
X03596D01*
Y01936*
X03615Y01945*
X03624*
X03633Y01936*
Y01918*
X03624Y01909*
X03605*
X03596Y01918*
X03513Y02341D02*
X03504Y0235D01*
X03486*
X03477Y02341*
Y02305*
X03486Y02296*
X03504*
X03513Y02305*
X03531Y02296D02*
X0355D01*
X03541*
Y0235*
X03531Y02341*
X03614Y0235D02*
X03596Y02341D01*
X03577Y02323*
Y02305*
X03586Y02296*
X03605*
X03614Y02305*
Y02314*
X03605Y02323*
X03577*
X03732Y01954D02*
X03723Y01963D01*
X03705*
X03696Y01954*
Y01918*
X03705Y01909*
X03723*
X03732Y01918*
X0375Y01909D02*
X03769D01*
X0376*
Y01963*
X0375Y01954*
X03796Y01963D02*
X03833D01*
Y01954*
X03796Y01918*
Y01909*
X04792Y01954D02*
X04783Y01963D01*
X04765*
X04756Y01954*
Y01918*
X04765Y01909*
X04783*
X04792Y01918*
X0481Y01909D02*
X04829D01*
X0482*
Y01963*
X0481Y01954*
X04856D02*
X04865Y01963D01*
X04884*
X04893Y01954*
Y01945*
X04884Y01936*
X04893Y01927*
Y01918*
X04884Y01909*
X04865*
X04856Y01918*
Y01927*
X04865Y01936*
X04856Y01945*
Y01954*
X04865Y01936D02*
X04884D01*
X04792Y02334D02*
X04783Y02343D01*
X04765*
X04756Y02334*
Y02298*
X04765Y02289*
X04783*
X04792Y02298*
X0481Y02289D02*
X04829D01*
X0482*
Y02343*
X0481Y02334*
X04856Y02298D02*
X04865Y02289D01*
X04884*
X04893Y02298*
Y02334*
X04884Y02343*
X04865*
X04856Y02334*
Y02325*
X04865Y02316*
X04893*
X04995Y01966D02*
X04986Y01975D01*
X04968*
X04959Y01966*
Y0193*
X04968Y01921*
X04986*
X04995Y0193*
X0505Y01921D02*
X05013D01*
X0505Y01957*
Y01966*
X05041Y01975*
X05023*
X05013Y01966*
X05068D02*
X05078Y01975D01*
X05096*
X05105Y01966*
Y0193*
X05096Y01921*
X05078*
X05068Y0193*
Y01966*
X06007Y01954D02*
X05998Y01963D01*
X0598*
X05971Y01954*
Y01918*
X0598Y01909*
X05998*
X06007Y01918*
X06062Y01909D02*
X06025D01*
X06062Y01945*
Y01954*
X06053Y01963*
X06035*
X06025Y01954*
X0608Y01909D02*
X06099D01*
X0609*
Y01963*
X0608Y01954*
X06007Y02334D02*
X05998Y02343D01*
X0598*
X05971Y02334*
Y02298*
X0598Y02289*
X05998*
X06007Y02298*
X06062Y02289D02*
X06025D01*
X06062Y02325*
Y02334*
X06053Y02343*
X06035*
X06025Y02334*
X06117Y02289D02*
X0608D01*
X06117Y02325*
Y02334*
X06108Y02343*
X0609*
X0608Y02334*
X06232Y01954D02*
X06223Y01963D01*
X06205*
X06196Y01954*
Y01918*
X06205Y01909*
X06223*
X06232Y01918*
X06287Y01909D02*
X0625D01*
X06287Y01945*
Y01954*
X06278Y01963*
X0626*
X0625Y01954*
X06305D02*
X06315Y01963D01*
X06333*
X06342Y01954*
Y01945*
X06333Y01936*
X06324*
X06333*
X06342Y01927*
Y01918*
X06333Y01909*
X06315*
X06305Y01918*
X01433Y02882D02*
X01415D01*
X01406Y02873*
Y02837*
X01415Y02828*
X01433*
X01442Y02837*
Y02873*
X01433Y02882*
X0146Y02828D02*
Y02882D01*
X01488*
X01497Y02873*
Y02855*
X01488Y02846*
X0146*
X01515Y02828D02*
X01534D01*
X01525*
Y02882*
X01515Y02873*
X01071Y02099D02*
Y02153D01*
X01098*
X01107Y02144*
Y02126*
X01098Y02117*
X01071*
X01089D02*
X01107Y02099D01*
X01125Y02153D02*
X01162D01*
Y02144*
X01125Y02108*
Y02099*
X01249Y02307D02*
Y02361D01*
X01276*
X01285Y02352*
Y02334*
X01276Y02325*
X01249*
X01267D02*
X01285Y02307D01*
X0134Y02361D02*
X01303D01*
Y02334*
X01322Y02343*
X01331*
X0134Y02334*
Y02316*
X01331Y02307*
X01313*
X01303Y02316*
X01225Y02095D02*
Y02149D01*
X01252*
X01261Y0214*
Y02122*
X01252Y02113*
X01225*
X01243D02*
X01261Y02095D01*
X01307D02*
Y02149D01*
X01279Y02122*
X01316*
X01938Y02306D02*
Y0236D01*
X01965*
X01974Y02351*
Y02333*
X01965Y02324*
X01938*
X01956D02*
X01974Y02306D01*
X01992D02*
Y0236D01*
X0202*
X02029Y02351*
Y02333*
X0202Y02324*
X01992*
X02047Y02306D02*
X02066D01*
X02057*
Y0236*
X02047Y02351*
X0213Y02306D02*
X02093D01*
X0213Y02342*
Y02351*
X02121Y0236*
X02102*
X02093Y02351*
X01665Y02305D02*
Y02359D01*
X01692*
X01701Y0235*
Y02332*
X01692Y02323*
X01665*
X01683D02*
X01701Y02305D01*
X01719D02*
Y02359D01*
X01747*
X01756Y0235*
Y02332*
X01747Y02323*
X01719*
X01774Y02305D02*
X01793D01*
X01784*
Y02359*
X01774Y0235*
X0182Y02305D02*
X01839D01*
X01829*
Y02359*
X0182Y0235*
X01267Y01954D02*
X01258Y01963D01*
X0124*
X01231Y01954*
Y01918*
X0124Y01909*
X01258*
X01267Y01918*
X01285Y01909D02*
X01304D01*
X01295*
Y01963*
X01285Y01954*
X01331Y01909D02*
X0135D01*
X0134*
Y01963*
X01331Y01954*
X0109Y02355D02*
X01081Y02364D01*
X01063*
X01054Y02355*
Y02319*
X01063Y0231*
X01081*
X0109Y02319*
X01108Y0231D02*
X01127D01*
X01118*
Y02364*
X01108Y02355*
X01154D02*
X01163Y02364D01*
X01182*
X01191Y02355*
Y02319*
X01182Y0231*
X01163*
X01154Y02319*
Y02355*
X01107Y01954D02*
X01098Y01963D01*
X0108*
X01071Y01954*
Y01918*
X0108Y01909*
X01098*
X01107Y01918*
X01125D02*
X01135Y01909D01*
X01153*
X01162Y01918*
Y01954*
X01153Y01963*
X01135*
X01125Y01954*
Y01945*
X01135Y01936*
X01162*
X01821Y04749D02*
Y04803D01*
X01848*
X01857Y04794*
Y04776*
X01848Y04767*
X01821*
X01912Y04794D02*
X01903Y04803D01*
X01885*
X01875Y04794*
Y04758*
X01885Y04749*
X01903*
X01912Y04758*
X0193Y04749D02*
X01949D01*
X0194*
Y04803*
X0193Y04794*
X01915Y04465D02*
Y04519D01*
X01942*
X01951Y0451*
Y04492*
X01942Y04483*
X01915*
X01969Y04465D02*
Y04519D01*
X01988Y04501*
X02006Y04519*
Y04465*
X02024D02*
X02043D01*
X02034*
Y04519*
X02024Y0451*
X03886Y04474D02*
Y04528D01*
X03913*
X03922Y04519*
Y04501*
X03913Y04492*
X03886*
X0394Y04474D02*
Y04528D01*
X03959Y0451*
X03977Y04528*
Y04474*
X04032D02*
X03995D01*
X04032Y0451*
Y04519*
X04023Y04528*
X04005*
X03995Y04519*
X02332Y03614D02*
X02323Y03623D01*
X02305*
X02296Y03614*
Y03578*
X02305Y03569*
X02323*
X02332Y03578*
X0235Y03569D02*
X02369D01*
X0236*
Y03623*
X0235Y03614*
X01255Y03779D02*
X01246Y03788D01*
X01227*
X01218Y03779*
Y03743*
X01227Y03734*
X01246*
X01255Y03743*
X01301Y03734D02*
Y03788D01*
X01273Y03761*
X0131*
X01402Y03779D02*
X01393Y03788D01*
X01375*
X01366Y03779*
Y03743*
X01375Y03734*
X01393*
X01402Y03743*
X01457Y03788D02*
X01421D01*
Y03761*
X01439Y0377*
X01448*
X01457Y03761*
Y03743*
X01448Y03734*
X0143*
X01421Y03743*
X04481Y03763D02*
X04472Y03772D01*
X04454*
X04445Y03763*
Y03726*
X04454Y03717*
X04472*
X04481Y03726*
X04536Y03772D02*
X04518Y03763D01*
X04499Y03744*
Y03726*
X04509Y03717*
X04527*
X04536Y03726*
Y03735*
X04527Y03744*
X04499*
X04842Y03343D02*
X04837Y03338D01*
Y03329*
X04842Y03324*
X04862*
X04867Y03329*
Y03338*
X04862Y03343*
X04867Y03353D02*
Y03363D01*
Y03358*
X04837*
X04842Y03353*
Y03378D02*
X04837Y03383D01*
Y03393*
X04842Y03398*
X04862*
X04867Y03393*
Y03383*
X04862Y03378*
X04842*
Y03408D02*
X04837Y03413D01*
Y03423*
X04842Y03428*
X04862*
X04867Y03423*
Y03413*
X04862Y03408*
X04842*
X05113Y03337D02*
X05108Y03332D01*
Y03323*
X05113Y03318*
X05133*
X05138Y03323*
Y03332*
X05133Y03337*
X05138Y03347D02*
Y03357D01*
Y03352*
X05108*
X05113Y03347*
Y03372D02*
X05108Y03377D01*
Y03387*
X05113Y03392*
X05133*
X05138Y03387*
Y03377*
X05133Y03372*
X05113*
X05138Y03422D02*
Y03402D01*
X05118Y03422*
X05113*
X05108Y03417*
Y03407*
X05113Y03402*
X02631Y04435D02*
X02622Y04444D01*
X02604*
X02595Y04435*
Y04399*
X02604Y0439*
X02622*
X02631Y04399*
X02649Y0439D02*
X02668D01*
X02659*
Y04444*
X02649Y04435*
X02695D02*
X02704Y04444D01*
X02723*
X02732Y04435*
Y04399*
X02723Y0439*
X02704*
X02695Y04399*
Y04435*
X0275D02*
X02759Y04444D01*
X02778*
X02787Y04435*
Y04426*
X02778Y04417*
X02769*
X02778*
X02787Y04408*
Y04399*
X02778Y0439*
X02759*
X0275Y04399*
X02891Y04435D02*
X02882Y04444D01*
X02864*
X02855Y04435*
Y04399*
X02864Y0439*
X02882*
X02891Y04399*
X02909Y0439D02*
X02928D01*
X02919*
Y04444*
X02909Y04435*
X02955D02*
X02964Y04444D01*
X02983*
X02992Y04435*
Y04399*
X02983Y0439*
X02964*
X02955Y04399*
Y04435*
X03038Y0439D02*
Y04444D01*
X0301Y04417*
X03047*
X02631Y0429D02*
X02622Y04299D01*
X02604*
X02595Y0429*
Y04254*
X02604Y04245*
X02622*
X02631Y04254*
X02649Y04245D02*
X02668D01*
X02659*
Y04299*
X02649Y0429*
X02695D02*
X02704Y04299D01*
X02723*
X02732Y0429*
Y04254*
X02723Y04245*
X02704*
X02695Y04254*
Y0429*
X02787Y04299D02*
X0275D01*
Y04272*
X02769Y04281*
X02778*
X02787Y04272*
Y04254*
X02778Y04245*
X02759*
X0275Y04254*
X05744Y04512D02*
X05739Y04517D01*
X0573*
X05725Y04512*
Y04493*
X0573Y04488*
X05739*
X05744Y04493*
X05754Y04488D02*
X05764D01*
X05759*
Y04517*
X05754Y04512*
X05779D02*
X05784Y04517D01*
X05794*
X05799Y04512*
Y04493*
X05794Y04488*
X05784*
X05779Y04493*
Y04512*
X05829Y04517D02*
X05819Y04512D01*
X05809Y04503*
Y04493*
X05814Y04488*
X05824*
X05829Y04493*
Y04498*
X05824Y04503*
X05809*
X05744Y04374D02*
X0574Y04379D01*
X0573*
X05725Y04374*
Y04355*
X0573Y0435*
X0574*
X05744Y04355*
X05754Y0435D02*
X05764D01*
X05759*
Y04379*
X05754Y04374*
X05779D02*
X05784Y04379D01*
X05794*
X05799Y04374*
Y04355*
X05794Y0435*
X05784*
X05779Y04355*
Y04374*
X05809Y04379D02*
X05829D01*
Y04374*
X05809Y04355*
Y0435*
X05744Y04236D02*
X05739Y04241D01*
X0573*
X05725Y04236*
Y04217*
X0573Y04212*
X05739*
X05744Y04217*
X05754Y04212D02*
X05764D01*
X05759*
Y04241*
X05754Y04236*
X05779D02*
X05784Y04241D01*
X05794*
X05799Y04236*
Y04217*
X05794Y04212*
X05784*
X05779Y04217*
Y04236*
X05809D02*
X05814Y04241D01*
X05824*
X05829Y04236*
Y04231*
X05824Y04226*
X05829Y04222*
Y04217*
X05824Y04212*
X05814*
X05809Y04217*
Y04222*
X05814Y04226*
X05809Y04231*
Y04236*
X05814Y04226D02*
X05824D01*
X03474Y0429D02*
X03465Y04299D01*
X03447*
X03438Y0429*
Y04254*
X03447Y04245*
X03465*
X03474Y04254*
X03492Y04245D02*
X03511D01*
X03502*
Y04299*
X03492Y0429*
X03538D02*
X03547Y04299D01*
X03566*
X03575Y0429*
Y04254*
X03566Y04245*
X03547*
X03538Y04254*
Y0429*
X03593Y04254D02*
X03602Y04245D01*
X03621*
X0363Y04254*
Y0429*
X03621Y04299*
X03602*
X03593Y0429*
Y04281*
X03602Y04272*
X0363*
X03182Y04514D02*
X03173Y04523D01*
X03155*
X03146Y04514*
Y04478*
X03155Y04469*
X03173*
X03182Y04478*
X032Y04469D02*
X03219D01*
X0321*
Y04523*
X032Y04514*
X03246Y04469D02*
X03265D01*
X03255*
Y04523*
X03246Y04514*
X03292D02*
X03301Y04523D01*
X0332*
X03329Y04514*
Y04478*
X0332Y04469*
X03301*
X03292Y04478*
Y04514*
X03471Y04435D02*
X03462Y04444D01*
X03444*
X03435Y04435*
Y04399*
X03444Y0439*
X03462*
X03471Y04399*
X03489Y0439D02*
X03508D01*
X03499*
Y04444*
X03489Y04435*
X03535Y0439D02*
X03554D01*
X03544*
Y04444*
X03535Y04435*
X03581Y0439D02*
X03599D01*
X0359*
Y04444*
X03581Y04435*
X03181Y03155D02*
X03172Y03164D01*
X03154*
X03145Y03155*
Y03119*
X03154Y0311*
X03172*
X03181Y03119*
X03199Y0311D02*
X03218D01*
X03209*
Y03164*
X03199Y03155*
X03245Y0311D02*
X03264D01*
X03254*
Y03164*
X03245Y03155*
X03328Y0311D02*
X03291D01*
X03328Y03146*
Y03155*
X03319Y03164*
X033*
X03291Y03155*
X02514Y03158D02*
X02505Y03167D01*
X02487*
X02478Y03158*
Y03122*
X02487Y03113*
X02505*
X02514Y03122*
X02532Y03113D02*
X02551D01*
X02542*
Y03167*
X02532Y03158*
X02578Y03113D02*
X02597D01*
X02587*
Y03167*
X02578Y03158*
X02624D02*
X02633Y03167D01*
X02652*
X02661Y03158*
Y03149*
X02652Y0314*
X02642*
X02652*
X02661Y03131*
Y03122*
X02652Y03113*
X02633*
X02624Y03122*
X02516Y03305D02*
X02507Y03314D01*
X02489*
X0248Y03305*
Y03269*
X02489Y0326*
X02507*
X02516Y03269*
X02534Y0326D02*
X02553D01*
X02544*
Y03314*
X02534Y03305*
X0258Y0326D02*
X02599D01*
X02589*
Y03314*
X0258Y03305*
X02654Y0326D02*
Y03314D01*
X02626Y03287*
X02663*
X03172Y0439D02*
X03163Y04399D01*
X03145*
X03136Y0439*
Y04354*
X03145Y04345*
X03163*
X03172Y04354*
X0319Y04345D02*
X03209D01*
X032*
Y04399*
X0319Y0439*
X03236Y04345D02*
X03255D01*
X03245*
Y04399*
X03236Y0439*
X03319Y04399D02*
X03282D01*
Y04372*
X033Y04381*
X0331*
X03319Y04372*
Y04354*
X0331Y04345*
X03291*
X03282Y04354*
X02341Y0428D02*
X02332Y04289D01*
X02314*
X02305Y0428*
Y04244*
X02314Y04235*
X02332*
X02341Y04244*
X02359Y04235D02*
X02378D01*
X02369*
Y04289*
X02359Y0428*
X02405Y04235D02*
X02424D01*
X02414*
Y04289*
X02405Y0428*
X02488Y04289D02*
X02469Y0428D01*
X02451Y04262*
Y04244*
X0246Y04235*
X02479*
X02488Y04244*
Y04253*
X02479Y04262*
X02451*
X03481Y03934D02*
X03472Y03943D01*
X03454*
X03445Y03934*
Y03897*
X03454Y03888*
X03472*
X03481Y03897*
X03499Y03888D02*
X03518D01*
X03509*
Y03943*
X03499Y03934*
X03545Y03888D02*
X03564D01*
X03554*
Y03943*
X03545Y03934*
X03591Y03943D02*
X03628D01*
Y03934*
X03591Y03897*
Y03888*
X03185Y03936D02*
X03176Y03945D01*
X03158*
X03149Y03936*
Y039*
X03158Y03891*
X03176*
X03185Y039*
X03203Y03891D02*
X03222D01*
X03213*
Y03945*
X03203Y03936*
X03249Y03891D02*
X03268D01*
X03258*
Y03945*
X03249Y03936*
X03295D02*
X03304Y03945D01*
X03323*
X03332Y03936*
Y03927*
X03323Y03918*
X03332Y03909*
Y039*
X03323Y03891*
X03304*
X03295Y039*
Y03909*
X03304Y03918*
X03295Y03927*
Y03936*
X03304Y03918D02*
X03323D01*
X03476Y0377D02*
X03467Y03779D01*
X03449*
X0344Y0377*
Y03734*
X03449Y03725*
X03467*
X03476Y03734*
X03494Y03725D02*
X03513D01*
X03504*
Y03779*
X03494Y0377*
X0354Y03725D02*
X03559D01*
X03549*
Y03779*
X0354Y0377*
X03586Y03734D02*
X03595Y03725D01*
X03614*
X03623Y03734*
Y0377*
X03614Y03779*
X03595*
X03586Y0377*
Y03761*
X03595Y03752*
X03623*
X02891Y0348D02*
X02882Y03489D01*
X02864*
X02855Y0348*
Y03444*
X02864Y03435*
X02882*
X02891Y03444*
X02909Y03435D02*
X02928D01*
X02919*
Y03489*
X02909Y0348*
X02992Y03435D02*
X02955D01*
X02992Y03471*
Y0348*
X02983Y03489*
X02964*
X02955Y0348*
X0301D02*
X03019Y03489D01*
X03038*
X03047Y0348*
Y03444*
X03038Y03435*
X03019*
X0301Y03444*
Y0348*
X02883Y03631D02*
X02874Y0364D01*
X02856*
X02847Y03631*
Y03595*
X02856Y03586*
X02874*
X02883Y03595*
X02901Y03586D02*
X0292D01*
X02911*
Y0364*
X02901Y03631*
X02984Y03586D02*
X02947D01*
X02984Y03622*
Y03631*
X02975Y0364*
X02956*
X02947Y03631*
X03002Y03586D02*
X03021D01*
X03011*
Y0364*
X03002Y03631*
X03181Y03615D02*
X03172Y03624D01*
X03154*
X03144Y03615*
Y03579*
X03154Y0357*
X03172*
X03181Y03579*
X03199Y0357D02*
X03218D01*
X03209*
Y03624*
X03199Y03615*
X03282Y0357D02*
X03245D01*
X03282Y03606*
Y03615*
X03273Y03624*
X03254*
X03245Y03615*
X03337Y0357D02*
X033D01*
X03337Y03606*
Y03615*
X03328Y03624*
X03309*
X033Y03615*
X03186Y0347D02*
X03177Y03479D01*
X03159*
X0315Y0347*
Y03434*
X03159Y03425*
X03177*
X03186Y03434*
X03204Y03425D02*
X03223D01*
X03214*
Y03479*
X03204Y0347*
X03287Y03425D02*
X0325D01*
X03287Y03461*
Y0347*
X03278Y03479*
X03259*
X0325Y0347*
X03342Y03479D02*
X03305D01*
Y03452*
X03324Y03461*
X03333*
X03342Y03452*
Y03434*
X03333Y03425*
X03314*
X03305Y03434*
X03934Y0312D02*
X03925Y03129D01*
X03906*
X03897Y0312*
Y03084*
X03906Y03075*
X03925*
X03934Y03084*
X03952Y03075D02*
X0397D01*
X03961*
Y03129*
X03952Y0312*
X04035Y03075D02*
X03998D01*
X04035Y03111*
Y0312*
X04025Y03129*
X04007*
X03998Y0312*
X0409Y03129D02*
X04071Y0312D01*
X04053Y03102*
Y03084*
X04062Y03075*
X0408*
X0409Y03084*
Y03093*
X0408Y03102*
X04053*
X03931Y0329D02*
X03922Y03299D01*
X03904*
X03895Y0329*
Y03254*
X03904Y03245*
X03922*
X03931Y03254*
X03949Y03245D02*
X03968D01*
X03959*
Y03299*
X03949Y0329*
X04032Y03245D02*
X03995D01*
X04032Y03281*
Y0329*
X04023Y03299*
X04004*
X03995Y0329*
X0405Y03299D02*
X04087D01*
Y0329*
X0405Y03254*
Y03245*
X03691Y032D02*
X03682Y03209D01*
X03664*
X03655Y032*
Y03164*
X03664Y03155*
X03682*
X03691Y03164*
X03709Y03155D02*
X03728D01*
X03719*
Y03209*
X03709Y032*
X03792Y03155D02*
X03755D01*
X03792Y03191*
Y032*
X03783Y03209*
X03764*
X03755Y032*
X0381Y03164D02*
X03819Y03155D01*
X03838*
X03847Y03164*
Y032*
X03838Y03209*
X03819*
X0381Y032*
Y03191*
X03819Y03182*
X03847*
X02211Y03136D02*
X02207Y03141D01*
X02197*
X02192Y03136*
Y03117*
X02197Y03112*
X02207*
X02211Y03117*
X02241Y03112D02*
X02221D01*
X02241Y03131*
Y03136*
X02236Y03141*
X02226*
X02221Y03136*
X02251D02*
X02256Y03141D01*
X02266*
X02271Y03136*
Y03117*
X02266Y03112*
X02256*
X02251Y03117*
Y03136*
X02281D02*
X02286Y03141D01*
X02296*
X02301Y03136*
Y03117*
X02296Y03112*
X02286*
X02281Y03117*
Y03136*
X0222Y03276D02*
X02216Y03281D01*
X02206*
X02201Y03276*
Y03257*
X02206Y03252*
X02216*
X0222Y03257*
X0225Y03252D02*
X0223D01*
X0225Y03271*
Y03276*
X02245Y03281*
X02235*
X0223Y03276*
X0226D02*
X02265Y03281D01*
X02275*
X0228Y03276*
Y03257*
X02275Y03252*
X02265*
X0226Y03257*
Y03276*
X0229Y03252D02*
X023D01*
X02295*
Y03281*
X0229Y03276*
X02214Y03392D02*
X0221Y03397D01*
X022*
X02195Y03392*
Y03373*
X022Y03368*
X0221*
X02214Y03373*
X02244Y03368D02*
X02224D01*
X02244Y03387*
Y03392*
X02239Y03397*
X02229*
X02224Y03392*
X02254D02*
X02259Y03397D01*
X02269*
X02274Y03392*
Y03373*
X02269Y03368*
X02259*
X02254Y03373*
Y03392*
X02304Y03368D02*
X02284D01*
X02304Y03387*
Y03392*
X02299Y03397*
X02289*
X02284Y03392*
X05211Y04281D02*
X05202Y0429D01*
X05184*
X05175Y04281*
Y04245*
X05184Y04236*
X05202*
X05211Y04245*
X05266Y04236D02*
X05229D01*
X05266Y04272*
Y04281*
X05257Y0429*
X05239*
X05229Y04281*
X05284D02*
X05294Y0429D01*
X05312*
X05321Y04281*
Y04245*
X05312Y04236*
X05294*
X05284Y04245*
Y04281*
X05339D02*
X05349Y0429D01*
X05367*
X05376Y04281*
Y04272*
X05367Y04263*
X05358*
X05367*
X05376Y04254*
Y04245*
X05367Y04236*
X05349*
X05339Y04245*
X04973Y04285D02*
X04964Y04294D01*
X04946*
X04936Y04285*
Y04249*
X04946Y0424*
X04964*
X04973Y04249*
X05028Y0424D02*
X04991D01*
X05028Y04276*
Y04285*
X05019Y04294*
X05001*
X04991Y04285*
X05046D02*
X05056Y04294D01*
X05074*
X05083Y04285*
Y04249*
X05074Y0424*
X05056*
X05046Y04249*
Y04285*
X05129Y0424D02*
Y04294D01*
X05101Y04267*
X05138*
X05211Y04085D02*
X05202Y04094D01*
X05184*
X05175Y04085*
Y04049*
X05184Y0404*
X05202*
X05211Y04049*
X05266Y0404D02*
X05229D01*
X05266Y04076*
Y04085*
X05257Y04094*
X05239*
X05229Y04085*
X05284D02*
X05294Y04094D01*
X05312*
X05321Y04085*
Y04049*
X05312Y0404*
X05294*
X05284Y04049*
Y04085*
X05376Y04094D02*
X05339D01*
Y04067*
X05358Y04076*
X05367*
X05376Y04067*
Y04049*
X05367Y0404*
X05349*
X05339Y04049*
X02585Y04507D02*
X0258Y04503D01*
Y04493*
X02585Y04488*
X02605*
X0261Y04493*
Y04503*
X02605Y04507*
X0261Y04537D02*
Y04517D01*
X0259Y04537*
X02585*
X0258Y04532*
Y04522*
X02585Y04517*
Y04547D02*
X0258Y04552D01*
Y04562*
X02585Y04567*
X02605*
X0261Y04562*
Y04552*
X02605Y04547*
X02585*
X0258Y04597D02*
X02585Y04587D01*
X02595Y04577*
X02605*
X0261Y04582*
Y04592*
X02605Y04597*
X026*
X02595Y04592*
Y04577*
X02723Y04507D02*
X02718Y04503D01*
Y04493*
X02723Y04488*
X02743*
X02748Y04493*
Y04503*
X02743Y04507*
X02748Y04537D02*
Y04517D01*
X02728Y04537*
X02723*
X02718Y04532*
Y04522*
X02723Y04517*
Y04547D02*
X02718Y04552D01*
Y04562*
X02723Y04567*
X02743*
X02748Y04562*
Y04552*
X02743Y04547*
X02723*
X02718Y04577D02*
Y04597D01*
X02723*
X02743Y04577*
X02748*
X02856Y04502D02*
X02851Y04497D01*
Y04488*
X02856Y04483*
X02876*
X02881Y04488*
Y04497*
X02876Y04502*
X02881Y04532D02*
Y04512D01*
X02861Y04532*
X02856*
X02851Y04527*
Y04517*
X02856Y04512*
Y04542D02*
X02851Y04547D01*
Y04557*
X02856Y04562*
X02876*
X02881Y04557*
Y04547*
X02876Y04542*
X02856*
Y04572D02*
X02851Y04577D01*
Y04587*
X02856Y04592*
X02861*
X02866Y04587*
X02871Y04592*
X02876*
X02881Y04587*
Y04577*
X02876Y04572*
X02871*
X02866Y04577*
X02861Y04572*
X02856*
X02866Y04577D02*
Y04587D01*
X05497Y03874D02*
X05488Y03883D01*
X0547*
X05461Y03874*
Y03838*
X0547Y03829*
X05488*
X05497Y03838*
X05552Y03829D02*
X05515D01*
X05552Y03865*
Y03874*
X05543Y03883*
X05525*
X05515Y03874*
X0557Y03829D02*
X05589D01*
X0558*
Y03883*
X0557Y03874*
X05616Y03829D02*
X05635D01*
X05625*
Y03883*
X05616Y03874*
X06182Y03879D02*
X06173Y03888D01*
X06155*
X06146Y03879*
Y03843*
X06155Y03834*
X06173*
X06182Y03843*
X06237Y03834D02*
X062D01*
X06237Y0387*
Y03879*
X06228Y03888*
X0621*
X062Y03879*
X06255Y03834D02*
X06274D01*
X06265*
Y03888*
X06255Y03879*
X06338Y03834D02*
X06301D01*
X06338Y0387*
Y03879*
X06329Y03888*
X0631*
X06301Y03879*
X05494Y04065D02*
X05484Y04074D01*
X05466*
X05457Y04065*
Y04029*
X05466Y0402*
X05484*
X05494Y04029*
X05549Y0402D02*
X05512D01*
X05549Y04056*
Y04065*
X05539Y04074*
X05521*
X05512Y04065*
X05567Y0402D02*
X05585D01*
X05576*
Y04074*
X05567Y04065*
X0564Y0402D02*
Y04074D01*
X05613Y04047*
X05649*
X04725Y04282D02*
X04716Y04291D01*
X04698*
X04689Y04282*
Y04246*
X04698Y04237*
X04716*
X04725Y04246*
X0478Y04237D02*
X04743D01*
X0478Y04273*
Y04282*
X04771Y04291*
X04753*
X04743Y04282*
X04798Y04237D02*
X04817D01*
X04808*
Y04291*
X04798Y04282*
X04881Y04291D02*
X04844D01*
Y04264*
X04863Y04273*
X04872*
X04881Y04264*
Y04246*
X04872Y04237*
X04853*
X04844Y04246*
X04463Y04294D02*
X04454Y04303D01*
X04436*
X04427Y04294*
Y04258*
X04436Y04249*
X04454*
X04463Y04258*
X04518Y04249D02*
X04481D01*
X04518Y04285*
Y04294*
X04509Y04303*
X04491*
X04481Y04294*
X04536Y04249D02*
X04555D01*
X04546*
Y04303*
X04536Y04294*
X04619Y04303D02*
X04601Y04294D01*
X04582Y04276*
Y04258*
X04591Y04249*
X0461*
X04619Y04258*
Y04267*
X0461Y04276*
X04582*
X04973Y03602D02*
X04964Y03611D01*
X04946*
X04936Y03602*
Y03566*
X04946Y03556*
X04964*
X04973Y03566*
X05028Y03556D02*
X04991D01*
X05028Y03593*
Y03602*
X05019Y03611*
X05001*
X04991Y03602*
X05083Y03556D02*
X05046D01*
X05083Y03593*
Y03602*
X05074Y03611*
X05056*
X05046Y03602*
X05101Y03556D02*
X0512D01*
X05111*
Y03611*
X05101Y03602*
X05216Y03607D02*
X05207Y03616D01*
X05189*
X0518Y03607*
Y03571*
X05189Y03561*
X05207*
X05216Y03571*
X05271Y03561D02*
X05234D01*
X05271Y03598*
Y03607*
X05262Y03616*
X05244*
X05234Y03607*
X05326Y03561D02*
X05289D01*
X05326Y03598*
Y03607*
X05317Y03616*
X05299*
X05289Y03607*
X05381Y03561D02*
X05344D01*
X05381Y03598*
Y03607*
X05372Y03616*
X05354*
X05344Y03607*
X05221Y03805D02*
X05212Y03814D01*
X05194*
X05185Y03805*
Y03769*
X05194Y0376*
X05212*
X05221Y03769*
X05276Y0376D02*
X05239D01*
X05276Y03796*
Y03805*
X05267Y03814*
X05249*
X05239Y03805*
X05331Y0376D02*
X05294D01*
X05331Y03796*
Y03805*
X05322Y03814*
X05304*
X05294Y03805*
X05349D02*
X05359Y03814D01*
X05377*
X05386Y03805*
Y03796*
X05377Y03787*
X05368*
X05377*
X05386Y03778*
Y03769*
X05377Y0376*
X05359*
X05349Y03769*
X06171Y0419D02*
X06162Y04199D01*
X06144*
X06135Y0419*
Y04154*
X06144Y04145*
X06162*
X06171Y04154*
X06226Y04145D02*
X06189D01*
X06226Y04181*
Y0419*
X06217Y04199*
X06199*
X06189Y0419*
X06281Y04145D02*
X06244D01*
X06281Y04181*
Y0419*
X06272Y04199*
X06254*
X06244Y0419*
X06336Y04199D02*
X06299D01*
Y04172*
X06318Y04181*
X06327*
X06336Y04172*
Y04154*
X06327Y04145*
X06309*
X06299Y04154*
X02878Y0429D02*
X02869Y04299D01*
X02851*
X02842Y0429*
Y04254*
X02851Y04245*
X02869*
X02878Y04254*
X02896Y04245D02*
Y04299D01*
X02924*
X02933Y0429*
Y04272*
X02924Y04263*
X02896*
X02915D02*
X02933Y04245D01*
X02988Y04299D02*
X02951D01*
Y04272*
X0297*
X02951*
Y04245*
X03006D02*
Y04281D01*
X03025Y04299*
X03043Y04281*
Y04245*
Y04272*
X03006*
X03061Y04245D02*
X0308D01*
X03071*
Y04299*
X03061Y0429*
X05462Y0428D02*
X05453Y04289D01*
X05435*
X05426Y0428*
Y04244*
X05435Y04235*
X05453*
X05462Y04244*
X0548Y04235D02*
Y04289D01*
X05508*
X05517Y0428*
Y04262*
X05508Y04253*
X0548*
X05499D02*
X05517Y04235D01*
X05572Y04289D02*
X05535D01*
Y04262*
X05554*
X05535*
Y04235*
X0559D02*
Y04271D01*
X05609Y04289*
X05627Y04271*
Y04235*
Y04262*
X0559*
X05682Y04235D02*
X05645D01*
X05682Y04271*
Y0428*
X05673Y04289*
X05655*
X05645Y0428*
X03188Y04116D02*
X03179Y04125D01*
X03161*
X03152Y04116*
Y0408*
X03161Y04071*
X03179*
X03188Y0408*
X03206Y04071D02*
Y04125D01*
X03234*
X03243Y04116*
Y04098*
X03234Y04089*
X03206*
X03225D02*
X03243Y04071D01*
X03298Y04125D02*
X03261D01*
Y04098*
X0328*
X03261*
Y04071*
X03316Y04125D02*
Y04071D01*
X03344*
X03353Y0408*
Y04089*
X03344Y04098*
X03316*
X03344*
X03353Y04107*
Y04116*
X03344Y04125*
X03316*
X03371Y04071D02*
X0339D01*
X03381*
Y04125*
X03371Y04116*
X03471Y04097D02*
X03462Y04106D01*
X03444*
X03435Y04097*
Y0406*
X03444Y04051*
X03462*
X03471Y0406*
X03489Y04051D02*
Y04106D01*
X03517*
X03526Y04097*
Y04079*
X03517Y04069*
X03489*
X03508D02*
X03526Y04051D01*
X03581Y04106D02*
X03544D01*
Y04079*
X03563*
X03544*
Y04051*
X03636Y04097D02*
X03627Y04106D01*
X03609*
X03599Y04097*
Y0406*
X03609Y04051*
X03627*
X03636Y0406*
X03654Y04051D02*
X03673D01*
X03664*
Y04106*
X03654Y04097*
X03184Y03765D02*
X03174Y03774D01*
X03156*
X03147Y03765*
Y03729*
X03156Y0372*
X03174*
X03184Y03729*
X03202Y0372D02*
Y03774D01*
X03229*
X03239Y03765*
Y03747*
X03229Y03738*
X03202*
X0322D02*
X03239Y0372D01*
X03294Y03774D02*
X03257D01*
Y03747*
X03275*
X03257*
Y0372*
X03312Y03774D02*
Y0372D01*
X03339*
X03349Y03729*
Y03765*
X03339Y03774*
X03312*
X03367Y0372D02*
X03385D01*
X03376*
Y03774*
X03367Y03765*
X04328Y04549D02*
X04292D01*
Y04522*
X0431*
X04292*
Y04495*
X04346Y04549D02*
Y04495D01*
X04374*
X04383Y04504*
Y04513*
X04374Y04522*
X04346*
X04374*
X04383Y04531*
Y0454*
X04374Y04549*
X04346*
X04438Y04495D02*
X04401D01*
X04438Y04531*
Y0454*
X04429Y04549*
X04411*
X04401Y0454*
X04329Y04684D02*
X04293D01*
Y04657*
X04311*
X04293*
Y0463*
X04347Y04684D02*
Y0463D01*
X04375*
X04384Y04639*
Y04648*
X04375Y04657*
X04347*
X04375*
X04384Y04666*
Y04675*
X04375Y04684*
X04347*
X04402Y0463D02*
X04421D01*
X04412*
Y04684*
X04402Y04675*
X01676Y01765D02*
Y0171D01*
Y01738*
X01713*
Y01765*
Y0171*
X01731D02*
Y01765D01*
X01759*
X01768Y01756*
Y01738*
X01759Y01729*
X01731*
X01786Y0171D02*
X01805D01*
X01796*
Y01765*
X01786Y01756*
X02944Y01744D02*
Y0169D01*
Y01717*
X02981*
Y01744*
Y0169*
X02999D02*
Y01744D01*
X03027*
X03036Y01735*
Y01717*
X03027Y01708*
X02999*
X03091Y0169D02*
X03054D01*
X03091Y01726*
Y01735*
X03082Y01744*
X03064*
X03054Y01735*
X04175Y01789D02*
Y01735D01*
Y01762*
X04212*
Y01789*
Y01735*
X0423D02*
Y01789D01*
X04258*
X04267Y0178*
Y01762*
X04258Y01753*
X0423*
X04285Y0178D02*
X04294Y01789D01*
X04313*
X04322Y0178*
Y01771*
X04313Y01762*
X04303*
X04313*
X04322Y01753*
Y01744*
X04313Y01735*
X04294*
X04285Y01744*
X05398Y01745D02*
Y0169D01*
Y01718*
X05435*
Y01745*
Y0169*
X05453D02*
Y01745D01*
X05481*
X0549Y01736*
Y01718*
X05481Y01709*
X05453*
X05536Y0169D02*
Y01745D01*
X05508Y01718*
X05545*
X06684Y01755D02*
Y017D01*
Y01728*
X0672*
Y01755*
Y017*
X06739D02*
Y01755D01*
X06766*
X06775Y01746*
Y01728*
X06766Y01719*
X06739*
X0683Y01755D02*
X06794D01*
Y01728*
X06812Y01737*
X06821*
X0683Y01728*
Y01709*
X06821Y017*
X06803*
X06794Y01709*
X01276Y03557D02*
Y03503D01*
X01312*
X0133D02*
Y03557D01*
X01349Y03539*
X01367Y03557*
Y03503*
X01385D02*
Y03539D01*
X01404Y03557*
X01422Y03539*
Y03503*
Y0353*
X01385*
X0144Y03503D02*
X01459D01*
X0145*
Y03557*
X0144Y03548*
X05091Y04694D02*
Y04748D01*
X05118*
X05127Y04739*
Y04721*
X05118Y04712*
X05091*
X05145Y04748D02*
X05182D01*
Y04739*
X05145Y04703*
Y04694*
X05841Y02744D02*
Y02798D01*
X05868*
X05877Y02789*
Y02771*
X05868Y02762*
X05841*
X05895Y02798D02*
Y02744D01*
X05923*
X05932Y02753*
Y02789*
X05923Y02798*
X05895*
X0595Y02744D02*
X05969D01*
X0596*
Y02798*
X0595Y02789*
X05996Y02771D02*
X06033D01*
X06088Y02798D02*
X06051D01*
Y02771*
X0607Y0278*
X06079*
X06088Y02771*
Y02753*
X06079Y02744*
X0606*
X06051Y02753*
X03115Y02755D02*
Y02809D01*
X03142*
X03151Y028*
Y02782*
X03142Y02773*
X03115*
X03169Y02809D02*
X03206D01*
X03188*
Y02755*
X03261Y028D02*
X03252Y02809D01*
X03234*
X03224Y028*
Y02791*
X03234Y02782*
X03252*
X03261Y02773*
Y02764*
X03252Y02755*
X03234*
X03224Y02764*
X03279Y02809D02*
X03316D01*
X03298*
Y02755*
X03334D02*
X03353D01*
X03344*
Y02809*
X03334Y028*
X04611Y02744D02*
Y02798D01*
X04638*
X04647Y02789*
Y02771*
X04638Y02762*
X04611*
X04665Y02798D02*
Y02744D01*
Y02771*
X04702*
Y02798*
Y02744*
X04748Y02798D02*
X0473D01*
X0472Y02789*
Y02753*
X0473Y02744*
X04748*
X04757Y02753*
Y02789*
X04748Y02798*
X04775D02*
Y02753D01*
X04785Y02744*
X04803*
X04812Y02753*
Y02798*
X0483D02*
X04867D01*
X04849*
Y02744*
X04512Y03363D02*
X04476D01*
Y03309*
X04512*
X04476Y03336D02*
X04494D01*
X04567Y03363D02*
X0453D01*
Y03336*
X04549*
X0453*
Y03309*
X04585Y03363D02*
X04604D01*
X04595*
Y03309*
X04585*
X04604*
X04631D02*
Y03363D01*
X04668Y03309*
Y03363*
X0654Y03325D02*
Y03379D01*
X06567*
X06576Y0337*
Y03352*
X06567Y03343*
X0654*
X06594Y03379D02*
X06631D01*
X06613*
Y03325*
X06686Y0337D02*
X06677Y03379D01*
X06659*
X06649Y0337*
Y03361*
X06659Y03352*
X06677*
X06686Y03343*
Y03334*
X06677Y03325*
X06659*
X06649Y03334*
X06704Y03379D02*
X06741D01*
X06723*
Y03325*
X06796D02*
X06759D01*
X06796Y03361*
Y0337*
X06787Y03379*
X06769*
X06759Y0337*
X0668Y04219D02*
Y04255D01*
X06698Y04273*
X06716Y04255*
Y04219*
Y04246*
X0668*
X06771Y04219D02*
X06734D01*
X06771Y04255*
Y04264*
X06762Y04273*
X06744*
X06734Y04264*
X06789Y04273D02*
Y04219D01*
X06817*
X06826Y04228*
Y04264*
X06817Y04273*
X06789*
X01513Y03734D02*
Y0377D01*
X01531Y03788*
X01549Y0377*
Y03734*
Y03761*
X01513*
X01568Y03788D02*
Y03752D01*
X01586Y03734*
X01604Y03752*
Y03788*
X01623D02*
Y03734D01*
X0165*
X01659Y03743*
Y03779*
X0165Y03788*
X01623*
X0276Y03327D02*
Y03282D01*
X02769Y03273*
X02787*
X02796Y03282*
Y03327*
X02814Y03273D02*
X02833D01*
X02824*
Y03327*
X02814Y03318*
X0286D02*
X02869Y03327D01*
X02888*
X02897Y03318*
Y03282*
X02888Y03273*
X02869*
X0286Y03282*
Y03318*
X02915D02*
X02924Y03327D01*
X02943*
X02952Y03318*
Y03282*
X02943Y03273*
X02924*
X02915Y03282*
Y03318*
X04686Y04103D02*
Y04058D01*
X04695Y04049*
X04713*
X04722Y04058*
Y04103*
X04777Y04049D02*
X0474D01*
X04777Y04085*
Y04094*
X04768Y04103*
X0475*
X0474Y04094*
X04795D02*
X04805Y04103D01*
X04823*
X04832Y04094*
Y04058*
X04823Y04049*
X04805*
X04795Y04058*
Y04094*
X0485Y04049D02*
X04869D01*
X0486*
Y04103*
X0485Y04094*
X02336Y04105D02*
X02327Y04114D01*
X02309*
X023Y04105*
Y04069*
X02309Y0406*
X02327*
X02336Y04069*
X02354Y0406D02*
X02373D01*
X02364*
Y04114*
X02354Y04105*
X024D02*
X02409Y04114D01*
X02428*
X02437Y04105*
Y04096*
X02428Y04087*
X02419*
X02428*
X02437Y04078*
Y04069*
X02428Y0406*
X02409*
X024Y04069*
X02455Y04105D02*
X02464Y04114D01*
X02483*
X02492Y04105*
Y04069*
X02483Y0406*
X02464*
X02455Y04069*
Y04105*
X02334Y03758D02*
X02325Y03767D01*
X02307*
X02298Y03758*
Y03722*
X02307Y03713*
X02325*
X02334Y03722*
X02352Y03713D02*
X02371D01*
X02362*
Y03767*
X02352Y03758*
X02398D02*
X02407Y03767D01*
X02426*
X02435Y03758*
Y03749*
X02426Y0374*
X02417*
X02426*
X02435Y03731*
Y03722*
X02426Y03713*
X02407*
X02398Y03722*
X02453Y03713D02*
X02472D01*
X02462*
Y03767*
X02453Y03758*
X01255Y04529D02*
X01246Y04538D01*
X01227*
X01218Y04529*
Y04493*
X01227Y04484*
X01246*
X01255Y04493*
X01273Y04538D02*
X0131D01*
Y04529*
X01273Y04493*
Y04484*
X01402Y04529D02*
X01393Y04538D01*
X01375*
X01366Y04529*
Y04493*
X01375Y04484*
X01393*
X01402Y04493*
X01421Y04529D02*
X0143Y04538D01*
X01448*
X01457Y04529*
Y0452*
X01448Y04511*
X01457Y04502*
Y04493*
X01448Y04484*
X0143*
X01421Y04493*
Y04502*
X0143Y04511*
X01421Y0452*
Y04529*
X0143Y04511D02*
X01448D01*
X01276Y04277D02*
Y04223D01*
X01312*
X0133D02*
Y04277D01*
X01349Y04259*
X01367Y04277*
Y04223*
X01385Y04277D02*
Y04223D01*
X01413*
X01422Y04232*
Y04268*
X01413Y04277*
X01385*
X0144Y04223D02*
X01459D01*
X0145*
Y04277*
X0144Y04268*
X01513Y04538D02*
Y04484D01*
X01541*
X0155Y04493*
Y04529*
X01541Y04538*
X01513*
X01568D02*
Y04502D01*
X01586Y04484*
X01605Y04502*
Y04538*
X01623D02*
Y04484D01*
X01651*
X0166Y04493*
Y04529*
X01651Y04538*
X01623*
X0449Y03938D02*
X0448Y03948D01*
X04461*
X04451Y03938*
Y03899*
X04461Y03889*
X0448*
X0449Y03899*
X0455Y03889D02*
X0451D01*
X0455Y03928*
Y03938*
X0454Y03948*
X0452*
X0451Y03938*
X0457D02*
X0458Y03948D01*
X046*
X0461Y03938*
Y03928*
X046Y03918*
X0459*
X046*
X0461Y03908*
Y03899*
X046Y03889*
X0458*
X0457Y03899*
X0463Y03938D02*
X0464Y03948D01*
X0466*
X0467Y03938*
Y03899*
X0466Y03889*
X0464*
X0463Y03899*
Y03938*
X0449Y03628D02*
X0448Y03638D01*
X04461*
X04451Y03628*
Y03589*
X04461Y03579*
X0448*
X0449Y03589*
X0455Y03579D02*
X0451D01*
X0455Y03618*
Y03628*
X0454Y03638*
X0452*
X0451Y03628*
X0457D02*
X0458Y03638D01*
X046*
X0461Y03628*
Y03618*
X046Y03608*
X0459*
X046*
X0461Y03598*
Y03589*
X046Y03579*
X0458*
X0457Y03589*
X0463Y03579D02*
X0465D01*
X0464*
Y03638*
X0463Y03628*
X05981Y04753D02*
X0602D01*
X06*
Y04694*
X0608Y04753D02*
X0604D01*
Y04694*
X0608*
X0604Y04723D02*
X0606D01*
X0614Y04743D02*
X0613Y04753D01*
X0611*
X061Y04743*
Y04733*
X0611Y04723*
X0613*
X0614Y04713*
Y04704*
X0613Y04694*
X0611*
X061Y04704*
X0616Y04753D02*
X062D01*
X0618*
Y04694*
X01492Y01967D02*
X01482Y01977D01*
X01462*
X01452Y01967*
Y01928*
X01462Y01918*
X01482*
X01492Y01928*
X01552Y01918D02*
X01512D01*
X01552Y01957*
Y01967*
X01542Y01977*
X01522*
X01512Y01967*
X02709D02*
X02699Y01977D01*
X02679*
X02669Y01967*
Y01928*
X02679Y01918*
X02699*
X02709Y01928*
X02729Y01967D02*
X02739Y01977D01*
X02759*
X02769Y01967*
Y01957*
X02759Y01947*
X02749*
X02759*
X02769Y01937*
Y01928*
X02759Y01918*
X02739*
X02729Y01928*
X0399Y01967D02*
X0398Y01977D01*
X03961*
X03951Y01967*
Y01928*
X03961Y01918*
X0398*
X0399Y01928*
X0405Y01918D02*
X0401D01*
X0405Y01957*
Y01967*
X0404Y01977*
X0402*
X0401Y01967*
X041Y01918D02*
Y01977D01*
X0407Y01947*
X0411*
X05241Y01967D02*
X05231Y01977D01*
X05212*
X05202Y01967*
Y01928*
X05212Y01918*
X05231*
X05241Y01928*
X05301Y01918D02*
X05261D01*
X05301Y01957*
Y01967*
X05291Y01977*
X05271*
X05261Y01967*
X05361Y01977D02*
X05321D01*
Y01947*
X05341Y01957*
X05351*
X05361Y01947*
Y01928*
X05351Y01918*
X05331*
X05321Y01928*
X06475Y01967D02*
X06465Y01977D01*
X06446*
X06436Y01967*
Y01928*
X06446Y01918*
X06465*
X06475Y01928*
X06535Y01918D02*
X06495D01*
X06535Y01957*
Y01967*
X06525Y01977*
X06505*
X06495Y01967*
X06595Y01977D02*
X06575Y01967D01*
X06555Y01947*
Y01928*
X06565Y01918*
X06585*
X06595Y01928*
Y01937*
X06585Y01947*
X06555*
X01452Y02098D02*
Y02158D01*
X01482*
X01492Y02148*
Y02128*
X01482Y02118*
X01452*
X01472D02*
X01492Y02098D01*
X01512D02*
X01532D01*
X01522*
Y02158*
X01512Y02148*
X01452Y02288D02*
Y02348D01*
X01482*
X01492Y02338*
Y02318*
X01482Y02308*
X01452*
X01472D02*
X01492Y02288D01*
X01552D02*
X01512D01*
X01552Y02328*
Y02338*
X01542Y02348*
X01522*
X01512Y02338*
X01227Y01733D02*
Y01792D01*
X01256*
X01266Y01782*
Y01762*
X01256Y01752*
X01227*
X01246D02*
X01266Y01733D01*
X01286Y01782D02*
X01296Y01792D01*
X01316*
X01326Y01782*
Y01772*
X01316Y01762*
X01306*
X01316*
X01326Y01752*
Y01743*
X01316Y01733*
X01296*
X01286Y01743*
X02669Y02098D02*
Y02158D01*
X02699*
X02709Y02148*
Y02128*
X02699Y02118*
X02669*
X02689D02*
X02709Y02098D01*
X02769Y02158D02*
X02749Y02148D01*
X02729Y02128*
Y02108*
X02739Y02098*
X02759*
X02769Y02108*
Y02118*
X02759Y02128*
X02729*
X02669Y02288D02*
Y02348D01*
X02699*
X02709Y02338*
Y02318*
X02699Y02308*
X02669*
X02689D02*
X02709Y02288D01*
X02729Y02338D02*
X02739Y02348D01*
X02759*
X02769Y02338*
Y02328*
X02759Y02318*
X02769Y02308*
Y02298*
X02759Y02288*
X02739*
X02729Y02298*
Y02308*
X02739Y02318*
X02729Y02328*
Y02338*
X02739Y02318D02*
X02759D01*
X02465Y01745D02*
Y01804D01*
X02494*
X02504Y01794*
Y01774*
X02494Y01764*
X02465*
X02484D02*
X02504Y01745D01*
X02524Y01755D02*
X02534Y01745D01*
X02554*
X02564Y01755*
Y01794*
X02554Y01804*
X02534*
X02524Y01794*
Y01784*
X02534Y01774*
X02564*
X03951Y02099D02*
Y02158D01*
X03981*
X03991Y02148*
Y02128*
X03981Y02118*
X03951*
X03971D02*
X03991Y02099D01*
X04011D02*
X04031D01*
X04021*
Y02158*
X04011Y02148*
X04061D02*
X04071Y02158D01*
X04091*
X04101Y02148*
Y02109*
X04091Y02099*
X04071*
X04061Y02109*
Y02148*
X03951Y02289D02*
Y02348D01*
X03981*
X03991Y02338*
Y02318*
X03981Y02308*
X03951*
X03971D02*
X03991Y02289D01*
X04011D02*
X04031D01*
X04021*
Y02348*
X04011Y02338*
X04091Y02289D02*
Y02348D01*
X04061Y02318*
X04101*
X03689Y01749D02*
Y01808D01*
X03718*
X03728Y01798*
Y01778*
X03718Y01768*
X03689*
X03708D02*
X03728Y01749D01*
X03748D02*
X03768D01*
X03758*
Y01808*
X03748Y01798*
X03838Y01808D02*
X03798D01*
Y01778*
X03818Y01788*
X03828*
X03838Y01778*
Y01759*
X03828Y01749*
X03808*
X03798Y01759*
X05202Y02099D02*
Y02158D01*
X05232*
X05242Y02148*
Y02128*
X05232Y02118*
X05202*
X05222D02*
X05242Y02099D01*
X05262D02*
X05282D01*
X05272*
Y02158*
X05262Y02148*
X05352Y02158D02*
X05332Y02148D01*
X05312Y02128*
Y02109*
X05322Y02099*
X05342*
X05352Y02109*
Y02118*
X05342Y02128*
X05312*
X05202Y02289D02*
Y02348D01*
X05232*
X05242Y02338*
Y02318*
X05232Y02308*
X05202*
X05222D02*
X05242Y02289D01*
X05302D02*
X05262D01*
X05302Y02328*
Y02338*
X05292Y02348*
X05272*
X05262Y02338*
X05322D02*
X05332Y02348D01*
X05352*
X05362Y02338*
Y02299*
X05352Y02289*
X05332*
X05322Y02299*
Y02338*
X0496Y01738D02*
Y01797D01*
X04989*
X04999Y01787*
Y01767*
X04989Y01757*
X0496*
X04979D02*
X04999Y01738D01*
X05059D02*
X05019D01*
X05059Y01777*
Y01787*
X05049Y01797*
X05029*
X05019Y01787*
X05079Y01738D02*
X05099D01*
X05089*
Y01797*
X05079Y01787*
X06436Y02099D02*
Y02158D01*
X06465*
X06475Y02148*
Y02128*
X06465Y02118*
X06436*
X06455D02*
X06475Y02099D01*
X06535D02*
X06495D01*
X06535Y02138*
Y02148*
X06525Y02158*
X06505*
X06495Y02148*
X06595Y02099D02*
X06555D01*
X06595Y02138*
Y02148*
X06585Y02158*
X06565*
X06555Y02148*
X06436Y02289D02*
Y02348D01*
X06466*
X06476Y02338*
Y02318*
X06466Y02308*
X06436*
X06456D02*
X06476Y02289D01*
X06536D02*
X06496D01*
X06536Y02328*
Y02338*
X06526Y02348*
X06506*
X06496Y02338*
X06596Y02348D02*
X06576Y02338D01*
X06556Y02318*
Y02299*
X06566Y02289*
X06586*
X06596Y02299*
Y02308*
X06586Y02318*
X06556*
X06193Y01749D02*
Y01808D01*
X06222*
X06232Y01798*
Y01778*
X06222Y01768*
X06193*
X06212D02*
X06232Y01749D01*
X06292D02*
X06252D01*
X06292Y01788*
Y01798*
X06282Y01808*
X06262*
X06252Y01798*
X06312Y01808D02*
X06352D01*
Y01798*
X06312Y01759*
Y01749*
X06539Y02872D02*
X06521D01*
X06512Y02863*
Y02827*
X06521Y02818*
X06539*
X06548Y02827*
Y02863*
X06539Y02872*
X06567Y02818D02*
Y02872D01*
X06594*
X06603Y02863*
Y02845*
X06594Y02836*
X06567*
X06658Y02872D02*
X06622D01*
Y02845*
X0664Y02854*
X06649*
X06658Y02845*
Y02827*
X06649Y02818*
X06631*
X06622Y02827*
X04972Y03337D02*
X04967Y03332D01*
Y03323*
X04972Y03318*
X04992*
X04997Y03323*
Y03332*
X04992Y03337*
X04997Y03347D02*
Y03357D01*
Y03352*
X04967*
X04972Y03347*
Y03372D02*
X04967Y03377D01*
Y03387*
X04972Y03392*
X04992*
X04997Y03387*
Y03377*
X04992Y03372*
X04972*
X04997Y03402D02*
Y03412D01*
Y03407*
X04967*
X04972Y03402*
X02486Y04789D02*
Y0471D01*
Y04749*
X02539*
Y04789*
Y0471*
X02565D02*
Y04763D01*
X02592Y04789*
X02619Y04763*
Y0471*
Y04749*
X02565*
X02645Y0471D02*
Y04789D01*
X02699Y0471*
Y04789*
X02779Y04776D02*
X02765Y04789D01*
X02739*
X02725Y04776*
Y04723*
X02739Y0471*
X02765*
X02779Y04723*
X02885Y0471D02*
Y04763D01*
X02912Y04789*
X02939Y04763*
Y0471*
Y04749*
X02885*
X02965Y0471D02*
Y04763D01*
X03005*
X03019Y04749*
Y0471*
X03059Y04763D02*
X03085D01*
X03099Y04749*
Y0471*
X03059*
X03045Y04723*
X03059Y04736*
X03099*
X03125Y0471D02*
X03152D01*
X03139*
Y04789*
X03125*
X03205Y0471D02*
X03232D01*
X03245Y04723*
Y04749*
X03232Y04763*
X03205*
X03192Y04749*
Y04723*
X03205Y0471*
X03299Y04683D02*
X03312D01*
X03325Y04696*
Y04763*
X03285*
X03272Y04749*
Y04723*
X03285Y0471*
X03325*
X03432D02*
Y04789D01*
X03472*
X03485Y04776*
Y04749*
X03472Y04736*
X03432*
X03459D02*
X03485Y0471D01*
X03552D02*
X03525D01*
X03512Y04723*
Y04749*
X03525Y04763*
X03552*
X03565Y04749*
Y04736*
X03512*
X03592Y04763D02*
X03618Y0471D01*
X03645Y04763*
X03672Y0471D02*
Y04723D01*
X03685*
Y0471*
X03672*
X03818D02*
X03845D01*
X03832*
Y04789*
X03818Y04776*
X03885Y0471D02*
Y04723D01*
X03898*
Y0471*
X03885*
X03952Y04776D02*
X03965Y04789D01*
X03992*
X04005Y04776*
Y04723*
X03992Y0471*
X03965*
X03952Y04723*
Y04776*
X03139Y02461D02*
Y02428D01*
X03164*
Y02444*
Y02428*
X03189*
X03139Y02477D02*
X03189D01*
Y02511*
X03139Y02527D02*
Y02561D01*
Y02544*
X03189*
Y02577D02*
Y02594D01*
Y02586*
X03139*
X03147Y02577*
X03257Y02461D02*
Y02428D01*
X03282*
Y02444*
Y02428*
X03307*
X03257Y02477D02*
X03307D01*
Y02511*
X03257Y02527D02*
Y02561D01*
Y02544*
X03307*
Y02611D02*
Y02577D01*
X03273Y02611*
X03265*
X03257Y02602*
Y02586*
X03265Y02577*
X03364Y02461D02*
Y02428D01*
X03389*
Y02444*
Y02428*
X03414*
X03364Y02477D02*
X03414D01*
Y02511*
X03364Y02527D02*
Y02561D01*
Y02544*
X03414*
X03372Y02577D02*
X03364Y02586D01*
Y02602*
X03372Y02611*
X0338*
X03389Y02602*
Y02594*
Y02602*
X03397Y02611*
X03405*
X03414Y02602*
Y02586*
X03405Y02577*
X03457Y02461D02*
Y02428D01*
X03482*
Y02444*
Y02428*
X03507*
X03457Y02477D02*
X03507D01*
Y02511*
X03457Y02527D02*
Y02561D01*
Y02544*
X03507*
Y02602D02*
X03457D01*
X03482Y02577*
Y02611*
X03606Y02394D02*
X03572D01*
X03556Y02411*
X03572Y02428*
X03606*
X03581*
Y02394*
X03556Y02469D02*
Y02452D01*
X03564Y02444*
X03597*
X03606Y02452*
Y02469*
X03597Y02477*
X03564*
X03556Y02469*
Y02494D02*
X03597D01*
X03606Y02502*
Y02519*
X03597Y02527*
X03556*
Y02544D02*
Y02577D01*
Y02561*
X03606*
Y02594D02*
Y02611D01*
Y02602*
X03556*
X03564Y02594*
X03708Y02394D02*
X03658D01*
Y02419*
X03666Y02428*
X03683*
X03691Y02419*
Y02394*
Y02411D02*
X03708Y02428D01*
X03658Y02477D02*
Y02444D01*
X03683*
Y02461*
Y02444*
X03708*
X03658Y02494D02*
X03708D01*
Y02519*
X03699Y02527*
X03691*
X03683Y02519*
Y02494*
Y02519*
X03674Y02527*
X03666*
X03658Y02519*
Y02494*
X03708Y02544D02*
X03658D01*
Y02569*
X03666Y02577*
X03683*
X03691Y02569*
Y02544*
X03708Y02594D02*
Y02611D01*
Y02602*
X03658*
X03666Y02594*
X06837Y02915D02*
X06787D01*
Y02939*
X06795Y02948*
X06812*
X0682Y02939*
Y02915*
Y02931D02*
X06837Y02948D01*
X06787Y02998D02*
Y02964D01*
X06812*
Y02981*
Y02964*
X06837*
X06787Y03014D02*
X06837D01*
Y03039*
X06828Y03048*
X0682*
X06812Y03039*
Y03014*
Y03039*
X06803Y03048*
X06795*
X06787Y03039*
Y03014*
X06837Y03064D02*
X06787D01*
Y03089*
X06795Y03098*
X06812*
X0682Y03089*
Y03064*
X06837Y03148D02*
Y03114D01*
X06803Y03148*
X06795*
X06787Y03139*
Y03123*
X06795Y03114*
X06723Y02923D02*
X06689D01*
X06673Y02939*
X06689Y02956*
X06723*
X06698*
Y02923*
X06673Y02997D02*
Y02981D01*
X06681Y02972*
X06714*
X06723Y02981*
Y02997*
X06714Y03006*
X06681*
X06673Y02997*
Y03022D02*
X06714D01*
X06723Y03031*
Y03047*
X06714Y03056*
X06673*
Y03072D02*
Y03106D01*
Y03089*
X06723*
Y03156D02*
Y03122D01*
X06689Y03156*
X06681*
X06673Y03147*
Y03131*
X06681Y03122*
X06571Y03002D02*
Y02969D01*
X06596*
Y02985*
Y02969*
X06621*
X06571Y03018D02*
X06621D01*
Y03052*
X06571Y03068D02*
Y03102D01*
Y03085*
X06621*
X06571Y03152D02*
Y03118D01*
X06596*
X06587Y03135*
Y03143*
X06596Y03152*
X06612*
X06621Y03143*
Y03127*
X06612Y03118*
X06309Y04356D02*
X06359D01*
Y0438*
X0635Y04389*
X06317*
X06309Y0438*
Y04356*
X06317Y04439D02*
X06309Y0443D01*
Y04414*
X06317Y04405*
X0635*
X06359Y04414*
Y0443*
X0635Y04439*
X06334*
Y04422*
X06359Y04455D02*
X06309D01*
X06359Y04489*
X06309*
Y04505D02*
X06359D01*
Y0453*
X0635Y04539*
X06317*
X06309Y0453*
Y04505*
X06251Y0435D02*
X06217D01*
X06201Y04366*
X06217Y04383*
X06251*
X06226*
Y0435*
X06209Y04433D02*
X06201Y04424D01*
Y04408*
X06209Y04399*
X06242*
X06251Y04408*
Y04424*
X06242Y04433*
X06226*
Y04416*
X06251Y04449D02*
X06201D01*
X06251Y04483*
X06201*
Y04499D02*
X06251D01*
Y04524*
X06242Y04533*
X06209*
X06201Y04524*
Y04499*
X05997Y04354D02*
X06047D01*
Y04378*
X06038Y04387*
X06005*
X05997Y04378*
Y04354*
X06005Y04403D02*
X05997Y04412D01*
Y04428*
X06005Y04437*
X06013*
X06022Y04428*
Y0442*
Y04428*
X0603Y04437*
X06038*
X06047Y04428*
Y04412*
X06038Y04403*
X05997Y04453D02*
X0603D01*
X06047Y0447*
X0603Y04487*
X05997*
X06005Y04503D02*
X05997Y04512D01*
Y04528*
X06005Y04537*
X06013*
X06022Y04528*
Y0452*
Y04528*
X0603Y04537*
X06038*
X06047Y04528*
Y04512*
X06038Y04503*
X06154Y04349D02*
X0612D01*
X06104Y04365*
X0612Y04382*
X06154*
X06129*
Y04349*
X06112Y04398D02*
X06104Y04407D01*
Y04423*
X06112Y04432*
X0612*
X06129Y04423*
Y04415*
Y04423*
X06137Y04432*
X06145*
X06154Y04423*
Y04407*
X06145Y04398*
X06104Y04448D02*
X06137D01*
X06154Y04465*
X06137Y04482*
X06104*
X06112Y04498D02*
X06104Y04507D01*
Y04523*
X06112Y04532*
X0612*
X06129Y04523*
Y04515*
Y04523*
X06137Y04532*
X06145*
X06154Y04523*
Y04507*
X06145Y04498*
X01179Y03434D02*
X01166D01*
X0116Y03428*
Y03401*
X01166Y03395*
X01179*
X01186Y03401*
Y03428*
X01179Y03434*
X01199Y03421D02*
Y03401D01*
X01206Y03395*
X01226*
Y03421*
X01246Y03428D02*
Y03421D01*
X01239*
X01253*
X01246*
Y03401*
X01253Y03395*
X01189Y04154D02*
X01176D01*
X0117Y04148*
Y04121*
X01176Y04115*
X01189*
X01196Y04121*
Y04148*
X01189Y04154*
X01209Y04141D02*
Y04121D01*
X01216Y04115*
X01236*
Y04141*
X01256Y04148D02*
Y04141D01*
X01249*
X01263*
X01256*
Y04121*
X01263Y04115*
X04069Y03489D02*
X04064Y03494D01*
X04055*
X0405Y03489*
Y03484*
X04055Y0348*
X04064*
X04069Y03475*
Y0347*
X04064Y03465*
X04055*
X0405Y0347*
X04079Y03494D02*
Y03465D01*
Y0348*
X04099*
Y03494*
Y03465*
X04109Y03494D02*
Y03465D01*
X04124*
X04129Y0347*
Y03489*
X04124Y03494*
X04109*
X04069Y03589D02*
X04064Y03594D01*
X04055*
X0405Y03589*
Y0357*
X04055Y03565*
X04064*
X04069Y0357*
X04079Y03579D02*
X04099D01*
X04109Y03565D02*
Y03594D01*
X04124*
X04129Y03589*
Y03579*
X04124Y03575*
X04109*
X04119D02*
X04129Y03565D01*
X04079Y03704D02*
X0406D01*
Y03675*
X04079*
X0406Y0369D02*
X0407D01*
X04104Y03704D02*
X04094D01*
X04089Y03699*
Y0368*
X04094Y03675*
X04104*
X04109Y0368*
Y03699*
X04104Y03704*
X04139Y03699D02*
X04134Y03704D01*
X04124*
X04119Y03699*
Y0368*
X04124Y03675*
X04134*
X04139Y0368*
X0405Y04204D02*
Y04175D01*
X04064*
X04069Y0418*
Y04199*
X04064Y04204*
X0405*
X04079Y04189D02*
X04099D01*
X04129Y04199D02*
X04124Y04204D01*
X04114*
X04109Y04199*
Y04194*
X04114Y04189*
X04124*
X04129Y04185*
Y0418*
X04124Y04175*
X04114*
X04109Y0418*
X0405Y04304D02*
Y0428D01*
X04055Y04275*
X04064*
X04069Y0428*
Y04304*
X04079Y04275D02*
X04099Y04294D01*
X04109Y04304D02*
Y04275D01*
X04124*
X04129Y0428*
Y04299*
X04124Y04304*
X04109*
X04075Y04404D02*
X04065D01*
X0406Y04399*
Y0438*
X04065Y04375*
X04075*
X04079Y0438*
Y04399*
X04075Y04404*
X04109Y04399D02*
X04104Y04404D01*
X04094*
X04089Y04399*
Y04394*
X04094Y0439*
X04104*
X04109Y04385*
Y0438*
X04104Y04375*
X04094*
X04089Y0438*
X04139Y04399D02*
X04134Y04404D01*
X04124*
X04119Y04399*
Y0438*
X04124Y04375*
X04134*
X04139Y0438*
X04049Y03799D02*
X04044Y03804D01*
X04035*
X0403Y03799*
Y03794*
X04035Y03789*
X04044*
X04049Y03785*
Y0378*
X04044Y03775*
X04035*
X0403Y0378*
X04079Y03799D02*
X04074Y03804D01*
X04064*
X04059Y03799*
Y0378*
X04064Y03775*
X04074*
X04079Y0378*
X04089Y03804D02*
Y03775D01*
X04109*
X04119Y03804D02*
Y03775D01*
Y03785*
X04139Y03804*
X04124Y03789*
X04139Y03775*
X0403Y03885D02*
Y03914D01*
X0404Y03904*
X04049Y03914*
Y03885*
X04074Y03914D02*
X04064D01*
X04059Y03909*
Y0389*
X04064Y03885*
X04074*
X04079Y0389*
Y03909*
X04074Y03914*
X04109Y03909D02*
X04104Y03914D01*
X04094*
X04089Y03909*
Y03904*
X04094Y039*
X04104*
X04109Y03895*
Y0389*
X04104Y03885*
X04094*
X04089Y0389*
X04119Y03914D02*
X04129D01*
X04124*
Y03885*
X04119*
X04129*
X0403Y03975D02*
Y04004D01*
X0404Y03994*
X04049Y04004*
Y03975*
X04059Y04004D02*
X04069D01*
X04064*
Y03975*
X04059*
X04069*
X04104Y03999D02*
X04099Y04004D01*
X04089*
X04084Y03999*
Y03994*
X04089Y0399*
X04099*
X04104Y03985*
Y0398*
X04099Y03975*
X04089*
X04084Y0398*
X04129Y04004D02*
X04119D01*
X04114Y03999*
Y0398*
X04119Y03975*
X04129*
X04134Y0398*
Y03999*
X04129Y04004*
X04099Y04099D02*
X04095Y04104D01*
X04085*
X0408Y04099*
Y0408*
X04085Y04075*
X04095*
X04099Y0408*
X04129Y04099D02*
X04124Y04104D01*
X04114*
X04109Y04099*
Y04094*
X04114Y04089*
X04124*
X04129Y04085*
Y0408*
X04124Y04075*
X04114*
X04109Y0408*
X01849Y04104D02*
X01845Y04109D01*
X01835*
X0183Y04104*
Y04085*
X01835Y0408*
X01845*
X01849Y04085*
X01879Y04104D02*
X01874Y04109D01*
X01864*
X01859Y04104*
Y04099*
X01864Y04095*
X01874*
X01879Y0409*
Y04085*
X01874Y0408*
X01864*
X01859Y04085*
X0178Y0398D02*
Y04009D01*
X0179Y03999*
X01799Y04009*
Y0398*
X01809Y04009D02*
X01819D01*
X01814*
Y0398*
X01809*
X01819*
X01854Y04004D02*
X01849Y04009D01*
X01839*
X01834Y04004*
Y03999*
X01839Y03995*
X01849*
X01854Y0399*
Y03985*
X01849Y0398*
X01839*
X01834Y03985*
X01879Y04009D02*
X01869D01*
X01864Y04004*
Y03985*
X01869Y0398*
X01879*
X01884Y03985*
Y04004*
X01879Y04009*
X0178Y0389D02*
Y03919D01*
X0179Y03909*
X01799Y03919*
Y0389*
X01824Y03919D02*
X01814D01*
X01809Y03914*
Y03895*
X01814Y0389*
X01824*
X01829Y03895*
Y03914*
X01824Y03919*
X01859Y03914D02*
X01854Y03919D01*
X01844*
X01839Y03914*
Y03909*
X01844Y03904*
X01854*
X01859Y039*
Y03895*
X01854Y0389*
X01844*
X01839Y03895*
X01869Y03919D02*
X01879D01*
X01874*
Y0389*
X01869*
X01879*
X01799Y03804D02*
X01794Y03809D01*
X01785*
X0178Y03804*
Y03799*
X01785Y03795*
X01794*
X01799Y0379*
Y03785*
X01794Y0378*
X01785*
X0178Y03785*
X01829Y03804D02*
X01824Y03809D01*
X01814*
X01809Y03804*
Y03785*
X01814Y0378*
X01824*
X01829Y03785*
X01839Y03809D02*
Y0378D01*
X01859*
X01869Y03809D02*
Y0378D01*
Y0379*
X01889Y03809*
X01874Y03795*
X01889Y0378*
X01825Y04409D02*
X01815D01*
X0181Y04404*
Y04385*
X01815Y0438*
X01825*
X01829Y04385*
Y04404*
X01825Y04409*
X01859Y04404D02*
X01854Y04409D01*
X01844*
X01839Y04404*
Y04399*
X01844Y04395*
X01854*
X01859Y0439*
Y04385*
X01854Y0438*
X01844*
X01839Y04385*
X01889Y04404D02*
X01884Y04409D01*
X01874*
X01869Y04404*
Y04385*
X01874Y0438*
X01884*
X01889Y04385*
X018Y04309D02*
Y04285D01*
X01805Y0428*
X01815*
X01819Y04285*
Y04309*
X01829Y0428D02*
X01849Y04299D01*
X01859Y04309D02*
Y0428D01*
X01874*
X01879Y04285*
Y04304*
X01874Y04309*
X01859*
X018Y04209D02*
Y0418D01*
X01815*
X01819Y04185*
Y04204*
X01815Y04209*
X018*
X01829Y04194D02*
X01849D01*
X01879Y04204D02*
X01874Y04209D01*
X01864*
X01859Y04204*
Y04199*
X01864Y04194*
X01874*
X01879Y0419*
Y04185*
X01874Y0418*
X01864*
X01859Y04185*
X01829Y03709D02*
X0181D01*
Y0368*
X01829*
X0181Y03694D02*
X0182D01*
X01854Y03709D02*
X01844D01*
X01839Y03704*
Y03685*
X01844Y0368*
X01854*
X01859Y03685*
Y03704*
X01854Y03709*
X01889Y03704D02*
X01884Y03709D01*
X01874*
X01869Y03704*
Y03685*
X01874Y0368*
X01884*
X01889Y03685*
X01819Y03594D02*
X01815Y03599D01*
X01805*
X018Y03594*
Y03575*
X01805Y0357*
X01815*
X01819Y03575*
X01829Y03585D02*
X01849D01*
X01859Y0357D02*
Y03599D01*
X01874*
X01879Y03594*
Y03585*
X01874Y0358*
X01859*
X01869D02*
X01879Y0357D01*
X01819Y03494D02*
X01815Y03499D01*
X01805*
X018Y03494*
Y03489*
X01805Y03484*
X01815*
X01819Y0348*
Y03475*
X01815Y0347*
X01805*
X018Y03475*
X01829Y03499D02*
Y0347D01*
Y03484*
X01849*
Y03499*
Y0347*
X01859Y03499D02*
Y0347D01*
X01874*
X01879Y03475*
Y03494*
X01874Y03499*
X01859*
X0524Y04749D02*
X05279Y0469D01*
Y04749D02*
X0524Y0469D01*
X05299D02*
Y04729D01*
X05319Y04749*
X05339Y04729*
Y0469*
Y04719*
X05299*
X05359Y04749D02*
Y0469D01*
X05389*
X05399Y047*
Y04739*
X05389Y04749*
X05359*
X05459Y04739D02*
X05449Y04749D01*
X05429*
X05419Y04739*
Y047*
X05429Y0469*
X05449*
X05459Y047*
X05479Y0467D02*
Y04729D01*
X05509*
X05519Y04719*
Y047*
X05509Y0469*
X05479*
X05539Y04729D02*
Y047D01*
X05549Y0469*
X05559Y047*
X05569Y0469*
X05579Y047*
Y04729*
X05599D02*
Y0469D01*
Y04709*
X05609Y04719*
X05619Y04729*
X05629*
X06728Y04056D02*
X06718Y04066D01*
X06699*
X06689Y04056*
Y04017*
X06699Y04007*
X06718*
X06728Y04017*
Y04036*
X06708*
X06748Y04007D02*
Y04066D01*
X06788Y04007*
Y04066*
X06808D02*
Y04007D01*
X06838*
X06848Y04017*
Y04056*
X06838Y04066*
X06808*
G54D25*
X01Y01D02*
X0727D01*
Y04835*
X01D02*
X0727D01*
X01Y01D02*
Y04835D01*
G54D33*
X05758Y03985D02*
D01*
X05758Y03985*
X05758Y03986*
X05758Y03986*
X05758Y03986*
X05758Y03987*
X05758Y03987*
X05757Y03987*
X05757Y03988*
X05757Y03988*
X05757Y03988*
X05757Y03988*
X05756Y03989*
X05756Y03989*
X05756Y03989*
X05756Y03989*
X05755Y03989*
X05755Y03989*
X05755Y0399*
X05754Y0399*
X05754Y0399*
X05754Y0399*
X05753Y0399*
X05753*
X05753Y0399*
X05752Y0399*
X05752Y0399*
X05752Y0399*
X05751Y03989*
X05751Y03989*
X05751Y03989*
X0575Y03989*
X0575Y03989*
X0575Y03989*
X0575Y03988*
X05749Y03988*
X05749Y03988*
X05749Y03988*
X05749Y03987*
X05749Y03987*
X05748Y03987*
X05748Y03986*
X05748Y03986*
X05748Y03986*
X05748Y03985*
X05748Y03985*
X05748Y03985*
X05748Y03984*
X05748Y03984*
X05748Y03984*
X05748Y03983*
X05749Y03983*
X05749Y03983*
X05749Y03982*
X05749Y03982*
X05749Y03982*
X0575Y03982*
X0575Y03981*
X0575Y03981*
X0575Y03981*
X05751Y03981*
X05751Y03981*
X05751Y0398*
X05752Y0398*
X05752Y0398*
X05752Y0398*
X05753Y0398*
X05753Y0398*
X05753*
X05754Y0398*
X05754Y0398*
X05754Y0398*
X05755Y0398*
X05755Y0398*
X05755Y03981*
X05756Y03981*
X05756Y03981*
X05756Y03981*
X05756Y03981*
X05757Y03982*
X05757Y03982*
X05757Y03982*
X05757Y03982*
X05757Y03983*
X05758Y03983*
X05758Y03983*
X05758Y03984*
X05758Y03984*
X05758Y03984*
X05758Y03985*
X05758Y03985*
X02525Y02788D02*
D01*
X02525Y02788*
X02525Y02789*
X02524Y02789*
X02524Y02789*
X02524Y0279*
X02524Y0279*
X02524Y0279*
X02524Y02791*
X02524Y02791*
X02523Y02791*
X02523Y02791*
X02523Y02792*
X02523Y02792*
X02522Y02792*
X02522Y02792*
X02522Y02792*
X02521Y02793*
X02521Y02793*
X02521Y02793*
X02521Y02793*
X0252Y02793*
X0252Y02793*
X02519*
X02519Y02793*
X02519Y02793*
X02518Y02793*
X02518Y02793*
X02518Y02793*
X02517Y02792*
X02517Y02792*
X02517Y02792*
X02517Y02792*
X02516Y02792*
X02516Y02791*
X02516Y02791*
X02516Y02791*
X02515Y02791*
X02515Y0279*
X02515Y0279*
X02515Y0279*
X02515Y02789*
X02515Y02789*
X02515Y02789*
X02515Y02788*
X02515Y02788*
X02515Y02788*
X02515Y02787*
X02515Y02787*
X02515Y02787*
X02515Y02786*
X02515Y02786*
X02515Y02786*
X02515Y02785*
X02516Y02785*
X02516Y02785*
X02516Y02785*
X02516Y02784*
X02517Y02784*
X02517Y02784*
X02517Y02784*
X02517Y02784*
X02518Y02783*
X02518Y02783*
X02518Y02783*
X02519Y02783*
X02519Y02783*
X02519Y02783*
X0252*
X0252Y02783*
X02521Y02783*
X02521Y02783*
X02521Y02783*
X02521Y02783*
X02522Y02784*
X02522Y02784*
X02522Y02784*
X02523Y02784*
X02523Y02784*
X02523Y02785*
X02523Y02785*
X02524Y02785*
X02524Y02785*
X02524Y02786*
X02524Y02786*
X02524Y02786*
X02524Y02787*
X02524Y02787*
X02525Y02787*
X02525Y02788*
X02525Y02788*
X041Y02778D02*
D01*
X041Y02778*
X041Y02779*
X041Y02779*
X041Y02779*
X041Y0278*
X041Y0278*
X04099Y0278*
X04099Y02781*
X04099Y02781*
X04099Y02781*
X04099Y02781*
X04098Y02782*
X04098Y02782*
X04098Y02782*
X04097Y02782*
X04097Y02782*
X04097Y02783*
X04097Y02783*
X04096Y02783*
X04096Y02783*
X04096Y02783*
X04095Y02783*
X04095*
X04094Y02783*
X04094Y02783*
X04094Y02783*
X04093Y02783*
X04093Y02783*
X04093Y02782*
X04093Y02782*
X04092Y02782*
X04092Y02782*
X04092Y02782*
X04091Y02781*
X04091Y02781*
X04091Y02781*
X04091Y02781*
X04091Y0278*
X04091Y0278*
X0409Y0278*
X0409Y02779*
X0409Y02779*
X0409Y02779*
X0409Y02778*
X0409Y02778*
X0409Y02778*
X0409Y02777*
X0409Y02777*
X0409Y02777*
X0409Y02776*
X04091Y02776*
X04091Y02776*
X04091Y02775*
X04091Y02775*
X04091Y02775*
X04091Y02775*
X04092Y02774*
X04092Y02774*
X04092Y02774*
X04093Y02774*
X04093Y02774*
X04093Y02773*
X04093Y02773*
X04094Y02773*
X04094Y02773*
X04094Y02773*
X04095Y02773*
X04095*
X04096Y02773*
X04096Y02773*
X04096Y02773*
X04097Y02773*
X04097Y02773*
X04097Y02774*
X04097Y02774*
X04098Y02774*
X04098Y02774*
X04098Y02774*
X04099Y02775*
X04099Y02775*
X04099Y02775*
X04099Y02775*
X04099Y02776*
X041Y02776*
X041Y02776*
X041Y02777*
X041Y02777*
X041Y02777*
X041Y02778*
X041Y02778*
X05385Y02758D02*
D01*
X05385Y02758*
X05385Y02759*
X05385Y02759*
X05385Y02759*
X05385Y0276*
X05385Y0276*
X05384Y0276*
X05384Y02761*
X05384Y02761*
X05384Y02761*
X05384Y02761*
X05383Y02762*
X05383Y02762*
X05383Y02762*
X05382Y02762*
X05382Y02762*
X05382Y02763*
X05382Y02763*
X05381Y02763*
X05381Y02763*
X05381Y02763*
X0538Y02763*
X0538*
X05379Y02763*
X05379Y02763*
X05379Y02763*
X05378Y02763*
X05378Y02763*
X05378Y02762*
X05378Y02762*
X05377Y02762*
X05377Y02762*
X05377Y02762*
X05376Y02761*
X05376Y02761*
X05376Y02761*
X05376Y02761*
X05376Y0276*
X05376Y0276*
X05375Y0276*
X05375Y02759*
X05375Y02759*
X05375Y02759*
X05375Y02758*
X05375Y02758*
X05375Y02758*
X05375Y02757*
X05375Y02757*
X05375Y02757*
X05375Y02756*
X05376Y02756*
X05376Y02756*
X05376Y02755*
X05376Y02755*
X05376Y02755*
X05376Y02755*
X05377Y02754*
X05377Y02754*
X05377Y02754*
X05378Y02754*
X05378Y02754*
X05378Y02753*
X05378Y02753*
X05379Y02753*
X05379Y02753*
X05379Y02753*
X0538Y02753*
X0538*
X05381Y02753*
X05381Y02753*
X05381Y02753*
X05382Y02753*
X05382Y02753*
X05382Y02754*
X05382Y02754*
X05383Y02754*
X05383Y02754*
X05383Y02754*
X05384Y02755*
X05384Y02755*
X05384Y02755*
X05384Y02755*
X05384Y02756*
X05385Y02756*
X05385Y02756*
X05385Y02757*
X05385Y02757*
X05385Y02757*
X05385Y02758*
X05385Y02758*
X01455Y02788D02*
D01*
X01455Y02788*
X01455Y02789*
X01455Y02789*
X01455Y02789*
X01455Y0279*
X01455Y0279*
X01454Y0279*
X01454Y02791*
X01454Y02791*
X01454Y02791*
X01454Y02791*
X01453Y02792*
X01453Y02792*
X01453Y02792*
X01452Y02792*
X01452Y02792*
X01452Y02793*
X01452Y02793*
X01451Y02793*
X01451Y02793*
X01451Y02793*
X0145Y02793*
X0145*
X01449Y02793*
X01449Y02793*
X01449Y02793*
X01448Y02793*
X01448Y02793*
X01448Y02792*
X01448Y02792*
X01447Y02792*
X01447Y02792*
X01447Y02792*
X01446Y02791*
X01446Y02791*
X01446Y02791*
X01446Y02791*
X01446Y0279*
X01446Y0279*
X01445Y0279*
X01445Y02789*
X01445Y02789*
X01445Y02789*
X01445Y02788*
X01445Y02788*
X01445Y02788*
X01445Y02787*
X01445Y02787*
X01445Y02787*
X01445Y02786*
X01446Y02786*
X01446Y02786*
X01446Y02785*
X01446Y02785*
X01446Y02785*
X01446Y02785*
X01447Y02784*
X01447Y02784*
X01447Y02784*
X01448Y02784*
X01448Y02784*
X01448Y02783*
X01448Y02783*
X01449Y02783*
X01449Y02783*
X01449Y02783*
X0145Y02783*
X0145*
X01451Y02783*
X01451Y02783*
X01451Y02783*
X01452Y02783*
X01452Y02783*
X01452Y02784*
X01452Y02784*
X01453Y02784*
X01453Y02784*
X01453Y02784*
X01454Y02785*
X01454Y02785*
X01454Y02785*
X01454Y02785*
X01454Y02786*
X01455Y02786*
X01455Y02786*
X01455Y02787*
X01455Y02787*
X01455Y02787*
X01455Y02788*
X01455Y02788*
X01546Y03414D02*
D01*
X01546Y03414*
X01546Y03414*
X01546Y03415*
X01546Y03415*
X01546Y03415*
X01546Y03416*
X01546Y03416*
X01546Y03416*
X01545Y03417*
X01545Y03417*
X01545Y03417*
X01545Y03417*
X01544Y03418*
X01544Y03418*
X01544Y03418*
X01544Y03418*
X01543Y03418*
X01543Y03418*
X01543Y03418*
X01542Y03419*
X01542Y03419*
X01542Y03419*
X01541*
X01541Y03419*
X01541Y03419*
X0154Y03418*
X0154Y03418*
X0154Y03418*
X01539Y03418*
X01539Y03418*
X01539Y03418*
X01538Y03418*
X01538Y03417*
X01538Y03417*
X01538Y03417*
X01537Y03417*
X01537Y03416*
X01537Y03416*
X01537Y03416*
X01537Y03415*
X01537Y03415*
X01537Y03415*
X01537Y03414*
X01536Y03414*
X01536Y03414*
X01536Y03413*
X01537Y03413*
X01537Y03413*
X01537Y03412*
X01537Y03412*
X01537Y03412*
X01537Y03411*
X01537Y03411*
X01537Y03411*
X01538Y03411*
X01538Y0341*
X01538Y0341*
X01538Y0341*
X01539Y0341*
X01539Y03409*
X01539Y03409*
X0154Y03409*
X0154Y03409*
X0154Y03409*
X01541Y03409*
X01541Y03409*
X01541Y03409*
X01542*
X01542Y03409*
X01542Y03409*
X01543Y03409*
X01543Y03409*
X01543Y03409*
X01544Y03409*
X01544Y03409*
X01544Y0341*
X01544Y0341*
X01545Y0341*
X01545Y0341*
X01545Y03411*
X01545Y03411*
X01546Y03411*
X01546Y03411*
X01546Y03412*
X01546Y03412*
X01546Y03412*
X01546Y03413*
X01546Y03413*
X01546Y03413*
X01546Y03414*
X02797Y03233D02*
D01*
X02797Y03233*
X02797Y03234*
X02797Y03234*
X02797Y03234*
X02797Y03235*
X02796Y03235*
X02796Y03235*
X02796Y03236*
X02796Y03236*
X02796Y03236*
X02796Y03236*
X02795Y03237*
X02795Y03237*
X02795Y03237*
X02794Y03237*
X02794Y03237*
X02794Y03238*
X02794Y03238*
X02793Y03238*
X02793Y03238*
X02792Y03238*
X02792Y03238*
X02792*
X02791Y03238*
X02791Y03238*
X02791Y03238*
X0279Y03238*
X0279Y03238*
X0279Y03237*
X0279Y03237*
X02789Y03237*
X02789Y03237*
X02789Y03237*
X02788Y03236*
X02788Y03236*
X02788Y03236*
X02788Y03236*
X02788Y03235*
X02787Y03235*
X02787Y03235*
X02787Y03234*
X02787Y03234*
X02787Y03234*
X02787Y03233*
X02787Y03233*
X02787Y03233*
X02787Y03232*
X02787Y03232*
X02787Y03232*
X02787Y03231*
X02787Y03231*
X02788Y03231*
X02788Y0323*
X02788Y0323*
X02788Y0323*
X02788Y0323*
X02789Y03229*
X02789Y03229*
X02789Y03229*
X0279Y03229*
X0279Y03229*
X0279Y03228*
X0279Y03228*
X02791Y03228*
X02791Y03228*
X02791Y03228*
X02792Y03228*
X02792*
X02792Y03228*
X02793Y03228*
X02793Y03228*
X02794Y03228*
X02794Y03228*
X02794Y03229*
X02794Y03229*
X02795Y03229*
X02795Y03229*
X02795Y03229*
X02796Y0323*
X02796Y0323*
X02796Y0323*
X02796Y0323*
X02796Y03231*
X02796Y03231*
X02797Y03231*
X02797Y03232*
X02797Y03232*
X02797Y03232*
X02797Y03233*
X02797Y03233*
X01546Y04134D02*
D01*
X01546Y04134*
X01546Y04134*
X01546Y04135*
X01546Y04135*
X01546Y04135*
X01546Y04136*
X01546Y04136*
X01546Y04136*
X01545Y04137*
X01545Y04137*
X01545Y04137*
X01545Y04137*
X01544Y04138*
X01544Y04138*
X01544Y04138*
X01544Y04138*
X01543Y04138*
X01543Y04138*
X01543Y04138*
X01542Y04139*
X01542Y04139*
X01542Y04139*
X01541*
X01541Y04139*
X01541Y04139*
X0154Y04138*
X0154Y04138*
X0154Y04138*
X01539Y04138*
X01539Y04138*
X01539Y04138*
X01538Y04138*
X01538Y04137*
X01538Y04137*
X01538Y04137*
X01537Y04137*
X01537Y04136*
X01537Y04136*
X01537Y04136*
X01537Y04135*
X01537Y04135*
X01537Y04135*
X01537Y04134*
X01536Y04134*
X01536Y04134*
X01536Y04133*
X01537Y04133*
X01537Y04133*
X01537Y04132*
X01537Y04132*
X01537Y04132*
X01537Y04131*
X01537Y04131*
X01537Y04131*
X01538Y04131*
X01538Y0413*
X01538Y0413*
X01538Y0413*
X01539Y0413*
X01539Y04129*
X01539Y04129*
X0154Y04129*
X0154Y04129*
X0154Y04129*
X01541Y04129*
X01541Y04129*
X01541Y04129*
X01542*
X01542Y04129*
X01542Y04129*
X01543Y04129*
X01543Y04129*
X01543Y04129*
X01544Y04129*
X01544Y04129*
X01544Y0413*
X01544Y0413*
X01545Y0413*
X01545Y0413*
X01545Y04131*
X01545Y04131*
X01546Y04131*
X01546Y04131*
X01546Y04132*
X01546Y04132*
X01546Y04132*
X01546Y04133*
X01546Y04133*
X01546Y04133*
X01546Y04134*
X0501Y04023D02*
D01*
X0501Y04023*
X0501Y04024*
X0501Y04024*
X0501Y04024*
X0501Y04025*
X0501Y04025*
X05009Y04025*
X05009Y04025*
X05009Y04026*
X05009Y04026*
X05009Y04026*
X05008Y04027*
X05008Y04027*
X05008Y04027*
X05008Y04027*
X05007Y04027*
X05007Y04027*
X05007Y04028*
X05006Y04028*
X05006Y04028*
X05006Y04028*
X05005Y04028*
X05005*
X05005Y04028*
X05004Y04028*
X05004Y04028*
X05004Y04028*
X05003Y04027*
X05003Y04027*
X05003Y04027*
X05002Y04027*
X05002Y04027*
X05002Y04027*
X05002Y04026*
X05001Y04026*
X05001Y04026*
X05001Y04025*
X05001Y04025*
X05001Y04025*
X05Y04025*
X05Y04024*
X05Y04024*
X05Y04024*
X05Y04023*
X05Y04023*
X05Y04023*
X05Y04022*
X05Y04022*
X05Y04022*
X05Y04021*
X05001Y04021*
X05001Y04021*
X05001Y0402*
X05001Y0402*
X05001Y0402*
X05002Y04019*
X05002Y04019*
X05002Y04019*
X05002Y04019*
X05003Y04019*
X05003Y04018*
X05003Y04018*
X05004Y04018*
X05004Y04018*
X05004Y04018*
X05005Y04018*
X05005Y04018*
X05005*
X05006Y04018*
X05006Y04018*
X05006Y04018*
X05007Y04018*
X05007Y04018*
X05007Y04018*
X05008Y04019*
X05008Y04019*
X05008Y04019*
X05008Y04019*
X05009Y04019*
X05009Y0402*
X05009Y0402*
X05009Y0402*
X05009Y04021*
X0501Y04021*
X0501Y04021*
X0501Y04022*
X0501Y04022*
X0501Y04022*
X0501Y04023*
X0501Y04023*
X02935Y04031D02*
D01*
X02934Y04031*
X02934Y04032*
X02934Y04032*
X02934Y04032*
X02934Y04033*
X02934Y04033*
X02934Y04033*
X02934Y04034*
X02934Y04034*
X02933Y04034*
X02933Y04034*
X02933Y04035*
X02933Y04035*
X02932Y04035*
X02932Y04035*
X02932Y04036*
X02931Y04036*
X02931Y04036*
X02931Y04036*
X0293Y04036*
X0293Y04036*
X0293Y04036*
X02929*
X02929Y04036*
X02929Y04036*
X02928Y04036*
X02928Y04036*
X02928Y04036*
X02927Y04036*
X02927Y04035*
X02927Y04035*
X02927Y04035*
X02926Y04035*
X02926Y04034*
X02926Y04034*
X02926Y04034*
X02925Y04034*
X02925Y04033*
X02925Y04033*
X02925Y04033*
X02925Y04032*
X02925Y04032*
X02925Y04032*
X02925Y04031*
X02925Y04031*
X02925Y04031*
X02925Y0403*
X02925Y0403*
X02925Y0403*
X02925Y04029*
X02925Y04029*
X02925Y04029*
X02925Y04028*
X02926Y04028*
X02926Y04028*
X02926Y04028*
X02926Y04027*
X02927Y04027*
X02927Y04027*
X02927Y04027*
X02927Y04027*
X02928Y04027*
X02928Y04026*
X02928Y04026*
X02929Y04026*
X02929Y04026*
X02929Y04026*
X0293*
X0293Y04026*
X0293Y04026*
X02931Y04026*
X02931Y04026*
X02931Y04027*
X02932Y04027*
X02932Y04027*
X02932Y04027*
X02933Y04027*
X02933Y04027*
X02933Y04028*
X02933Y04028*
X02934Y04028*
X02934Y04028*
X02934Y04029*
X02934Y04029*
X02934Y04029*
X02934Y0403*
X02934Y0403*
X02934Y0403*
X02934Y04031*
X02935Y04031*
X06561Y02778D02*
D01*
X06561Y02778*
X06561Y02779*
X06561Y02779*
X06561Y02779*
X06561Y0278*
X06561Y0278*
X06561Y0278*
X0656Y02781*
X0656Y02781*
X0656Y02781*
X0656Y02781*
X0656Y02782*
X06559Y02782*
X06559Y02782*
X06559Y02782*
X06558Y02782*
X06558Y02783*
X06558Y02783*
X06558Y02783*
X06557Y02783*
X06557Y02783*
X06556Y02783*
X06556*
X06556Y02783*
X06555Y02783*
X06555Y02783*
X06555Y02783*
X06554Y02783*
X06554Y02782*
X06554Y02782*
X06554Y02782*
X06553Y02782*
X06553Y02782*
X06553Y02781*
X06553Y02781*
X06552Y02781*
X06552Y02781*
X06552Y0278*
X06552Y0278*
X06552Y0278*
X06552Y02779*
X06551Y02779*
X06551Y02779*
X06551Y02778*
X06551Y02778*
X06551Y02778*
X06551Y02777*
X06551Y02777*
X06552Y02777*
X06552Y02776*
X06552Y02776*
X06552Y02776*
X06552Y02775*
X06552Y02775*
X06553Y02775*
X06553Y02775*
X06553Y02774*
X06553Y02774*
X06554Y02774*
X06554Y02774*
X06554Y02774*
X06554Y02773*
X06555Y02773*
X06555Y02773*
X06555Y02773*
X06556Y02773*
X06556Y02773*
X06556*
X06557Y02773*
X06557Y02773*
X06558Y02773*
X06558Y02773*
X06558Y02773*
X06558Y02774*
X06559Y02774*
X06559Y02774*
X06559Y02774*
X0656Y02774*
X0656Y02775*
X0656Y02775*
X0656Y02775*
X0656Y02775*
X06561Y02776*
X06561Y02776*
X06561Y02776*
X06561Y02777*
X06561Y02777*
X06561Y02777*
X06561Y02778*
X06561Y02778*
G54D34*
X01796Y00462D02*
D01*
X01796Y00465*
X01795Y00468*
X01795Y00471*
X01794Y00473*
X01793Y00476*
X01792Y00479*
X01791Y00481*
X0179Y00483*
X01788Y00486*
X01787Y00488*
X01785Y0049*
X01783Y00492*
X01781Y00494*
X01778Y00495*
X01776Y00497*
X01774Y00498*
X01771Y00499*
X01769Y005*
X01766Y00501*
X01763Y00501*
X01761Y00502*
X01758Y00502*
X01755*
X01752Y00502*
X0175Y00501*
X01747Y00501*
X01744Y005*
X01742Y00499*
X01739Y00498*
X01737Y00497*
X01734Y00495*
X01732Y00494*
X0173Y00492*
X01728Y0049*
X01726Y00488*
X01725Y00486*
X01723Y00483*
X01722Y00481*
X0172Y00479*
X01719Y00476*
X01719Y00473*
X01718Y00471*
X01717Y00468*
X01717Y00465*
X01717Y00462*
X01717Y0046*
X01717Y00457*
X01718Y00454*
X01719Y00452*
X01719Y00449*
X0172Y00446*
X01722Y00444*
X01723Y00442*
X01725Y00439*
X01726Y00437*
X01728Y00435*
X0173Y00433*
X01732Y00431*
X01734Y0043*
X01737Y00428*
X01739Y00427*
X01742Y00426*
X01744Y00425*
X01747Y00424*
X0175Y00424*
X01752Y00423*
X01755Y00423*
X01758*
X01761Y00423*
X01763Y00424*
X01766Y00424*
X01769Y00425*
X01771Y00426*
X01774Y00427*
X01776Y00428*
X01778Y0043*
X01781Y00431*
X01783Y00433*
X01785Y00435*
X01787Y00437*
X01788Y00439*
X0179Y00442*
X01791Y00444*
X01792Y00446*
X01793Y00449*
X01794Y00452*
X01795Y00454*
X01795Y00457*
X01796Y0046*
X01796Y00462*
X03043D02*
D01*
X03043Y00465*
X03043Y00468*
X03042Y00471*
X03041Y00473*
X03041Y00476*
X0304Y00479*
X03038Y00481*
X03037Y00483*
X03035Y00486*
X03034Y00488*
X03032Y0049*
X0303Y00492*
X03028Y00494*
X03026Y00495*
X03023Y00497*
X03021Y00498*
X03018Y00499*
X03016Y005*
X03013Y00501*
X0301Y00501*
X03008Y00502*
X03005Y00502*
X03002*
X03Y00502*
X02997Y00501*
X02994Y00501*
X02991Y005*
X02989Y00499*
X02986Y00498*
X02984Y00497*
X02982Y00495*
X02979Y00494*
X02977Y00492*
X02975Y0049*
X02973Y00488*
X02972Y00486*
X0297Y00483*
X02969Y00481*
X02968Y00479*
X02967Y00476*
X02966Y00473*
X02965Y00471*
X02965Y00468*
X02964Y00465*
X02964Y00462*
X02964Y0046*
X02965Y00457*
X02965Y00454*
X02966Y00452*
X02967Y00449*
X02968Y00446*
X02969Y00444*
X0297Y00442*
X02972Y00439*
X02973Y00437*
X02975Y00435*
X02977Y00433*
X02979Y00431*
X02982Y0043*
X02984Y00428*
X02986Y00427*
X02989Y00426*
X02991Y00425*
X02994Y00424*
X02997Y00424*
X03Y00423*
X03002Y00423*
X03005*
X03008Y00423*
X0301Y00424*
X03013Y00424*
X03016Y00425*
X03018Y00426*
X03021Y00427*
X03023Y00428*
X03026Y0043*
X03028Y00431*
X0303Y00433*
X03032Y00435*
X03034Y00437*
X03035Y00439*
X03037Y00442*
X03038Y00444*
X0304Y00446*
X03041Y00449*
X03041Y00452*
X03042Y00454*
X03043Y00457*
X03043Y0046*
X03043Y00462*
X0429D02*
D01*
X0429Y00465*
X0429Y00468*
X04289Y00471*
X04289Y00473*
X04288Y00476*
X04287Y00479*
X04286Y00481*
X04284Y00483*
X04283Y00486*
X04281Y00488*
X04279Y0049*
X04277Y00492*
X04275Y00494*
X04273Y00495*
X04271Y00497*
X04268Y00498*
X04266Y00499*
X04263Y005*
X0426Y00501*
X04258Y00501*
X04255Y00502*
X04252Y00502*
X04249*
X04247Y00502*
X04244Y00501*
X04241Y00501*
X04239Y005*
X04236Y00499*
X04234Y00498*
X04231Y00497*
X04229Y00495*
X04227Y00494*
X04225Y00492*
X04223Y0049*
X04221Y00488*
X04219Y00486*
X04217Y00483*
X04216Y00481*
X04215Y00479*
X04214Y00476*
X04213Y00473*
X04212Y00471*
X04212Y00468*
X04212Y00465*
X04211Y00462*
X04212Y0046*
X04212Y00457*
X04212Y00454*
X04213Y00452*
X04214Y00449*
X04215Y00446*
X04216Y00444*
X04217Y00442*
X04219Y00439*
X04221Y00437*
X04223Y00435*
X04225Y00433*
X04227Y00431*
X04229Y0043*
X04231Y00428*
X04234Y00427*
X04236Y00426*
X04239Y00425*
X04241Y00424*
X04244Y00424*
X04247Y00423*
X04249Y00423*
X04252*
X04255Y00423*
X04258Y00424*
X0426Y00424*
X04263Y00425*
X04266Y00426*
X04268Y00427*
X04271Y00428*
X04273Y0043*
X04275Y00431*
X04277Y00433*
X04279Y00435*
X04281Y00437*
X04283Y00439*
X04284Y00442*
X04286Y00444*
X04287Y00446*
X04288Y00449*
X04289Y00452*
X04289Y00454*
X0429Y00457*
X0429Y0046*
X0429Y00462*
X05537D02*
D01*
X05537Y00465*
X05537Y00468*
X05537Y00471*
X05536Y00473*
X05535Y00476*
X05534Y00479*
X05533Y00481*
X05531Y00483*
X0553Y00486*
X05528Y00488*
X05526Y0049*
X05524Y00492*
X05522Y00494*
X0552Y00495*
X05518Y00497*
X05515Y00498*
X05513Y00499*
X0551Y005*
X05508Y00501*
X05505Y00501*
X05502Y00502*
X05499Y00502*
X05497*
X05494Y00502*
X05491Y00501*
X05489Y00501*
X05486Y005*
X05483Y00499*
X05481Y00498*
X05478Y00497*
X05476Y00495*
X05474Y00494*
X05472Y00492*
X0547Y0049*
X05468Y00488*
X05466Y00486*
X05465Y00483*
X05463Y00481*
X05462Y00479*
X05461Y00476*
X0546Y00473*
X0546Y00471*
X05459Y00468*
X05459Y00465*
X05459Y00462*
X05459Y0046*
X05459Y00457*
X0546Y00454*
X0546Y00452*
X05461Y00449*
X05462Y00446*
X05463Y00444*
X05465Y00442*
X05466Y00439*
X05468Y00437*
X0547Y00435*
X05472Y00433*
X05474Y00431*
X05476Y0043*
X05478Y00428*
X05481Y00427*
X05483Y00426*
X05486Y00425*
X05489Y00424*
X05491Y00424*
X05494Y00423*
X05497Y00423*
X05499*
X05502Y00423*
X05505Y00424*
X05508Y00424*
X0551Y00425*
X05513Y00426*
X05515Y00427*
X05518Y00428*
X0552Y0043*
X05522Y00431*
X05524Y00433*
X05526Y00435*
X05528Y00437*
X0553Y00439*
X05531Y00442*
X05533Y00444*
X05534Y00446*
X05535Y00449*
X05536Y00452*
X05537Y00454*
X05537Y00457*
X05537Y0046*
X05537Y00462*
X06785D02*
D01*
X06785Y00465*
X06784Y00468*
X06784Y00471*
X06783Y00473*
X06782Y00476*
X06781Y00479*
X0678Y00481*
X06779Y00483*
X06777Y00486*
X06775Y00488*
X06774Y0049*
X06772Y00492*
X0677Y00494*
X06767Y00495*
X06765Y00497*
X06763Y00498*
X0676Y00499*
X06757Y005*
X06755Y00501*
X06752Y00501*
X06749Y00502*
X06747Y00502*
X06744*
X06741Y00502*
X06738Y00501*
X06736Y00501*
X06733Y005*
X06731Y00499*
X06728Y00498*
X06726Y00497*
X06723Y00495*
X06721Y00494*
X06719Y00492*
X06717Y0049*
X06715Y00488*
X06713Y00486*
X06712Y00483*
X06711Y00481*
X06709Y00479*
X06708Y00476*
X06707Y00473*
X06707Y00471*
X06706Y00468*
X06706Y00465*
X06706Y00462*
X06706Y0046*
X06706Y00457*
X06707Y00454*
X06707Y00452*
X06708Y00449*
X06709Y00446*
X06711Y00444*
X06712Y00442*
X06713Y00439*
X06715Y00437*
X06717Y00435*
X06719Y00433*
X06721Y00431*
X06723Y0043*
X06726Y00428*
X06728Y00427*
X06731Y00426*
X06733Y00425*
X06736Y00424*
X06738Y00424*
X06741Y00423*
X06744Y00423*
X06747*
X06749Y00423*
X06752Y00424*
X06755Y00424*
X06757Y00425*
X0676Y00426*
X06763Y00427*
X06765Y00428*
X06767Y0043*
X0677Y00431*
X06772Y00433*
X06774Y00435*
X06775Y00437*
X06777Y00439*
X06779Y00442*
X0678Y00444*
X06781Y00446*
X06782Y00449*
X06783Y00452*
X06784Y00454*
X06784Y00457*
X06785Y0046*
X06785Y00462*
X0151Y0077D02*
X02002Y00809D01*
X0151D02*
X02002Y00848D01*
X0151D02*
X02002Y00888D01*
X0151D02*
X02002Y00927D01*
X0151D02*
X02002Y00966D01*
X0151D02*
X02002Y01006D01*
X0151D02*
X02002Y01045D01*
X0151D02*
X02002Y01085D01*
X01524Y01167D02*
X01989D01*
X02758Y0077D02*
X0325Y00809D01*
X02758D02*
X0325Y00848D01*
X02758D02*
X0325Y00888D01*
X02758D02*
X0325Y00927D01*
X02758D02*
X0325Y00966D01*
X02758D02*
X0325Y01006D01*
X02758D02*
X0325Y01045D01*
X02758D02*
X0325Y01085D01*
X02771Y01167D02*
X03236D01*
X04005Y0077D02*
X04497Y00809D01*
X04005D02*
X04497Y00848D01*
X04005D02*
X04497Y00888D01*
X04005D02*
X04497Y00927D01*
X04005D02*
X04497Y00966D01*
X04005D02*
X04497Y01006D01*
X04005D02*
X04497Y01045D01*
X04005D02*
X04497Y01085D01*
X04019Y01167D02*
X04483D01*
X05252Y0077D02*
X05744Y00809D01*
X05252D02*
X05744Y00848D01*
X05252D02*
X05744Y00888D01*
X05252D02*
X05744Y00927D01*
X05252D02*
X05744Y00966D01*
X05252D02*
X05744Y01006D01*
X05252D02*
X05744Y01045D01*
X05252D02*
X05744Y01085D01*
X05266Y01167D02*
X0573D01*
X06499Y0077D02*
X06991Y00809D01*
X06499D02*
X06991Y00848D01*
X06499D02*
X06991Y00888D01*
X06499D02*
X06991Y00927D01*
X06499D02*
X06991Y00966D01*
X06499D02*
X06991Y01006D01*
X06499D02*
X06991Y01045D01*
X06499D02*
X06991Y01085D01*
X06513Y01167D02*
X06978D01*
G54D35*
X02885Y03191D02*
D01*
X02884Y03192*
X02884Y03193*
X02884Y03193*
X02884Y03194*
X02884Y03194*
X02884Y03195*
X02884Y03195*
X02883Y03196*
X02883Y03196*
X02883Y03196*
X02882Y03197*
X02882Y03197*
X02881Y03198*
X02881Y03198*
X02881Y03198*
X0288Y03199*
X0288Y03199*
X02879Y03199*
X02879Y03199*
X02878Y03199*
X02877Y03199*
X02877Y03199*
X02876*
X02876Y03199*
X02875Y03199*
X02875Y03199*
X02874Y03199*
X02874Y03199*
X02873Y03199*
X02873Y03198*
X02872Y03198*
X02872Y03198*
X02871Y03197*
X02871Y03197*
X02871Y03196*
X0287Y03196*
X0287Y03196*
X0287Y03195*
X02869Y03195*
X02869Y03194*
X02869Y03194*
X02869Y03193*
X02869Y03193*
X02869Y03192*
X02869Y03191*
X02869Y03191*
X02869Y0319*
X02869Y0319*
X02869Y03189*
X02869Y03189*
X02869Y03188*
X0287Y03188*
X0287Y03187*
X0287Y03187*
X02871Y03186*
X02871Y03186*
X02871Y03186*
X02872Y03185*
X02872Y03185*
X02873Y03185*
X02873Y03184*
X02874Y03184*
X02874Y03184*
X02875Y03184*
X02875Y03184*
X02876Y03184*
X02876Y03184*
X02877*
X02877Y03184*
X02878Y03184*
X02879Y03184*
X02879Y03184*
X0288Y03184*
X0288Y03184*
X02881Y03185*
X02881Y03185*
X02881Y03185*
X02882Y03186*
X02882Y03186*
X02883Y03186*
X02883Y03187*
X02883Y03187*
X02884Y03188*
X02884Y03188*
X02884Y03189*
X02884Y03189*
X02884Y0319*
X02884Y0319*
X02884Y03191*
X02885Y03191*
G54D36*
X03727Y02221D02*
X03742D01*
X03727Y02248D02*
X03742D01*
X05818Y03776D02*
X05881D01*
X05818Y03973D02*
X05881D01*
Y03776D02*
Y03973D01*
X05818Y03776D02*
Y03973D01*
X02579Y02581D02*
X0265D01*
X02579Y02778D02*
X0265D01*
Y02581D02*
Y02778D01*
X02579Y02581D02*
Y02778D01*
X02502Y02221D02*
X02517D01*
X02502Y02248D02*
X02517D01*
X02135Y01894D02*
Y02265D01*
X02037Y01894D02*
X02135D01*
X02037Y01835D02*
Y01894D01*
X01939Y01835D02*
X02037D01*
X01939D02*
Y02265D01*
X02135*
X01858Y01894D02*
Y02265D01*
X0176Y01894D02*
X01858D01*
X0176Y01835D02*
Y01894D01*
X01661Y01835D02*
X0176D01*
X01661D02*
Y02265D01*
X01858*
X01262Y02221D02*
X01277D01*
X01262Y02248D02*
X01277D01*
X02287Y02058D02*
X02302D01*
X02287Y02031D02*
X02302D01*
X02507Y02058D02*
X02522D01*
X02507Y02031D02*
X02522D01*
X01262Y02058D02*
X01277D01*
X01262Y02031D02*
X01277D01*
X01102Y02058D02*
X01117D01*
X01102Y02031D02*
X01117D01*
X06763Y04142D02*
Y04157D01*
X06736Y04142D02*
Y04157D01*
X04592Y04456D02*
X04607D01*
X04592Y04483D02*
X04607D01*
X04822D02*
X04837D01*
X04822Y04456D02*
X04837D01*
X04592Y04586D02*
X04607D01*
X04592Y04613D02*
X04607D01*
X04822Y04608D02*
X04837D01*
X04822Y04581D02*
X04837D01*
X02267Y02746D02*
X02282D01*
X02267Y02773D02*
X02282D01*
X02267Y02566D02*
X02282D01*
X02267Y02593D02*
X02282D01*
X06307Y02861D02*
X06322D01*
X06307Y02888D02*
X06322D01*
X06307Y03016D02*
X06322D01*
X06307Y03043D02*
X06322D01*
X01192Y02746D02*
X01207D01*
X01192Y02773D02*
X01207D01*
X01192Y02566D02*
X01207D01*
X01192Y02593D02*
X01207D01*
X03822Y02736D02*
X03837D01*
X03822Y02763D02*
X03837D01*
X03822Y02556D02*
X03837D01*
X03822Y02583D02*
X03837D01*
X05227Y03016D02*
X05242D01*
X05227Y03043D02*
X05242D01*
X05227Y02861D02*
X05242D01*
X05227Y02888D02*
X05242D01*
X01822Y02773D02*
X01837D01*
X01822Y02746D02*
X01837D01*
X01822Y02566D02*
X01837D01*
X01822Y02593D02*
X01837D01*
X01162Y01541D02*
X01177D01*
X01162Y01568D02*
X01177D01*
X01162Y01393D02*
X01177D01*
X01162Y01366D02*
X01177D01*
X02912Y02773D02*
X02927D01*
X02912Y02746D02*
X02927D01*
X02912Y02566D02*
X02927D01*
X02912Y02593D02*
X02927D01*
X02394Y01541D02*
X0241D01*
X02394Y01568D02*
X0241D01*
X02392Y01393D02*
X02407D01*
X02392Y01366D02*
X02407D01*
X06092Y01541D02*
X06107D01*
X06092Y01568D02*
X06107D01*
X06092Y01393D02*
X06107D01*
X06092Y01366D02*
X06107D01*
X06972Y03043D02*
X06988D01*
X06972Y03016D02*
X06988D01*
X06972Y02861D02*
X06988D01*
X06972Y02888D02*
X06988D01*
X04432Y02773D02*
X04447D01*
X04432Y02746D02*
X04447D01*
X04432Y02566D02*
X04447D01*
X04432Y02593D02*
X04447D01*
X03627Y01541D02*
X03642D01*
X03627Y01568D02*
X03642D01*
X03627Y01393D02*
X03642D01*
X03627Y01366D02*
X03642D01*
X05772Y03043D02*
X05787D01*
X05772Y03016D02*
X05787D01*
X05772Y02861D02*
X05787D01*
X05772Y02888D02*
X05787D01*
X04859Y01541D02*
X04875D01*
X04859Y01568D02*
X04875D01*
X04859Y01393D02*
X04875D01*
X04859Y01366D02*
X04875D01*
X03184Y03196D02*
X032D01*
X03184Y03223D02*
X032D01*
X04154Y02571D02*
X04225D01*
X04154Y02768D02*
X04225D01*
Y02571D02*
Y02768D01*
X04154Y02571D02*
Y02768D01*
X05439Y02551D02*
X0551D01*
X05439Y02748D02*
X0551D01*
Y02551D02*
Y02748D01*
X05439Y02551D02*
Y02748D01*
X03383Y01894D02*
Y02265D01*
X03285Y01894D02*
X03383D01*
X03285Y01835D02*
Y01894D01*
X03186Y01835D02*
X03285D01*
X03186D02*
Y02265D01*
X03383*
X03103Y01894D02*
Y02265D01*
X03005Y01894D02*
X03103D01*
X03005Y01835D02*
Y01894D01*
X02906Y01835D02*
X03005D01*
X02906D02*
Y02265D01*
X03103*
X04627Y01894D02*
Y02265D01*
X04528Y01894D02*
X04627D01*
X04528Y01835D02*
Y01894D01*
X0443Y01835D02*
X04528D01*
X0443D02*
Y02265D01*
X04627*
X04349Y01894D02*
Y02265D01*
X04251Y01894D02*
X04349D01*
X04251Y01835D02*
Y01894D01*
X04152Y01835D02*
X04251D01*
X04152D02*
Y02265D01*
X04349*
X03727Y02058D02*
X03742D01*
X03727Y02031D02*
X03742D01*
X03527Y02058D02*
X03542D01*
X03527Y02031D02*
X03542D01*
X05873Y01889D02*
Y0226D01*
X05775Y01889D02*
X05873D01*
X05775Y0183D02*
Y01889D01*
X05676Y0183D02*
X05775D01*
X05676D02*
Y0226D01*
X05873*
X05598Y01889D02*
Y0226D01*
X055Y01889D02*
X05598D01*
X055Y0183D02*
Y01889D01*
X05401Y0183D02*
X055D01*
X05401D02*
Y0226D01*
X05598*
X04992Y02058D02*
X05007D01*
X04992Y02031D02*
X05007D01*
X04787Y02058D02*
X04802D01*
X04787Y02031D02*
X04802D01*
X07115Y01889D02*
Y0226D01*
X07017Y01889D02*
X07115D01*
X07017Y0183D02*
Y01889D01*
X06919Y0183D02*
X07017D01*
X06919D02*
Y0226D01*
X07115*
X06843Y01889D02*
Y0226D01*
X06745Y01889D02*
X06843D01*
X06745Y0183D02*
Y01889D01*
X06646Y0183D02*
X06745D01*
X06646D02*
Y0226D01*
X06843*
X06227Y02058D02*
X06242D01*
X06227Y02031D02*
X06242D01*
X06227Y02221D02*
X06242D01*
X06227Y02248D02*
X06242D01*
X06002Y02058D02*
X06017D01*
X06002Y02031D02*
X06017D01*
X01509Y02581D02*
X0158D01*
X01509Y02778D02*
X0158D01*
Y02581D02*
Y02778D01*
X01509Y02581D02*
Y02778D01*
X02015Y04615D02*
Y04715D01*
X01815Y04615D02*
X02015D01*
X01815D02*
Y04715D01*
X02015*
X02025Y0344D02*
Y04365D01*
Y0444*
X01925D02*
X02025D01*
X01925Y0344D02*
Y0444D01*
Y0344D02*
X02025D01*
X0398D02*
Y04365D01*
Y0444*
X0388D02*
X0398D01*
X0388Y0344D02*
Y0444D01*
Y0344D02*
X0398D01*
X04354Y04458D02*
Y04461D01*
X04355Y04593D02*
Y04596D01*
X01465Y01675D02*
X02048D01*
Y0112D02*
Y01675D01*
X02002Y0112D02*
X02048D01*
X02002Y0077D02*
Y0112D01*
X01945Y0077D02*
X02002D01*
X01945Y00301D02*
Y0077D01*
X01567Y00301D02*
X01945D01*
X01567D02*
Y0077D01*
X0151D02*
X01567D01*
X0151D02*
Y0112D01*
X01465D02*
X0151D01*
X01465D02*
Y01675D01*
X0151Y0112D02*
X02002D01*
X01567Y0077D02*
X01945D01*
X02712Y01675D02*
X03295D01*
Y0112D02*
Y01675D01*
X0325Y0112D02*
X03295D01*
X0325Y0077D02*
Y0112D01*
X03193Y0077D02*
X0325D01*
X03193Y00301D02*
Y0077D01*
X02815Y00301D02*
X03193D01*
X02815D02*
Y0077D01*
X02758D02*
X02815D01*
X02758D02*
Y0112D01*
X02712D02*
X02758D01*
X02712D02*
Y01675D01*
X02758Y0112D02*
X0325D01*
X02815Y0077D02*
X03193D01*
X0396Y01675D02*
X04542D01*
Y0112D02*
Y01675D01*
X04497Y0112D02*
X04542D01*
X04497Y0077D02*
Y0112D01*
X0444Y0077D02*
X04497D01*
X0444Y00301D02*
Y0077D01*
X04062Y00301D02*
X0444D01*
X04062D02*
Y0077D01*
X04005D02*
X04062D01*
X04005D02*
Y0112D01*
X0396D02*
X04005D01*
X0396D02*
Y01675D01*
X04005Y0112D02*
X04497D01*
X04062Y0077D02*
X0444D01*
X05207Y01675D02*
X05789D01*
Y0112D02*
Y01675D01*
X05744Y0112D02*
X05789D01*
X05744Y0077D02*
Y0112D01*
X05687Y0077D02*
X05744D01*
X05687Y00301D02*
Y0077D01*
X05309Y00301D02*
X05687D01*
X05309D02*
Y0077D01*
X05252D02*
X05309D01*
X05252D02*
Y0112D01*
X05207D02*
X05252D01*
X05207D02*
Y01675D01*
X05252Y0112D02*
X05744D01*
X05309Y0077D02*
X05687D01*
X06454Y01675D02*
X07037D01*
Y0112D02*
Y01675D01*
X06991Y0112D02*
X07037D01*
X06991Y0077D02*
Y0112D01*
X06934Y0077D02*
X06991D01*
X06934Y00301D02*
Y0077D01*
X06556Y00301D02*
X06934D01*
X06556D02*
Y0077D01*
X06499D02*
X06556D01*
X06499D02*
Y0112D01*
X06454D02*
X06499D01*
X06454D02*
Y01675D01*
X06499Y0112D02*
X06991D01*
X06556Y0077D02*
X06934D01*
X01278Y03355D02*
X01541D01*
X01278Y03244D02*
X01541D01*
Y03355*
X01278Y03244D02*
Y03355D01*
X05085Y0456D02*
Y0466D01*
X05485*
X05085Y0456D02*
X05485D01*
Y0466*
X05835Y0261D02*
Y0271D01*
X06335*
X05835Y0261D02*
X06335D01*
Y0271*
X0373Y0263D02*
Y0273D01*
X0313Y0263D02*
Y0273D01*
X0373*
X0313Y0263D02*
X0373D01*
X04605Y0261D02*
Y0271D01*
X05105*
X04605Y0261D02*
X05105D01*
Y0271*
X0447Y03175D02*
Y03275D01*
X0497*
X0447Y03175D02*
X0497D01*
Y03275*
X0655Y03175D02*
X0685D01*
Y03275*
X0655D02*
X0685D01*
X0655Y03175D02*
Y03275D01*
X01544Y03666D02*
X0156D01*
X01544Y03693D02*
X0156D01*
X02845Y03026D02*
X02924D01*
X02845Y03223D02*
X02924D01*
Y03026D02*
Y03223D01*
X02845Y03026D02*
Y03223D01*
X01278Y03964D02*
Y04075D01*
X01541Y03964D02*
Y04075D01*
X01278Y03964D02*
X01541D01*
X01278Y04075D02*
X01541D01*
X01544Y04443D02*
X0156D01*
X01544Y04416D02*
X0156D01*
X06177Y03961D02*
X06192D01*
X06177Y03988D02*
X06192D01*
X06375Y0456D02*
Y0466D01*
X05975Y0456D02*
X06375D01*
X05975Y0466D02*
X06375D01*
X05975Y0456D02*
Y0466D01*
X04759Y03981D02*
Y03997D01*
X04776*
X04759Y03745D02*
Y03762D01*
Y03745D02*
X04776D01*
X04994D02*
X05011D01*
Y03762*
Y03981D02*
Y03997D01*
X04994D02*
X05011D01*
X02919Y04005D02*
X02935D01*
Y03989D02*
Y04005D01*
Y03754D02*
Y0377D01*
X02919Y03754D02*
X02935D01*
X02684D02*
X027D01*
X02684D02*
Y0377D01*
Y04005D02*
X027D01*
X02684Y03989D02*
Y04005D01*
X04991Y0167D02*
X05006D01*
X04991Y01697D02*
X05006D01*
X05233Y02221D02*
X05249D01*
X05233Y02248D02*
X05249D01*
X05233Y02031D02*
X05249D01*
X05233Y02058D02*
X05249D01*
X0372Y01681D02*
X03735D01*
X0372Y01708D02*
X03735D01*
X03982Y02221D02*
X03998D01*
X03982Y02248D02*
X03998D01*
X03982Y02031D02*
X03998D01*
X03982Y02058D02*
X03998D01*
X02701Y02221D02*
X02716D01*
X02701Y02248D02*
X02716D01*
X02701Y02031D02*
X02716D01*
X02701Y02058D02*
X02716D01*
X01484Y02031D02*
X01499D01*
X01484Y02058D02*
X01499D01*
X01484Y02221D02*
X01499D01*
X01484Y02248D02*
X01499D01*
X06224Y01681D02*
X06239D01*
X06224Y01708D02*
X06239D01*
X06467Y02221D02*
X06483D01*
X06467Y02248D02*
X06483D01*
X06467Y02031D02*
X06483D01*
X06467Y02058D02*
X06483D01*
X01259Y01679D02*
X01274D01*
X01259Y01706D02*
X01274D01*
X02497Y01689D02*
X02512D01*
X02497Y01716D02*
X02512D01*
X06615Y02571D02*
X06686D01*
X06615Y02768D02*
X06686D01*
Y02571D02*
Y02768D01*
X06615Y02571D02*
Y02768D01*
X04992Y02221D02*
X05007D01*
X04992Y02248D02*
X05007D01*
G54D37*
X01524Y01167D02*
Y01482D01*
X01989*
Y01167D02*
Y01482D01*
X02002Y0112D02*
X02048D01*
Y01675*
X01465D02*
X02048D01*
X01465Y0112D02*
Y01675D01*
Y0112D02*
X0151D01*
X01945Y0077D02*
X02002D01*
Y0112*
X0151D02*
X02002D01*
X0151Y0077D02*
Y0112D01*
Y0077D02*
X01567D01*
Y00301D02*
Y0077D01*
X01945*
Y00301D02*
Y0077D01*
X01567Y00301D02*
X01945D01*
X02771Y01167D02*
Y01482D01*
X03236*
Y01167D02*
Y01482D01*
X0325Y0112D02*
X03295D01*
Y01675*
X02712D02*
X03295D01*
X02712Y0112D02*
Y01675D01*
Y0112D02*
X02758D01*
X03193Y0077D02*
X0325D01*
Y0112*
X02758D02*
X0325D01*
X02758Y0077D02*
Y0112D01*
Y0077D02*
X02815D01*
Y00301D02*
Y0077D01*
X03193*
Y00301D02*
Y0077D01*
X02815Y00301D02*
X03193D01*
X04019Y01167D02*
Y01482D01*
X04483*
Y01167D02*
Y01482D01*
X04497Y0112D02*
X04542D01*
Y01675*
X0396D02*
X04542D01*
X0396Y0112D02*
Y01675D01*
Y0112D02*
X04005D01*
X0444Y0077D02*
X04497D01*
Y0112*
X04005D02*
X04497D01*
X04005Y0077D02*
Y0112D01*
Y0077D02*
X04062D01*
Y00301D02*
Y0077D01*
X0444*
Y00301D02*
Y0077D01*
X04062Y00301D02*
X0444D01*
X05266Y01167D02*
Y01482D01*
X0573*
Y01167D02*
Y01482D01*
X05744Y0112D02*
X05789D01*
Y01675*
X05207D02*
X05789D01*
X05207Y0112D02*
Y01675D01*
Y0112D02*
X05252D01*
X05687Y0077D02*
X05744D01*
Y0112*
X05252D02*
X05744D01*
X05252Y0077D02*
Y0112D01*
Y0077D02*
X05309D01*
Y00301D02*
Y0077D01*
X05687*
Y00301D02*
Y0077D01*
X05309Y00301D02*
X05687D01*
X06513Y01167D02*
Y01482D01*
X06978*
Y01167D02*
Y01482D01*
X06991Y0112D02*
X07037D01*
Y01675*
X06454D02*
X07037D01*
X06454Y0112D02*
Y01675D01*
Y0112D02*
X06499D01*
X06934Y0077D02*
X06991D01*
Y0112*
X06499D02*
X06991D01*
X06499Y0077D02*
Y0112D01*
Y0077D02*
X06556D01*
Y00301D02*
Y0077D01*
X06934*
Y00301D02*
Y0077D01*
X06556Y00301D02*
X06934D01*
M02*