%FSTAX23Y23*%
%MOIN*%
%SFA1B1*%

%IPPOS*%
%ADD25C,0.047240*%
%ADD59C,0.003940*%
%LNhanc_analog-1*%
%LPD*%
G54D25*
X01Y01D02*
X0727D01*
Y04835*
X01D02*
X0727D01*
X01Y01D02*
Y04835D01*
G54D59*
X05826Y03937D02*
D01*
X05826Y03939*
X05826Y0394*
X05825Y03942*
X05825Y03943*
X05825Y03944*
X05824Y03945*
X05824Y03947*
X05823Y03948*
X05822Y03949*
X05821Y0395*
X0582Y03951*
X05819Y03952*
X05818Y03953*
X05817Y03954*
X05816Y03955*
X05815Y03955*
X05814Y03956*
X05812Y03956*
X05811Y03957*
X0581Y03957*
X05808Y03957*
X05807Y03957*
X05806*
X05804Y03957*
X05803Y03957*
X05801Y03957*
X058Y03956*
X05799Y03956*
X05798Y03955*
X05796Y03955*
X05795Y03954*
X05794Y03953*
X05793Y03952*
X05792Y03951*
X05791Y0395*
X0579Y03949*
X05789Y03948*
X05789Y03947*
X05788Y03945*
X05788Y03944*
X05787Y03943*
X05787Y03942*
X05787Y0394*
X05787Y03939*
X05787Y03937*
X05787Y03936*
X05787Y03935*
X05787Y03933*
X05787Y03932*
X05788Y03931*
X05788Y03929*
X05789Y03928*
X05789Y03927*
X0579Y03926*
X05791Y03925*
X05792Y03924*
X05793Y03923*
X05794Y03922*
X05795Y03921*
X05796Y0392*
X05798Y0392*
X05799Y03919*
X058Y03919*
X05801Y03918*
X05803Y03918*
X05804Y03918*
X05806Y03918*
X05807*
X05808Y03918*
X0581Y03918*
X05811Y03918*
X05812Y03919*
X05814Y03919*
X05815Y0392*
X05816Y0392*
X05817Y03921*
X05818Y03922*
X05819Y03923*
X0582Y03924*
X05821Y03925*
X05822Y03926*
X05823Y03927*
X05824Y03928*
X05824Y03929*
X05825Y03931*
X05825Y03932*
X05825Y03933*
X05826Y03935*
X05826Y03936*
X05826Y03937*
X02591Y02742D02*
D01*
X0259Y02744*
X0259Y02745*
X0259Y02747*
X0259Y02748*
X02589Y02749*
X02589Y0275*
X02588Y02752*
X02588Y02753*
X02587Y02754*
X02586Y02755*
X02585Y02756*
X02584Y02757*
X02583Y02758*
X02582Y02759*
X02581Y0276*
X02579Y0276*
X02578Y02761*
X02577Y02761*
X02576Y02762*
X02574Y02762*
X02573Y02762*
X02572Y02762*
X0257*
X02569Y02762*
X02567Y02762*
X02566Y02762*
X02565Y02761*
X02563Y02761*
X02562Y0276*
X02561Y0276*
X0256Y02759*
X02559Y02758*
X02558Y02757*
X02557Y02756*
X02556Y02755*
X02555Y02754*
X02554Y02753*
X02553Y02752*
X02553Y0275*
X02552Y02749*
X02552Y02748*
X02552Y02747*
X02551Y02745*
X02551Y02744*
X02551Y02742*
X02551Y02741*
X02551Y0274*
X02552Y02738*
X02552Y02737*
X02552Y02736*
X02553Y02734*
X02553Y02733*
X02554Y02732*
X02555Y02731*
X02556Y0273*
X02557Y02729*
X02558Y02728*
X02559Y02727*
X0256Y02726*
X02561Y02725*
X02562Y02725*
X02563Y02724*
X02565Y02724*
X02566Y02723*
X02567Y02723*
X02569Y02723*
X0257Y02723*
X02572*
X02573Y02723*
X02574Y02723*
X02576Y02723*
X02577Y02724*
X02578Y02724*
X02579Y02725*
X02581Y02725*
X02582Y02726*
X02583Y02727*
X02584Y02728*
X02585Y02729*
X02586Y0273*
X02587Y02731*
X02588Y02732*
X02588Y02733*
X02589Y02734*
X02589Y02736*
X0259Y02737*
X0259Y02738*
X0259Y0274*
X0259Y02741*
X02591Y02742*
X04166Y02732D02*
D01*
X04166Y02734*
X04166Y02735*
X04165Y02737*
X04165Y02738*
X04165Y02739*
X04164Y0274*
X04164Y02742*
X04163Y02743*
X04162Y02744*
X04161Y02745*
X0416Y02746*
X04159Y02747*
X04158Y02748*
X04157Y02749*
X04156Y0275*
X04155Y0275*
X04154Y02751*
X04152Y02751*
X04151Y02752*
X0415Y02752*
X04148Y02752*
X04147Y02752*
X04146*
X04144Y02752*
X04143Y02752*
X04141Y02752*
X0414Y02751*
X04139Y02751*
X04138Y0275*
X04136Y0275*
X04135Y02749*
X04134Y02748*
X04133Y02747*
X04132Y02746*
X04131Y02745*
X0413Y02744*
X04129Y02743*
X04129Y02742*
X04128Y0274*
X04128Y02739*
X04127Y02738*
X04127Y02737*
X04127Y02735*
X04127Y02734*
X04127Y02732*
X04127Y02731*
X04127Y0273*
X04127Y02728*
X04127Y02727*
X04128Y02726*
X04128Y02724*
X04129Y02723*
X04129Y02722*
X0413Y02721*
X04131Y0272*
X04132Y02719*
X04133Y02718*
X04134Y02717*
X04135Y02716*
X04136Y02715*
X04138Y02715*
X04139Y02714*
X0414Y02714*
X04141Y02713*
X04143Y02713*
X04144Y02713*
X04146Y02713*
X04147*
X04148Y02713*
X0415Y02713*
X04151Y02713*
X04152Y02714*
X04154Y02714*
X04155Y02715*
X04156Y02715*
X04157Y02716*
X04158Y02717*
X04159Y02718*
X0416Y02719*
X04161Y0272*
X04162Y02721*
X04163Y02722*
X04164Y02723*
X04164Y02724*
X04165Y02726*
X04165Y02727*
X04165Y02728*
X04166Y0273*
X04166Y02731*
X04166Y02732*
X05451Y02712D02*
D01*
X05451Y02714*
X05451Y02715*
X0545Y02717*
X0545Y02718*
X0545Y02719*
X05449Y0272*
X05449Y02722*
X05448Y02723*
X05447Y02724*
X05446Y02725*
X05445Y02726*
X05444Y02727*
X05443Y02728*
X05442Y02729*
X05441Y0273*
X0544Y0273*
X05439Y02731*
X05437Y02731*
X05436Y02732*
X05435Y02732*
X05433Y02732*
X05432Y02732*
X05431*
X05429Y02732*
X05428Y02732*
X05426Y02732*
X05425Y02731*
X05424Y02731*
X05423Y0273*
X05421Y0273*
X0542Y02729*
X05419Y02728*
X05418Y02727*
X05417Y02726*
X05416Y02725*
X05415Y02724*
X05414Y02723*
X05414Y02722*
X05413Y0272*
X05413Y02719*
X05412Y02718*
X05412Y02717*
X05412Y02715*
X05412Y02714*
X05412Y02712*
X05412Y02711*
X05412Y0271*
X05412Y02708*
X05412Y02707*
X05413Y02706*
X05413Y02704*
X05414Y02703*
X05414Y02702*
X05415Y02701*
X05416Y027*
X05417Y02699*
X05418Y02698*
X05419Y02697*
X0542Y02696*
X05421Y02695*
X05423Y02695*
X05424Y02694*
X05425Y02694*
X05426Y02693*
X05428Y02693*
X05429Y02693*
X05431Y02693*
X05432*
X05433Y02693*
X05435Y02693*
X05436Y02693*
X05437Y02694*
X05439Y02694*
X0544Y02695*
X05441Y02695*
X05442Y02696*
X05443Y02697*
X05444Y02698*
X05445Y02699*
X05446Y027*
X05447Y02701*
X05448Y02702*
X05449Y02703*
X05449Y02704*
X0545Y02706*
X0545Y02707*
X0545Y02708*
X05451Y0271*
X05451Y02711*
X05451Y02712*
X01521Y02742D02*
D01*
X01521Y02744*
X01521Y02745*
X0152Y02747*
X0152Y02748*
X0152Y02749*
X01519Y0275*
X01519Y02752*
X01518Y02753*
X01517Y02754*
X01516Y02755*
X01515Y02756*
X01514Y02757*
X01513Y02758*
X01512Y02759*
X01511Y0276*
X0151Y0276*
X01509Y02761*
X01507Y02761*
X01506Y02762*
X01505Y02762*
X01503Y02762*
X01502Y02762*
X01501*
X01499Y02762*
X01498Y02762*
X01496Y02762*
X01495Y02761*
X01494Y02761*
X01493Y0276*
X01491Y0276*
X0149Y02759*
X01489Y02758*
X01488Y02757*
X01487Y02756*
X01486Y02755*
X01485Y02754*
X01484Y02753*
X01484Y02752*
X01483Y0275*
X01483Y02749*
X01482Y02748*
X01482Y02747*
X01482Y02745*
X01482Y02744*
X01482Y02742*
X01482Y02741*
X01482Y0274*
X01482Y02738*
X01482Y02737*
X01483Y02736*
X01483Y02734*
X01484Y02733*
X01484Y02732*
X01485Y02731*
X01486Y0273*
X01487Y02729*
X01488Y02728*
X01489Y02727*
X0149Y02726*
X01491Y02725*
X01493Y02725*
X01494Y02724*
X01495Y02724*
X01496Y02723*
X01498Y02723*
X01499Y02723*
X01501Y02723*
X01502*
X01503Y02723*
X01505Y02723*
X01506Y02723*
X01507Y02724*
X01509Y02724*
X0151Y02725*
X01511Y02725*
X01512Y02726*
X01513Y02727*
X01514Y02728*
X01515Y02729*
X01516Y0273*
X01517Y02731*
X01518Y02732*
X01519Y02733*
X01519Y02734*
X0152Y02736*
X0152Y02737*
X0152Y02738*
X01521Y0274*
X01521Y02741*
X01521Y02742*
X02861Y03187D02*
D01*
X02861Y03189*
X02861Y0319*
X0286Y03192*
X0286Y03193*
X0286Y03194*
X02859Y03195*
X02859Y03197*
X02858Y03198*
X02857Y03199*
X02856Y032*
X02855Y03201*
X02854Y03202*
X02853Y03203*
X02852Y03204*
X02851Y03205*
X0285Y03205*
X02849Y03206*
X02847Y03206*
X02846Y03207*
X02845Y03207*
X02843Y03207*
X02842Y03207*
X02841*
X02839Y03207*
X02838Y03207*
X02836Y03207*
X02835Y03206*
X02834Y03206*
X02833Y03205*
X02831Y03205*
X0283Y03204*
X02829Y03203*
X02828Y03202*
X02827Y03201*
X02826Y032*
X02825Y03199*
X02824Y03198*
X02824Y03197*
X02823Y03195*
X02823Y03194*
X02822Y03193*
X02822Y03192*
X02822Y0319*
X02822Y03189*
X02822Y03187*
X02822Y03186*
X02822Y03185*
X02822Y03183*
X02822Y03182*
X02823Y03181*
X02823Y03179*
X02824Y03178*
X02824Y03177*
X02825Y03176*
X02826Y03175*
X02827Y03174*
X02828Y03173*
X02829Y03172*
X0283Y03171*
X02831Y0317*
X02833Y0317*
X02834Y03169*
X02835Y03169*
X02836Y03168*
X02838Y03168*
X02839Y03168*
X02841Y03168*
X02842*
X02843Y03168*
X02845Y03168*
X02846Y03168*
X02847Y03169*
X02849Y03169*
X0285Y0317*
X02851Y0317*
X02852Y03171*
X02853Y03172*
X02854Y03173*
X02855Y03174*
X02856Y03175*
X02857Y03176*
X02858Y03177*
X02859Y03178*
X02859Y03179*
X0286Y03181*
X0286Y03182*
X0286Y03183*
X02861Y03185*
X02861Y03186*
X02861Y03187*
X04989Y03956D02*
D01*
X04989Y03957*
X04989Y03959*
X04989Y0396*
X04989Y03961*
X04988Y03963*
X04988Y03964*
X04987Y03965*
X04986Y03966*
X04986Y03968*
X04985Y03969*
X04984Y0397*
X04983Y03971*
X04982Y03971*
X04981Y03972*
X04979Y03973*
X04978Y03974*
X04977Y03974*
X04976Y03975*
X04974Y03975*
X04973Y03975*
X04972Y03976*
X0497Y03976*
X04969*
X04968Y03976*
X04966Y03975*
X04965Y03975*
X04964Y03975*
X04962Y03974*
X04961Y03974*
X0496Y03973*
X04959Y03972*
X04958Y03971*
X04956Y03971*
X04955Y0397*
X04955Y03969*
X04954Y03968*
X04953Y03966*
X04952Y03965*
X04952Y03964*
X04951Y03963*
X04951Y03961*
X0495Y0396*
X0495Y03959*
X0495Y03957*
X0495Y03956*
X0495Y03955*
X0495Y03953*
X0495Y03952*
X04951Y03951*
X04951Y03949*
X04952Y03948*
X04952Y03947*
X04953Y03946*
X04954Y03944*
X04955Y03943*
X04955Y03942*
X04956Y03941*
X04958Y0394*
X04959Y0394*
X0496Y03939*
X04961Y03938*
X04962Y03938*
X04964Y03937*
X04965Y03937*
X04966Y03937*
X04968Y03936*
X04969Y03936*
X0497*
X04972Y03936*
X04973Y03937*
X04974Y03937*
X04976Y03937*
X04977Y03938*
X04978Y03938*
X04979Y03939*
X04981Y0394*
X04982Y0394*
X04983Y03941*
X04984Y03942*
X04985Y03943*
X04986Y03944*
X04986Y03946*
X04987Y03947*
X04988Y03948*
X04988Y03949*
X04989Y03951*
X04989Y03952*
X04989Y03953*
X04989Y03955*
X04989Y03956*
X02914Y03964D02*
D01*
X02914Y03966*
X02914Y03967*
X02913Y03968*
X02913Y0397*
X02913Y03971*
X02912Y03972*
X02912Y03973*
X02911Y03975*
X0291Y03976*
X02909Y03977*
X02908Y03978*
X02907Y03979*
X02906Y0398*
X02905Y0398*
X02904Y03981*
X02903Y03982*
X02902Y03982*
X029Y03983*
X02899Y03983*
X02898Y03984*
X02896Y03984*
X02895Y03984*
X02893*
X02892Y03984*
X02891Y03984*
X02889Y03983*
X02888Y03983*
X02887Y03982*
X02886Y03982*
X02884Y03981*
X02883Y0398*
X02882Y0398*
X02881Y03979*
X0288Y03978*
X02879Y03977*
X02878Y03976*
X02877Y03975*
X02877Y03973*
X02876Y03972*
X02876Y03971*
X02875Y0397*
X02875Y03968*
X02875Y03967*
X02874Y03966*
X02874Y03964*
X02874Y03963*
X02875Y03961*
X02875Y0396*
X02875Y03959*
X02876Y03957*
X02876Y03956*
X02877Y03955*
X02877Y03954*
X02878Y03953*
X02879Y03951*
X0288Y0395*
X02881Y0395*
X02882Y03949*
X02883Y03948*
X02884Y03947*
X02886Y03946*
X02887Y03946*
X02888Y03945*
X02889Y03945*
X02891Y03945*
X02892Y03945*
X02893Y03944*
X02895*
X02896Y03945*
X02898Y03945*
X02899Y03945*
X029Y03945*
X02902Y03946*
X02903Y03946*
X02904Y03947*
X02905Y03948*
X02906Y03949*
X02907Y0395*
X02908Y0395*
X02909Y03951*
X0291Y03953*
X02911Y03954*
X02912Y03955*
X02912Y03956*
X02913Y03957*
X02913Y03959*
X02913Y0396*
X02914Y03961*
X02914Y03963*
X02914Y03964*
X06627Y02732D02*
D01*
X06627Y02734*
X06627Y02735*
X06627Y02737*
X06626Y02738*
X06626Y02739*
X06625Y0274*
X06625Y02742*
X06624Y02743*
X06623Y02744*
X06623Y02745*
X06622Y02746*
X06621Y02747*
X0662Y02748*
X06619Y02749*
X06617Y0275*
X06616Y0275*
X06615Y02751*
X06614Y02751*
X06612Y02752*
X06611Y02752*
X0661Y02752*
X06608Y02752*
X06607*
X06605Y02752*
X06604Y02752*
X06603Y02752*
X06601Y02751*
X066Y02751*
X06599Y0275*
X06598Y0275*
X06596Y02749*
X06595Y02748*
X06594Y02747*
X06593Y02746*
X06592Y02745*
X06592Y02744*
X06591Y02743*
X0659Y02742*
X0659Y0274*
X06589Y02739*
X06589Y02738*
X06588Y02737*
X06588Y02735*
X06588Y02734*
X06588Y02732*
X06588Y02731*
X06588Y0273*
X06588Y02728*
X06589Y02727*
X06589Y02726*
X0659Y02724*
X0659Y02723*
X06591Y02722*
X06592Y02721*
X06592Y0272*
X06593Y02719*
X06594Y02718*
X06595Y02717*
X06596Y02716*
X06598Y02715*
X06599Y02715*
X066Y02714*
X06601Y02714*
X06603Y02713*
X06604Y02713*
X06605Y02713*
X06607Y02713*
X06608*
X0661Y02713*
X06611Y02713*
X06612Y02713*
X06614Y02714*
X06615Y02714*
X06616Y02715*
X06617Y02715*
X06619Y02716*
X0662Y02717*
X06621Y02718*
X06622Y02719*
X06623Y0272*
X06623Y02721*
X06624Y02722*
X06625Y02723*
X06625Y02724*
X06626Y02726*
X06626Y02727*
X06627Y02728*
X06627Y0273*
X06627Y02731*
X06627Y02732*
X05043Y01826D02*
Y01883D01*
X04956Y01826D02*
Y01883D01*
Y01826D02*
X05043D01*
X04956Y01883D02*
X05043D01*
X03768Y02216D02*
Y02253D01*
X03701Y02216D02*
Y02253D01*
Y02216D02*
X03768D01*
X03701Y02253D02*
X03768D01*
X03491Y02206D02*
Y02263D01*
X03578Y02206D02*
Y02263D01*
X03491D02*
X03578D01*
X03491Y02206D02*
X03578D01*
X02553Y01826D02*
Y01883D01*
X02466Y01826D02*
Y01883D01*
Y01826D02*
X02553D01*
X02466Y01883D02*
X02553D01*
X05771Y03776D02*
X05928D01*
X05771Y03973D02*
X05928D01*
Y03776D02*
Y03973D01*
X05771Y03776D02*
Y03973D01*
X02535Y02581D02*
X02693D01*
X02535Y02778D02*
X02693D01*
Y02581D02*
Y02778D01*
X02535Y02581D02*
Y02778D01*
X02543Y02216D02*
Y02253D01*
X02476Y02216D02*
Y02253D01*
Y02216D02*
X02543D01*
X02476Y02253D02*
X02543D01*
X02135Y01894D02*
Y02265D01*
X01939Y01894D02*
X02135D01*
X01939D02*
Y02265D01*
X02135*
X02037Y01835D02*
Y01894D01*
X01939Y01835D02*
X02037D01*
X01939D02*
Y01894D01*
X01858D02*
Y02265D01*
X01661Y01894D02*
X01858D01*
X01661D02*
Y02265D01*
X01858*
X0176Y01835D02*
Y01894D01*
X01661Y01835D02*
X0176D01*
X01661D02*
Y01894D01*
X01303Y02216D02*
Y02253D01*
X01236Y02216D02*
Y02253D01*
Y02216D02*
X01303D01*
X01236Y02253D02*
X01303D01*
X02261Y02026D02*
Y02063D01*
X02328Y02026D02*
Y02063D01*
X02261D02*
X02328D01*
X02261Y02026D02*
X02328D01*
X02481D02*
Y02063D01*
X02548Y02026D02*
Y02063D01*
X02481D02*
X02548D01*
X02481Y02026D02*
X02548D01*
X01236D02*
Y02063D01*
X01303Y02026D02*
Y02063D01*
X01236D02*
X01303D01*
X01236Y02026D02*
X01303D01*
X01076D02*
Y02063D01*
X01143Y02026D02*
Y02063D01*
X01076D02*
X01143D01*
X01076Y02026D02*
X01143D01*
X06731Y04183D02*
X06768D01*
X06731Y04116D02*
X06768D01*
Y04183*
X06731Y04116D02*
Y04183D01*
X04633Y04451D02*
Y04488D01*
X04566Y04451D02*
Y04488D01*
Y04451D02*
X04633D01*
X04566Y04488D02*
X04633D01*
X04796Y04451D02*
Y04488D01*
X04863Y04451D02*
Y04488D01*
X04796D02*
X04863D01*
X04796Y04451D02*
X04863D01*
X04633Y04581D02*
Y04618D01*
X04566Y04581D02*
Y04618D01*
Y04581D02*
X04633D01*
X04566Y04618D02*
X04633D01*
X04796Y04576D02*
Y04613D01*
X04863Y04576D02*
Y04613D01*
X04796D02*
X04863D01*
X04796Y04576D02*
X04863D01*
X02308Y02741D02*
Y02778D01*
X02241Y02741D02*
Y02778D01*
Y02741D02*
X02308D01*
X02241Y02778D02*
X02308D01*
Y02561D02*
Y02598D01*
X02241Y02561D02*
Y02598D01*
Y02561D02*
X02308D01*
X02241Y02598D02*
X02308D01*
X06348Y02856D02*
Y02893D01*
X06281Y02856D02*
Y02893D01*
Y02856D02*
X06348D01*
X06281Y02893D02*
X06348D01*
Y03011D02*
Y03048D01*
X06281Y03011D02*
Y03048D01*
Y03011D02*
X06348D01*
X06281Y03048D02*
X06348D01*
X01233Y02741D02*
Y02778D01*
X01166Y02741D02*
Y02778D01*
Y02741D02*
X01233D01*
X01166Y02778D02*
X01233D01*
Y02561D02*
Y02598D01*
X01166Y02561D02*
Y02598D01*
Y02561D02*
X01233D01*
X01166Y02598D02*
X01233D01*
X03863Y02731D02*
Y02768D01*
X03796Y02731D02*
Y02768D01*
Y02731D02*
X03863D01*
X03796Y02768D02*
X03863D01*
Y02551D02*
Y02588D01*
X03796Y02551D02*
Y02588D01*
Y02551D02*
X03863D01*
X03796Y02588D02*
X03863D01*
X05268Y03011D02*
Y03048D01*
X05201Y03011D02*
Y03048D01*
Y03011D02*
X05268D01*
X05201Y03048D02*
X05268D01*
Y02856D02*
Y02893D01*
X05201Y02856D02*
Y02893D01*
Y02856D02*
X05268D01*
X05201Y02893D02*
X05268D01*
X01796Y02741D02*
Y02778D01*
X01863Y02741D02*
Y02778D01*
X01796D02*
X01863D01*
X01796Y02741D02*
X01863D01*
Y02561D02*
Y02598D01*
X01796Y02561D02*
Y02598D01*
Y02561D02*
X01863D01*
X01796Y02598D02*
X01863D01*
X01203Y01536D02*
Y01573D01*
X01136Y01536D02*
Y01573D01*
Y01536D02*
X01203D01*
X01136Y01573D02*
X01203D01*
X01136Y01361D02*
Y01398D01*
X01203Y01361D02*
Y01398D01*
X01136D02*
X01203D01*
X01136Y01361D02*
X01203D01*
X02886Y02741D02*
Y02778D01*
X02953Y02741D02*
Y02778D01*
X02886D02*
X02953D01*
X02886Y02741D02*
X02953D01*
Y02561D02*
Y02598D01*
X02886Y02561D02*
Y02598D01*
Y02561D02*
X02953D01*
X02886Y02598D02*
X02953D01*
X02435Y01536D02*
Y01573D01*
X02369Y01536D02*
Y01573D01*
Y01536D02*
X02435D01*
X02369Y01573D02*
X02435D01*
X02366Y01361D02*
Y01398D01*
X02433Y01361D02*
Y01398D01*
X02366D02*
X02433D01*
X02366Y01361D02*
X02433D01*
X06133Y01536D02*
Y01573D01*
X06066Y01536D02*
Y01573D01*
Y01536D02*
X06133D01*
X06066Y01573D02*
X06133D01*
X06066Y01361D02*
Y01398D01*
X06133Y01361D02*
Y01398D01*
X06066D02*
X06133D01*
X06066Y01361D02*
X06133D01*
X06947Y03011D02*
Y03048D01*
X07013Y03011D02*
Y03048D01*
X06947D02*
X07013D01*
X06947Y03011D02*
X07013D01*
Y02856D02*
Y02893D01*
X06947Y02856D02*
Y02893D01*
Y02856D02*
X07013D01*
X06947Y02893D02*
X07013D01*
X04406Y02741D02*
Y02778D01*
X04473Y02741D02*
Y02778D01*
X04406D02*
X04473D01*
X04406Y02741D02*
X04473D01*
Y02561D02*
Y02598D01*
X04406Y02561D02*
Y02598D01*
Y02561D02*
X04473D01*
X04406Y02598D02*
X04473D01*
X03668Y01536D02*
Y01573D01*
X03601Y01536D02*
Y01573D01*
Y01536D02*
X03668D01*
X03601Y01573D02*
X03668D01*
X03601Y01361D02*
Y01398D01*
X03668Y01361D02*
Y01398D01*
X03601D02*
X03668D01*
X03601Y01361D02*
X03668D01*
X05746Y03011D02*
Y03048D01*
X05813Y03011D02*
Y03048D01*
X05746D02*
X05813D01*
X05746Y03011D02*
X05813D01*
Y02856D02*
Y02893D01*
X05746Y02856D02*
Y02893D01*
Y02856D02*
X05813D01*
X05746Y02893D02*
X05813D01*
X049Y01536D02*
Y01573D01*
X04834Y01536D02*
Y01573D01*
Y01536D02*
X049D01*
X04834Y01573D02*
X049D01*
X04834Y01361D02*
Y01398D01*
X049Y01361D02*
Y01398D01*
X04834D02*
X049D01*
X04834Y01361D02*
X049D01*
X03225Y03191D02*
Y03228D01*
X03158Y03191D02*
Y03228D01*
Y03191D02*
X03225D01*
X03158Y03228D02*
X03225D01*
X04111Y02571D02*
X04268D01*
X04111Y02768D02*
X04268D01*
Y02571D02*
Y02768D01*
X04111Y02571D02*
Y02768D01*
X05396Y02551D02*
X05553D01*
X05396Y02748D02*
X05553D01*
Y02551D02*
Y02748D01*
X05396Y02551D02*
Y02748D01*
X03383Y01894D02*
Y02265D01*
X03186Y01894D02*
X03383D01*
X03186D02*
Y02265D01*
X03383*
X03285Y01835D02*
Y01894D01*
X03186Y01835D02*
X03285D01*
X03186D02*
Y01894D01*
X03103D02*
Y02265D01*
X02906Y01894D02*
X03103D01*
X02906D02*
Y02265D01*
X03103*
X03005Y01835D02*
Y01894D01*
X02906Y01835D02*
X03005D01*
X02906D02*
Y01894D01*
X04627D02*
Y02265D01*
X0443Y01894D02*
X04627D01*
X0443D02*
Y02265D01*
X04627*
X04528Y01835D02*
Y01894D01*
X0443Y01835D02*
X04528D01*
X0443D02*
Y01894D01*
X04349D02*
Y02265D01*
X04152Y01894D02*
X04349D01*
X04152D02*
Y02265D01*
X04349*
X04251Y01835D02*
Y01894D01*
X04152Y01835D02*
X04251D01*
X04152D02*
Y01894D01*
X03701Y02026D02*
Y02063D01*
X03768Y02026D02*
Y02063D01*
X03701D02*
X03768D01*
X03701Y02026D02*
X03768D01*
X03501D02*
Y02063D01*
X03568Y02026D02*
Y02063D01*
X03501D02*
X03568D01*
X03501Y02026D02*
X03568D01*
X05873Y01889D02*
Y0226D01*
X05676Y01889D02*
X05873D01*
X05676D02*
Y0226D01*
X05873*
X05775Y0183D02*
Y01889D01*
X05676Y0183D02*
X05775D01*
X05676D02*
Y01889D01*
X05598D02*
Y0226D01*
X05401Y01889D02*
X05598D01*
X05401D02*
Y0226D01*
X05598*
X055Y0183D02*
Y01889D01*
X05401Y0183D02*
X055D01*
X05401D02*
Y01889D01*
X04966Y02026D02*
Y02063D01*
X05033Y02026D02*
Y02063D01*
X04966D02*
X05033D01*
X04966Y02026D02*
X05033D01*
X04761D02*
Y02063D01*
X04828Y02026D02*
Y02063D01*
X04761D02*
X04828D01*
X04761Y02026D02*
X04828D01*
X07115Y01889D02*
Y0226D01*
X06919Y01889D02*
X07115D01*
X06919D02*
Y0226D01*
X07115*
X07017Y0183D02*
Y01889D01*
X06919Y0183D02*
X07017D01*
X06919D02*
Y01889D01*
X06843D02*
Y0226D01*
X06646Y01889D02*
X06843D01*
X06646D02*
Y0226D01*
X06843*
X06745Y0183D02*
Y01889D01*
X06646Y0183D02*
X06745D01*
X06646D02*
Y01889D01*
X06201Y02026D02*
Y02063D01*
X06268Y02026D02*
Y02063D01*
X06201D02*
X06268D01*
X06201Y02026D02*
X06268D01*
X06268Y02216D02*
Y02253D01*
X06201Y02216D02*
Y02253D01*
Y02216D02*
X06268D01*
X06201Y02253D02*
X06268D01*
X05976Y02026D02*
Y02063D01*
X06043Y02026D02*
Y02063D01*
X05976D02*
X06043D01*
X05976Y02026D02*
X06043D01*
X01466Y02581D02*
X01623D01*
X01466Y02778D02*
X01623D01*
Y02581D02*
Y02778D01*
X01466Y02581D02*
Y02778D01*
X01292Y03661D02*
Y03698D01*
X01223Y03661D02*
Y03698D01*
Y03661D02*
X01292D01*
X01223Y03698D02*
X01292D01*
X0137Y03661D02*
Y03698D01*
X01439Y03661D02*
Y03698D01*
X0137D02*
X01439D01*
X0137Y03661D02*
X01439D01*
X04455Y03658D02*
Y03696D01*
X04524Y03658D02*
Y03696D01*
X04455D02*
X04524D01*
X04455Y03658D02*
X04524D01*
X04888Y03334D02*
X04925D01*
X04888Y03403D02*
X04925D01*
X04888Y03334D02*
Y03403D01*
X04925Y03334D02*
Y03403D01*
X05164Y03334D02*
X05201D01*
X05164Y03403D02*
X05201D01*
X05164Y03334D02*
Y03403D01*
X05201Y03334D02*
Y03403D01*
X02605Y04336D02*
Y04373D01*
X02674Y04336D02*
Y04373D01*
X02605D02*
X02674D01*
X02605Y04336D02*
X02674D01*
X02929D02*
Y04373D01*
X0286Y04336D02*
Y04373D01*
Y04336D02*
X02929D01*
X0286Y04373D02*
X02929D01*
X02605Y04181D02*
Y04218D01*
X02674Y04181D02*
Y04218D01*
X02605D02*
X02674D01*
X02605Y04181D02*
X02674D01*
X05735Y04429D02*
Y04466D01*
X05804Y04429D02*
Y04466D01*
X05735D02*
X05804D01*
X05735Y04429D02*
X05804D01*
X05735Y04291D02*
Y04328D01*
X05804Y04291D02*
Y04328D01*
X05735D02*
X05804D01*
X05735Y04291D02*
X05804D01*
X05735Y04153D02*
Y0419D01*
X05804Y04153D02*
Y0419D01*
X05735D02*
X05804D01*
X05735Y04153D02*
X05804D01*
X03519Y04161D02*
Y04198D01*
X0345Y04161D02*
Y04198D01*
Y04161D02*
X03519D01*
X0345Y04198D02*
X03519D01*
X03153Y04413D02*
Y04451D01*
X03222Y04413D02*
Y04451D01*
X03153D02*
X03222D01*
X03153Y04413D02*
X03222D01*
X03519Y04336D02*
Y04373D01*
X0345Y04336D02*
Y04373D01*
Y04336D02*
X03519D01*
X0345Y04373D02*
X03519D01*
X03157Y03051D02*
Y03088D01*
X03226Y03051D02*
Y03088D01*
X03157D02*
X03226D01*
X03157Y03051D02*
X03226D01*
X02564D02*
Y03088D01*
X02495Y03051D02*
Y03088D01*
Y03051D02*
X02564D01*
X02495Y03088D02*
X02564D01*
Y03191D02*
Y03228D01*
X02495Y03191D02*
Y03228D01*
Y03191D02*
X02564D01*
X02495Y03228D02*
X02564D01*
X03217Y0429D02*
Y04327D01*
X03148Y0429D02*
Y04327D01*
Y0429D02*
X03217D01*
X03148Y04327D02*
X03217D01*
X02379Y04181D02*
Y04218D01*
X0231Y04181D02*
Y04218D01*
Y04181D02*
X02379D01*
X0231Y04218D02*
X02379D01*
X03519Y03834D02*
Y03872D01*
X0345Y03834D02*
Y03872D01*
Y03834D02*
X03519D01*
X0345Y03872D02*
X03519D01*
X03226Y03832D02*
Y03869D01*
X03157Y03832D02*
Y03869D01*
Y03832D02*
X03226D01*
X03157Y03869D02*
X03226D01*
X03519Y03671D02*
Y03708D01*
X0345Y03671D02*
Y03708D01*
Y03671D02*
X03519D01*
X0345Y03708D02*
X03519D01*
X02929Y03381D02*
Y03418D01*
X0286Y03381D02*
Y03418D01*
Y03381D02*
X02929D01*
X0286Y03418D02*
X02929D01*
Y03511D02*
Y03548D01*
X0286Y03511D02*
Y03548D01*
Y03511D02*
X02929D01*
X0286Y03548D02*
X02929D01*
X03226Y03511D02*
Y03548D01*
X03157Y03511D02*
Y03548D01*
Y03511D02*
X03226D01*
X03157Y03548D02*
X03226D01*
X03229Y03366D02*
Y03403D01*
X0316Y03366D02*
Y03403D01*
Y03366D02*
X03229D01*
X0316Y03403D02*
X03229D01*
X03979Y03021D02*
Y03058D01*
X0391Y03021D02*
Y03058D01*
Y03021D02*
X03979D01*
X0391Y03058D02*
X03979D01*
X03905Y03186D02*
Y03223D01*
X03974Y03186D02*
Y03223D01*
X03905D02*
X03974D01*
X03905Y03186D02*
X03974D01*
X03677Y03096D02*
Y03133D01*
X03746Y03096D02*
Y03133D01*
X03677D02*
X03746D01*
X03677Y03096D02*
X03746D01*
X02277Y03041D02*
Y03078D01*
X02208Y03041D02*
Y03078D01*
Y03041D02*
X02277D01*
X02208Y03078D02*
X02277D01*
Y03179D02*
Y03216D01*
X02208Y03179D02*
Y03216D01*
Y03179D02*
X02277D01*
X02208Y03216D02*
X02277D01*
Y03317D02*
Y03354D01*
X02208Y03317D02*
Y03354D01*
Y03317D02*
X02277D01*
X02208Y03354D02*
X02277D01*
X05259Y04176D02*
Y04213D01*
X0519Y04176D02*
Y04213D01*
Y04176D02*
X05259D01*
X0519Y04213D02*
X05259D01*
X04947Y04176D02*
Y04213D01*
X05016Y04176D02*
Y04213D01*
X04947D02*
X05016D01*
X04947Y04176D02*
X05016D01*
X05259Y03981D02*
Y04018D01*
X0519Y03981D02*
Y04018D01*
Y03981D02*
X05259D01*
X0519Y04018D02*
X05259D01*
X02626Y04493D02*
X02663D01*
X02626Y04562D02*
X02663D01*
X02626Y04493D02*
Y04562D01*
X02663Y04493D02*
Y04562D01*
X02764Y04493D02*
X02801D01*
X02764Y04562D02*
X02801D01*
X02764Y04493D02*
Y04562D01*
X02801Y04493D02*
Y04562D01*
X02902Y04493D02*
X02939D01*
X02902Y04562D02*
X02939D01*
X02902Y04493D02*
Y04562D01*
X02939Y04493D02*
Y04562D01*
X05534Y03756D02*
Y03793D01*
X05465Y03756D02*
Y03793D01*
Y03756D02*
X05534D01*
X05465Y03793D02*
X05534D01*
X0615Y03761D02*
Y03798D01*
X06219Y03761D02*
Y03798D01*
X0615D02*
X06219D01*
X0615Y03761D02*
X06219D01*
X04698Y04176D02*
Y04213D01*
X04767Y04176D02*
Y04213D01*
X04698D02*
X04767D01*
X04698Y04176D02*
X04767D01*
X04524D02*
Y04213D01*
X04455Y04176D02*
Y04213D01*
Y04176D02*
X04524D01*
X04455Y04213D02*
X04524D01*
X05016Y03508D02*
Y03545D01*
X04947Y03508D02*
Y03545D01*
Y03508D02*
X05016D01*
X04947Y03545D02*
X05016D01*
X0519Y03508D02*
Y03545D01*
X05259Y03508D02*
Y03545D01*
X0519D02*
X05259D01*
X0519Y03508D02*
X05259D01*
Y03706D02*
Y03743D01*
X0519Y03706D02*
Y03743D01*
Y03706D02*
X05259D01*
X0519Y03743D02*
X05259D01*
X06219Y04086D02*
Y04123D01*
X0615Y04086D02*
Y04123D01*
Y04086D02*
X06219D01*
X0615Y04123D02*
X06219D01*
X0286Y04181D02*
Y04218D01*
X02929Y04181D02*
Y04218D01*
X0286D02*
X02929D01*
X0286Y04181D02*
X02929D01*
X05474Y04176D02*
Y04213D01*
X05405Y04176D02*
Y04213D01*
Y04176D02*
X05474D01*
X05405Y04213D02*
X05474D01*
X03226Y03997D02*
Y04035D01*
X03157Y03997D02*
Y04035D01*
Y03997D02*
X03226D01*
X03157Y04035D02*
X03226D01*
X0345Y03997D02*
Y04035D01*
X03519Y03997D02*
Y04035D01*
X0345D02*
X03519D01*
X0345Y03997D02*
X03519D01*
X03226Y03666D02*
Y03703D01*
X03157Y03666D02*
Y03703D01*
Y03666D02*
X03226D01*
X03157Y03703D02*
X03226D01*
X04331Y04453D02*
Y04466D01*
X04305Y04453D02*
Y04466D01*
Y04453D02*
X04331D01*
X04305Y04466D02*
X04331D01*
X04332Y04588D02*
Y04601D01*
X04307Y04588D02*
Y04601D01*
Y04588D02*
X04332D01*
X04307Y04601D02*
X04332D01*
X01278Y03372D02*
X01541D01*
X01278Y03227D02*
X01541D01*
Y03372*
X01278Y03227D02*
Y03372D01*
X01586Y03661D02*
Y03698D01*
X01519Y03661D02*
Y03698D01*
Y03661D02*
X01586D01*
X01519Y03698D02*
X01586D01*
X02806Y03026D02*
X02963D01*
X02806Y03223D02*
X02963D01*
Y03026D02*
Y03223D01*
X02806Y03026D02*
Y03223D01*
X01223Y04448D02*
X01292D01*
X01223Y04411D02*
X01292D01*
X01223D02*
Y04448D01*
X01292Y04411D02*
Y04448D01*
X0137Y04411D02*
X01439D01*
X0137Y04448D02*
X01439D01*
Y04411D02*
Y04448D01*
X0137Y04411D02*
Y04448D01*
X01278Y03947D02*
Y04092D01*
X01541Y03947D02*
Y04092D01*
X01278Y03947D02*
X01541D01*
X01278Y04092D02*
X01541D01*
X01519Y04448D02*
X01586D01*
X01519Y04411D02*
X01586D01*
X01519D02*
Y04448D01*
X01586Y04411D02*
Y04448D01*
X0231Y03678D02*
X02379D01*
X0231Y03641D02*
X02379D01*
X0231D02*
Y03678D01*
X02379Y03641D02*
Y03678D01*
X0231Y03991D02*
X02379D01*
X0231Y04028D02*
X02379D01*
Y03991D02*
Y04028D01*
X0231Y03991D02*
Y04028D01*
X04455Y03543D02*
X04524D01*
X04455Y03506D02*
X04524D01*
X04455D02*
Y03543D01*
X04524Y03506D02*
Y03543D01*
X04455Y03853D02*
X04524D01*
X04455Y03816D02*
X04524D01*
X04455D02*
Y03853D01*
X04524Y03816D02*
Y03853D01*
X05534Y03956D02*
Y03993D01*
X05465Y03956D02*
Y03993D01*
Y03956D02*
X05534D01*
X05465Y03993D02*
X05534D01*
X0231Y03506D02*
Y03543D01*
X02379Y03506D02*
Y03543D01*
X0231D02*
X02379D01*
X0231Y03506D02*
X02379D01*
X06218Y03956D02*
Y03993D01*
X06151Y03956D02*
Y03993D01*
Y03956D02*
X06218D01*
X06151Y03993D02*
X06218D01*
X01066Y01826D02*
Y01883D01*
X01153Y01826D02*
Y01883D01*
X01066D02*
X01153D01*
X01066Y01826D02*
X01153D01*
X01066Y02206D02*
Y02263D01*
X01153Y02206D02*
Y02263D01*
X01066D02*
X01153D01*
X01066Y02206D02*
X01153D01*
X01313Y01826D02*
Y01883D01*
X01226Y01826D02*
Y01883D01*
Y01826D02*
X01313D01*
X01226Y01883D02*
X01313D01*
X02251Y01826D02*
Y01883D01*
X02338Y01826D02*
Y01883D01*
X02251D02*
X02338D01*
X02251Y01826D02*
X02338D01*
X02251Y02206D02*
Y02263D01*
X02338Y02206D02*
Y02263D01*
X02251D02*
X02338D01*
X02251Y02206D02*
X02338D01*
X03491Y01826D02*
Y01883D01*
X03578Y01826D02*
Y01883D01*
X03491D02*
X03578D01*
X03491Y01826D02*
X03578D01*
X03778D02*
Y01883D01*
X03691Y01826D02*
Y01883D01*
Y01826D02*
X03778D01*
X03691Y01883D02*
X03778D01*
X04751Y01826D02*
Y01883D01*
X04838Y01826D02*
Y01883D01*
X04751D02*
X04838D01*
X04751Y01826D02*
X04838D01*
X04751Y02206D02*
Y02263D01*
X04838Y02206D02*
Y02263D01*
X04751D02*
X04838D01*
X04751Y02206D02*
X04838D01*
X05966Y01826D02*
Y01883D01*
X06053Y01826D02*
Y01883D01*
X05966D02*
X06053D01*
X05966Y01826D02*
X06053D01*
X05966Y02206D02*
Y02263D01*
X06053Y02206D02*
Y02263D01*
X05966D02*
X06053D01*
X05966Y02206D02*
X06053D01*
X06278Y01826D02*
Y01883D01*
X06191Y01826D02*
Y01883D01*
Y01826D02*
X06278D01*
X06191Y01883D02*
X06278D01*
X04765Y03751D02*
Y03991D01*
X05005Y03751D02*
Y03991D01*
X04765Y03751D02*
X05005D01*
X04765Y03991D02*
X05005D01*
X02689Y04D02*
X0293D01*
X02689Y03759D02*
X0293D01*
Y04*
X02689Y03759D02*
Y04D01*
X04965Y01665D02*
X05032D01*
X04965Y01702D02*
X05032D01*
Y01665D02*
Y01702D01*
X04965Y01665D02*
Y01702D01*
X05292Y01826D02*
Y01883D01*
X05205Y01826D02*
Y01883D01*
Y01826D02*
X05292D01*
X05205Y01883D02*
X05292D01*
X05207Y02216D02*
X05274D01*
X05207Y02253D02*
X05274D01*
Y02216D02*
Y02253D01*
X05207Y02216D02*
Y02253D01*
Y02026D02*
X05274D01*
X05207Y02063D02*
X05274D01*
Y02026D02*
Y02063D01*
X05207Y02026D02*
Y02063D01*
X03694Y01676D02*
X03761D01*
X03694Y01713D02*
X03761D01*
Y01676D02*
Y01713D01*
X03694Y01676D02*
Y01713D01*
X04041Y01826D02*
Y01883D01*
X03954Y01826D02*
Y01883D01*
Y01826D02*
X04041D01*
X03954Y01883D02*
X04041D01*
X03956Y02216D02*
X04023D01*
X03956Y02253D02*
X04023D01*
Y02216D02*
Y02253D01*
X03956Y02216D02*
Y02253D01*
Y02026D02*
X04023D01*
X03956Y02063D02*
X04023D01*
Y02026D02*
Y02063D01*
X03956Y02026D02*
Y02063D01*
X0276Y01826D02*
Y01883D01*
X02673Y01826D02*
Y01883D01*
Y01826D02*
X0276D01*
X02673Y01883D02*
X0276D01*
X02675Y02216D02*
X02742D01*
X02675Y02253D02*
X02742D01*
Y02216D02*
Y02253D01*
X02675Y02216D02*
Y02253D01*
Y02026D02*
X02742D01*
X02675Y02063D02*
X02742D01*
Y02026D02*
Y02063D01*
X02675Y02026D02*
Y02063D01*
X01543Y01826D02*
Y01883D01*
X01456Y01826D02*
Y01883D01*
Y01826D02*
X01543D01*
X01456Y01883D02*
X01543D01*
X01458Y02026D02*
X01525D01*
X01458Y02063D02*
X01525D01*
Y02026D02*
Y02063D01*
X01458Y02026D02*
Y02063D01*
Y02216D02*
X01525D01*
X01458Y02253D02*
X01525D01*
Y02216D02*
Y02253D01*
X01458Y02216D02*
Y02253D01*
X06198Y01676D02*
X06265D01*
X06198Y01713D02*
X06265D01*
Y01676D02*
Y01713D01*
X06198Y01676D02*
Y01713D01*
X06526Y01826D02*
Y01883D01*
X06439Y01826D02*
Y01883D01*
Y01826D02*
X06526D01*
X06439Y01883D02*
X06526D01*
X06441Y02216D02*
X06508D01*
X06441Y02253D02*
X06508D01*
Y02216D02*
Y02253D01*
X06441Y02216D02*
Y02253D01*
Y02026D02*
X06508D01*
X06441Y02063D02*
X06508D01*
Y02026D02*
Y02063D01*
X06441Y02026D02*
Y02063D01*
X01233Y01674D02*
X013D01*
X01233Y01711D02*
X013D01*
Y01674D02*
Y01711D01*
X01233Y01674D02*
Y01711D01*
X02471Y01684D02*
X02538D01*
X02471Y01721D02*
X02538D01*
Y01684D02*
Y01721D01*
X02471Y01684D02*
Y01721D01*
X06572Y02571D02*
X0673D01*
X06572Y02768D02*
X0673D01*
Y02571D02*
Y02768D01*
X06572Y02571D02*
Y02768D01*
X05033Y02216D02*
Y02253D01*
X04966Y02216D02*
Y02253D01*
Y02216D02*
X05033D01*
X04966Y02253D02*
X05033D01*
X05026Y03334D02*
X05063D01*
X05026Y03403D02*
X05063D01*
X05026Y03334D02*
Y03403D01*
X05063Y03334D02*
Y03403D01*
M02*