%FSTAX23Y23*%
%MOIN*%
%SFA1B1*%

%IPPOS*%
%ADD25C,0.047240*%
%ADD59C,0.003940*%
%ADD60C,0.001970*%
%LNhanc_analog-1*%
%LPD*%
G54D25*
X01Y01D02*
Y04835D01*
X0727*
Y01D02*
Y04835D01*
X01Y01D02*
X0727D01*
G54D59*
X05026Y03369D02*
X05063D01*
X05045Y0335D02*
Y03387D01*
X05066Y03321D02*
Y03416D01*
X05023Y03321D02*
Y03416D01*
X05066*
X05023Y03321D02*
X05066D01*
X05Y02216D02*
Y02253D01*
X04981Y02235D02*
X05018D01*
X04952Y02256D02*
X05047D01*
X04952Y02213D02*
X05047D01*
X04952D02*
Y02256D01*
X05047Y02213D02*
Y02256D01*
X06631Y0267D02*
X0667D01*
X06651Y0265D02*
Y02689D01*
X02457Y01681D02*
Y01724D01*
X02552Y01681D02*
Y01724D01*
X02457D02*
X02552D01*
X02457Y01681D02*
X02552D01*
X02486Y01703D02*
X02523D01*
X02505Y01684D02*
Y01721D01*
X01219Y01671D02*
Y01714D01*
X01314Y01671D02*
Y01714D01*
X01219D02*
X01314D01*
X01219Y01671D02*
X01314D01*
X01248Y01693D02*
X01285D01*
X01267Y01674D02*
Y01711D01*
X06427Y02023D02*
Y02066D01*
X06522Y02023D02*
Y02066D01*
X06427D02*
X06522D01*
X06427Y02023D02*
X06522D01*
X06456Y02045D02*
X06493D01*
X06475Y02026D02*
Y02063D01*
X06427Y02213D02*
Y02256D01*
X06522Y02213D02*
Y02256D01*
X06427D02*
X06522D01*
X06427Y02213D02*
X06522D01*
X06456Y02235D02*
X06493D01*
X06475Y02216D02*
Y02253D01*
X06483Y01835D02*
Y01874D01*
X06463Y01855D02*
X06502D01*
X06427Y01886D02*
X06538D01*
X06427Y01823D02*
X06538D01*
X06427D02*
Y01886D01*
X06538Y01823D02*
Y01886D01*
X06184Y01673D02*
Y01716D01*
X06279Y01673D02*
Y01716D01*
X06184D02*
X06279D01*
X06184Y01673D02*
X06279D01*
X06213Y01695D02*
X0625D01*
X06232Y01676D02*
Y01713D01*
X01444Y02213D02*
Y02256D01*
X01539Y02213D02*
Y02256D01*
X01444D02*
X01539D01*
X01444Y02213D02*
X01539D01*
X01473Y02235D02*
X0151D01*
X01492Y02216D02*
Y02253D01*
X01444Y02023D02*
Y02066D01*
X01539Y02023D02*
Y02066D01*
X01444D02*
X01539D01*
X01444Y02023D02*
X01539D01*
X01473Y02045D02*
X0151D01*
X01492Y02026D02*
Y02063D01*
X01499Y01835D02*
Y01874D01*
X0148Y01855D02*
X01519D01*
X01444Y01886D02*
X01554D01*
X01444Y01823D02*
X01554D01*
X01444D02*
Y01886D01*
X01554Y01823D02*
Y01886D01*
X02661Y02023D02*
Y02066D01*
X02756Y02023D02*
Y02066D01*
X02661D02*
X02756D01*
X02661Y02023D02*
X02756D01*
X0269Y02045D02*
X02727D01*
X02709Y02026D02*
Y02063D01*
X02661Y02213D02*
Y02256D01*
X02756Y02213D02*
Y02256D01*
X02661D02*
X02756D01*
X02661Y02213D02*
X02756D01*
X0269Y02235D02*
X02727D01*
X02709Y02216D02*
Y02253D01*
X02716Y01835D02*
Y01874D01*
X02697Y01855D02*
X02736D01*
X02661Y01886D02*
X02771D01*
X02661Y01823D02*
X02771D01*
X02661D02*
Y01886D01*
X02771Y01823D02*
Y01886D01*
X03942Y02023D02*
Y02066D01*
X04037Y02023D02*
Y02066D01*
X03942D02*
X04037D01*
X03942Y02023D02*
X04037D01*
X03971Y02045D02*
X04008D01*
X0399Y02026D02*
Y02063D01*
X03942Y02213D02*
Y02256D01*
X04037Y02213D02*
Y02256D01*
X03942D02*
X04037D01*
X03942Y02213D02*
X04037D01*
X03971Y02235D02*
X04008D01*
X0399Y02216D02*
Y02253D01*
X03998Y01835D02*
Y01874D01*
X03978Y01855D02*
X04017D01*
X03942Y01886D02*
X04053D01*
X03942Y01823D02*
X04053D01*
X03942D02*
Y01886D01*
X04053Y01823D02*
Y01886D01*
X0368Y01673D02*
Y01716D01*
X03775Y01673D02*
Y01716D01*
X0368D02*
X03775D01*
X0368Y01673D02*
X03775D01*
X03709Y01695D02*
X03746D01*
X03728Y01676D02*
Y01713D01*
X05193Y02023D02*
Y02066D01*
X05288Y02023D02*
Y02066D01*
X05193D02*
X05288D01*
X05193Y02023D02*
X05288D01*
X05222Y02045D02*
X05259D01*
X05241Y02026D02*
Y02063D01*
X05193Y02213D02*
Y02256D01*
X05288Y02213D02*
Y02256D01*
X05193D02*
X05288D01*
X05193Y02213D02*
X05288D01*
X05222Y02235D02*
X05259D01*
X05241Y02216D02*
Y02253D01*
X05249Y01835D02*
Y01874D01*
X05229Y01855D02*
X05268D01*
X05193Y01886D02*
X05304D01*
X05193Y01823D02*
X05304D01*
X05193D02*
Y01886D01*
X05304Y01823D02*
Y01886D01*
X04951Y01662D02*
Y01705D01*
X05046Y01662D02*
Y01705D01*
X04951D02*
X05046D01*
X04951Y01662D02*
X05046D01*
X0498Y01684D02*
X05017D01*
X04999Y01665D02*
Y01702D01*
X0279Y0388D02*
X02829D01*
X0281Y0386D02*
Y03899D01*
X04885Y03852D02*
Y03891D01*
X04865Y03871D02*
X04905D01*
X06235Y01835D02*
Y01874D01*
X06215Y01855D02*
X06254D01*
X06179Y01886D02*
X0629D01*
X06179Y01823D02*
X0629D01*
X06179D02*
Y01886D01*
X0629Y01823D02*
Y01886D01*
X0601Y02215D02*
Y02254D01*
X0599Y02235D02*
X06029D01*
X05954Y02203D02*
X06065D01*
X05954Y02266D02*
X06065D01*
Y02203D02*
Y02266D01*
X05954Y02203D02*
Y02266D01*
X0601Y01835D02*
Y01874D01*
X0599Y01855D02*
X06029D01*
X05954Y01823D02*
X06065D01*
X05954Y01886D02*
X06065D01*
Y01823D02*
Y01886D01*
X05954Y01823D02*
Y01886D01*
X04795Y02215D02*
Y02254D01*
X04775Y02235D02*
X04814D01*
X04739Y02203D02*
X0485D01*
X04739Y02266D02*
X0485D01*
Y02203D02*
Y02266D01*
X04739Y02203D02*
Y02266D01*
X04795Y01835D02*
Y01874D01*
X04775Y01855D02*
X04814D01*
X04739Y01823D02*
X0485D01*
X04739Y01886D02*
X0485D01*
Y01823D02*
Y01886D01*
X04739Y01823D02*
Y01886D01*
X03735Y01835D02*
Y01874D01*
X03715Y01855D02*
X03754D01*
X03679Y01886D02*
X0379D01*
X03679Y01823D02*
X0379D01*
X03679D02*
Y01886D01*
X0379Y01823D02*
Y01886D01*
X03535Y01835D02*
Y01874D01*
X03515Y01855D02*
X03554D01*
X03479Y01823D02*
X0359D01*
X03479Y01886D02*
X0359D01*
Y01823D02*
Y01886D01*
X03479Y01823D02*
Y01886D01*
X02295Y02215D02*
Y02254D01*
X02275Y02235D02*
X02314D01*
X02239Y02203D02*
X0235D01*
X02239Y02266D02*
X0235D01*
Y02203D02*
Y02266D01*
X02239Y02203D02*
Y02266D01*
X02295Y01835D02*
Y01874D01*
X02275Y01855D02*
X02314D01*
X02239Y01823D02*
X0235D01*
X02239Y01886D02*
X0235D01*
Y01823D02*
Y01886D01*
X02239Y01823D02*
Y01886D01*
X0127Y01835D02*
Y01874D01*
X0125Y01855D02*
X01289D01*
X01214Y01886D02*
X01325D01*
X01214Y01823D02*
X01325D01*
X01214D02*
Y01886D01*
X01325Y01823D02*
Y01886D01*
X0111Y02215D02*
Y02254D01*
X0109Y02235D02*
X01129D01*
X01054Y02203D02*
X01165D01*
X01054Y02266D02*
X01165D01*
Y02203D02*
Y02266D01*
X01054Y02203D02*
Y02266D01*
X0111Y01835D02*
Y01874D01*
X0109Y01855D02*
X01129D01*
X01054Y01823D02*
X01165D01*
X01054Y01886D02*
X01165D01*
Y01823D02*
Y01886D01*
X01054Y01823D02*
Y01886D01*
X06185Y03956D02*
Y03993D01*
X06166Y03975D02*
X06203D01*
X06137Y03996D02*
X06232D01*
X06137Y03953D02*
X06232D01*
X06137D02*
Y03996D01*
X06232Y03953D02*
Y03996D01*
X02345Y03506D02*
Y03543D01*
X02326Y03525D02*
X02363D01*
X02297Y03503D02*
X02392D01*
X02297Y03546D02*
X02392D01*
Y03503D02*
Y03546D01*
X02297Y03503D02*
Y03546D01*
X055Y03956D02*
Y03993D01*
X05481Y03975D02*
X05518D01*
X05452Y03996D02*
X05547D01*
X05452Y03953D02*
X05547D01*
X05452D02*
Y03996D01*
X05547Y03953D02*
Y03996D01*
X04537Y03813D02*
Y03856D01*
X04442Y03813D02*
Y03856D01*
Y03813D02*
X04537D01*
X04442Y03856D02*
X04537D01*
X04471Y03835D02*
X04508D01*
X0449Y03816D02*
Y03853D01*
X04537Y03503D02*
Y03546D01*
X04442Y03503D02*
Y03546D01*
Y03503D02*
X04537D01*
X04442Y03546D02*
X04537D01*
X04471Y03525D02*
X04508D01*
X0449Y03506D02*
Y03543D01*
X02297Y03988D02*
Y04031D01*
X02392Y03988D02*
Y04031D01*
X02297D02*
X02392D01*
X02297Y03988D02*
X02392D01*
X02326Y0401D02*
X02363D01*
X02344Y03991D02*
Y04028D01*
X02392Y03638D02*
Y03681D01*
X02297Y03638D02*
Y03681D01*
Y03638D02*
X02392D01*
X02297Y03681D02*
X02392D01*
X02326Y0366D02*
X02363D01*
X02344Y03641D02*
Y03678D01*
X01599Y04408D02*
Y04451D01*
X01505Y04408D02*
Y04451D01*
Y04408D02*
X01599D01*
X01505Y04451D02*
X01599D01*
X01533Y0443D02*
X01571D01*
X01552Y04411D02*
Y04448D01*
X01268Y04191D02*
X01551D01*
X01268Y03848D02*
X01551D01*
Y04191*
X01268Y03848D02*
Y04191D01*
X0141Y04D02*
Y04039D01*
X0139Y0402D02*
X01429D01*
X01357Y04408D02*
Y04451D01*
X01452Y04408D02*
Y04451D01*
X01357D02*
X01452D01*
X01357Y04408D02*
X01452D01*
X01386Y0443D02*
X01423D01*
X01405Y04411D02*
Y04448D01*
X01304Y04408D02*
Y04451D01*
X0121Y04408D02*
Y04451D01*
Y04408D02*
X01304D01*
X0121Y04451D02*
X01304D01*
X01238Y0443D02*
X01276D01*
X01257Y04411D02*
Y04448D01*
X02865Y03125D02*
X02904D01*
X02885Y03105D02*
Y03144D01*
X01552Y03661D02*
Y03698D01*
X01533Y0368D02*
X01571D01*
X01505Y03701D02*
X01599D01*
X01505Y03658D02*
X01599D01*
X01505D02*
Y03701D01*
X01599Y03658D02*
Y03701D01*
X0139Y033D02*
X01429D01*
X0141Y0328D02*
Y03319D01*
X01268Y03128D02*
Y03471D01*
X01551Y03128D02*
Y03471D01*
X01268Y03128D02*
X01551D01*
X01268Y03471D02*
X01551D01*
X0432Y04588D02*
Y04601D01*
X04313Y04595D02*
X04326D01*
X04292Y04604D02*
X04347D01*
X04292Y04585D02*
X04347D01*
X04292D02*
Y04604D01*
X04347Y04585D02*
Y04604D01*
X04318Y04453D02*
Y04466D01*
X04311Y0446D02*
X04325D01*
X04291Y04469D02*
X04346D01*
X04291Y0445D02*
X04346D01*
X04291D02*
Y04469D01*
X04346Y0445D02*
Y04469D01*
X03192Y03666D02*
Y03703D01*
X03173Y03685D02*
X03211D01*
X03145Y03706D02*
X03239D01*
X03145Y03663D02*
X03239D01*
X03145D02*
Y03706D01*
X03239Y03663D02*
Y03706D01*
X03485Y03997D02*
Y04035D01*
X03466Y04016D02*
X03503D01*
X03437Y03995D02*
X03532D01*
X03437Y04038D02*
X03532D01*
Y03995D02*
Y04038D01*
X03437Y03995D02*
Y04038D01*
X03192Y03997D02*
Y04035D01*
X03173Y04016D02*
X03211D01*
X03145Y04038D02*
X03239D01*
X03145Y03995D02*
X03239D01*
X03145D02*
Y04038D01*
X03239Y03995D02*
Y04038D01*
X0544Y04176D02*
Y04213D01*
X05421Y04195D02*
X05458D01*
X05392Y04216D02*
X05487D01*
X05392Y04173D02*
X05487D01*
X05392D02*
Y04216D01*
X05487Y04173D02*
Y04216D01*
X02895Y04181D02*
Y04218D01*
X02876Y042D02*
X02913D01*
X02847Y04178D02*
X02942D01*
X02847Y04221D02*
X02942D01*
Y04178D02*
Y04221D01*
X02847Y04178D02*
Y04221D01*
X06185Y04086D02*
Y04123D01*
X06166Y04105D02*
X06203D01*
X06137Y04126D02*
X06232D01*
X06137Y04083D02*
X06232D01*
X06137D02*
Y04126D01*
X06232Y04083D02*
Y04126D01*
X05225Y03706D02*
Y03743D01*
X05206Y03725D02*
X05243D01*
X05177Y03746D02*
X05272D01*
X05177Y03703D02*
X05272D01*
X05177D02*
Y03746D01*
X05272Y03703D02*
Y03746D01*
X05225Y03508D02*
Y03545D01*
X05206Y03526D02*
X05243D01*
X05177Y03505D02*
X05272D01*
X05177Y03548D02*
X05272D01*
Y03505D02*
Y03548D01*
X05177Y03505D02*
Y03548D01*
X04981Y03508D02*
Y03545D01*
X04963Y03526D02*
X05D01*
X04934Y03548D02*
X05029D01*
X04934Y03505D02*
X05029D01*
X04934D02*
Y03548D01*
X05029Y03505D02*
Y03548D01*
X0449Y04176D02*
Y04213D01*
X04471Y04195D02*
X04508D01*
X04442Y04216D02*
X04537D01*
X04442Y04173D02*
X04537D01*
X04442D02*
Y04216D01*
X04537Y04173D02*
Y04216D01*
X04733Y04176D02*
Y04213D01*
X04714Y04195D02*
X04752D01*
X04686Y04173D02*
X0478D01*
X04686Y04216D02*
X0478D01*
Y04173D02*
Y04216D01*
X04686Y04173D02*
Y04216D01*
X06185Y03761D02*
Y03798D01*
X06166Y0378D02*
X06203D01*
X06137Y03758D02*
X06232D01*
X06137Y03801D02*
X06232D01*
Y03758D02*
Y03801D01*
X06137Y03758D02*
Y03801D01*
X055Y03756D02*
Y03793D01*
X05481Y03775D02*
X05518D01*
X05452Y03796D02*
X05547D01*
X05452Y03753D02*
X05547D01*
X05452D02*
Y03796D01*
X05547Y03753D02*
Y03796D01*
X02902Y04528D02*
X02939D01*
X02921Y04509D02*
Y04546D01*
X02942Y0448D02*
Y04575D01*
X02899Y0448D02*
Y04575D01*
X02942*
X02899Y0448D02*
X02942D01*
X02764Y04528D02*
X02801D01*
X02783Y04509D02*
Y04546D01*
X02804Y0448D02*
Y04575D01*
X02761Y0448D02*
Y04575D01*
X02804*
X02761Y0448D02*
X02804D01*
X02626Y04528D02*
X02663D01*
X02645Y04509D02*
Y04546D01*
X02666Y0448D02*
Y04575D01*
X02623Y0448D02*
Y04575D01*
X02666*
X02623Y0448D02*
X02666D01*
X05225Y03981D02*
Y04018D01*
X05206Y04D02*
X05243D01*
X05177Y04021D02*
X05272D01*
X05177Y03978D02*
X05272D01*
X05177D02*
Y04021D01*
X05272Y03978D02*
Y04021D01*
X04981Y04176D02*
Y04213D01*
X04963Y04195D02*
X05D01*
X04934Y04173D02*
X05029D01*
X04934Y04216D02*
X05029D01*
Y04173D02*
Y04216D01*
X04934Y04173D02*
Y04216D01*
X05225Y04176D02*
Y04213D01*
X05206Y04195D02*
X05243D01*
X05177Y04216D02*
X05272D01*
X05177Y04173D02*
X05272D01*
X05177D02*
Y04216D01*
X05272Y04173D02*
Y04216D01*
X02243Y03317D02*
Y03354D01*
X02224Y03336D02*
X02261D01*
X02195Y03357D02*
X0229D01*
X02195Y03314D02*
X0229D01*
X02195D02*
Y03357D01*
X0229Y03314D02*
Y03357D01*
X02243Y03179D02*
Y03216D01*
X02224Y03198D02*
X02261D01*
X02195Y03219D02*
X0229D01*
X02195Y03176D02*
X0229D01*
X02195D02*
Y03219D01*
X0229Y03176D02*
Y03219D01*
X02243Y03041D02*
Y03078D01*
X02224Y0306D02*
X02261D01*
X02195Y03081D02*
X0229D01*
X02195Y03038D02*
X0229D01*
X02195D02*
Y03081D01*
X0229Y03038D02*
Y03081D01*
X03712Y03096D02*
Y03133D01*
X03693Y03115D02*
X03731D01*
X03665Y03093D02*
X03759D01*
X03665Y03136D02*
X03759D01*
Y03093D02*
Y03136D01*
X03665Y03093D02*
Y03136D01*
X0394Y03186D02*
Y03223D01*
X03921Y03205D02*
X03958D01*
X03892Y03183D02*
X03987D01*
X03892Y03226D02*
X03987D01*
Y03183D02*
Y03226D01*
X03892Y03183D02*
Y03226D01*
X03945Y03021D02*
Y03058D01*
X03926Y0304D02*
X03963D01*
X03897Y03061D02*
X03992D01*
X03897Y03018D02*
X03992D01*
X03897D02*
Y03061D01*
X03992Y03018D02*
Y03061D01*
X03195Y03366D02*
Y03403D01*
X03176Y03385D02*
X03213D01*
X03147Y03406D02*
X03242D01*
X03147Y03363D02*
X03242D01*
X03147D02*
Y03406D01*
X03242Y03363D02*
Y03406D01*
X03192Y03511D02*
Y03548D01*
X03173Y0353D02*
X03211D01*
X03145Y03551D02*
X03239D01*
X03145Y03508D02*
X03239D01*
X03145D02*
Y03551D01*
X03239Y03508D02*
Y03551D01*
X02895Y03511D02*
Y03548D01*
X02876Y0353D02*
X02913D01*
X02847Y03551D02*
X02942D01*
X02847Y03508D02*
X02942D01*
X02847D02*
Y03551D01*
X02942Y03508D02*
Y03551D01*
X02895Y03381D02*
Y03418D01*
X02876Y034D02*
X02913D01*
X02847Y03421D02*
X02942D01*
X02847Y03378D02*
X02942D01*
X02847D02*
Y03421D01*
X02942Y03378D02*
Y03421D01*
X03485Y03671D02*
Y03708D01*
X03466Y0369D02*
X03503D01*
X03437Y03711D02*
X03532D01*
X03437Y03668D02*
X03532D01*
X03437D02*
Y03711D01*
X03532Y03668D02*
Y03711D01*
X03192Y03832D02*
Y03869D01*
X03173Y0385D02*
X03211D01*
X03145Y03872D02*
X03239D01*
X03145Y03829D02*
X03239D01*
X03145D02*
Y03872D01*
X03239Y03829D02*
Y03872D01*
X03485Y03834D02*
Y03872D01*
X03466Y03853D02*
X03503D01*
X03437Y03874D02*
X03532D01*
X03437Y03831D02*
X03532D01*
X03437D02*
Y03874D01*
X03532Y03831D02*
Y03874D01*
X02345Y04181D02*
Y04218D01*
X02326Y042D02*
X02363D01*
X02297Y04221D02*
X02392D01*
X02297Y04178D02*
X02392D01*
X02297D02*
Y04221D01*
X02392Y04178D02*
Y04221D01*
X03183Y0429D02*
Y04327D01*
X03164Y04309D02*
X03201D01*
X03135Y0433D02*
X0323D01*
X03135Y04287D02*
X0323D01*
X03135D02*
Y0433D01*
X0323Y04287D02*
Y0433D01*
X0253Y03191D02*
Y03228D01*
X02511Y0321D02*
X02548D01*
X02482Y03231D02*
X02577D01*
X02482Y03188D02*
X02577D01*
X02482D02*
Y03231D01*
X02577Y03188D02*
Y03231D01*
X0253Y03051D02*
Y03088D01*
X02511Y0307D02*
X02548D01*
X02482Y03091D02*
X02577D01*
X02482Y03048D02*
X02577D01*
X02482D02*
Y03091D01*
X02577Y03048D02*
Y03091D01*
X03192Y03051D02*
Y03088D01*
X03173Y0307D02*
X03211D01*
X03145Y03048D02*
X03239D01*
X03145Y03091D02*
X03239D01*
Y03048D02*
Y03091D01*
X03145Y03048D02*
Y03091D01*
X03485Y04336D02*
Y04373D01*
X03466Y04355D02*
X03503D01*
X03437Y04376D02*
X03532D01*
X03437Y04333D02*
X03532D01*
X03437D02*
Y04376D01*
X03532Y04333D02*
Y04376D01*
X03188Y04413D02*
Y04451D01*
X03169Y04432D02*
X03207D01*
X03141Y0441D02*
X03235D01*
X03141Y04453D02*
X03235D01*
Y0441D02*
Y04453D01*
X03141Y0441D02*
Y04453D01*
X03485Y04161D02*
Y04198D01*
X03466Y0418D02*
X03503D01*
X03437Y04201D02*
X03532D01*
X03437Y04158D02*
X03532D01*
X03437D02*
Y04201D01*
X03532Y04158D02*
Y04201D01*
X0577Y04153D02*
Y0419D01*
X05751Y04172D02*
X05788D01*
X05722Y0415D02*
X05817D01*
X05722Y04193D02*
X05817D01*
Y0415D02*
Y04193D01*
X05722Y0415D02*
Y04193D01*
X0577Y04291D02*
Y04328D01*
X05751Y0431D02*
X05788D01*
X05722Y04288D02*
X05817D01*
X05722Y04331D02*
X05817D01*
Y04288D02*
Y04331D01*
X05722Y04288D02*
Y04331D01*
X0577Y04429D02*
Y04466D01*
X05751Y04448D02*
X05788D01*
X05722Y04426D02*
X05817D01*
X05722Y04469D02*
X05817D01*
Y04426D02*
Y04469D01*
X05722Y04426D02*
Y04469D01*
X0264Y04181D02*
Y04218D01*
X02621Y042D02*
X02658D01*
X02592Y04178D02*
X02687D01*
X02592Y04221D02*
X02687D01*
Y04178D02*
Y04221D01*
X02592Y04178D02*
Y04221D01*
X02895Y04336D02*
Y04373D01*
X02876Y04355D02*
X02913D01*
X02847Y04376D02*
X02942D01*
X02847Y04333D02*
X02942D01*
X02847D02*
Y04376D01*
X02942Y04333D02*
Y04376D01*
X0264Y04336D02*
Y04373D01*
X02621Y04355D02*
X02658D01*
X02592Y04333D02*
X02687D01*
X02592Y04376D02*
X02687D01*
Y04333D02*
Y04376D01*
X02592Y04333D02*
Y04376D01*
X05164Y03369D02*
X05201D01*
X05183Y0335D02*
Y03387D01*
X05204Y03321D02*
Y03416D01*
X05161Y03321D02*
Y03416D01*
X05204*
X05161Y03321D02*
X05204D01*
X04888Y03369D02*
X04925D01*
X04907Y0335D02*
Y03387D01*
X04928Y03321D02*
Y03416D01*
X04885Y03321D02*
Y03416D01*
X04928*
X04885Y03321D02*
X04928D01*
X0449Y03658D02*
Y03696D01*
X04471Y03677D02*
X04508D01*
X04442Y03655D02*
X04537D01*
X04442Y03699D02*
X04537D01*
Y03655D02*
Y03699D01*
X04442Y03655D02*
Y03699D01*
X01405Y03661D02*
Y03698D01*
X01386Y0368D02*
X01423D01*
X01357Y03658D02*
X01452D01*
X01357Y03701D02*
X01452D01*
Y03658D02*
Y03701D01*
X01357Y03658D02*
Y03701D01*
X01257Y03661D02*
Y03698D01*
X01238Y0368D02*
X01276D01*
X0121Y03701D02*
X01304D01*
X0121Y03658D02*
X01304D01*
X0121D02*
Y03701D01*
X01304Y03658D02*
Y03701D01*
X01525Y0268D02*
X01564D01*
X01545Y0266D02*
Y02699D01*
X0601Y02026D02*
Y02063D01*
X05991Y02045D02*
X06028D01*
X05962Y02023D02*
X06057D01*
X05962Y02066D02*
X06057D01*
Y02023D02*
Y02066D01*
X05962Y02023D02*
Y02066D01*
X06235Y02216D02*
Y02253D01*
X06216Y02235D02*
X06253D01*
X06187Y02256D02*
X06282D01*
X06187Y02213D02*
X06282D01*
X06187D02*
Y02256D01*
X06282Y02213D02*
Y02256D01*
X06235Y02026D02*
Y02063D01*
X06216Y02045D02*
X06253D01*
X06187Y02023D02*
X06282D01*
X06187Y02066D02*
X06282D01*
Y02023D02*
Y02066D01*
X06187Y02023D02*
Y02066D01*
X06745Y02055D02*
Y02094D01*
X06725Y02075D02*
X06764D01*
X07017Y02055D02*
Y02094D01*
X06997Y02075D02*
X07037D01*
X04795Y02026D02*
Y02063D01*
X04776Y02045D02*
X04813D01*
X04747Y02023D02*
X04842D01*
X04747Y02066D02*
X04842D01*
Y02023D02*
Y02066D01*
X04747Y02023D02*
Y02066D01*
X05Y02026D02*
Y02063D01*
X04981Y02045D02*
X05018D01*
X04952Y02023D02*
X05047D01*
X04952Y02066D02*
X05047D01*
Y02023D02*
Y02066D01*
X04952Y02023D02*
Y02066D01*
X055Y02055D02*
Y02094D01*
X0548Y02075D02*
X05519D01*
X05775Y02055D02*
Y02094D01*
X05755Y02075D02*
X05794D01*
X03535Y02026D02*
Y02063D01*
X03516Y02045D02*
X03553D01*
X03487Y02023D02*
X03582D01*
X03487Y02066D02*
X03582D01*
Y02023D02*
Y02066D01*
X03487Y02023D02*
Y02066D01*
X03735Y02026D02*
Y02063D01*
X03716Y02045D02*
X03753D01*
X03687Y02023D02*
X03782D01*
X03687Y02066D02*
X03782D01*
Y02023D02*
Y02066D01*
X03687Y02023D02*
Y02066D01*
X04251Y0206D02*
Y02099D01*
X04231Y0208D02*
X04271D01*
X04528Y0206D02*
Y02099D01*
X04509Y0208D02*
X04548D01*
X03005Y0206D02*
Y02099D01*
X02985Y0208D02*
X03024D01*
X03285Y0206D02*
Y02099D01*
X03265Y0208D02*
X03304D01*
X05455Y0265D02*
X05494D01*
X05475Y0263D02*
Y02669D01*
X0417Y0267D02*
X04209D01*
X0419Y0265D02*
Y02689D01*
X03192Y03191D02*
Y03228D01*
X03173Y0321D02*
X03211D01*
X03145Y03231D02*
X03239D01*
X03145Y03188D02*
X03239D01*
X03145D02*
Y03231D01*
X03239Y03188D02*
Y03231D01*
X04867Y01361D02*
Y01398D01*
X04848Y0138D02*
X04886D01*
X0482Y01358D02*
X04914D01*
X0482Y01401D02*
X04914D01*
Y01358D02*
Y01401D01*
X0482Y01358D02*
Y01401D01*
X04867Y01536D02*
Y01573D01*
X04848Y01555D02*
X04886D01*
X0482Y01576D02*
X04914D01*
X0482Y01533D02*
X04914D01*
X0482D02*
Y01576D01*
X04914Y01533D02*
Y01576D01*
X0578Y02856D02*
Y02893D01*
X05761Y02875D02*
X05798D01*
X05732Y02896D02*
X05827D01*
X05732Y02853D02*
X05827D01*
X05732D02*
Y02896D01*
X05827Y02853D02*
Y02896D01*
X0578Y03011D02*
Y03048D01*
X05761Y0303D02*
X05798D01*
X05732Y03008D02*
X05827D01*
X05732Y03051D02*
X05827D01*
Y03008D02*
Y03051D01*
X05732Y03008D02*
Y03051D01*
X03635Y01361D02*
Y01398D01*
X03616Y0138D02*
X03653D01*
X03587Y01358D02*
X03682D01*
X03587Y01401D02*
X03682D01*
Y01358D02*
Y01401D01*
X03587Y01358D02*
Y01401D01*
X03635Y01536D02*
Y01573D01*
X03616Y01555D02*
X03653D01*
X03587Y01576D02*
X03682D01*
X03587Y01533D02*
X03682D01*
X03587D02*
Y01576D01*
X03682Y01533D02*
Y01576D01*
X0444Y02561D02*
Y02598D01*
X04421Y0258D02*
X04458D01*
X04392Y02601D02*
X04487D01*
X04392Y02558D02*
X04487D01*
X04392D02*
Y02601D01*
X04487Y02558D02*
Y02601D01*
X0444Y02741D02*
Y02778D01*
X04421Y0276D02*
X04458D01*
X04392Y02738D02*
X04487D01*
X04392Y02781D02*
X04487D01*
Y02738D02*
Y02781D01*
X04392Y02738D02*
Y02781D01*
X0698Y02856D02*
Y02893D01*
X06961Y02875D02*
X06999D01*
X06933Y02896D02*
X07027D01*
X06933Y02853D02*
X07027D01*
X06933D02*
Y02896D01*
X07027Y02853D02*
Y02896D01*
X0698Y03011D02*
Y03048D01*
X06961Y0303D02*
X06999D01*
X06933Y03008D02*
X07027D01*
X06933Y03051D02*
X07027D01*
Y03008D02*
Y03051D01*
X06933Y03008D02*
Y03051D01*
X061Y01361D02*
Y01398D01*
X06081Y0138D02*
X06118D01*
X06052Y01358D02*
X06147D01*
X06052Y01401D02*
X06147D01*
Y01358D02*
Y01401D01*
X06052Y01358D02*
Y01401D01*
X061Y01536D02*
Y01573D01*
X06081Y01555D02*
X06118D01*
X06052Y01576D02*
X06147D01*
X06052Y01533D02*
X06147D01*
X06052D02*
Y01576D01*
X06147Y01533D02*
Y01576D01*
X024Y01361D02*
Y01398D01*
X02381Y0138D02*
X02418D01*
X02352Y01358D02*
X02447D01*
X02352Y01401D02*
X02447D01*
Y01358D02*
Y01401D01*
X02352Y01358D02*
Y01401D01*
X02402Y01536D02*
Y01573D01*
X02383Y01555D02*
X02421D01*
X02355Y01576D02*
X02449D01*
X02355Y01533D02*
X02449D01*
X02355D02*
Y01576D01*
X02449Y01533D02*
Y01576D01*
X0292Y02561D02*
Y02598D01*
X02901Y0258D02*
X02938D01*
X02872Y02601D02*
X02967D01*
X02872Y02558D02*
X02967D01*
X02872D02*
Y02601D01*
X02967Y02558D02*
Y02601D01*
X0292Y02741D02*
Y02778D01*
X02901Y0276D02*
X02938D01*
X02872Y02738D02*
X02967D01*
X02872Y02781D02*
X02967D01*
Y02738D02*
Y02781D01*
X02872Y02738D02*
Y02781D01*
X0117Y01361D02*
Y01398D01*
X01151Y0138D02*
X01188D01*
X01122Y01358D02*
X01217D01*
X01122Y01401D02*
X01217D01*
Y01358D02*
Y01401D01*
X01122Y01358D02*
Y01401D01*
X0117Y01536D02*
Y01573D01*
X01151Y01555D02*
X01188D01*
X01122Y01576D02*
X01217D01*
X01122Y01533D02*
X01217D01*
X01122D02*
Y01576D01*
X01217Y01533D02*
Y01576D01*
X0183Y02561D02*
Y02598D01*
X01811Y0258D02*
X01848D01*
X01782Y02601D02*
X01877D01*
X01782Y02558D02*
X01877D01*
X01782D02*
Y02601D01*
X01877Y02558D02*
Y02601D01*
X0183Y02741D02*
Y02778D01*
X01811Y0276D02*
X01848D01*
X01782Y02738D02*
X01877D01*
X01782Y02781D02*
X01877D01*
Y02738D02*
Y02781D01*
X01782Y02738D02*
Y02781D01*
X05235Y02856D02*
Y02893D01*
X05216Y02875D02*
X05253D01*
X05187Y02896D02*
X05282D01*
X05187Y02853D02*
X05282D01*
X05187D02*
Y02896D01*
X05282Y02853D02*
Y02896D01*
X05235Y03011D02*
Y03048D01*
X05216Y0303D02*
X05253D01*
X05187Y03051D02*
X05282D01*
X05187Y03008D02*
X05282D01*
X05187D02*
Y03051D01*
X05282Y03008D02*
Y03051D01*
X0383Y02551D02*
Y02588D01*
X03811Y0257D02*
X03848D01*
X03782Y02591D02*
X03877D01*
X03782Y02548D02*
X03877D01*
X03782D02*
Y02591D01*
X03877Y02548D02*
Y02591D01*
X0383Y02731D02*
Y02768D01*
X03811Y0275D02*
X03848D01*
X03782Y02771D02*
X03877D01*
X03782Y02728D02*
X03877D01*
X03782D02*
Y02771D01*
X03877Y02728D02*
Y02771D01*
X012Y02561D02*
Y02598D01*
X01181Y0258D02*
X01218D01*
X01152Y02601D02*
X01247D01*
X01152Y02558D02*
X01247D01*
X01152D02*
Y02601D01*
X01247Y02558D02*
Y02601D01*
X012Y02741D02*
Y02778D01*
X01181Y0276D02*
X01218D01*
X01152Y02781D02*
X01247D01*
X01152Y02738D02*
X01247D01*
X01152D02*
Y02781D01*
X01247Y02738D02*
Y02781D01*
X06315Y03011D02*
Y03048D01*
X06296Y0303D02*
X06333D01*
X06267Y03051D02*
X06362D01*
X06267Y03008D02*
X06362D01*
X06267D02*
Y03051D01*
X06362Y03008D02*
Y03051D01*
X06315Y02856D02*
Y02893D01*
X06296Y02875D02*
X06333D01*
X06267Y02896D02*
X06362D01*
X06267Y02853D02*
X06362D01*
X06267D02*
Y02896D01*
X06362Y02853D02*
Y02896D01*
X02275Y02561D02*
Y02598D01*
X02256Y0258D02*
X02293D01*
X02227Y02601D02*
X02322D01*
X02227Y02558D02*
X02322D01*
X02227D02*
Y02601D01*
X02322Y02558D02*
Y02601D01*
X02275Y02741D02*
Y02778D01*
X02256Y0276D02*
X02293D01*
X02227Y02781D02*
X02322D01*
X02227Y02738D02*
X02322D01*
X02227D02*
Y02781D01*
X02322Y02738D02*
Y02781D01*
X0483Y04576D02*
Y04613D01*
X04811Y04595D02*
X04848D01*
X04782Y04573D02*
X04877D01*
X04782Y04616D02*
X04877D01*
Y04573D02*
Y04616D01*
X04782Y04573D02*
Y04616D01*
X046Y04581D02*
Y04618D01*
X04581Y046D02*
X04618D01*
X04552Y04621D02*
X04647D01*
X04552Y04578D02*
X04647D01*
X04552D02*
Y04621D01*
X04647Y04578D02*
Y04621D01*
X0483Y04451D02*
Y04488D01*
X04811Y0447D02*
X04848D01*
X04782Y04448D02*
X04877D01*
X04782Y04491D02*
X04877D01*
Y04448D02*
Y04491D01*
X04782Y04448D02*
Y04491D01*
X046Y04451D02*
Y04488D01*
X04581Y0447D02*
X04618D01*
X04552Y04491D02*
X04647D01*
X04552Y04448D02*
X04647D01*
X04552D02*
Y04491D01*
X04647Y04448D02*
Y04491D01*
X06731Y0415D02*
X06768D01*
X0675Y04131D02*
Y04168D01*
X06728Y04102D02*
Y04197D01*
X06771Y04102D02*
Y04197D01*
X06728Y04102D02*
X06771D01*
X06728Y04197D02*
X06771D01*
X0111Y02026D02*
Y02063D01*
X01091Y02045D02*
X01128D01*
X01062Y02023D02*
X01157D01*
X01062Y02066D02*
X01157D01*
Y02023D02*
Y02066D01*
X01062Y02023D02*
Y02066D01*
X0127Y02026D02*
Y02063D01*
X01251Y02045D02*
X01288D01*
X01222Y02023D02*
X01317D01*
X01222Y02066D02*
X01317D01*
Y02023D02*
Y02066D01*
X01222Y02023D02*
Y02066D01*
X02515Y02026D02*
Y02063D01*
X02496Y02045D02*
X02533D01*
X02467Y02023D02*
X02562D01*
X02467Y02066D02*
X02562D01*
Y02023D02*
Y02066D01*
X02467Y02023D02*
Y02066D01*
X02295Y02026D02*
Y02063D01*
X02276Y02045D02*
X02313D01*
X02247Y02023D02*
X02342D01*
X02247Y02066D02*
X02342D01*
Y02023D02*
Y02066D01*
X02247Y02023D02*
Y02066D01*
X0127Y02216D02*
Y02253D01*
X01251Y02235D02*
X01288D01*
X01222Y02256D02*
X01317D01*
X01222Y02213D02*
X01317D01*
X01222D02*
Y02256D01*
X01317Y02213D02*
Y02256D01*
X0176Y0206D02*
Y02099D01*
X0174Y0208D02*
X01779D01*
X02037Y0206D02*
Y02099D01*
X02017Y0208D02*
X02057D01*
X0251Y02216D02*
Y02253D01*
X02491Y02235D02*
X02528D01*
X02462Y02256D02*
X02557D01*
X02462Y02213D02*
X02557D01*
X02462D02*
Y02256D01*
X02557Y02213D02*
Y02256D01*
X02594Y0268D02*
X02634D01*
X02614Y0266D02*
Y02699D01*
X0583Y03875D02*
X05869D01*
X0585Y03855D02*
Y03894D01*
X0251Y01835D02*
Y01874D01*
X0249Y01855D02*
X02529D01*
X02454Y01886D02*
X02565D01*
X02454Y01823D02*
X02565D01*
X02454D02*
Y01886D01*
X02565Y01823D02*
Y01886D01*
X03535Y02215D02*
Y02254D01*
X03515Y02235D02*
X03554D01*
X03479Y02203D02*
X0359D01*
X03479Y02266D02*
X0359D01*
Y02203D02*
Y02266D01*
X03479Y02203D02*
Y02266D01*
X03735Y02216D02*
Y02253D01*
X03716Y02235D02*
X03753D01*
X03687Y02256D02*
X03782D01*
X03687Y02213D02*
X03782D01*
X03687D02*
Y02256D01*
X03782Y02213D02*
Y02256D01*
X05Y01835D02*
Y01874D01*
X0498Y01855D02*
X05019D01*
X04944Y01886D02*
X05055D01*
X04944Y01823D02*
X05055D01*
X04944D02*
Y01886D01*
X05055Y01823D02*
Y01886D01*
G54D60*
X06503Y02561D02*
Y02778D01*
X06798Y02561D02*
Y02778D01*
X06503D02*
X06798D01*
X06503Y02561D02*
X06798D01*
X02668Y03738D02*
Y04021D01*
X02951Y03738D02*
Y04021D01*
X02668Y03738D02*
X02951D01*
X02668Y04021D02*
X02951D01*
X04743Y04013D02*
X05027D01*
X04743Y0373D02*
X05027D01*
Y04013*
X04743Y0373D02*
Y04013D01*
X02751Y03022D02*
Y03227D01*
X03018Y03022D02*
Y03227D01*
X02751D02*
X03018D01*
X02751Y03022D02*
X03018D01*
X01397Y02571D02*
Y02788D01*
X01692Y02571D02*
Y02788D01*
X01397D02*
X01692D01*
X01397Y02571D02*
X01692D01*
X06636Y0188D02*
X06853D01*
Y02269*
X06636Y0188D02*
Y02269D01*
X06853*
X06909Y0188D02*
X07125D01*
Y02269*
X06909Y0188D02*
Y02269D01*
X07125*
X05391Y0188D02*
X05608D01*
Y02269*
X05391Y0188D02*
Y02269D01*
X05608*
X05666Y0188D02*
X05883D01*
Y02269*
X05666Y0188D02*
Y02269D01*
X05883*
X04143Y01885D02*
X04359D01*
Y02274*
X04143Y01885D02*
Y02274D01*
X04359*
X0442Y01885D02*
X04637D01*
Y02274*
X0442Y01885D02*
Y02274D01*
X04637*
X02896Y01885D02*
X03113D01*
Y02274*
X02896Y01885D02*
Y02274D01*
X03113*
X03176Y01885D02*
X03393D01*
Y02274*
X03176Y01885D02*
Y02274D01*
X03393*
X05327Y02541D02*
Y02758D01*
X05622Y02541D02*
Y02758D01*
X05327D02*
X05622D01*
X05327Y02541D02*
X05622D01*
X04042Y02561D02*
Y02778D01*
X04337Y02561D02*
Y02778D01*
X04042D02*
X04337D01*
X04042Y02561D02*
X04337D01*
X01651Y01885D02*
X01868D01*
Y02274*
X01651Y01885D02*
Y02274D01*
X01868*
X01929Y01885D02*
X02145D01*
Y02274*
X01929Y01885D02*
Y02274D01*
X02145*
X02467Y02571D02*
Y02788D01*
X02762Y02571D02*
Y02788D01*
X02467D02*
X02762D01*
X02467Y02571D02*
X02762D01*
X05684Y03756D02*
Y03993D01*
X06015Y03756D02*
Y03993D01*
X05684D02*
X06015D01*
X05684Y03756D02*
X06015D01*
M02*