%FSTAX23Y23*%
%MOIN*%
%SFA1B1*%

%IPPOS*%
%ADD57C,0.003940*%
%LNhanc_digital-1*%
%LPD*%
G54D57*
X03812Y03527D02*
D01*
X03812Y03528*
X03812Y03529*
X03812Y03531*
X03811Y03532*
X03811Y03533*
X0381Y03535*
X0381Y03536*
X03809Y03537*
X03808Y03538*
X03808Y03539*
X03807Y0354*
X03806Y03541*
X03805Y03542*
X03804Y03543*
X03802Y03544*
X03801Y03544*
X038Y03545*
X03799Y03545*
X03797Y03546*
X03796Y03546*
X03795Y03546*
X03793Y03546*
X03792*
X0379Y03546*
X03789Y03546*
X03788Y03546*
X03786Y03545*
X03785Y03545*
X03784Y03544*
X03783Y03544*
X03781Y03543*
X0378Y03542*
X03779Y03541*
X03778Y0354*
X03777Y03539*
X03777Y03538*
X03776Y03537*
X03775Y03536*
X03775Y03535*
X03774Y03533*
X03774Y03532*
X03773Y03531*
X03773Y03529*
X03773Y03528*
X03773Y03527*
X03773Y03525*
X03773Y03524*
X03773Y03522*
X03774Y03521*
X03774Y0352*
X03775Y03519*
X03775Y03517*
X03776Y03516*
X03777Y03515*
X03777Y03514*
X03778Y03513*
X03779Y03512*
X0378Y03511*
X03781Y0351*
X03783Y03509*
X03784Y03509*
X03785Y03508*
X03786Y03508*
X03788Y03507*
X03789Y03507*
X0379Y03507*
X03792Y03507*
X03793*
X03795Y03507*
X03796Y03507*
X03797Y03507*
X03799Y03508*
X038Y03508*
X03801Y03509*
X03802Y03509*
X03804Y0351*
X03805Y03511*
X03806Y03512*
X03807Y03513*
X03808Y03514*
X03808Y03515*
X03809Y03516*
X0381Y03517*
X0381Y03519*
X03811Y0352*
X03811Y03521*
X03812Y03522*
X03812Y03524*
X03812Y03525*
X03812Y03527*
X05404Y0398D02*
D01*
X05404Y03981*
X05404Y03982*
X05404Y03984*
X05403Y03985*
X05403Y03986*
X05402Y03988*
X05402Y03989*
X05401Y0399*
X054Y03991*
X05399Y03992*
X05399Y03993*
X05398Y03994*
X05396Y03995*
X05395Y03996*
X05394Y03997*
X05393Y03997*
X05392Y03998*
X0539Y03998*
X05389Y03999*
X05388Y03999*
X05386Y03999*
X05385Y03999*
X05384*
X05382Y03999*
X05381Y03999*
X0538Y03999*
X05378Y03998*
X05377Y03998*
X05376Y03997*
X05374Y03997*
X05373Y03996*
X05372Y03995*
X05371Y03994*
X0537Y03993*
X05369Y03992*
X05368Y03991*
X05368Y0399*
X05367Y03989*
X05366Y03988*
X05366Y03986*
X05365Y03985*
X05365Y03984*
X05365Y03982*
X05365Y03981*
X05365Y0398*
X05365Y03978*
X05365Y03977*
X05365Y03976*
X05365Y03974*
X05366Y03973*
X05366Y03972*
X05367Y0397*
X05368Y03969*
X05368Y03968*
X05369Y03967*
X0537Y03966*
X05371Y03965*
X05372Y03964*
X05373Y03963*
X05374Y03963*
X05376Y03962*
X05377Y03961*
X05378Y03961*
X0538Y03961*
X05381Y0396*
X05382Y0396*
X05384Y0396*
X05385*
X05386Y0396*
X05388Y0396*
X05389Y03961*
X0539Y03961*
X05392Y03961*
X05393Y03962*
X05394Y03963*
X05395Y03963*
X05396Y03964*
X05398Y03965*
X05399Y03966*
X05399Y03967*
X054Y03968*
X05401Y03969*
X05402Y0397*
X05402Y03972*
X05403Y03973*
X05403Y03974*
X05404Y03976*
X05404Y03977*
X05404Y03978*
X05404Y0398*
X05353Y03178D02*
X05396D01*
X05353Y03201D02*
X05396D01*
Y03178D02*
Y03201D01*
X05353Y03178D02*
Y03201D01*
X04603Y03058D02*
X04646D01*
X04603Y03081D02*
X04646D01*
Y03058D02*
Y03081D01*
X04603Y03058D02*
Y03081D01*
X04913Y02968D02*
X04956D01*
X04913Y02991D02*
X04956D01*
Y02968D02*
Y02991D01*
X04913Y02968D02*
Y02991D01*
X05418Y02748D02*
X05461D01*
X05418Y02771D02*
X05461D01*
Y02748D02*
Y02771D01*
X05418Y02748D02*
Y02771D01*
X05874Y028D02*
X05917D01*
X05874Y02823D02*
X05917D01*
Y028D02*
Y02823D01*
X05874Y028D02*
Y02823D01*
X05861Y03134D02*
X05904D01*
X05861Y03157D02*
X05904D01*
Y03134D02*
Y03157D01*
X05861Y03134D02*
Y03157D01*
X05071Y03425D02*
X05108D01*
X05071Y03494D02*
X05108D01*
X05071Y03425D02*
Y03494D01*
X05108Y03425D02*
Y03494D01*
X0514Y03866D02*
Y03903D01*
X05209Y03866D02*
Y03903D01*
X0514D02*
X05209D01*
X0514Y03866D02*
X05209D01*
X0609Y03698D02*
Y03831D01*
X06019Y03698D02*
Y03831D01*
X0609*
X06019Y03698D02*
X0609D01*
X05985Y04281D02*
X06029D01*
X05985Y04258D02*
X06029D01*
X05985D02*
Y04281D01*
X06029Y04258D02*
Y04281D01*
X05885Y04203D02*
X05929D01*
X05885Y04226D02*
X05929D01*
Y04203D02*
Y04226D01*
X05885Y04203D02*
Y04226D01*
X05775Y04281D02*
X05819D01*
X05775Y04258D02*
X05819D01*
X05775D02*
Y04281D01*
X05819Y04258D02*
Y04281D01*
X05665Y04231D02*
X05709D01*
X05665Y04208D02*
X05709D01*
X05665D02*
Y04231D01*
X05709Y04208D02*
Y04231D01*
X05558Y04291D02*
X05601D01*
X05558Y04268D02*
X05601D01*
X05558D02*
Y04291D01*
X05601Y04268D02*
Y04291D01*
X05455Y04226D02*
X05499D01*
X05455Y04203D02*
X05499D01*
X05455D02*
Y04226D01*
X05499Y04203D02*
Y04226D01*
X05348Y04301D02*
X05391D01*
X05348Y04278D02*
X05391D01*
X05348D02*
Y04301D01*
X05391Y04278D02*
Y04301D01*
X05235Y04241D02*
X05279D01*
X05235Y04218D02*
X05279D01*
X05235D02*
Y04241D01*
X05279Y04218D02*
Y04241D01*
X05201Y03573D02*
Y03616D01*
X05178Y03573D02*
Y03616D01*
X05201*
X05178Y03573D02*
X05201D01*
X05108Y03738D02*
Y03781D01*
X05131Y03738D02*
Y03781D01*
X05108Y03738D02*
X05131D01*
X05108Y03781D02*
X05131D01*
X04852Y03476D02*
Y04083D01*
X04627Y03476D02*
Y04083D01*
X04852*
X04627Y03476D02*
X04852D01*
X03757Y03367D02*
Y03562D01*
X03952Y03367D02*
Y03562D01*
X03757D02*
X03952D01*
X03757Y03367D02*
X03952D01*
X03808Y04281D02*
Y04347D01*
X03771Y04281D02*
Y04347D01*
X03808*
X03771Y04281D02*
X03808D01*
X05103Y04415D02*
Y04482D01*
X05066Y04415D02*
Y04482D01*
X05103*
X05066Y04415D02*
X05103D01*
X06068Y04016D02*
Y04083D01*
X06031Y04016D02*
Y04083D01*
X06068*
X06031Y04016D02*
X06068D01*
X04643Y04401D02*
Y04468D01*
X04606Y04401D02*
Y04468D01*
X04643*
X04606Y04401D02*
X04643D01*
X03928Y04087D02*
Y04232D01*
X04191Y04087D02*
Y04232D01*
X03928Y04087D02*
X04191D01*
X03928Y04232D02*
X04191D01*
X0377Y03701D02*
X03839D01*
X0377Y03738D02*
X03839D01*
Y03701D02*
Y03738D01*
X0377Y03701D02*
Y03738D01*
X03875Y03701D02*
X03944D01*
X03875Y03738D02*
X03944D01*
Y03701D02*
Y03738D01*
X03875Y03701D02*
Y03738D01*
X03631Y0347D02*
Y03539D01*
X03668Y0347D02*
Y03539D01*
X03631Y0347D02*
X03668D01*
X03631Y03539D02*
X03668D01*
X04108Y03605D02*
Y03674D01*
X04071Y03605D02*
Y03674D01*
X04108*
X04071Y03605D02*
X04108D01*
X04103Y0337D02*
Y03439D01*
X04066Y0337D02*
Y03439D01*
X04103*
X04066Y0337D02*
X04103D01*
X04011Y0348D02*
Y03549D01*
X04048Y0348D02*
Y03549D01*
X04011Y0348D02*
X04048D01*
X04011Y03549D02*
X04048D01*
X06101Y03915D02*
Y03984D01*
X06138Y03915D02*
Y03984D01*
X06101Y03915D02*
X06138D01*
X06101Y03984D02*
X06138D01*
X04463Y04398D02*
Y04467D01*
X04426Y04398D02*
Y04467D01*
X04463*
X04426Y04398D02*
X04463D01*
X05081Y0394D02*
Y04009D01*
X05118Y0394D02*
Y04009D01*
X05081Y0394D02*
X05118D01*
X05081Y04009D02*
X05118D01*
X03678Y04275D02*
Y04344D01*
X03641Y04275D02*
Y04344D01*
X03678*
X03641Y04275D02*
X03678D01*
X03717Y04106D02*
X03786D01*
X03717Y04143D02*
X03786D01*
Y04106D02*
Y04143D01*
X03717Y04106D02*
Y04143D01*
X04803Y04397D02*
Y04464D01*
X04766Y04397D02*
Y04464D01*
X04803*
X04766Y04397D02*
X04803D01*
X04953Y04401D02*
Y04468D01*
X04916Y04401D02*
Y04468D01*
X04953*
X04916Y04401D02*
X04953D01*
X0619Y03593D02*
Y03726D01*
X06119Y03593D02*
Y03726D01*
X0619*
X06119Y03593D02*
X0619D01*
X05349Y03464D02*
Y04015D01*
X059Y03464D02*
Y04015D01*
X05349D02*
X059D01*
X05349Y03464D02*
X059D01*
M02*