%FSTAX23Y23*%
%MOIN*%
%SFA1B1*%

%IPPOS*%
%ADD23R,0.059060X0.059060*%
%ADD26C,0.010000*%
%ADD31C,0.059060*%
%ADD32R,0.059060X0.059060*%
%ADD33C,0.025000*%
%LNhanc_digital-1*%
%LPD*%
G54D23*
X06385Y04235D03*
X0443D03*
G54D26*
X0568Y04445D02*
X05795Y0433D01*
X0627*
X0638Y0444*
X0443Y03935D02*
X05762D01*
X06008Y03629D02*
X0602Y03641D01*
X05154Y03675D02*
Y03768D01*
X042Y03606D02*
X04279Y03685D01*
X04869*
X04956Y03597*
X05358*
X04115Y03364D02*
X04125Y03374D01*
X03809Y03387D02*
X03832Y03364D01*
X053Y03994D02*
X05352Y04046D01*
X05991Y03421D02*
X06174D01*
X05743Y04237D02*
X0586Y0412D01*
X04003Y03442D02*
Y03738D01*
X04157Y03892D02*
X05225D01*
X05254Y03862*
X0548Y04445D02*
X05787Y04138D01*
X03978Y03672D02*
X03979Y03671D01*
X04536Y04036D02*
X04627Y04127D01*
X05428*
X05287Y03646D02*
X05302Y0366D01*
Y03837D02*
X05322Y03858D01*
X04407Y03394D02*
X0534D01*
X04574Y03221D02*
X04666Y03129D01*
X05335Y03655D02*
X0536Y0368D01*
X04992Y03614D02*
X05334D01*
X05318Y03647D02*
Y03661D01*
X05353Y03696D02*
X06261D01*
X0443Y03635D02*
X04454Y03611D01*
X04808*
X05521Y03572D02*
Y03578D01*
X05279Y03249D02*
X05388Y03358D01*
X03862Y03277D02*
X05142D01*
X03984Y03406D02*
X04048D01*
X05809Y04303D02*
X05887D01*
X06261Y03696D02*
X06385Y03835D01*
X0443D02*
X04825D01*
X05029Y0363*
X053*
X05098Y03646D02*
X05287D01*
X0421Y03874D02*
X04411D01*
X04413Y03875D02*
X04446D01*
X04448Y03874*
X05066D02*
X05148Y03791D01*
X03605Y0415D02*
X03945Y0449D01*
X05322Y03858D02*
X0557D01*
X05302Y0366D02*
Y03837D01*
X0504Y03705D02*
X05098Y03646D01*
X0501Y03705D02*
X0504D01*
X0602Y03641D02*
X06242D01*
X0586Y03722D02*
X05861Y03721D01*
X0586Y03722D02*
Y0412D01*
X05373Y03612D02*
Y03649D01*
X05358Y03597D02*
X05373Y03612D01*
X05254Y03675D02*
Y03862D01*
X04003Y03738D02*
X04157Y03892D01*
X05197Y03791D02*
X05204Y03785D01*
X05148Y03791D02*
X05197D01*
X04448Y03874D02*
X05066D01*
X04411D02*
X04413Y03875D01*
X04043Y03706D02*
X0421Y03874D01*
X04043Y03449D02*
Y03706D01*
X04389Y03412D02*
X04407Y03394D01*
X04389Y03412D02*
Y03494D01*
X0443Y03535*
X0538Y04355D02*
X05605Y0413D01*
X0538Y04355D02*
Y04445D01*
X05504Y03129D02*
X05645Y0327D01*
X04666Y03129D02*
X05504D01*
X04873Y03194D02*
X05495D01*
X0558Y04445D02*
X05978Y04047D01*
Y03903D02*
Y04047D01*
X0451Y03585D02*
X04549Y03546D01*
X04389Y03585D02*
X0451D01*
X0536Y0368D02*
X05395D01*
X05334Y03614D02*
X05335Y03655D01*
X04871Y03735D02*
X04992Y03614D01*
X0443Y03735D02*
X04871D01*
X05675Y03663D02*
X06228D01*
X06261Y03696*
X05318Y03661D02*
X05353Y03696D01*
X053Y0363D02*
X05318Y03647D01*
X04841Y03578D02*
X05521D01*
X04808Y03611D02*
X04841Y03578D01*
X03899Y03249D02*
X05279D01*
X05142Y03277D02*
X05219Y03354D01*
X03862Y03277D02*
X03864Y03279D01*
X05787Y03825D02*
Y04138D01*
X05682Y0372D02*
X05787Y03825D01*
X05362Y0372D02*
X05682D01*
X03832Y03364D02*
X04115D01*
X03979Y03543D02*
Y03671D01*
X03932Y03672D02*
X03978D01*
X05304Y03326D02*
X05377Y03399D01*
X05431*
X04076Y03398D02*
X04197D01*
X05229Y03378D02*
X05245Y03362D01*
X03959Y0338D02*
X04058D01*
X05245Y03326D02*
Y03362D01*
X04197Y03398D02*
X04217Y03378D01*
X03931Y03409D02*
Y03547D01*
X03727Y03751D02*
Y03866D01*
X04217Y03378D02*
X05229D01*
X04058Y0338D02*
X04076Y03398D01*
X03931Y03409D02*
X03959Y0338D01*
X03727Y03751D02*
X03931Y03547D01*
X0378Y03994D02*
X053D01*
X0623Y0449D02*
X0628Y0444D01*
X04045Y0449D02*
X0623D01*
X03626Y04371D02*
X03745Y0449D01*
X03626Y04282D02*
Y04371D01*
X05127Y02861D02*
X05127D01*
X0573*
X04915Y03045D02*
X05105D01*
X0388Y0366D02*
X0392D01*
X03932Y03672*
X0393Y03581D02*
Y0362D01*
X03954Y03436D02*
Y03556D01*
X0393Y03581D02*
X03954Y03556D01*
Y03436D02*
X03984Y03406D01*
X03809Y03387D02*
Y03589D01*
X03819Y03599*
X06174Y03421D02*
X06188Y03435D01*
X0637*
X0602Y0333D02*
X06375D01*
X05974Y03452D02*
X06302D01*
X0637Y0352*
X06251Y03601D02*
X0637Y0372D01*
X06413Y03775D02*
X06426Y03787D01*
X06275Y03674D02*
Y03685D01*
X06242Y03641D02*
X06275Y03674D01*
Y03685D02*
X06365Y03775D01*
X06367*
X06368Y03775*
X06401*
X06402Y03775*
X06413*
X05861Y03721D02*
X06171D01*
X0637Y0392*
X05884Y03745D02*
X06095D01*
X0637Y0402*
X064Y0412D02*
X06426Y04094D01*
Y03787D02*
Y04094D01*
X05495Y03194D02*
X0558Y03279D01*
Y0331*
X06328Y03578D02*
X0637Y0362D01*
X05521Y03578D02*
X06328D01*
X05649Y03605D02*
X05655D01*
Y03601D02*
X06251D01*
X05395Y0368D02*
X05474Y03601D01*
X0443Y03435D02*
X04525Y0353D01*
X0637Y0372D02*
X06385D01*
X05474Y03601D02*
X05649D01*
X0637Y0402D02*
X06385D01*
Y0412D02*
X064D01*
X0637Y0362D02*
X06385D01*
X0637Y0392D02*
X06385D01*
X06375Y0333D02*
X06385Y0332D01*
X0637Y0352D02*
X06385D01*
X0573Y03553D02*
X05749D01*
X05757Y03546*
X05886*
X04549D02*
X05722D01*
X0573Y03553*
X04525Y0353D02*
X0574D01*
X06127Y03353D02*
X06167Y03393D01*
X05496Y03333D02*
X05589D01*
X05431Y03399D02*
X05496Y03333D01*
X05943Y03373D02*
X05991Y03421D01*
X0534Y03394D02*
X05396Y0345D01*
X0589*
X05623Y033D02*
X0573D01*
X05589Y03333D02*
X05623Y033D01*
X0582Y0332D02*
X0592D01*
X05953Y03353*
X06127*
X05873Y03373D02*
X05943D01*
X0585Y0335D02*
X05873Y03373D01*
X0578Y0335D02*
X0585D01*
X0637Y03435D02*
X06385Y0342D01*
G54D31*
X06385Y04135D03*
Y03935D03*
Y03835D03*
Y03735D03*
Y03635D03*
Y03535D03*
Y03435D03*
Y03335D03*
Y04035D03*
X0443Y04135D03*
Y03935D03*
Y03835D03*
Y03735D03*
Y03635D03*
Y03535D03*
Y03435D03*
Y03335D03*
Y04035D03*
X0638Y0444D03*
X03945Y0449D03*
X03845D03*
X03745D03*
X0538Y04445D03*
X0548D03*
X0558D03*
X0568D03*
X0578D03*
G54D32*
X0628Y0444D03*
X04045Y0449D03*
X0588Y04445D03*
G54D33*
X03833Y03486D03*
X03876D03*
X03833Y03443D03*
X03876D03*
X03605Y0415D03*
X05428Y04127D03*
X04536Y04036D03*
X0557Y03858D03*
X0501Y03705D03*
X05884Y03745D03*
X06008Y03629D03*
X0602Y0333D03*
X05743Y04237D03*
X05762Y03935D03*
X05373Y03649D03*
X042Y03606D03*
X05254Y03675D03*
X04003Y03442D03*
X05204Y03785D03*
X04043Y03449D03*
X05974Y03452D03*
X05605Y0413D03*
X05645Y0327D03*
X04574Y03221D03*
X04873Y03194D03*
X05978Y03903D03*
X05886Y03546D03*
X04389Y03585D03*
X05675Y03663D03*
X05388Y03358D03*
X03899Y03249D03*
X05219Y03354D03*
X05362Y0372D03*
X04125Y03374D03*
X04048Y03406D03*
X03979Y03543D03*
X06167Y03393D03*
X05887Y04303D03*
X05809D03*
X05304Y03326D03*
X03931Y03547D03*
X05245Y03326D03*
X03727Y03866D03*
X0378Y03994D03*
X05352Y04046D03*
X0573Y02861D03*
X05127D03*
X05127D03*
X05154Y03768D03*
Y03675D03*
X03626Y04282D03*
X04915Y03045D03*
X05105D03*
X0388Y0366D03*
X0393Y0362D03*
X0382Y036D03*
X0558Y0331D03*
X03859Y03279D03*
X05521Y03578D03*
X05649Y03605D03*
X0574Y0353D03*
X0589Y0345D03*
X0573Y033D03*
X0582Y0332D03*
X0578Y0335D03*
M02*