%FSTAX23Y23*%
%MOIN*%
%SFA1B1*%

%IPPOS*%
%ADD10R,0.023620X0.019690*%
%ADD11R,0.020000X0.025000*%
%ADD12R,0.035430X0.031500*%
%ADD13R,0.031500X0.035430*%
%ADD14R,0.066930X0.043310*%
%ADD15R,0.019690X0.023620*%
%ADD16R,0.226380X0.187010*%
%ADD17O,0.037400X0.009840*%
%ADD18O,0.009840X0.037400*%
%ADD19R,0.106300X0.106300*%
%ADD20R,0.035430X0.027560*%
%ADD21R,0.129920X0.094490*%
%ADD22R,0.039370X0.094490*%
%ADD23R,0.059060X0.059060*%
%ADD24R,0.047240X0.011810*%
%ADD25R,0.011810X0.047240*%
%LNhanc_digital-1*%
%LPD*%
G54D10*
X05394Y0319D03*
X05355D03*
X04644Y0307D03*
X04605D03*
X04954Y0298D03*
X04915D03*
X05459Y0276D03*
X0542D03*
X05915Y02812D03*
X05876D03*
X05902Y03146D03*
X05863D03*
X05987Y0427D03*
X06027D03*
X05927Y04215D03*
X05887D03*
X05777Y0427D03*
X05817D03*
X05667Y0422D03*
X05707D03*
X0556Y0428D03*
X05599D03*
X05457Y04215D03*
X05497D03*
X0535Y0429D03*
X05389D03*
X05237Y0423D03*
X05277D03*
G54D11*
X0519Y03325D03*
Y03365D03*
G54D12*
X0509Y03432D03*
Y03487D03*
X0365Y03477D03*
Y03532D03*
X0409Y03667D03*
Y03612D03*
X04085Y03432D03*
Y03377D03*
X0403Y03487D03*
Y03542D03*
X0612Y03922D03*
Y03977D03*
X04445Y0446D03*
Y04405D03*
X051Y03947D03*
Y04002D03*
X0366Y04337D03*
Y04282D03*
G54D13*
X05147Y03885D03*
X05202D03*
X03832Y0372D03*
X03777D03*
X03937D03*
X03882D03*
X0378Y04125D03*
X03724D03*
G54D14*
X06055Y03818D03*
Y03711D03*
X06155Y03713D03*
Y03606D03*
G54D15*
X0519Y03614D03*
Y03575D03*
X0512Y0374D03*
Y0378D03*
G54D16*
X0474Y04003D03*
Y03556D03*
G54D17*
X03764Y03514D03*
Y03494D03*
Y03474D03*
Y03455D03*
Y03435D03*
Y03415D03*
X03945D03*
Y03435D03*
Y03455D03*
Y03474D03*
Y03494D03*
Y03514D03*
G54D18*
X03805Y03374D03*
X03825D03*
X03845D03*
X03864D03*
X03884D03*
X03904D03*
Y03555D03*
X03884D03*
X03864D03*
X03845D03*
X03825D03*
X03805D03*
G54D19*
X03855Y03465D03*
G54D20*
X0379Y04344D03*
Y04285D03*
X05085Y04478D03*
Y04419D03*
X0605Y04079D03*
Y0402D03*
X04625Y04464D03*
Y04405D03*
X04785Y0446D03*
Y04401D03*
X04935Y04464D03*
Y04405D03*
G54D21*
X0406Y04045D03*
G54D22*
X03969Y04274D03*
X0406D03*
X0415D03*
G54D23*
X0478Y03072D03*
Y02935D03*
X05127Y0294D03*
Y02802D03*
X0573Y0294D03*
Y02802D03*
X06063Y02922D03*
Y03059D03*
X05435Y0307D03*
Y02932D03*
G54D24*
X05319Y03976D03*
Y03956D03*
Y03936D03*
Y03917D03*
Y03897D03*
Y03877D03*
Y03858D03*
Y03838D03*
Y03818D03*
Y03799D03*
Y03779D03*
Y03759D03*
Y0374D03*
Y0372D03*
Y037D03*
Y0368D03*
Y03661D03*
Y03641D03*
Y03621D03*
Y03602D03*
Y03582D03*
Y03562D03*
Y03543D03*
Y03523D03*
Y03503D03*
X0593D03*
Y03523D03*
Y03543D03*
Y03562D03*
Y03582D03*
Y03602D03*
Y03621D03*
Y03641D03*
Y03661D03*
Y0368D03*
Y037D03*
Y0372D03*
Y0374D03*
Y03759D03*
Y03779D03*
Y03799D03*
Y03818D03*
Y03838D03*
Y03858D03*
Y03877D03*
Y03897D03*
Y03917D03*
Y03936D03*
Y03956D03*
Y03976D03*
G54D25*
X05388Y03434D03*
X05408D03*
X05428D03*
X05447D03*
X05467D03*
X05487D03*
X05506D03*
X05526D03*
X05546D03*
X05565D03*
X05585D03*
X05605D03*
X05625D03*
X05644D03*
X05664D03*
X05684D03*
X05703D03*
X05723D03*
X05743D03*
X05762D03*
X05782D03*
X05802D03*
X05821D03*
X05841D03*
X05861D03*
Y04045D03*
X05841D03*
X05821D03*
X05802D03*
X05782D03*
X05762D03*
X05743D03*
X05723D03*
X05703D03*
X05684D03*
X05664D03*
X05644D03*
X05625D03*
X05605D03*
X05585D03*
X05565D03*
X05546D03*
X05526D03*
X05506D03*
X05487D03*
X05467D03*
X05447D03*
X05428D03*
X05408D03*
X05388D03*
M02*