%FSTAX23Y23*%
%MOIN*%
%SFA1B1*%

%IPPOS*%
%ADD10R,0.023620X0.019690*%
%ADD11R,0.020000X0.025000*%
%ADD12R,0.035430X0.031500*%
%ADD13R,0.031500X0.035430*%
%ADD14R,0.066930X0.043310*%
%ADD15R,0.019690X0.023620*%
%ADD16R,0.226380X0.187010*%
%ADD17O,0.037400X0.009840*%
%ADD18O,0.009840X0.037400*%
%ADD19R,0.106300X0.106300*%
%ADD20R,0.035430X0.027560*%
%ADD21R,0.129920X0.094490*%
%ADD22R,0.039370X0.094490*%
%ADD23R,0.059060X0.059060*%
%ADD24R,0.047240X0.011810*%
%ADD25R,0.011810X0.047240*%
%ADD26C,0.010000*%
%ADD27C,0.006890*%
%ADD28C,0.008270*%
%ADD29C,0.006000*%
%ADD30C,0.008000*%
%ADD31C,0.059060*%
%ADD32R,0.059060X0.059060*%
%ADD33C,0.025000*%
%LNhanc_digital-1*%
%LPD*%
G36*
X0655Y0464D02*
Y0454D01*
Y027*
X04785*
X04343Y02939*
X035Y03396*
Y0464*
X0655*
G37*
%LNhanc_digital-2*%
%LPC*%
G36*
X0375Y0412D02*
X03729D01*
Y04097*
X0375*
Y0412*
G37*
G36*
X06385Y0417D02*
X06375Y04169D01*
X06367Y04166*
X06359Y0416*
X06353Y04152*
X0635Y04144*
X06349Y04135*
X0635Y04125*
X06353Y04117*
X06359Y04109*
X06367Y04103*
X06375Y041*
X06385Y04099*
X06394Y041*
X06402Y04103*
X0641Y04109*
X06416Y04117*
X06419Y04125*
X0642Y04135*
X06419Y04144*
X06416Y04152*
X0641Y0416*
X06402Y04166*
X06394Y04169*
X06385Y0417*
G37*
G36*
Y0347D02*
X06375Y03469D01*
X06367Y03466*
X06359Y0346*
X06353Y03452*
X0635Y03444*
X06349Y03435*
X0635Y03425*
X06353Y03417*
X06359Y03409*
X06367Y03403*
X06375Y034*
X06385Y03399*
X06394Y034*
X06402Y03403*
X0641Y03409*
X06416Y03417*
X06419Y03425*
X0642Y03435*
X06419Y03444*
X06416Y03452*
X0641Y0346*
X06402Y03466*
X06394Y03469*
X06385Y0347*
G37*
G36*
X03719Y0412D02*
X03699D01*
Y04097*
X03719*
Y0412*
G37*
G36*
X06385Y0407D02*
X06375Y04069D01*
X06367Y04066*
X06359Y0406*
X06353Y04052*
X0635Y04044*
X06349Y04035*
X0635Y04025*
X06353Y04017*
X06359Y04009*
X06367Y04003*
X06375Y04*
X06385Y03999*
X06394Y04*
X06402Y04003*
X0641Y04009*
X06416Y04017*
X06419Y04025*
X0642Y04035*
X06419Y04044*
X06416Y04052*
X0641Y0406*
X06402Y04066*
X06394Y04069*
X06385Y0407*
G37*
G36*
X04055Y04103D02*
X03985D01*
Y0405*
X04055*
Y04103*
G37*
G36*
X06385Y0357D02*
X06375Y03569D01*
X06367Y03566*
X06359Y0356*
X06353Y03552*
X0635Y03544*
X06349Y03535*
X0635Y03525*
X06353Y03517*
X06359Y03509*
X06367Y03503*
X06375Y035*
X06385Y03499*
X06394Y035*
X06402Y03503*
X0641Y03509*
X06416Y03517*
X06419Y03525*
X0642Y03535*
X06419Y03544*
X06416Y03552*
X0641Y0356*
X06402Y03566*
X06394Y03569*
X06385Y0357*
G37*
G36*
X04089Y04269D02*
X04065D01*
Y04216*
X04089*
Y04269*
G37*
G36*
X03687Y04277D02*
X03665D01*
Y04256*
X03687*
Y04277*
G37*
G36*
X03621D02*
X03604D01*
X03604Y04273*
X03609Y04266*
X03617Y04261*
X03621Y0426*
Y04277*
G37*
G36*
X04055Y04269D02*
X0403D01*
Y04216*
X04055*
Y04269*
G37*
G36*
X03719Y04152D02*
X03699D01*
Y0413*
X03719*
Y04152*
G37*
G36*
X0375D02*
X03729D01*
Y0413*
X0375*
Y04152*
G37*
G36*
X03904Y03399D02*
X03899Y03398D01*
X03897Y03397*
X03894Y03396*
X0389Y03397*
X03888Y03398*
X03884Y03399*
X0388Y03398*
X03878Y03397*
X03874Y03396*
X03871Y03397*
X03869Y03398*
X03864Y03399*
X0386Y03398*
X03858Y03397*
X03855Y03396*
X03851Y03397*
X03849Y03398*
X03845Y03399*
X0384Y03398*
X03838Y03397*
X03835Y03396*
X03831Y03397*
X03829Y03398*
X03825Y03399*
X03821Y03398*
X03819Y03397*
X03815Y03396*
X03812Y03397*
X0381Y03398*
X03805Y03399*
X03801Y03398*
X03797Y03396*
X03795Y03392*
X03794Y03388*
Y0336*
X03795Y03356*
X03797Y03352*
X03801Y0335*
X03805Y03349*
X0381Y0335*
X03812Y03351*
X03815Y03352*
X03819Y03351*
X03821Y0335*
X03825Y03349*
X03829Y0335*
X03831Y03351*
X03835Y03352*
X03838Y03351*
X0384Y0335*
X03845Y03349*
X03849Y0335*
X0385Y03351*
X03855Y03348*
Y03328*
X03852Y03325*
X0385Y03322*
X03849Y03319*
Y03295*
X03845Y03292*
X03841Y03286*
X0384Y03279*
X03841Y03271*
X03845Y03265*
X03851Y03261*
X03859Y0326*
X03866Y03261*
X03868Y03263*
X03873Y0326*
X03874Y03259*
X03876Y03255*
X0388Y03251*
X0388Y03249*
X03881Y03241*
X03885Y03235*
X03891Y03231*
X03899Y0323*
X03906Y03231*
X03912Y03235*
X03916Y03241*
X03917Y03249*
X03916Y03256*
X03912Y03262*
X03906Y03266*
X03899Y03267*
X03898Y03267*
X03894Y03271*
Y03348*
X03899Y0335*
X03899Y0335*
X03904Y03349*
X03908Y0335*
X03912Y03352*
X03914Y03356*
X03915Y0336*
Y03388*
X03914Y03392*
X03912Y03396*
X03908Y03398*
X03904Y03399*
G37*
G36*
X04055Y0404D02*
X03985D01*
Y03988*
X04055*
Y0404*
G37*
G36*
X03963Y03747D02*
X03942D01*
Y03725*
X03963*
Y03747*
G37*
G36*
X04117Y03693D02*
X04095D01*
Y03672*
X04117*
Y03693*
G37*
G36*
X04085D02*
X04062D01*
Y03672*
X04085*
Y03693*
G37*
G36*
X03932Y03747D02*
X03911D01*
Y03725*
X03932*
Y03747*
G37*
G36*
X06385Y0377D02*
X06375Y03769D01*
X06367Y03766*
X06359Y0376*
X06353Y03752*
X0635Y03744*
X06349Y03735*
X0635Y03725*
X06353Y03717*
X06359Y03709*
X06367Y03703*
X06375Y037*
X06385Y03699*
X06394Y037*
X06402Y03703*
X0641Y03709*
X06416Y03717*
X06419Y03725*
X0642Y03735*
X06419Y03744*
X06416Y03752*
X0641Y0376*
X06402Y03766*
X06394Y03769*
X06385Y0377*
G37*
G36*
X03963Y03715D02*
X03942D01*
Y03692*
X03963*
Y03715*
G37*
G36*
X03858Y03747D02*
X03837D01*
Y0372*
Y03692*
X03856*
X03858Y03687*
X03842Y03671*
X03839Y03667*
X03838Y03663*
Y03614*
X03833Y03612*
X03833Y03613*
X03827Y03617*
X0382Y03618*
X03812Y03617*
X03806Y03613*
X03802Y03607*
X03801Y036*
X03802Y03592*
X03806Y03586*
X03809Y03584*
X03807Y0358*
X03805Y0358*
X03801Y03579*
X03797Y03577*
X03797Y03577*
X03789Y03584*
Y03688*
X03796Y03696*
X03799*
Y03698*
X03802Y037*
X03806Y03698*
Y03692*
X03827*
Y0372*
Y03747*
X03806*
Y03732*
X03804Y03731*
X03799*
Y03743*
X03755*
Y03696*
X03767*
X03768Y03695*
X03769Y0369*
X0377Y03689*
Y03581*
X03771Y03577*
X03773Y03574*
X03775Y03573*
X03794Y03553*
Y03541*
X03795Y03537*
X03797Y03533*
X03801Y03531*
X03805Y0353*
X0381Y03531*
X03812Y03532*
X03815Y03533*
X03819Y03532*
X03821Y03531*
X03825Y0353*
X03829Y03531*
X03831Y03532*
X03835Y03533*
X03838Y03532*
X0384Y03531*
X03845Y0353*
X03849Y03531*
X03851Y03532*
X03855Y03533*
X03858Y03532*
X0386Y03531*
X03864Y0353*
X03869Y03531*
X03871Y03532*
X03874Y03533*
X03878Y03532*
X0388Y03531*
X03884Y0353*
X03888Y03531*
X0389Y03532*
X03894Y03533*
X03897Y03532*
X03899Y03531*
X03902Y0353*
X03903Y03529*
X03901Y03524*
X03901Y03524*
X03795*
Y03405*
X03914*
Y03481*
X03919Y03483*
X03921Y03482*
X03921Y03479*
X03921Y03479*
X0392Y03474*
X03921Y0347*
X03922Y03468*
X03923Y03465*
X03922Y03461*
X03921Y03459*
X0392Y03455*
X03921Y0345*
X03922Y03448*
X03923Y03445*
X03922Y03441*
X03921Y03439*
X0392Y03435*
X03921Y03431*
X03922Y03429*
X03923Y03425*
X03922Y03422*
X03921Y0342*
X0392Y03415*
X03921Y03411*
X03923Y03407*
X03927Y03405*
X03931Y03404*
X03947*
X04009Y03343*
X04009Y03341*
X04011Y03338*
X04015Y03335*
X04019Y03334*
X04187*
X04191Y03335*
X04195Y03338*
X04207Y0335*
X0421Y03354*
X04211Y03358*
Y03591*
X04213Y03592*
X04217Y03598*
X04218Y03606*
X04217Y03613*
X04213Y03619*
X04207Y03623*
X042Y03624*
X04192Y03623*
X04186Y03619*
X04182Y03613*
X04181Y03606*
X04182Y03598*
X04186Y03592*
X04188Y03591*
Y03363*
X04182Y03357*
X04141*
X04139Y03362*
X04142Y03366*
X04143Y03374*
X04142Y03381*
X04138Y03387*
X04132Y03391*
X04125Y03392*
Y03431*
X04124Y03435*
X04121Y03439*
X0412Y0344*
X04117Y03442*
X04113Y03443*
X04108Y03445*
Y03454*
X04061*
X0406Y03455*
X0406Y03456*
X04056Y03462*
X04056Y03462*
X04053Y03465*
Y03509*
X04006*
Y03497*
X04002Y03495*
X03991Y03484*
X03975*
X03973Y03489*
X03973Y03489*
X03945*
Y03499*
X03973*
X03973Y035*
X0397Y03505*
X03969Y03509*
X03969Y03509*
X0397Y03514*
X03969Y03518*
X03967Y03522*
X03963Y03524*
X03959Y03525*
X0394*
X03939Y0353*
X03944Y03533*
X03948Y03539*
X03949Y03547*
X03948Y03554*
X03944Y0356*
X03938Y03564*
X03931Y03565*
X03923Y03564*
X0392Y03562*
X03915Y03564*
X03915Y03569*
X03919Y03574*
X03957*
X03958Y03573*
X03963Y03572*
X03967Y03573*
X0397Y03576*
X03986Y03592*
X03989Y03595*
X0399Y036*
Y03623*
X03989Y03627*
X03986Y03631*
X0393Y03687*
X03932Y03692*
X03932*
Y03715*
X03911*
Y03714*
X03907Y03712*
X03904Y03714*
Y03743*
X0386*
X03858Y03747*
G37*
G36*
X06385Y0397D02*
X06375Y03969D01*
X06367Y03966*
X06359Y0396*
X06353Y03952*
X0635Y03944*
X06349Y03935*
X0635Y03925*
X06353Y03917*
X06359Y03909*
X06367Y03903*
X06375Y039*
X06385Y03899*
X06394Y039*
X06402Y03903*
X0641Y03909*
X06416Y03917*
X06419Y03925*
X0642Y03935*
X06419Y03944*
X06416Y03952*
X0641Y0396*
X06402Y03966*
X06394Y03969*
X06385Y0397*
G37*
G36*
X06045Y04512D02*
D01*
X05253*
X05248Y04511*
X05245Y04509*
X05206Y0447*
X05203Y04466*
X05202Y04462*
Y04024*
X05203Y0402*
X05206Y04016*
X0526Y03962*
Y03951*
X05256Y03949*
X05168Y04037*
Y0411*
X05167Y04114*
X05164Y04117*
X05054Y04228*
Y04395*
X05056Y04397*
X05061Y04399*
X05108*
Y04438*
X05061*
Y0443*
X05037*
X04994Y04472*
X04991Y04474*
X04987Y04475*
X04958*
Y04484*
X04911*
Y04444*
X04958*
Y04453*
X04982*
X05024Y04411*
X05028Y04408*
X05029Y04408*
X0503Y04407*
X05032Y04403*
Y04402*
X05031Y044*
Y04224*
X05032Y04219*
X05035Y04216*
X05145Y04105*
Y04032*
X05146Y04028*
X05149Y04024*
X05244Y03929*
Y03923*
X05239Y03921*
X05178Y03982*
X05175Y03984*
X0517Y03985*
X05123*
Y04024*
X05111*
Y04124*
X0511Y04128*
X05107Y04132*
X04946Y04294*
Y04385*
X04958*
Y04425*
X04911*
Y04385*
X04923*
Y04289*
Y04289*
X04924Y04285*
X04927Y04281*
X05088Y0412*
Y04024*
X05076*
Y04013*
X04923*
X04923Y04013*
X04919Y04014*
X04859*
Y04102*
X04633*
X04631Y04107*
X04792Y04269*
X04795Y04272*
X04796Y04277*
Y04381*
X04808*
Y04421*
X04761*
Y04412*
X04692*
X04648Y04456*
Y04484*
X04601*
Y04444*
X04628*
X04643Y04429*
X04641Y04425*
X04601*
Y04416*
X04468*
Y04427*
X04421*
Y04383*
X04468*
Y04394*
X04588*
Y03883*
X04589Y03878*
X04591Y03875*
X04728Y03738*
Y03656*
X0462*
Y03468*
X04616Y03466*
X04579Y03503*
Y04134*
X04578Y04138*
X04575Y04141*
X04574Y04142*
X04571Y04145*
X04567Y04146*
X04463*
X04461Y04152*
X04455Y0416*
X04447Y04166*
X04439Y04169*
X0443Y0417*
X0442Y04169*
X04412Y04166*
X04405Y0416*
X044Y04161*
Y04189*
X0441Y04199*
X04465*
Y0427*
X04394*
Y04215*
X04381Y04201*
X04378Y04198*
X04377Y04194*
Y03599*
X04375Y03598*
X04371Y03592*
X0437Y03585*
X04371Y03577*
X04375Y03571*
X04381Y03567*
X04389Y03566*
X04396Y03567*
X04402Y03571*
X04406Y03577*
X04407Y03585*
X04406Y03592*
X04402Y03598*
X044Y03599*
Y03608*
X04405Y03609*
X04412Y03603*
X0442Y036*
X0443Y03599*
X04439Y036*
X04447Y03603*
X04455Y03609*
X04461Y03617*
X04462Y03621*
X04467Y0362*
Y03549*
X04462Y03548*
X04461Y03552*
X04455Y0356*
X04447Y03566*
X04439Y03569*
X0443Y0357*
X0442Y03569*
X04412Y03566*
X04404Y0356*
X04398Y03552*
X04395Y03544*
X04394Y03535*
X04395Y03525*
X04398Y03517*
X04404Y03509*
X04412Y03503*
X0442Y035*
X0443Y03499*
X04439Y035*
X04447Y03503*
X04455Y03509*
X04461Y03517*
X04462Y03521*
X04467Y0352*
Y03449*
X04462Y03448*
X04461Y03452*
X04455Y0346*
X04447Y03466*
X04439Y03469*
X0443Y0347*
X0442Y03469*
X04412Y03466*
X04404Y0346*
X04398Y03452*
X04395Y03444*
X04394Y03435*
X04395Y03425*
X04398Y03417*
X04404Y03409*
X04412Y03403*
X0442Y034*
X0443Y03399*
X04439Y034*
X04447Y03403*
X04455Y03409*
X04461Y03417*
X04462Y03421*
X04467Y0342*
Y03349*
X04462Y03348*
X04461Y03352*
X04455Y0336*
X04447Y03366*
X04439Y03369*
X0443Y0337*
X0442Y03369*
X04412Y03366*
X04404Y0336*
X04398Y03352*
X04395Y03344*
X04394Y03335*
X04395Y03325*
X04398Y03317*
X04404Y03309*
X04412Y03303*
X04418Y03301*
Y03113*
X04419Y03108*
X04422Y03105*
X04774Y02753*
X04777Y0275*
X04782Y02749*
X05172*
X05176Y0275*
X05179Y02753*
X05193Y02767*
X05196Y0277*
X05197Y02775*
Y03097*
X05204Y03104*
X05395*
Y03075*
X05435*
X05474*
Y03109*
X05455*
X05454Y03114*
X05565Y03225*
X05567Y03229*
X05568Y03233*
X05567Y03237*
X05567Y03237*
Y0329*
X05572Y03293*
X05572Y03292*
X0558Y03291*
X05587Y03292*
X05593Y03296*
X05597Y03302*
X05598Y0331*
X05597Y03317*
X05596Y03318*
Y03339*
X05595Y03343*
X05595Y03343*
Y03383*
X056Y03385*
X05633Y03352*
Y03284*
X05631Y03283*
X05627Y03277*
X05626Y0327*
X05627Y03262*
X05631Y03256*
X05637Y03252*
X05645Y03251*
X05652Y03252*
X05658Y03256*
X05662Y03262*
X05663Y0327*
X05662Y03277*
X05658Y03283*
X05656Y03284*
Y03356*
X05655Y0336*
X05652Y03364*
X05649Y03366*
X05649Y03366*
X05615Y034*
X05615Y03405*
X0577*
Y03366*
X05766Y03363*
X05762Y03357*
X05761Y0335*
X05762Y03342*
X05766Y03336*
X05772Y03332*
X0578Y03331*
X05787Y03332*
X05793Y03336*
X05797Y03342*
X05798Y0335*
X05797Y03357*
X05793Y03363*
X05789Y03366*
Y03405*
X05811*
Y03336*
X05806Y03333*
X05802Y03327*
X05801Y0332*
X05802Y03312*
X05803Y03312*
X058Y03307*
X05747*
X05743Y03313*
X05737Y03317*
X0573Y03318*
X05722Y03317*
X05716Y03313*
X05712Y03307*
X05711Y033*
X05712Y03292*
X05716Y03286*
X05722Y03282*
X0573Y03281*
X05737Y03282*
X05743Y03286*
X05743Y03287*
X05847*
X05851Y03287*
X05854Y0329*
X05897Y03332*
X05899Y03336*
X059Y0334*
Y03406*
X05899Y0341*
X05897Y03413*
X05883Y03427*
X05885Y03431*
X0589Y03431*
X05897Y03432*
X05903Y03436*
X05907Y03442*
X05908Y0345*
X05907Y03457*
X05906Y03458*
Y03491*
X05937*
Y03478*
X05938Y03474*
X0594Y03471*
X05956Y03455*
X05955Y03452*
X05957Y03444*
X05961Y03438*
X05967Y03434*
X05974Y03433*
X05981Y03434*
X05987Y03438*
X05991Y03444*
X05993Y03452*
X05991Y03459*
X05987Y03465*
X05981Y03469*
X05974Y0347*
X0597Y0347*
X05958Y03482*
Y03491*
X05959*
Y03531*
Y0357*
Y03611*
X05964Y03611*
X05988Y03587*
X05988Y03587*
X05991Y03583*
X06008Y03566*
Y03344*
X06006Y03343*
X06002Y03337*
X06001Y0333*
X06002Y03322*
X06006Y03316*
X06012Y03312*
X0602Y03311*
X06027Y03312*
X06033Y03316*
X06037Y03322*
X06038Y0333*
X06037Y03337*
X06033Y03343*
X06031Y03344*
Y0357*
X0603Y03575*
X06027Y03578*
X06006Y03599*
X06003Y03602*
X06003Y03602*
X05997Y03608*
X06Y03612*
X06001Y03611*
X06008Y0361*
X06015Y03611*
X06021Y03615*
X06025Y03621*
X06026Y03622*
X0603Y03624*
X06045Y03609*
Y03197*
X06005Y03157*
X0592*
Y03161*
X05886*
X05884*
X05881*
X05879*
X05845*
Y0313*
X05852*
Y03086*
X05852Y03082*
X05855Y03078*
X05872Y03062*
X05875Y03059*
X0588Y03058*
X06027*
Y03024*
X06098*
Y03095*
X06027*
Y03081*
X05884*
X05874Y03091*
Y03126*
X05878Y0313*
X05884*
X05886*
X0592*
Y03134*
X0601*
X06014Y03135*
X06017Y03138*
X06064Y03185*
X06067Y03188*
X06068Y03193*
Y036*
X06072Y03602*
X06109Y03566*
X06112Y03563*
X06113Y03563*
X06119Y03557*
Y02903*
X06107Y02891*
X06102Y02892*
Y02917*
X06068*
Y02882*
X06092*
X06094Y02877*
X06085Y02869*
X05963*
X05958Y02868*
X05955Y02865*
X05916Y02827*
X05899*
X05897*
X05894*
X05892*
X05858*
Y02811*
X05765*
Y02837*
X05744*
X05743Y02842*
X05746Y02844*
X05751Y02852*
X05751Y02856*
X05708*
X05708Y02852*
X05713Y02844*
X05716Y02842*
X05715Y02837*
X05694*
Y02766*
X05765*
Y02789*
X05868*
X05868Y02789*
X05868Y02789*
X0587Y02789*
X05872Y02789*
X05872Y0279*
X05873Y0279*
X05874Y02791*
X05876Y02792*
X05876Y02792*
X05876Y02792*
X05879Y02796*
X05892*
X05894*
X05897*
X05899*
X05933*
Y02812*
X05967Y02846*
X0609*
Y02846*
X06094Y02847*
X06097Y0285*
X06138Y02891*
X06141Y02894*
X06142Y02899*
Y03562*
X06141Y03566*
X06138Y03569*
X06138Y0357*
X0614Y03575*
X0615*
Y03606*
Y03638*
X06125*
X061Y03653*
Y03711*
X061Y03716*
X06098Y03718*
Y03743*
X06103Y03743*
X06111*
X06115Y0374*
Y03685*
X06194*
X06197Y03686*
X06202Y03681*
Y0364*
X06198Y03638*
X0616*
Y03606*
Y03575*
X06198*
X06202Y03573*
Y03444*
X06169Y03411*
X06167Y03411*
X06159Y0341*
X06153Y03406*
X06149Y034*
X06148Y03393*
X06149Y03385*
X06153Y03379*
X06159Y03375*
X06167Y03374*
X06174Y03375*
X0618Y03379*
X06184Y03385*
X06185Y03393*
X06185Y03395*
X06214Y03424*
X06218Y03422*
Y02956*
X05998Y02736*
X05499*
X05477Y02758*
Y02775*
X05443*
X05441*
X05438*
X05436*
X0542*
X05401Y02794*
Y02882*
X05415Y02896*
X0547*
Y02967*
X05399*
Y02912*
X05382Y02895*
X05379Y02891*
X05378Y02887*
Y0279*
X05379Y02786*
X05382Y02782*
X05402Y02761*
Y02744*
X05436*
X05438*
X05441*
X05443*
X05459*
X05486Y02717*
X0549Y02714*
X05494Y02713*
X06003*
X06007Y02714*
X06011Y02717*
X06237Y02943*
X0624Y02947*
X06241Y02951*
Y0372*
X0624Y03724*
X06237Y03727*
X06202Y03762*
X062Y03764*
X062Y03768*
X062Y03769*
X06302*
X06306Y0377*
X06309Y03773*
X06326Y0379*
X06329Y03793*
X0633Y03798*
Y04149*
X0638Y04199*
X0642*
Y0427*
X06349*
Y042*
X06311Y04161*
X06308Y04158*
X06307Y04154*
Y03802*
X06297Y03792*
X06094*
Y03845*
X06064*
Y03867*
X06063Y03872*
X0606Y03875*
X05991Y03944*
X05988Y03947*
X05984Y03948*
X05979Y03947*
X05979Y03947*
X05959*
Y03965*
X06024*
X06028Y03965*
X06029Y03966*
X06096*
Y03955*
X06137*
Y03944*
X06096*
Y039*
X06143*
Y03909*
X06148Y03911*
X06152Y03912*
X06155Y03914*
X06156Y03915*
X06159Y03919*
X0616Y03923*
Y04325*
Y04398*
X06159Y04402*
X06156Y04405*
X06053Y04509*
X06049Y04511*
X06045Y04512*
G37*
G36*
X04053Y03564D02*
X04006D01*
Y03553*
X03994*
X03992Y03556*
X03986Y0356*
X03979Y03561*
X03971Y0356*
X03965Y03556*
X03961Y0355*
X0396Y03543*
X03961Y03535*
X03965Y03529*
X03971Y03525*
X03979Y03524*
X03986Y03525*
X03992Y03529*
X03993Y03531*
X04006*
Y0352*
X04053*
Y03564*
G37*
G36*
X06385Y0367D02*
X06375Y03669D01*
X06367Y03666*
X06359Y0366*
X06353Y03652*
X0635Y03644*
X06349Y03635*
X0635Y03625*
X06353Y03617*
X06359Y03609*
X06367Y03603*
X06375Y036*
X06385Y03599*
X06394Y036*
X06402Y03603*
X0641Y03609*
X06416Y03617*
X06419Y03625*
X0642Y03635*
X06419Y03644*
X06416Y03652*
X0641Y0366*
X06402Y03666*
X06394Y03669*
X06385Y0367*
G37*
G36*
X04117Y03662D02*
X04095D01*
Y03641*
X04117*
Y03662*
G37*
G36*
X06385Y0387D02*
X06375Y03869D01*
X06367Y03866*
X06359Y0386*
X06353Y03852*
X0635Y03844*
X06349Y03835*
X0635Y03825*
X06353Y03817*
X06359Y03809*
X06367Y03803*
X06375Y038*
X06385Y03799*
X06394Y038*
X06402Y03803*
X0641Y03809*
X06416Y03817*
X06419Y03825*
X0642Y03835*
X06419Y03844*
X06416Y03852*
X0641Y0386*
X06402Y03866*
X06394Y03869*
X06385Y0387*
G37*
G36*
X04085Y03662D02*
X04062D01*
Y03641*
X04085*
Y03662*
G37*
G36*
X04808Y0448D02*
X04761D01*
Y0444*
X04808*
Y0448*
G37*
G36*
X06375Y04479D02*
X06369Y04478D01*
X0636Y04474*
X06351Y04468*
X06345Y04459*
X06341Y0445*
X0634Y04445*
X06375*
Y04479*
G37*
G36*
X06385D02*
Y04445D01*
X06419*
X06418Y0445*
X06414Y04459*
X06408Y04468*
X06399Y04474*
X0639Y04478*
X06385Y04479*
G37*
G36*
X04472Y04455D02*
X0445D01*
Y04434*
X04472*
Y04455*
G37*
G36*
X05725Y02979D02*
X0569D01*
Y02945*
X05725*
Y02979*
G37*
G36*
X06102Y02961D02*
X06068D01*
Y02927*
X06102*
Y02961*
G37*
G36*
X0444Y04455D02*
X04417D01*
Y04434*
X0444*
Y04455*
G37*
G36*
X06058Y02961D02*
X06023D01*
Y02927*
X06058*
Y02961*
G37*
G36*
X0444Y04486D02*
X04417D01*
Y04465*
X0444*
Y04486*
G37*
G36*
X04472D02*
X0445D01*
Y04465*
X04472*
Y04486*
G37*
G36*
X04169Y04598D02*
D01*
X03643*
X03639Y04597*
X03635Y04595*
X03623Y04582*
X0362Y04579*
X03619Y04575*
X03619*
Y04311*
X03619*
X0362Y04309*
X03617Y04303*
X03609Y04298*
X03604Y04291*
X03604Y04287*
X03626*
Y04282*
X03631*
Y04257*
X03632Y04256*
Y04256*
X03655*
Y04282*
X0366*
Y04287*
X03687*
Y04298*
X03695*
X03717Y04277*
X0372Y04274*
X03725Y04273*
X03766*
Y04265*
X03802*
X03804Y0426*
X03772Y04227*
X03769Y04224*
X03768Y0422*
Y04148*
X03758*
Y04101*
X03768*
Y04008*
X03766Y04007*
X03762Y04001*
X03761Y03994*
X03762Y03986*
X03766Y0398*
X03768Y03979*
Y03923*
X03729Y03884*
X03727Y03884*
X03719Y03883*
X03713Y03879*
X03709Y03873*
X03708Y03866*
X03709Y03858*
X03713Y03852*
X03719Y03848*
X03727Y03847*
X03734Y03848*
X0374Y03852*
X03744Y03858*
X03745Y03866*
X03745Y03868*
X03787Y03911*
X0379Y03914*
X03791Y03919*
Y03979*
X03793Y0398*
X03797Y03986*
X03798Y03994*
X03797Y04001*
X03793Y04007*
X03791Y04008*
Y04101*
X03801*
Y04148*
X03791*
Y04215*
X03827Y04252*
X03828Y04253*
X03833Y04251*
Y03866*
X0362Y03653*
X03616Y03655*
Y04135*
X03618Y04136*
X03622Y04142*
X03623Y0415*
X03622Y04157*
X03618Y04163*
X03612Y04167*
X03605Y04168*
X03597Y04167*
X03591Y04163*
X03587Y04157*
X03586Y0415*
X03587Y04142*
X03591Y04136*
X03593Y04135*
Y03433*
X03593*
X03594Y03428*
X03597Y03425*
X03598Y03424*
X03601Y03421*
X03606Y0342*
X0361Y03421*
X03611Y03422*
X03736*
X03736Y03422*
X03739Y03417*
X03739Y03415*
X0374Y03411*
X03742Y03407*
X03746Y03405*
X0375Y03404*
X03778*
X03782Y03405*
X03786Y03407*
X03788Y03411*
X03789Y03415*
X03788Y0342*
X03787Y03422*
X03786Y03425*
X03787Y03429*
X03788Y03431*
X03789Y03435*
X03788Y03439*
X03787Y03441*
X03786Y03445*
X03787Y03448*
X03788Y0345*
X03789Y03455*
X03788Y03459*
X03787Y03461*
X03786Y03465*
X03787Y03468*
X03788Y0347*
X03789Y03474*
X03788Y03479*
X03787Y03481*
X03786Y03484*
X03787Y03488*
X03788Y0349*
X03789Y03494*
X03788Y03498*
X03787Y035*
X03786Y03504*
X03787Y03507*
X03788Y03509*
X03789Y03514*
X03788Y03518*
X03786Y03522*
X03782Y03524*
X03778Y03525*
X03764*
X03764Y03525*
X0372*
X03705Y0354*
X03702Y03542*
X03698Y03543*
X03673*
Y03554*
X03632*
Y03633*
X03852Y03854*
X03855Y03857*
X03856Y03862*
Y04456*
X03862Y04458*
X03869Y04464*
X03874Y04463*
Y04364*
X03875Y04359*
X03878Y04356*
X03943Y0429*
Y0422*
X03958*
Y04137*
X03959Y04133*
X03961Y04129*
X03979Y04112*
X03982Y04109*
X03986Y04108*
X04118*
X04118Y04108*
X04116Y04103*
X04065*
Y04045*
Y03988*
X04134*
X04135Y03983*
Y03629*
X04124Y03618*
X04113*
Y03634*
X04066*
Y0359*
X04113*
Y03596*
X04129*
X04133Y03597*
X04137Y03599*
X04154Y03617*
X04157Y0362*
X04158Y03625*
Y041*
X04157Y04104*
X04154Y04107*
X04134Y04127*
X04131Y0413*
X04127Y04131*
X03991*
X0398Y04142*
Y0422*
X03995*
Y04327*
X03943*
X0394Y04325*
X03897Y04368*
Y04512*
X03896Y04516*
X03893Y0452*
X03883Y0453*
X03885Y04535*
X04117*
X04139Y04513*
Y04327*
X0413*
Y04416*
X04129Y0442*
X04126Y04423*
X0408Y0447*
Y04525*
X04009*
Y04454*
X04064*
X04107Y04411*
Y04216*
X04108Y04211*
X04111Y04208*
X04112Y04207*
X04115Y04204*
X0412Y04203*
X04181*
X04185Y04204*
X04188Y04207*
X04189Y04208*
X04192Y04211*
X04193Y04216*
Y04575*
X04192Y04579*
X04189Y04582*
X04177Y04595*
X04173Y04597*
X04169Y04598*
G37*
G36*
X05108Y04498D02*
X05061D01*
Y04458*
X05108*
Y04498*
G37*
G36*
X06058Y02917D02*
X06023D01*
Y02882*
X06058*
Y02917*
G37*
G36*
X05769Y02935D02*
X0573D01*
X0569*
Y029*
X05718*
Y0288*
X05713Y02877*
X05708Y02869*
X05708Y02866*
X05751*
X05751Y02869*
X05746Y02877*
X05741Y0288*
Y029*
X05769*
Y02935*
G37*
G36*
X03945Y04525D02*
X03935Y04524D01*
X03927Y04521*
X03919Y04515*
X03913Y04507*
X0391Y04499*
X03909Y0449*
X0391Y0448*
X03913Y04472*
X03919Y04464*
X03927Y04458*
X03935Y04455*
X03945Y04454*
X03954Y04455*
X03962Y04458*
X0397Y04464*
X03976Y04472*
X03979Y0448*
X0398Y0449*
X03979Y04499*
X03976Y04507*
X0397Y04515*
X03962Y04521*
X03954Y04524*
X03945Y04525*
G37*
G36*
X05769Y02979D02*
X05735D01*
Y02945*
X05769*
Y02979*
G37*
G36*
X06375Y04435D02*
X0634D01*
X06341Y04429*
X06345Y0442*
X06351Y04411*
X0636Y04405*
X06369Y04401*
X06375Y044*
Y04435*
G37*
G36*
X06419D02*
X06385D01*
Y044*
X0639Y04401*
X06399Y04405*
X06408Y04411*
X06414Y0442*
X06418Y04429*
X06419Y04435*
G37*
G36*
X06385Y0337D02*
X06375Y03369D01*
X06367Y03366*
X06359Y0336*
X06353Y03352*
X0635Y03344*
X06349Y03335*
X0635Y03325*
X06353Y03317*
X06359Y03309*
X06367Y03303*
X06375Y033*
X06385Y03299*
X06394Y033*
X06402Y03303*
X0641Y03309*
X06416Y03317*
X06419Y03325*
X0642Y03335*
X06419Y03344*
X06416Y03352*
X0641Y0336*
X06402Y03366*
X06394Y03369*
X06385Y0337*
G37*
G36*
X04055Y04331D02*
X0403D01*
Y04279*
X04055*
Y04331*
G37*
G36*
X04089D02*
X04065D01*
Y04279*
X04089*
Y04331*
G37*
G36*
X06315Y04475D02*
X06244D01*
Y04404*
X06315*
Y04475*
G37*
G36*
X0543Y03065D02*
X05395D01*
Y0303*
X0543*
Y03065*
G37*
G36*
X05474D02*
X0544D01*
Y0303*
X05474*
Y03065*
G37*
%LNhanc_digital-3*%
%LPD*%
G36*
X03989Y03409D02*
X03989Y03408D01*
X03992Y03404*
X03995Y03402*
X04Y03401*
X04015*
X04019Y03402*
X04023Y03404*
X04025Y03406*
X0403Y03404*
X04031Y03398*
X04035Y03392*
X04041Y03388*
X04048Y03387*
X04051Y03387*
X04061Y03377*
Y03357*
X04022*
X03968Y0341*
X03969Y03411*
X0397Y03415*
X0397Y03417*
X03973Y03422*
X03973Y03422*
X03975Y03423*
X03989Y03409*
G37*
G36*
X05555Y03345D02*
X0555Y03339D01*
X05547Y03336*
X05547Y03332*
Y03238*
X05435Y03127*
X052*
Y03127*
X05195Y03126*
X05192Y03123*
X05178Y03109*
X05175Y03106*
X05174Y03102*
Y02779*
X05167Y02772*
X05162Y02773*
Y02837*
X05141*
X0514Y02842*
X05143Y02844*
X05148Y02852*
X05149Y02856*
X05127*
Y02866*
X05149*
X05148Y02869*
X05143Y02877*
X05138Y0288*
Y029*
X05166*
Y02935*
X05127*
X05087*
Y02922*
X05083Y0292*
X05053Y0295*
Y03166*
X05057Y03168*
X05067Y03159*
X0507Y03156*
X05075Y03155*
Y03155*
X05393*
X05393Y03155*
X05397Y03156*
X05401Y03159*
X05402Y0316*
X05405Y03163*
X05405Y03168*
Y03174*
X05412*
Y03205*
X05376*
X05373*
X05337*
Y03201*
X05192*
X0518Y03213*
Y03306*
X05206*
Y03314*
X0523*
X05231Y03312*
X05237Y03308*
X05245Y03307*
X05252Y03308*
X05258Y03312*
X05259Y03314*
X05289*
X0529Y03312*
X05296Y03308*
X05304Y03307*
X05311Y03308*
X05317Y03312*
X05318Y03314*
X05427*
Y03314*
X05431Y03315*
X05435Y03318*
X05436Y03319*
X05438Y03322*
X05439Y03327*
X05438Y03331*
X05438Y03331*
Y03405*
X05555*
Y03345*
G37*
G36*
X0529Y03491D02*
X05344D01*
X05344Y03385*
X05344Y03385*
X05343Y03381*
X05306Y03344*
X05304Y03344*
X05296Y03343*
X0529Y03339*
X05289Y03337*
X05259*
X05258Y03339*
X05252Y03343*
X05245Y03344*
X0524Y03343*
X05239Y03344*
X05236Y03348*
X05237Y03354*
X05236Y03361*
X05232Y03367*
X0523Y03368*
Y03482*
X0524Y03493*
X0529*
Y03491*
G37*
G36*
Y03514D02*
X05239D01*
X05239Y03514*
X05235Y03515*
X0523Y03514*
X05227Y03511*
X05211Y03495*
X05208Y03491*
X05207Y03487*
Y03387*
X05206Y03383*
X05201*
Y03417*
Y03552*
X0529*
Y03514*
G37*
G36*
X0503Y03693D02*
Y02946D01*
X05031Y02941*
X05034Y02938*
X05105Y02866*
X05105Y02866*
X05127*
Y02856*
X05105*
X05105Y02852*
X0511Y02844*
X05113Y02842*
X05112Y02837*
X05091*
Y02813*
X04942*
X04926Y02829*
Y0296*
X0493Y02964*
X04936*
X04938*
X04972*
Y02995*
X04965*
Y03685*
X04974Y03693*
X04995*
X04996Y03691*
X05002Y03687*
X0501Y03686*
X05017Y03687*
X05023Y03691*
X05025Y03695*
X0503Y03693*
G37*
G36*
X05876Y03727D02*
X05884Y03726D01*
X05884Y03725*
Y03662*
X05885Y03658*
X05887Y03654*
X05888Y03653*
X05892Y03651*
X05896Y0365*
X059*
Y03609*
Y03564*
X05895Y03561*
X05893Y03563*
X05886Y03564*
X05883Y03564*
X05871Y03576*
Y03725*
X05875Y03728*
X05876Y03727*
G37*
G36*
X05867Y03548D02*
X05867Y03546D01*
X05868Y03538*
X05872Y03532*
X05878Y03528*
X05881Y03527*
X05885Y03526*
X05885Y03522*
Y03522*
X05885Y03522*
X05885Y03522*
X05886Y0352*
Y03468*
X05882Y03467*
X05878Y03464*
X05873Y03464*
X05851*
Y03557*
X05856Y03559*
X05867Y03548*
G37*
G36*
X05178Y03412D02*
Y03383D01*
X05174*
Y03377*
X0517Y03374*
X05165Y03373*
X05162Y0337*
X05161Y03369*
X05158Y03366*
X05157Y03362*
Y03208*
X05158Y03204*
X05161Y032*
X05178Y03183*
X05176Y03178*
X05176Y03178*
X05079*
X05071Y03186*
Y0341*
X05113*
Y03421*
X0517*
X05178Y03412*
G37*
G36*
X05873Y03405D02*
D01*
X05877Y03403*
X05879Y03401*
Y03344*
X05843Y03308*
X0584Y03308*
X0584Y03309*
X05837Y03313*
X05838Y0332*
X05837Y03327*
X05833Y03333*
X05832Y03334*
Y03405*
X05873*
G37*
G36*
X0583Y03939D02*
X0583Y03937D01*
X05831Y03933*
X05831Y03933*
Y03464*
X05812*
Y03468*
X05811Y03471*
X05809Y03475*
X05758Y03526*
X05758Y0353*
X05757Y03537*
X05753Y03543*
X05747Y03547*
X0574Y03548*
X05732Y03547*
X05726Y03543*
X05722Y03537*
X05721Y0353*
X05722Y03522*
X05726Y03516*
X05732Y03512*
X0574Y03511*
X05743Y03511*
X05786Y03469*
X05784Y03464*
X0553*
X05528Y03469*
X05646Y03587*
X05649Y03586*
X05657Y03588*
X05663Y03592*
X05667Y03598*
X05668Y03605*
X05667Y03612*
X05663Y03618*
X05657Y03623*
X05656Y03623*
X05654Y03628*
X05671Y03644*
X05675Y03644*
X05682Y03645*
X05688Y03649*
X05692Y03655*
X05693Y03663*
X05692Y0367*
X05688Y03676*
X05682Y0368*
X05675Y03681*
X05667Y0368*
X05661Y03676*
X05657Y0367*
X05656Y03663*
X05656Y03659*
X05482Y03485*
X05477Y03487*
Y03512*
X05524Y03559*
X05528Y0356*
X05534Y03564*
X05538Y0357*
X05539Y03578*
X05538Y03585*
X05534Y03591*
X05528Y03595*
X05521Y03596*
X05513Y03595*
X05507Y03591*
X05503Y03585*
X05502Y03578*
X05503Y0357*
X05503Y0357*
X05482Y03549*
X05478Y03551*
Y03594*
X05826Y03941*
X0583Y03939*
G37*
G36*
X04467Y0372D02*
Y03649D01*
X04462Y03648*
X04461Y03652*
X04455Y0366*
X04447Y03666*
X04439Y03669*
X0443Y0367*
X0442Y03669*
X04412Y03666*
X04405Y0366*
X044Y03661*
Y03708*
X04405Y03709*
X04412Y03703*
X0442Y037*
X0443Y03699*
X04439Y037*
X04447Y03703*
X04455Y03709*
X04461Y03717*
X04462Y03721*
X04467Y0372*
G37*
G36*
X04556Y04047D02*
X04551Y04045D01*
X04549Y04049*
X04543Y04053*
X04536Y04054*
X04528Y04053*
X04522Y04049*
X04518Y04043*
X04517Y04036*
X04518Y04028*
X04522Y04022*
X04524Y04021*
Y03408*
X04525Y03403*
X04528Y034*
X04633Y03294*
Y03089*
X04629Y03085*
X04623*
X04621*
X04587*
Y03054*
X04594*
Y03044*
X04594Y03039*
X04597Y03036*
X04659Y02974*
X04663Y02971*
X04667Y0297*
X04728*
X04744Y02954*
Y02899*
X04815*
Y0297*
X0476*
X0474Y02989*
X04737Y02992*
X04733Y02993*
X04671*
X04618Y03046*
Y03052*
X0462Y03054*
X04626*
X04628*
X04662*
Y03085*
X04655*
Y03299*
X04655Y03303*
X04652Y03307*
X04547Y03412*
Y04021*
X04549Y04022*
X04551Y04026*
X04556Y04024*
Y03499*
X04557Y03494*
X0456Y03491*
X04854Y03196*
X04854Y03194*
X04855Y03186*
X04859Y0318*
X04865Y03176*
X04873Y03175*
X0488Y03176*
X04886Y0318*
X0489Y03186*
X04891Y03194*
X0489Y03201*
X04886Y03207*
X0488Y03211*
X04873Y03212*
X0487Y03212*
X0463Y03452*
X04632Y03457*
X04859*
Y03656*
X04751*
Y03742*
X0475Y03747*
X04747Y0375*
X04616Y03881*
X04619Y03886*
X04863*
Y03886*
X04867Y03887*
X0487Y0389*
X04943Y03962*
X05072*
Y03952*
X051*
Y03942*
X05072*
Y03921*
X05071Y03921*
X05034Y03883*
X05031Y0388*
X0503Y03876*
Y03716*
X05025Y03714*
X05023Y03718*
X05017Y03722*
X0501Y03723*
X05002Y03722*
X04996Y03718*
X04995Y03716*
X0497*
Y03716*
X04965Y03715*
X04962Y03712*
X04946Y03697*
X04944Y03693*
X04943Y03689*
Y02999*
X04939Y02995*
X04933*
X04931*
X04897*
Y02964*
X04904*
Y02824*
X04904Y0282*
X04907Y02816*
X04929Y02794*
X04933Y02791*
X04937Y0279*
X05091*
Y02772*
X04786*
X04441Y03117*
Y03301*
X04447Y03303*
X04455Y03309*
X04461Y03317*
X04461Y03319*
X04467Y03318*
X04467Y03316*
X04468Y03311*
X04471Y03308*
X04555Y03223*
X04555Y03221*
X04556Y03213*
X0456Y03207*
X04566Y03203*
X04574Y03202*
X04581Y03203*
X04587Y03207*
X04591Y03213*
X04592Y03221*
X04591Y03228*
X04587Y03234*
X04581Y03238*
X04574Y03239*
X04571Y03239*
X0449Y0332*
Y03986*
X04489Y0399*
X04486Y03993*
X04461Y04019*
X04464Y04025*
X04465Y04035*
X04464Y04044*
X04461Y04052*
X04455Y0406*
X04447Y04066*
X04439Y04069*
X0443Y0407*
X0442Y04069*
X04412Y04066*
X04405Y0406*
X044Y04061*
Y04108*
X04405Y04109*
X04412Y04103*
X0442Y041*
X0443Y04099*
X04439Y041*
X04447Y04103*
X04455Y04109*
X04461Y04117*
X04463Y04123*
X04556*
Y04047*
G37*
G36*
X0468Y04393D02*
D01*
X04683Y04391*
X04687Y0439*
X04761*
Y04381*
X04773*
Y04281*
X04615Y04123*
X04611Y04125*
Y04385*
X04648*
Y04418*
X04653Y0442*
X0468Y04393*
G37*
G36*
X05759Y04254D02*
X05795D01*
X05799*
X05828*
Y04138*
X05829Y04133*
X05832Y0413*
X0585Y04111*
Y04074*
X05753*
Y04221*
X05756Y04223*
X0576Y04229*
X05761Y04237*
X0576Y04244*
X05756Y0425*
X05751Y04253*
X05752Y04258*
X05752Y04258*
X05759*
Y04254*
G37*
G36*
X04915Y03992D02*
X04919Y03991D01*
X05076*
Y03985*
X04939*
X04934Y03984*
X04931Y03982*
X04863Y03914*
X04859Y03916*
Y03992*
X04915*
X04915Y03992*
G37*
G36*
X06137Y0432D02*
Y03999D01*
X06131*
Y04062*
X0613Y04066*
X06127Y0407*
X0611Y04087*
X06107Y04089*
X06102Y0409*
X06073*
Y04099*
X06046*
X06038Y04107*
Y04254*
X06044*
Y04285*
X06009*
X06005*
X05969*
Y04281*
X05947*
X05942Y0428*
X05939Y04277*
X05919Y04257*
X05916Y04254*
X05915Y0425*
Y0423*
X05909*
X05905*
X05898*
Y04288*
X05901Y04289*
X05905Y04295*
X05906Y04303*
X05905Y0431*
X05901Y04316*
X05894Y0432*
X05887Y04321*
X05882Y0432*
X0588Y04325*
X05885Y0433*
X06127*
X06137Y0432*
G37*
G36*
X05969Y04254D02*
X06005D01*
X06009*
X06015*
Y04102*
X06016Y04098*
X06019Y04094*
X06026Y04087*
Y04059*
X06073*
Y04068*
X06098*
X06108Y04057*
Y03999*
X06096*
Y03988*
X06025*
X06021Y03987*
X0602Y03987*
X05959*
Y03988*
X059*
Y03966*
X05864*
X05864Y03966*
X0586Y03967*
X05856Y03966*
X05856Y03966*
X05829*
X05829Y03966*
X05825Y03967*
X0582Y03966*
X05817Y03964*
X05786Y03933*
X05784Y03934*
X05781Y03935*
X0578Y03942*
X05776Y03948*
X05773Y0395*
Y04015*
X05873*
Y04074*
X05871*
Y04112*
X05871Y04112*
X05872Y04116*
X05871Y04119*
X05876Y04121*
X05985Y04012*
X05989Y0401*
X05993Y04009*
X06026*
Y04*
X06073*
Y0404*
X06026*
Y04031*
X05998*
X05875Y04154*
Y04199*
X05905*
X05909*
X05944*
Y0423*
X05938*
Y04245*
X05951Y04258*
X05969*
Y04254*
G37*
G36*
X06137Y04393D02*
Y04356D01*
X06132Y04353*
X06132Y04353*
X05881*
X05876Y04352*
X05873Y04349*
X05856Y04333*
X05855Y04333*
X05851Y04334*
Y04385*
X0585Y04389*
X05847Y04392*
X05811Y04429*
X05814Y04435*
X05815Y04445*
X05814Y04454*
X05811Y04462*
X05805Y0447*
X05797Y04476*
X05789Y04479*
X0578Y0448*
X0577Y04479*
X05762Y04476*
X05754Y0447*
X05748Y04462*
X05745Y04454*
X05744Y04445*
X05745Y04435*
X05748Y04427*
X05754Y04419*
X05762Y04413*
X0577Y0441*
X0578Y04409*
X05789Y0441*
X05795Y04413*
X05828Y0438*
Y04315*
X05823Y04314*
X05822Y04316*
X05816Y0432*
X05809Y04321*
X05801Y0432*
X05795Y04316*
X05791Y0431*
X0579Y04303*
X05791Y04295*
X05794Y0429*
X05793Y04286*
X05792Y04285*
X05759*
Y04281*
X05725*
X0572Y0428*
X05717Y04277*
X05699Y0426*
X05696Y04256*
X05695Y04252*
Y04235*
X05689*
X05685*
X05649*
Y04231*
X05617*
X0561Y04237*
Y04264*
X05617*
Y04295*
X05581*
X05578*
X05542*
Y04264*
X05549*
Y04242*
X05533Y04226*
X05514*
Y0423*
X05479*
X05475*
X05439*
X05436Y04228*
X05413Y0423*
X054Y04242*
Y04274*
X05407*
Y04305*
X05371*
X05368*
X05332*
Y04274*
X05339*
Y04247*
X05332Y04241*
X05294*
Y04245*
X05259*
X05255*
X05225*
Y04457*
X05257Y0449*
X0604*
X06137Y04393*
G37*
G36*
X05588Y04232D02*
D01*
X05589Y04228*
X05591Y04224*
X05604Y04212*
X05608Y04209*
X05612Y04208*
X05649*
Y04204*
X05685*
X05689*
X05724*
Y0422*
X05729Y04222*
X0573Y04221*
X05732Y04219*
Y04074*
X05615*
Y04114*
X05618Y04116*
X05622Y04122*
X05624Y0413*
X05622Y04137*
X05618Y04143*
X05612Y04147*
X05605Y04148*
X05598Y04147*
X05591Y04143*
X05587Y04137*
X05586Y0413*
X05587Y04122*
X05591Y04116*
X05594Y04114*
Y04074*
X05438*
Y04111*
X05441Y04113*
X05445Y04119*
X05447Y04127*
X05445Y04134*
X05441Y0414*
X05435Y04144*
X05428Y04145*
X0542Y04144*
X05414Y0414*
X0541Y04134*
X05409Y04127*
X0541Y04119*
X05414Y04113*
X05417Y04111*
Y04074*
X05399*
Y04194*
X05409Y04204*
X05409Y04204*
X05412Y04203*
X05412*
X05439*
Y04199*
X05475*
X05479*
X05514*
Y04203*
X05537*
X05542Y04204*
X05545Y04207*
X05568Y04229*
X0557Y04233*
X05571Y04237*
Y04264*
X05578*
X05581*
X05588*
Y04232*
G37*
G36*
X05378Y04237D02*
D01*
X05379Y04234*
X05379Y04233*
X0538Y04231*
X05381Y04229*
X05381*
X05389Y04221*
Y04216*
X0538Y04207*
X05378Y04204*
X05377Y042*
X05378Y04195*
X05378Y04195*
Y04074*
X05376*
Y04056*
X05367*
X05365Y04059*
X05359Y04063*
X05352Y04064*
X05344Y04063*
X05338Y04059*
X05334Y04053*
X05333Y04046*
X05334Y04038*
X05338Y04032*
X05344Y04028*
X05352Y04027*
X05359Y04028*
X05365Y04032*
X05367Y04035*
X05376*
Y04015*
X05398*
Y03985*
X05398Y03985*
X05397Y03981*
X05398Y03976*
X05398Y03976*
Y03818*
X05389Y03809*
X05349*
Y03826*
Y03865*
Y03905*
Y03944*
Y03988*
X0529*
Y03944*
Y03899*
X05285Y03896*
X05283Y03898*
Y03966*
X05282Y03971*
X05279Y03974*
X05225Y04029*
Y04214*
X05255*
X05259*
X05294*
Y04218*
X05337*
X05341Y04219*
X05345Y04222*
X05358Y04234*
X0536Y04238*
X05361Y04242*
Y04274*
X05368*
X05371*
X05378*
Y04237*
G37*
G36*
X04467Y0392D02*
Y03849D01*
X04462Y03848*
X04461Y03852*
X04455Y0386*
X04447Y03866*
X04439Y03869*
X0443Y0387*
X0442Y03869*
X04412Y03866*
X04405Y0386*
X044Y03861*
Y03908*
X04405Y03909*
X04412Y03903*
X0442Y039*
X0443Y03899*
X04439Y039*
X04447Y03903*
X04455Y03909*
X04461Y03917*
X04462Y03921*
X04467Y0392*
G37*
G36*
X05201Y0368D02*
Y03675D01*
X052Y03674*
X05196Y03673*
X05195Y03673*
X05194Y03674*
X05193Y03674*
X05193Y03675*
X05175Y0368*
X05175Y03684*
X0517Y03691*
X05162Y03696*
X05159Y03697*
Y03675*
Y03653*
X05162Y03654*
X05169Y03658*
X05178Y03656*
Y03636*
X0517*
Y03619*
X0519*
Y03609*
X0517*
Y03592*
X05174*
Y03557*
X05178*
Y03446*
X05175Y03443*
X05113*
Y03454*
X05071*
Y03461*
X05085*
Y03487*
Y03513*
X05071*
Y03721*
X05079Y03729*
X05104*
Y03722*
X05135*
Y03729*
X05152*
X05201Y0368*
G37*
G36*
X05403Y03715D02*
Y03632D01*
X05389*
X05387Y03637*
X0539Y03642*
X05392Y03649*
X0539Y03656*
X05386Y03662*
X0538Y03666*
X05373Y03668*
X05369Y03667*
X05368Y03668*
X05365Y0367*
X05361Y03671*
X05349*
Y03701*
X05353Y03703*
X05354Y03702*
X05362Y03701*
X05369Y03702*
X05375Y03706*
X05379Y03713*
X05381Y0372*
X05379Y03727*
X05375Y03733*
X05369Y03737*
X05362Y03739*
X05354Y03737*
X05353Y03737*
X05349Y03739*
Y03762*
X05354Y03764*
X05403Y03715*
G37*
G36*
X05125Y03861D02*
X05163D01*
Y03839*
X05125Y03801*
X05125*
Y0378*
X0512*
Y03775*
X051*
Y03758*
X05104*
Y03751*
X05075*
Y03751*
X05071Y03754*
Y03848*
X05096Y03873*
X05125*
Y03861*
G37*
G36*
X05456Y03916D02*
Y03599D01*
X05457Y03595*
X05457Y03595*
Y03546*
X05401Y0349*
X05398Y03486*
X05398Y03483*
Y03464*
X05376*
Y03405*
X05378*
Y03373*
X05375Y03371*
X05371Y03365*
X05369Y03358*
X05371Y0335*
X05375Y03344*
X05379Y03342*
X05377Y03337*
X05337*
X05335Y03341*
X05362Y03369*
X05365Y03372*
X05366Y03377*
Y03381*
X05365Y03385*
X05365Y03385*
X05364Y03608*
X05367Y03611*
X05409*
X05409Y03611*
X05413Y0361*
X05418Y03611*
X05421Y03613*
X05422Y03614*
X05424Y03618*
X05425Y03622*
Y03718*
X05424Y03723*
X05422Y03726*
X05418Y03729*
X05418Y03729*
X05364Y03783*
X05366Y03788*
X0539*
X0539Y03788*
X05395Y03787*
X05399Y03788*
X05402Y03791*
X05416Y03804*
X05418Y03808*
X05419Y03812*
X05418Y03816*
X05418Y03816*
Y03948*
X05423Y0395*
X05456Y03916*
G37*
G36*
X059Y03905D02*
Y03865D01*
Y03829*
X05897*
X05893Y03828*
X05889Y03826*
X05856Y03793*
X05853Y03794*
X05851Y03795*
Y03931*
X05866Y03946*
X059*
Y03905*
G37*
G36*
X05752Y0395D02*
X05749Y03948D01*
X05745Y03942*
X05743Y03935*
X05745Y03927*
X05749Y03921*
X05755Y03917*
X05761Y03916*
X05763Y03913*
X05763Y03911*
X05483Y03631*
X05479Y03633*
Y03921*
X05478Y03925*
X05476Y03928*
X0548Y03931*
X05551Y0386*
X05551Y03858*
X05552Y0385*
X05556Y03844*
X05562Y0384*
X0557Y03839*
X05577Y0384*
X05583Y03844*
X05587Y0385*
X05588Y03858*
X05587Y03865*
X05583Y03871*
X05577Y03875*
X0557Y03876*
X05567Y03876*
X05458Y03985*
Y04015*
X05752*
Y0395*
G37*
G36*
X06041Y03863D02*
Y03845D01*
X06015*
Y03792*
X06001*
X05986Y03806*
X05983Y03809*
X05979Y0381*
X05974Y03809*
X05974Y03809*
X05959*
Y03846*
Y03888*
X05964Y03889*
X0597Y03885*
X05978Y03884*
X05985Y03885*
X05991Y03889*
X05995Y03895*
X05996Y03901*
X06001Y03903*
X06041Y03863*
G37*
G36*
X04467Y0382D02*
Y03749D01*
X04462Y03748*
X04461Y03752*
X04455Y0376*
X04447Y03766*
X04439Y03769*
X0443Y0377*
X0442Y03769*
X04412Y03766*
X04405Y0376*
X044Y03761*
Y03808*
X04405Y03809*
X04412Y03803*
X0442Y038*
X0443Y03799*
X04439Y038*
X04447Y03803*
X04455Y03809*
X04461Y03817*
X04462Y03821*
X04467Y0382*
G37*
G36*
X0417Y0457D02*
Y04327D01*
X04161*
Y04517*
X0416Y04522*
X04158Y04525*
X04129Y04554*
X04126Y04556*
X04121Y04557*
X0381*
X03805Y04556*
X03802Y04554*
X0378Y04532*
X03778Y04529*
X03777Y04525*
Y0452*
X03772Y04518*
X03764Y04524*
X03755Y04528*
X0375Y04529*
Y0449*
Y0445*
X03755Y04451*
X03764Y04455*
X03772Y04461*
X03777Y04459*
Y04449*
X03778Y04444*
X0378Y04441*
X03792Y04428*
Y04363*
X03766*
Y04355*
X03727*
X03723Y04354*
X03719Y04351*
X03716Y04348*
X03683*
Y04359*
X03642*
Y0457*
X03648Y04576*
X04164*
X0417Y0457*
G37*
G36*
X03766Y04324D02*
X03808D01*
Y04304*
X03766*
Y04296*
X03729*
X03707Y04317*
X03704Y0432*
X037Y04321*
X03683*
Y04326*
X03721*
X03725Y04327*
X03728Y04329*
X03732Y04332*
X03766*
Y04324*
G37*
%LNhanc_digital-4*%
%LPC*%
G36*
X051Y0304D02*
X05083D01*
X05083Y03036*
X05088Y03028*
X05096Y03023*
X051Y03023*
Y0304*
G37*
G36*
X05126D02*
X0511D01*
Y03023*
X0511Y03023*
X05115Y03018*
Y02979*
X05087*
Y02945*
X05127*
X05166*
Y02979*
X05138*
Y03022*
X05137Y03027*
X05135Y0303*
X05126Y03039*
X05126Y0304*
G37*
G36*
X0511Y03066D02*
Y0305D01*
X05126*
X05126Y03053*
X05121Y03061*
X05113Y03066*
X0511Y03066*
G37*
G36*
X051D02*
X05096Y03066D01*
X05088Y03061*
X05083Y03053*
X05083Y0305*
X051*
Y03066*
G37*
G36*
X0491Y0304D02*
X04893D01*
X04893Y03036*
X04898Y03028*
X04906Y03023*
X0491Y03023*
Y0304*
G37*
G36*
X04936D02*
X0492D01*
Y03023*
X04923Y03023*
X04931Y03028*
X04936Y03036*
X04936Y0304*
G37*
G36*
X0492Y03066D02*
Y0305D01*
X04936*
X04936Y03053*
X04931Y03061*
X04923Y03066*
X0492Y03066*
G37*
G36*
X04819Y03112D02*
X04785D01*
Y03072*
Y03033*
X04819*
Y03061*
X04882*
X04893Y0305*
X04893Y0305*
X0491*
Y03066*
X04909Y03066*
X04895Y0308*
X04891Y03083*
X04887Y03084*
X04819*
Y03112*
G37*
G36*
X04775Y03067D02*
X0474D01*
Y03033*
X04775*
Y03067*
G37*
G36*
Y03112D02*
X0474D01*
Y03077*
X04775*
Y03112*
G37*
G36*
X0558Y0448D02*
X0557Y04479D01*
X05562Y04476*
X05554Y0447*
X05548Y04462*
X05545Y04454*
X05544Y04445*
X05545Y04435*
X05548Y04427*
X05554Y04419*
X05562Y04413*
X0557Y0441*
X0558Y04409*
X05589Y0441*
X05597Y04413*
X05605Y04419*
X05611Y04427*
X05614Y04435*
X05615Y04445*
X05614Y04454*
X05611Y04462*
X05605Y0447*
X05597Y04476*
X05589Y04479*
X0558Y0448*
G37*
G36*
X0548D02*
X0547Y04479D01*
X05462Y04476*
X05454Y0447*
X05448Y04462*
X05445Y04454*
X05444Y04445*
X05445Y04435*
X05448Y04427*
X05454Y04419*
X05462Y04413*
X0547Y0441*
X0548Y04409*
X05489Y0441*
X05497Y04413*
X05505Y04419*
X05511Y04427*
X05514Y04435*
X05515Y04445*
X05514Y04454*
X05511Y04462*
X05505Y0447*
X05497Y04476*
X05489Y04479*
X0548Y0448*
G37*
G36*
X0538D02*
X0537Y04479D01*
X05362Y04476*
X05354Y0447*
X05348Y04462*
X05345Y04454*
X05344Y04445*
X05345Y04435*
X05348Y04427*
X05354Y04419*
X05362Y04413*
X0537Y0441*
X0538Y04409*
X05389Y0441*
X05397Y04413*
X05405Y04419*
X05411Y04427*
X05414Y04435*
X05415Y04445*
X05414Y04454*
X05411Y04462*
X05405Y0447*
X05397Y04476*
X05389Y04479*
X0538Y0448*
G37*
G36*
X05685Y04484D02*
Y0445D01*
X05719*
X05718Y04455*
X05714Y04464*
X05708Y04473*
X05699Y04479*
X0569Y04483*
X05685Y04484*
G37*
G36*
X05915Y0448D02*
X05844D01*
Y04409*
X05915*
Y0448*
G37*
G36*
X05675Y04484D02*
X05669Y04483D01*
X0566Y04479*
X05651Y04473*
X05645Y04464*
X05641Y04455*
X0564Y0445*
X05675*
Y04484*
G37*
G36*
X05719Y0444D02*
X05685D01*
Y04405*
X0569Y04406*
X05699Y0441*
X05708Y04416*
X05714Y04425*
X05718Y04434*
X05719Y0444*
G37*
G36*
X05675D02*
X0564D01*
X05641Y04434*
X05645Y04425*
X05651Y04416*
X0566Y0441*
X05669Y04406*
X05675Y04405*
Y0444*
G37*
G36*
X05149Y03697D02*
X05145Y03696D01*
X05137Y03691*
X05132Y03684*
X05132Y0368*
X05149*
Y03697*
G37*
G36*
X05117Y03513D02*
X05095D01*
Y03492*
X05117*
Y03513*
G37*
G36*
Y03482D02*
X05095D01*
Y03461*
X05117*
Y03482*
G37*
G36*
X05149Y0367D02*
X05132D01*
X05132Y03666*
X05137Y03659*
X05145Y03654*
X05149Y03653*
Y0367*
G37*
G36*
X05115Y03801D02*
X051D01*
Y03785*
X05115*
Y03801*
G37*
G36*
X0374Y04485D02*
X03705D01*
X03706Y04479*
X0371Y0447*
X03716Y04461*
X03725Y04455*
X03734Y04451*
X0374Y0445*
Y04485*
G37*
G36*
Y04529D02*
X03734Y04528D01*
X03725Y04524*
X03716Y04518*
X0371Y04509*
X03706Y045*
X03705Y04495*
X0374*
Y04529*
G37*
%LNhanc_digital-5*%
%LPD*%
G54D10*
X05394Y0319D03*
X05355D03*
X04644Y0307D03*
X04605D03*
X04954Y0298D03*
X04915D03*
X05459Y0276D03*
X0542D03*
X05915Y02812D03*
X05876D03*
X05902Y03146D03*
X05863D03*
X05987Y0427D03*
X06027D03*
X05927Y04215D03*
X05887D03*
X05777Y0427D03*
X05817D03*
X05667Y0422D03*
X05707D03*
X0556Y0428D03*
X05599D03*
X05457Y04215D03*
X05497D03*
X0535Y0429D03*
X05389D03*
X05237Y0423D03*
X05277D03*
G54D11*
X0519Y03325D03*
Y03365D03*
G54D12*
X0509Y03432D03*
Y03487D03*
X0365Y03477D03*
Y03532D03*
X0409Y03667D03*
Y03612D03*
X04085Y03432D03*
Y03377D03*
X0403Y03487D03*
Y03542D03*
X0612Y03922D03*
Y03977D03*
X04445Y0446D03*
Y04405D03*
X051Y03947D03*
Y04002D03*
X0366Y04337D03*
Y04282D03*
G54D13*
X05147Y03885D03*
X05202D03*
X03832Y0372D03*
X03777D03*
X03937D03*
X03882D03*
X0378Y04125D03*
X03724D03*
G54D14*
X06055Y03818D03*
Y03711D03*
X06155Y03713D03*
Y03606D03*
G54D15*
X0519Y03614D03*
Y03575D03*
X0512Y0374D03*
Y0378D03*
G54D16*
X0474Y04003D03*
Y03556D03*
G54D17*
X03764Y03514D03*
Y03494D03*
Y03474D03*
Y03455D03*
Y03435D03*
Y03415D03*
X03945D03*
Y03435D03*
Y03455D03*
Y03474D03*
Y03494D03*
Y03514D03*
G54D18*
X03805Y03374D03*
X03825D03*
X03845D03*
X03864D03*
X03884D03*
X03904D03*
Y03555D03*
X03884D03*
X03864D03*
X03845D03*
X03825D03*
X03805D03*
G54D19*
X03855Y03465D03*
G54D20*
X0379Y04344D03*
Y04285D03*
X05085Y04478D03*
Y04419D03*
X0605Y04079D03*
Y0402D03*
X04625Y04464D03*
Y04405D03*
X04785Y0446D03*
Y04401D03*
X04935Y04464D03*
Y04405D03*
G54D21*
X0406Y04045D03*
G54D22*
X03969Y04274D03*
X0406D03*
X0415D03*
G54D23*
X0478Y03072D03*
Y02935D03*
X05127Y0294D03*
Y02802D03*
X0573Y0294D03*
Y02802D03*
X06063Y02922D03*
Y03059D03*
X05435Y0307D03*
Y02932D03*
X06385Y04235D03*
X0443D03*
G54D24*
X05319Y03976D03*
Y03956D03*
Y03936D03*
Y03917D03*
Y03897D03*
Y03877D03*
Y03858D03*
Y03838D03*
Y03818D03*
Y03799D03*
Y03779D03*
Y03759D03*
Y0374D03*
Y0372D03*
Y037D03*
Y0368D03*
Y03661D03*
Y03641D03*
Y03621D03*
Y03602D03*
Y03582D03*
Y03562D03*
Y03543D03*
Y03523D03*
Y03503D03*
X0593D03*
Y03523D03*
Y03543D03*
Y03562D03*
Y03582D03*
Y03602D03*
Y03621D03*
Y03641D03*
Y03661D03*
Y0368D03*
Y037D03*
Y0372D03*
Y0374D03*
Y03759D03*
Y03779D03*
Y03799D03*
Y03818D03*
Y03838D03*
Y03858D03*
Y03877D03*
Y03897D03*
Y03917D03*
Y03936D03*
Y03956D03*
Y03976D03*
G54D25*
X05388Y03434D03*
X05408D03*
X05428D03*
X05447D03*
X05467D03*
X05487D03*
X05506D03*
X05526D03*
X05546D03*
X05565D03*
X05585D03*
X05605D03*
X05625D03*
X05644D03*
X05664D03*
X05684D03*
X05703D03*
X05723D03*
X05743D03*
X05762D03*
X05782D03*
X05802D03*
X05821D03*
X05841D03*
X05861D03*
Y04045D03*
X05841D03*
X05821D03*
X05802D03*
X05782D03*
X05762D03*
X05743D03*
X05723D03*
X05703D03*
X05684D03*
X05664D03*
X05644D03*
X05625D03*
X05605D03*
X05585D03*
X05565D03*
X05546D03*
X05526D03*
X05506D03*
X05487D03*
X05467D03*
X05447D03*
X05428D03*
X05408D03*
X05388D03*
G54D26*
X05143Y0378D02*
X05175Y03748D01*
X06089Y03647D02*
Y03711D01*
X05127Y02861D02*
Y0294D01*
X0517Y03363D02*
X0519D01*
X03605Y03433D02*
X03606Y03432D01*
X03605Y03433D02*
Y0415D01*
X03845Y03862D02*
Y0449D01*
X03621Y03638D02*
X03845Y03862D01*
X03621Y03448D02*
Y03638D01*
Y03448D02*
X03622Y03447D01*
X03715*
X03724Y03455*
X04536Y03408D02*
Y04036D01*
Y03408D02*
X04644Y03299D01*
Y0307D02*
Y03299D01*
X05447Y0398D02*
X0557Y03858D01*
X0497Y03705D02*
X0501D01*
X04954Y03689D02*
X0497Y03705D01*
X04954Y0298D02*
Y03689D01*
X05989Y0372D02*
X06023Y03755D01*
X06195*
X0623Y0372*
Y02951D02*
Y0372D01*
X06003Y02725D02*
X0623Y02951D01*
X05974Y037D02*
X05995Y03679D01*
X06072*
X06073Y03678*
X06001Y03663D02*
X06007D01*
X06057Y03613*
X05884Y03745D02*
X05895Y03734D01*
X05995Y03641D02*
X06008Y03629D01*
X0602Y0333D02*
Y0357D01*
X05999Y03591D02*
X0602Y0357D01*
X06319Y04154D02*
X06385Y0422D01*
X06319Y03798D02*
Y04154D01*
X06302Y03781D02*
X06319Y03798D01*
X05997Y03781D02*
X06302D01*
X05979Y03799D02*
X05997Y03781D01*
X042Y03358D02*
Y03606D01*
X04187Y03346D02*
X042Y03358D01*
X04019Y03346D02*
X04187D01*
X05254Y03675D02*
X05259Y0368D01*
X03989Y03455D02*
X04003Y03442D01*
X05208Y03738D02*
X05245Y037D01*
X05208Y03738D02*
Y03748D01*
X05204Y03752D02*
X05208Y03748D01*
X05204Y03752D02*
Y03785D01*
X04043Y0344D02*
Y03449D01*
X04015Y03412D02*
X04043Y0344D01*
X04Y03412D02*
X04015D01*
X05645Y0327D02*
Y03356D01*
X04479Y03316D02*
X04574Y03221D01*
X04479Y03316D02*
Y03986D01*
X0443Y04035D02*
X04479Y03986D01*
X04568Y03499D02*
X04873Y03194D01*
X04568Y03499D02*
Y04134D01*
X04567Y04135D02*
X04568Y04134D01*
X0443Y04135D02*
X04567D01*
X052Y03116D02*
X0544D01*
X05186Y03102D02*
X052Y03116D01*
X05186Y02775D02*
Y03102D01*
X05172Y02761D02*
X05186Y02775D01*
X04782Y02761D02*
X05172D01*
X0443Y03113D02*
X04782Y02761D01*
X0443Y03113D02*
Y03335D01*
X0578Y04445D02*
X0584Y04385D01*
Y04138D02*
Y04385D01*
Y04138D02*
X05861Y04116D01*
X0586Y03572D02*
Y03781D01*
Y03572D02*
X05886Y03546D01*
X04389Y03585D02*
Y04194D01*
X0443Y04235*
X03884Y03263D02*
X03899Y03249D01*
X05219Y03487D02*
X05235Y03503D01*
X05219Y03354D02*
Y03487D01*
X05395Y03799D02*
X05408Y03812D01*
Y03981D02*
X05468Y03921D01*
Y03599D02*
Y03921D01*
Y03599D02*
X05825Y03956D01*
X05841Y03937D02*
X0586Y03956D01*
X05157Y04032D02*
X05255Y03934D01*
X05043Y04224D02*
Y044D01*
X05062Y04419D02*
X05085D01*
X05255Y03793D02*
Y03934D01*
X05157Y04032D02*
Y0411D01*
X05043Y04224D02*
X05157Y0411D01*
X05043Y044D02*
X05062Y04419D01*
X05032D02*
X05062D01*
X04987Y04464D02*
X05032Y04419D01*
X04935Y04464D02*
X04987D01*
X04625D02*
X04687Y04401D01*
X04785*
X04733Y02982D02*
X0478Y02935D01*
X04667Y02982D02*
X04733D01*
X04605Y03044D02*
X04667Y02982D01*
X04605Y03044D02*
Y0307D01*
X04937Y02802D02*
X05127D01*
X04915Y02824D02*
X04937Y02802D01*
X04915Y02824D02*
Y0298D01*
X03777Y0372D02*
X03804D01*
X03963Y03584D02*
X03979Y036D01*
Y03623*
X03715Y03494D02*
X03764D01*
X03698Y03477D02*
X03715Y03494D01*
X0365Y03477D02*
X03698D01*
X03716Y03514D02*
X03764D01*
X03698Y03532D02*
X03716Y03514D01*
X0365Y03532D02*
X03698D01*
X04085Y03432D02*
X04113D01*
X04114Y03431*
Y03385D02*
Y03431D01*
Y03385D02*
X04125Y03374D01*
X04077Y03377D02*
X04085D01*
X04048Y03406D02*
X04077Y03377D01*
X0401Y03487D02*
X0403D01*
X03998Y03474D02*
X0401Y03487D01*
X03979Y03542D02*
X0403D01*
X03979Y03543D02*
X03979Y03542D01*
X06155Y03713D02*
X06191Y03708D01*
X06214Y03686*
Y0344D02*
Y03686D01*
X06167Y03393D02*
X06214Y0344D01*
X06053Y03818D02*
X06055D01*
X05984Y03936D02*
X06053Y03867D01*
X05993Y0402D02*
X0605D01*
X05881Y04342D02*
X06132D01*
X06149Y04325*
Y03923D02*
Y04325D01*
X06148Y03922D02*
X06149Y03923D01*
X0612Y03922D02*
X06148D01*
X05864Y0415D02*
X05993Y0402D01*
X05864Y0415D02*
Y04325D01*
X05881Y04342*
X06149Y04325D02*
Y04398D01*
X06045Y04501D02*
X06149Y04398D01*
X05253Y04501D02*
X06045D01*
X05214Y04462D02*
X05253Y04501D01*
X05214Y04024D02*
Y04462D01*
Y04024D02*
X05272Y03966D01*
Y03893D02*
Y03966D01*
X0519Y03563D02*
Y03575D01*
Y03365D02*
Y03417D01*
Y03563D02*
X0519Y03562D01*
X0519Y03417D02*
Y03563D01*
X05175Y03432D02*
X0519Y03417D01*
X0509Y03432D02*
X05175D01*
X0519Y03363D02*
Y03365D01*
X05169Y03362D02*
X0517Y03363D01*
X05169Y03208D02*
Y03362D01*
Y03208D02*
X05187Y0319D01*
X05355*
X04445Y04405D02*
X04601D01*
X0474Y03556D02*
Y03742D01*
X04599Y03883D02*
X0474Y03742D01*
X04599Y03883D02*
Y04404D01*
X04601Y04405*
X04625*
X04935Y04289D02*
Y04405D01*
Y04289D02*
X051Y04124D01*
Y04002D02*
Y04124D01*
X04919Y04002D02*
X051D01*
X04919Y04003D02*
X04919Y04002D01*
X0474Y04003D02*
X04919D01*
X0415Y04274D02*
Y04517D01*
X04121Y04546D02*
X0415Y04517D01*
X0381Y04546D02*
X04121D01*
X03788Y04525D02*
X0381Y04546D01*
X03788Y04449D02*
Y04525D01*
Y04449D02*
X03804Y04433D01*
X0379Y04344D02*
X03804D01*
X03727D02*
X0379D01*
X03721Y04337D02*
X03727Y04344D01*
X0366Y04337D02*
X03721D01*
X05202Y03862D02*
Y03885D01*
X06055Y03711D02*
X06089D01*
Y03647D02*
X06155Y03606D01*
X06024Y03976D02*
X06025Y03977D01*
X0612*
Y04062*
X06102Y04079D02*
X0612Y04062D01*
X0605Y04079D02*
X06102D01*
X06027Y04102D02*
X0605Y04079D01*
X06027Y04102D02*
Y0427D01*
X05987D02*
X06027D01*
X05947D02*
X05987D01*
X05927Y0425D02*
X05947Y0427D01*
X05927Y04215D02*
Y0425D01*
X05887Y04215D02*
X05927D01*
X05887D02*
Y04303D01*
X05809D02*
X05817Y04294D01*
Y0427D02*
Y04294D01*
X05777Y0427D02*
X05817D01*
X05725D02*
X05777D01*
X05707Y04252D02*
X05725Y0427D01*
X05707Y0422D02*
Y04252D01*
X04129Y03607D02*
X04147Y03625D01*
Y041*
X04127Y0412D02*
X04147Y041D01*
X03986Y0412D02*
X04127D01*
X03969Y04137D02*
X03986Y0412D01*
X03969Y04137D02*
Y04274D01*
X05667Y0422D02*
X05707D01*
X05612D02*
X05667D01*
X05599Y04232D02*
X05612Y0422D01*
X05599Y04232D02*
Y0428D01*
X05237Y0423D02*
X05277D01*
X05337*
X0535Y04242*
Y0429*
X0556Y0428D02*
X05599D01*
X03969Y04274D02*
Y0428D01*
X03886Y04364D02*
X03969Y0428D01*
X03886Y04364D02*
Y04512D01*
X03867Y0453D02*
X03886Y04512D01*
X03822Y0453D02*
X03867D01*
X03804Y04512D02*
X03822Y0453D01*
X03804Y04465D02*
Y04512D01*
Y04465D02*
X0382Y0445D01*
Y0426D02*
Y0445D01*
X0378Y0422D02*
X0382Y0426D01*
X0378Y04125D02*
Y0422D01*
X0556Y04237D02*
Y0428D01*
X05537Y04215D02*
X0556Y04237D01*
X05497Y04215D02*
X05537D01*
X05413Y03621D02*
X05414Y03622D01*
X0519Y03325D02*
Y03326D01*
X05304D02*
X05427D01*
X05428Y03327*
X05355Y03377D02*
Y03381D01*
X05245Y03326D02*
X05304D01*
X05414Y03622D02*
Y03718D01*
X0378Y03919D02*
Y03994D01*
Y04125*
X05304Y03326D02*
X05355Y03377D01*
X03727Y03866D02*
X0378Y03919D01*
X0535Y0429D02*
X05389D01*
Y04237D02*
Y0429D01*
Y04237D02*
X05407Y04219D01*
X05457Y04215*
X05388Y042D02*
X05407Y04219D01*
X05412Y04215*
X05457*
X05497*
X0573Y02861D02*
Y0294D01*
X05174Y03913D02*
X05175Y03912D01*
X05079Y03913D02*
X05174D01*
X05042Y03876D02*
X05079Y03913D01*
X05042Y02946D02*
Y03876D01*
Y02946D02*
X05127Y02861D01*
X05234Y03767D02*
X05262Y0374D01*
X05234Y03767D02*
Y0391D01*
X0517Y03974D02*
X05234Y0391D01*
X04939Y03974D02*
X0517D01*
X04863Y03898D02*
X04939Y03974D01*
X04616Y03898D02*
X04863D01*
X04615Y03899D02*
X04616Y03898D01*
X04615Y03899D02*
Y04108D01*
X04785Y04277*
Y04401*
X05394Y03168D02*
Y0319D01*
X05393Y03167D02*
X05394Y03168D01*
X0506Y03181D02*
X05075Y03167D01*
X0506Y03853D02*
X05091Y03884D01*
X05146*
Y03885D02*
X05147D01*
X05075Y03167D02*
X05393D01*
X0506Y03181D02*
Y03726D01*
X05075Y0374*
X0512*
X05229Y03623D02*
X0525Y03602D01*
X05185Y03738D02*
X05229Y03694D01*
X05184Y03736D02*
X05185Y03738D01*
X05154Y03768D02*
X05184Y03736D01*
X05154Y03675D02*
X0519Y03664D01*
Y03614D02*
Y03664D01*
X0512Y0378D02*
X05143D01*
X05229Y03623D02*
Y03694D01*
X05213Y03585D02*
X05216Y03582D01*
X05213Y03585D02*
Y03685D01*
X05157Y0374D02*
X05213Y03685D01*
X0512Y0374D02*
X05157D01*
X03626Y04282D02*
X0366D01*
X03725Y04285D02*
X0379D01*
X037Y0431D02*
X03725Y04285D01*
X03632Y0431D02*
X037D01*
X03631Y04311D02*
X03632Y0431D01*
X03631Y04311D02*
Y04575D01*
X03643Y04587*
X04169*
X04182Y04575*
Y04216D02*
Y04575D01*
X04181Y04215D02*
X04182Y04216D01*
X0412Y04215D02*
X04181D01*
X04119Y04216D02*
X0412Y04215D01*
X04119Y04216D02*
Y04416D01*
X04045Y0449D02*
X04119Y04416D01*
X05202Y03885D02*
Y03913D01*
X05201Y03914D02*
X05202Y03913D01*
X05112Y03914D02*
X05201D01*
X051Y03926D02*
X05112Y03914D01*
X051Y03926D02*
Y03947D01*
X0506Y03726D02*
Y03853D01*
X0512Y0378D02*
X05175Y03835D01*
X05202Y03862*
X05175Y03748D02*
Y03835D01*
Y03912*
Y03748D02*
X05185Y03738D01*
X03804Y04344D02*
Y04433D01*
X06118Y03574D02*
X06131Y03562D01*
X06116Y03574D02*
X06118D01*
X06073Y03618D02*
Y03678D01*
Y03618D02*
X06116Y03574D01*
X05963Y02858D02*
X0609D01*
X06131Y02899*
Y03562*
X05868Y028D02*
X05876Y02809D01*
X0573Y028D02*
X05868D01*
X0573Y028D02*
X0573Y028D01*
X05494Y02725D02*
X06003D01*
X0539Y0279D02*
X0542Y0276D01*
X0539Y0279D02*
Y02887D01*
X05435Y02932*
X05459Y0276D02*
X05494Y02725D01*
X0478Y03072D02*
X04887D01*
X04915Y03045*
X05105D02*
X05127Y03022D01*
Y0294D02*
Y03022D01*
X06057Y03193D02*
Y03613D01*
X05902Y03146D02*
X0601D01*
X06057Y03193*
X05863Y03086D02*
Y03146D01*
Y03086D02*
X0588Y0307D01*
X06052*
X06063Y03059*
X0388Y03617D02*
Y0366D01*
X0387Y03683D02*
X03889D01*
X03849Y036D02*
Y03663D01*
X0387Y03683*
X0393Y0362D02*
Y03643D01*
X03889Y03683D02*
X0393Y03643D01*
X03882Y0372D02*
X03979Y03623D01*
X0378Y03695D02*
X03804Y0372D01*
X05585Y03315D02*
Y03339D01*
X0558Y0331D02*
X05585Y03315D01*
X0544Y03116D02*
X05557Y03233D01*
X05467Y03518D02*
X05521Y03572D01*
Y03578*
X06053Y03818D02*
Y03867D01*
X0593Y03976D02*
X06024D01*
X05146Y03884D02*
Y03885D01*
X05916Y02811D02*
X05963Y02858D01*
X0409Y03607D02*
X04129D01*
X0519Y03326D02*
X05245D01*
G54D27*
X03743Y03435D02*
X03764D01*
X0374Y03432D02*
X03743Y03435D01*
X03606Y03432D02*
X0374D01*
X03724Y03455D02*
X03764D01*
X0395Y03415D02*
X04019Y03346D01*
X03945Y03415D02*
X0395D01*
X03945Y03455D02*
X03989D01*
X03977Y03435D02*
X04Y03412D01*
X03945Y03435D02*
X03977D01*
X03884Y03263D02*
Y03374D01*
Y03555D02*
Y03583D01*
X03885Y03584*
X03963*
X03945Y03474D02*
X03998D01*
X03864Y03555D02*
Y03587D01*
X03904Y03547D02*
Y03555D01*
Y03547D02*
X03932Y03514D01*
X03945*
X03864Y03587D02*
X0388Y03602D01*
Y03617*
X0378Y03581D02*
Y03695D01*
X0382Y036D02*
X03825Y03594D01*
X03904Y03547D02*
X03931D01*
G54D28*
X05447Y0398D02*
Y04045D01*
X05955Y0368D02*
X05972Y03663D01*
X06001*
X05895Y03662D02*
Y03734D01*
Y03662D02*
X05896Y03661D01*
X0593*
X05969Y03621D02*
X05999Y03591D01*
X05762Y03935D02*
Y04045D01*
X05361Y03661D02*
X05373Y03649D01*
X05259Y0368D02*
X05319D01*
X05245Y037D02*
X05319D01*
X05896Y03522D02*
X0593Y03523D01*
X05948Y03478D02*
X05974Y03452D01*
X05605Y03396D02*
Y03434D01*
Y03396D02*
X05645Y03356D01*
X05585Y03339D02*
Y03434D01*
X05964Y03917D02*
X05978Y03903D01*
X05897Y03818D02*
X0593D01*
X0586Y03781D02*
X05897Y03818D01*
X05487Y03475D02*
X05675Y03663D01*
X05388Y03358D02*
Y03434D01*
X05235Y03503D02*
X05319D01*
X05408Y03981D02*
Y04045D01*
Y03812D02*
Y03981D01*
X05468Y03542D02*
Y03599D01*
X05408Y03483D02*
X05468Y03542D01*
X0586Y03956D02*
X0593D01*
X05825D02*
X0586D01*
X05289Y03759D02*
X05319D01*
X05255Y03793D02*
X05289Y03759D01*
X05272Y03893D02*
X05287Y03877D01*
X05319*
X0519Y03562D02*
X05319D01*
X05354Y03621D02*
X05355Y03381D01*
X05428Y03327D02*
Y03434D01*
X05354Y03621D02*
X05413D01*
X05354Y03779D02*
X05414Y03718D01*
X05388Y04045D02*
Y04046D01*
X05262Y0374D02*
X05319D01*
X0525Y03602D02*
X05319D01*
X05216Y03582D02*
X05319D01*
X05565Y03341D02*
Y03434D01*
X05557Y03233D02*
Y03332D01*
X05565Y03341*
X05948Y03478D02*
Y03503D01*
X05506Y03462D02*
X05649Y03605D01*
X0593Y03936D02*
X05984D01*
X0593Y0368D02*
X05955D01*
X05506Y03434D02*
Y03462D01*
X0593Y03799D02*
X05979D01*
X05487Y03434D02*
Y03475D01*
X05428Y04045D02*
Y04127D01*
X05388Y04046D02*
Y042D01*
X05319Y03779D02*
X05354D01*
X05319Y03621D02*
X05354D01*
X05605Y04045D02*
Y0413D01*
X0593Y03641D02*
X05995D01*
X05467Y03434D02*
Y03518D01*
X05743Y04045D02*
Y04237D01*
X05861Y04045D02*
Y04116D01*
X05319Y03661D02*
X05361D01*
X0593Y0372D02*
X05989D01*
X0593Y03621D02*
X05969D01*
X05319Y0372D02*
X05362D01*
X0593Y03917D02*
X05964D01*
X0593Y037D02*
X05974D01*
X0593Y03503D02*
X05948D01*
X05319Y03799D02*
X05395D01*
X05408Y03434D02*
Y03483D01*
X0574Y0353D02*
X0574D01*
X05802Y03434D02*
Y03468D01*
X0574Y0353D02*
X05802Y03468D01*
X05841Y03434D02*
Y03937D01*
X05896Y03522D02*
X05896Y03522D01*
X0589Y0345D02*
X05896Y03456D01*
Y03522*
X05861Y03434D02*
X0589Y03406D01*
Y0334D02*
Y03406D01*
X0573Y033D02*
X05732Y03297D01*
X05847*
X0582Y0332D02*
X05821Y03321D01*
Y03434*
X05847Y03297D02*
X0589Y0334D01*
X05352Y04046D02*
X05388D01*
G54D29*
X03845Y03555D02*
Y03595D01*
X03825Y03555D02*
Y03594D01*
X0378Y03581D02*
X03805Y03555D01*
X03864Y03324D02*
Y03374D01*
X03859Y03319D02*
X03864Y03324D01*
X03859Y03279D02*
Y03319D01*
X0578Y0335D02*
Y0343D01*
G54D30*
X03845Y03595D02*
X03849Y036D01*
G54D31*
X06385Y04135D03*
Y03935D03*
Y03835D03*
Y03735D03*
Y03635D03*
Y03535D03*
Y03435D03*
Y03335D03*
Y04035D03*
X0443Y04135D03*
Y03935D03*
Y03835D03*
Y03735D03*
Y03635D03*
Y03535D03*
Y03435D03*
Y03335D03*
Y04035D03*
X0638Y0444D03*
X03945Y0449D03*
X03845D03*
X03745D03*
X0538Y04445D03*
X0548D03*
X0558D03*
X0568D03*
X0578D03*
G54D32*
X0628Y0444D03*
X04045Y0449D03*
X0588Y04445D03*
G54D33*
X03833Y03486D03*
X03876D03*
X03833Y03443D03*
X03876D03*
X03605Y0415D03*
X05428Y04127D03*
X04536Y04036D03*
X0557Y03858D03*
X0501Y03705D03*
X05884Y03745D03*
X06008Y03629D03*
X0602Y0333D03*
X05743Y04237D03*
X05762Y03935D03*
X05373Y03649D03*
X042Y03606D03*
X05254Y03675D03*
X04003Y03442D03*
X05204Y03785D03*
X04043Y03449D03*
X05974Y03452D03*
X05605Y0413D03*
X05645Y0327D03*
X04574Y03221D03*
X04873Y03194D03*
X05978Y03903D03*
X05886Y03546D03*
X04389Y03585D03*
X05675Y03663D03*
X05388Y03358D03*
X03899Y03249D03*
X05219Y03354D03*
X05362Y0372D03*
X04125Y03374D03*
X04048Y03406D03*
X03979Y03543D03*
X06167Y03393D03*
X05887Y04303D03*
X05809D03*
X05304Y03326D03*
X03931Y03547D03*
X05245Y03326D03*
X03727Y03866D03*
X0378Y03994D03*
X05352Y04046D03*
X0573Y02861D03*
X05127D03*
X05127D03*
X05154Y03768D03*
Y03675D03*
X03626Y04282D03*
X04915Y03045D03*
X05105D03*
X0388Y0366D03*
X0393Y0362D03*
X0382Y036D03*
X0558Y0331D03*
X03859Y03279D03*
X05521Y03578D03*
X05649Y03605D03*
X0574Y0353D03*
X0589Y0345D03*
X0573Y033D03*
X0582Y0332D03*
X0578Y0335D03*
M02*