%FSTAX23Y23*%
%MOIN*%
%SFA1B1*%

%IPPOS*%
%ADD26C,0.010000*%
%ADD34C,0.009840*%
%ADD35C,0.023620*%
%ADD36C,0.005000*%
%ADD37C,0.007870*%
%LNhanc_digital-1*%
%LPD*%
G54D26*
X06021Y04349D02*
X06013Y04357D01*
X05997*
X0599Y04349*
Y04317*
X05997Y0431*
X06013*
X06021Y04317*
X06037Y0431D02*
X06052D01*
X06045*
Y04357*
X06037Y04349*
X06076Y0431D02*
X06092D01*
X06084*
Y04357*
X06076Y04349*
X06115D02*
X06123Y04357D01*
X06139*
X06147Y04349*
Y04341*
X06139Y04333*
X06131*
X06139*
X06147Y04325*
Y04317*
X06139Y0431*
X06123*
X06115Y04317*
X03731Y04079D02*
X03723Y04087D01*
X03707*
X037Y04079*
Y04047*
X03707Y0404*
X03723*
X03731Y04047*
X03747Y0404D02*
X03762D01*
X03755*
Y04087*
X03747Y04079*
X03636Y04409D02*
X03628Y04417D01*
X03612*
X03605Y04409*
Y04377*
X03612Y0437*
X03628*
X03636Y04377*
X03683Y0437D02*
X03652D01*
X03683Y04401*
Y04409*
X03675Y04417*
X0366*
X03652Y04409*
X04916Y03994D02*
X04908Y04002D01*
X04892*
X04885Y03994*
Y03962*
X04892Y03955*
X04908*
X04916Y03962*
X04932Y03955D02*
X04947D01*
X0494*
Y04002*
X04932Y03994*
X04971D02*
X04979Y04002D01*
X04995*
X05003Y03994*
Y03962*
X04995Y03955*
X04979*
X04971Y03962*
Y03994*
X05018D02*
X05026Y04002D01*
X05042*
X0505Y03994*
Y03962*
X05042Y03955*
X05026*
X05018Y03962*
Y03994*
X04261Y04464D02*
X04253Y04472D01*
X04237*
X0423Y04464*
Y04432*
X04237Y04425*
X04253*
X04261Y04432*
X04277Y04425D02*
X04292D01*
X04285*
Y04472*
X04277Y04464*
X04316D02*
X04324Y04472D01*
X0434*
X04348Y04464*
Y04432*
X0434Y04425*
X04324*
X04316Y04432*
Y04464*
X04363Y04425D02*
X04379D01*
X04371*
Y04472*
X04363Y04464*
X04951Y03899D02*
X04943Y03907D01*
X04927*
X0492Y03899*
Y03867*
X04927Y0386*
X04943*
X04951Y03867*
X04967Y0386D02*
X04982D01*
X04975*
Y03907*
X04967Y03899*
X05006D02*
X05014Y03907D01*
X0503*
X05038Y03899*
Y03867*
X0503Y0386*
X05014*
X05006Y03867*
Y03899*
X05085Y0386D02*
X05053D01*
X05085Y03891*
Y03899*
X05077Y03907*
X05061*
X05053Y03899*
X04941Y03784D02*
X04933Y03792D01*
X04917*
X0491Y03784*
Y03752*
X04917Y03745*
X04933*
X04941Y03752*
X04957Y03745D02*
X04972D01*
X04965*
Y03792*
X04957Y03784*
X04996D02*
X05004Y03792D01*
X0502*
X05028Y03784*
Y03752*
X0502Y03745*
X05004*
X04996Y03752*
Y03784*
X05043D02*
X05051Y03792D01*
X05067*
X05075Y03784*
Y03776*
X05067Y03768*
X05059*
X05067*
X05075Y0376*
Y03752*
X05067Y03745*
X05051*
X05043Y03752*
X04901Y03474D02*
X04893Y03482D01*
X04877*
X0487Y03474*
Y03442*
X04877Y03435*
X04893*
X04901Y03442*
X04917Y03435D02*
X04932D01*
X04925*
Y03482*
X04917Y03474*
X04956D02*
X04964Y03482D01*
X0498*
X04988Y03474*
Y03442*
X0498Y03435*
X04964*
X04956Y03442*
Y03474*
X05027Y03435D02*
Y03482D01*
X05003Y03458*
X05035*
X04951Y03604D02*
X04943Y03612D01*
X04927*
X0492Y03604*
Y03572*
X04927Y03565*
X04943*
X04951Y03572*
X04967Y03565D02*
X04982D01*
X04975*
Y03612*
X04967Y03604*
X05006D02*
X05014Y03612D01*
X0503*
X05038Y03604*
Y03572*
X0503Y03565*
X05014*
X05006Y03572*
Y03604*
X05085Y03612D02*
X05053D01*
Y03588*
X05069Y03596*
X05077*
X05085Y03588*
Y03572*
X05077Y03565*
X05061*
X05053Y03572*
X05136Y04189D02*
X05128Y04197D01*
X05112*
X05105Y04189*
Y04157*
X05112Y0415*
X05128*
X05136Y04157*
X05152Y0415D02*
X05167D01*
X0516*
Y04197*
X05152Y04189*
X05191D02*
X05199Y04197D01*
X05215*
X05223Y04189*
Y04157*
X05215Y0415*
X05199*
X05191Y04157*
Y04189*
X0527Y04197D02*
X05254Y04189D01*
X05238Y04173*
Y04157*
X05246Y0415*
X05262*
X0527Y04157*
Y04165*
X05262Y04173*
X05238*
X05316Y04369D02*
X05308Y04377D01*
X05292*
X05285Y04369*
Y04337*
X05292Y0433*
X05308*
X05316Y04337*
X05332Y0433D02*
X05347D01*
X0534*
Y04377*
X05332Y04369*
X05371D02*
X05379Y04377D01*
X05395*
X05403Y04369*
Y04337*
X05395Y0433*
X05379*
X05371Y04337*
Y04369*
X05418Y04377D02*
X0545D01*
Y04369*
X05418Y04337*
Y0433*
X05431Y04179D02*
X05423Y04187D01*
X05407*
X054Y04179*
Y04147*
X05407Y0414*
X05423*
X05431Y04147*
X05447Y0414D02*
X05462D01*
X05455*
Y04187*
X05447Y04179*
X05486D02*
X05494Y04187D01*
X0551*
X05518Y04179*
Y04147*
X0551Y0414*
X05494*
X05486Y04147*
Y04179*
X05533D02*
X05541Y04187D01*
X05557*
X05565Y04179*
Y04171*
X05557Y04163*
X05565Y04155*
Y04147*
X05557Y0414*
X05541*
X05533Y04147*
Y04155*
X05541Y04163*
X05533Y04171*
Y04179*
X05541Y04163D02*
X05557D01*
X05541Y04369D02*
X05533Y04377D01*
X05517*
X0551Y04369*
Y04337*
X05517Y0433*
X05533*
X05541Y04337*
X05557Y0433D02*
X05572D01*
X05565*
Y04377*
X05557Y04369*
X05596D02*
X05604Y04377D01*
X0562*
X05628Y04369*
Y04337*
X0562Y0433*
X05604*
X05596Y04337*
Y04369*
X05643Y04337D02*
X05651Y0433D01*
X05667*
X05675Y04337*
Y04369*
X05667Y04377*
X05651*
X05643Y04369*
Y04361*
X05651Y04353*
X05675*
X05671Y04179D02*
X05663Y04187D01*
X05647*
X0564Y04179*
Y04147*
X05647Y0414*
X05663*
X05671Y04147*
X05687Y0414D02*
X05702D01*
X05695*
Y04187*
X05687Y04179*
X05726Y0414D02*
X05742D01*
X05734*
Y04187*
X05726Y04179*
X05765D02*
X05773Y04187D01*
X05789*
X05797Y04179*
Y04147*
X05789Y0414*
X05773*
X05765Y04147*
Y04179*
X05781Y04369D02*
X05773Y04377D01*
X05757*
X0575Y04369*
Y04337*
X05757Y0433*
X05773*
X05781Y04337*
X05797Y0433D02*
X05812D01*
X05805*
Y04377*
X05797Y04369*
X05836Y0433D02*
X05852D01*
X05844*
Y04377*
X05836Y04369*
X05875Y0433D02*
X05891D01*
X05883*
Y04377*
X05875Y04369*
X05879Y04169D02*
X05871Y04177D01*
X05855*
X05848Y04169*
Y04137*
X05855Y0413*
X05871*
X05879Y04137*
X05895Y0413D02*
X0591D01*
X05903*
Y04177*
X05895Y04169*
X05934Y0413D02*
X0595D01*
X05942*
Y04177*
X05934Y04169*
X06005Y0413D02*
X05973D01*
X06005Y04161*
Y04169*
X05997Y04177*
X05981*
X05973Y04169*
X06201Y03954D02*
X06193Y03962D01*
X06177*
X0617Y03954*
Y03922*
X06177Y03915*
X06193*
X06201Y03922*
X06217Y03915D02*
X06232D01*
X06225*
Y03962*
X06217Y03954*
X06256Y03915D02*
X06272D01*
X06264*
Y03962*
X06256Y03954*
X06319Y03915D02*
Y03962D01*
X06295Y03938*
X06327*
X06181Y03829D02*
X06173Y03837D01*
X06157*
X0615Y03829*
Y03797*
X06157Y0379*
X06173*
X06181Y03797*
X06197Y0379D02*
X06212D01*
X06205*
Y03837*
X06197Y03829*
X06236Y0379D02*
X06252D01*
X06244*
Y03837*
X06236Y03829*
X06307Y03837D02*
X06275D01*
Y03813*
X06291Y03821*
X06299*
X06307Y03813*
Y03797*
X06299Y0379*
X06283*
X06275Y03797*
X04101Y03529D02*
X04093Y03537D01*
X04077*
X0407Y03529*
Y03497*
X04077Y0349*
X04093*
X04101Y03497*
X04148Y0349D02*
X04117D01*
X04148Y03521*
Y03529*
X0414Y03537*
X04125*
X04117Y03529*
X04164D02*
X04172Y03537D01*
X04188*
X04195Y03529*
Y03497*
X04188Y0349*
X04172*
X04164Y03497*
Y03529*
X04211D02*
X04219Y03537D01*
X04235*
X04243Y03529*
Y03497*
X04235Y0349*
X04219*
X04211Y03497*
Y03529*
X04061Y03339D02*
X04053Y03347D01*
X04037*
X0403Y03339*
Y03307*
X04037Y033*
X04053*
X04061Y03307*
X04108Y033D02*
X04077D01*
X04108Y03331*
Y03339*
X041Y03347*
X04085*
X04077Y03339*
X04124D02*
X04132Y03347D01*
X04148*
X04155Y03339*
Y03307*
X04148Y033*
X04132*
X04124Y03307*
Y03339*
X04171Y033D02*
X04187D01*
X04179*
Y03347*
X04171Y03339*
X04031Y03749D02*
X04023Y03757D01*
X04007*
X04Y03749*
Y03717*
X04007Y0371*
X04023*
X04031Y03717*
X04078Y0371D02*
X04047D01*
X04078Y03741*
Y03749*
X0407Y03757*
X04055*
X04047Y03749*
X04094D02*
X04102Y03757D01*
X04118*
X04125Y03749*
Y03717*
X04118Y0371*
X04102*
X04094Y03717*
Y03749*
X04173Y0371D02*
X04141D01*
X04173Y03741*
Y03749*
X04165Y03757*
X04149*
X04141Y03749*
X03575Y03516D02*
X03567Y03508D01*
Y03492*
X03575Y03485*
X03607*
X03615Y03492*
Y03508*
X03607Y03516*
X03615Y03563D02*
Y03532D01*
X03583Y03563*
X03575*
X03567Y03555*
Y0354*
X03575Y03532*
Y03579D02*
X03567Y03587D01*
Y03603*
X03575Y0361*
X03607*
X03615Y03603*
Y03587*
X03607Y03579*
X03575*
Y03626D02*
X03567Y03634D01*
Y0365*
X03575Y03658*
X03583*
X03591Y0365*
Y03642*
Y0365*
X03599Y03658*
X03607*
X03615Y0365*
Y03634*
X03607Y03626*
X03929Y03918D02*
X03937Y03926D01*
Y03942*
X03929Y0395*
X03897*
X0389Y03942*
Y03926*
X03897Y03918*
X0389Y03871D02*
Y03902D01*
X03921Y03871*
X03929*
X03937Y03879*
Y03894*
X03929Y03902*
Y03855D02*
X03937Y03847D01*
Y03831*
X03929Y03824*
X03897*
X0389Y03831*
Y03847*
X03897Y03855*
X03929*
X0389Y03784D02*
X03937D01*
X03913Y03808*
Y03776*
X03795Y03806D02*
X03787Y03798D01*
Y03782*
X03795Y03775*
X03827*
X03835Y03782*
Y03798*
X03827Y03806*
X03835Y03853D02*
Y03822D01*
X03803Y03853*
X03795*
X03787Y03845*
Y0383*
X03795Y03822*
Y03869D02*
X03787Y03877D01*
Y03893*
X03795Y039*
X03827*
X03835Y03893*
Y03877*
X03827Y03869*
X03795*
X03787Y03948D02*
Y03916D01*
X03811*
X03803Y03932*
Y0394*
X03811Y03948*
X03827*
X03835Y0394*
Y03924*
X03827Y03916*
X06024Y03186D02*
Y03139D01*
X06047*
X06055Y03146*
Y03178*
X06047Y03186*
X06024*
X06071Y03139D02*
X06086D01*
X06079*
Y03186*
X06071Y03178*
X05691Y03078D02*
Y03031D01*
X05714*
X05722Y03038*
Y0307*
X05714Y03078*
X05691*
X05769Y03031D02*
X05738D01*
X05769Y03062*
Y0307*
X05761Y03078*
X05746*
X05738Y0307*
X0549Y03187D02*
Y0314D01*
X05513*
X05521Y03147*
Y03179*
X05513Y03187*
X0549*
X05537Y03179D02*
X05545Y03187D01*
X0556*
X05568Y03179*
Y03171*
X0556Y03163*
X05552*
X0556*
X05568Y03155*
Y03147*
X0556Y0314*
X05545*
X05537Y03147*
X05088Y03078D02*
Y03031D01*
X05111*
X05119Y03038*
Y0307*
X05111Y03078*
X05088*
X05159Y03031D02*
Y03078D01*
X05135Y03054*
X05166*
X04741Y03211D02*
Y03163D01*
X04764*
X04772Y03171*
Y03203*
X04764Y03211*
X04741*
X04819D02*
X04788D01*
Y03187*
X04803Y03195*
X04811*
X04819Y03187*
Y03171*
X04811Y03163*
X04796*
X04788Y03171*
X04935Y03337D02*
Y0329D01*
X04966*
X04982D02*
X04997D01*
X0499*
Y03337*
X04982Y03329*
X05021D02*
X05029Y03337D01*
X05045*
X05053Y03329*
Y03297*
X05045Y0329*
X05029*
X05021Y03297*
Y03329*
X05068D02*
X05076Y03337D01*
X05092*
X051Y03329*
Y03297*
X05092Y0329*
X05076*
X05068Y03297*
Y03329*
X03926Y0441D02*
Y04363D01*
X03957*
X03973D02*
Y0441D01*
X03988Y04394*
X04004Y0441*
Y04363*
X0402Y0441D02*
Y04363D01*
X04044*
X04051Y0437*
Y04402*
X04044Y0441*
X0402*
X04067Y04363D02*
X04083D01*
X04075*
Y0441*
X04067Y04402*
X05195Y04475D02*
Y04522D01*
X05218*
X05226Y04514*
Y04498*
X05218Y0449*
X05195*
X05242Y04475D02*
X05257D01*
X0525*
Y04522*
X05242Y04514*
X03565Y04465D02*
Y04512D01*
X03588*
X03596Y04504*
Y04488*
X03588Y0448*
X03565*
X03635Y04465D02*
Y04512D01*
X03612Y04488*
X03643*
X06236Y04524D02*
Y04571D01*
X06259*
X06267Y04563*
Y04547*
X06259Y04539*
X06236*
X06314Y04563D02*
X06306Y04571D01*
X06291*
X06283Y04563*
Y04531*
X06291Y04524*
X06306*
X06314Y04531*
X0633Y04524D02*
X06346D01*
X06338*
Y04571*
X0633Y04563*
X04386Y04329D02*
Y04376D01*
X04409*
X04417Y04368*
Y04352*
X04409Y04344*
X04386*
X04433Y04329D02*
Y04376D01*
X04448Y0436*
X04464Y04376*
Y04329*
X0448D02*
X04496D01*
X04488*
Y04376*
X0448Y04368*
X06341Y04319D02*
Y04366D01*
X06364*
X06372Y04358*
Y04342*
X06364Y04334*
X06341*
X06388Y04319D02*
Y04366D01*
X06403Y0435*
X06419Y04366*
Y04319*
X06466D02*
X06435D01*
X06466Y0435*
Y04358*
X06459Y04366*
X06443*
X06435Y04358*
X05844Y03199D02*
Y03247D01*
X05867*
X05875Y03239*
Y03223*
X05867Y03215*
X05844*
X05859D02*
X05875Y03199D01*
X05891D02*
X05906D01*
X05899*
Y03247*
X05891Y03239*
X05857Y02865D02*
Y02913D01*
X0588*
X05888Y02905*
Y02889*
X0588Y02881*
X05857*
X05872D02*
X05888Y02865D01*
X05935D02*
X05904D01*
X05935Y02897*
Y02905*
X05927Y02913*
X05912*
X05904Y02905*
X05401Y02814D02*
Y02861D01*
X05424*
X05432Y02853*
Y02837*
X05424Y02829*
X05401*
X05416D02*
X05432Y02814D01*
X05448Y02853D02*
X05456Y02861D01*
X05471*
X05479Y02853*
Y02845*
X05471Y02837*
X05463*
X05471*
X05479Y02829*
Y02821*
X05471Y02814*
X05456*
X05448Y02821*
X04896Y03034D02*
Y03081D01*
X04919*
X04927Y03073*
Y03057*
X04919Y03049*
X04896*
X04911D02*
X04927Y03034D01*
X04966D02*
Y03081D01*
X04943Y03057*
X04974*
X04586Y03124D02*
Y03171D01*
X04609*
X04617Y03163*
Y03147*
X04609Y03139*
X04586*
X04601D02*
X04617Y03124D01*
X04664Y03171D02*
X04633D01*
Y03147*
X04648Y03155*
X04656*
X04664Y03147*
Y03131*
X04656Y03124*
X04641*
X04633Y03131*
X0457Y04335D02*
Y04382D01*
X04593*
X04601Y04374*
Y04358*
X04593Y0435*
X0457*
X04585D02*
X04601Y04335D01*
X04617D02*
X04632D01*
X04625*
Y04382*
X04617Y04374*
X04656D02*
X04664Y04382D01*
X0468*
X04688Y04374*
Y04342*
X0468Y04335*
X04664*
X04656Y04342*
Y04374*
X04703D02*
X04711Y04382D01*
X04727*
X04735Y04374*
Y04342*
X04727Y04335*
X04711*
X04703Y04342*
Y04374*
X05335Y0326D02*
Y03307D01*
X05358*
X05366Y03299*
Y03283*
X05358Y03275*
X05335*
X0535D02*
X05366Y0326D01*
X05382D02*
X05397D01*
X0539*
Y03307*
X05382Y03299*
X05421D02*
X05429Y03307D01*
X05445*
X05453Y03299*
Y03267*
X05445Y0326*
X05429*
X05421Y03267*
Y03299*
X05468Y0326D02*
X05484D01*
X05476*
Y03307*
X05468Y03299*
X06036Y04129D02*
Y04176D01*
X06059*
X06067Y04168*
Y04152*
X06059Y04144*
X06036*
X06051D02*
X06067Y04129D01*
X06083D02*
X06098D01*
X06091*
Y04176*
X06083Y04168*
X06122D02*
X0613Y04176D01*
X06146*
X06154Y04168*
Y04136*
X06146Y04129*
X0613*
X06122Y04136*
Y04168*
X06201Y04129D02*
X06169D01*
X06201Y0416*
Y04168*
X06193Y04176*
X06177*
X06169Y04168*
X05071Y04384D02*
X05063Y04392D01*
X05047*
X0504Y04384*
Y04376*
X05047Y04368*
X05063*
X05071Y0436*
Y04352*
X05063Y04345*
X05047*
X0504Y04352*
X05087Y04392D02*
Y04345D01*
X0511*
X05118Y04352*
Y0436*
X0511Y04368*
X05087*
X0511*
X05118Y04376*
Y04384*
X0511Y04392*
X05087*
X05134Y04345D02*
X0515D01*
X05142*
Y04392*
X05134Y04384*
X05173D02*
X05181Y04392D01*
X05197*
X05205Y04384*
Y04352*
X05197Y04345*
X05181*
X05173Y04352*
Y04384*
X05221D02*
X05228Y04392D01*
X05244*
X05252Y04384*
Y04352*
X05244Y04345*
X05228*
X05221Y04352*
Y04384*
X04841Y04344D02*
X04833Y04352D01*
X04817*
X0481Y04344*
Y04336*
X04817Y04328*
X04833*
X04841Y0432*
Y04312*
X04833Y04305*
X04817*
X0481Y04312*
X04857Y04352D02*
Y04305D01*
X0488*
X04888Y04312*
Y0432*
X0488Y04328*
X04857*
X0488*
X04888Y04336*
Y04344*
X0488Y04352*
X04857*
X04904Y04305D02*
X0492D01*
X04912*
Y04352*
X04904Y04344*
X04943D02*
X04951Y04352D01*
X04967*
X04975Y04344*
Y04312*
X04967Y04305*
X04951*
X04943Y04312*
Y04344*
X04991Y04305D02*
X05006D01*
X04998*
Y04352*
X04991Y04344*
X04696Y04529D02*
X04688Y04537D01*
X04672*
X04665Y04529*
Y04521*
X04672Y04513*
X04688*
X04696Y04505*
Y04497*
X04688Y0449*
X04672*
X04665Y04497*
X04712Y04537D02*
Y0449D01*
X04735*
X04743Y04497*
Y04505*
X04735Y04513*
X04712*
X04735*
X04743Y04521*
Y04529*
X04735Y04537*
X04712*
X04759Y0449D02*
X04775D01*
X04767*
Y04537*
X04759Y04529*
X04798D02*
X04806Y04537D01*
X04822*
X0483Y04529*
Y04497*
X04822Y0449*
X04806*
X04798Y04497*
Y04529*
X04877Y0449D02*
X04846D01*
X04877Y04521*
Y04529*
X04869Y04537*
X04853*
X04846Y04529*
X03631Y04229D02*
X03623Y04237D01*
X03607*
X036Y04229*
Y04221*
X03607Y04213*
X03623*
X03631Y04205*
Y04197*
X03623Y0419*
X03607*
X036Y04197*
X03647Y04237D02*
Y0419D01*
X0367*
X03678Y04197*
Y04205*
X0367Y04213*
X03647*
X0367*
X03678Y04221*
Y04229*
X0367Y04237*
X03647*
X03694Y04182D02*
X03725D01*
X03741Y04237D02*
Y0419D01*
X03773*
X03788D02*
Y04237D01*
X03804Y04221*
X0382Y04237*
Y0419*
X03836Y04237D02*
Y0419D01*
X03859*
X03867Y04197*
Y04229*
X03859Y04237*
X03836*
X03883Y0419D02*
X03899D01*
X03891*
Y04237*
X03883Y04229*
X03725Y03642D02*
X03756D01*
X0374*
Y03595*
X03803D02*
X03772D01*
X03803Y03626*
Y03634*
X03795Y03642*
X0378*
X03772Y03634*
X03819D02*
X03827Y03642D01*
X03843*
X0385Y03634*
Y03602*
X03843Y03595*
X03827*
X03819Y03602*
Y03634*
X03866D02*
X03874Y03642D01*
X0389*
X03898Y03634*
Y03602*
X0389Y03595*
X03874*
X03866Y03602*
Y03634*
X04625Y04184D02*
X04656Y04137D01*
Y04184D02*
X04625Y04137D01*
X04672Y04184D02*
X04703D01*
X04687*
Y04137*
X04719Y04184D02*
Y04137D01*
X0475*
X04766D02*
X04782D01*
X04774*
Y04184*
X04766Y04176*
X0512Y04107D02*
Y04067D01*
X05127Y0406*
X05143*
X05151Y04067*
Y04107*
X05167Y0406D02*
X05182D01*
X05175*
Y04107*
X05167Y04099*
X05206D02*
X05214Y04107D01*
X0523*
X05238Y04099*
Y04067*
X0523Y0406*
X05214*
X05206Y04067*
Y04099*
X05253D02*
X05261Y04107D01*
X05277*
X05285Y04099*
Y04067*
X05277Y0406*
X05261*
X05253Y04067*
Y04099*
X06151Y03529D02*
X06143Y03537D01*
X06127*
X0612Y03529*
Y03497*
X06127Y0349*
X06143*
X06151Y03497*
X06167Y0349D02*
X06182D01*
X06175*
Y03537*
X06167Y03529*
X06206Y0349D02*
X06222D01*
X06214*
Y03537*
X06206Y03529*
X06277Y03537D02*
X06261Y03529D01*
X06245Y03513*
Y03497*
X06253Y0349*
X06269*
X06277Y03497*
Y03505*
X06269Y03513*
X06245*
X0348Y04644D02*
Y04595D01*
Y04619*
X03513*
Y04644*
Y04595*
X03529D02*
Y04628D01*
X03546Y04644*
X03563Y04628*
Y04595*
Y04619*
X03529*
X03579Y04595D02*
Y04644D01*
X03613Y04595*
Y04644*
X03663Y04636D02*
X03654Y04644D01*
X03638*
X03629Y04636*
Y04603*
X03638Y04595*
X03654*
X03663Y04603*
X03729Y04644D02*
Y04595D01*
X03754*
X03763Y04603*
Y04636*
X03754Y04644*
X03729*
X03779Y04595D02*
X03796D01*
X03788*
Y04628*
X03779*
X03838Y04578D02*
X03846D01*
X03854Y04586*
Y04628*
X03829*
X03821Y04619*
Y04603*
X03829Y04595*
X03854*
X03871D02*
X03888D01*
X03879*
Y04628*
X03871*
X03921Y04636D02*
Y04628D01*
X03913*
X03929*
X03921*
Y04603*
X03929Y04595*
X03963Y04628D02*
X03979D01*
X03988Y04619*
Y04595*
X03963*
X03954Y04603*
X03963Y04611*
X03988*
X04004Y04595D02*
X04021D01*
X04013*
Y04644*
X04004*
X06529Y03954D02*
X06524Y03959D01*
X06515*
X0651Y03954*
Y03935*
X06515Y0393*
X06524*
X06529Y03935*
X06559Y03954D02*
X06554Y03959D01*
X06544*
X06539Y03954*
Y03949*
X06544Y03944*
X06554*
X06559Y0394*
Y03935*
X06554Y0393*
X06544*
X06539Y03935*
X0646Y0383D02*
Y03859D01*
X0647Y03849*
X06479Y03859*
Y0383*
X06489Y03859D02*
X06499D01*
X06494*
Y0383*
X06489*
X06499*
X06534Y03854D02*
X06529Y03859D01*
X06519*
X06514Y03854*
Y03849*
X06519Y03845*
X06529*
X06534Y0384*
Y03835*
X06529Y0383*
X06519*
X06514Y03835*
X06559Y03859D02*
X06549D01*
X06544Y03854*
Y03835*
X06549Y0383*
X06559*
X06564Y03835*
Y03854*
X06559Y03859*
X0646Y0374D02*
Y03769D01*
X0647Y03759*
X06479Y03769*
Y0374*
X06504Y03769D02*
X06494D01*
X06489Y03764*
Y03745*
X06494Y0374*
X06504*
X06509Y03745*
Y03764*
X06504Y03769*
X06539Y03764D02*
X06534Y03769D01*
X06524*
X06519Y03764*
Y03759*
X06524Y03755*
X06534*
X06539Y0375*
Y03745*
X06534Y0374*
X06524*
X06519Y03745*
X06549Y03769D02*
X06559D01*
X06554*
Y0374*
X06549*
X06559*
X06479Y03654D02*
X06475Y03659D01*
X06465*
X0646Y03654*
Y03649*
X06465Y03644*
X06475*
X06479Y0364*
Y03635*
X06475Y0363*
X06465*
X0646Y03635*
X06509Y03654D02*
X06504Y03659D01*
X06494*
X06489Y03654*
Y03635*
X06494Y0363*
X06504*
X06509Y03635*
X06519Y03659D02*
Y0363D01*
X06539*
X06549Y03659D02*
Y0363D01*
Y0364*
X06569Y03659*
X06554Y03644*
X06569Y0363*
X06504Y04259D02*
X06495D01*
X0649Y04254*
Y04235*
X06495Y0423*
X06504*
X06509Y04235*
Y04254*
X06504Y04259*
X06539Y04254D02*
X06534Y04259D01*
X06524*
X06519Y04254*
Y04249*
X06524Y04245*
X06534*
X06539Y0424*
Y04235*
X06534Y0423*
X06524*
X06519Y04235*
X06569Y04254D02*
X06564Y04259D01*
X06554*
X06549Y04254*
Y04235*
X06554Y0423*
X06564*
X06569Y04235*
X0648Y04159D02*
Y04135D01*
X06485Y0413*
X06495*
X06499Y04135*
Y04159*
X06509Y0413D02*
X06529Y04149D01*
X06539Y04159D02*
Y0413D01*
X06554*
X06559Y04135*
Y04154*
X06554Y04159*
X06539*
X0648Y04059D02*
Y0403D01*
X06495*
X06499Y04035*
Y04054*
X06495Y04059*
X0648*
X06509Y04044D02*
X06529D01*
X06559Y04054D02*
X06554Y04059D01*
X06544*
X06539Y04054*
Y04049*
X06544Y04044*
X06554*
X06559Y0404*
Y04035*
X06554Y0403*
X06544*
X06539Y04035*
X06509Y03559D02*
X0649D01*
Y0353*
X06509*
X0649Y03545D02*
X065D01*
X06534Y03559D02*
X06524D01*
X06519Y03554*
Y03535*
X06524Y0353*
X06534*
X06539Y03535*
Y03554*
X06534Y03559*
X06569Y03554D02*
X06564Y03559D01*
X06554*
X06549Y03554*
Y03535*
X06554Y0353*
X06564*
X06569Y03535*
X06499Y03444D02*
X06495Y03449D01*
X06485*
X0648Y03444*
Y03425*
X06485Y0342*
X06495*
X06499Y03425*
X06509Y03434D02*
X06529D01*
X06539Y0342D02*
Y03449D01*
X06554*
X06559Y03444*
Y03434*
X06554Y0343*
X06539*
X06549D02*
X06559Y0342D01*
X06499Y03344D02*
X06495Y03349D01*
X06485*
X0648Y03344*
Y03339*
X06485Y03335*
X06495*
X06499Y0333*
Y03325*
X06495Y0332*
X06485*
X0648Y03325*
X06509Y03349D02*
Y0332D01*
Y03335*
X06529*
Y03349*
Y0332*
X06539Y03349D02*
Y0332D01*
X06554*
X06559Y03325*
Y03344*
X06554Y03349*
X06539*
X04309Y03324D02*
X04305Y03329D01*
X04295*
X0429Y03324*
Y03319*
X04295Y03315*
X04305*
X04309Y0331*
Y03305*
X04305Y033*
X04295*
X0429Y03305*
X04319Y03329D02*
Y033D01*
Y03315*
X04339*
Y03329*
Y033*
X04349Y03329D02*
Y033D01*
X04364*
X04369Y03305*
Y03324*
X04364Y03329*
X04349*
X04309Y03424D02*
X04305Y03429D01*
X04295*
X0429Y03424*
Y03405*
X04295Y034*
X04305*
X04309Y03405*
X04319Y03414D02*
X04339D01*
X04349Y034D02*
Y03429D01*
X04364*
X04369Y03424*
Y03414*
X04364Y0341*
X04349*
X04359D02*
X04369Y034D01*
X04319Y03539D02*
X043D01*
Y0351*
X04319*
X043Y03525D02*
X0431D01*
X04344Y03539D02*
X04334D01*
X04329Y03534*
Y03515*
X04334Y0351*
X04344*
X04349Y03515*
Y03534*
X04344Y03539*
X04379Y03534D02*
X04374Y03539D01*
X04364*
X04359Y03534*
Y03515*
X04364Y0351*
X04374*
X04379Y03515*
X0429Y04039D02*
Y0401D01*
X04305*
X04309Y04015*
Y04034*
X04305Y04039*
X0429*
X04319Y04024D02*
X04339D01*
X04369Y04034D02*
X04364Y04039D01*
X04354*
X04349Y04034*
Y04029*
X04354Y04024*
X04364*
X04369Y0402*
Y04015*
X04364Y0401*
X04354*
X04349Y04015*
X0429Y04139D02*
Y04115D01*
X04295Y0411*
X04305*
X04309Y04115*
Y04139*
X04319Y0411D02*
X04339Y04129D01*
X04349Y04139D02*
Y0411D01*
X04364*
X04369Y04115*
Y04134*
X04364Y04139*
X04349*
X04314Y04239D02*
X04305D01*
X043Y04234*
Y04215*
X04305Y0421*
X04314*
X04319Y04215*
Y04234*
X04314Y04239*
X04349Y04234D02*
X04344Y04239D01*
X04334*
X04329Y04234*
Y04229*
X04334Y04225*
X04344*
X04349Y0422*
Y04215*
X04344Y0421*
X04334*
X04329Y04215*
X04379Y04234D02*
X04374Y04239D01*
X04364*
X04359Y04234*
Y04215*
X04364Y0421*
X04374*
X04379Y04215*
X04289Y03634D02*
X04285Y03639D01*
X04275*
X0427Y03634*
Y03629*
X04275Y03624*
X04285*
X04289Y0362*
Y03615*
X04285Y0361*
X04275*
X0427Y03615*
X04319Y03634D02*
X04314Y03639D01*
X04304*
X04299Y03634*
Y03615*
X04304Y0361*
X04314*
X04319Y03615*
X04329Y03639D02*
Y0361D01*
X04349*
X04359Y03639D02*
Y0361D01*
Y0362*
X04379Y03639*
X04364Y03624*
X04379Y0361*
X0427Y0372D02*
Y03749D01*
X0428Y03739*
X04289Y03749*
Y0372*
X04314Y03749D02*
X04304D01*
X04299Y03744*
Y03725*
X04304Y0372*
X04314*
X04319Y03725*
Y03744*
X04314Y03749*
X04349Y03744D02*
X04344Y03749D01*
X04334*
X04329Y03744*
Y03739*
X04334Y03734*
X04344*
X04349Y0373*
Y03725*
X04344Y0372*
X04334*
X04329Y03725*
X04359Y03749D02*
X04369D01*
X04364*
Y0372*
X04359*
X04369*
X0427Y0381D02*
Y03839D01*
X0428Y03829*
X04289Y03839*
Y0381*
X04299Y03839D02*
X04309D01*
X04304*
Y0381*
X04299*
X04309*
X04344Y03834D02*
X04339Y03839D01*
X04329*
X04324Y03834*
Y03829*
X04329Y03825*
X04339*
X04344Y0382*
Y03815*
X04339Y0381*
X04329*
X04324Y03815*
X04369Y03839D02*
X04359D01*
X04354Y03834*
Y03815*
X04359Y0381*
X04369*
X04374Y03815*
Y03834*
X04369Y03839*
X04339Y03934D02*
X04334Y03939D01*
X04325*
X0432Y03934*
Y03915*
X04325Y0391*
X04334*
X04339Y03915*
X04369Y03934D02*
X04364Y03939D01*
X04354*
X04349Y03934*
Y03929*
X04354Y03924*
X04364*
X04369Y0392*
Y03915*
X04364Y0391*
X04354*
X04349Y03915*
G54D34*
X0373Y03562D02*
D01*
X0373Y03562*
X0373Y03563*
X0373Y03563*
X0373Y03563*
X0373Y03564*
X0373Y03564*
X0373Y03564*
X0373Y03565*
X0373Y03565*
X03729Y03565*
X03729Y03565*
X03729Y03566*
X03729Y03566*
X03728Y03566*
X03728Y03566*
X03728Y03566*
X03727Y03567*
X03727Y03567*
X03727Y03567*
X03726Y03567*
X03726Y03567*
X03726Y03567*
X03725*
X03725Y03567*
X03725Y03567*
X03724Y03567*
X03724Y03567*
X03724Y03567*
X03723Y03566*
X03723Y03566*
X03723Y03566*
X03723Y03566*
X03722Y03566*
X03722Y03565*
X03722Y03565*
X03722Y03565*
X03721Y03565*
X03721Y03564*
X03721Y03564*
X03721Y03564*
X03721Y03563*
X03721Y03563*
X03721Y03563*
X03721Y03562*
X03721Y03562*
X03721Y03562*
X03721Y03561*
X03721Y03561*
X03721Y03561*
X03721Y0356*
X03721Y0356*
X03721Y0356*
X03721Y03559*
X03722Y03559*
X03722Y03559*
X03722Y03559*
X03722Y03558*
X03723Y03558*
X03723Y03558*
X03723Y03558*
X03723Y03558*
X03724Y03557*
X03724Y03557*
X03724Y03557*
X03725Y03557*
X03725Y03557*
X03725Y03557*
X03726*
X03726Y03557*
X03726Y03557*
X03727Y03557*
X03727Y03557*
X03727Y03557*
X03728Y03558*
X03728Y03558*
X03728Y03558*
X03729Y03558*
X03729Y03558*
X03729Y03559*
X03729Y03559*
X0373Y03559*
X0373Y03559*
X0373Y0356*
X0373Y0356*
X0373Y0356*
X0373Y03561*
X0373Y03561*
X0373Y03561*
X0373Y03562*
X0373Y03562*
X04196Y04274D02*
D01*
X04196Y04274*
X04196Y04274*
X04196Y04275*
X04196Y04275*
X04196Y04275*
X04196Y04276*
X04196Y04276*
X04196Y04276*
X04195Y04277*
X04195Y04277*
X04195Y04277*
X04195Y04277*
X04194Y04278*
X04194Y04278*
X04194Y04278*
X04194Y04278*
X04193Y04278*
X04193Y04278*
X04193Y04278*
X04192Y04279*
X04192Y04279*
X04192Y04279*
X04191*
X04191Y04279*
X04191Y04279*
X0419Y04278*
X0419Y04278*
X0419Y04278*
X04189Y04278*
X04189Y04278*
X04189Y04278*
X04188Y04278*
X04188Y04277*
X04188Y04277*
X04188Y04277*
X04187Y04277*
X04187Y04276*
X04187Y04276*
X04187Y04276*
X04187Y04275*
X04187Y04275*
X04187Y04275*
X04187Y04274*
X04186Y04274*
X04186Y04274*
X04186Y04273*
X04187Y04273*
X04187Y04273*
X04187Y04272*
X04187Y04272*
X04187Y04272*
X04187Y04271*
X04187Y04271*
X04187Y04271*
X04188Y04271*
X04188Y0427*
X04188Y0427*
X04188Y0427*
X04189Y0427*
X04189Y04269*
X04189Y04269*
X0419Y04269*
X0419Y04269*
X0419Y04269*
X04191Y04269*
X04191Y04269*
X04191Y04269*
X04192*
X04192Y04269*
X04192Y04269*
X04193Y04269*
X04193Y04269*
X04193Y04269*
X04194Y04269*
X04194Y04269*
X04194Y0427*
X04194Y0427*
X04195Y0427*
X04195Y0427*
X04195Y04271*
X04195Y04271*
X04196Y04271*
X04196Y04271*
X04196Y04272*
X04196Y04272*
X04196Y04272*
X04196Y04273*
X04196Y04273*
X04196Y04273*
X04196Y04274*
X05324Y04003D02*
D01*
X05324Y04004*
X05324Y04004*
X05324Y04004*
X05324Y04005*
X05324Y04005*
X05324Y04005*
X05324Y04006*
X05324Y04006*
X05323Y04006*
X05323Y04006*
X05323Y04007*
X05323Y04007*
X05322Y04007*
X05322Y04007*
X05322Y04008*
X05322Y04008*
X05321Y04008*
X05321Y04008*
X05321Y04008*
X0532Y04008*
X0532Y04008*
X0532Y04008*
X05319*
X05319Y04008*
X05319Y04008*
X05318Y04008*
X05318Y04008*
X05318Y04008*
X05317Y04008*
X05317Y04008*
X05317Y04007*
X05316Y04007*
X05316Y04007*
X05316Y04007*
X05316Y04006*
X05315Y04006*
X05315Y04006*
X05315Y04006*
X05315Y04005*
X05315Y04005*
X05315Y04005*
X05315Y04004*
X05315Y04004*
X05314Y04004*
X05314Y04003*
X05314Y04003*
X05315Y04003*
X05315Y04002*
X05315Y04002*
X05315Y04002*
X05315Y04001*
X05315Y04001*
X05315Y04001*
X05315Y04*
X05316Y04*
X05316Y04*
X05316Y04*
X05316Y03999*
X05317Y03999*
X05317Y03999*
X05317Y03999*
X05318Y03999*
X05318Y03999*
X05318Y03999*
X05319Y03998*
X05319Y03998*
X05319Y03998*
X0532*
X0532Y03998*
X0532Y03998*
X05321Y03999*
X05321Y03999*
X05321Y03999*
X05322Y03999*
X05322Y03999*
X05322Y03999*
X05322Y03999*
X05323Y04*
X05323Y04*
X05323Y04*
X05323Y04*
X05324Y04001*
X05324Y04001*
X05324Y04001*
X05324Y04002*
X05324Y04002*
X05324Y04002*
X05324Y04003*
X05324Y04003*
X05324Y04003*
G54D35*
X0541Y03966D02*
D01*
X0541Y03967*
X0541Y03968*
X0541Y03968*
X05409Y03969*
X05409Y0397*
X05409Y03971*
X05409Y03971*
X05408Y03972*
X05408Y03973*
X05407Y03973*
X05407Y03974*
X05406Y03975*
X05405Y03975*
X05405Y03976*
X05404Y03976*
X05403Y03976*
X05403Y03977*
X05402Y03977*
X05401Y03977*
X054Y03978*
X05399Y03978*
X05399Y03978*
X05398*
X05397Y03978*
X05396Y03978*
X05395Y03977*
X05394Y03977*
X05394Y03977*
X05393Y03976*
X05392Y03976*
X05392Y03976*
X05391Y03975*
X0539Y03975*
X0539Y03974*
X05389Y03973*
X05389Y03973*
X05388Y03972*
X05388Y03971*
X05387Y03971*
X05387Y0397*
X05387Y03969*
X05387Y03968*
X05386Y03968*
X05386Y03967*
X05386Y03966*
X05386Y03965*
X05386Y03964*
X05387Y03963*
X05387Y03963*
X05387Y03962*
X05387Y03961*
X05388Y0396*
X05388Y0396*
X05389Y03959*
X05389Y03958*
X0539Y03958*
X0539Y03957*
X05391Y03957*
X05392Y03956*
X05392Y03956*
X05393Y03955*
X05394Y03955*
X05394Y03955*
X05395Y03954*
X05396Y03954*
X05397Y03954*
X05398Y03954*
X05399*
X05399Y03954*
X054Y03954*
X05401Y03954*
X05402Y03955*
X05403Y03955*
X05403Y03955*
X05404Y03956*
X05405Y03956*
X05405Y03957*
X05406Y03957*
X05407Y03958*
X05407Y03958*
X05408Y03959*
X05408Y0396*
X05409Y0396*
X05409Y03961*
X05409Y03962*
X05409Y03963*
X0541Y03963*
X0541Y03964*
X0541Y03965*
X0541Y03966*
G54D36*
X05171Y03304D02*
X05209D01*
X05171D02*
Y03386D01*
X05209*
Y03304D02*
Y03386D01*
G54D37*
X06084Y03749D02*
Y0378D01*
X06025Y03749D02*
Y0378D01*
X04849Y03665D02*
Y03894D01*
X0463Y03665D02*
Y03894D01*
X06335Y03285D02*
X06435D01*
X06335D02*
Y04285D01*
X06435*
Y0421D02*
Y04285D01*
Y03285D02*
Y0421D01*
X03751Y03534D02*
Y03568D01*
X03785*
X03924D02*
X03958D01*
Y03534D02*
Y03568D01*
Y03361D02*
Y03395D01*
X03924Y03361D02*
X03958D01*
X03751D02*
Y03395D01*
Y03361D02*
X03785D01*
X03803Y04306D02*
Y04322D01*
X03776Y04306D02*
Y04322D01*
X05098Y0444D02*
Y04456D01*
X05071Y0444D02*
Y04456D01*
X06063Y04042D02*
Y04057D01*
X06036Y04042D02*
Y04057D01*
X04638Y04427D02*
Y04442D01*
X04611Y04427D02*
Y04442D01*
X0438Y03285D02*
X0448D01*
X0438D02*
Y04285D01*
X0448*
Y0421D02*
Y04285D01*
Y03285D02*
Y0421D01*
X0623Y0449D02*
X0643D01*
X0623Y0439D02*
Y0449D01*
Y0439D02*
X0643D01*
Y0449*
X03695Y0444D02*
Y0454D01*
X04095*
X03695Y0444D02*
X04095D01*
Y0454*
X03928Y04104D02*
Y04215D01*
X04191Y04104D02*
Y04215D01*
X03928Y04104D02*
X04191D01*
X03928Y04215D02*
X04191D01*
X04825Y02889D02*
Y02964D01*
X04734Y02889D02*
Y02964D01*
Y02889D02*
X04825D01*
X0475Y03129D02*
X04809D01*
X04825Y03043D02*
Y0311D01*
X04734D02*
X0475Y03129D01*
X04809D02*
X04825Y0311D01*
X04734Y03043D02*
Y0311D01*
X05172Y02756D02*
Y02831D01*
X05081Y02756D02*
Y02831D01*
Y02756D02*
X05172D01*
X05097Y02997D02*
X05156D01*
X05172Y0291D02*
Y02977D01*
X05081D02*
X05097Y02997D01*
X05156D02*
X05172Y02977D01*
X05081Y0291D02*
Y02977D01*
X05775Y02756D02*
Y02831D01*
X05684Y02756D02*
Y02831D01*
Y02756D02*
X05775D01*
X057Y02997D02*
X05759D01*
X05775Y0291D02*
Y02977D01*
X05684D02*
X057Y02997D01*
X05759D02*
X05775Y02977D01*
X05684Y0291D02*
Y02977D01*
X06017Y0303D02*
Y03105D01*
X06108Y0303D02*
Y03105D01*
X06017D02*
X06108D01*
X06033Y02865D02*
X06092D01*
X06017Y02884D02*
Y02951D01*
X06092Y02865D02*
X06108Y02884D01*
X06017D02*
X06033Y02865D01*
X06108Y02884D02*
Y02951D01*
X04798Y04423D02*
Y04438D01*
X04771Y04423D02*
Y04438D01*
X04948Y04427D02*
Y04442D01*
X04921Y04427D02*
Y04442D01*
X0533Y04495D02*
X0593D01*
X0533Y04395D02*
X0593D01*
Y04495*
X0533Y04395D02*
Y04495D01*
X0548Y02886D02*
Y02961D01*
X05389Y02886D02*
Y02961D01*
Y02886D02*
X0548D01*
X05405Y03127D02*
X05464D01*
X0548Y0304D02*
Y03107D01*
X05389D02*
X05405Y03127D01*
X05464D02*
X0548Y03107D01*
X05389Y0304D02*
Y03107D01*
X06184Y03644D02*
Y03675D01*
X06125Y03644D02*
Y03675D01*
X05359Y03474D02*
Y04005D01*
X0589Y03474D02*
Y04005D01*
X05359D02*
X0589D01*
X05359Y03474D02*
X0589D01*
M02*