%FSTAX23Y23*%
%MOIN*%
%SFA1B1*%

%IPPOS*%
%ADD57C,0.003940*%
%ADD58C,0.001970*%
%LNhanc_digital-1*%
%LPD*%
G54D57*
X05375Y03178D02*
Y03201D01*
X05363Y0319D02*
X05386D01*
X05339Y03176D02*
X0541D01*
X05339Y03203D02*
X0541D01*
Y03176D02*
Y03203D01*
X05339Y03176D02*
Y03203D01*
X04625Y03058D02*
Y03081D01*
X04613Y0307D02*
X04636D01*
X04589Y03056D02*
X0466D01*
X04589Y03083D02*
X0466D01*
Y03056D02*
Y03083D01*
X04589Y03056D02*
Y03083D01*
X04935Y02968D02*
Y02991D01*
X04923Y0298D02*
X04946D01*
X04899Y02966D02*
X0497D01*
X04899Y02993D02*
X0497D01*
Y02966D02*
Y02993D01*
X04899Y02966D02*
Y02993D01*
X0544Y02748D02*
Y02771D01*
X05428Y0276D02*
X05451D01*
X05404Y02746D02*
X05475D01*
X05404Y02773D02*
X05475D01*
Y02746D02*
Y02773D01*
X05404Y02746D02*
Y02773D01*
X05896Y028D02*
Y02823D01*
X05884Y02812D02*
X05907D01*
X0586Y02798D02*
X05931D01*
X0586Y02825D02*
X05931D01*
Y02798D02*
Y02825D01*
X0586Y02798D02*
Y02825D01*
X05883Y03134D02*
Y03157D01*
X05871Y03146D02*
X05894D01*
X05847Y03132D02*
X05918D01*
X05847Y03159D02*
X05918D01*
Y03132D02*
Y03159D01*
X05847Y03132D02*
Y03159D01*
X05068Y03412D02*
X05111D01*
X05068Y03507D02*
X05111D01*
X05068Y03412D02*
Y03507D01*
X05111Y03412D02*
Y03507D01*
X0509Y03441D02*
Y03478D01*
X05071Y0346D02*
X05108D01*
X05127Y03863D02*
Y03906D01*
X05222Y03863D02*
Y03906D01*
X05127D02*
X05222D01*
X05127Y03863D02*
X05222D01*
X05156Y03885D02*
X05193D01*
X05175Y03866D02*
Y03903D01*
X06035Y03765D02*
X06074D01*
X06055Y03745D02*
Y03784D01*
X06092Y03686D02*
Y03843D01*
X06017Y03686D02*
Y03843D01*
X06092*
X06017Y03686D02*
X06092D01*
X06007Y04258D02*
Y04281D01*
X05995Y0427D02*
X06019D01*
X05972Y04283D02*
X06042D01*
X05972Y04256D02*
X06042D01*
X05972D02*
Y04283D01*
X06042Y04256D02*
Y04283D01*
X05907Y04203D02*
Y04226D01*
X05895Y04215D02*
X05919D01*
X05872Y04201D02*
X05942D01*
X05872Y04228D02*
X05942D01*
Y04201D02*
Y04228D01*
X05872Y04201D02*
Y04228D01*
X05797Y04258D02*
Y04281D01*
X05785Y0427D02*
X05809D01*
X05762Y04283D02*
X05832D01*
X05762Y04256D02*
X05832D01*
X05762D02*
Y04283D01*
X05832Y04256D02*
Y04283D01*
X05687Y04208D02*
Y04231D01*
X05675Y0422D02*
X05699D01*
X05652Y04233D02*
X05722D01*
X05652Y04206D02*
X05722D01*
X05652D02*
Y04233D01*
X05722Y04206D02*
Y04233D01*
X0558Y04268D02*
Y04291D01*
X05568Y0428D02*
X05591D01*
X05544Y04293D02*
X05615D01*
X05544Y04266D02*
X05615D01*
X05544D02*
Y04293D01*
X05615Y04266D02*
Y04293D01*
X05477Y04203D02*
Y04226D01*
X05465Y04215D02*
X05489D01*
X05442Y04228D02*
X05512D01*
X05442Y04201D02*
X05512D01*
X05442D02*
Y04228D01*
X05512Y04201D02*
Y04228D01*
X0537Y04278D02*
Y04301D01*
X05358Y0429D02*
X05381D01*
X05334Y04303D02*
X05405D01*
X05334Y04276D02*
X05405D01*
X05334D02*
Y04303D01*
X05405Y04276D02*
Y04303D01*
X05257Y04218D02*
Y04241D01*
X05245Y0423D02*
X05269D01*
X05222Y04243D02*
X05292D01*
X05222Y04216D02*
X05292D01*
X05222D02*
Y04243D01*
X05292Y04216D02*
Y04243D01*
X05178Y03595D02*
X05201D01*
X0519Y03583D02*
Y03606D01*
X05203Y03559D02*
Y0363D01*
X05176Y03559D02*
Y0363D01*
X05203*
X05176Y03559D02*
X05203D01*
X05108Y0376D02*
X05131D01*
X0512Y03748D02*
Y03772D01*
X05106Y03724D02*
Y03795D01*
X05133Y03724D02*
Y03795D01*
X05106Y03724D02*
X05133D01*
X05106Y03795D02*
X05133D01*
X0472Y0378D02*
X04759D01*
X0474Y0376D02*
Y03799D01*
X03835Y03465D02*
X03874D01*
X03855Y03445D02*
Y03484D01*
X03771Y04314D02*
X03808D01*
X0379Y04295D02*
Y04333D01*
X03811Y04267D02*
Y04361D01*
X03768Y04267D02*
Y04361D01*
X03811*
X03768Y04267D02*
X03811D01*
X05066Y04448D02*
X05103D01*
X05085Y0443D02*
Y04467D01*
X05106Y04401D02*
Y04495D01*
X05063Y04401D02*
Y04495D01*
X05106*
X05063Y04401D02*
X05106D01*
X06031Y0405D02*
X06068D01*
X0605Y04031D02*
Y04068D01*
X06071Y04002D02*
Y04097D01*
X06028Y04002D02*
Y04097D01*
X06071*
X06028Y04002D02*
X06071D01*
X04606Y04435D02*
X04643D01*
X04625Y04416D02*
Y04453D01*
X04646Y04387D02*
Y04482D01*
X04603Y04387D02*
Y04482D01*
X04646*
X04603Y04387D02*
X04646D01*
X0404Y0416D02*
X04079D01*
X0406Y0414D02*
Y04179D01*
X03918Y03988D02*
Y04331D01*
X04201Y03988D02*
Y04331D01*
X03918Y03988D02*
X04201D01*
X03918Y04331D02*
X04201D01*
X03805Y03701D02*
Y03738D01*
X03786Y0372D02*
X03823D01*
X03757Y03698D02*
X03852D01*
X03757Y03741D02*
X03852D01*
Y03698D02*
Y03741D01*
X03757Y03698D02*
Y03741D01*
X0391Y03701D02*
Y03738D01*
X03891Y0372D02*
X03928D01*
X03862Y03698D02*
X03957D01*
X03862Y03741D02*
X03957D01*
Y03698D02*
Y03741D01*
X03862Y03698D02*
Y03741D01*
X03631Y03505D02*
X03668D01*
X0365Y03486D02*
Y03523D01*
X03628Y03457D02*
Y03552D01*
X03671Y03457D02*
Y03552D01*
X03628Y03457D02*
X03671D01*
X03628Y03552D02*
X03671D01*
X04071Y0364D02*
X04108D01*
X0409Y03621D02*
Y03658D01*
X04111Y03592D02*
Y03687D01*
X04068Y03592D02*
Y03687D01*
X04111*
X04068Y03592D02*
X04111D01*
X04066Y03405D02*
X04103D01*
X04085Y03386D02*
Y03423D01*
X04106Y03357D02*
Y03452D01*
X04063Y03357D02*
Y03452D01*
X04106*
X04063Y03357D02*
X04106D01*
X04011Y03515D02*
X04048D01*
X0403Y03496D02*
Y03533D01*
X04008Y03467D02*
Y03562D01*
X04051Y03467D02*
Y03562D01*
X04008Y03467D02*
X04051D01*
X04008Y03562D02*
X04051D01*
X06101Y0395D02*
X06138D01*
X0612Y03931D02*
Y03968D01*
X06098Y03902D02*
Y03997D01*
X06141Y03902D02*
Y03997D01*
X06098Y03902D02*
X06141D01*
X06098Y03997D02*
X06141D01*
X04426Y04433D02*
X04463D01*
X04445Y04414D02*
Y04451D01*
X04466Y04385D02*
Y0448D01*
X04423Y04385D02*
Y0448D01*
X04466*
X04423Y04385D02*
X04466D01*
X05081Y03975D02*
X05118D01*
X051Y03956D02*
Y03993D01*
X05078Y03927D02*
Y04022D01*
X05121Y03927D02*
Y04022D01*
X05078Y03927D02*
X05121D01*
X05078Y04022D02*
X05121D01*
X03641Y0431D02*
X03678D01*
X0366Y04291D02*
Y04328D01*
X03681Y04262D02*
Y04357D01*
X03638Y04262D02*
Y04357D01*
X03681*
X03638Y04262D02*
X03681D01*
X03752Y04106D02*
Y04143D01*
X03733Y04125D02*
X03771D01*
X03705Y04103D02*
X03799D01*
X03705Y04146D02*
X03799D01*
Y04103D02*
Y04146D01*
X03705Y04103D02*
Y04146D01*
X04766Y04431D02*
X04803D01*
X04785Y04412D02*
Y04449D01*
X04806Y04383D02*
Y04478D01*
X04763Y04383D02*
Y04478D01*
X04806*
X04763Y04383D02*
X04806D01*
X04916Y04435D02*
X04953D01*
X04935Y04416D02*
Y04453D01*
X04956Y04387D02*
Y04482D01*
X04913Y04387D02*
Y04482D01*
X04956*
X04913Y04387D02*
X04956D01*
X06135Y0366D02*
X06174D01*
X06155Y0364D02*
Y03679D01*
X06192Y03581D02*
Y03738D01*
X06117Y03581D02*
Y03738D01*
X06192*
X06117Y03581D02*
X06192D01*
X05605Y0374D02*
X05644D01*
X05625Y0372D02*
Y03759D01*
G54D58*
X04864Y03453D02*
Y04106D01*
X04615Y03453D02*
Y04106D01*
X04864*
X04615Y03453D02*
X04864D01*
X03735Y03345D02*
Y03584D01*
X03974Y03345D02*
Y03584D01*
X03735D02*
X03974D01*
X03735Y03345D02*
X03974D01*
X05292Y03407D02*
Y04072D01*
X05957Y03407D02*
Y04072D01*
X05292D02*
X05957D01*
X05292Y03407D02*
X05957D01*
M02*