%FSTAX23Y23*%
%MOIN*%
%SFA1B1*%

%IPPOS*%
%ADD59C,0.003940*%
%ADD60C,0.001970*%
%LNhanc_digital-1*%
%LPD*%
G54D59*
X0472Y0378D02*
X04759D01*
X0474Y0376D02*
Y03799D01*
X03835Y03465D02*
X03874D01*
X03855Y03445D02*
Y03484D01*
X05078Y036D02*
X05101D01*
X0509Y03588D02*
Y03611D01*
X05103Y03564D02*
Y03635D01*
X05076Y03564D02*
Y03635D01*
X05103*
X05076Y03564D02*
X05103D01*
X04625Y03058D02*
Y03081D01*
X04613Y0307D02*
X04636D01*
X04589Y03056D02*
X0466D01*
X04589Y03083D02*
X0466D01*
Y03056D02*
Y03083D01*
X04589Y03056D02*
Y03083D01*
X04935Y02968D02*
Y02991D01*
X04923Y0298D02*
X04946D01*
X04899Y02966D02*
X0497D01*
X04899Y02993D02*
X0497D01*
Y02966D02*
Y02993D01*
X04899Y02966D02*
Y02993D01*
X0544Y02748D02*
Y02771D01*
X05428Y0276D02*
X05451D01*
X05404Y02746D02*
X05475D01*
X05404Y02773D02*
X05475D01*
Y02746D02*
Y02773D01*
X05404Y02746D02*
Y02773D01*
X05896Y028D02*
Y02823D01*
X05884Y02812D02*
X05907D01*
X0586Y02798D02*
X05931D01*
X0586Y02825D02*
X05931D01*
Y02798D02*
Y02825D01*
X0586Y02798D02*
Y02825D01*
X05883Y03134D02*
Y03157D01*
X05871Y03146D02*
X05894D01*
X05847Y03132D02*
X05918D01*
X05847Y03159D02*
X05918D01*
Y03132D02*
Y03159D01*
X05847Y03132D02*
Y03159D01*
X05068Y03412D02*
X05111D01*
X05068Y03507D02*
X05111D01*
X05068Y03412D02*
Y03507D01*
X05111Y03412D02*
Y03507D01*
X0509Y03441D02*
Y03478D01*
X05071Y0346D02*
X05108D01*
X05077Y03788D02*
Y03831D01*
X04982Y03788D02*
Y03831D01*
Y03788D02*
X05077D01*
X04982Y03831D02*
X05077D01*
X05011Y0381D02*
X05048D01*
X0503Y03791D02*
Y03828D01*
X06035Y03765D02*
X06074D01*
X06055Y03745D02*
Y03784D01*
X06092Y03686D02*
Y03843D01*
X06017Y03686D02*
Y03843D01*
X06092*
X06017Y03686D02*
X06092D01*
X06007Y04258D02*
Y04281D01*
X05995Y0427D02*
X06019D01*
X05972Y04283D02*
X06042D01*
X05972Y04256D02*
X06042D01*
X05972D02*
Y04283D01*
X06042Y04256D02*
Y04283D01*
X05918Y0424D02*
X05941D01*
X0593Y04228D02*
Y04251D01*
X05916Y04204D02*
Y04275D01*
X05943Y04204D02*
Y04275D01*
X05916Y04204D02*
X05943D01*
X05916Y04275D02*
X05943D01*
X0567Y04268D02*
Y04291D01*
X05658Y0428D02*
X05681D01*
X05634Y04266D02*
X05705D01*
X05634Y04293D02*
X05705D01*
Y04266D02*
Y04293D01*
X05634Y04266D02*
Y04293D01*
X0565Y04208D02*
Y04231D01*
X05638Y0422D02*
X05661D01*
X05614Y04206D02*
X05685D01*
X05614Y04233D02*
X05685D01*
Y04206D02*
Y04233D01*
X05614Y04206D02*
Y04233D01*
X0558Y04268D02*
Y04291D01*
X05568Y0428D02*
X05591D01*
X05544Y04293D02*
X05615D01*
X05544Y04266D02*
X05615D01*
X05544D02*
Y04293D01*
X05615Y04266D02*
Y04293D01*
X05445Y04234D02*
X05469D01*
X05457Y04222D02*
Y04246D01*
X05443Y04199D02*
Y0427D01*
X05471Y04199D02*
Y0427D01*
X05443Y04199D02*
X05471D01*
X05443Y0427D02*
X05471D01*
X0537Y04278D02*
Y04301D01*
X05358Y0429D02*
X05381D01*
X05334Y04303D02*
X05405D01*
X05334Y04276D02*
X05405D01*
X05334D02*
Y04303D01*
X05405Y04276D02*
Y04303D01*
X05228Y0425D02*
X05251D01*
X0524Y04238D02*
Y04261D01*
X05226Y04214D02*
Y04285D01*
X05253Y04214D02*
Y04285D01*
X05226Y04214D02*
X05253D01*
X05226Y04285D02*
X05253D01*
X0517Y03538D02*
Y03561D01*
X05158Y0355D02*
X05181D01*
X05134Y03563D02*
X05205D01*
X05134Y03536D02*
X05205D01*
X05134D02*
Y03563D01*
X05205Y03536D02*
Y03563D01*
X05088Y0371D02*
X05111D01*
X051Y03698D02*
Y03721D01*
X05086Y03674D02*
Y03745D01*
X05113Y03674D02*
Y03745D01*
X05086Y03674D02*
X05113D01*
X05086Y03745D02*
X05113D01*
X04191Y0449D02*
X04228D01*
X0421Y04471D02*
Y04508D01*
X04188Y04442D02*
Y04537D01*
X04231Y04442D02*
Y04537D01*
X04188Y04442D02*
X04231D01*
X04188Y04537D02*
X04231D01*
X04981Y0436D02*
X05018D01*
X05Y04341D02*
Y04378D01*
X05021Y04312D02*
Y04407D01*
X04978Y04312D02*
Y04407D01*
X05021*
X04978Y04312D02*
X05021D01*
X04606Y04435D02*
X04643D01*
X04625Y04416D02*
Y04453D01*
X04646Y04387D02*
Y04482D01*
X04603Y04387D02*
Y04482D01*
X04646*
X04603Y04387D02*
X04646D01*
X03805Y03701D02*
Y03738D01*
X03786Y0372D02*
X03823D01*
X03757Y03698D02*
X03852D01*
X03757Y03741D02*
X03852D01*
Y03698D02*
Y03741D01*
X03757Y03698D02*
Y03741D01*
X0391Y03701D02*
Y03738D01*
X03891Y0372D02*
X03928D01*
X03862Y03698D02*
X03957D01*
X03862Y03741D02*
X03957D01*
Y03698D02*
Y03741D01*
X03862Y03698D02*
Y03741D01*
X03631Y03505D02*
X03668D01*
X0365Y03486D02*
Y03523D01*
X03628Y03457D02*
Y03552D01*
X03671Y03457D02*
Y03552D01*
X03628Y03457D02*
X03671D01*
X03628Y03552D02*
X03671D01*
X039Y04031D02*
Y04068D01*
X03881Y0405D02*
X03918D01*
X03852Y04071D02*
X03947D01*
X03852Y04028D02*
X03947D01*
X03852D02*
Y04071D01*
X03947Y04028D02*
Y04071D01*
X03711Y0364D02*
X03748D01*
X0373Y03621D02*
Y03658D01*
X03708Y03592D02*
Y03687D01*
X03751Y03592D02*
Y03687D01*
X03708Y03592D02*
X03751D01*
X03708Y03687D02*
X03751D01*
X04041Y0363D02*
X04078D01*
X0406Y03611D02*
Y03648D01*
X04038Y03582D02*
Y03677D01*
X04081Y03582D02*
Y03677D01*
X04038Y03582D02*
X04081D01*
X04038Y03677D02*
X04081D01*
X05151Y0436D02*
X05188D01*
X0517Y04341D02*
Y04378D01*
X05148Y04312D02*
Y04407D01*
X05191Y04312D02*
Y04407D01*
X05148Y04312D02*
X05191D01*
X05148Y04407D02*
X05191D01*
X04511Y0444D02*
X04548D01*
X0453Y04421D02*
Y04458D01*
X04551Y04392D02*
Y04487D01*
X04508Y04392D02*
Y04487D01*
X04551*
X04508Y04392D02*
X04551D01*
X05081Y03975D02*
X05118D01*
X051Y03956D02*
Y03993D01*
X05078Y03927D02*
Y04022D01*
X05121Y03927D02*
Y04022D01*
X05078Y03927D02*
X05121D01*
X05078Y04022D02*
X05121D01*
X042Y04361D02*
Y04398D01*
X04181Y0438D02*
X04218D01*
X04152Y04358D02*
X04247D01*
X04152Y04401D02*
X04247D01*
Y04358D02*
Y04401D01*
X04152Y04358D02*
Y04401D01*
X0399Y04361D02*
Y04398D01*
X03971Y0438D02*
X04008D01*
X03942Y04401D02*
X04037D01*
X03942Y04358D02*
X04037D01*
X03942D02*
Y04401D01*
X04037Y04358D02*
Y04401D01*
X04771Y0436D02*
X04808D01*
X0479Y04341D02*
Y04378D01*
X04811Y04312D02*
Y04407D01*
X04768Y04312D02*
Y04407D01*
X04811*
X04768Y04312D02*
X04811D01*
X04871Y0436D02*
X04908D01*
X0489Y04341D02*
Y04378D01*
X04911Y04312D02*
Y04407D01*
X04868Y04312D02*
Y04407D01*
X04911*
X04868Y04312D02*
X04911D01*
X06135Y0366D02*
X06174D01*
X06155Y0364D02*
Y03679D01*
X06192Y03581D02*
Y03738D01*
X06117Y03581D02*
Y03738D01*
X06192*
X06117Y03581D02*
X06192D01*
X05605Y0374D02*
X05644D01*
X05625Y0372D02*
Y03759D01*
X0404Y0416D02*
X04079D01*
X0406Y0414D02*
Y04179D01*
X03918Y03988D02*
Y04331D01*
X04201Y03988D02*
Y04331D01*
X03918Y03988D02*
X04201D01*
X03918Y04331D02*
X04201D01*
X0525Y04141D02*
Y04178D01*
X05231Y0416D02*
X05268D01*
X05202Y04138D02*
X05297D01*
X05202Y04181D02*
X05297D01*
Y04138D02*
Y04181D01*
X05202Y04138D02*
Y04181D01*
G54D60*
X04864Y03453D02*
Y04106D01*
X04615Y03453D02*
Y04106D01*
X04864*
X04615Y03453D02*
X04864D01*
X03735Y03345D02*
Y03584D01*
X03974Y03345D02*
Y03584D01*
X03735D02*
X03974D01*
X03735Y03345D02*
X03974D01*
X05292Y03407D02*
Y04072D01*
X05957Y03407D02*
Y04072D01*
X05292D02*
X05957D01*
X05292Y03407D02*
X05957D01*
M02*