G04 Layer_Physical_Order=1*
G04 Layer_Color=255*
%FSLAX25Y25*%
%MOIN*%
G70*
G01*
G75*
%ADD10R,0.03543X0.02756*%
%ADD11R,0.22638X0.18701*%
%ADD12O,0.03740X0.00984*%
%ADD13O,0.00984X0.03740*%
%ADD14R,0.10630X0.10630*%
%ADD15R,0.01969X0.02362*%
%ADD16R,0.02362X0.01969*%
%ADD17R,0.02000X0.02500*%
%ADD18R,0.03543X0.03150*%
%ADD19R,0.03150X0.03543*%
%ADD20R,0.06693X0.04331*%
%ADD21R,0.05906X0.05906*%
%ADD22R,0.04724X0.01181*%
%ADD23R,0.01181X0.04724*%
%ADD24R,0.12992X0.09449*%
%ADD25R,0.03937X0.09449*%
%ADD26R,0.02756X0.03543*%
%ADD27C,0.01000*%
%ADD28C,0.00827*%
%ADD29C,0.00600*%
%ADD30C,0.00689*%
%ADD31C,0.00800*%
%ADD32C,0.05906*%
%ADD33R,0.05906X0.05906*%
%ADD34C,0.02500*%
G36*
X657293Y455000D02*
Y269207D01*
X474000D01*
X420000Y299000D01*
X347500Y339000D01*
Y466500D01*
X657293D01*
Y455000D01*
D02*
G37*
%LPC*%
G36*
X502819Y380500D02*
X500744D01*
Y378228D01*
X502819D01*
Y380500D01*
D02*
G37*
G36*
X499744D02*
X497669D01*
Y378228D01*
X499744D01*
Y380500D01*
D02*
G37*
G36*
X511984Y375149D02*
X510500D01*
Y373468D01*
X511984D01*
Y375149D01*
D02*
G37*
G36*
X502819Y383772D02*
X500744D01*
Y381500D01*
X502819D01*
Y383772D01*
D02*
G37*
G36*
X499744D02*
X497669D01*
Y381500D01*
X499744D01*
Y383772D01*
D02*
G37*
G36*
X638500Y387083D02*
X637572Y386961D01*
X636708Y386603D01*
X635966Y386034D01*
X635397Y385292D01*
X635039Y384427D01*
X634917Y383500D01*
X635039Y382573D01*
X635397Y381708D01*
X635966Y380966D01*
X636708Y380397D01*
X637572Y380039D01*
X638500Y379917D01*
X639428Y380039D01*
X640292Y380397D01*
X641034Y380966D01*
X641603Y381708D01*
X641961Y382573D01*
X642083Y383500D01*
X641961Y384427D01*
X641603Y385292D01*
X641034Y386034D01*
X640292Y386603D01*
X639428Y386961D01*
X638500Y387083D01*
D02*
G37*
G36*
X382756Y374772D02*
X380681D01*
Y372500D01*
X382756D01*
Y374772D01*
D02*
G37*
G36*
X638500Y367083D02*
X637572Y366961D01*
X636708Y366603D01*
X635966Y366034D01*
X635397Y365292D01*
X635039Y364427D01*
X634917Y363500D01*
X635039Y362573D01*
X635397Y361708D01*
X635966Y360966D01*
X636708Y360397D01*
X637572Y360039D01*
X638500Y359917D01*
X639428Y360039D01*
X640292Y360397D01*
X641034Y360966D01*
X641603Y361708D01*
X641961Y362573D01*
X642083Y363500D01*
X641961Y364427D01*
X641603Y365292D01*
X641034Y366034D01*
X640292Y366603D01*
X639428Y366961D01*
X638500Y367083D01*
D02*
G37*
G36*
X514531Y354500D02*
X512850D01*
Y353016D01*
X514531D01*
Y354500D01*
D02*
G37*
G36*
X638500Y357083D02*
X637572Y356961D01*
X636708Y356603D01*
X635966Y356034D01*
X635397Y355292D01*
X635039Y354427D01*
X634917Y353500D01*
X635039Y352573D01*
X635397Y351708D01*
X635966Y350966D01*
X636708Y350397D01*
X637572Y350039D01*
X638500Y349917D01*
X639428Y350039D01*
X640292Y350397D01*
X641034Y350966D01*
X641603Y351708D01*
X641961Y352573D01*
X642083Y353500D01*
X641961Y354427D01*
X641603Y355292D01*
X641034Y356034D01*
X640292Y356603D01*
X639428Y356961D01*
X638500Y357083D01*
D02*
G37*
G36*
X501000Y372386D02*
X500278Y372243D01*
X499666Y371834D01*
X499524Y371621D01*
X497000D01*
X497000Y371622D01*
X496571Y371536D01*
X496207Y371293D01*
X496207Y371293D01*
X494675Y369762D01*
X494432Y369398D01*
X494347Y368969D01*
X494347Y368969D01*
Y299938D01*
X493994Y299584D01*
X493313Y299584D01*
X493188Y299584D01*
X489750D01*
Y296416D01*
X490410D01*
Y282439D01*
X490410Y282439D01*
X490495Y282010D01*
X490738Y281646D01*
X492957Y279427D01*
X492957Y279427D01*
X493321Y279184D01*
X493750Y279099D01*
X493750Y279099D01*
X509164D01*
Y276668D01*
X516269D01*
Y283773D01*
X509164D01*
Y281342D01*
X494215D01*
X492653Y282903D01*
Y296062D01*
X493007Y296416D01*
X493687Y296416D01*
X493813Y296416D01*
X497250D01*
Y299584D01*
X496590D01*
Y368504D01*
X497465Y369378D01*
X499524D01*
X499666Y369166D01*
X500278Y368757D01*
X501000Y368614D01*
X501722Y368757D01*
X502334Y369166D01*
X502743Y369778D01*
X502886Y370500D01*
X502743Y371222D01*
X502334Y371834D01*
X501722Y372243D01*
X501000Y372386D01*
D02*
G37*
G36*
X638500Y377083D02*
X637572Y376961D01*
X636708Y376603D01*
X635966Y376034D01*
X635397Y375292D01*
X635039Y374427D01*
X634917Y373500D01*
X635039Y372573D01*
X635397Y371708D01*
X635966Y370966D01*
X636708Y370397D01*
X637572Y370039D01*
X638500Y369917D01*
X639428Y370039D01*
X640292Y370397D01*
X641034Y370966D01*
X641603Y371708D01*
X641961Y372573D01*
X642083Y373500D01*
X641961Y374427D01*
X641603Y375292D01*
X641034Y376034D01*
X640292Y376603D01*
X639428Y376961D01*
X638500Y377083D01*
D02*
G37*
G36*
X382756Y371500D02*
X380681D01*
Y369228D01*
X382756D01*
Y371500D01*
D02*
G37*
G36*
X389819Y407772D02*
X387744D01*
Y405500D01*
X389819D01*
Y407772D01*
D02*
G37*
G36*
X386744D02*
X384669D01*
Y405500D01*
X386744D01*
Y407772D01*
D02*
G37*
G36*
X413496Y410307D02*
X406500D01*
Y405083D01*
X413496D01*
Y410307D01*
D02*
G37*
G36*
X628372Y421025D02*
X623628D01*
Y420169D01*
X619372D01*
Y421025D01*
X614628D01*
Y417069D01*
X619372D01*
Y417926D01*
X623628D01*
Y417069D01*
X628372D01*
Y421025D01*
D02*
G37*
G36*
X389000Y423886D02*
X388278Y423743D01*
X387666Y423334D01*
X387257Y422722D01*
X387114Y422000D01*
X387257Y421278D01*
X387666Y420666D01*
X388278Y420257D01*
X389000Y420114D01*
X389722Y420257D01*
X390334Y420666D01*
X390743Y421278D01*
X390886Y422000D01*
X390743Y422722D01*
X390334Y423334D01*
X389722Y423743D01*
X389000Y423886D01*
D02*
G37*
G36*
X638500Y417083D02*
X637572Y416961D01*
X636708Y416603D01*
X635966Y416034D01*
X635397Y415292D01*
X635039Y414428D01*
X634917Y413500D01*
X635039Y412572D01*
X635397Y411708D01*
X635966Y410966D01*
X636708Y410397D01*
X637572Y410039D01*
X638500Y409917D01*
X639428Y410039D01*
X640292Y410397D01*
X641034Y410966D01*
X641603Y411708D01*
X641961Y412572D01*
X642083Y413500D01*
X641961Y414428D01*
X641603Y415292D01*
X641034Y416034D01*
X640292Y416603D01*
X639428Y416961D01*
X638500Y417083D01*
D02*
G37*
G36*
X389819Y404500D02*
X387744D01*
Y402228D01*
X389819D01*
Y404500D01*
D02*
G37*
G36*
X512772Y394244D02*
X510500D01*
Y392169D01*
X512772D01*
Y394244D01*
D02*
G37*
G36*
X509500D02*
X507228D01*
Y392169D01*
X509500D01*
Y394244D01*
D02*
G37*
G36*
X638500Y397083D02*
X637572Y396961D01*
X636708Y396603D01*
X635966Y396034D01*
X635397Y395292D01*
X635039Y394427D01*
X634917Y393500D01*
X635039Y392573D01*
X635397Y391708D01*
X635966Y390966D01*
X636708Y390397D01*
X637572Y390039D01*
X638500Y389917D01*
X639428Y390039D01*
X640292Y390397D01*
X641034Y390966D01*
X641603Y391708D01*
X641961Y392573D01*
X642083Y393500D01*
X641961Y394427D01*
X641603Y395292D01*
X641034Y396034D01*
X640292Y396603D01*
X639428Y396961D01*
X638500Y397083D01*
D02*
G37*
G36*
X386744Y404500D02*
X384669D01*
Y402228D01*
X386744D01*
Y404500D01*
D02*
G37*
G36*
X638500Y407083D02*
X637572Y406961D01*
X636708Y406603D01*
X635966Y406034D01*
X635397Y405292D01*
X635039Y404427D01*
X634917Y403500D01*
X635039Y402573D01*
X635397Y401708D01*
X635966Y400966D01*
X636708Y400397D01*
X637572Y400039D01*
X638500Y399917D01*
X639428Y400039D01*
X640292Y400397D01*
X641034Y400966D01*
X641603Y401708D01*
X641961Y402573D01*
X642083Y403500D01*
X641961Y404427D01*
X641603Y405292D01*
X641034Y406034D01*
X640292Y406603D01*
X639428Y406961D01*
X638500Y407083D01*
D02*
G37*
G36*
X413496Y404083D02*
X406500D01*
Y398858D01*
X413496D01*
Y404083D01*
D02*
G37*
G36*
X516669Y297953D02*
X513217D01*
Y294500D01*
X516669D01*
Y297953D01*
D02*
G37*
G36*
X572500D02*
X569047D01*
Y294500D01*
X572500D01*
Y297953D01*
D02*
G37*
G36*
X512217D02*
X508764D01*
Y294500D01*
X512217D01*
Y297953D01*
D02*
G37*
G36*
X547453Y306500D02*
X544000D01*
Y303047D01*
X547453D01*
Y306500D01*
D02*
G37*
G36*
X543000D02*
X539547D01*
Y303047D01*
X543000D01*
Y306500D01*
D02*
G37*
G36*
X576953Y297953D02*
X573500D01*
Y294500D01*
X576953D01*
Y297953D01*
D02*
G37*
G36*
X610253Y296163D02*
X606800D01*
Y292710D01*
X610253D01*
Y296163D01*
D02*
G37*
G36*
X516669Y293500D02*
X513217D01*
Y290047D01*
X516669D01*
Y293500D01*
D02*
G37*
G36*
X512217D02*
X508764D01*
Y290047D01*
X512217D01*
Y293500D01*
D02*
G37*
G36*
X605800Y291710D02*
X602347D01*
Y288257D01*
X605800D01*
Y291710D01*
D02*
G37*
G36*
Y296163D02*
X602347D01*
Y292710D01*
X605800D01*
Y296163D01*
D02*
G37*
G36*
X576953Y293500D02*
X573500D01*
Y290047D01*
X576953D01*
Y293500D01*
D02*
G37*
G36*
X572500D02*
X569047D01*
Y290047D01*
X572500D01*
Y293500D01*
D02*
G37*
G36*
X508500Y348256D02*
X506228D01*
Y346181D01*
X508500D01*
Y348256D01*
D02*
G37*
G36*
X428095Y345000D02*
X426400D01*
Y343305D01*
X426778Y343380D01*
X427522Y343878D01*
X428019Y344622D01*
X428095Y345000D01*
D02*
G37*
G36*
X425400D02*
X423705D01*
X423781Y344622D01*
X424278Y343878D01*
X425022Y343380D01*
X425400Y343305D01*
Y345000D01*
D02*
G37*
G36*
X511772Y351331D02*
X509500D01*
Y349256D01*
X511772D01*
Y351331D01*
D02*
G37*
G36*
X508500D02*
X506228D01*
Y349256D01*
X508500D01*
Y351331D01*
D02*
G37*
G36*
X511772Y348256D02*
X509500D01*
Y346181D01*
X511772D01*
Y348256D01*
D02*
G37*
G36*
X638500Y347083D02*
X637572Y346961D01*
X636708Y346603D01*
X635966Y346034D01*
X635397Y345292D01*
X635039Y344427D01*
X634917Y343500D01*
X635039Y342573D01*
X635397Y341708D01*
X635966Y340966D01*
X636708Y340397D01*
X637572Y340039D01*
X638500Y339917D01*
X639428Y340039D01*
X640292Y340397D01*
X641034Y340966D01*
X641603Y341708D01*
X641961Y342573D01*
X642083Y343500D01*
X641961Y344427D01*
X641603Y345292D01*
X641034Y346034D01*
X640292Y346603D01*
X639428Y346961D01*
X638500Y347083D01*
D02*
G37*
G36*
X477500Y311232D02*
X474047D01*
Y307780D01*
X477500D01*
Y311232D01*
D02*
G37*
G36*
X481953Y306780D02*
X478500D01*
Y303327D01*
X481953D01*
Y306780D01*
D02*
G37*
G36*
X477500D02*
X474047D01*
Y303327D01*
X477500D01*
Y306780D01*
D02*
G37*
G36*
X390421Y339936D02*
X389995Y339851D01*
X389777Y339706D01*
X389437Y339645D01*
X389097Y339706D01*
X388879Y339851D01*
X388453Y339936D01*
X388027Y339851D01*
X387809Y339706D01*
X387469Y339645D01*
X387128Y339706D01*
X386910Y339851D01*
X386484Y339936D01*
X386058Y339851D01*
X385840Y339706D01*
X385500Y339645D01*
X385160Y339706D01*
X384942Y339851D01*
X384516Y339936D01*
X384090Y339851D01*
X383872Y339706D01*
X383531Y339645D01*
X383191Y339706D01*
X382973Y339851D01*
X382547Y339936D01*
X382121Y339851D01*
X381903Y339706D01*
X381563Y339645D01*
X381223Y339706D01*
X381005Y339851D01*
X380579Y339936D01*
X380153Y339851D01*
X379791Y339610D01*
X379550Y339249D01*
X379465Y338823D01*
Y336067D01*
X379550Y335641D01*
X379791Y335279D01*
X380153Y335038D01*
X380579Y334953D01*
X381005Y335038D01*
X381223Y335184D01*
X381563Y335244D01*
X381903Y335184D01*
X382121Y335038D01*
X382547Y334953D01*
X382973Y335038D01*
X383191Y335184D01*
X383531Y335244D01*
X383872Y335184D01*
X384090Y335038D01*
X384516Y334953D01*
X384942Y335038D01*
X385067Y335121D01*
X385567Y334854D01*
Y332864D01*
X385251Y332549D01*
X385052Y332251D01*
X384982Y331900D01*
Y329512D01*
X384566Y329234D01*
X384157Y328622D01*
X384014Y327900D01*
X384157Y327178D01*
X384566Y326566D01*
X385178Y326157D01*
X385900Y326014D01*
X386622Y326157D01*
X386956Y326380D01*
X386996Y326378D01*
X387477Y326127D01*
X387511Y325957D01*
X387732Y325626D01*
X388088Y325271D01*
X388014Y324900D01*
X388157Y324178D01*
X388566Y323566D01*
X389178Y323157D01*
X389900Y323014D01*
X390622Y323157D01*
X391234Y323566D01*
X391643Y324178D01*
X391786Y324900D01*
X391643Y325622D01*
X391234Y326234D01*
X390622Y326643D01*
X389900Y326786D01*
X389829Y326772D01*
X389370Y327162D01*
Y334854D01*
X389870Y335121D01*
X389995Y335038D01*
X390421Y334953D01*
X390847Y335038D01*
X391209Y335279D01*
X391450Y335641D01*
X391535Y336067D01*
Y338823D01*
X391450Y339249D01*
X391209Y339610D01*
X390847Y339851D01*
X390421Y339936D01*
D02*
G37*
G36*
X638500Y337083D02*
X637572Y336961D01*
X636708Y336603D01*
X635966Y336034D01*
X635397Y335292D01*
X635039Y334427D01*
X634917Y333500D01*
X635039Y332573D01*
X635397Y331708D01*
X635966Y330966D01*
X636708Y330397D01*
X637572Y330039D01*
X638500Y329917D01*
X639428Y330039D01*
X640292Y330397D01*
X641034Y330966D01*
X641603Y331708D01*
X641961Y332573D01*
X642083Y333500D01*
X641961Y334427D01*
X641603Y335292D01*
X641034Y336034D01*
X640292Y336603D01*
X639428Y336961D01*
X638500Y337083D01*
D02*
G37*
G36*
X481953Y311232D02*
X478500D01*
Y307780D01*
X481953D01*
Y311232D01*
D02*
G37*
G36*
X571921Y451500D02*
X568500D01*
Y448079D01*
X569032Y448149D01*
X569993Y448547D01*
X570819Y449181D01*
X571453Y450007D01*
X571851Y450968D01*
X571921Y451500D01*
D02*
G37*
G36*
X373000Y455583D02*
X372073Y455461D01*
X371208Y455103D01*
X370466Y454534D01*
X369897Y453792D01*
X369539Y452927D01*
X369417Y452000D01*
X369539Y451073D01*
X369897Y450208D01*
X370144Y449886D01*
X368964Y448206D01*
X368915Y448093D01*
X368846Y447991D01*
X368827Y447895D01*
X368788Y447806D01*
X368785Y447683D01*
X368761Y447562D01*
Y418347D01*
X364162Y413749D01*
X363919Y413385D01*
X363834Y412956D01*
X363834Y412956D01*
Y367802D01*
X363834Y367802D01*
X363878Y367578D01*
Y358623D01*
X359207Y353951D01*
X358964Y353587D01*
X358878Y353158D01*
X358878Y353158D01*
Y347161D01*
X358417Y346970D01*
X357121Y348265D01*
Y410035D01*
X360793Y413707D01*
X360793Y413707D01*
X361036Y414071D01*
X361122Y414500D01*
Y415524D01*
X361334Y415666D01*
X361743Y416278D01*
X361886Y417000D01*
X361743Y417722D01*
X361334Y418334D01*
X360722Y418743D01*
X360000Y418886D01*
X359278Y418743D01*
X358666Y418334D01*
X358257Y417722D01*
X358114Y417000D01*
X358257Y416278D01*
X358666Y415666D01*
X358878Y415524D01*
Y414965D01*
X355207Y411293D01*
X354964Y410929D01*
X354878Y410500D01*
X354878Y410500D01*
Y347800D01*
X354878Y347800D01*
X354964Y347371D01*
X355207Y347007D01*
X359807Y342407D01*
X360171Y342164D01*
X360600Y342078D01*
X361029Y342164D01*
X361139Y342237D01*
X373613D01*
X373652Y342216D01*
X373985Y341737D01*
X373953Y341579D01*
X374038Y341153D01*
X374279Y340791D01*
X374641Y340550D01*
X375067Y340465D01*
X377823D01*
X378249Y340550D01*
X378610Y340791D01*
X378852Y341153D01*
X378936Y341579D01*
X378852Y342005D01*
X378706Y342223D01*
X378645Y342563D01*
X378706Y342903D01*
X378852Y343121D01*
X378936Y343547D01*
X378852Y343973D01*
X378706Y344191D01*
X378645Y344531D01*
X378706Y344872D01*
X378852Y345090D01*
X378936Y345516D01*
X378852Y345942D01*
X378706Y346160D01*
X378645Y346500D01*
X378706Y346840D01*
X378852Y347058D01*
X378936Y347484D01*
X378852Y347910D01*
X378706Y348128D01*
X378645Y348468D01*
X378706Y348809D01*
X378852Y349027D01*
X378936Y349453D01*
X378852Y349879D01*
X378706Y350097D01*
X378645Y350437D01*
X378706Y350777D01*
X378852Y350995D01*
X378936Y351421D01*
X378852Y351847D01*
X378610Y352209D01*
X378249Y352450D01*
X377823Y352535D01*
X375067D01*
X374641Y352450D01*
X374474Y352339D01*
X372303D01*
X370593Y354049D01*
X370461Y354138D01*
X370612Y354638D01*
X379465D01*
Y354177D01*
X379550Y353751D01*
X379791Y353390D01*
X380153Y353149D01*
X380579Y353064D01*
X381005Y353149D01*
X381223Y353294D01*
X381563Y353355D01*
X381903Y353294D01*
X382121Y353149D01*
X382547Y353064D01*
X382973Y353149D01*
X383191Y353294D01*
X383531Y353355D01*
X383872Y353294D01*
X384090Y353149D01*
X384516Y353064D01*
X384942Y353149D01*
X385160Y353294D01*
X385500Y353355D01*
X385840Y353294D01*
X386058Y353149D01*
X386484Y353064D01*
X386910Y353149D01*
X387128Y353294D01*
X387469Y353355D01*
X387809Y353294D01*
X388027Y353149D01*
X388453Y353064D01*
X388879Y353149D01*
X389097Y353294D01*
X389437Y353355D01*
X389777Y353294D01*
X389995Y353149D01*
X390322Y353083D01*
X390453Y352915D01*
X390311Y352542D01*
X390179Y352415D01*
X379585D01*
Y340585D01*
X391415D01*
Y347217D01*
X391583Y347336D01*
X392137Y347116D01*
X392148Y347058D01*
X392294Y346840D01*
X392355Y346500D01*
X392294Y346160D01*
X392148Y345942D01*
X392064Y345516D01*
X392148Y345090D01*
X392294Y344872D01*
X392355Y344531D01*
X392294Y344191D01*
X392148Y343973D01*
X392064Y343547D01*
X392148Y343121D01*
X392294Y342903D01*
X392355Y342563D01*
X392294Y342223D01*
X392148Y342005D01*
X392064Y341579D01*
X392148Y341153D01*
X392390Y340791D01*
X392751Y340550D01*
X393177Y340465D01*
X394816D01*
X400901Y334380D01*
X400943Y334171D01*
X401186Y333807D01*
X401550Y333564D01*
X401979Y333478D01*
X418750D01*
X418750Y333478D01*
X419179Y333564D01*
X419543Y333807D01*
X420793Y335057D01*
X420793Y335057D01*
X421036Y335421D01*
X421122Y335850D01*
X421122Y335850D01*
Y359124D01*
X421334Y359266D01*
X421743Y359878D01*
X421886Y360600D01*
X421743Y361322D01*
X421334Y361934D01*
X420722Y362343D01*
X420000Y362486D01*
X419278Y362343D01*
X418666Y361934D01*
X418257Y361322D01*
X418114Y360600D01*
X418257Y359878D01*
X418666Y359266D01*
X418878Y359124D01*
Y336315D01*
X418285Y335721D01*
X402155D01*
X396867Y341010D01*
X396962Y341153D01*
X397047Y341579D01*
X397012Y341752D01*
X397294Y342258D01*
X397360Y342309D01*
X397557Y342338D01*
X398944Y340950D01*
X398970Y340821D01*
X399213Y340457D01*
X399577Y340214D01*
X400006Y340128D01*
X401540D01*
X401540Y340128D01*
X401969Y340214D01*
X402333Y340457D01*
X405056Y343180D01*
X405634Y343566D01*
X406043Y344178D01*
X406186Y344900D01*
X406043Y345622D01*
X405634Y346234D01*
X405022Y346643D01*
X404300Y346786D01*
X403578Y346643D01*
X402966Y346234D01*
X402557Y345622D01*
X402414Y344900D01*
X402557Y344178D01*
X402687Y343984D01*
X401075Y342372D01*
X400247D01*
X398672Y343947D01*
X398897Y344399D01*
X398913Y344403D01*
X399635Y344260D01*
X400357Y344403D01*
X400969Y344812D01*
X401378Y345424D01*
X401521Y346146D01*
X401378Y346868D01*
X400969Y347480D01*
X400357Y347889D01*
X399970Y347966D01*
X399806Y348508D01*
X403220Y351922D01*
X403429Y351964D01*
X403793Y352207D01*
X406793Y355207D01*
X407036Y355571D01*
X407122Y356000D01*
X407122Y356000D01*
Y358069D01*
X408372D01*
Y362419D01*
X403628D01*
Y358069D01*
X404879D01*
Y356465D01*
X402207Y353793D01*
X401964Y353429D01*
X401922Y353220D01*
X400205Y351503D01*
X399744Y351749D01*
X399771Y351887D01*
Y368116D01*
X400234Y368264D01*
X400272Y368257D01*
X400666Y367666D01*
X401278Y367257D01*
X402000Y367114D01*
X402722Y367257D01*
X402982Y367431D01*
X403628Y366786D01*
Y363581D01*
X408372D01*
Y367931D01*
X405655D01*
X403793Y369793D01*
X403616Y369911D01*
X403334Y370334D01*
X402722Y370743D01*
X402644Y370758D01*
X402499Y371236D01*
X404141Y372879D01*
X412535D01*
X417776Y367638D01*
X417776Y367638D01*
X418140Y367395D01*
X418569Y367309D01*
X419105D01*
X424878Y361535D01*
Y347523D01*
X424278Y347122D01*
X423781Y346378D01*
X423705Y346000D01*
X428095D01*
X428019Y346378D01*
X427522Y347122D01*
X427122Y347390D01*
Y362000D01*
X427122Y362000D01*
X427036Y362429D01*
X426793Y362793D01*
X426793Y362793D01*
X420362Y369224D01*
X419998Y369467D01*
X419569Y369552D01*
X419569Y369552D01*
X419034D01*
X413793Y374793D01*
X413429Y375036D01*
X413000Y375122D01*
X413000Y375121D01*
X403677D01*
X403677Y375122D01*
X403247Y375036D01*
X402883Y374793D01*
X402883Y374793D01*
X398380Y370289D01*
X397918Y370480D01*
Y373274D01*
X398036Y373451D01*
X398122Y373881D01*
Y376431D01*
X420524D01*
X420666Y376219D01*
X421278Y375810D01*
X422000Y375666D01*
X422722Y375810D01*
X423334Y376219D01*
X423743Y376831D01*
X423886Y377553D01*
X423743Y378275D01*
X423334Y378887D01*
X422722Y379295D01*
X422000Y379439D01*
X421278Y379295D01*
X420666Y378887D01*
X420524Y378674D01*
X398122D01*
Y398574D01*
X398504Y398858D01*
X405500D01*
Y404583D01*
Y410307D01*
X398504D01*
X398504Y410307D01*
Y410307D01*
X398134Y410587D01*
X398066Y410639D01*
Y422093D01*
X399513D01*
Y432742D01*
X398066D01*
Y435628D01*
X398419D01*
Y440372D01*
X394069D01*
Y435628D01*
X395823D01*
Y432742D01*
X394376D01*
Y422093D01*
X395823D01*
Y410000D01*
X395823Y410000D01*
X395909Y409571D01*
X396152Y409207D01*
X397282Y408076D01*
Y406869D01*
X396535Y406121D01*
X394931D01*
Y407372D01*
X390581D01*
Y402628D01*
X394931D01*
Y403878D01*
X395879D01*
Y377000D01*
X395878Y377000D01*
X395879Y377000D01*
Y374772D01*
X394256D01*
Y372000D01*
Y369228D01*
X396082D01*
Y364380D01*
X391971Y360269D01*
X391472Y360476D01*
Y365483D01*
X391793Y365805D01*
X391793Y365805D01*
X392036Y366169D01*
X392122Y366598D01*
X392122Y366598D01*
Y369228D01*
X393256D01*
Y372000D01*
Y374772D01*
X391181D01*
Y371834D01*
X390712Y371629D01*
X390419Y371866D01*
Y374372D01*
X386331D01*
X386072Y374372D01*
X385831Y374772D01*
X385828Y374772D01*
X383756D01*
Y372000D01*
Y369228D01*
X385831Y369228D01*
X386072Y369628D01*
X386331Y369628D01*
X389432D01*
X389879Y369181D01*
Y367063D01*
X389557Y366741D01*
X389319Y366386D01*
X389280Y366378D01*
X388808Y366395D01*
X388743Y366722D01*
X388334Y367334D01*
X387722Y367743D01*
X387000Y367886D01*
X386278Y367743D01*
X385666Y367334D01*
X385257Y366722D01*
X385114Y366000D01*
X385257Y365278D01*
X385666Y364666D01*
X385878Y364524D01*
Y362750D01*
X385964Y362321D01*
X386037Y362211D01*
Y361256D01*
X385537Y361049D01*
X379037Y367549D01*
X378673Y367792D01*
X378244Y367877D01*
X378244Y367877D01*
X375372D01*
Y368931D01*
X370628D01*
Y364581D01*
X375372D01*
Y365634D01*
X377780D01*
X380548Y362865D01*
X380341Y362366D01*
X375372D01*
Y363419D01*
X370628D01*
Y359069D01*
X375372D01*
Y360122D01*
X380436D01*
X381630Y358928D01*
Y358146D01*
X381130Y357879D01*
X381005Y357962D01*
X380579Y358047D01*
X380153Y357962D01*
X379791Y357720D01*
X379550Y357359D01*
X379465Y356933D01*
Y356473D01*
X370825D01*
X367318Y359980D01*
Y367956D01*
X370399Y371037D01*
X375569D01*
Y369628D01*
X379919D01*
Y374372D01*
X375569D01*
Y372963D01*
X370000D01*
X370000Y372963D01*
X369632Y372890D01*
X369319Y372681D01*
X366539Y369901D01*
X366077Y370092D01*
Y412491D01*
X370675Y417089D01*
X370675Y417089D01*
X370918Y417453D01*
X371004Y417882D01*
Y447207D01*
X371969Y448582D01*
X372073Y448539D01*
X373000Y448417D01*
X373927Y448539D01*
X374792Y448897D01*
X375534Y449466D01*
X376103Y450208D01*
X376461Y451073D01*
X376583Y452000D01*
X376461Y452927D01*
X376103Y453792D01*
X375534Y454534D01*
X374792Y455103D01*
X373927Y455461D01*
X373000Y455583D01*
D02*
G37*
G36*
X483000D02*
X482072Y455461D01*
X481208Y455103D01*
X480466Y454534D01*
X479897Y453792D01*
X479539Y452927D01*
X479417Y452000D01*
X479539Y451073D01*
X479897Y450208D01*
X480466Y449466D01*
X481208Y448897D01*
X481878Y448619D01*
Y443417D01*
X479392Y440931D01*
X476628D01*
Y436975D01*
X481372D01*
Y439738D01*
X483793Y442160D01*
X483793Y442160D01*
X484036Y442524D01*
X484122Y442953D01*
Y448619D01*
X484792Y448897D01*
X485534Y449466D01*
X486103Y450208D01*
X486461Y451073D01*
X486583Y452000D01*
X486461Y452927D01*
X486103Y453792D01*
X485534Y454534D01*
X484792Y455103D01*
X483927Y455461D01*
X483000Y455583D01*
D02*
G37*
G36*
X567500Y451500D02*
X564079D01*
X564149Y450968D01*
X564547Y450007D01*
X565181Y449181D01*
X566007Y448547D01*
X566968Y448149D01*
X567500Y448079D01*
Y451500D01*
D02*
G37*
G36*
X366921D02*
X363500D01*
Y448079D01*
X364032Y448149D01*
X364993Y448547D01*
X365819Y449181D01*
X366453Y450007D01*
X366851Y450968D01*
X366921Y451500D01*
D02*
G37*
G36*
X559531Y438984D02*
X557850D01*
Y437500D01*
X559531D01*
Y438984D01*
D02*
G37*
G36*
X383000Y455583D02*
X382073Y455461D01*
X381208Y455103D01*
X380466Y454534D01*
X379897Y453792D01*
X379539Y452927D01*
X379417Y452000D01*
X379539Y451073D01*
X379897Y450208D01*
X380466Y449466D01*
X381208Y448897D01*
X382073Y448539D01*
X383000Y448417D01*
X383927Y448539D01*
X384792Y448897D01*
X385534Y449466D01*
X386103Y450208D01*
X386461Y451073D01*
X386583Y452000D01*
X386461Y452927D01*
X386103Y453792D01*
X385534Y454534D01*
X384792Y455103D01*
X383927Y455461D01*
X383000Y455583D01*
D02*
G37*
G36*
X419819Y437500D02*
X417744D01*
Y435228D01*
X419819D01*
Y437500D01*
D02*
G37*
G36*
X401256D02*
X399181D01*
Y435228D01*
X401256D01*
Y437500D01*
D02*
G37*
G36*
X594150Y436500D02*
X592469D01*
Y435016D01*
X594150D01*
Y436500D01*
D02*
G37*
G36*
X519772Y438256D02*
X517500D01*
Y436181D01*
X519772D01*
Y438256D01*
D02*
G37*
G36*
X538000Y455583D02*
X537073Y455461D01*
X536208Y455103D01*
X535466Y454534D01*
X534897Y453792D01*
X534539Y452927D01*
X534417Y452000D01*
X534539Y451073D01*
X534897Y450208D01*
X535466Y449466D01*
X536208Y448897D01*
X537073Y448539D01*
X538000Y448417D01*
X538928Y448539D01*
X539792Y448897D01*
X540534Y449466D01*
X541103Y450208D01*
X541461Y451073D01*
X541583Y452000D01*
X541461Y452927D01*
X541103Y453792D01*
X540534Y454534D01*
X539792Y455103D01*
X538928Y455461D01*
X538000Y455583D01*
D02*
G37*
G36*
X516500Y438256D02*
X514228D01*
Y436181D01*
X516500D01*
Y438256D01*
D02*
G37*
G36*
X452500Y446256D02*
X450228D01*
Y444181D01*
X452500D01*
Y446256D01*
D02*
G37*
G36*
X594150Y442984D02*
X592469D01*
Y441500D01*
X594150D01*
Y442984D01*
D02*
G37*
G36*
X519772Y441331D02*
X517500D01*
Y439256D01*
X519772D01*
Y441331D01*
D02*
G37*
G36*
X445921Y450500D02*
X442500D01*
Y447079D01*
X443032Y447149D01*
X443993Y447547D01*
X444819Y448181D01*
X445453Y449007D01*
X445851Y449968D01*
X445921Y450500D01*
D02*
G37*
G36*
X441500D02*
X438079D01*
X438149Y449968D01*
X438547Y449007D01*
X439181Y448181D01*
X440007Y447547D01*
X440968Y447149D01*
X441500Y447079D01*
Y450500D01*
D02*
G37*
G36*
X455772Y446256D02*
X453500D01*
Y444181D01*
X455772D01*
Y446256D01*
D02*
G37*
G36*
X452500Y449331D02*
X450228D01*
Y447256D01*
X452500D01*
Y449331D01*
D02*
G37*
G36*
X396553Y455553D02*
X389447D01*
Y448447D01*
X396553D01*
Y450513D01*
X396907Y450866D01*
X407449Y450831D01*
X407451Y450832D01*
X407453Y450831D01*
X418628D01*
Y449975D01*
X423372D01*
Y450831D01*
X428447D01*
Y447447D01*
X435553D01*
Y454553D01*
X428447D01*
Y453074D01*
X423372D01*
Y453931D01*
X418628D01*
Y453074D01*
X407453D01*
X396553Y453110D01*
Y455553D01*
D02*
G37*
G36*
X362500Y451500D02*
X359079D01*
X359149Y450968D01*
X359547Y450007D01*
X360181Y449181D01*
X361007Y448547D01*
X361968Y448149D01*
X362500Y448079D01*
Y451500D01*
D02*
G37*
G36*
X401256Y440772D02*
X399181D01*
Y438500D01*
X401256D01*
Y440772D01*
D02*
G37*
G36*
X516500Y441331D02*
X514228D01*
Y439256D01*
X516500D01*
Y441331D01*
D02*
G37*
G36*
X416744Y440772D02*
X414669D01*
Y439122D01*
X404331D01*
Y440772D01*
X402256D01*
Y438000D01*
Y435228D01*
X404331D01*
Y436878D01*
X414669D01*
Y435228D01*
X416744D01*
Y438000D01*
Y440772D01*
D02*
G37*
G36*
X455772Y449331D02*
X453500D01*
Y447256D01*
X455772D01*
Y449331D01*
D02*
G37*
G36*
X564532Y427500D02*
X562850D01*
Y426016D01*
X564532D01*
Y427500D01*
D02*
G37*
G36*
X545276Y427618D02*
X543791D01*
Y425937D01*
X545276D01*
Y427618D01*
D02*
G37*
G36*
X628772Y427331D02*
X626500D01*
Y425453D01*
X628772D01*
Y427331D01*
D02*
G37*
G36*
X567500Y455921D02*
X566968Y455851D01*
X566007Y455453D01*
X565181Y454819D01*
X564547Y453993D01*
X564149Y453032D01*
X564079Y452500D01*
X567500D01*
Y455921D01*
D02*
G37*
G36*
X541150Y428500D02*
X539469D01*
Y427016D01*
X541150D01*
Y428500D01*
D02*
G37*
G36*
X562150Y427500D02*
X560469D01*
Y426016D01*
X562150D01*
Y427500D01*
D02*
G37*
G36*
X625500Y427331D02*
X623228D01*
Y425453D01*
X625500D01*
Y427331D01*
D02*
G37*
G36*
X568500Y455921D02*
Y452500D01*
X571921D01*
X571851Y453032D01*
X571453Y453993D01*
X570819Y454819D01*
X569993Y455453D01*
X569032Y455851D01*
X568500Y455921D01*
D02*
G37*
G36*
X408968Y426917D02*
X406500D01*
Y421693D01*
X408968D01*
Y426917D01*
D02*
G37*
G36*
X405500D02*
X403031D01*
Y421693D01*
X405500D01*
Y426917D01*
D02*
G37*
G36*
X628772Y424453D02*
X626500D01*
Y422575D01*
X628772D01*
Y424453D01*
D02*
G37*
G36*
X363500Y455921D02*
Y452500D01*
X366921D01*
X366851Y453032D01*
X366453Y453993D01*
X365819Y454819D01*
X364993Y455453D01*
X364032Y455851D01*
X363500Y455921D01*
D02*
G37*
G36*
X625500Y424453D02*
X623228D01*
Y422575D01*
X625500D01*
Y424453D01*
D02*
G37*
G36*
X423372Y448025D02*
X418628D01*
Y444069D01*
X419878D01*
Y441247D01*
X419819Y440772D01*
X419378Y440772D01*
X417744D01*
Y438500D01*
X419863D01*
X420309Y438690D01*
X420581Y438468D01*
Y435628D01*
X420973D01*
X421180Y435128D01*
X418086Y432034D01*
X417624Y432225D01*
Y432742D01*
X412487D01*
Y422093D01*
X417624D01*
Y428400D01*
X423549Y434325D01*
X423549Y434325D01*
X423792Y434689D01*
X423878Y435118D01*
X423877Y435118D01*
Y435628D01*
X424931D01*
Y440372D01*
X422122D01*
Y444069D01*
X423372D01*
Y448025D01*
D02*
G37*
G36*
X548000Y455583D02*
X547073Y455461D01*
X546208Y455103D01*
X545466Y454534D01*
X544897Y453792D01*
X544539Y452927D01*
X544417Y452000D01*
X544539Y451073D01*
X544897Y450208D01*
X545466Y449466D01*
X546208Y448897D01*
X547073Y448539D01*
X548000Y448417D01*
X548927Y448539D01*
X549792Y448897D01*
X550534Y449466D01*
X551103Y450208D01*
X551461Y451073D01*
X551583Y452000D01*
X551461Y452927D01*
X551103Y453792D01*
X550534Y454534D01*
X549792Y455103D01*
X548927Y455461D01*
X548000Y455583D01*
D02*
G37*
G36*
X559531Y436500D02*
X557850D01*
Y435016D01*
X559531D01*
Y436500D01*
D02*
G37*
G36*
X558000Y455583D02*
X557072Y455461D01*
X556208Y455103D01*
X555466Y454534D01*
X554897Y453792D01*
X554539Y452927D01*
X554417Y452000D01*
X554539Y451073D01*
X554897Y450208D01*
X555466Y449466D01*
X556208Y448897D01*
X557072Y448539D01*
X558000Y448417D01*
X558927Y448539D01*
X559792Y448897D01*
X560534Y449466D01*
X561103Y450208D01*
X561461Y451073D01*
X561583Y452000D01*
X561461Y452927D01*
X561103Y453792D01*
X560534Y454534D01*
X559792Y455103D01*
X558927Y455461D01*
X558000Y455583D01*
D02*
G37*
G36*
X578000D02*
X577072Y455461D01*
X576208Y455103D01*
X575466Y454534D01*
X574897Y453792D01*
X574539Y452927D01*
X574417Y452000D01*
X574539Y451073D01*
X574897Y450208D01*
X575466Y449466D01*
X576208Y448897D01*
X577072Y448539D01*
X578000Y448417D01*
X578928Y448539D01*
X579792Y448897D01*
X580534Y449466D01*
X581103Y450208D01*
X581461Y451073D01*
X581583Y452000D01*
X581461Y452927D01*
X581103Y453792D01*
X580534Y454534D01*
X579792Y455103D01*
X578928Y455461D01*
X578000Y455583D01*
D02*
G37*
G36*
X591553Y455553D02*
X584447D01*
Y448447D01*
X586878D01*
Y442584D01*
X586250D01*
Y439416D01*
X586878D01*
Y438584D01*
X586250D01*
Y435416D01*
X586878D01*
Y434465D01*
X585982Y433568D01*
X585722Y433743D01*
X585000Y433886D01*
X584278Y433743D01*
X583666Y433334D01*
X583524Y433122D01*
X569433D01*
X567762Y434793D01*
X567762Y434793D01*
X565750Y436805D01*
Y438584D01*
X562213D01*
Y438984D01*
X560532D01*
Y437000D01*
Y435016D01*
X562213D01*
Y435416D01*
X563967D01*
X565382Y434000D01*
X562588Y431206D01*
X558116D01*
X557686Y431120D01*
X557323Y430877D01*
X557323Y430877D01*
X556030Y429584D01*
X554250D01*
Y429122D01*
X552000D01*
X552000Y429122D01*
X551571Y429036D01*
X551207Y428793D01*
X550964Y428429D01*
X550925Y428236D01*
X548222Y425532D01*
X547760Y425724D01*
Y427618D01*
X546276D01*
Y425437D01*
X545776D01*
Y424937D01*
X543791D01*
Y423256D01*
X544191D01*
Y422622D01*
X540378D01*
X540378Y422622D01*
X539949Y422536D01*
X539585Y422293D01*
X538413Y421122D01*
X527240D01*
X525584Y422778D01*
Y423222D01*
X530240Y427878D01*
X533250D01*
Y427416D01*
X536788D01*
Y427016D01*
X538469D01*
Y429000D01*
Y430984D01*
X536788D01*
Y430584D01*
X533250D01*
Y430122D01*
X530357D01*
X530317Y430148D01*
X529888Y430234D01*
X529459Y430148D01*
X529095Y429905D01*
X529095Y429905D01*
X526446Y427257D01*
X525984Y427448D01*
Y429150D01*
X524500D01*
Y426968D01*
X524000D01*
Y426469D01*
X522016D01*
Y424787D01*
X522416D01*
Y424277D01*
X521916Y424070D01*
X518122Y427865D01*
Y431069D01*
X519372D01*
Y435419D01*
X514628D01*
Y431069D01*
X515878D01*
Y427400D01*
X515878Y427400D01*
X515964Y426971D01*
X516207Y426607D01*
X520278Y422535D01*
Y418372D01*
X520069D01*
Y413628D01*
X520278D01*
Y402472D01*
X520278Y402472D01*
X520364Y402043D01*
X520607Y401679D01*
X526078Y396207D01*
Y395145D01*
X525617Y394954D01*
X512722Y407849D01*
Y415100D01*
X512722Y415100D01*
X512636Y415529D01*
X512393Y415893D01*
X512393Y415893D01*
X501122Y427165D01*
Y431069D01*
X502372D01*
Y435025D01*
X499608D01*
X498120Y436513D01*
X498312Y436975D01*
X502372D01*
Y440931D01*
X501122D01*
Y445000D01*
X501036Y445429D01*
X500793Y445793D01*
X500793Y445793D01*
X496553Y450033D01*
Y455553D01*
X489447D01*
Y448447D01*
X494967D01*
X498878Y444535D01*
Y440931D01*
X497628D01*
Y437658D01*
X497166Y437467D01*
X494887Y439746D01*
X494524Y439989D01*
X494094Y440074D01*
X494094Y440074D01*
X491372D01*
Y440931D01*
X486628D01*
Y436975D01*
X491372D01*
Y437831D01*
X493630D01*
X497628Y433833D01*
Y431069D01*
X498878D01*
Y426700D01*
X498878Y426700D01*
X498964Y426271D01*
X499207Y425907D01*
X510424Y414690D01*
X510386Y414353D01*
X509891Y414162D01*
X494293Y429761D01*
X494270Y429776D01*
X494253Y429798D01*
X491372Y432411D01*
Y435025D01*
X486628D01*
Y431069D01*
X489512D01*
X492726Y428155D01*
X508878Y412003D01*
Y402431D01*
X507628D01*
Y401378D01*
X492331D01*
X492329Y401379D01*
X491900Y401464D01*
X491900Y401464D01*
X485919D01*
Y410293D01*
X463367D01*
X463160Y410793D01*
X479293Y426926D01*
X479386Y427065D01*
X479492Y427195D01*
X479507Y427246D01*
X479536Y427290D01*
X479569Y427454D01*
X479617Y427614D01*
X479941Y431069D01*
X481372D01*
Y435025D01*
X478123D01*
X469522Y441017D01*
X464872Y445667D01*
Y448431D01*
X460128D01*
Y444475D01*
X462892D01*
X464380Y442987D01*
X464188Y442525D01*
X460128D01*
Y442145D01*
X460100Y441669D01*
X460100Y441669D01*
X455372D01*
Y443419D01*
X450628D01*
Y439069D01*
X455372D01*
Y439426D01*
X456730D01*
X456997Y438926D01*
X456964Y438876D01*
X456878Y438447D01*
X456878Y438447D01*
Y414768D01*
X456700Y414622D01*
X456700Y414622D01*
X446381D01*
X446103Y415292D01*
X445534Y416034D01*
X444792Y416603D01*
X443927Y416961D01*
X443000Y417083D01*
X442072Y416961D01*
X441208Y416603D01*
X440522Y416076D01*
X440022Y416188D01*
Y418935D01*
X441033Y419947D01*
X446553D01*
Y427053D01*
X439447D01*
Y421533D01*
X438107Y420193D01*
X437864Y419829D01*
X437778Y419400D01*
X437778Y419400D01*
Y359976D01*
X437566Y359834D01*
X437157Y359222D01*
X437014Y358500D01*
X437157Y357778D01*
X437566Y357166D01*
X438178Y356757D01*
X438900Y356614D01*
X439622Y356757D01*
X440234Y357166D01*
X440643Y357778D01*
X440786Y358500D01*
X440643Y359222D01*
X440234Y359834D01*
X440022Y359976D01*
Y360812D01*
X440522Y360924D01*
X441208Y360397D01*
X442072Y360039D01*
X443000Y359917D01*
X443927Y360039D01*
X444792Y360397D01*
X445534Y360966D01*
X446103Y361708D01*
X446278Y362131D01*
X446778Y362032D01*
Y354968D01*
X446278Y354869D01*
X446103Y355292D01*
X445534Y356034D01*
X444792Y356603D01*
X443927Y356961D01*
X443000Y357083D01*
X442072Y356961D01*
X441208Y356603D01*
X440466Y356034D01*
X439897Y355292D01*
X439539Y354427D01*
X439417Y353500D01*
X439539Y352573D01*
X439897Y351708D01*
X440466Y350966D01*
X441208Y350397D01*
X442072Y350039D01*
X443000Y349917D01*
X443927Y350039D01*
X444792Y350397D01*
X445534Y350966D01*
X446103Y351708D01*
X446278Y352131D01*
X446778Y352032D01*
Y344968D01*
X446278Y344869D01*
X446103Y345292D01*
X445534Y346034D01*
X444792Y346603D01*
X443927Y346961D01*
X443000Y347083D01*
X442072Y346961D01*
X441208Y346603D01*
X440466Y346034D01*
X439897Y345292D01*
X439539Y344427D01*
X439417Y343500D01*
X439539Y342573D01*
X439897Y341708D01*
X440466Y340966D01*
X441208Y340397D01*
X442072Y340039D01*
X443000Y339917D01*
X443927Y340039D01*
X444792Y340397D01*
X445534Y340966D01*
X446103Y341708D01*
X446278Y342131D01*
X446778Y342032D01*
Y334968D01*
X446278Y334869D01*
X446103Y335292D01*
X445534Y336034D01*
X444792Y336603D01*
X443927Y336961D01*
X443000Y337083D01*
X442072Y336961D01*
X441208Y336603D01*
X440466Y336034D01*
X439897Y335292D01*
X439539Y334427D01*
X439417Y333500D01*
X439539Y332573D01*
X439897Y331708D01*
X440466Y330966D01*
X441208Y330397D01*
X441878Y330119D01*
Y316000D01*
X441878Y316000D01*
X441964Y315571D01*
X442207Y315207D01*
X444164Y313250D01*
X444114Y313000D01*
X444257Y312278D01*
X444666Y311666D01*
X445278Y311257D01*
X446000Y311114D01*
X446722Y311257D01*
X447334Y311666D01*
X447743Y312278D01*
X447886Y313000D01*
X447743Y313722D01*
X447334Y314334D01*
X446722Y314743D01*
X446000Y314886D01*
X445750Y314837D01*
X444122Y316465D01*
Y330119D01*
X444792Y330397D01*
X445534Y330966D01*
X446103Y331708D01*
X446195Y331928D01*
X446716Y331882D01*
X446778Y331600D01*
X446864Y331171D01*
X447107Y330807D01*
X455564Y322350D01*
X455514Y322100D01*
X455657Y321378D01*
X456066Y320766D01*
X456678Y320357D01*
X457400Y320214D01*
X458122Y320357D01*
X458734Y320766D01*
X459143Y321378D01*
X459286Y322100D01*
X459143Y322822D01*
X458734Y323434D01*
X458122Y323843D01*
X457400Y323986D01*
X457150Y323937D01*
X449022Y332065D01*
Y398600D01*
X449022Y398600D01*
X448936Y399029D01*
X448693Y399393D01*
X448693Y399393D01*
X446184Y401902D01*
X446461Y402573D01*
X446583Y403500D01*
X446461Y404427D01*
X446103Y405292D01*
X445534Y406034D01*
X444792Y406603D01*
X443927Y406961D01*
X443000Y407083D01*
X442072Y406961D01*
X441208Y406603D01*
X440522Y406076D01*
X440022Y406188D01*
Y410812D01*
X440522Y410924D01*
X441208Y410397D01*
X442072Y410039D01*
X443000Y409917D01*
X443927Y410039D01*
X444792Y410397D01*
X445534Y410966D01*
X446103Y411708D01*
X446381Y412378D01*
X455678D01*
Y404719D01*
X455178Y404568D01*
X454934Y404934D01*
X454322Y405343D01*
X453600Y405486D01*
X452878Y405343D01*
X452266Y404934D01*
X451857Y404322D01*
X451714Y403600D01*
X451857Y402878D01*
X452266Y402266D01*
X452478Y402124D01*
Y340800D01*
X452478Y340800D01*
X452564Y340371D01*
X452807Y340007D01*
X463347Y329467D01*
Y308938D01*
X462993Y308584D01*
X462313Y308584D01*
X462187Y308584D01*
X458750D01*
Y305416D01*
X459410D01*
Y304400D01*
X459410Y304400D01*
X459495Y303971D01*
X459738Y303607D01*
X465939Y297407D01*
X465939Y297407D01*
X466302Y297164D01*
X466732Y297078D01*
X472835D01*
X474447Y295467D01*
Y289947D01*
X481553D01*
Y297053D01*
X476033D01*
X474093Y298993D01*
X473729Y299236D01*
X473300Y299322D01*
X473300Y299322D01*
X467196D01*
X461867Y304651D01*
Y305276D01*
X462007Y305416D01*
X462687Y305416D01*
X462813Y305416D01*
X466250D01*
Y308584D01*
X465590D01*
Y329931D01*
X465590Y329931D01*
X465505Y330361D01*
X465262Y330725D01*
X465262Y330725D01*
X454722Y341265D01*
Y402124D01*
X454934Y402266D01*
X455178Y402632D01*
X455678Y402481D01*
Y349900D01*
X455678Y349900D01*
X455764Y349471D01*
X456007Y349107D01*
X483907Y321207D01*
X483907Y321207D01*
X484271Y320964D01*
X484700Y320878D01*
X484700Y320879D01*
X486524D01*
X486666Y320666D01*
X487278Y320257D01*
X488000Y320114D01*
X488722Y320257D01*
X489334Y320666D01*
X489743Y321278D01*
X489886Y322000D01*
X489743Y322722D01*
X489334Y323334D01*
X488722Y323743D01*
X488000Y323886D01*
X487278Y323743D01*
X486666Y323334D01*
X486524Y323122D01*
X485165D01*
X463041Y345245D01*
X463232Y345707D01*
X485919D01*
Y365608D01*
X475122D01*
Y374292D01*
X475122Y374292D01*
X475036Y374721D01*
X474793Y375085D01*
X474793Y375085D01*
X461699Y388178D01*
X461907Y388679D01*
X486300D01*
X486300Y388678D01*
X486729Y388764D01*
X487093Y389007D01*
X494383Y396297D01*
X507228D01*
Y395244D01*
X512772D01*
Y396297D01*
X516617D01*
X522368Y390546D01*
Y376732D01*
X522368Y376732D01*
X522453Y376303D01*
X522696Y375939D01*
X525429Y373207D01*
X525793Y372964D01*
X526222Y372878D01*
X526651Y372964D01*
X526655Y372967D01*
X529026D01*
Y371096D01*
X525108D01*
X522411Y373793D01*
X522048Y374036D01*
X521618Y374122D01*
X521618Y374121D01*
X521465D01*
X518836Y376750D01*
X518886Y377000D01*
X518743Y377722D01*
X518334Y378334D01*
X517722Y378743D01*
X517000Y378886D01*
X516278Y378743D01*
X515666Y378334D01*
X515622Y378267D01*
X515122Y378419D01*
Y387000D01*
X515036Y387429D01*
X514793Y387793D01*
X514793Y387793D01*
X513921Y388665D01*
X513557Y388908D01*
X513128Y388993D01*
X513128Y388993D01*
X498214D01*
X498214Y388993D01*
X497784Y388908D01*
X497421Y388665D01*
X497421Y388665D01*
X496776Y388020D01*
X496533Y387656D01*
X496448Y387227D01*
X496448Y387227D01*
Y387034D01*
X488250Y378836D01*
X488000Y378886D01*
X487278Y378743D01*
X486666Y378334D01*
X486257Y377722D01*
X486114Y377000D01*
X486257Y376278D01*
X486666Y375666D01*
X487278Y375257D01*
X488000Y375114D01*
X488722Y375257D01*
X489334Y375666D01*
X489743Y376278D01*
X489886Y377000D01*
X489836Y377250D01*
X498362Y385776D01*
X498362Y385776D01*
X498605Y386140D01*
X498691Y386569D01*
X499125Y386750D01*
X512664D01*
X512878Y386535D01*
Y373140D01*
X512878Y373140D01*
X512964Y372711D01*
X513207Y372347D01*
X524158Y361396D01*
X524522Y361153D01*
X524951Y361068D01*
X525380Y361153D01*
X525558Y361271D01*
X528626D01*
Y360720D01*
X531988D01*
Y359720D01*
X528626D01*
Y359285D01*
X522792D01*
X522330Y359748D01*
X521995Y359971D01*
X521600Y360050D01*
X520442D01*
X516069Y364424D01*
X516068Y364429D01*
X515824Y364793D01*
X511584Y369033D01*
Y370787D01*
X511984D01*
Y372468D01*
X510000D01*
Y372968D01*
X509500D01*
Y375149D01*
X508016D01*
Y372887D01*
X507554Y372695D01*
X506878Y373372D01*
Y378628D01*
X507931D01*
Y383372D01*
X503581D01*
Y378628D01*
X504635D01*
Y372807D01*
X504634Y372807D01*
X504720Y372378D01*
X504878Y372140D01*
Y364969D01*
X504878Y364969D01*
X504964Y364539D01*
X505207Y364176D01*
X507416Y361967D01*
Y360188D01*
X507416D01*
Y359813D01*
X507416D01*
Y356251D01*
X510584D01*
Y356910D01*
X512850D01*
Y355500D01*
X515031D01*
Y355000D01*
X515531D01*
Y353016D01*
X517212D01*
Y353416D01*
X517878D01*
Y344676D01*
X517500Y344366D01*
X517500Y344366D01*
X511372D01*
Y345419D01*
X506628D01*
Y341069D01*
X511372D01*
Y342123D01*
X517035D01*
X517878Y341280D01*
Y338350D01*
X517400D01*
Y334850D01*
X517400Y334650D01*
X517400D01*
Y334350D01*
X517400D01*
Y330650D01*
X520600D01*
Y331479D01*
X523024D01*
X523166Y331266D01*
X523778Y330857D01*
X524500Y330714D01*
X525222Y330857D01*
X525834Y331266D01*
X525976Y331479D01*
X528924D01*
X529066Y331266D01*
X529678Y330857D01*
X530400Y330714D01*
X531122Y330857D01*
X531734Y331266D01*
X531876Y331479D01*
X542715D01*
X542715Y331478D01*
X543144Y331564D01*
X543508Y331807D01*
X543608Y331907D01*
X543851Y332271D01*
X543937Y332700D01*
X543851Y333129D01*
X543848Y333134D01*
Y340526D01*
X555561D01*
Y334537D01*
X555006Y333981D01*
X554782Y333646D01*
X554703Y333251D01*
Y323889D01*
X543535Y312721D01*
X504865D01*
X502793Y314793D01*
X502429Y315036D01*
X502000Y315122D01*
X502000Y315122D01*
X500476D01*
X500334Y315334D01*
X499722Y315743D01*
X499000Y315886D01*
X498278Y315743D01*
X497666Y315334D01*
X497257Y314722D01*
X497114Y314000D01*
X497257Y313278D01*
X497666Y312666D01*
X498278Y312257D01*
X499000Y312114D01*
X499722Y312257D01*
X500334Y312666D01*
X500476Y312878D01*
X501535D01*
X503607Y310807D01*
X503607Y310807D01*
X503971Y310564D01*
X504400Y310478D01*
X539547D01*
Y307500D01*
X543500D01*
X547453D01*
Y310953D01*
X545592D01*
X545401Y311415D01*
X556530Y322544D01*
X556773Y322907D01*
X556858Y323337D01*
X556773Y323766D01*
X556770Y323770D01*
Y329067D01*
X557211Y329302D01*
X557278Y329257D01*
X558000Y329114D01*
X558722Y329257D01*
X559334Y329666D01*
X559743Y330278D01*
X559886Y331000D01*
X559743Y331722D01*
X559685Y331809D01*
Y333937D01*
X559599Y334366D01*
X559596Y334371D01*
Y338367D01*
X560096Y338574D01*
X563378Y335292D01*
Y328476D01*
X563166Y328334D01*
X562757Y327722D01*
X562614Y327000D01*
X562757Y326278D01*
X563166Y325666D01*
X563778Y325257D01*
X564500Y325114D01*
X565222Y325257D01*
X565834Y325666D01*
X566243Y326278D01*
X566386Y327000D01*
X566243Y327722D01*
X565834Y328334D01*
X565622Y328476D01*
Y335632D01*
X565536Y336061D01*
X565293Y336425D01*
X564929Y336668D01*
X564924Y336669D01*
X561567Y340026D01*
X561570Y340526D01*
X577082D01*
Y336612D01*
X576666Y336334D01*
X576257Y335722D01*
X576114Y335000D01*
X576257Y334278D01*
X576666Y333666D01*
X577278Y333257D01*
X578000Y333114D01*
X578722Y333257D01*
X579334Y333666D01*
X579743Y334278D01*
X579886Y335000D01*
X579743Y335722D01*
X579334Y336334D01*
X578918Y336612D01*
Y340526D01*
X581152D01*
Y333658D01*
X580666Y333334D01*
X580257Y332722D01*
X580114Y332000D01*
X580257Y331278D01*
X580302Y331211D01*
X580067Y330770D01*
X574711D01*
X574334Y331334D01*
X573722Y331743D01*
X573000Y331886D01*
X572278Y331743D01*
X571666Y331334D01*
X571257Y330722D01*
X571114Y330000D01*
X571257Y329278D01*
X571666Y328666D01*
X572278Y328257D01*
X573000Y328114D01*
X573722Y328257D01*
X574334Y328666D01*
X574359Y328703D01*
X584737D01*
X585132Y328782D01*
X585467Y329006D01*
X589731Y333269D01*
X589955Y333605D01*
X590033Y334000D01*
Y340610D01*
X589955Y341006D01*
X589731Y341341D01*
X588335Y342736D01*
X588582Y343197D01*
X589000Y343114D01*
X589722Y343257D01*
X590334Y343666D01*
X590743Y344278D01*
X590886Y345000D01*
X590743Y345722D01*
X590669Y345831D01*
Y349187D01*
X593767D01*
Y347850D01*
X593845Y347455D01*
X594069Y347119D01*
X595634Y345554D01*
X595564Y345200D01*
X595707Y344478D01*
X596116Y343866D01*
X596728Y343457D01*
X597450Y343314D01*
X598172Y343457D01*
X598784Y343866D01*
X599193Y344478D01*
X599336Y345200D01*
X599193Y345922D01*
X598784Y346534D01*
X598172Y346943D01*
X597450Y347086D01*
X597095Y347016D01*
X595833Y348278D01*
Y349187D01*
X595974D01*
Y353124D01*
Y357062D01*
Y361151D01*
X596474Y361154D01*
X598863Y358765D01*
X598864Y358760D01*
X599107Y358396D01*
X600878Y356624D01*
Y334476D01*
X600666Y334334D01*
X600257Y333722D01*
X600114Y333000D01*
X600257Y332278D01*
X600666Y331666D01*
X601278Y331257D01*
X602000Y331114D01*
X602722Y331257D01*
X603334Y331666D01*
X603743Y332278D01*
X603886Y333000D01*
X603743Y333722D01*
X603334Y334334D01*
X603122Y334476D01*
Y357089D01*
X603122Y357089D01*
X603036Y357518D01*
X602793Y357882D01*
X602793Y357882D01*
X600693Y359982D01*
X600329Y360225D01*
X600324Y360226D01*
X599717Y360833D01*
X600036Y361222D01*
X600121Y361165D01*
X600843Y361021D01*
X601564Y361165D01*
X602176Y361574D01*
X602585Y362186D01*
X602601Y362263D01*
X603079Y362408D01*
X604578Y360909D01*
Y319765D01*
X600535Y315722D01*
X592050D01*
Y316184D01*
X588613D01*
X588487Y316184D01*
X588113D01*
X587988Y316184D01*
X584551D01*
Y313016D01*
X585210D01*
Y308668D01*
X585210Y308668D01*
X585295Y308239D01*
X585538Y307875D01*
X587207Y306207D01*
X587207Y306207D01*
X587571Y305964D01*
X588000Y305878D01*
X602747D01*
Y302437D01*
X609853D01*
Y309542D01*
X602747D01*
Y308121D01*
X588465D01*
X587453Y309133D01*
Y312662D01*
X587807Y313016D01*
X588487Y313016D01*
X588613Y313016D01*
X592050D01*
Y313478D01*
X601000D01*
X601000Y313478D01*
X601429Y313564D01*
X601793Y313807D01*
X606493Y318507D01*
X606493Y318507D01*
X606736Y318871D01*
X606822Y319300D01*
X606822Y319300D01*
Y360057D01*
X607283Y360248D01*
X610905Y356627D01*
X610905Y356627D01*
X611269Y356383D01*
X611346Y356368D01*
X611978Y355735D01*
Y290365D01*
X610715Y289101D01*
X610253Y289292D01*
Y291710D01*
X606800D01*
Y288257D01*
X609218D01*
X609409Y287795D01*
X608535Y286922D01*
X596300D01*
X595871Y286836D01*
X595507Y286593D01*
X595507Y286593D01*
X591698Y282784D01*
X589913D01*
X589787Y282784D01*
X589413D01*
X589288Y282784D01*
X585850D01*
Y281152D01*
X576553D01*
Y283773D01*
X569447D01*
Y276668D01*
X576553D01*
Y278908D01*
X586815D01*
X586851Y278916D01*
X586887Y278911D01*
X587064Y278958D01*
X587244Y278994D01*
X587275Y279014D01*
X587310Y279024D01*
X587456Y279135D01*
X587608Y279237D01*
X587628Y279268D01*
X587657Y279290D01*
X587943Y279616D01*
X589288D01*
X589413Y279616D01*
X589787D01*
X589913Y279616D01*
X593350D01*
Y281264D01*
X596765Y284679D01*
X609000D01*
X609000Y284678D01*
X609429Y284764D01*
X609793Y285007D01*
X613893Y289107D01*
X613893Y289107D01*
X614136Y289471D01*
X614222Y289900D01*
X614222Y289900D01*
Y356200D01*
X614222Y356200D01*
X614136Y356629D01*
X613893Y356993D01*
X613893Y356993D01*
X613828Y357058D01*
X614020Y357520D01*
X615000D01*
Y360685D01*
Y363850D01*
X612504D01*
X610099Y365333D01*
Y371185D01*
X610014Y371614D01*
X609846Y371865D01*
Y374350D01*
X610335Y374378D01*
X611177D01*
X611553Y374080D01*
Y368550D01*
X619446D01*
Y368550D01*
X619742Y368672D01*
X620278Y368135D01*
Y364015D01*
X619846Y363850D01*
Y363850D01*
X616000D01*
Y360685D01*
Y357520D01*
X619846D01*
Y357520D01*
X620278Y357355D01*
Y344465D01*
X616950Y341137D01*
X616700Y341186D01*
X615978Y341043D01*
X615366Y340634D01*
X614957Y340022D01*
X614814Y339300D01*
X614957Y338578D01*
X615366Y337966D01*
X615978Y337557D01*
X616700Y337414D01*
X617422Y337557D01*
X618034Y337966D01*
X618443Y338578D01*
X618586Y339300D01*
X618536Y339550D01*
X621417Y342430D01*
X621878Y342239D01*
Y295627D01*
X599873Y273622D01*
X549933D01*
X547750Y275805D01*
Y277584D01*
X544313D01*
X544187Y277584D01*
X543813D01*
X543687Y277584D01*
X542033D01*
X540122Y279496D01*
Y288256D01*
X541533Y289668D01*
X547053D01*
Y296773D01*
X539947D01*
Y291254D01*
X538207Y289513D01*
X537964Y289150D01*
X537878Y288720D01*
X537878Y288720D01*
Y279032D01*
X537878Y279032D01*
X537964Y278602D01*
X538207Y278239D01*
X540250Y276195D01*
Y274416D01*
X543687D01*
X543813Y274416D01*
X544187D01*
X544313Y274416D01*
X545967D01*
X548675Y271707D01*
X548675Y271707D01*
X549039Y271464D01*
X549469Y271378D01*
X549469Y271378D01*
X600337D01*
X600337Y271378D01*
X600766Y271464D01*
X601130Y271707D01*
X623793Y294370D01*
X623793Y294370D01*
X624036Y294734D01*
X624122Y295163D01*
X624122Y295163D01*
Y372000D01*
X624122Y372000D01*
X624036Y372429D01*
X623793Y372793D01*
X623793Y372793D01*
X620293Y376293D01*
X620016Y376479D01*
X620063Y376884D01*
X620099Y376978D01*
X630200D01*
X630200Y376978D01*
X630629Y377064D01*
X630993Y377307D01*
X632693Y379007D01*
X632693Y379007D01*
X632936Y379371D01*
X633022Y379800D01*
Y414935D01*
X638033Y419947D01*
X642053D01*
Y427053D01*
X634947D01*
Y420033D01*
X631107Y416193D01*
X630864Y415829D01*
X630778Y415400D01*
X630778Y415400D01*
Y380265D01*
X629735Y379222D01*
X609446D01*
Y384580D01*
X606422D01*
Y389700D01*
X606422Y389700D01*
X606336Y390129D01*
X606093Y390493D01*
X606093Y390493D01*
X602108Y394478D01*
X601744Y394721D01*
X601315Y394807D01*
X600886Y394721D01*
X600881Y394718D01*
X596374D01*
Y395154D01*
X593012D01*
Y396154D01*
X596374D01*
Y396704D01*
X597015D01*
X597193Y396586D01*
X597622Y396500D01*
X598051Y396586D01*
X598415Y396829D01*
X600750Y399164D01*
X601000Y399114D01*
X601722Y399257D01*
X602334Y399666D01*
X602743Y400278D01*
X602886Y401000D01*
X602836Y401250D01*
X608793Y407207D01*
X609036Y407571D01*
X609122Y408000D01*
X609122Y408000D01*
Y417069D01*
X610372D01*
Y421025D01*
X606312D01*
X606120Y421487D01*
X607608Y422975D01*
X610372D01*
Y423831D01*
X614628D01*
Y422975D01*
X619372D01*
Y426931D01*
X614628D01*
Y426074D01*
X610372D01*
Y426931D01*
X605628D01*
Y424167D01*
X603583Y422122D01*
X564637D01*
X564637Y422122D01*
X564208Y422036D01*
X563844Y421793D01*
X563844Y421793D01*
X549896Y407845D01*
X549653Y407481D01*
X549651Y407474D01*
X543848D01*
Y411165D01*
X544149Y411366D01*
X544558Y411978D01*
X544701Y412700D01*
X544558Y413422D01*
X544149Y414034D01*
X543537Y414443D01*
X542815Y414586D01*
X542093Y414443D01*
X541481Y414034D01*
X541072Y413422D01*
X540929Y412700D01*
X541072Y411978D01*
X541481Y411366D01*
X541782Y411165D01*
Y407874D01*
X541346D01*
Y404512D01*
X540346D01*
Y407874D01*
X539911D01*
Y419447D01*
X540843Y420378D01*
X544191D01*
Y419719D01*
X547360D01*
Y421498D01*
X552740Y426878D01*
X554250D01*
Y426416D01*
X557788D01*
Y426016D01*
X559469D01*
Y428000D01*
X559969D01*
Y428500D01*
X562150D01*
Y428963D01*
X562850D01*
Y428500D01*
X565031D01*
Y428000D01*
X565531D01*
Y426016D01*
X567213D01*
Y426416D01*
X570750D01*
Y429584D01*
X570090D01*
Y430878D01*
X583524D01*
X583666Y430666D01*
X584278Y430257D01*
X585000Y430114D01*
X585722Y430257D01*
X586334Y430666D01*
X586616Y431089D01*
X586793Y431207D01*
X588793Y433207D01*
X588793Y433207D01*
X589036Y433571D01*
X589122Y434000D01*
X589122Y434000D01*
Y435416D01*
X589787D01*
Y435016D01*
X591468D01*
Y437000D01*
X591968D01*
Y437500D01*
X594150D01*
Y438984D01*
X594150D01*
X594150Y439016D01*
X594150D01*
Y440500D01*
X591968D01*
Y441000D01*
X591468D01*
Y442984D01*
X589787D01*
Y442584D01*
X589122D01*
Y448447D01*
X591553D01*
Y455553D01*
D02*
G37*
G36*
X541150Y430984D02*
X539469D01*
Y429500D01*
X541150D01*
Y430984D01*
D02*
G37*
G36*
X362500Y455921D02*
X361968Y455851D01*
X361007Y455453D01*
X360181Y454819D01*
X359547Y453993D01*
X359149Y453032D01*
X359079Y452500D01*
X362500D01*
Y455921D01*
D02*
G37*
G36*
X405500Y433142D02*
X403031D01*
Y427917D01*
X405500D01*
Y433142D01*
D02*
G37*
G36*
X523500Y429150D02*
X522016D01*
Y427468D01*
X523500D01*
Y429150D01*
D02*
G37*
G36*
X441500Y454921D02*
X440968Y454851D01*
X440007Y454453D01*
X439181Y453819D01*
X438547Y452993D01*
X438149Y452032D01*
X438079Y451500D01*
X441500D01*
Y454921D01*
D02*
G37*
G36*
X442500D02*
Y451500D01*
X445921D01*
X445851Y452032D01*
X445453Y452993D01*
X444819Y453819D01*
X443993Y454453D01*
X443032Y454851D01*
X442500Y454921D01*
D02*
G37*
G36*
X408968Y433142D02*
X406500D01*
Y427917D01*
X408968D01*
Y433142D01*
D02*
G37*
%LPD*%
G36*
X362628Y353547D02*
Y351081D01*
X367372D01*
Y352134D01*
X369335D01*
X370660Y350810D01*
X370696Y350441D01*
X370676Y350257D01*
X370635Y350165D01*
X369335Y348866D01*
X367372D01*
Y349919D01*
X362628D01*
Y345821D01*
X361827D01*
X361122Y346527D01*
Y352694D01*
X362166Y353738D01*
X362628Y353547D01*
D02*
G37*
G36*
X397529Y362577D02*
Y352424D01*
X397263Y352199D01*
X396721Y352209D01*
X396359Y352450D01*
X395933Y352535D01*
X393459D01*
X391535Y354805D01*
Y355371D01*
X392302Y356138D01*
X392373Y356152D01*
X392670Y356351D01*
X392869Y356649D01*
X392939Y357000D01*
Y358641D01*
X397066Y362769D01*
X397529Y362577D01*
D02*
G37*
G36*
X584654Y340126D02*
X585744D01*
Y340526D01*
X587313D01*
X587313Y340526D01*
Y340526D01*
X587767Y340383D01*
X587967Y340182D01*
Y334428D01*
X584390Y330851D01*
X584040Y330884D01*
X584018Y330914D01*
X583757Y331352D01*
X583886Y332000D01*
X583743Y332722D01*
X583334Y333334D01*
X583218Y333411D01*
Y340126D01*
X583654D01*
Y343488D01*
X584654D01*
Y340126D01*
D02*
G37*
G36*
X529026Y349187D02*
X534421D01*
X534465Y338531D01*
X534464Y338529D01*
X534395Y338181D01*
X530650Y334436D01*
X530400Y334486D01*
X529678Y334343D01*
X529066Y333934D01*
X528924Y333721D01*
X525976D01*
X525834Y333934D01*
X525222Y334343D01*
X524500Y334486D01*
X524057Y334398D01*
X523933Y334482D01*
X523672Y334827D01*
X523786Y335400D01*
X523643Y336122D01*
X523234Y336734D01*
X523022Y336876D01*
Y348285D01*
X524081Y349345D01*
X529026D01*
Y349187D01*
D02*
G37*
G36*
X446778Y382032D02*
Y374968D01*
X446278Y374869D01*
X446103Y375292D01*
X445534Y376034D01*
X444792Y376603D01*
X443927Y376961D01*
X443000Y377083D01*
X442072Y376961D01*
X441208Y376603D01*
X440522Y376076D01*
X440022Y376188D01*
Y380812D01*
X440522Y380924D01*
X441208Y380397D01*
X442072Y380039D01*
X443000Y379917D01*
X443927Y380039D01*
X444792Y380397D01*
X445534Y380966D01*
X446103Y381708D01*
X446278Y382131D01*
X446778Y382032D01*
D02*
G37*
G36*
X604178Y389235D02*
Y384580D01*
X601553D01*
Y379222D01*
X600170D01*
X598693Y380699D01*
X598329Y380942D01*
X597900Y381027D01*
X597471Y380942D01*
X597466Y380939D01*
X595974D01*
Y382652D01*
Y386589D01*
Y389974D01*
X596173Y390117D01*
X596474Y390211D01*
X596721Y390045D01*
X597117Y389967D01*
X598465D01*
X598666Y389666D01*
X599278Y389257D01*
X600000Y389114D01*
X600722Y389257D01*
X601334Y389666D01*
X601743Y390278D01*
X601857Y390850D01*
X602343Y391071D01*
X604178Y389235D01*
D02*
G37*
G36*
X589650Y394063D02*
X590050D01*
Y390526D01*
Y386589D01*
Y382907D01*
X589700D01*
X589305Y382829D01*
X588969Y382605D01*
X585687Y379322D01*
X585317Y379438D01*
X585187Y379555D01*
Y393197D01*
X586610Y394620D01*
X589650D01*
Y394063D01*
D02*
G37*
G36*
X540328Y371547D02*
Y363222D01*
X538934D01*
X538744Y363722D01*
X539066Y364205D01*
X539210Y364927D01*
X539066Y365648D01*
X538657Y366260D01*
X538045Y366669D01*
X537323Y366813D01*
X536969Y366742D01*
X536855Y366857D01*
X536519Y367081D01*
X536124Y367159D01*
X534950D01*
Y370124D01*
X535391Y370359D01*
X535497Y370289D01*
X536218Y370145D01*
X536940Y370289D01*
X537552Y370698D01*
X537961Y371310D01*
X538105Y372032D01*
X537961Y372753D01*
X537552Y373365D01*
X536940Y373774D01*
X536218Y373918D01*
X535497Y373774D01*
X535391Y373704D01*
X534950Y373940D01*
Y376218D01*
X535450Y376425D01*
X540328Y371547D01*
D02*
G37*
G36*
X545678Y391682D02*
Y373200D01*
X545678Y373200D01*
X545764Y372771D01*
X546007Y372407D01*
X551899Y366514D01*
X546069Y360684D01*
X545845Y360349D01*
X545767Y359954D01*
Y354682D01*
X540116Y349031D01*
X539892Y348695D01*
X539813Y348300D01*
Y346850D01*
X539256D01*
Y346450D01*
X537687D01*
Y340526D01*
X537845D01*
Y337335D01*
X537544Y337134D01*
X537135Y336522D01*
X536992Y335800D01*
X537135Y335078D01*
X537544Y334466D01*
X537910Y334222D01*
X537759Y333721D01*
X533761D01*
X533570Y334184D01*
X536293Y336907D01*
X536536Y337271D01*
X536622Y337700D01*
X536622Y337700D01*
Y338100D01*
X536536Y338529D01*
X536531Y338536D01*
X536439Y360802D01*
X536792Y361156D01*
X540939D01*
X540944Y361153D01*
X541373Y361067D01*
X541802Y361153D01*
X542166Y361396D01*
X542243Y361473D01*
X542243Y361473D01*
X542486Y361837D01*
X542572Y362266D01*
Y371887D01*
X542486Y372316D01*
X542243Y372680D01*
X541879Y372923D01*
X541874Y372924D01*
X536426Y378372D01*
X536633Y378872D01*
X539068D01*
X539073Y378869D01*
X539502Y378784D01*
X539931Y378869D01*
X540295Y379113D01*
X541640Y380457D01*
X541883Y380821D01*
X541968Y381250D01*
X541883Y381679D01*
X541880Y381684D01*
Y394827D01*
X542342Y395019D01*
X545678Y391682D01*
D02*
G37*
G36*
X526356Y418834D02*
X526164Y418372D01*
X525975D01*
Y413628D01*
X529931D01*
Y418372D01*
X529210D01*
X529209Y418378D01*
X529622Y418878D01*
X537845D01*
Y407474D01*
X537687D01*
Y405633D01*
X536735D01*
X536534Y405934D01*
X535922Y406343D01*
X535200Y406486D01*
X534478Y406343D01*
X533866Y405934D01*
X533457Y405322D01*
X533314Y404600D01*
X533457Y403878D01*
X533866Y403266D01*
X534478Y402857D01*
X535200Y402714D01*
X535922Y402857D01*
X536534Y403266D01*
X536735Y403567D01*
X537687D01*
Y401550D01*
X539256D01*
Y401150D01*
X539813D01*
Y398534D01*
X539810Y398529D01*
X539725Y398100D01*
X539810Y397671D01*
X539813Y397666D01*
Y381803D01*
X538949Y380939D01*
X535350D01*
Y381496D01*
X534950D01*
Y386589D01*
Y390526D01*
Y394463D01*
Y398813D01*
X529026D01*
Y394463D01*
Y389927D01*
X528526Y389680D01*
X528322Y389838D01*
Y396672D01*
X528322Y396672D01*
X528236Y397101D01*
X527993Y397465D01*
X527993Y397465D01*
X522522Y402936D01*
Y413628D01*
X524025D01*
Y418372D01*
X522522D01*
Y421250D01*
X523939D01*
X526356Y418834D01*
D02*
G37*
G36*
X605628Y420342D02*
Y417069D01*
X606878D01*
Y408465D01*
X601250Y402837D01*
X601000Y402886D01*
X600278Y402743D01*
X599666Y402334D01*
X599257Y401722D01*
X599114Y401000D01*
X599164Y400750D01*
X596953Y398540D01*
X595974D01*
Y398813D01*
X590050D01*
Y397244D01*
X589650D01*
Y396687D01*
X586491D01*
X586486Y396690D01*
X586057Y396775D01*
X585628Y396690D01*
X585624Y396687D01*
X582934D01*
X582929Y396690D01*
X582500Y396775D01*
X582071Y396690D01*
X581707Y396447D01*
X553423Y368163D01*
X547922Y373665D01*
Y392146D01*
X547836Y392576D01*
X547645Y392862D01*
X548033Y393181D01*
X555164Y386050D01*
X555114Y385800D01*
X555257Y385078D01*
X555666Y384466D01*
X556278Y384057D01*
X557000Y383914D01*
X557722Y384057D01*
X558334Y384466D01*
X558743Y385078D01*
X558886Y385800D01*
X558743Y386522D01*
X558334Y387134D01*
X557722Y387543D01*
X557000Y387686D01*
X556750Y387636D01*
X545817Y398569D01*
Y401550D01*
X575069D01*
Y396428D01*
X572951Y394309D01*
X572334Y394334D01*
X571722Y394743D01*
X571000Y394886D01*
X570278Y394743D01*
X569666Y394334D01*
X569257Y393722D01*
X569114Y393000D01*
X569257Y392278D01*
X569666Y391666D01*
X570278Y391257D01*
X571000Y391114D01*
X571722Y391257D01*
X572334Y391666D01*
X572535Y391967D01*
X573102D01*
X573498Y392045D01*
X573833Y392269D01*
X576833Y395269D01*
X577057Y395605D01*
X577136Y396000D01*
Y401550D01*
X587313D01*
Y405979D01*
X588091Y413504D01*
X588334Y413666D01*
X588743Y414278D01*
X588886Y415000D01*
X588743Y415722D01*
X588334Y416334D01*
X587722Y416743D01*
X587000Y416886D01*
X586278Y416743D01*
X585666Y416334D01*
X585257Y415722D01*
X585114Y415000D01*
X585257Y414278D01*
X585666Y413666D01*
X586007Y413439D01*
X585390Y407474D01*
X576970D01*
X576779Y407936D01*
X578027Y409184D01*
X578382Y409114D01*
X579104Y409257D01*
X579716Y409666D01*
X580125Y410278D01*
X580268Y411000D01*
X580125Y411722D01*
X579716Y412334D01*
X579104Y412743D01*
X578382Y412886D01*
X577660Y412743D01*
X577048Y412334D01*
X576639Y411722D01*
X576496Y411000D01*
X576566Y410645D01*
X573945Y408024D01*
X573721Y407689D01*
X573678Y407474D01*
X561565D01*
Y411465D01*
X561865Y411666D01*
X562274Y412278D01*
X562418Y413000D01*
X562274Y413722D01*
X561865Y414334D01*
X561253Y414743D01*
X560769Y414839D01*
X560593Y415369D01*
X565102Y419878D01*
X604047D01*
X604047Y419878D01*
X604476Y419964D01*
X604840Y420207D01*
X605166Y420533D01*
X605628Y420342D01*
D02*
G37*
G36*
X491557Y399220D02*
X491986Y399134D01*
X491986Y399134D01*
X507628D01*
Y398540D01*
X493919D01*
X493919Y398540D01*
X493490Y398455D01*
X493126Y398212D01*
X486381Y391467D01*
X485919Y391658D01*
Y399221D01*
X491556D01*
X491557Y399220D01*
D02*
G37*
G36*
X446778Y392032D02*
Y384968D01*
X446278Y384869D01*
X446103Y385292D01*
X445534Y386034D01*
X444792Y386603D01*
X443927Y386961D01*
X443000Y387083D01*
X442072Y386961D01*
X441208Y386603D01*
X440522Y386076D01*
X440022Y386188D01*
Y390812D01*
X440522Y390924D01*
X441208Y390397D01*
X442072Y390039D01*
X443000Y389917D01*
X443927Y390039D01*
X444792Y390397D01*
X445534Y390966D01*
X446103Y391708D01*
X446278Y392131D01*
X446778Y392032D01*
D02*
G37*
G36*
X524450Y392948D02*
Y392343D01*
X523950Y392136D01*
X517874Y398212D01*
X517510Y398455D01*
X517081Y398540D01*
X517081Y398540D01*
X512372D01*
Y402431D01*
X511122D01*
Y405623D01*
X511584Y405814D01*
X524450Y392948D01*
D02*
G37*
G36*
X446778Y372032D02*
Y364968D01*
X446278Y364869D01*
X446103Y365292D01*
X445534Y366034D01*
X444792Y366603D01*
X443927Y366961D01*
X443000Y367083D01*
X442072Y366961D01*
X441208Y366603D01*
X440522Y366076D01*
X440022Y366188D01*
Y370812D01*
X440522Y370924D01*
X441208Y370397D01*
X442072Y370039D01*
X443000Y369917D01*
X443927Y370039D01*
X444792Y370397D01*
X445534Y370966D01*
X446103Y371708D01*
X446278Y372131D01*
X446778Y372032D01*
D02*
G37*
G36*
X468006Y439360D02*
X468089Y439305D01*
X468158Y439233D01*
X476628Y433332D01*
Y431069D01*
X477317D01*
X477653Y430699D01*
X477421Y428226D01*
X460788Y411593D01*
X460545Y411229D01*
X460459Y410800D01*
X460459Y410800D01*
Y390126D01*
X459959Y389919D01*
X459522Y390356D01*
Y414063D01*
X459522Y414063D01*
X459436Y414492D01*
X459193Y414856D01*
X459193Y414856D01*
X459122Y414927D01*
Y437983D01*
X459831Y438692D01*
X460128Y438569D01*
Y438569D01*
X464872D01*
Y441842D01*
X465334Y442033D01*
X468006Y439360D01*
D02*
G37*
G36*
X529026Y351411D02*
X523962D01*
X523957Y351414D01*
X523528Y351500D01*
X523099Y351414D01*
X522735Y351171D01*
X521107Y349543D01*
X520864Y349179D01*
X520778Y348750D01*
X520778Y348750D01*
Y338776D01*
X520600Y338350D01*
X520122D01*
Y341744D01*
X520122Y341744D01*
X520122Y341744D01*
Y353416D01*
X520750D01*
Y355250D01*
X529026D01*
Y351411D01*
D02*
G37*
G36*
X586764Y354850D02*
X586714Y354600D01*
X586857Y353878D01*
X587266Y353266D01*
X587878Y352857D01*
X588196Y352794D01*
X588594Y352630D01*
X588567Y352249D01*
X588567Y352246D01*
X588570Y352231D01*
X588567Y352216D01*
X588603Y352060D01*
Y346807D01*
X588278Y346743D01*
X587813Y346431D01*
X587313Y346450D01*
X587313Y346450D01*
X587313Y346450D01*
X585744D01*
Y346850D01*
X585187D01*
Y355720D01*
X585687Y355927D01*
X586764Y354850D01*
D02*
G37*
G36*
X472878Y373827D02*
Y365608D01*
X462081D01*
Y346858D01*
X461619Y346667D01*
X457922Y350365D01*
Y388131D01*
X458384Y388322D01*
X472878Y373827D01*
D02*
G37*
G36*
X515666Y375666D02*
X516278Y375257D01*
X517000Y375114D01*
X517250Y375164D01*
X520207Y372207D01*
X520207Y372207D01*
X520571Y371964D01*
X521000Y371879D01*
X521154D01*
X523762Y369270D01*
X523801Y369244D01*
X524079Y368926D01*
X523929Y368603D01*
X523707Y368272D01*
X523564Y367550D01*
X523707Y366828D01*
X524116Y366216D01*
X524728Y365807D01*
X525450Y365664D01*
X526172Y365807D01*
X526784Y366216D01*
X527193Y366828D01*
X527239Y367061D01*
X529026D01*
Y363107D01*
X525620D01*
X515122Y373605D01*
Y375581D01*
X515622Y375733D01*
X515666Y375666D01*
D02*
G37*
G36*
X583067Y393928D02*
X583032Y393750D01*
X583117Y393321D01*
X583120Y393316D01*
Y346850D01*
X582563D01*
Y346450D01*
X581250D01*
Y346801D01*
X581171Y347197D01*
X580947Y347532D01*
X575819Y352660D01*
X575886Y353000D01*
X575743Y353722D01*
X575334Y354334D01*
X574722Y354743D01*
X574000Y354886D01*
X573278Y354743D01*
X572666Y354334D01*
X572257Y353722D01*
X572114Y353000D01*
X572257Y352278D01*
X572666Y351666D01*
X573278Y351257D01*
X574000Y351114D01*
X574369Y351187D01*
X578644Y346912D01*
X578453Y346450D01*
X553004D01*
X552812Y346912D01*
X564642Y358742D01*
X564996Y358671D01*
X565718Y358815D01*
X566330Y359224D01*
X566739Y359836D01*
X566883Y360557D01*
X566739Y361279D01*
X566330Y361891D01*
X565718Y362300D01*
X565607Y362322D01*
X565462Y362801D01*
X567145Y364484D01*
X567500Y364414D01*
X568222Y364557D01*
X568834Y364966D01*
X569243Y365578D01*
X569386Y366300D01*
X569243Y367022D01*
X568834Y367634D01*
X568222Y368043D01*
X567500Y368186D01*
X566778Y368043D01*
X566166Y367634D01*
X565757Y367022D01*
X565614Y366300D01*
X565684Y365946D01*
X548285Y348546D01*
X547785Y348753D01*
Y351299D01*
X552474Y355988D01*
X552822Y356057D01*
X553434Y356466D01*
X553843Y357078D01*
X553986Y357800D01*
X553843Y358522D01*
X553434Y359134D01*
X552822Y359543D01*
X552100Y359686D01*
X551378Y359543D01*
X550766Y359134D01*
X550357Y358522D01*
X550214Y357800D01*
X550357Y357078D01*
X550371Y357057D01*
X548295Y354981D01*
X547833Y355173D01*
Y359526D01*
X553847Y365540D01*
X553852Y365541D01*
X554216Y365784D01*
X582607Y394174D01*
X583067Y393928D01*
D02*
G37*
G36*
X508416Y368848D02*
Y367250D01*
X510195D01*
X514238Y363207D01*
X514602Y362964D01*
X514607Y362963D01*
X517955Y359615D01*
X517764Y359153D01*
X510584D01*
Y359813D01*
X510584D01*
Y360188D01*
X510584D01*
Y363750D01*
X508805D01*
X507122Y365433D01*
Y369315D01*
X507368Y369436D01*
X507622Y369470D01*
X508416Y368848D01*
D02*
G37*
G36*
X587678Y372757D02*
X588400Y372614D01*
X588467Y372559D01*
Y366226D01*
X588545Y365831D01*
X588769Y365495D01*
X588869Y365395D01*
X589205Y365171D01*
X589600Y365093D01*
X590050D01*
Y360999D01*
Y356458D01*
X589550Y356190D01*
X589322Y356343D01*
X588600Y356486D01*
X588350Y356436D01*
X587122Y357665D01*
Y372599D01*
X587563Y372835D01*
X587678Y372757D01*
D02*
G37*
D10*
X626000Y424953D02*
D03*
Y419047D02*
D03*
X617000Y424953D02*
D03*
Y419047D02*
D03*
X608000Y419047D02*
D03*
Y424953D02*
D03*
X421000Y446047D02*
D03*
Y451953D02*
D03*
X500000Y438953D02*
D03*
Y433047D02*
D03*
X462500Y446453D02*
D03*
Y440547D02*
D03*
X479000Y438953D02*
D03*
Y433047D02*
D03*
X489000Y438953D02*
D03*
Y433047D02*
D03*
D11*
X474000Y400342D02*
D03*
Y355657D02*
D03*
D12*
X376445Y351421D02*
D03*
Y349453D02*
D03*
Y347484D02*
D03*
Y345516D02*
D03*
Y343547D02*
D03*
Y341579D02*
D03*
X394555D02*
D03*
Y343547D02*
D03*
Y345516D02*
D03*
Y347484D02*
D03*
Y349453D02*
D03*
Y351421D02*
D03*
D13*
X380579Y337445D02*
D03*
X382547D02*
D03*
X384516D02*
D03*
X386484D02*
D03*
X388453D02*
D03*
X390421D02*
D03*
Y355555D02*
D03*
X388453D02*
D03*
X386484D02*
D03*
X384516D02*
D03*
X382547D02*
D03*
X380579D02*
D03*
D14*
X385500Y346500D02*
D03*
D15*
X509000Y361969D02*
D03*
Y358032D02*
D03*
X545776Y421500D02*
D03*
Y425437D02*
D03*
X524000Y423032D02*
D03*
Y426968D02*
D03*
X510000Y369031D02*
D03*
Y372968D02*
D03*
D16*
X464469Y307000D02*
D03*
X460532D02*
D03*
X495469Y298000D02*
D03*
X491532D02*
D03*
X545969Y276000D02*
D03*
X542032D02*
D03*
X591569Y281200D02*
D03*
X587632D02*
D03*
X590269Y314600D02*
D03*
X586332D02*
D03*
X588031Y437000D02*
D03*
X591968D02*
D03*
X588031Y441000D02*
D03*
X591968D02*
D03*
X568968Y428000D02*
D03*
X565031D02*
D03*
X563969Y437000D02*
D03*
X560032D02*
D03*
X556031Y428000D02*
D03*
X559969D02*
D03*
X535031Y429000D02*
D03*
X538969D02*
D03*
X515031Y355000D02*
D03*
X518968D02*
D03*
D17*
X519000Y332500D02*
D03*
Y336500D02*
D03*
D18*
X509000Y343244D02*
D03*
Y348756D02*
D03*
X365000Y347744D02*
D03*
Y353256D02*
D03*
X373000Y361244D02*
D03*
Y366756D02*
D03*
X406000Y360244D02*
D03*
Y365756D02*
D03*
X517000Y433244D02*
D03*
Y438756D02*
D03*
X453000Y446756D02*
D03*
Y441244D02*
D03*
X510000Y394744D02*
D03*
Y400256D02*
D03*
D19*
X505756Y381000D02*
D03*
X500244D02*
D03*
X383256Y372000D02*
D03*
X377744D02*
D03*
X393756D02*
D03*
X388244D02*
D03*
X387244Y405000D02*
D03*
X392756D02*
D03*
X422756Y438000D02*
D03*
X417244D02*
D03*
X396244D02*
D03*
X401756D02*
D03*
D20*
X605500Y381815D02*
D03*
Y371185D02*
D03*
X615500Y371315D02*
D03*
Y360685D02*
D03*
D21*
X478000Y307280D02*
D03*
Y293500D02*
D03*
X512717Y294000D02*
D03*
Y280220D02*
D03*
X573000Y294000D02*
D03*
Y280220D02*
D03*
X606300Y292210D02*
D03*
Y305990D02*
D03*
X543500Y307000D02*
D03*
Y293220D02*
D03*
X638500Y423500D02*
D03*
X443000D02*
D03*
D22*
X531988Y397622D02*
D03*
Y395654D02*
D03*
Y393685D02*
D03*
Y391717D02*
D03*
Y389748D02*
D03*
Y387780D02*
D03*
Y385811D02*
D03*
Y383843D02*
D03*
Y381874D02*
D03*
Y379906D02*
D03*
Y377937D02*
D03*
Y375969D02*
D03*
Y374000D02*
D03*
Y372032D02*
D03*
Y370063D02*
D03*
Y368094D02*
D03*
Y366126D02*
D03*
Y364157D02*
D03*
Y362189D02*
D03*
Y360220D02*
D03*
Y358252D02*
D03*
Y356283D02*
D03*
Y354315D02*
D03*
Y352346D02*
D03*
Y350378D02*
D03*
X593012D02*
D03*
Y352346D02*
D03*
Y354315D02*
D03*
Y356283D02*
D03*
Y358252D02*
D03*
Y360220D02*
D03*
Y362189D02*
D03*
Y364157D02*
D03*
Y366126D02*
D03*
Y368094D02*
D03*
Y370063D02*
D03*
Y372032D02*
D03*
Y374000D02*
D03*
Y375969D02*
D03*
Y377937D02*
D03*
Y379906D02*
D03*
Y381874D02*
D03*
Y383843D02*
D03*
Y385811D02*
D03*
Y387780D02*
D03*
Y389748D02*
D03*
Y391717D02*
D03*
Y393685D02*
D03*
Y395654D02*
D03*
Y397622D02*
D03*
D23*
X538878Y343488D02*
D03*
X540846D02*
D03*
X542815D02*
D03*
X544783D02*
D03*
X546752D02*
D03*
X548720D02*
D03*
X550689D02*
D03*
X552657D02*
D03*
X554626D02*
D03*
X556594D02*
D03*
X558563D02*
D03*
X560532D02*
D03*
X562500D02*
D03*
X564469D02*
D03*
X566437D02*
D03*
X568406D02*
D03*
X570374D02*
D03*
X572343D02*
D03*
X574311D02*
D03*
X576280D02*
D03*
X578248D02*
D03*
X580217D02*
D03*
X582185D02*
D03*
X584154D02*
D03*
X586122D02*
D03*
Y404512D02*
D03*
X584154D02*
D03*
X582185D02*
D03*
X580217D02*
D03*
X578248D02*
D03*
X576280D02*
D03*
X574311D02*
D03*
X572343D02*
D03*
X570374D02*
D03*
X568406D02*
D03*
X566437D02*
D03*
X564469D02*
D03*
X562500D02*
D03*
X560532D02*
D03*
X558563D02*
D03*
X556594D02*
D03*
X554626D02*
D03*
X552657D02*
D03*
X550689D02*
D03*
X548720D02*
D03*
X546752D02*
D03*
X544783D02*
D03*
X542815D02*
D03*
X540846D02*
D03*
X538878D02*
D03*
D24*
X406000Y404583D02*
D03*
D25*
X396945Y427417D02*
D03*
X406000D02*
D03*
X415055D02*
D03*
D26*
X527953Y416000D02*
D03*
X522047D02*
D03*
D27*
X608978Y364707D02*
Y371185D01*
X426000Y345500D02*
Y362000D01*
X588000Y434000D02*
Y452000D01*
X523776Y423000D02*
X529888Y429112D01*
X523776Y423000D02*
X526776Y420000D01*
X519000Y332600D02*
X524500D01*
X604047Y421000D02*
X608000Y424953D01*
X564637Y421000D02*
X604047D01*
X550689Y407052D02*
X564637Y421000D01*
X550689Y404512D02*
Y407052D01*
X566968Y434000D02*
X568968Y432000D01*
X563969Y437000D02*
X566968Y434000D01*
X563053Y430084D02*
X566968Y434000D01*
X558116Y430084D02*
X563053D01*
X556031Y428000D02*
X558116Y430084D01*
X601000Y401000D02*
X608000Y408000D01*
Y419047D01*
X617000Y419047D02*
X626000D01*
X617000Y424953D02*
X617000Y424953D01*
X608000Y424953D02*
X617000D01*
X568968Y432000D02*
X568968Y432000D01*
X568968Y432000D02*
X585000D01*
X568968D02*
X568968D01*
X569031Y432063D01*
X568968Y432000D02*
X568968Y432000D01*
X597622Y397622D02*
X601000Y401000D01*
X577000Y451000D02*
X578000Y452000D01*
X605300Y381815D02*
Y389700D01*
X601315Y393685D02*
X605300Y389700D01*
X585000Y432000D02*
X586000D01*
X588000Y434000D01*
X568968Y428000D02*
Y432000D01*
X506050Y372613D02*
X508300Y370363D01*
X505756Y372807D02*
X506000Y372563D01*
X505756Y372807D02*
Y381000D01*
X397000Y377000D02*
Y405000D01*
Y373881D02*
Y377000D01*
X397553Y377553D01*
X422000D01*
X488000Y377000D02*
X497569Y386569D01*
X453000Y440547D02*
X460100D01*
X497569Y386569D02*
Y387227D01*
X498214Y387872D01*
X513128D01*
X514000Y387000D01*
Y373140D02*
Y387000D01*
Y373140D02*
X524951Y362189D01*
X517000Y377000D02*
X521000Y373000D01*
X521618D01*
X510000Y369031D02*
X515031Y364000D01*
X508300Y370363D02*
X510000Y369031D01*
X519000Y341744D02*
Y356333D01*
X518500Y358032D02*
X519000Y357532D01*
X509000Y358032D02*
X518500D01*
X519000Y336500D02*
Y341744D01*
X506000Y364969D02*
X509000Y361969D01*
X506000Y364969D02*
Y372563D01*
X506050Y372613D01*
X521900Y348750D02*
X523528Y350378D01*
X419569Y368431D02*
X426000Y362000D01*
X398650Y368973D02*
X403677Y374000D01*
X413000D01*
X418569Y368431D01*
X419569D01*
X438900Y358500D02*
Y419400D01*
X398650Y351887D02*
Y368973D01*
X402000Y369000D02*
X403000D01*
X388646Y372000D02*
X391000Y369646D01*
Y366598D02*
Y369646D01*
X397000Y405000D02*
X398404Y406404D01*
X392756Y405000D02*
X397000D01*
X387000Y362750D02*
Y366000D01*
X390350Y365948D02*
X391000Y366598D01*
X388244Y372000D02*
X388646D01*
X388553Y358400D02*
X390350Y360197D01*
Y365948D01*
X373000Y361244D02*
X380756D01*
X373000Y366756D02*
X378244D01*
X364955Y412956D02*
X369882Y417882D01*
X364955Y367802D02*
Y412956D01*
X365000Y358158D02*
Y367757D01*
X364955Y367802D02*
X365000Y367757D01*
X378244Y366756D02*
X384995Y360005D01*
X406000Y356000D02*
Y360244D01*
X403000Y353000D02*
X406000Y356000D01*
X398404Y406404D02*
Y408541D01*
X389162Y346838D02*
X391776Y349453D01*
X403000Y369000D02*
X406000Y366000D01*
X396945Y410000D02*
X398404Y408541D01*
X443000Y316000D02*
X446000Y313000D01*
X499000Y314000D02*
X502000D01*
X504400Y311600D01*
X495469Y298000D02*
Y368969D01*
X497000Y370500D01*
X484700Y322000D02*
X488000D01*
X456800Y349900D02*
X484700Y322000D01*
X504400Y311600D02*
X544000D01*
X526776Y420000D02*
X527953Y418823D01*
Y416000D02*
Y418823D01*
X521400Y402472D02*
Y423000D01*
X517000Y427400D02*
Y433244D01*
X591600Y281100D02*
X596300Y285800D01*
X500000Y426700D02*
X511600Y415100D01*
Y407384D02*
Y415100D01*
Y407384D02*
X525572Y393412D01*
X546800Y373200D02*
Y392146D01*
Y373200D02*
X553423Y366577D01*
X582500Y395654D01*
X371584Y344700D02*
X372400Y345516D01*
X453600Y340800D02*
Y403600D01*
Y340800D02*
X464469Y329931D01*
Y307000D02*
Y329931D01*
X544783Y398017D02*
X557000Y385800D01*
X497000Y370500D02*
X501000D01*
X598900Y372032D02*
X602368Y375500D01*
X619500D01*
X623000Y372000D01*
Y295163D02*
Y372000D01*
X600337Y272500D02*
X623000Y295163D01*
X597437Y370063D02*
X599581Y367919D01*
X607200D01*
X607300Y367819D01*
X600181Y366319D02*
X600754D01*
X605700Y361373D01*
X588400Y374500D02*
X589500Y373400D01*
X599593Y364157D02*
X600843Y362907D01*
X602000Y333000D02*
Y357089D01*
X599900Y359189D02*
X602000Y357089D01*
X631900Y415400D02*
X638500Y422000D01*
X631900Y379800D02*
Y415400D01*
X630200Y378100D02*
X631900Y379800D01*
X599706Y378100D02*
X630200D01*
X597900Y379906D02*
X599706Y378100D01*
X420000Y335850D02*
Y360600D01*
X418750Y334600D02*
X420000Y335850D01*
X401979Y334600D02*
X418750D01*
X525450Y367550D02*
X525994Y368094D01*
X521618Y373000D02*
X524555Y370063D01*
X404300Y344010D02*
Y344900D01*
X401540Y341250D02*
X404300Y344010D01*
X400006Y341250D02*
X401540D01*
X564500Y327000D02*
Y335632D01*
X447900Y331600D02*
X457400Y322100D01*
X447900Y331600D02*
Y398600D01*
X443000Y403500D02*
X447900Y398600D01*
X456800Y349900D02*
Y413400D01*
X456700Y413500D02*
X456800Y413400D01*
X443000Y413500D02*
X456700D01*
X443000Y316000D02*
Y333500D01*
X438900Y419400D02*
X443000Y423500D01*
X521900Y335400D02*
Y348750D01*
X539502Y379906D02*
X540846Y381250D01*
Y398100D02*
X546800Y392146D01*
X584154Y393750D02*
X586057Y395654D01*
X525572Y379300D02*
Y393412D01*
X462500Y446453D02*
X468799Y440153D01*
X479000Y433047D01*
X473300Y298200D02*
X478000Y293500D01*
X466732Y298200D02*
X473300D01*
X460532Y304400D02*
X466732Y298200D01*
X460532Y304400D02*
Y307000D01*
X493750Y280220D02*
X512717D01*
X491532Y282439D02*
X493750Y280220D01*
X491532Y282439D02*
Y298000D01*
X369800Y347744D02*
X371509Y349453D01*
X369800Y353256D02*
X371635Y351421D01*
X615500Y371315D02*
X619185Y370815D01*
X621400Y368600D01*
Y344000D02*
Y368600D01*
X616700Y339300D02*
X621400Y344000D01*
X605300Y381815D02*
X605500D01*
X521400Y402472D02*
X527200Y396672D01*
Y389330D02*
Y396672D01*
X519000Y356333D02*
Y357532D01*
Y356333D02*
X519050Y356283D01*
X517500Y343244D02*
X519000Y341744D01*
X509000Y343244D02*
X517500D01*
X474000Y355657D02*
Y374292D01*
X460100Y440547D02*
X462500D01*
X489000Y433047D02*
X493500Y428967D01*
X510000Y412467D01*
Y400256D02*
Y412467D01*
X491986Y400256D02*
X510000D01*
X491900Y400342D02*
X491986Y400256D01*
X474000Y400342D02*
X491900D01*
X605500Y371185D02*
X608978D01*
Y364707D02*
X615500Y360685D01*
X396945Y410000D02*
Y427417D01*
X541373Y362189D02*
X541450Y362266D01*
X519000Y332500D02*
Y332600D01*
X530400D02*
X542715D01*
X542815Y332700D01*
X535500Y337700D02*
Y338100D01*
X524500Y332600D02*
X530400D01*
X541450Y362266D02*
Y371887D01*
X530400Y332600D02*
X535500Y337700D01*
X538878Y420000D02*
X540378Y421500D01*
X523489Y376732D02*
X526222Y374000D01*
X523489Y376732D02*
Y391011D01*
X517081Y397419D02*
X523489Y391011D01*
X493919Y397419D02*
X517081D01*
X486300Y389800D02*
X493919Y397419D01*
X461681Y389800D02*
X486300D01*
X461581Y389900D02*
X461681Y389800D01*
X461581Y389900D02*
Y410800D01*
X478500Y427719D01*
X479000Y433047D01*
X611880Y357420D02*
X613100Y356200D01*
X611698Y357420D02*
X611880D01*
X607300Y361818D02*
Y367819D01*
Y361818D02*
X611698Y357420D01*
X596300Y285800D02*
X609000D01*
X613100Y289900D01*
Y356200D01*
X586815Y280030D02*
X587646Y280977D01*
X573030Y280030D02*
X586815D01*
X573000Y280000D02*
X573030Y280030D01*
X549469Y272500D02*
X600337D01*
X539000Y279032D02*
X542032Y276000D01*
X539000Y279032D02*
Y288720D01*
X543500Y293220D01*
X545969Y276000D02*
X549469Y272500D01*
X605700Y319300D02*
Y361373D01*
X590269Y314600D02*
X601000D01*
X605700Y319300D01*
X586332Y308668D02*
Y314600D01*
Y308668D02*
X588000Y307000D01*
X605290D01*
X606300Y305990D01*
X384995Y360000D02*
Y360005D01*
X558563Y331563D02*
Y333937D01*
X558000Y331000D02*
X558563Y331563D01*
X544000Y311600D02*
X555737Y323337D01*
X546752Y351852D02*
X552100Y357200D01*
Y357800D01*
X530000Y429000D02*
X535031D01*
X529888Y429112D02*
X530000Y429000D01*
X526776Y420000D02*
X538878D01*
X552000Y428000D02*
X552138Y427862D01*
X552000Y428000D02*
X556031D01*
X398984Y345516D02*
X399005D01*
X399635Y346146D01*
X396244Y438000D02*
X396945Y437299D01*
Y427417D02*
Y437299D01*
X401756Y438000D02*
X417244D01*
X422756Y435118D02*
Y438000D01*
X415055Y427417D02*
X422756Y435118D01*
X407453Y451953D02*
X421000D01*
X393000Y452000D02*
X407453Y451953D01*
X421000Y439756D02*
Y446047D01*
Y439756D02*
X422756Y438000D01*
X458400Y389892D02*
X474000Y374292D01*
X458400Y389892D02*
Y414063D01*
X458000Y414463D02*
X458400Y414063D01*
X458000Y414463D02*
Y438447D01*
X460100Y440547D01*
X369882Y447562D02*
X373000Y452000D01*
X369882Y417882D02*
Y447562D01*
X356000Y347800D02*
X360600Y343200D01*
X356000Y347800D02*
Y410500D01*
X365000Y353256D02*
X369800D01*
X365000Y347744D02*
X369800D01*
X360000Y353158D02*
X365000Y358158D01*
X360000Y346063D02*
Y353158D01*
Y346063D02*
X361363Y344700D01*
X371584D01*
X356000Y410500D02*
X360000Y414500D01*
Y417000D01*
X421000Y451953D02*
X431047D01*
X432000Y451000D01*
X517000Y427400D02*
X521400Y423000D01*
X500000Y426700D02*
Y433047D01*
X489000Y438953D02*
X494094D01*
X500000Y433047D01*
X483000Y442953D02*
Y452000D01*
X479000Y438953D02*
X483000Y442953D01*
X493000Y452000D02*
X500000Y445000D01*
Y438953D02*
Y445000D01*
X586000Y357200D02*
X588600Y354600D01*
X586000Y357200D02*
Y378174D01*
X545776Y421500D02*
X552138Y427862D01*
X540378Y421500D02*
X545776D01*
D28*
X535200Y404600D02*
X538878D01*
X586122Y404512D02*
X587205Y414979D01*
X597117Y391000D02*
X600000D01*
X596400Y391717D02*
X597117Y391000D01*
X593012Y393685D02*
X601315D01*
X522365Y358252D02*
X531988D01*
X521600Y359017D02*
X522365Y358252D01*
X520014Y359017D02*
X521600D01*
X515031Y364000D02*
X520014Y359017D01*
X523528Y350378D02*
X531988D01*
X594800Y347850D02*
Y350378D01*
X546800Y359954D02*
X553423Y366577D01*
X544783Y398017D02*
Y404512D01*
X595500Y368094D02*
X597275Y366319D01*
X600181D01*
X589500Y366226D02*
Y373400D01*
Y366226D02*
X589600Y366126D01*
X593012D01*
X596900Y362189D02*
X599900Y359189D01*
X536124Y366126D02*
X537323Y364927D01*
X525994Y368094D02*
X531988D01*
X524555Y370063D02*
X531988D01*
X589600Y352246D02*
X593012Y352346D01*
X594800Y347850D02*
X597450Y345200D01*
X560532Y339600D02*
Y343488D01*
Y339600D02*
X564500Y335632D01*
X558563Y333937D02*
Y343488D01*
X589700Y381874D02*
X593012D01*
X548720Y347520D02*
X567500Y366300D01*
X538878Y335800D02*
Y343488D01*
X540846Y398100D02*
Y404512D01*
Y381250D02*
Y398100D01*
X546800Y354254D02*
Y359954D01*
X540846Y348300D02*
X546800Y354254D01*
X586057Y395654D02*
X593012D01*
X582500D02*
X586057D01*
X528903Y375969D02*
X531988D01*
X525572Y379300D02*
X528903Y375969D01*
X527200Y389330D02*
X528750Y387780D01*
X531988D01*
X519050Y356283D02*
X531988D01*
X535400Y362189D02*
X535500Y338100D01*
X542815Y332700D02*
Y343488D01*
X535400Y362189D02*
X541373D01*
X535400Y377937D02*
X541450Y371887D01*
X538878Y404512D02*
Y404600D01*
X526222Y374000D02*
X531988D01*
X556594Y334109D02*
Y343488D01*
X555737Y323337D02*
Y333251D01*
X556594Y334109D01*
X550689Y346250D02*
X564996Y360557D01*
X593012Y368094D02*
X595500D01*
X550689Y343488D02*
Y346250D01*
X593012Y379906D02*
X597900D01*
X548720Y343488D02*
Y347520D01*
X542815Y404512D02*
Y412700D01*
X538878Y404600D02*
Y420000D01*
X531988Y377937D02*
X535400D01*
X593012Y364157D02*
X599593D01*
X546752Y343488D02*
Y351852D01*
X531988Y366126D02*
X536124D01*
X593012Y372032D02*
X598900D01*
X593012Y362189D02*
X596900D01*
X531988Y372032D02*
X536218D01*
X593012Y391717D02*
X596400D01*
X593012Y370063D02*
X597437D01*
X593012Y350378D02*
X594800D01*
X531988Y379906D02*
X539502D01*
X540846Y343488D02*
Y348300D01*
X574000Y353000D02*
X574018D01*
X580217Y343488D02*
Y346801D01*
X574018Y353000D02*
X580217Y346801D01*
X584154Y343488D02*
Y393750D01*
X589600Y352246D02*
X589636Y352210D01*
X589000Y345000D02*
X589636Y345636D01*
Y352210D01*
X586122Y343488D02*
X589000Y340610D01*
Y334000D02*
Y340610D01*
X573000Y330000D02*
X573263Y329737D01*
X584737D01*
X582000Y332000D02*
X582185Y332185D01*
Y343488D01*
X584737Y329737D02*
X589000Y334000D01*
X586000Y378174D02*
X589700Y381874D01*
X560532Y404512D02*
Y413000D01*
X574311Y404512D02*
X574676Y404877D01*
Y407294D01*
X576102Y404335D02*
X576280Y404512D01*
X576102Y396000D02*
Y404335D01*
X573102Y393000D02*
X576102Y396000D01*
X571000Y393000D02*
X573102D01*
X574676Y407294D02*
X578382Y411000D01*
D29*
X397000Y364000D02*
Y373881D01*
X593012Y397622D02*
X597622D01*
X524951Y362189D02*
X531988D01*
X392021Y359021D02*
X397000Y364000D01*
X392021Y357155D02*
Y359021D01*
Y357000D02*
Y357155D01*
X370445Y355555D02*
X380579D01*
X366400Y359600D02*
X370445Y355555D01*
X366400Y359600D02*
Y368400D01*
X394555Y347484D02*
X397484D01*
X403000Y353000D01*
X394932Y349829D02*
X396593D01*
X394555Y349453D02*
X394932Y349829D01*
X396593D02*
X398650Y351887D01*
X391776Y349453D02*
X394555D01*
X390421Y355555D02*
X392021Y357155D01*
X374347Y343547D02*
X376445D01*
X374000Y343200D02*
X374347Y343547D01*
X372400Y345516D02*
X376445D01*
X395000Y341579D02*
X401979Y334600D01*
X394555Y341579D02*
X395000D01*
X394555Y345516D02*
X398984D01*
X388453Y326347D02*
Y337445D01*
Y355555D02*
Y358300D01*
X371509Y349453D02*
X376445D01*
X371635Y351421D02*
X376445D01*
X386484Y355555D02*
Y358734D01*
X390421Y354700D02*
X393200Y351421D01*
X394555D01*
X384516Y355555D02*
Y359521D01*
X382547Y355555D02*
Y359453D01*
X386484Y332484D02*
Y337445D01*
X385900Y331900D02*
X386484Y332484D01*
X385900Y327900D02*
Y331900D01*
X531988Y362189D02*
X535400D01*
X578000Y335000D02*
Y343000D01*
X394555Y343547D02*
X397709D01*
D30*
X387000Y359250D02*
Y362750D01*
X386484Y358734D02*
X387000Y359250D01*
X377744Y372000D02*
X378000D01*
X370000D02*
X377744D01*
X366400Y368400D02*
X370000Y372000D01*
X360600Y343200D02*
X374000D01*
X388453Y358300D02*
X388553Y358400D01*
X397709Y343547D02*
X400006Y341250D01*
D31*
X380756Y361244D02*
X382547Y359453D01*
X388453Y326347D02*
X389900Y324900D01*
X384516Y359521D02*
X384995Y360000D01*
D32*
X638500Y413500D02*
D03*
Y393500D02*
D03*
Y383500D02*
D03*
Y373500D02*
D03*
Y363500D02*
D03*
Y353500D02*
D03*
Y343500D02*
D03*
Y333500D02*
D03*
Y403500D02*
D03*
X443000Y413500D02*
D03*
Y393500D02*
D03*
Y383500D02*
D03*
Y373500D02*
D03*
Y363500D02*
D03*
Y353500D02*
D03*
Y343500D02*
D03*
Y333500D02*
D03*
Y403500D02*
D03*
X442000Y451000D02*
D03*
X383000Y452000D02*
D03*
X373000D02*
D03*
X363000D02*
D03*
X483000D02*
D03*
X538000D02*
D03*
X548000D02*
D03*
X558000D02*
D03*
X568000D02*
D03*
X578000D02*
D03*
D33*
X432000Y451000D02*
D03*
X393000Y452000D02*
D03*
X493000D02*
D03*
X588000D02*
D03*
D34*
X601000Y401000D02*
D03*
X587000Y415000D02*
D03*
X600000Y391000D02*
D03*
X585000Y432000D02*
D03*
X425900Y345500D02*
D03*
X422000Y377553D02*
D03*
X488000Y377000D02*
D03*
X517000D02*
D03*
X402000Y369000D02*
D03*
X387000Y366000D02*
D03*
X383335Y348665D02*
D03*
X387665D02*
D03*
X383335Y344335D02*
D03*
X387665D02*
D03*
X446000Y313000D02*
D03*
X499000Y314000D02*
D03*
X488000Y322000D02*
D03*
X542815Y412700D02*
D03*
X453600Y403600D02*
D03*
X557000Y385800D02*
D03*
X501000Y370500D02*
D03*
X588400Y374500D02*
D03*
X600843Y362907D02*
D03*
X602000Y333000D02*
D03*
X537323Y364927D02*
D03*
X420000Y360600D02*
D03*
X525450Y367550D02*
D03*
X404300Y344900D02*
D03*
X597450Y345200D02*
D03*
X564500Y327000D02*
D03*
X457400Y322100D02*
D03*
X588600Y354600D02*
D03*
X438900Y358500D02*
D03*
X567500Y366300D02*
D03*
X538878Y335800D02*
D03*
X389900Y324900D02*
D03*
X521900Y335400D02*
D03*
X536218Y372032D02*
D03*
X616700Y339300D02*
D03*
X530400Y332600D02*
D03*
X524500D02*
D03*
X535200Y404600D02*
D03*
X558000Y331000D02*
D03*
X385900Y327900D02*
D03*
X552100Y357800D02*
D03*
X564996Y360557D02*
D03*
X574000Y353000D02*
D03*
X589000Y345000D02*
D03*
X573000Y330000D02*
D03*
X582000Y332000D02*
D03*
X578000Y335000D02*
D03*
X399635Y346146D02*
D03*
X389000Y422000D02*
D03*
X360000Y417000D02*
D03*
X560532Y413000D02*
D03*
X571000Y393000D02*
D03*
X578382Y411000D02*
D03*
M02*
