G04 Layer_Color=128*
%FSLAX25Y25*%
%MOIN*%
G70*
G01*
G75*
%ADD61C,0.00200*%
D61*
X636728Y423500D02*
X640272D01*
X638500Y421728D02*
Y425272D01*
X636728Y413500D02*
X640272D01*
X638500Y411728D02*
Y415272D01*
X636728Y393500D02*
X640272D01*
X638500Y391728D02*
Y395272D01*
X636728Y383500D02*
X640272D01*
X638500Y381728D02*
Y385272D01*
X636728Y373500D02*
X640272D01*
X638500Y371728D02*
Y375272D01*
X636728Y363500D02*
X640272D01*
X638500Y361728D02*
Y365272D01*
X636728Y353500D02*
X640272D01*
X638500Y351728D02*
Y355272D01*
X636728Y343500D02*
X640272D01*
X638500Y341728D02*
Y345272D01*
X636728Y333500D02*
X640272D01*
X638500Y331728D02*
Y335272D01*
X636728Y403500D02*
X640272D01*
X638500Y401728D02*
Y405272D01*
X441228Y423500D02*
X444772D01*
X443000Y421728D02*
Y425272D01*
X441228Y413500D02*
X444772D01*
X443000Y411728D02*
Y415272D01*
X441228Y393500D02*
X444772D01*
X443000Y391728D02*
Y395272D01*
X441228Y383500D02*
X444772D01*
X443000Y381728D02*
Y385272D01*
X441228Y373500D02*
X444772D01*
X443000Y371728D02*
Y375272D01*
X441228Y363500D02*
X444772D01*
X443000Y361728D02*
Y365272D01*
X441228Y353500D02*
X444772D01*
X443000Y351728D02*
Y355272D01*
X441228Y343500D02*
X444772D01*
X443000Y341728D02*
Y345272D01*
X441228Y333500D02*
X444772D01*
X443000Y331728D02*
Y335272D01*
X441228Y403500D02*
X444772D01*
X443000Y401728D02*
Y405272D01*
X440228Y451000D02*
X443772D01*
X442000Y449228D02*
Y452772D01*
X430228Y451000D02*
X433772D01*
X432000Y449228D02*
Y452772D01*
X391228Y452000D02*
X394772D01*
X393000Y450228D02*
Y453772D01*
X381228Y452000D02*
X384772D01*
X383000Y450228D02*
Y453772D01*
X371228Y452000D02*
X374772D01*
X373000Y450228D02*
Y453772D01*
X361228Y452000D02*
X364772D01*
X363000Y450228D02*
Y453772D01*
X481228Y452000D02*
X484772D01*
X483000Y450228D02*
Y453772D01*
X491228Y452000D02*
X494772D01*
X493000Y450228D02*
Y453772D01*
X536228Y452000D02*
X539772D01*
X538000Y450228D02*
Y453772D01*
X546228Y452000D02*
X549772D01*
X548000Y450228D02*
Y453772D01*
X556228Y452000D02*
X559772D01*
X558000Y450228D02*
Y453772D01*
X566228Y452000D02*
X569772D01*
X568000Y450228D02*
Y453772D01*
X576228Y452000D02*
X579772D01*
X578000Y450228D02*
Y453772D01*
X586228Y452000D02*
X589772D01*
X588000Y450228D02*
Y453772D01*
X421250Y377553D02*
X422750D01*
X422000Y376803D02*
Y378303D01*
X487250Y377000D02*
X488750D01*
X488000Y376250D02*
Y377750D01*
X516250Y377000D02*
X517750D01*
X517000Y376250D02*
Y377750D01*
X401250Y369000D02*
X402750D01*
X402000Y368250D02*
Y369750D01*
X386250Y366000D02*
X387750D01*
X387000Y365250D02*
Y366750D01*
X382585Y348665D02*
X384085D01*
X383335Y347915D02*
Y349415D01*
X386915Y348665D02*
X388415D01*
X387665Y347915D02*
Y349415D01*
X382585Y344335D02*
X384085D01*
X383335Y343585D02*
Y345085D01*
X386915Y344335D02*
X388415D01*
X387665Y343585D02*
Y345085D01*
X445250Y313000D02*
X446750D01*
X446000Y312250D02*
Y313750D01*
X498250Y314000D02*
X499750D01*
X499000Y313250D02*
Y314750D01*
X487250Y322000D02*
X488750D01*
X488000Y321250D02*
Y322750D01*
X542065Y412700D02*
X543565D01*
X542815Y411950D02*
Y413450D01*
X452850Y403600D02*
X454350D01*
X453600Y402850D02*
Y404350D01*
X556250Y385800D02*
X557750D01*
X557000Y385050D02*
Y386550D01*
X500250Y370500D02*
X501750D01*
X501000Y369750D02*
Y371250D01*
X587650Y374500D02*
X589150D01*
X588400Y373750D02*
Y375250D01*
X600093Y362907D02*
X601593D01*
X600843Y362157D02*
Y363657D01*
X601250Y333000D02*
X602750D01*
X602000Y332250D02*
Y333750D01*
X536573Y364927D02*
X538073D01*
X537323Y364177D02*
Y365677D01*
X419250Y360600D02*
X420750D01*
X420000Y359850D02*
Y361350D01*
X524700Y367550D02*
X526200D01*
X525450Y366800D02*
Y368300D01*
X403550Y344900D02*
X405050D01*
X404300Y344150D02*
Y345650D01*
X596700Y345200D02*
X598200D01*
X597450Y344450D02*
Y345950D01*
X563750Y327000D02*
X565250D01*
X564500Y326250D02*
Y327750D01*
X456650Y322100D02*
X458150D01*
X457400Y321350D02*
Y322850D01*
X597050Y390317D02*
X598550D01*
X597800Y389567D02*
Y391067D01*
X587850Y354600D02*
X589350D01*
X588600Y353850D02*
Y355350D01*
X438150Y358500D02*
X439650D01*
X438900Y357750D02*
Y359250D01*
X566750Y366300D02*
X568250D01*
X567500Y365550D02*
Y367050D01*
X538128Y335800D02*
X539628D01*
X538878Y335050D02*
Y336550D01*
X389150Y324900D02*
X390650D01*
X389900Y324150D02*
Y325650D01*
X521150Y335400D02*
X522650D01*
X521900Y334650D02*
Y336150D01*
X535468Y372032D02*
X536968D01*
X536218Y371282D02*
Y372782D01*
X615950Y339300D02*
X617450D01*
X616700Y338550D02*
Y340050D01*
X529650Y332600D02*
X531150D01*
X530400Y331850D02*
Y333350D01*
X523750Y332600D02*
X525250D01*
X524500Y331850D02*
Y333350D01*
X534450Y404600D02*
X535950D01*
X535200Y403850D02*
Y405350D01*
X557250Y331000D02*
X558750D01*
X558000Y330250D02*
Y331750D01*
X385150Y327900D02*
X386650D01*
X385900Y327150D02*
Y328650D01*
X551350Y357800D02*
X552850D01*
X552100Y357050D02*
Y358550D01*
X564246Y360557D02*
X565746D01*
X564996Y359807D02*
Y361307D01*
X573250Y353000D02*
X574750D01*
X574000Y352250D02*
Y353750D01*
X588250Y345000D02*
X589750D01*
X589000Y344250D02*
Y345750D01*
X572250Y330000D02*
X573750D01*
X573000Y329250D02*
Y330750D01*
X581250Y332000D02*
X582750D01*
X582000Y331250D02*
Y332750D01*
X577250Y335000D02*
X578750D01*
X578000Y334250D02*
Y335750D01*
X398885Y346146D02*
X400385D01*
X399635Y345396D02*
Y346896D01*
X388250Y422000D02*
X389750D01*
X389000Y421250D02*
Y422750D01*
X359250Y417000D02*
X360750D01*
X360000Y416250D02*
Y417750D01*
X573250Y441000D02*
X574750D01*
X574000Y440250D02*
Y441750D01*
X584250Y431000D02*
X585750D01*
X585000Y430250D02*
Y431750D01*
X559782Y413000D02*
X561282D01*
X560532Y412250D02*
Y413750D01*
X570250Y393000D02*
X571750D01*
X571000Y392250D02*
Y393750D01*
X577632Y411000D02*
X579132D01*
X578382Y410250D02*
Y411750D01*
M02*
