G04 Layer_Physical_Order=1*
G04 Layer_Color=255*
%FSLAX25Y25*%
%MOIN*%
G70*
G01*
G75*
%ADD10R,0.01181X0.04724*%
%ADD11R,0.04724X0.01181*%
%ADD12R,0.06693X0.04331*%
%ADD13R,0.05906X0.05906*%
%ADD14R,0.03543X0.02756*%
%ADD15R,0.03150X0.03543*%
%ADD16R,0.03543X0.03150*%
%ADD17R,0.03937X0.09449*%
%ADD18R,0.12992X0.09449*%
%ADD19R,0.10630X0.10630*%
%ADD20O,0.00984X0.03740*%
%ADD21O,0.03740X0.00984*%
%ADD22R,0.22638X0.18701*%
%ADD23R,0.01969X0.02362*%
%ADD24R,0.02362X0.01969*%
%ADD25R,0.02000X0.02500*%
%ADD26C,0.01000*%
%ADD27C,0.00600*%
%ADD28C,0.00827*%
%ADD29C,0.00689*%
%ADD30C,0.00800*%
%ADD31R,0.05906X0.05906*%
%ADD32C,0.05906*%
%ADD33C,0.02500*%
G36*
X655000Y464000D02*
Y454000D01*
Y270000D01*
X478500D01*
X434388Y293919D01*
X350000Y339676D01*
X350000Y464000D01*
X655000Y464000D01*
D02*
G37*
%LPC*%
G36*
X375063Y412000D02*
X372988D01*
Y409728D01*
X375063D01*
Y412000D01*
D02*
G37*
G36*
X638500Y417083D02*
X637572Y416961D01*
X636708Y416603D01*
X635966Y416034D01*
X635397Y415292D01*
X635039Y414428D01*
X634917Y413500D01*
X635039Y412572D01*
X635397Y411708D01*
X635966Y410966D01*
X636708Y410397D01*
X637572Y410039D01*
X638500Y409917D01*
X639428Y410039D01*
X640292Y410397D01*
X641034Y410966D01*
X641603Y411708D01*
X641961Y412572D01*
X642083Y413500D01*
X641961Y414428D01*
X641603Y415292D01*
X641034Y416034D01*
X640292Y416603D01*
X639428Y416961D01*
X638500Y417083D01*
D02*
G37*
G36*
Y347083D02*
X637572Y346961D01*
X636708Y346603D01*
X635966Y346034D01*
X635397Y345292D01*
X635039Y344427D01*
X634917Y343500D01*
X635039Y342573D01*
X635397Y341708D01*
X635966Y340966D01*
X636708Y340397D01*
X637572Y340039D01*
X638500Y339917D01*
X639428Y340039D01*
X640292Y340397D01*
X641034Y340966D01*
X641603Y341708D01*
X641961Y342573D01*
X642083Y343500D01*
X641961Y344427D01*
X641603Y345292D01*
X641034Y346034D01*
X640292Y346603D01*
X639428Y346961D01*
X638500Y347083D01*
D02*
G37*
G36*
X371988Y412000D02*
X369913D01*
Y409728D01*
X371988D01*
Y412000D01*
D02*
G37*
G36*
X638500Y407083D02*
X637572Y406961D01*
X636708Y406603D01*
X635966Y406034D01*
X635397Y405292D01*
X635039Y404427D01*
X634917Y403500D01*
X635039Y402573D01*
X635397Y401708D01*
X635966Y400966D01*
X636708Y400397D01*
X637572Y400039D01*
X638500Y399917D01*
X639428Y400039D01*
X640292Y400397D01*
X641034Y400966D01*
X641603Y401708D01*
X641961Y402573D01*
X642083Y403500D01*
X641961Y404427D01*
X641603Y405292D01*
X641034Y406034D01*
X640292Y406603D01*
X639428Y406961D01*
X638500Y407083D01*
D02*
G37*
G36*
X405500Y410307D02*
X398504D01*
Y405083D01*
X405500D01*
Y410307D01*
D02*
G37*
G36*
X638500Y357083D02*
X637572Y356961D01*
X636708Y356603D01*
X635966Y356034D01*
X635397Y355292D01*
X635039Y354427D01*
X634917Y353500D01*
X635039Y352573D01*
X635397Y351708D01*
X635966Y350966D01*
X636708Y350397D01*
X637572Y350039D01*
X638500Y349917D01*
X639428Y350039D01*
X640292Y350397D01*
X641034Y350966D01*
X641603Y351708D01*
X641961Y352573D01*
X642083Y353500D01*
X641961Y354427D01*
X641603Y355292D01*
X641034Y356034D01*
X640292Y356603D01*
X639428Y356961D01*
X638500Y357083D01*
D02*
G37*
G36*
X408968Y426917D02*
X406500D01*
Y421693D01*
X408968D01*
Y426917D01*
D02*
G37*
G36*
X368772Y427744D02*
X366500D01*
Y425669D01*
X368772D01*
Y427744D01*
D02*
G37*
G36*
X362100D02*
X360405D01*
X360480Y427366D01*
X360978Y426622D01*
X361722Y426125D01*
X362100Y426050D01*
Y427744D01*
D02*
G37*
G36*
X405500Y426917D02*
X403031D01*
Y421693D01*
X405500D01*
Y426917D01*
D02*
G37*
G36*
X371988Y415272D02*
X369913D01*
Y413000D01*
X371988D01*
Y415272D01*
D02*
G37*
G36*
X375063D02*
X372988D01*
Y413000D01*
X375063D01*
Y415272D01*
D02*
G37*
G36*
X390421Y339936D02*
X389995Y339851D01*
X389777Y339706D01*
X389437Y339645D01*
X389097Y339706D01*
X388879Y339851D01*
X388453Y339936D01*
X388027Y339851D01*
X387809Y339706D01*
X387469Y339645D01*
X387128Y339706D01*
X386910Y339851D01*
X386484Y339936D01*
X386058Y339851D01*
X385840Y339706D01*
X385500Y339645D01*
X385160Y339706D01*
X384942Y339851D01*
X384516Y339936D01*
X384090Y339851D01*
X383872Y339706D01*
X383531Y339645D01*
X383191Y339706D01*
X382973Y339851D01*
X382547Y339936D01*
X382121Y339851D01*
X381903Y339706D01*
X381563Y339645D01*
X381223Y339706D01*
X381005Y339851D01*
X380579Y339936D01*
X380153Y339851D01*
X379791Y339610D01*
X379550Y339249D01*
X379465Y338823D01*
Y336067D01*
X379550Y335641D01*
X379791Y335279D01*
X380153Y335038D01*
X380579Y334953D01*
X381005Y335038D01*
X381223Y335184D01*
X381563Y335244D01*
X381903Y335184D01*
X382121Y335038D01*
X382547Y334953D01*
X382973Y335038D01*
X383191Y335184D01*
X383531Y335244D01*
X383872Y335184D01*
X384090Y335038D01*
X384516Y334953D01*
X384942Y335038D01*
X385067Y335121D01*
X385567Y334854D01*
Y332864D01*
X385251Y332549D01*
X385052Y332251D01*
X384982Y331900D01*
Y329512D01*
X384566Y329234D01*
X384157Y328622D01*
X384014Y327900D01*
X384157Y327178D01*
X384566Y326566D01*
X385178Y326157D01*
X385900Y326014D01*
X386622Y326157D01*
X386853Y326312D01*
X387387Y326067D01*
X387417Y325918D01*
X387660Y325554D01*
X388064Y325150D01*
X388014Y324900D01*
X388157Y324178D01*
X388566Y323566D01*
X389178Y323157D01*
X389900Y323014D01*
X390622Y323157D01*
X391234Y323566D01*
X391643Y324178D01*
X391786Y324900D01*
X391643Y325622D01*
X391234Y326234D01*
X390622Y326643D01*
X389900Y326786D01*
X389834Y326773D01*
X389416Y327136D01*
Y334824D01*
X389916Y335091D01*
X389995Y335038D01*
X390421Y334953D01*
X390847Y335038D01*
X391209Y335279D01*
X391450Y335641D01*
X391535Y336067D01*
Y338823D01*
X391450Y339249D01*
X391209Y339610D01*
X390847Y339851D01*
X390421Y339936D01*
D02*
G37*
G36*
X405500Y404083D02*
X398504D01*
Y398858D01*
X405500D01*
Y404083D01*
D02*
G37*
G36*
X396331Y374772D02*
X394256D01*
Y372500D01*
X396331D01*
Y374772D01*
D02*
G37*
G36*
X411772Y369331D02*
X409500D01*
Y367256D01*
X411772D01*
Y369331D01*
D02*
G37*
G36*
X408500D02*
X406228D01*
Y367256D01*
X408500D01*
Y369331D01*
D02*
G37*
G36*
X393256Y374772D02*
X391181D01*
Y372500D01*
X393256D01*
Y374772D01*
D02*
G37*
G36*
X638500Y377083D02*
X637572Y376961D01*
X636708Y376603D01*
X635966Y376034D01*
X635397Y375292D01*
X635039Y374427D01*
X634917Y373500D01*
X635039Y372573D01*
X635397Y371708D01*
X635966Y370966D01*
X636708Y370397D01*
X637572Y370039D01*
X638500Y369917D01*
X639428Y370039D01*
X640292Y370397D01*
X641034Y370966D01*
X641603Y371708D01*
X641961Y372573D01*
X642083Y373500D01*
X641961Y374427D01*
X641603Y375292D01*
X641034Y376034D01*
X640292Y376603D01*
X639428Y376961D01*
X638500Y377083D01*
D02*
G37*
G36*
X396331Y371500D02*
X394256D01*
Y369228D01*
X396331D01*
Y371500D01*
D02*
G37*
G36*
X385831Y374772D02*
X383756D01*
Y372000D01*
Y369228D01*
X385612D01*
X385819Y368728D01*
X384202Y367111D01*
X383958Y366747D01*
X383873Y366318D01*
X383873Y366318D01*
Y361427D01*
X383373Y361275D01*
X383334Y361334D01*
X382722Y361743D01*
X382000Y361886D01*
X381278Y361743D01*
X380666Y361334D01*
X380257Y360722D01*
X380114Y360000D01*
X380257Y359278D01*
X380666Y358666D01*
X380937Y358485D01*
X380742Y358014D01*
X380579Y358047D01*
X380153Y357962D01*
X379791Y357721D01*
X379718Y357713D01*
X378963Y358469D01*
Y368898D01*
X379693Y369628D01*
X379919D01*
Y369801D01*
X380212Y370038D01*
X380681Y369832D01*
Y369228D01*
X382756D01*
Y372000D01*
Y374772D01*
X380681D01*
Y373288D01*
X380479Y373122D01*
X379919D01*
Y374372D01*
X375569D01*
Y369628D01*
X376790D01*
X376878Y369521D01*
X376964Y369092D01*
X377037Y368983D01*
Y358134D01*
X377110Y357766D01*
X377319Y357453D01*
X377512Y357324D01*
X379465Y355371D01*
Y354177D01*
X379550Y353751D01*
X379791Y353390D01*
X380153Y353149D01*
X380579Y353064D01*
X381005Y353149D01*
X381223Y353294D01*
X381563Y353355D01*
X381903Y353294D01*
X382121Y353149D01*
X382547Y353064D01*
X382973Y353149D01*
X383191Y353294D01*
X383531Y353355D01*
X383872Y353294D01*
X384090Y353149D01*
X384516Y353064D01*
X384942Y353149D01*
X385160Y353294D01*
X385500Y353355D01*
X385840Y353294D01*
X386058Y353149D01*
X386484Y353064D01*
X386910Y353149D01*
X387128Y353294D01*
X387469Y353355D01*
X387809Y353294D01*
X388027Y353149D01*
X388453Y353064D01*
X388879Y353149D01*
X389097Y353294D01*
X389437Y353355D01*
X389777Y353294D01*
X389995Y353149D01*
X390273Y353093D01*
X390398Y352915D01*
X390174Y352457D01*
X390117Y352415D01*
X379585D01*
Y340585D01*
X391415D01*
Y348149D01*
X391915Y348398D01*
X392130Y348235D01*
X392184Y347963D01*
X392148Y347910D01*
X392064Y347484D01*
X392148Y347058D01*
X392294Y346840D01*
X392355Y346500D01*
X392294Y346160D01*
X392148Y345942D01*
X392064Y345516D01*
X392148Y345090D01*
X392294Y344872D01*
X392355Y344531D01*
X392294Y344191D01*
X392148Y343973D01*
X392064Y343547D01*
X392148Y343121D01*
X392294Y342903D01*
X392355Y342563D01*
X392294Y342223D01*
X392148Y342005D01*
X392064Y341579D01*
X392148Y341153D01*
X392390Y340791D01*
X392751Y340550D01*
X393177Y340465D01*
X394752D01*
X400917Y334300D01*
X400943Y334171D01*
X401186Y333807D01*
X401550Y333564D01*
X401979Y333478D01*
X418750D01*
X418750Y333478D01*
X419179Y333564D01*
X419543Y333807D01*
X420793Y335057D01*
X420793Y335057D01*
X421036Y335421D01*
X421122Y335850D01*
X421122Y335850D01*
Y359124D01*
X421334Y359266D01*
X421743Y359878D01*
X421886Y360600D01*
X421743Y361322D01*
X421334Y361934D01*
X420722Y362343D01*
X420000Y362486D01*
X419278Y362343D01*
X418666Y361934D01*
X418257Y361322D01*
X418114Y360600D01*
X418257Y359878D01*
X418666Y359266D01*
X418878Y359124D01*
Y336315D01*
X418285Y335721D01*
X414149D01*
X413938Y336222D01*
X414243Y336678D01*
X414386Y337400D01*
X414243Y338122D01*
X413834Y338734D01*
X413222Y339143D01*
X412522Y339282D01*
Y343156D01*
X412522Y343156D01*
X412436Y343585D01*
X412193Y343949D01*
X412193Y343949D01*
X412093Y344049D01*
X411729Y344292D01*
X411300Y344378D01*
X410872Y344592D01*
Y345431D01*
X406128D01*
X406055Y345561D01*
X406043Y345622D01*
X405634Y346234D01*
X405634Y346234D01*
X405614Y346254D01*
X405372Y346569D01*
Y350919D01*
X400628D01*
Y349768D01*
X400282Y349537D01*
X400282Y349537D01*
X399193Y348447D01*
X397578D01*
X397354Y348947D01*
X397355Y348953D01*
X394555D01*
Y349953D01*
X397355D01*
X397339Y350035D01*
X397009Y350529D01*
X396927Y350942D01*
X396962Y350995D01*
X397047Y351421D01*
X396962Y351847D01*
X396721Y352209D01*
X396359Y352450D01*
X395933Y352535D01*
X394065D01*
X393938Y353035D01*
X394434Y353366D01*
X394843Y353978D01*
X394986Y354700D01*
X394843Y355422D01*
X394434Y356034D01*
X393822Y356443D01*
X393100Y356586D01*
X392378Y356443D01*
X392035Y356213D01*
X391597Y356447D01*
X391540Y356944D01*
X391944Y357437D01*
X395761D01*
X395871Y357364D01*
X396300Y357278D01*
X396729Y357364D01*
X397093Y357607D01*
X398693Y359207D01*
X398693Y359207D01*
X398936Y359571D01*
X399022Y360000D01*
X399022Y360000D01*
Y362344D01*
X399022Y362344D01*
X398936Y362773D01*
X398693Y363137D01*
X398693Y363137D01*
X393064Y368766D01*
X393255Y369228D01*
X393256D01*
Y371500D01*
X391181D01*
Y371432D01*
X390712Y371227D01*
X390419Y371464D01*
Y374372D01*
X386069D01*
X385831Y374772D01*
D02*
G37*
G36*
X638500Y397083D02*
X637572Y396961D01*
X636708Y396603D01*
X635966Y396034D01*
X635397Y395292D01*
X635039Y394427D01*
X634917Y393500D01*
X635039Y392573D01*
X635397Y391708D01*
X635966Y390966D01*
X636708Y390397D01*
X637572Y390039D01*
X638500Y389917D01*
X639428Y390039D01*
X640292Y390397D01*
X641034Y390966D01*
X641603Y391708D01*
X641961Y392573D01*
X642083Y393500D01*
X641961Y394427D01*
X641603Y395292D01*
X641034Y396034D01*
X640292Y396603D01*
X639428Y396961D01*
X638500Y397083D01*
D02*
G37*
G36*
X604547Y451274D02*
X604547Y451274D01*
X525303D01*
X524874Y451189D01*
X524510Y450946D01*
X524510Y450946D01*
X520607Y447043D01*
X520364Y446679D01*
X520278Y446250D01*
X520278Y446250D01*
Y402472D01*
X520278Y402472D01*
X520364Y402043D01*
X520607Y401679D01*
X526078Y396207D01*
Y395145D01*
X525617Y394954D01*
X516822Y403749D01*
Y411000D01*
X516736Y411429D01*
X516493Y411793D01*
X516493Y411793D01*
X505422Y422865D01*
Y439535D01*
X505673Y439787D01*
X506128Y439939D01*
Y439939D01*
X506128Y439939D01*
X510872D01*
Y443895D01*
X506128D01*
Y443039D01*
X503700D01*
X499493Y447246D01*
X499129Y447489D01*
X498700Y447574D01*
X498700Y447574D01*
X495872D01*
Y448431D01*
X491128D01*
Y444475D01*
X495872D01*
Y445331D01*
X498235D01*
X502442Y441124D01*
X502442Y441124D01*
X502806Y440881D01*
X502946Y440853D01*
X503055Y440707D01*
X503237Y440339D01*
X503237Y440296D01*
X503178Y440000D01*
X503178Y440000D01*
Y422400D01*
X503178Y422400D01*
X503264Y421971D01*
X503507Y421607D01*
X514578Y410535D01*
Y403284D01*
X514578Y403284D01*
X514664Y402855D01*
X514907Y402491D01*
X524450Y392948D01*
Y392343D01*
X523950Y392136D01*
X517874Y398212D01*
X517510Y398455D01*
X517081Y398540D01*
X517081Y398540D01*
X512372D01*
Y402431D01*
X511122D01*
Y412467D01*
X511036Y412897D01*
X510793Y413261D01*
X510793Y413261D01*
X494622Y429432D01*
Y438569D01*
X495872D01*
Y442525D01*
X491128D01*
Y438569D01*
X492378D01*
Y428968D01*
X492378Y428967D01*
X492464Y428538D01*
X492707Y428174D01*
X508878Y412003D01*
Y402431D01*
X507628D01*
Y401378D01*
X492331D01*
X492329Y401379D01*
X491900Y401464D01*
X491900Y401464D01*
X485919D01*
Y410293D01*
X463367D01*
X463160Y410793D01*
X479293Y426926D01*
X479293Y426926D01*
X479536Y427290D01*
X479622Y427719D01*
Y438175D01*
X480872D01*
Y442131D01*
X476128D01*
Y441275D01*
X469264D01*
X464872Y445667D01*
Y448431D01*
X460128D01*
Y444475D01*
X462892D01*
X464380Y442987D01*
X464188Y442525D01*
X460128D01*
Y441669D01*
X446872D01*
Y442722D01*
X442128D01*
Y438372D01*
X446872D01*
Y439426D01*
X458859D01*
Y388311D01*
X458859Y388311D01*
X458945Y387882D01*
X459188Y387518D01*
X472878Y373827D01*
Y365608D01*
X462081D01*
Y346858D01*
X461619Y346667D01*
X457922Y350365D01*
Y413400D01*
X457922Y413400D01*
X457836Y413829D01*
X457593Y414193D01*
X457593Y414193D01*
X457493Y414293D01*
X457129Y414536D01*
X456700Y414622D01*
X456700Y414622D01*
X446381D01*
X446103Y415292D01*
X445534Y416034D01*
X444792Y416603D01*
X443927Y416961D01*
X443000Y417083D01*
X442072Y416961D01*
X441208Y416603D01*
X440522Y416076D01*
X440022Y416188D01*
Y418935D01*
X441033Y419947D01*
X446553D01*
Y427053D01*
X439447D01*
Y421533D01*
X438107Y420193D01*
X437864Y419829D01*
X437778Y419400D01*
X437778Y419400D01*
Y359976D01*
X437566Y359834D01*
X437157Y359222D01*
X437014Y358500D01*
X437157Y357778D01*
X437566Y357166D01*
X438178Y356757D01*
X438900Y356614D01*
X439622Y356757D01*
X440234Y357166D01*
X440643Y357778D01*
X440786Y358500D01*
X440643Y359222D01*
X440234Y359834D01*
X440022Y359976D01*
Y360812D01*
X440522Y360924D01*
X441208Y360397D01*
X442072Y360039D01*
X443000Y359917D01*
X443927Y360039D01*
X444792Y360397D01*
X445534Y360966D01*
X446103Y361708D01*
X446278Y362131D01*
X446778Y362032D01*
Y354968D01*
X446278Y354869D01*
X446103Y355292D01*
X445534Y356034D01*
X444792Y356603D01*
X443927Y356961D01*
X443000Y357083D01*
X442072Y356961D01*
X441208Y356603D01*
X440466Y356034D01*
X439897Y355292D01*
X439539Y354427D01*
X439417Y353500D01*
X439539Y352573D01*
X439897Y351708D01*
X440466Y350966D01*
X441208Y350397D01*
X442072Y350039D01*
X443000Y349917D01*
X443927Y350039D01*
X444792Y350397D01*
X445534Y350966D01*
X446103Y351708D01*
X446278Y352131D01*
X446778Y352032D01*
Y344968D01*
X446278Y344869D01*
X446103Y345292D01*
X445534Y346034D01*
X444792Y346603D01*
X443927Y346961D01*
X443000Y347083D01*
X442072Y346961D01*
X441208Y346603D01*
X440466Y346034D01*
X439897Y345292D01*
X439539Y344427D01*
X439417Y343500D01*
X439539Y342573D01*
X439897Y341708D01*
X440466Y340966D01*
X441208Y340397D01*
X442072Y340039D01*
X443000Y339917D01*
X443927Y340039D01*
X444792Y340397D01*
X445534Y340966D01*
X446103Y341708D01*
X446278Y342131D01*
X446778Y342032D01*
Y334968D01*
X446278Y334869D01*
X446103Y335292D01*
X445534Y336034D01*
X444792Y336603D01*
X443927Y336961D01*
X443000Y337083D01*
X442072Y336961D01*
X441208Y336603D01*
X440466Y336034D01*
X439897Y335292D01*
X439539Y334427D01*
X439417Y333500D01*
X439539Y332573D01*
X439897Y331708D01*
X440466Y330966D01*
X441208Y330397D01*
X441878Y330119D01*
Y311300D01*
X441878Y311300D01*
X441964Y310871D01*
X442207Y310507D01*
X477407Y275307D01*
X477407Y275307D01*
X477771Y275064D01*
X478200Y274978D01*
X478200Y274978D01*
X517200D01*
X517200Y274978D01*
X517629Y275064D01*
X517993Y275307D01*
X519393Y276707D01*
X519393Y276707D01*
X519636Y277071D01*
X519722Y277500D01*
X519722Y277500D01*
Y309735D01*
X520465Y310478D01*
X539547D01*
Y307500D01*
X543500D01*
X547453D01*
Y310953D01*
X545592D01*
X545401Y311415D01*
X556530Y322544D01*
X556773Y322907D01*
X556858Y323337D01*
X556773Y323766D01*
X556770Y323770D01*
Y329067D01*
X557211Y329302D01*
X557278Y329257D01*
X558000Y329114D01*
X558722Y329257D01*
X559334Y329666D01*
X559743Y330278D01*
X559886Y331000D01*
X559743Y331722D01*
X559685Y331809D01*
Y333937D01*
X559599Y334366D01*
X559596Y334371D01*
Y338367D01*
X560096Y338574D01*
X563378Y335292D01*
Y328476D01*
X563166Y328334D01*
X562757Y327722D01*
X562614Y327000D01*
X562757Y326278D01*
X563166Y325666D01*
X563778Y325257D01*
X564500Y325114D01*
X565222Y325257D01*
X565834Y325666D01*
X566243Y326278D01*
X566386Y327000D01*
X566243Y327722D01*
X565834Y328334D01*
X565622Y328476D01*
Y335632D01*
X565536Y336061D01*
X565293Y336425D01*
X564929Y336668D01*
X564924Y336669D01*
X561567Y340026D01*
X561570Y340526D01*
X577082D01*
Y336612D01*
X576666Y336334D01*
X576257Y335722D01*
X576114Y335000D01*
X576257Y334278D01*
X576666Y333666D01*
X577278Y333257D01*
X578000Y333114D01*
X578722Y333257D01*
X579334Y333666D01*
X579743Y334278D01*
X579886Y335000D01*
X579743Y335722D01*
X579334Y336334D01*
X578918Y336612D01*
Y340526D01*
X581152D01*
Y333658D01*
X580666Y333334D01*
X580257Y332722D01*
X580114Y332000D01*
X580257Y331278D01*
X580302Y331211D01*
X580067Y330770D01*
X574711D01*
X574334Y331334D01*
X573722Y331743D01*
X573000Y331886D01*
X572278Y331743D01*
X571666Y331334D01*
X571257Y330722D01*
X571114Y330000D01*
X571257Y329278D01*
X571666Y328666D01*
X572278Y328257D01*
X573000Y328114D01*
X573722Y328257D01*
X574334Y328666D01*
X574359Y328703D01*
X584737D01*
X585132Y328782D01*
X585467Y329006D01*
X589731Y333269D01*
X589955Y333605D01*
X590033Y334000D01*
Y340610D01*
X589955Y341006D01*
X589731Y341341D01*
X588335Y342736D01*
X588582Y343197D01*
X589000Y343114D01*
X589722Y343257D01*
X590334Y343666D01*
X590743Y344278D01*
X590886Y345000D01*
X590743Y345722D01*
X590669Y345831D01*
Y349187D01*
X593767D01*
Y347850D01*
X593845Y347455D01*
X594069Y347119D01*
X595634Y345554D01*
X595564Y345200D01*
X595707Y344478D01*
X596116Y343866D01*
X596728Y343457D01*
X597450Y343314D01*
X598172Y343457D01*
X598784Y343866D01*
X599193Y344478D01*
X599336Y345200D01*
X599193Y345922D01*
X598784Y346534D01*
X598172Y346943D01*
X597450Y347086D01*
X597095Y347016D01*
X595833Y348278D01*
Y349187D01*
X595974D01*
Y353124D01*
Y357062D01*
Y361151D01*
X596474Y361154D01*
X598863Y358765D01*
X598864Y358760D01*
X599107Y358396D01*
X600878Y356624D01*
Y334476D01*
X600666Y334334D01*
X600257Y333722D01*
X600114Y333000D01*
X600257Y332278D01*
X600666Y331666D01*
X601278Y331257D01*
X602000Y331114D01*
X602722Y331257D01*
X603334Y331666D01*
X603743Y332278D01*
X603886Y333000D01*
X603743Y333722D01*
X603334Y334334D01*
X603122Y334476D01*
Y357089D01*
X603122Y357089D01*
X603036Y357518D01*
X602793Y357882D01*
X602793Y357882D01*
X600693Y359982D01*
X600329Y360225D01*
X600324Y360226D01*
X599717Y360833D01*
X600036Y361222D01*
X600121Y361165D01*
X600843Y361021D01*
X601564Y361165D01*
X602176Y361574D01*
X602585Y362186D01*
X602601Y362263D01*
X603079Y362408D01*
X604578Y360909D01*
Y319765D01*
X600535Y315722D01*
X592050D01*
Y316184D01*
X588613D01*
X588487Y316184D01*
X588113D01*
X587988Y316184D01*
X584551D01*
Y313016D01*
X585210D01*
Y308668D01*
X585210Y308668D01*
X585295Y308239D01*
X585538Y307875D01*
X587207Y306207D01*
X587207Y306207D01*
X587571Y305964D01*
X588000Y305878D01*
X602747D01*
Y302437D01*
X609853D01*
Y309542D01*
X602747D01*
Y308121D01*
X588465D01*
X587453Y309133D01*
Y312662D01*
X587807Y313016D01*
X588487Y313016D01*
X588613Y313016D01*
X592050D01*
Y313478D01*
X601000D01*
X601000Y313478D01*
X601429Y313564D01*
X601793Y313807D01*
X606493Y318507D01*
X606493Y318507D01*
X606736Y318871D01*
X606822Y319300D01*
X606822Y319300D01*
Y360057D01*
X607283Y360248D01*
X610905Y356627D01*
X610905Y356627D01*
X611269Y356383D01*
X611346Y356368D01*
X611978Y355735D01*
Y290365D01*
X610715Y289101D01*
X610253Y289292D01*
Y291710D01*
X606800D01*
Y288257D01*
X609218D01*
X609409Y287795D01*
X608535Y286922D01*
X596300D01*
X595871Y286836D01*
X595507Y286593D01*
X595507Y286593D01*
X591698Y282784D01*
X589913D01*
X589787Y282784D01*
X589413D01*
X589288Y282784D01*
X585850D01*
Y281152D01*
X576553D01*
Y283773D01*
X574468D01*
X574316Y284273D01*
X574622Y284478D01*
X575119Y285222D01*
X575195Y285600D01*
X570805D01*
X570881Y285222D01*
X571378Y284478D01*
X571684Y284273D01*
X571532Y283773D01*
X569447D01*
Y276668D01*
X576553D01*
Y278908D01*
X586815D01*
X586851Y278916D01*
X586887Y278911D01*
X587064Y278958D01*
X587244Y278994D01*
X587275Y279014D01*
X587310Y279024D01*
X587456Y279135D01*
X587608Y279237D01*
X587628Y279268D01*
X587657Y279290D01*
X587943Y279616D01*
X589288D01*
X589413Y279616D01*
X589787D01*
X589913Y279616D01*
X593350D01*
Y281264D01*
X596765Y284679D01*
X609000D01*
X609000Y284678D01*
X609429Y284764D01*
X609793Y285007D01*
X613893Y289107D01*
X613893Y289107D01*
X614136Y289471D01*
X614222Y289900D01*
X614222Y289900D01*
Y356200D01*
X614222Y356200D01*
X614136Y356629D01*
X613893Y356993D01*
X613893Y356993D01*
X613828Y357058D01*
X614020Y357520D01*
X615000D01*
Y360685D01*
Y363850D01*
X612504D01*
X610099Y365333D01*
Y371185D01*
X610014Y371614D01*
X609846Y371865D01*
Y374350D01*
X610335Y374378D01*
X611177D01*
X611553Y374080D01*
Y368550D01*
X619446D01*
Y368550D01*
X619742Y368672D01*
X620278Y368135D01*
Y364015D01*
X619846Y363850D01*
Y363850D01*
X616000D01*
Y360685D01*
Y357520D01*
X619846D01*
Y357520D01*
X620278Y357355D01*
Y344465D01*
X616950Y341137D01*
X616700Y341186D01*
X615978Y341043D01*
X615366Y340634D01*
X614957Y340022D01*
X614814Y339300D01*
X614957Y338578D01*
X615366Y337966D01*
X615978Y337557D01*
X616700Y337414D01*
X617422Y337557D01*
X618034Y337966D01*
X618443Y338578D01*
X618586Y339300D01*
X618536Y339550D01*
X621417Y342430D01*
X621878Y342239D01*
Y295627D01*
X599873Y273622D01*
X549933D01*
X547750Y275805D01*
Y277584D01*
X544313D01*
X544187Y277584D01*
X543813D01*
X543687Y277584D01*
X542033D01*
X540122Y279496D01*
Y288256D01*
X541533Y289668D01*
X547053D01*
Y296773D01*
X539947D01*
Y291254D01*
X538207Y289513D01*
X537964Y289150D01*
X537878Y288720D01*
X537878Y288720D01*
Y279032D01*
X537878Y279032D01*
X537964Y278602D01*
X538207Y278239D01*
X540250Y276195D01*
Y274416D01*
X543687D01*
X543813Y274416D01*
X544187D01*
X544313Y274416D01*
X545967D01*
X548675Y271707D01*
X548675Y271707D01*
X549039Y271464D01*
X549469Y271378D01*
X549469Y271378D01*
X600337D01*
X600337Y271378D01*
X600766Y271464D01*
X601130Y271707D01*
X623793Y294370D01*
X623793Y294370D01*
X624036Y294734D01*
X624122Y295163D01*
X624122Y295163D01*
Y372000D01*
X624122Y372000D01*
X624036Y372429D01*
X623793Y372793D01*
X623793Y372793D01*
X620293Y376293D01*
X620016Y376479D01*
X620063Y376884D01*
X620099Y376978D01*
X630200D01*
X630200Y376978D01*
X630629Y377064D01*
X630993Y377307D01*
X632693Y379007D01*
X632693Y379007D01*
X632936Y379371D01*
X633022Y379800D01*
Y414935D01*
X638033Y419947D01*
X642053D01*
Y427053D01*
X634947D01*
Y420033D01*
X631107Y416193D01*
X630864Y415829D01*
X630778Y415400D01*
X630778Y415400D01*
Y380265D01*
X629735Y379222D01*
X609446D01*
Y384580D01*
X606422D01*
Y386785D01*
X606336Y387214D01*
X606093Y387578D01*
X606093Y387578D01*
X599193Y394478D01*
X598829Y394721D01*
X598400Y394807D01*
X597971Y394721D01*
X597966Y394718D01*
X595974D01*
Y396500D01*
X602400D01*
X602400Y396500D01*
X602829Y396586D01*
X602902Y396635D01*
X609628D01*
Y395581D01*
X613778D01*
Y394419D01*
X609628D01*
Y390069D01*
X614372D01*
Y390908D01*
X614800Y391122D01*
X615229Y391208D01*
X615593Y391451D01*
X615693Y391551D01*
X615693Y391551D01*
X615936Y391915D01*
X616022Y392344D01*
X616022Y392344D01*
Y432500D01*
Y439800D01*
X616022Y439800D01*
X615936Y440229D01*
X615693Y440593D01*
X605340Y450946D01*
X604976Y451189D01*
X604547Y451274D01*
D02*
G37*
G36*
X405372Y356431D02*
X400628D01*
Y355378D01*
X399405D01*
X399234Y355634D01*
X398622Y356043D01*
X397900Y356186D01*
X397178Y356043D01*
X396566Y355634D01*
X396157Y355022D01*
X396014Y354300D01*
X396157Y353578D01*
X396566Y352966D01*
X397178Y352557D01*
X397900Y352414D01*
X398622Y352557D01*
X399234Y352966D01*
X399346Y353134D01*
X400628D01*
Y352081D01*
X405372D01*
Y356431D01*
D02*
G37*
G36*
X638500Y367083D02*
X637572Y366961D01*
X636708Y366603D01*
X635966Y366034D01*
X635397Y365292D01*
X635039Y364427D01*
X634917Y363500D01*
X635039Y362573D01*
X635397Y361708D01*
X635966Y360966D01*
X636708Y360397D01*
X637572Y360039D01*
X638500Y359917D01*
X639428Y360039D01*
X640292Y360397D01*
X641034Y360966D01*
X641603Y361708D01*
X641961Y362573D01*
X642083Y363500D01*
X641961Y364427D01*
X641603Y365292D01*
X641034Y366034D01*
X640292Y366603D01*
X639428Y366961D01*
X638500Y367083D01*
D02*
G37*
G36*
X411772Y366256D02*
X409500D01*
Y364181D01*
X411772D01*
Y366256D01*
D02*
G37*
G36*
X638500Y387083D02*
X637572Y386961D01*
X636708Y386603D01*
X635966Y386034D01*
X635397Y385292D01*
X635039Y384427D01*
X634917Y383500D01*
X635039Y382573D01*
X635397Y381708D01*
X635966Y380966D01*
X636708Y380397D01*
X637572Y380039D01*
X638500Y379917D01*
X639428Y380039D01*
X640292Y380397D01*
X641034Y380966D01*
X641603Y381708D01*
X641961Y382573D01*
X642083Y383500D01*
X641961Y384427D01*
X641603Y385292D01*
X641034Y386034D01*
X640292Y386603D01*
X639428Y386961D01*
X638500Y387083D01*
D02*
G37*
G36*
X408500Y366256D02*
X406228D01*
Y364181D01*
X408500D01*
Y366256D01*
D02*
G37*
G36*
X480872Y448037D02*
X476128D01*
Y444081D01*
X480872D01*
Y448037D01*
D02*
G37*
G36*
X637500Y447921D02*
X636968Y447851D01*
X636007Y447453D01*
X635181Y446819D01*
X634547Y445993D01*
X634149Y445032D01*
X634079Y444500D01*
X637500D01*
Y447921D01*
D02*
G37*
G36*
X638500D02*
Y444500D01*
X641921D01*
X641851Y445032D01*
X641453Y445993D01*
X640819Y446819D01*
X639993Y447453D01*
X639032Y447851D01*
X638500Y447921D01*
D02*
G37*
G36*
X447272Y445559D02*
X445000D01*
Y443484D01*
X447272D01*
Y445559D01*
D02*
G37*
G36*
X572500Y297953D02*
X569047D01*
Y294500D01*
X572500D01*
Y297953D01*
D02*
G37*
G36*
X610253Y296163D02*
X606800D01*
Y292710D01*
X610253D01*
Y296163D01*
D02*
G37*
G36*
X444000Y445559D02*
X441728D01*
Y443484D01*
X444000D01*
Y445559D01*
D02*
G37*
G36*
X605800Y296163D02*
X602347D01*
Y292710D01*
X605800D01*
Y296163D01*
D02*
G37*
G36*
X444000Y448634D02*
X441728D01*
Y446559D01*
X444000D01*
Y448634D01*
D02*
G37*
G36*
X447272D02*
X445000D01*
Y446559D01*
X447272D01*
Y448634D01*
D02*
G37*
G36*
X416950Y459872D02*
X416950Y459872D01*
X364350D01*
X364350Y459872D01*
X363921Y459786D01*
X363557Y459543D01*
X363557Y459543D01*
X362307Y458293D01*
X362064Y457929D01*
X361978Y457500D01*
X361979Y457500D01*
Y431100D01*
X361978Y431100D01*
X362012Y430931D01*
X361722Y430364D01*
X360978Y429866D01*
X360480Y429122D01*
X360405Y428744D01*
X362600D01*
Y428244D01*
X363100D01*
Y425786D01*
X363228Y425681D01*
Y425669D01*
X365500D01*
Y428244D01*
X366000D01*
Y428744D01*
X368772D01*
Y429878D01*
X369535D01*
X371707Y427707D01*
X371707Y427707D01*
X372071Y427464D01*
X372500Y427378D01*
X376628D01*
Y426522D01*
X380229D01*
X380436Y426022D01*
X377207Y422793D01*
X376964Y422429D01*
X376878Y422000D01*
X376878Y422000D01*
Y414872D01*
X375825D01*
Y410128D01*
X376878D01*
Y400876D01*
X376666Y400734D01*
X376257Y400122D01*
X376114Y399400D01*
X376257Y398678D01*
X376666Y398066D01*
X376878Y397924D01*
Y392365D01*
X372950Y388437D01*
X372700Y388486D01*
X371978Y388343D01*
X371366Y387934D01*
X370957Y387322D01*
X370814Y386600D01*
X370957Y385878D01*
X371366Y385266D01*
X371978Y384857D01*
X372700Y384714D01*
X373422Y384857D01*
X374034Y385266D01*
X374443Y385878D01*
X374586Y386600D01*
X374536Y386850D01*
X378793Y391107D01*
X378793Y391107D01*
X379036Y391471D01*
X379121Y391900D01*
Y397924D01*
X379334Y398066D01*
X379743Y398678D01*
X379886Y399400D01*
X379743Y400122D01*
X379334Y400734D01*
X379121Y400876D01*
Y410128D01*
X380175D01*
Y414872D01*
X379121D01*
Y421535D01*
X382793Y425207D01*
X382793Y425207D01*
X382878Y425335D01*
X383379Y425183D01*
Y386665D01*
X362084Y365370D01*
X361621Y365561D01*
Y413524D01*
X361834Y413666D01*
X362243Y414278D01*
X362386Y415000D01*
X362243Y415722D01*
X361834Y416334D01*
X361222Y416743D01*
X360500Y416886D01*
X359778Y416743D01*
X359166Y416334D01*
X358757Y415722D01*
X358614Y415000D01*
X358757Y414278D01*
X359166Y413666D01*
X359379Y413524D01*
Y343300D01*
X359378Y343300D01*
X359464Y342871D01*
X359707Y342507D01*
X359807Y342407D01*
X360171Y342164D01*
X360600Y342078D01*
X361029Y342164D01*
X361139Y342237D01*
X373613D01*
X373652Y342216D01*
X373985Y341737D01*
X373953Y341579D01*
X374038Y341153D01*
X374279Y340791D01*
X374641Y340550D01*
X375067Y340465D01*
X377823D01*
X378249Y340550D01*
X378610Y340791D01*
X378852Y341153D01*
X378936Y341579D01*
X378852Y342005D01*
X378706Y342223D01*
X378645Y342563D01*
X378706Y342903D01*
X378852Y343121D01*
X378936Y343547D01*
X378852Y343973D01*
X378706Y344191D01*
X378645Y344531D01*
X378706Y344872D01*
X378852Y345090D01*
X378936Y345516D01*
X378852Y345942D01*
X378706Y346160D01*
X378645Y346500D01*
X378706Y346840D01*
X378852Y347058D01*
X378936Y347484D01*
X378852Y347910D01*
X378706Y348128D01*
X378645Y348468D01*
X378706Y348809D01*
X378852Y349027D01*
X378936Y349453D01*
X378852Y349879D01*
X378706Y350097D01*
X378645Y350437D01*
X378706Y350777D01*
X378852Y350995D01*
X378936Y351421D01*
X378852Y351847D01*
X378610Y352209D01*
X378249Y352450D01*
X377823Y352535D01*
X376485D01*
X376445Y352543D01*
X372099D01*
X370593Y354049D01*
X370229Y354292D01*
X369800Y354378D01*
X369800Y354378D01*
X367372D01*
Y355431D01*
X363222D01*
Y363335D01*
X385293Y385407D01*
X385293Y385407D01*
X385536Y385771D01*
X385622Y386200D01*
Y445619D01*
X386292Y445897D01*
X386979Y446424D01*
X387478Y446312D01*
Y436400D01*
X387478Y436400D01*
X387564Y435971D01*
X387807Y435607D01*
X394376Y429038D01*
Y422093D01*
X395823D01*
Y413750D01*
X395823Y413750D01*
X395909Y413321D01*
X396152Y412957D01*
X397902Y411207D01*
X397902Y411207D01*
X398266Y410964D01*
X398695Y410878D01*
X411849D01*
X411897Y410807D01*
X411630Y410307D01*
X406500D01*
Y404583D01*
Y398858D01*
X413496D01*
X413578Y398392D01*
Y362965D01*
X412480Y361866D01*
X411372D01*
Y363419D01*
X406628D01*
Y359069D01*
X411372D01*
Y359623D01*
X412944D01*
X412944Y359623D01*
X413373Y359708D01*
X413737Y359951D01*
X415493Y361707D01*
X415493Y361707D01*
X415736Y362071D01*
X415822Y362500D01*
X415822Y362500D01*
Y410000D01*
X415822Y410000D01*
X415736Y410429D01*
X415493Y410793D01*
X415493Y410793D01*
X413493Y412793D01*
X413129Y413036D01*
X412700Y413122D01*
X412700Y413122D01*
X399159D01*
X398066Y414215D01*
Y422093D01*
X399513D01*
Y432742D01*
X394376D01*
Y432742D01*
X394000Y432586D01*
X389721Y436865D01*
Y451250D01*
X389636Y451679D01*
X389393Y452043D01*
X389393Y452043D01*
X388367Y453069D01*
X388558Y453531D01*
X411733D01*
X413934Y451330D01*
Y432742D01*
X413022D01*
Y441600D01*
X413022Y441600D01*
X412936Y442029D01*
X412693Y442393D01*
X408053Y447033D01*
Y452553D01*
X400947D01*
Y445447D01*
X406467D01*
X410778Y441135D01*
Y421600D01*
X410778Y421600D01*
X410864Y421171D01*
X411107Y420807D01*
X411207Y420707D01*
X411207Y420707D01*
X411571Y420464D01*
X412000Y420378D01*
X412000Y420378D01*
X418100D01*
X418100Y420378D01*
X418529Y420464D01*
X418893Y420707D01*
X418993Y420807D01*
X418993Y420807D01*
X419236Y421171D01*
X419322Y421600D01*
X419322Y421600D01*
Y457500D01*
X419322Y457500D01*
X419236Y457929D01*
X418993Y458293D01*
X418993Y458293D01*
X417743Y459543D01*
X417379Y459786D01*
X416950Y459872D01*
D02*
G37*
G36*
X510872Y449801D02*
X506128D01*
Y445845D01*
X510872D01*
Y449801D01*
D02*
G37*
G36*
X605800Y291710D02*
X602347D01*
Y288257D01*
X605800D01*
Y291710D01*
D02*
G37*
G36*
X576953Y293500D02*
X573000D01*
X569047D01*
Y290047D01*
X571878D01*
Y288057D01*
X571378Y287722D01*
X570881Y286978D01*
X570805Y286600D01*
X575195D01*
X575119Y286978D01*
X574622Y287722D01*
X574122Y288057D01*
Y290047D01*
X576953D01*
Y293500D01*
D02*
G37*
G36*
X394500Y452583D02*
X393573Y452461D01*
X392708Y452103D01*
X391966Y451534D01*
X391397Y450792D01*
X391039Y449928D01*
X390917Y449000D01*
X391039Y448072D01*
X391397Y447208D01*
X391966Y446466D01*
X392708Y445897D01*
X393573Y445539D01*
X394500Y445417D01*
X395427Y445539D01*
X396292Y445897D01*
X397034Y446466D01*
X397603Y447208D01*
X397961Y448072D01*
X398083Y449000D01*
X397961Y449928D01*
X397603Y450792D01*
X397034Y451534D01*
X396292Y452103D01*
X395427Y452461D01*
X394500Y452583D01*
D02*
G37*
G36*
X576953Y297953D02*
X573500D01*
Y294500D01*
X576953D01*
Y297953D01*
D02*
G37*
G36*
X637500Y443500D02*
X634079D01*
X634149Y442968D01*
X634547Y442007D01*
X635181Y441181D01*
X636007Y440547D01*
X636968Y440149D01*
X637500Y440079D01*
Y443500D01*
D02*
G37*
G36*
X641921D02*
X638500D01*
Y440079D01*
X639032Y440149D01*
X639993Y440547D01*
X640819Y441181D01*
X641453Y442007D01*
X641851Y442968D01*
X641921Y443500D01*
D02*
G37*
G36*
X638500Y337083D02*
X637572Y336961D01*
X636708Y336603D01*
X635966Y336034D01*
X635397Y335292D01*
X635039Y334427D01*
X634917Y333500D01*
X635039Y332573D01*
X635397Y331708D01*
X635966Y330966D01*
X636708Y330397D01*
X637572Y330039D01*
X638500Y329917D01*
X639428Y330039D01*
X640292Y330397D01*
X641034Y330966D01*
X641603Y331708D01*
X641961Y332573D01*
X642083Y333500D01*
X641961Y334427D01*
X641603Y335292D01*
X641034Y336034D01*
X640292Y336603D01*
X639428Y336961D01*
X638500Y337083D01*
D02*
G37*
G36*
X405500Y433142D02*
X403031D01*
Y427917D01*
X405500D01*
Y433142D01*
D02*
G37*
G36*
X408968D02*
X406500D01*
Y427917D01*
X408968D01*
Y433142D01*
D02*
G37*
G36*
X631553Y447553D02*
X624447D01*
Y440447D01*
X631553D01*
Y447553D01*
D02*
G37*
G36*
X543000Y306500D02*
X539547D01*
Y303047D01*
X543000D01*
Y306500D01*
D02*
G37*
G36*
X547453D02*
X544000D01*
Y303047D01*
X547453D01*
Y306500D01*
D02*
G37*
%LPD*%
G36*
X398944Y340950D02*
X398970Y340821D01*
X399213Y340457D01*
X399577Y340214D01*
X400006Y340128D01*
X401540D01*
X401540Y340128D01*
X401969Y340214D01*
X402333Y340457D01*
X402554Y340679D01*
X403040Y340457D01*
X403154Y339882D01*
X403563Y339270D01*
X404175Y338861D01*
X404897Y338717D01*
X405147Y338767D01*
X406128Y337786D01*
Y335721D01*
X402219D01*
X396892Y341048D01*
X396962Y341153D01*
X397047Y341579D01*
X397018Y341724D01*
X397326Y342236D01*
X397380Y342271D01*
X397592Y342302D01*
X398944Y340950D01*
D02*
G37*
G36*
X555561Y334537D02*
X555006Y333981D01*
X554782Y333646D01*
X554703Y333251D01*
Y323889D01*
X543535Y312721D01*
X520000D01*
X520000Y312722D01*
X519571Y312636D01*
X519207Y312393D01*
X519207Y312393D01*
X517807Y310993D01*
X517564Y310629D01*
X517478Y310200D01*
X517478Y310200D01*
Y277965D01*
X516769Y277256D01*
X516269Y277303D01*
Y283773D01*
X514184D01*
X514032Y284273D01*
X514339Y284478D01*
X514836Y285222D01*
X514911Y285600D01*
X512717D01*
Y286600D01*
X514911D01*
X514836Y286978D01*
X514339Y287722D01*
X513838Y288057D01*
Y290047D01*
X516669D01*
Y293500D01*
X512717D01*
X508764D01*
Y292276D01*
X508302Y292084D01*
X505322Y295065D01*
Y316639D01*
X505784Y316830D01*
X506707Y315907D01*
X507071Y315664D01*
X507500Y315578D01*
X507500Y315579D01*
X539368D01*
X539369Y315578D01*
X539798Y315664D01*
X540162Y315907D01*
X540262Y316007D01*
X540262Y316007D01*
X540505Y316371D01*
X540590Y316800D01*
X540590Y316800D01*
Y317416D01*
X541250D01*
Y320584D01*
X537687D01*
Y320584D01*
X537313D01*
Y320584D01*
X533750D01*
Y320122D01*
X519215D01*
X518022Y321315D01*
Y330650D01*
X520600D01*
Y331479D01*
X523024D01*
X523166Y331266D01*
X523778Y330857D01*
X524500Y330714D01*
X525222Y330857D01*
X525834Y331266D01*
X525976Y331479D01*
X528924D01*
X529066Y331266D01*
X529678Y330857D01*
X530400Y330714D01*
X531122Y330857D01*
X531734Y331266D01*
X531876Y331479D01*
X542715D01*
X542715Y331478D01*
X543144Y331564D01*
X543508Y331807D01*
X543608Y331907D01*
X543851Y332271D01*
X543937Y332700D01*
X543851Y333129D01*
X543848Y333134D01*
Y340526D01*
X555561D01*
Y334537D01*
D02*
G37*
G36*
X529026Y349187D02*
X534421D01*
X534465Y338531D01*
X534464Y338529D01*
X534395Y338181D01*
X530650Y334436D01*
X530400Y334486D01*
X529678Y334343D01*
X529066Y333934D01*
X528924Y333721D01*
X525976D01*
X525834Y333934D01*
X525222Y334343D01*
X524500Y334486D01*
X524057Y334398D01*
X523933Y334482D01*
X523672Y334827D01*
X523786Y335400D01*
X523643Y336122D01*
X523234Y336734D01*
X523022Y336876D01*
Y348285D01*
X524081Y349345D01*
X529026D01*
Y349187D01*
D02*
G37*
G36*
Y351411D02*
X523962D01*
X523957Y351414D01*
X523528Y351500D01*
X523099Y351414D01*
X522735Y351171D01*
X521107Y349543D01*
X520864Y349179D01*
X520778Y348750D01*
X520778Y348750D01*
Y338776D01*
X520600Y338350D01*
X520122D01*
Y341744D01*
X520122Y341744D01*
X520122Y341744D01*
Y355250D01*
X529026D01*
Y351411D01*
D02*
G37*
G36*
X503078Y369381D02*
Y294600D01*
X503078Y294600D01*
X503164Y294171D01*
X503407Y293807D01*
X510523Y286690D01*
X510505Y286600D01*
X512700D01*
Y285600D01*
X510505D01*
X510581Y285222D01*
X511078Y284478D01*
X511384Y284273D01*
X511233Y283773D01*
X509164D01*
Y281342D01*
X494215D01*
X492653Y282903D01*
Y296062D01*
X493007Y296416D01*
X493687Y296416D01*
X493813Y296416D01*
X497250D01*
Y299584D01*
X496590D01*
Y368504D01*
X497465Y369378D01*
X499524D01*
X499666Y369166D01*
X500278Y368757D01*
X501000Y368614D01*
X501722Y368757D01*
X502334Y369166D01*
X502578Y369532D01*
X503078Y369381D01*
D02*
G37*
G36*
X587678Y372757D02*
X588400Y372614D01*
X588467Y372559D01*
Y366226D01*
X588545Y365831D01*
X588769Y365495D01*
X588869Y365395D01*
X589205Y365171D01*
X589600Y365093D01*
X590050D01*
Y360999D01*
Y356458D01*
X589550Y356190D01*
X589322Y356343D01*
X588600Y356486D01*
X588350Y356436D01*
X587122Y357665D01*
Y372599D01*
X587563Y372835D01*
X587678Y372757D01*
D02*
G37*
G36*
X586764Y354850D02*
X586714Y354600D01*
X586857Y353878D01*
X587266Y353266D01*
X587878Y352857D01*
X588196Y352794D01*
X588594Y352630D01*
X588567Y352249D01*
X588567Y352246D01*
X588570Y352231D01*
X588567Y352216D01*
X588603Y352060D01*
Y346807D01*
X588278Y346743D01*
X587813Y346431D01*
X587313Y346450D01*
X587313Y346450D01*
X587313Y346450D01*
X585187D01*
Y355720D01*
X585687Y355927D01*
X586764Y354850D01*
D02*
G37*
G36*
X517878Y341280D02*
Y338350D01*
X517400D01*
Y337710D01*
X517000Y337422D01*
X516571Y337336D01*
X516207Y337093D01*
X516207Y337093D01*
X516107Y336993D01*
X515864Y336629D01*
X515778Y336200D01*
X515778Y336200D01*
Y320850D01*
X515778Y320850D01*
X515864Y320421D01*
X516107Y320057D01*
X517842Y318321D01*
X517696Y317869D01*
X517659Y317822D01*
X507965D01*
X507172Y318615D01*
Y341069D01*
X511372D01*
Y342123D01*
X517035D01*
X517878Y341280D01*
D02*
G37*
G36*
X587313Y340526D02*
Y340526D01*
X587767Y340383D01*
X587967Y340182D01*
Y334428D01*
X584390Y330851D01*
X584040Y330884D01*
X584018Y330914D01*
X583757Y331352D01*
X583886Y332000D01*
X583743Y332722D01*
X583334Y333334D01*
X583218Y333411D01*
Y340526D01*
X587313D01*
X587313Y340526D01*
D02*
G37*
G36*
X583067Y393928D02*
X583032Y393750D01*
X583117Y393321D01*
X583120Y393316D01*
Y346450D01*
X581250D01*
Y346801D01*
X581171Y347197D01*
X580947Y347532D01*
X575819Y352660D01*
X575886Y353000D01*
X575743Y353722D01*
X575334Y354334D01*
X574722Y354743D01*
X574000Y354886D01*
X573278Y354743D01*
X572666Y354334D01*
X572257Y353722D01*
X572114Y353000D01*
X572257Y352278D01*
X572666Y351666D01*
X573278Y351257D01*
X574000Y351114D01*
X574369Y351187D01*
X578644Y346912D01*
X578453Y346450D01*
X553004D01*
X552812Y346912D01*
X564642Y358742D01*
X564996Y358671D01*
X565718Y358815D01*
X566330Y359224D01*
X566739Y359836D01*
X566883Y360557D01*
X566739Y361279D01*
X566330Y361891D01*
X565718Y362300D01*
X565607Y362322D01*
X565462Y362801D01*
X567145Y364484D01*
X567500Y364414D01*
X568222Y364557D01*
X568834Y364966D01*
X569243Y365578D01*
X569386Y366300D01*
X569243Y367022D01*
X568834Y367634D01*
X568222Y368043D01*
X567500Y368186D01*
X566778Y368043D01*
X566166Y367634D01*
X565757Y367022D01*
X565614Y366300D01*
X565684Y365946D01*
X548285Y348546D01*
X547785Y348753D01*
Y351299D01*
X552474Y355988D01*
X552822Y356057D01*
X553434Y356466D01*
X553843Y357078D01*
X553986Y357800D01*
X553843Y358522D01*
X553434Y359134D01*
X552822Y359543D01*
X552100Y359686D01*
X551378Y359543D01*
X550766Y359134D01*
X550357Y358522D01*
X550214Y357800D01*
X550357Y357078D01*
X550371Y357057D01*
X548295Y354981D01*
X547833Y355173D01*
Y359401D01*
X582607Y394174D01*
X583067Y393928D01*
D02*
G37*
G36*
X446778Y372032D02*
Y364968D01*
X446278Y364869D01*
X446103Y365292D01*
X445534Y366034D01*
X444792Y366603D01*
X443927Y366961D01*
X443000Y367083D01*
X442072Y366961D01*
X441208Y366603D01*
X440522Y366076D01*
X440022Y366188D01*
Y370812D01*
X440522Y370924D01*
X441208Y370397D01*
X442072Y370039D01*
X443000Y369917D01*
X443927Y370039D01*
X444792Y370397D01*
X445534Y370966D01*
X446103Y371708D01*
X446278Y372131D01*
X446778Y372032D01*
D02*
G37*
G36*
X455678Y404719D02*
X455178Y404568D01*
X454934Y404934D01*
X454322Y405343D01*
X453600Y405486D01*
X452878Y405343D01*
X452266Y404934D01*
X451857Y404322D01*
X451714Y403600D01*
X451857Y402878D01*
X452266Y402266D01*
X452478Y402124D01*
Y340800D01*
X452478Y340800D01*
X452564Y340371D01*
X452807Y340007D01*
X463347Y329467D01*
Y308938D01*
X462993Y308584D01*
X462313Y308584D01*
X462187Y308584D01*
X458750D01*
Y305416D01*
X459410D01*
Y304400D01*
X459410Y304400D01*
X459495Y303971D01*
X459738Y303607D01*
X465939Y297407D01*
X465939Y297407D01*
X466302Y297164D01*
X466732Y297078D01*
X472835D01*
X474447Y295467D01*
Y289947D01*
X481553D01*
Y297053D01*
X476033D01*
X474093Y298993D01*
X473729Y299236D01*
X473300Y299322D01*
X473300Y299322D01*
X467196D01*
X461867Y304651D01*
Y305276D01*
X462007Y305416D01*
X462687Y305416D01*
X462813Y305416D01*
X466250D01*
Y308584D01*
X465590D01*
Y329931D01*
X465590Y329931D01*
X465505Y330361D01*
X465262Y330725D01*
X465262Y330725D01*
X454722Y341265D01*
Y402124D01*
X454934Y402266D01*
X455178Y402632D01*
X455678Y402481D01*
Y349900D01*
X455678Y349900D01*
X455764Y349471D01*
X456007Y349107D01*
X485464Y319650D01*
X485414Y319400D01*
X485557Y318678D01*
X485966Y318066D01*
X486578Y317657D01*
X487300Y317514D01*
X488022Y317657D01*
X488634Y318066D01*
X489043Y318678D01*
X489186Y319400D01*
X489043Y320122D01*
X488634Y320734D01*
X488022Y321143D01*
X487300Y321286D01*
X487050Y321236D01*
X463041Y345245D01*
X463232Y345707D01*
X485919D01*
Y365608D01*
X475122D01*
Y374292D01*
X475036Y374721D01*
X474793Y375085D01*
X474793Y375085D01*
X461699Y388178D01*
X461907Y388679D01*
X486300D01*
X486300Y388678D01*
X486729Y388764D01*
X487093Y389007D01*
X494383Y396297D01*
X507228D01*
Y395244D01*
X510000D01*
Y394244D01*
X507228D01*
Y392198D01*
X507179Y392165D01*
X503407Y388393D01*
X503164Y388029D01*
X503078Y387600D01*
X503078Y387600D01*
Y371619D01*
X502578Y371468D01*
X502334Y371834D01*
X501722Y372243D01*
X501000Y372386D01*
X500278Y372243D01*
X499666Y371834D01*
X499524Y371621D01*
X497000D01*
X497000Y371622D01*
X496571Y371536D01*
X496207Y371293D01*
X496207Y371293D01*
X494675Y369762D01*
X494432Y369398D01*
X494347Y368969D01*
X494347Y368969D01*
Y299938D01*
X493994Y299584D01*
X493313Y299584D01*
X493188Y299584D01*
X489750D01*
Y296416D01*
X490410D01*
Y282439D01*
X490410Y282439D01*
X490495Y282010D01*
X490738Y281646D01*
X492957Y279427D01*
X492957Y279427D01*
X493321Y279184D01*
X493750Y279099D01*
X493750Y279099D01*
X509164D01*
Y277221D01*
X478665D01*
X444122Y311765D01*
Y330119D01*
X444792Y330397D01*
X445534Y330966D01*
X446103Y331708D01*
X446195Y331928D01*
X446716Y331882D01*
X446778Y331600D01*
X446864Y331171D01*
X447107Y330807D01*
X455564Y322350D01*
X455514Y322100D01*
X455657Y321378D01*
X456066Y320766D01*
X456678Y320357D01*
X457400Y320214D01*
X458122Y320357D01*
X458734Y320766D01*
X459143Y321378D01*
X459286Y322100D01*
X459143Y322822D01*
X458734Y323434D01*
X458122Y323843D01*
X457400Y323986D01*
X457150Y323937D01*
X449022Y332065D01*
Y398600D01*
X449022Y398600D01*
X448936Y399029D01*
X448693Y399393D01*
X448693Y399393D01*
X446184Y401902D01*
X446461Y402573D01*
X446583Y403500D01*
X446461Y404427D01*
X446103Y405292D01*
X445534Y406034D01*
X444792Y406603D01*
X443927Y406961D01*
X443000Y407083D01*
X442072Y406961D01*
X441208Y406603D01*
X440522Y406076D01*
X440022Y406188D01*
Y410812D01*
X440522Y410924D01*
X441208Y410397D01*
X442072Y410039D01*
X443000Y409917D01*
X443927Y410039D01*
X444792Y410397D01*
X445534Y410966D01*
X446103Y411708D01*
X446381Y412378D01*
X455678D01*
Y404719D01*
D02*
G37*
G36*
X468006Y439360D02*
X468006Y439360D01*
X468370Y439117D01*
X468799Y439032D01*
X468799Y439032D01*
X476128D01*
Y438175D01*
X477378D01*
Y428184D01*
X461564Y412370D01*
X461102Y412561D01*
Y438569D01*
X464872D01*
Y441842D01*
X465334Y442033D01*
X468006Y439360D01*
D02*
G37*
G36*
X575994Y425416D02*
X579557D01*
Y425416D01*
X579931D01*
Y425416D01*
X582878D01*
Y413800D01*
X582878Y413800D01*
X582964Y413371D01*
X583207Y413007D01*
X585089Y411125D01*
Y407474D01*
X575344D01*
Y422165D01*
X575645Y422366D01*
X576054Y422978D01*
X576197Y423700D01*
X576054Y424422D01*
X575645Y425034D01*
X575129Y425378D01*
X575208Y425869D01*
X575212Y425878D01*
X575994D01*
Y425416D01*
D02*
G37*
G36*
X491557Y399220D02*
X491986Y399134D01*
X491986Y399134D01*
X507628D01*
Y398540D01*
X493919D01*
X493919Y398540D01*
X493490Y398455D01*
X493126Y398212D01*
X486381Y391467D01*
X485919Y391658D01*
Y399221D01*
X491556D01*
X491557Y399220D01*
D02*
G37*
G36*
X613778Y432035D02*
Y399931D01*
X613122D01*
Y406250D01*
X613036Y406679D01*
X612793Y407043D01*
X612793Y407043D01*
X611090Y408746D01*
X610726Y408989D01*
X610297Y409074D01*
X610297Y409074D01*
X607372D01*
Y409931D01*
X604608D01*
X603834Y410705D01*
Y425416D01*
X604494D01*
Y428584D01*
X600932D01*
Y428584D01*
X600557D01*
Y428584D01*
X596994D01*
Y428122D01*
X594713D01*
X594713Y428122D01*
X594283Y428036D01*
X593920Y427793D01*
X593920Y427793D01*
X591920Y425793D01*
X591676Y425429D01*
X591591Y425000D01*
X591591Y425000D01*
Y423084D01*
X590932D01*
Y423084D01*
X590557D01*
Y423084D01*
X589897D01*
Y428824D01*
X590109Y428966D01*
X590518Y429578D01*
X590662Y430300D01*
X590518Y431022D01*
X590109Y431634D01*
X589497Y432043D01*
X588776Y432186D01*
X588281Y432088D01*
X588035Y432549D01*
X588565Y433078D01*
X612735D01*
X613778Y432035D01*
D02*
G37*
G36*
X596994Y425416D02*
X600557D01*
Y425416D01*
X600932D01*
Y425416D01*
X601591D01*
Y410240D01*
X601591Y410240D01*
X601676Y409811D01*
X601920Y409447D01*
X602628Y408738D01*
Y405975D01*
X607372D01*
Y406831D01*
X609833D01*
X610878Y405785D01*
Y399931D01*
X609628D01*
Y398878D01*
X602534D01*
X602105Y398792D01*
X602032Y398744D01*
X595974D01*
Y398813D01*
X590050D01*
Y396687D01*
X586491D01*
X586486Y396690D01*
X586057Y396775D01*
X585628Y396690D01*
X585624Y396687D01*
X582934D01*
X582929Y396690D01*
X582500Y396775D01*
X582071Y396690D01*
X581707Y396447D01*
X578655Y393394D01*
X578425Y393444D01*
X578147Y393594D01*
X578022Y394222D01*
X577613Y394834D01*
X577313Y395035D01*
Y401550D01*
X587313D01*
Y407474D01*
X587155D01*
Y411244D01*
X587158Y411249D01*
X587244Y411678D01*
X587198Y411909D01*
X587658Y412155D01*
X598560Y401254D01*
X598560Y401254D01*
X598924Y401011D01*
X599353Y400926D01*
X599353Y400926D01*
X602628D01*
Y400069D01*
X607372D01*
Y404025D01*
X602628D01*
Y403169D01*
X599817D01*
X587522Y415465D01*
Y419916D01*
X590557D01*
Y419916D01*
X590932D01*
Y419916D01*
X594494D01*
Y423084D01*
X593834D01*
Y424535D01*
X595177Y425878D01*
X596994D01*
Y425416D01*
D02*
G37*
G36*
X613778Y439335D02*
Y435692D01*
X613278Y435306D01*
X613200Y435322D01*
X613200Y435322D01*
X588100D01*
X587671Y435236D01*
X587307Y434993D01*
X587307Y434993D01*
X585622Y433308D01*
X585559Y433310D01*
X585122Y433467D01*
Y438500D01*
X585122Y438500D01*
X585036Y438929D01*
X584793Y439293D01*
X584793Y439293D01*
X581184Y442902D01*
X581461Y443573D01*
X581583Y444500D01*
X581461Y445428D01*
X581103Y446292D01*
X580534Y447034D01*
X579792Y447603D01*
X578928Y447961D01*
X578000Y448083D01*
X577072Y447961D01*
X576208Y447603D01*
X575466Y447034D01*
X574897Y446292D01*
X574539Y445428D01*
X574417Y444500D01*
X574539Y443573D01*
X574897Y442708D01*
X575466Y441966D01*
X576208Y441397D01*
X577072Y441039D01*
X578000Y440917D01*
X578928Y441039D01*
X579598Y441316D01*
X582878Y438035D01*
Y431569D01*
X582378Y431417D01*
X582234Y431634D01*
X581622Y432043D01*
X580900Y432186D01*
X580178Y432043D01*
X579566Y431634D01*
X579157Y431022D01*
X579014Y430300D01*
X579157Y429578D01*
X579487Y429084D01*
X579341Y428680D01*
X579266Y428584D01*
X575994D01*
Y428122D01*
X572500D01*
X572500Y428122D01*
X572071Y428036D01*
X571707Y427793D01*
X571707Y427793D01*
X569919Y426006D01*
X569676Y425642D01*
X569591Y425213D01*
X569591Y425213D01*
Y423584D01*
X568931D01*
Y423584D01*
X568557D01*
Y423584D01*
X564994D01*
Y423122D01*
X561715D01*
X561090Y423746D01*
Y426416D01*
X561750D01*
Y429584D01*
X558187D01*
Y429584D01*
X557812D01*
Y429584D01*
X554250D01*
Y426416D01*
X554910D01*
Y424215D01*
X553317Y422622D01*
X551494D01*
Y423084D01*
X547931D01*
Y423084D01*
X547557D01*
Y423084D01*
X543995D01*
Y423084D01*
X543687Y422802D01*
X541301Y423003D01*
X540090Y424215D01*
Y427416D01*
X540750D01*
Y430584D01*
X537187D01*
Y430584D01*
X536812D01*
Y430584D01*
X533250D01*
Y427416D01*
X533910D01*
Y424746D01*
X533285Y424122D01*
X529494D01*
Y424584D01*
X525932D01*
Y424584D01*
X525557D01*
Y424584D01*
X522522D01*
Y445785D01*
X525767Y449031D01*
X604083D01*
X613778Y439335D01*
D02*
G37*
G36*
X558847Y423281D02*
X558847Y423281D01*
X558932Y422852D01*
X559175Y422488D01*
X560457Y421207D01*
X560457Y421207D01*
X560821Y420964D01*
X561250Y420878D01*
X564994D01*
Y420416D01*
X568557D01*
Y420416D01*
X568931D01*
Y420416D01*
X572494D01*
Y422009D01*
X572974Y422238D01*
X573054Y422191D01*
X573278Y421989D01*
Y407474D01*
X561565D01*
Y411465D01*
X561865Y411666D01*
X562274Y412278D01*
X562418Y413000D01*
X562274Y413722D01*
X561865Y414334D01*
X561253Y414743D01*
X560532Y414886D01*
X559810Y414743D01*
X559198Y414334D01*
X558789Y413722D01*
X558645Y413000D01*
X558789Y412278D01*
X559198Y411666D01*
X559498Y411465D01*
Y407474D01*
X543848D01*
Y411165D01*
X544149Y411366D01*
X544558Y411978D01*
X544701Y412700D01*
X544558Y413422D01*
X544149Y414034D01*
X543537Y414443D01*
X542815Y414586D01*
X542093Y414443D01*
X541481Y414034D01*
X541072Y413422D01*
X540929Y412700D01*
X541072Y411978D01*
X541481Y411366D01*
X541782Y411165D01*
Y407474D01*
X539911D01*
Y419447D01*
X540905Y420441D01*
X540997Y420423D01*
X541218Y420378D01*
X541219Y420378D01*
X541219Y420378D01*
X543995D01*
Y419916D01*
X547557D01*
Y419916D01*
X547931D01*
Y419916D01*
X551494D01*
Y420378D01*
X553781D01*
X553781Y420378D01*
X554211Y420464D01*
X554574Y420707D01*
X556824Y422957D01*
X557068Y423321D01*
X557153Y423750D01*
X557153Y423750D01*
Y426416D01*
X557812D01*
Y426416D01*
X558187D01*
Y426416D01*
X558847D01*
Y423281D01*
D02*
G37*
G36*
X537847Y423750D02*
X537847Y423750D01*
X537910Y423436D01*
X537932Y423321D01*
X537932Y423321D01*
X537932Y423321D01*
X538045Y423152D01*
X538175Y422957D01*
X538176Y422957D01*
X538962Y422170D01*
X538962Y421670D01*
X538085Y420793D01*
X537842Y420429D01*
X537756Y420000D01*
X537842Y419571D01*
X537845Y419566D01*
Y407474D01*
X537687D01*
Y405633D01*
X536735D01*
X536534Y405934D01*
X535922Y406343D01*
X535200Y406486D01*
X534478Y406343D01*
X533866Y405934D01*
X533457Y405322D01*
X533314Y404600D01*
X533457Y403878D01*
X533866Y403266D01*
X534478Y402857D01*
X535200Y402714D01*
X535922Y402857D01*
X536534Y403266D01*
X536735Y403567D01*
X537687D01*
Y401550D01*
X539813D01*
Y398534D01*
X539810Y398529D01*
X539725Y398100D01*
X539810Y397671D01*
X539813Y397666D01*
Y381803D01*
X538949Y380939D01*
X534950D01*
Y382652D01*
Y386589D01*
Y390526D01*
Y394463D01*
Y398813D01*
X529026D01*
Y394463D01*
Y389927D01*
X528526Y389680D01*
X528322Y389838D01*
Y396672D01*
X528322Y396672D01*
X528236Y397101D01*
X527993Y397465D01*
X527993Y397465D01*
X522522Y402936D01*
Y421416D01*
X525557D01*
Y421416D01*
X525932D01*
Y421416D01*
X529494D01*
Y421878D01*
X533750D01*
X533750Y421878D01*
X534179Y421964D01*
X534543Y422207D01*
X535824Y423488D01*
X535824Y423488D01*
X536068Y423852D01*
X536153Y424281D01*
Y427416D01*
X536812D01*
Y427416D01*
X537187D01*
Y427416D01*
X537847D01*
Y423750D01*
D02*
G37*
G36*
X446778Y392032D02*
Y384968D01*
X446278Y384869D01*
X446103Y385292D01*
X445534Y386034D01*
X444792Y386603D01*
X443927Y386961D01*
X443000Y387083D01*
X442072Y386961D01*
X441208Y386603D01*
X440522Y386076D01*
X440022Y386188D01*
Y390812D01*
X440522Y390924D01*
X441208Y390397D01*
X442072Y390039D01*
X443000Y389917D01*
X443927Y390039D01*
X444792Y390397D01*
X445534Y390966D01*
X446103Y391708D01*
X446278Y392131D01*
X446778Y392032D01*
D02*
G37*
G36*
X520178Y368036D02*
Y367524D01*
X520046Y367422D01*
X519678Y367317D01*
X519567Y367377D01*
X519429Y367469D01*
X519376Y367480D01*
X519328Y367505D01*
X517594Y368035D01*
X517519Y368411D01*
X517022Y369155D01*
X516278Y369652D01*
X515900Y369727D01*
Y367533D01*
Y365338D01*
X516278Y365413D01*
X516975Y365879D01*
X517878Y365603D01*
Y363650D01*
X517016D01*
Y361969D01*
X519000D01*
Y360969D01*
X517016D01*
Y359288D01*
X517416D01*
Y355750D01*
X517878D01*
Y344676D01*
X517500Y344366D01*
X517500Y344366D01*
X511372D01*
Y345419D01*
X507172D01*
Y346181D01*
X508500D01*
Y348756D01*
Y351331D01*
X507172D01*
Y372148D01*
X507965Y372941D01*
X510416D01*
Y372282D01*
X513584D01*
Y372941D01*
X515272D01*
X520178Y368036D01*
D02*
G37*
G36*
X540328Y371547D02*
Y363222D01*
X538934D01*
X538744Y363722D01*
X539066Y364205D01*
X539210Y364927D01*
X539066Y365648D01*
X538657Y366260D01*
X538045Y366669D01*
X537323Y366813D01*
X536969Y366742D01*
X536855Y366857D01*
X536519Y367081D01*
X536124Y367159D01*
X534950D01*
Y370124D01*
X535391Y370359D01*
X535497Y370289D01*
X536218Y370145D01*
X536940Y370289D01*
X537552Y370698D01*
X537961Y371310D01*
X538105Y372032D01*
X537961Y372753D01*
X537552Y373365D01*
X536940Y373774D01*
X536218Y373918D01*
X535497Y373774D01*
X535391Y373704D01*
X534950Y373940D01*
Y376218D01*
X535450Y376425D01*
X540328Y371547D01*
D02*
G37*
G36*
X512569Y386128D02*
X516378D01*
Y383965D01*
X512595Y380181D01*
X512500D01*
Y378000D01*
X512000D01*
Y377500D01*
X510016D01*
Y375819D01*
X510416D01*
Y375184D01*
X507500D01*
X507500Y375185D01*
X507172Y375454D01*
Y384885D01*
X509615Y387329D01*
X512569D01*
Y386128D01*
D02*
G37*
G36*
X545678Y391682D02*
Y359954D01*
X545678Y359954D01*
X545764Y359524D01*
X545767Y359520D01*
Y354682D01*
X540116Y349031D01*
X539892Y348695D01*
X539813Y348300D01*
Y346450D01*
X537687D01*
Y340526D01*
X537845D01*
Y337335D01*
X537544Y337134D01*
X537135Y336522D01*
X536992Y335800D01*
X537135Y335078D01*
X537544Y334466D01*
X537910Y334222D01*
X537759Y333721D01*
X533761D01*
X533570Y334184D01*
X536293Y336907D01*
X536536Y337271D01*
X536622Y337700D01*
X536622Y337700D01*
Y338100D01*
X536536Y338529D01*
X536531Y338536D01*
X536439Y360802D01*
X536792Y361156D01*
X540939D01*
X540944Y361153D01*
X541373Y361067D01*
X541802Y361153D01*
X542166Y361396D01*
X542243Y361473D01*
X542243Y361473D01*
X542486Y361837D01*
X542572Y362266D01*
Y371887D01*
X542486Y372316D01*
X542243Y372680D01*
X541879Y372923D01*
X541874Y372924D01*
X536426Y378372D01*
X536633Y378872D01*
X539068D01*
X539073Y378869D01*
X539502Y378784D01*
X539931Y378869D01*
X540295Y379113D01*
X541640Y380457D01*
X541883Y380821D01*
X541968Y381250D01*
X541883Y381679D01*
X541880Y381684D01*
Y394827D01*
X542342Y395019D01*
X545678Y391682D01*
D02*
G37*
G36*
X590050Y390526D02*
Y386589D01*
Y382907D01*
X589700D01*
X589305Y382829D01*
X588969Y382605D01*
X585687Y379322D01*
X585317Y379438D01*
X585187Y379555D01*
Y393197D01*
X586610Y394620D01*
X590050D01*
Y390526D01*
D02*
G37*
G36*
X575246Y395035D02*
X574946Y394834D01*
X574537Y394222D01*
X574393Y393500D01*
X574537Y392778D01*
X574946Y392166D01*
X575558Y391757D01*
X576186Y391633D01*
X576335Y391355D01*
X576385Y391125D01*
X548384Y363123D01*
X547922Y363315D01*
Y392146D01*
X547836Y392576D01*
X547645Y392862D01*
X548033Y393181D01*
X555164Y386050D01*
X555114Y385800D01*
X555257Y385078D01*
X555666Y384466D01*
X556278Y384057D01*
X557000Y383914D01*
X557722Y384057D01*
X558334Y384466D01*
X558743Y385078D01*
X558886Y385800D01*
X558743Y386522D01*
X558334Y387134D01*
X557722Y387543D01*
X557000Y387686D01*
X556750Y387636D01*
X545817Y398569D01*
Y401550D01*
X575246D01*
Y395035D01*
D02*
G37*
G36*
X604178Y386320D02*
Y384580D01*
X601553D01*
Y379222D01*
X600170D01*
X598693Y380699D01*
X598329Y380942D01*
X597900Y381027D01*
X597471Y380942D01*
X597466Y380939D01*
X595974D01*
Y384620D01*
Y388820D01*
X596466Y388983D01*
X597078Y388574D01*
X597800Y388430D01*
X598522Y388574D01*
X599134Y388983D01*
X599543Y389595D01*
X599651Y390141D01*
X600151Y390348D01*
X604178Y386320D01*
D02*
G37*
G36*
X446778Y382032D02*
Y374968D01*
X446278Y374869D01*
X446103Y375292D01*
X445534Y376034D01*
X444792Y376603D01*
X443927Y376961D01*
X443000Y377083D01*
X442072Y376961D01*
X441208Y376603D01*
X440522Y376076D01*
X440022Y376188D01*
Y380812D01*
X440522Y380924D01*
X441208Y380397D01*
X442072Y380039D01*
X443000Y379917D01*
X443927Y380039D01*
X444792Y380397D01*
X445534Y380966D01*
X446103Y381708D01*
X446278Y382131D01*
X446778Y382032D01*
D02*
G37*
%LPC*%
G36*
X510000Y304000D02*
X508305D01*
X508381Y303622D01*
X508878Y302878D01*
X509622Y302380D01*
X510000Y302305D01*
Y304000D01*
D02*
G37*
G36*
X512695D02*
X511000D01*
Y302305D01*
X511091Y302323D01*
X511595Y301819D01*
Y297953D01*
X508764D01*
Y294500D01*
X512717D01*
X516669D01*
Y297953D01*
X513838D01*
Y302283D01*
X513838Y302283D01*
X513753Y302713D01*
X513510Y303077D01*
X513510Y303077D01*
X512677Y303909D01*
X512695Y304000D01*
D02*
G37*
G36*
X511000Y306695D02*
Y305000D01*
X512695D01*
X512619Y305378D01*
X512122Y306122D01*
X511378Y306620D01*
X511000Y306695D01*
D02*
G37*
G36*
X510000D02*
X509622Y306620D01*
X508878Y306122D01*
X508381Y305378D01*
X508305Y305000D01*
X510000D01*
Y306695D01*
D02*
G37*
G36*
X491000Y304000D02*
X489305D01*
X489381Y303622D01*
X489878Y302878D01*
X490622Y302380D01*
X491000Y302305D01*
Y304000D01*
D02*
G37*
G36*
X493695D02*
X492000D01*
Y302305D01*
X492378Y302380D01*
X493122Y302878D01*
X493619Y303622D01*
X493695Y304000D01*
D02*
G37*
G36*
X492000Y306695D02*
Y305000D01*
X493695D01*
X493619Y305378D01*
X493122Y306122D01*
X492378Y306620D01*
X492000Y306695D01*
D02*
G37*
G36*
X481953Y311232D02*
X478500D01*
Y307280D01*
Y303327D01*
X481953D01*
Y306158D01*
X488256D01*
X489323Y305090D01*
X489305Y305000D01*
X491000D01*
Y306695D01*
X490909Y306677D01*
X489513Y308073D01*
X489150Y308316D01*
X488720Y308401D01*
X488720Y308401D01*
X481953D01*
Y311232D01*
D02*
G37*
G36*
X477500Y306780D02*
X474047D01*
Y303327D01*
X477500D01*
Y306780D01*
D02*
G37*
G36*
Y311232D02*
X474047D01*
Y307780D01*
X477500D01*
Y311232D01*
D02*
G37*
G36*
X558000Y448083D02*
X557072Y447961D01*
X556208Y447603D01*
X555466Y447034D01*
X554897Y446292D01*
X554539Y445428D01*
X554417Y444500D01*
X554539Y443573D01*
X554897Y442708D01*
X555466Y441966D01*
X556208Y441397D01*
X557072Y441039D01*
X558000Y440917D01*
X558927Y441039D01*
X559792Y441397D01*
X560534Y441966D01*
X561103Y442708D01*
X561461Y443573D01*
X561583Y444500D01*
X561461Y445428D01*
X561103Y446292D01*
X560534Y447034D01*
X559792Y447603D01*
X558927Y447961D01*
X558000Y448083D01*
D02*
G37*
G36*
X548000D02*
X547073Y447961D01*
X546208Y447603D01*
X545466Y447034D01*
X544897Y446292D01*
X544539Y445428D01*
X544417Y444500D01*
X544539Y443573D01*
X544897Y442708D01*
X545466Y441966D01*
X546208Y441397D01*
X547073Y441039D01*
X548000Y440917D01*
X548927Y441039D01*
X549792Y441397D01*
X550534Y441966D01*
X551103Y442708D01*
X551461Y443573D01*
X551583Y444500D01*
X551461Y445428D01*
X551103Y446292D01*
X550534Y447034D01*
X549792Y447603D01*
X548927Y447961D01*
X548000Y448083D01*
D02*
G37*
G36*
X538000D02*
X537073Y447961D01*
X536208Y447603D01*
X535466Y447034D01*
X534897Y446292D01*
X534539Y445428D01*
X534417Y444500D01*
X534539Y443573D01*
X534897Y442708D01*
X535466Y441966D01*
X536208Y441397D01*
X537073Y441039D01*
X538000Y440917D01*
X538928Y441039D01*
X539792Y441397D01*
X540534Y441966D01*
X541103Y442708D01*
X541461Y443573D01*
X541583Y444500D01*
X541461Y445428D01*
X541103Y446292D01*
X540534Y447034D01*
X539792Y447603D01*
X538928Y447961D01*
X538000Y448083D01*
D02*
G37*
G36*
X568500Y448421D02*
Y445000D01*
X571921D01*
X571851Y445532D01*
X571453Y446493D01*
X570819Y447319D01*
X569993Y447953D01*
X569032Y448351D01*
X568500Y448421D01*
D02*
G37*
G36*
X591553Y448053D02*
X584447D01*
Y440947D01*
X591553D01*
Y448053D01*
D02*
G37*
G36*
X567500Y448421D02*
X566968Y448351D01*
X566007Y447953D01*
X565181Y447319D01*
X564547Y446493D01*
X564149Y445532D01*
X564079Y445000D01*
X567500D01*
Y448421D01*
D02*
G37*
G36*
X571921Y444000D02*
X568500D01*
Y440579D01*
X569032Y440649D01*
X569993Y441047D01*
X570819Y441681D01*
X571453Y442507D01*
X571851Y443468D01*
X571921Y444000D01*
D02*
G37*
G36*
X567500D02*
X564079D01*
X564149Y443468D01*
X564547Y442507D01*
X565181Y441681D01*
X566007Y441047D01*
X566968Y440649D01*
X567500Y440579D01*
Y444000D01*
D02*
G37*
G36*
X514900Y369727D02*
X514522Y369652D01*
X513778Y369155D01*
X513281Y368411D01*
X513205Y368033D01*
X514900D01*
Y369727D01*
D02*
G37*
G36*
X511772Y351331D02*
X509500D01*
Y349256D01*
X511772D01*
Y351331D01*
D02*
G37*
G36*
Y348256D02*
X509500D01*
Y346181D01*
X511772D01*
Y348256D01*
D02*
G37*
G36*
X514900Y367033D02*
X513205D01*
X513281Y366655D01*
X513778Y365911D01*
X514522Y365413D01*
X514900Y365338D01*
Y367033D01*
D02*
G37*
G36*
X511500Y380181D02*
X510016D01*
Y378500D01*
X511500D01*
Y380181D01*
D02*
G37*
%LPD*%
G36*
X417078Y457035D02*
Y432742D01*
X416177D01*
Y451795D01*
X416091Y452224D01*
X415848Y452588D01*
X415848Y452588D01*
X412990Y455446D01*
X412626Y455689D01*
X412197Y455774D01*
X412197Y455774D01*
X381000D01*
X381000Y455774D01*
X380571Y455689D01*
X380207Y455446D01*
X380207Y455446D01*
X378054Y453293D01*
X377811Y452929D01*
X377726Y452500D01*
X377726Y452500D01*
Y452039D01*
X377226Y451891D01*
X376493Y452453D01*
X375532Y452851D01*
X375000Y452921D01*
Y449000D01*
Y445079D01*
X375532Y445149D01*
X376493Y445547D01*
X377226Y446109D01*
X377726Y445961D01*
Y444900D01*
X377726Y444900D01*
X377811Y444471D01*
X378054Y444107D01*
X379278Y442883D01*
Y436384D01*
X376628D01*
Y435527D01*
X372750D01*
X372320Y435442D01*
X371956Y435199D01*
X371956Y435199D01*
X371635Y434877D01*
X368372D01*
Y435931D01*
X364222D01*
Y457035D01*
X364815Y457628D01*
X416485D01*
X417078Y457035D01*
D02*
G37*
G36*
X376628Y432428D02*
X380878D01*
Y430478D01*
X376628D01*
Y429622D01*
X372965D01*
X370793Y431793D01*
X370429Y432036D01*
X370000Y432122D01*
X370000Y432122D01*
X368372D01*
Y432634D01*
X372100D01*
X372100Y432634D01*
X372529Y432720D01*
X372893Y432963D01*
X373214Y433284D01*
X376628D01*
Y432428D01*
D02*
G37*
%LPC*%
G36*
X374000Y448500D02*
X370579D01*
X370649Y447968D01*
X371047Y447007D01*
X371681Y446181D01*
X372507Y445547D01*
X373468Y445149D01*
X374000Y445079D01*
Y448500D01*
D02*
G37*
G36*
Y452921D02*
X373468Y452851D01*
X372507Y452453D01*
X371681Y451819D01*
X371047Y450993D01*
X370649Y450032D01*
X370579Y449500D01*
X374000D01*
Y452921D01*
D02*
G37*
%LPD*%
D10*
X538878Y404512D02*
D03*
X540846D02*
D03*
X542815D02*
D03*
X544783D02*
D03*
X546752D02*
D03*
X548720D02*
D03*
X550689D02*
D03*
X552657D02*
D03*
X554626D02*
D03*
X556594D02*
D03*
X558563D02*
D03*
X560532D02*
D03*
X562500D02*
D03*
X564469D02*
D03*
X566437D02*
D03*
X568406D02*
D03*
X570374D02*
D03*
X572343D02*
D03*
X574311D02*
D03*
X576280D02*
D03*
X578248D02*
D03*
X580217D02*
D03*
X582185D02*
D03*
X584154D02*
D03*
X586122D02*
D03*
Y343488D02*
D03*
X584154D02*
D03*
X582185D02*
D03*
X580217D02*
D03*
X578248D02*
D03*
X576280D02*
D03*
X574311D02*
D03*
X572343D02*
D03*
X570374D02*
D03*
X568406D02*
D03*
X566437D02*
D03*
X564469D02*
D03*
X562500D02*
D03*
X560532D02*
D03*
X558563D02*
D03*
X556594D02*
D03*
X554626D02*
D03*
X552657D02*
D03*
X550689D02*
D03*
X548720D02*
D03*
X546752D02*
D03*
X544783D02*
D03*
X542815D02*
D03*
X540846D02*
D03*
X538878D02*
D03*
D11*
X593012Y397622D02*
D03*
Y395654D02*
D03*
Y393685D02*
D03*
Y391717D02*
D03*
Y389748D02*
D03*
Y387780D02*
D03*
Y385811D02*
D03*
Y383843D02*
D03*
Y381874D02*
D03*
Y379906D02*
D03*
Y377937D02*
D03*
Y375969D02*
D03*
Y374000D02*
D03*
Y372032D02*
D03*
Y370063D02*
D03*
Y368094D02*
D03*
Y366126D02*
D03*
Y364157D02*
D03*
Y362189D02*
D03*
Y360220D02*
D03*
Y358252D02*
D03*
Y356283D02*
D03*
Y354315D02*
D03*
Y352346D02*
D03*
Y350378D02*
D03*
X531988D02*
D03*
Y352346D02*
D03*
Y354315D02*
D03*
Y356283D02*
D03*
Y358252D02*
D03*
Y360220D02*
D03*
Y362189D02*
D03*
Y364157D02*
D03*
Y366126D02*
D03*
Y368094D02*
D03*
Y370063D02*
D03*
Y372032D02*
D03*
Y374000D02*
D03*
Y375969D02*
D03*
Y377937D02*
D03*
Y379906D02*
D03*
Y381874D02*
D03*
Y383843D02*
D03*
Y385811D02*
D03*
Y387780D02*
D03*
Y389748D02*
D03*
Y391717D02*
D03*
Y393685D02*
D03*
Y395654D02*
D03*
Y397622D02*
D03*
D12*
X615500Y360685D02*
D03*
Y371315D02*
D03*
X605500Y371185D02*
D03*
Y381815D02*
D03*
D13*
X543500Y293220D02*
D03*
Y307000D02*
D03*
X606300Y305990D02*
D03*
Y292210D02*
D03*
X573000Y280220D02*
D03*
Y294000D02*
D03*
X512717Y280220D02*
D03*
Y294000D02*
D03*
X478000Y293500D02*
D03*
Y307280D02*
D03*
X443000Y423500D02*
D03*
X638500D02*
D03*
D14*
X493500Y440547D02*
D03*
Y446453D02*
D03*
X478500Y440153D02*
D03*
Y446059D02*
D03*
X462500Y440547D02*
D03*
Y446453D02*
D03*
X605000Y402047D02*
D03*
Y407953D02*
D03*
X508500Y441917D02*
D03*
Y447823D02*
D03*
X379000Y428500D02*
D03*
Y434406D02*
D03*
D15*
X372488Y412500D02*
D03*
X378000D02*
D03*
X388244Y372000D02*
D03*
X393756D02*
D03*
X377744D02*
D03*
X383256D02*
D03*
X520256Y388500D02*
D03*
X514744D02*
D03*
D16*
X366000Y428244D02*
D03*
Y433756D02*
D03*
X510000Y400256D02*
D03*
Y394744D02*
D03*
X444500Y440547D02*
D03*
Y446059D02*
D03*
X612000Y397756D02*
D03*
Y392244D02*
D03*
X403000Y354256D02*
D03*
Y348744D02*
D03*
X408500Y337744D02*
D03*
Y343256D02*
D03*
X409000Y361244D02*
D03*
Y366756D02*
D03*
X365000Y353256D02*
D03*
Y347744D02*
D03*
X509000Y348756D02*
D03*
Y343244D02*
D03*
D17*
X415055Y427417D02*
D03*
X406000D02*
D03*
X396945D02*
D03*
D18*
X406000Y404583D02*
D03*
D19*
X385500Y346500D02*
D03*
D20*
X380579Y355555D02*
D03*
X382547D02*
D03*
X384516D02*
D03*
X386484D02*
D03*
X388453D02*
D03*
X390421D02*
D03*
Y337445D02*
D03*
X388453D02*
D03*
X386484D02*
D03*
X384516D02*
D03*
X382547D02*
D03*
X380579D02*
D03*
D21*
X394555Y351421D02*
D03*
Y349453D02*
D03*
Y347484D02*
D03*
Y345516D02*
D03*
Y343547D02*
D03*
Y341579D02*
D03*
X376445D02*
D03*
Y343547D02*
D03*
Y345516D02*
D03*
Y347484D02*
D03*
Y349453D02*
D03*
Y351421D02*
D03*
D22*
X474000Y355657D02*
D03*
Y400342D02*
D03*
D23*
X512000Y378000D02*
D03*
Y374063D02*
D03*
X519000Y357532D02*
D03*
Y361469D02*
D03*
D24*
X527713Y423000D02*
D03*
X523776D02*
D03*
X538969Y429000D02*
D03*
X535031D02*
D03*
X549713Y421500D02*
D03*
X545776D02*
D03*
X559969Y428000D02*
D03*
X556031D02*
D03*
X570713Y422000D02*
D03*
X566776D02*
D03*
X581713Y427000D02*
D03*
X577776D02*
D03*
X588776Y421500D02*
D03*
X592713D02*
D03*
X602713Y427000D02*
D03*
X598776D02*
D03*
X586332Y314600D02*
D03*
X590269D02*
D03*
X587632Y281200D02*
D03*
X591569D02*
D03*
X542032Y276000D02*
D03*
X545969D02*
D03*
X491532Y298000D02*
D03*
X495469D02*
D03*
X460532Y307000D02*
D03*
X464469D02*
D03*
X535532Y319000D02*
D03*
X539469D02*
D03*
D25*
X519000Y336500D02*
D03*
Y332500D02*
D03*
D26*
X514356Y378000D02*
X517500Y374856D01*
X608978Y364707D02*
Y371185D01*
X512717Y286100D02*
Y294000D01*
X519000Y332600D02*
X524500D01*
X409000Y360744D02*
X412944D01*
X591600Y281100D02*
X596300Y285800D01*
X514650Y388450D02*
Y388500D01*
X517000Y336300D02*
X519000D01*
X593012Y397622D02*
X602400D01*
X605300Y381815D02*
Y386785D01*
X552100Y357200D02*
Y357800D01*
X546752Y351852D02*
X552100Y357200D01*
X544000Y311600D02*
X555737Y323337D01*
X558000Y331000D02*
X558563Y331563D01*
Y333937D01*
X378000Y369521D02*
X380479Y372000D01*
X388244D02*
X397900Y362344D01*
X388973Y368350D02*
X393000Y364323D01*
Y362000D02*
Y364323D01*
X384995Y366318D02*
X387027Y368350D01*
X384995Y360000D02*
Y366318D01*
X387027Y368350D02*
X388973D01*
X388000Y361750D02*
Y366000D01*
X605290Y307000D02*
X606300Y305990D01*
X588000Y307000D02*
X605290D01*
X586332Y308668D02*
X588000Y307000D01*
X586332Y308668D02*
Y314600D01*
X601000D02*
X605700Y319300D01*
X590269Y314600D02*
X601000D01*
X605700Y319300D02*
Y361373D01*
X512717Y294000D02*
Y302283D01*
X510500Y304500D02*
X512717Y302283D01*
X488720Y307280D02*
X491500Y304500D01*
X478000Y307280D02*
X488720D01*
X545969Y276000D02*
X549469Y272500D01*
X539000Y288720D02*
X543500Y293220D01*
X539000Y279032D02*
Y288720D01*
Y279032D02*
X542032Y276000D01*
X549469Y272500D02*
X600337D01*
X573000Y280000D02*
X573030Y280030D01*
X586815D01*
X587646Y280977D01*
X613100Y289900D02*
Y356200D01*
X609000Y285800D02*
X613100Y289900D01*
X596300Y285800D02*
X609000D01*
X607300Y361818D02*
X611698Y357420D01*
X607300Y361818D02*
Y367819D01*
X611698Y357420D02*
X611880D01*
X613100Y356200D01*
X380400Y434406D02*
Y443347D01*
X517500Y374856D02*
X518546Y373809D01*
X517500Y383500D02*
Y391272D01*
Y374856D02*
Y383500D01*
X520256Y386256D01*
X512000Y378000D02*
X517500Y383500D01*
X506050Y372613D02*
Y385350D01*
X510000Y392650D02*
Y394744D01*
Y392650D02*
X511250Y391400D01*
X520156D01*
X520256Y391300D01*
Y388500D02*
Y391300D01*
X404500Y449000D02*
X411900Y441600D01*
Y421600D02*
Y441600D01*
Y421600D02*
X412000Y421500D01*
X418100D01*
X418200Y421600D01*
Y457500D01*
X416950Y458750D02*
X418200Y457500D01*
X364350Y458750D02*
X416950D01*
X363100Y457500D02*
X364350Y458750D01*
X363100Y431100D02*
Y457500D01*
Y431100D02*
X363200Y431000D01*
X370000D01*
X372500Y428500D01*
X379000D01*
X362600Y428244D02*
X366000D01*
X512000Y374063D02*
X515737D01*
X521300Y368500D01*
Y358552D02*
Y368500D01*
Y358552D02*
X521600Y358252D01*
X522900Y362321D02*
Y369456D01*
X512000Y378000D02*
X514356D01*
X519000Y361469D02*
Y366433D01*
X515400Y367533D02*
X519000Y366433D01*
X515400Y376800D02*
X518400Y373663D01*
X518546Y373809D01*
X522900Y369456D01*
Y362321D02*
X525000Y360220D01*
X507500Y374063D02*
X512000D01*
X506050Y372613D02*
X507500Y374063D01*
X506050Y318150D02*
Y372613D01*
X507500Y316700D02*
X539369D01*
X514650Y388500D02*
X514744D01*
X509150Y388450D02*
X514650D01*
X506050Y385350D02*
X509150Y388450D01*
X506050Y318150D02*
X507500Y316700D01*
X539369D02*
X539469Y316800D01*
Y319000D01*
X478500Y427719D02*
Y440153D01*
X461581Y410800D02*
X478500Y427719D01*
X461581Y389900D02*
Y410800D01*
Y389900D02*
X461681Y389800D01*
X486300D01*
X493919Y397419D01*
X517081D01*
X523489Y391011D01*
Y376732D02*
Y391011D01*
Y376732D02*
X526222Y374000D01*
X504200Y294600D02*
X512700Y286100D01*
X504200Y294600D02*
Y387600D01*
X507972Y391372D01*
X517400D01*
X517500Y391272D01*
X573000Y286100D02*
Y294000D01*
X545776Y421500D02*
X549713D01*
X541219D02*
X545776D01*
X540798Y421920D02*
X541219Y421500D01*
X538878Y420000D02*
X540798Y421920D01*
X545776Y421500D01*
X538969Y423750D02*
X540798Y421920D01*
X538969Y423750D02*
Y429000D01*
X535031D02*
X538969D01*
X372700Y386600D02*
X378000Y391900D01*
X530400Y332600D02*
X535500Y337700D01*
X378000Y399400D02*
Y412500D01*
Y391900D02*
Y399400D01*
X541450Y362266D02*
Y371887D01*
X524500Y332600D02*
X530400D01*
X535500Y337700D02*
Y338100D01*
X542715Y332600D02*
X542815Y332700D01*
X530400Y332600D02*
X542715D01*
X519000Y332500D02*
Y332600D01*
X541373Y362189D02*
X541450Y362266D01*
X549713Y421500D02*
X553781D01*
X556031Y423750D01*
Y428000D01*
X378000Y412500D02*
Y422000D01*
X382000Y426000D01*
Y445000D01*
X380447Y446553D02*
X382000Y445000D01*
X380447Y446553D02*
Y451250D01*
X382250Y453053D01*
X386797D01*
X388600Y451250D01*
Y436400D02*
Y451250D01*
Y436400D02*
X396945Y428055D01*
Y427417D02*
Y428055D01*
X556031Y428000D02*
X559969D01*
X535031Y424281D02*
Y429000D01*
X533750Y423000D02*
X535031Y424281D01*
X527713Y423000D02*
X533750D01*
X523776D02*
X527713D01*
X559969Y423281D02*
Y428000D01*
Y423281D02*
X561250Y422000D01*
X566776D01*
X570713D01*
X396945Y413750D02*
Y427417D01*
Y413750D02*
X398695Y412000D01*
X412700D01*
X414700Y410000D01*
Y362500D02*
Y410000D01*
X412944Y360744D02*
X414700Y362500D01*
X570713Y422000D02*
Y425213D01*
X572500Y427000D01*
X577776D01*
X581713D01*
Y429487D01*
X580900Y430300D02*
X581713Y429487D01*
X588776Y421500D02*
Y430300D01*
Y421500D02*
X592713D01*
Y425000D01*
X594713Y427000D01*
X598776D01*
X602713D01*
Y410240D02*
Y427000D01*
Y410240D02*
X605000Y407953D01*
X610297D01*
X612000Y406250D01*
Y397756D02*
Y406250D01*
X602534Y397756D02*
X612000D01*
X602400Y397622D02*
X602534Y397756D01*
X608978Y364707D02*
X615500Y360685D01*
X605500Y371185D02*
X608978D01*
X520256Y386256D02*
Y388500D01*
X366000Y433756D02*
X372100D01*
X372750Y434406D01*
X379000D01*
X380400D01*
X378847Y444900D02*
X380400Y443347D01*
X378847Y444900D02*
Y452500D01*
X381000Y454653D01*
X412197D01*
X415055Y451795D01*
Y427417D02*
Y451795D01*
X474000Y400342D02*
X491900D01*
X491986Y400256D01*
X510000D01*
Y412467D01*
X493500Y428967D02*
X510000Y412467D01*
X493500Y428967D02*
Y440547D01*
X460100D02*
X462500D01*
X459981Y440428D02*
X460100Y440547D01*
X459981Y388311D02*
Y440428D01*
Y388311D02*
X474000Y374292D01*
Y355657D02*
Y374292D01*
X444500Y440547D02*
X460100D01*
X518750Y319000D02*
X535532D01*
X516900Y320850D02*
X518750Y319000D01*
X516900Y320850D02*
Y336200D01*
X517000Y336300D01*
X519000D02*
Y336500D01*
X509000Y343244D02*
X517500D01*
X519000Y341744D01*
Y356333D01*
X519050Y356283D01*
X519000Y336500D02*
Y341744D01*
Y356333D02*
Y357532D01*
X527200Y389330D02*
Y396672D01*
X521400Y402472D02*
X527200Y396672D01*
X521400Y402472D02*
Y446250D01*
X525303Y450153D01*
X604547D01*
X614900Y439800D01*
Y432500D02*
Y439800D01*
X586400Y432500D02*
X588100Y434200D01*
X586400Y415000D02*
Y432500D01*
Y415000D02*
X599353Y402047D01*
X612000Y392244D02*
X614800D01*
X614900Y392344D01*
Y432500D01*
X613200Y434200D02*
X614900Y432500D01*
X588100Y434200D02*
X613200D01*
X599353Y402047D02*
X605000D01*
X598400Y393685D02*
X605300Y386785D01*
Y381815D02*
X605500D01*
X616700Y339300D02*
X621400Y344000D01*
Y368600D01*
X619185Y370815D02*
X621400Y368600D01*
X615500Y371315D02*
X619185Y370815D01*
X397900Y354300D02*
X397944Y354256D01*
X403000D01*
X399816Y347484D02*
X401075Y348744D01*
X403000D01*
X404897Y340603D02*
X407756Y337744D01*
X408500D01*
X411400Y338500D02*
X412500Y337400D01*
X411400Y338500D02*
Y343156D01*
X411300Y343256D02*
X411400Y343156D01*
X408500Y343256D02*
X411300D01*
X365000Y353256D02*
X369800D01*
X371635Y351421D01*
X376445D01*
X365000Y347744D02*
X369800D01*
X371509Y349453D01*
X376445D01*
X397900Y360000D02*
Y362344D01*
X396300Y358400D02*
X397900Y360000D01*
X377744Y372000D02*
X380479D01*
X491532Y282439D02*
Y298000D01*
Y282439D02*
X493750Y280220D01*
X512717D01*
X460532Y304400D02*
Y307000D01*
Y304400D02*
X466732Y298200D01*
X473300D01*
X478000Y293500D01*
X468799Y440153D02*
X478500D01*
X462500Y446453D02*
X468799Y440153D01*
X493500Y446453D02*
X498700D01*
X503235Y441917D01*
X506217D01*
X504300Y440000D02*
X506217Y441917D01*
X504300Y422400D02*
X515700Y411000D01*
Y403284D02*
Y411000D01*
X525572Y379300D02*
Y393412D01*
X506217Y441917D02*
X508500D01*
X504300Y422400D02*
Y440000D01*
X515700Y403284D02*
X525572Y393412D01*
X584154Y393750D02*
X586057Y395654D01*
X546800Y359954D02*
X582500Y395654D01*
X546800Y359954D02*
Y392146D01*
X540846Y398100D02*
X546800Y392146D01*
X539502Y379906D02*
X540846Y381250D01*
X521900Y335400D02*
Y348750D01*
X523528Y350378D01*
X388453Y326347D02*
X389900Y324900D01*
X438900Y419400D02*
X443000Y423500D01*
X438900Y358500D02*
Y419400D01*
X586000Y357200D02*
X588600Y354600D01*
X586000Y357200D02*
Y378174D01*
X584000Y413800D02*
X586122Y411678D01*
X584000Y413800D02*
Y438500D01*
X578000Y444500D02*
X584000Y438500D01*
X443000Y311300D02*
Y333500D01*
Y311300D02*
X478200Y276100D01*
X517200D01*
X518600Y277500D01*
Y310200D01*
X520000Y311600D01*
X544000D01*
X443000Y413500D02*
X456700D01*
X456800Y413400D01*
Y349900D02*
Y413400D01*
Y349900D02*
X487300Y319400D01*
X443000Y403500D02*
X447900Y398600D01*
Y331600D02*
Y398600D01*
Y331600D02*
X457400Y322100D01*
X564500Y327000D02*
Y335632D01*
X400006Y341250D02*
X401540D01*
X404300Y344010D01*
Y344900D01*
X520400Y375278D02*
Y378500D01*
Y375278D02*
X520802Y374875D01*
Y373816D02*
Y374875D01*
Y373816D02*
X524555Y370063D01*
X398984Y345516D02*
X400300Y344200D01*
X525450Y367550D02*
X525994Y368094D01*
X401979Y334600D02*
X418750D01*
X420000Y335850D01*
Y360600D01*
X597900Y379906D02*
X599706Y378100D01*
X630200D01*
X631900Y379800D01*
Y415400D01*
X638500Y422000D01*
X599900Y359189D02*
X602000Y357089D01*
Y333000D02*
Y357089D01*
X599593Y364157D02*
X600843Y362907D01*
X588400Y374500D02*
X589500Y373400D01*
X600754Y366319D02*
X605700Y361373D01*
X600181Y366319D02*
X600754D01*
X607200Y367919D02*
X607300Y367819D01*
X599581Y367919D02*
X607200D01*
X597437Y370063D02*
X599581Y367919D01*
X600337Y272500D02*
X623000Y295163D01*
Y372000D01*
X619500Y375500D02*
X623000Y372000D01*
X602368Y375500D02*
X619500D01*
X598900Y372032D02*
X602368Y375500D01*
X495469Y298000D02*
Y368969D01*
X497000Y370500D01*
X501000D01*
X544783Y398017D02*
X557000Y385800D01*
X464469Y307000D02*
Y329931D01*
X453600Y340800D02*
X464469Y329931D01*
X453600Y340800D02*
Y403600D01*
X371584Y344700D02*
X372400Y345516D01*
X362200Y344700D02*
X371584D01*
X362100Y344800D02*
X362200Y344700D01*
X362100Y344800D02*
Y363800D01*
X384500Y386200D01*
Y449000D01*
X360500Y343300D02*
Y415000D01*
Y343300D02*
X360600Y343200D01*
D27*
X578000Y335000D02*
Y343000D01*
X385900Y327900D02*
Y331900D01*
X386484Y332484D01*
Y337445D01*
X378000Y358134D02*
X380579Y355555D01*
X382547D02*
Y359453D01*
X384516Y355555D02*
Y359521D01*
D28*
X535200Y404600D02*
X538878D01*
X584737Y329737D02*
X589000Y334000D01*
X582185Y332185D02*
Y343488D01*
X582000Y332000D02*
X582185Y332185D01*
X573263Y329737D02*
X584737D01*
X573000Y330000D02*
X573263Y329737D01*
X589000Y334000D02*
Y340610D01*
X586122Y343488D02*
X589000Y340610D01*
X589636Y345636D02*
Y352210D01*
X589000Y345000D02*
X589636Y345636D01*
X589600Y352246D02*
X589636Y352210D01*
X584154Y343488D02*
Y393750D01*
X574018Y353000D02*
X580217Y346801D01*
Y343488D02*
Y346801D01*
X574000Y353000D02*
X574018D01*
X540846Y343488D02*
Y348300D01*
X531988Y379906D02*
X539502D01*
X593012Y350378D02*
X594800D01*
X593012Y370063D02*
X597437D01*
X593012Y391717D02*
X596400D01*
X531988Y372032D02*
X536218D01*
X593012Y362189D02*
X596900D01*
X593012Y372032D02*
X598900D01*
X531988Y366126D02*
X536124D01*
X586122Y404512D02*
Y411678D01*
X574311Y404512D02*
Y423700D01*
X546752Y343488D02*
Y351852D01*
X593012Y364157D02*
X599593D01*
X560532Y404512D02*
Y413000D01*
X531988Y362189D02*
X535400D01*
X531988Y377937D02*
X535400D01*
X538878Y404600D02*
Y420000D01*
X542815Y404512D02*
Y412700D01*
X548720Y343488D02*
Y347520D01*
X593012Y379906D02*
X597900D01*
X550689Y343488D02*
Y346250D01*
X593012Y368094D02*
X595500D01*
X593012Y393685D02*
X598400D01*
X550689Y346250D02*
X564996Y360557D01*
X594800Y347850D02*
Y350378D01*
X555737Y333251D02*
X556594Y334109D01*
X555737Y323337D02*
Y333251D01*
X556594Y334109D02*
Y343488D01*
X521600Y358252D02*
X531988D01*
X525000Y360220D02*
X531988D01*
X526222Y374000D02*
X531988D01*
X538878Y404512D02*
Y404600D01*
X535400Y377937D02*
X541450Y371887D01*
X535400Y362189D02*
X541373D01*
X542815Y332700D02*
Y343488D01*
X535400Y362189D02*
X535500Y338100D01*
X519050Y356283D02*
X531988D01*
X528750Y387780D02*
X531988D01*
X527200Y389330D02*
X528750Y387780D01*
X525572Y379300D02*
X528903Y375969D01*
X531988D01*
X582500Y395654D02*
X586057D01*
X593012D01*
X540846Y348300D02*
X546800Y354254D01*
Y359954D01*
X540846Y381250D02*
Y398100D01*
Y404512D01*
X523528Y350378D02*
X531988D01*
X538878Y335800D02*
Y343488D01*
X548720Y347520D02*
X567500Y366300D01*
X586000Y378174D02*
X589700Y381874D01*
X593012D01*
X596400Y391717D02*
X597800Y390317D01*
X558563Y333937D02*
Y343488D01*
X560532Y339600D02*
X564500Y335632D01*
X560532Y339600D02*
Y343488D01*
X594800Y347850D02*
X597450Y345200D01*
X589600Y352246D02*
X593012Y352346D01*
X524555Y370063D02*
X531988D01*
X525994Y368094D02*
X531988D01*
X536124Y366126D02*
X537323Y364927D01*
X576280Y393500D02*
Y404512D01*
X596900Y362189D02*
X599900Y359189D01*
X589600Y366126D02*
X593012D01*
X589500Y366226D02*
X589600Y366126D01*
X589500Y366226D02*
Y373400D01*
X597275Y366319D02*
X600181D01*
X595500Y368094D02*
X597275Y366319D01*
X544783Y398017D02*
Y404512D01*
D29*
X390421Y354700D02*
X393100D01*
X382000Y360000D02*
X382547Y359453D01*
X378000Y358134D02*
Y369521D01*
X388000Y360250D02*
Y361750D01*
X386484Y358734D02*
X388000Y360250D01*
X393200Y351421D02*
X394555D01*
X390421Y354700D02*
X393200Y351421D01*
X390421Y354700D02*
Y355555D01*
X386484D02*
Y358734D01*
X394555Y347484D02*
X399816D01*
X388553Y358400D02*
X396300D01*
X388453Y358300D02*
X388553Y358400D01*
X388453Y355555D02*
Y358300D01*
Y326347D02*
Y337445D01*
X394555Y343547D02*
X397709D01*
X400006Y341250D01*
X394555Y345516D02*
X398984D01*
X394555Y341579D02*
X395000D01*
X401979Y334600D01*
X372400Y345516D02*
X376445D01*
X360600Y343200D02*
X374000D01*
X374347Y343547D01*
X376445D01*
D30*
X384516Y359521D02*
X384995Y360000D01*
D31*
X588000Y444500D02*
D03*
X404500Y449000D02*
D03*
X628000Y444000D02*
D03*
D32*
X578000Y444500D02*
D03*
X568000D02*
D03*
X558000D02*
D03*
X548000D02*
D03*
X538000D02*
D03*
X374500Y449000D02*
D03*
X384500D02*
D03*
X394500D02*
D03*
X638000Y444000D02*
D03*
X443000Y403500D02*
D03*
Y333500D02*
D03*
Y343500D02*
D03*
Y353500D02*
D03*
Y363500D02*
D03*
Y373500D02*
D03*
Y383500D02*
D03*
Y393500D02*
D03*
Y413500D02*
D03*
X638500Y403500D02*
D03*
Y333500D02*
D03*
Y343500D02*
D03*
Y353500D02*
D03*
Y363500D02*
D03*
Y373500D02*
D03*
Y383500D02*
D03*
Y393500D02*
D03*
Y413500D02*
D03*
D33*
X578000Y335000D02*
D03*
X582000Y332000D02*
D03*
X573000Y330000D02*
D03*
X589000Y345000D02*
D03*
X574000Y353000D02*
D03*
X564996Y360557D02*
D03*
X552100Y357800D02*
D03*
X385900Y327900D02*
D03*
X558000Y331000D02*
D03*
X382000Y360000D02*
D03*
X393000Y362000D02*
D03*
X388000Y366000D02*
D03*
X510500Y304500D02*
D03*
X491500D02*
D03*
X362600Y428244D02*
D03*
X515400Y367533D02*
D03*
Y376800D02*
D03*
X512700Y286100D02*
D03*
X512717D02*
D03*
X573000D02*
D03*
X535200Y404600D02*
D03*
X378000Y399400D02*
D03*
X372700Y386600D02*
D03*
X524500Y332600D02*
D03*
X393100Y354700D02*
D03*
X530400Y332600D02*
D03*
X580900Y430300D02*
D03*
X588776D02*
D03*
X616700Y339300D02*
D03*
X397900Y354300D02*
D03*
X404897Y340603D02*
D03*
X412500Y337400D02*
D03*
X536218Y372032D02*
D03*
X521900Y335400D02*
D03*
X389900Y324900D02*
D03*
X538878Y335800D02*
D03*
X567500Y366300D02*
D03*
X438900Y358500D02*
D03*
X588600Y354600D02*
D03*
X597800Y390317D02*
D03*
X487300Y319400D02*
D03*
X457400Y322100D02*
D03*
X564500Y327000D02*
D03*
X560532Y413000D02*
D03*
X597450Y345200D02*
D03*
X404300Y344900D02*
D03*
X520400Y378500D02*
D03*
X400300Y344200D02*
D03*
X525450Y367550D02*
D03*
X420000Y360600D02*
D03*
X537323Y364927D02*
D03*
X576280Y393500D02*
D03*
X574311Y423700D02*
D03*
X602000Y333000D02*
D03*
X600843Y362907D02*
D03*
X588400Y374500D02*
D03*
X501000Y370500D02*
D03*
X557000Y385800D02*
D03*
X453600Y403600D02*
D03*
X542815Y412700D02*
D03*
X360500Y415000D02*
D03*
X387665Y344335D02*
D03*
X383335D02*
D03*
X387665Y348665D02*
D03*
X383335D02*
D03*
M02*
