G04 Layer_Color=16711935*
%FSLAX25Y25*%
%MOIN*%
G70*
G01*
G75*
%ADD50R,0.06706X0.06706*%
%ADD56C,0.06706*%
%ADD57R,0.06706X0.06706*%
%ADD58C,0.03300*%
D50*
X638500Y423500D02*
D03*
X443000D02*
D03*
D56*
X638500Y413500D02*
D03*
Y393500D02*
D03*
Y383500D02*
D03*
Y373500D02*
D03*
Y363500D02*
D03*
Y353500D02*
D03*
Y343500D02*
D03*
Y333500D02*
D03*
Y403500D02*
D03*
X443000Y413500D02*
D03*
Y393500D02*
D03*
Y383500D02*
D03*
Y373500D02*
D03*
Y363500D02*
D03*
Y353500D02*
D03*
Y343500D02*
D03*
Y333500D02*
D03*
Y403500D02*
D03*
X442000Y451000D02*
D03*
X383000Y452000D02*
D03*
X373000D02*
D03*
X363000D02*
D03*
X483000D02*
D03*
X538000D02*
D03*
X548000D02*
D03*
X558000D02*
D03*
X568000D02*
D03*
X578000D02*
D03*
D57*
X432000Y451000D02*
D03*
X393000Y452000D02*
D03*
X493000D02*
D03*
X588000D02*
D03*
D58*
X601000Y401000D02*
D03*
X587000Y415000D02*
D03*
X600000Y391000D02*
D03*
X585000Y432000D02*
D03*
X425900Y345500D02*
D03*
X422000Y377553D02*
D03*
X488000Y377000D02*
D03*
X517000D02*
D03*
X402000Y369000D02*
D03*
X387000Y366000D02*
D03*
X383335Y348665D02*
D03*
X387665D02*
D03*
X383335Y344335D02*
D03*
X387665D02*
D03*
X446000Y313000D02*
D03*
X499000Y314000D02*
D03*
X488000Y322000D02*
D03*
X542815Y412700D02*
D03*
X453600Y403600D02*
D03*
X557000Y385800D02*
D03*
X501000Y370500D02*
D03*
X588400Y374500D02*
D03*
X600843Y362907D02*
D03*
X602000Y333000D02*
D03*
X537323Y364927D02*
D03*
X420000Y360600D02*
D03*
X525450Y367550D02*
D03*
X404300Y344900D02*
D03*
X597450Y345200D02*
D03*
X564500Y327000D02*
D03*
X457400Y322100D02*
D03*
X588600Y354600D02*
D03*
X438900Y358500D02*
D03*
X567500Y366300D02*
D03*
X538878Y335800D02*
D03*
X389900Y324900D02*
D03*
X521900Y335400D02*
D03*
X536218Y372032D02*
D03*
X616700Y339300D02*
D03*
X530400Y332600D02*
D03*
X524500D02*
D03*
X535200Y404600D02*
D03*
X558000Y331000D02*
D03*
X385900Y327900D02*
D03*
X552100Y357800D02*
D03*
X564996Y360557D02*
D03*
X574000Y353000D02*
D03*
X589000Y345000D02*
D03*
X573000Y330000D02*
D03*
X582000Y332000D02*
D03*
X578000Y335000D02*
D03*
X399635Y346146D02*
D03*
X389000Y422000D02*
D03*
X360000Y417000D02*
D03*
X560532Y413000D02*
D03*
X571000Y393000D02*
D03*
X578382Y411000D02*
D03*
M02*
