G04 Layer_Color=65535*
%FSLAX25Y25*%
%MOIN*%
G70*
G01*
G75*
%ADD27C,0.01000*%
%ADD35C,0.00984*%
%ADD36C,0.02362*%
%ADD37C,0.00787*%
%ADD38C,0.00500*%
D27*
X586149Y432936D02*
X585361Y433723D01*
X583787D01*
X583000Y432936D01*
Y429787D01*
X583787Y429000D01*
X585361D01*
X586149Y429787D01*
X587723Y429000D02*
X589297D01*
X588510D01*
Y433723D01*
X587723Y432936D01*
X591659Y429000D02*
X593233D01*
X592446D01*
Y433723D01*
X591659Y432936D01*
X595594D02*
X596382Y433723D01*
X597956D01*
X598743Y432936D01*
Y432149D01*
X597956Y431361D01*
X597169D01*
X597956D01*
X598743Y430574D01*
Y429787D01*
X597956Y429000D01*
X596382D01*
X595594Y429787D01*
X624002Y402999D02*
X623002Y401999D01*
Y400000D01*
X624002Y399000D01*
X625001D01*
X626001Y400000D01*
Y401999D01*
X627001Y402999D01*
X628000D01*
X629000Y401999D01*
Y400000D01*
X628000Y399000D01*
X623002Y404998D02*
X629000D01*
Y407997D01*
X628000Y408997D01*
X627001D01*
X626001Y407997D01*
Y404998D01*
Y407997D01*
X625001Y408997D01*
X624002D01*
X623002Y407997D01*
Y404998D01*
Y410996D02*
X629000D01*
Y413995D01*
X628000Y414995D01*
X627001D01*
X626001Y413995D01*
Y410996D01*
Y413995D01*
X625001Y414995D01*
X624002D01*
X623002Y413995D01*
Y410996D01*
X620000Y400000D02*
X614002D01*
Y402999D01*
X615002Y403999D01*
X617001D01*
X618001Y402999D01*
Y400000D01*
Y401999D02*
X620000Y403999D01*
X614002Y405998D02*
X620000D01*
Y408997D01*
X619000Y409997D01*
X618001D01*
X617001Y408997D01*
Y405998D01*
Y408997D01*
X616001Y409997D01*
X615002D01*
X614002Y408997D01*
Y405998D01*
X620000Y411996D02*
Y413996D01*
Y412996D01*
X614002D01*
X615002Y411996D01*
X611000Y400000D02*
X605002D01*
Y402999D01*
X606002Y403999D01*
X608001D01*
X609001Y402999D01*
Y400000D01*
Y401999D02*
X611000Y403999D01*
X605002Y405998D02*
X611000D01*
Y408997D01*
X610000Y409997D01*
X609001D01*
X608001Y408997D01*
Y405998D01*
Y408997D01*
X607001Y409997D01*
X606002D01*
X605002Y408997D01*
Y405998D01*
X611000Y415995D02*
Y411996D01*
X607001Y415995D01*
X606002D01*
X605002Y414995D01*
Y412996D01*
X606002Y411996D01*
X453277Y366000D02*
X458000Y369149D01*
X453277D02*
X458000Y366000D01*
X453277Y370723D02*
Y373871D01*
Y372297D01*
X458000D01*
X453277Y375446D02*
X458000D01*
Y378594D01*
Y380169D02*
Y381743D01*
Y380956D01*
X453277D01*
X454064Y380169D01*
X355000Y340723D02*
X358149D01*
X356574D01*
Y336000D01*
X362872D02*
X359723D01*
X362872Y339149D01*
Y339936D01*
X362084Y340723D01*
X360510D01*
X359723Y339936D01*
X364446D02*
X365233Y340723D01*
X366807D01*
X367594Y339936D01*
Y336787D01*
X366807Y336000D01*
X365233D01*
X364446Y336787D01*
Y339936D01*
X369169D02*
X369956Y340723D01*
X371530D01*
X372317Y339936D01*
Y336787D01*
X371530Y336000D01*
X369956D01*
X369169Y336787D01*
Y339936D01*
X409149Y439936D02*
X408361Y440723D01*
X406787D01*
X406000Y439936D01*
Y436787D01*
X406787Y436000D01*
X408361D01*
X409149Y436787D01*
X410723Y436000D02*
X412297D01*
X411510D01*
Y440723D01*
X410723Y439936D01*
X430149D02*
X429361Y440723D01*
X427787D01*
X427000Y439936D01*
Y436787D01*
X427787Y436000D01*
X429361D01*
X430149Y436787D01*
X434871Y436000D02*
X431723D01*
X434871Y439149D01*
Y439936D01*
X434084Y440723D01*
X432510D01*
X431723Y439936D01*
X491649Y399436D02*
X490861Y400223D01*
X489287D01*
X488500Y399436D01*
Y396287D01*
X489287Y395500D01*
X490861D01*
X491649Y396287D01*
X493223Y395500D02*
X494797D01*
X494010D01*
Y400223D01*
X493223Y399436D01*
X497159D02*
X497946Y400223D01*
X499520D01*
X500307Y399436D01*
Y396287D01*
X499520Y395500D01*
X497946D01*
X497159Y396287D01*
Y399436D01*
X501882D02*
X502669Y400223D01*
X504243D01*
X505030Y399436D01*
Y396287D01*
X504243Y395500D01*
X502669D01*
X501882Y396287D01*
Y399436D01*
X451064Y428149D02*
X450277Y427361D01*
Y425787D01*
X451064Y425000D01*
X454213D01*
X455000Y425787D01*
Y427361D01*
X454213Y428149D01*
X455000Y429723D02*
Y431297D01*
Y430510D01*
X450277D01*
X451064Y429723D01*
Y433659D02*
X450277Y434446D01*
Y436020D01*
X451064Y436807D01*
X454213D01*
X455000Y436020D01*
Y434446D01*
X454213Y433659D01*
X451064D01*
X455000Y438381D02*
Y439956D01*
Y439169D01*
X450277D01*
X451064Y438381D01*
X494649Y388436D02*
X493861Y389223D01*
X492287D01*
X491500Y388436D01*
Y385287D01*
X492287Y384500D01*
X493861D01*
X494649Y385287D01*
X496223Y384500D02*
X497797D01*
X497010D01*
Y389223D01*
X496223Y388436D01*
X500159D02*
X500946Y389223D01*
X502520D01*
X503307Y388436D01*
Y385287D01*
X502520Y384500D01*
X500946D01*
X500159Y385287D01*
Y388436D01*
X508030Y384500D02*
X504881D01*
X508030Y387649D01*
Y388436D01*
X507243Y389223D01*
X505669D01*
X504881Y388436D01*
X492149Y373404D02*
X491361Y374191D01*
X489787D01*
X489000Y373404D01*
Y370255D01*
X489787Y369468D01*
X491361D01*
X492149Y370255D01*
X493723Y369468D02*
X495297D01*
X494510D01*
Y374191D01*
X493723Y373404D01*
X497659D02*
X498446Y374191D01*
X500020D01*
X500807Y373404D01*
Y370255D01*
X500020Y369468D01*
X498446D01*
X497659Y370255D01*
Y373404D01*
X502382D02*
X503169Y374191D01*
X504743D01*
X505530Y373404D01*
Y372617D01*
X504743Y371830D01*
X503956D01*
X504743D01*
X505530Y371043D01*
Y370255D01*
X504743Y369468D01*
X503169D01*
X502382Y370255D01*
X490149Y347436D02*
X489361Y348223D01*
X487787D01*
X487000Y347436D01*
Y344287D01*
X487787Y343500D01*
X489361D01*
X490149Y344287D01*
X491723Y343500D02*
X493297D01*
X492510D01*
Y348223D01*
X491723Y347436D01*
X495659D02*
X496446Y348223D01*
X498020D01*
X498807Y347436D01*
Y344287D01*
X498020Y343500D01*
X496446D01*
X495659Y344287D01*
Y347436D01*
X502743Y343500D02*
Y348223D01*
X500382Y345861D01*
X503530D01*
X522064Y345149D02*
X521277Y344361D01*
Y342787D01*
X522064Y342000D01*
X525213D01*
X526000Y342787D01*
Y344361D01*
X525213Y345149D01*
X526000Y346723D02*
Y348297D01*
Y347510D01*
X521277D01*
X522064Y346723D01*
Y350659D02*
X521277Y351446D01*
Y353020D01*
X522064Y353807D01*
X525213D01*
X526000Y353020D01*
Y351446D01*
X525213Y350659D01*
X522064D01*
X521277Y358530D02*
Y355381D01*
X523639D01*
X522851Y356956D01*
Y357743D01*
X523639Y358530D01*
X525213D01*
X526000Y357743D01*
Y356169D01*
X525213Y355381D01*
X530149Y425936D02*
X529361Y426723D01*
X527787D01*
X527000Y425936D01*
Y422787D01*
X527787Y422000D01*
X529361D01*
X530149Y422787D01*
X531723Y422000D02*
X533297D01*
X532510D01*
Y426723D01*
X531723Y425936D01*
X535659D02*
X536446Y426723D01*
X538020D01*
X538807Y425936D01*
Y422787D01*
X538020Y422000D01*
X536446D01*
X535659Y422787D01*
Y425936D01*
X543530Y426723D02*
X541956Y425936D01*
X540381Y424361D01*
Y422787D01*
X541169Y422000D01*
X542743D01*
X543530Y422787D01*
Y423574D01*
X542743Y424361D01*
X540381D01*
X531649Y436936D02*
X530861Y437723D01*
X529287D01*
X528500Y436936D01*
Y433787D01*
X529287Y433000D01*
X530861D01*
X531649Y433787D01*
X533223Y433000D02*
X534797D01*
X534010D01*
Y437723D01*
X533223Y436936D01*
X537159D02*
X537946Y437723D01*
X539520D01*
X540307Y436936D01*
Y433787D01*
X539520Y433000D01*
X537946D01*
X537159Y433787D01*
Y436936D01*
X541882Y437723D02*
X545030D01*
Y436936D01*
X541882Y433787D01*
Y433000D01*
X541149Y417936D02*
X540361Y418723D01*
X538787D01*
X538000Y417936D01*
Y414787D01*
X538787Y414000D01*
X540361D01*
X541149Y414787D01*
X542723Y414000D02*
X544297D01*
X543510D01*
Y418723D01*
X542723Y417936D01*
X546659D02*
X547446Y418723D01*
X549020D01*
X549807Y417936D01*
Y414787D01*
X549020Y414000D01*
X547446D01*
X546659Y414787D01*
Y417936D01*
X551381D02*
X552169Y418723D01*
X553743D01*
X554530Y417936D01*
Y417149D01*
X553743Y416361D01*
X554530Y415574D01*
Y414787D01*
X553743Y414000D01*
X552169D01*
X551381Y414787D01*
Y415574D01*
X552169Y416361D01*
X551381Y417149D01*
Y417936D01*
X552169Y416361D02*
X553743D01*
X549149Y433936D02*
X548361Y434723D01*
X546787D01*
X546000Y433936D01*
Y430787D01*
X546787Y430000D01*
X548361D01*
X549149Y430787D01*
X550723Y430000D02*
X552297D01*
X551510D01*
Y434723D01*
X550723Y433936D01*
X554659D02*
X555446Y434723D01*
X557020D01*
X557807Y433936D01*
Y430787D01*
X557020Y430000D01*
X555446D01*
X554659Y430787D01*
Y433936D01*
X559381Y430787D02*
X560169Y430000D01*
X561743D01*
X562530Y430787D01*
Y433936D01*
X561743Y434723D01*
X560169D01*
X559381Y433936D01*
Y433149D01*
X560169Y432361D01*
X562530D01*
X558149Y442936D02*
X557361Y443723D01*
X555787D01*
X555000Y442936D01*
Y439787D01*
X555787Y439000D01*
X557361D01*
X558149Y439787D01*
X559723Y439000D02*
X561297D01*
X560510D01*
Y443723D01*
X559723Y442936D01*
X563659Y439000D02*
X565233D01*
X564446D01*
Y443723D01*
X563659Y442936D01*
X567594D02*
X568382Y443723D01*
X569956D01*
X570743Y442936D01*
Y439787D01*
X569956Y439000D01*
X568382D01*
X567594Y439787D01*
Y442936D01*
X570149Y423936D02*
X569361Y424723D01*
X567787D01*
X567000Y423936D01*
Y420787D01*
X567787Y420000D01*
X569361D01*
X570149Y420787D01*
X571723Y420000D02*
X573297D01*
X572510D01*
Y424723D01*
X571723Y423936D01*
X575659Y420000D02*
X577233D01*
X576446D01*
Y424723D01*
X575659Y423936D01*
X579594Y420000D02*
X581169D01*
X580381D01*
Y424723D01*
X579594Y423936D01*
X599149Y442936D02*
X598361Y443723D01*
X596787D01*
X596000Y442936D01*
Y439787D01*
X596787Y439000D01*
X598361D01*
X599149Y439787D01*
X600723Y439000D02*
X602297D01*
X601510D01*
Y443723D01*
X600723Y442936D01*
X604659Y439000D02*
X606233D01*
X605446D01*
Y443723D01*
X604659Y442936D01*
X611743Y439000D02*
X608594D01*
X611743Y442149D01*
Y442936D01*
X610956Y443723D01*
X609381D01*
X608594Y442936D01*
X510064Y432149D02*
X509277Y431361D01*
Y429787D01*
X510064Y429000D01*
X513213D01*
X514000Y429787D01*
Y431361D01*
X513213Y432149D01*
X514000Y433723D02*
Y435297D01*
Y434510D01*
X509277D01*
X510064Y433723D01*
X514000Y437659D02*
Y439233D01*
Y438446D01*
X509277D01*
X510064Y437659D01*
X514000Y443956D02*
X509277D01*
X511639Y441594D01*
Y444743D01*
X618149Y382936D02*
X617361Y383723D01*
X615787D01*
X615000Y382936D01*
Y379787D01*
X615787Y379000D01*
X617361D01*
X618149Y379787D01*
X619723Y379000D02*
X621297D01*
X620510D01*
Y383723D01*
X619723Y382936D01*
X623659Y379000D02*
X625233D01*
X624446D01*
Y383723D01*
X623659Y382936D01*
X630743Y383723D02*
X627594D01*
Y381361D01*
X629169Y382149D01*
X629956D01*
X630743Y381361D01*
Y379787D01*
X629956Y379000D01*
X628381D01*
X627594Y379787D01*
X412064Y356149D02*
X411277Y355361D01*
Y353787D01*
X412064Y353000D01*
X415213D01*
X416000Y353787D01*
Y355361D01*
X415213Y356149D01*
X416000Y360872D02*
Y357723D01*
X412851Y360872D01*
X412064D01*
X411277Y360084D01*
Y358510D01*
X412064Y357723D01*
Y362446D02*
X411277Y363233D01*
Y364807D01*
X412064Y365594D01*
X415213D01*
X416000Y364807D01*
Y363233D01*
X415213Y362446D01*
X412064D01*
Y367169D02*
X411277Y367956D01*
Y369530D01*
X412064Y370317D01*
X415213D01*
X416000Y369530D01*
Y367956D01*
X415213Y367169D01*
X412064D01*
X365064Y363149D02*
X364277Y362361D01*
Y360787D01*
X365064Y360000D01*
X368213D01*
X369000Y360787D01*
Y362361D01*
X368213Y363149D01*
X369000Y367871D02*
Y364723D01*
X365851Y367871D01*
X365064D01*
X364277Y367084D01*
Y365510D01*
X365064Y364723D01*
Y369446D02*
X364277Y370233D01*
Y371807D01*
X365064Y372594D01*
X368213D01*
X369000Y371807D01*
Y370233D01*
X368213Y369446D01*
X365064D01*
X369000Y374169D02*
Y375743D01*
Y374956D01*
X364277D01*
X365064Y374169D01*
X379149Y411936D02*
X378361Y412723D01*
X376787D01*
X376000Y411936D01*
Y408787D01*
X376787Y408000D01*
X378361D01*
X379149Y408787D01*
X383872Y408000D02*
X380723D01*
X383872Y411149D01*
Y411936D01*
X383084Y412723D01*
X381510D01*
X380723Y411936D01*
X385446D02*
X386233Y412723D01*
X387807D01*
X388594Y411936D01*
Y408787D01*
X387807Y408000D01*
X386233D01*
X385446Y408787D01*
Y411936D01*
X393317Y408000D02*
X390169D01*
X393317Y411149D01*
Y411936D01*
X392530Y412723D01*
X390956D01*
X390169Y411936D01*
X357064Y348211D02*
X356277Y347424D01*
Y345850D01*
X357064Y345063D01*
X360213D01*
X361000Y345850D01*
Y347424D01*
X360213Y348211D01*
X361000Y352934D02*
Y349786D01*
X357851Y352934D01*
X357064D01*
X356277Y352147D01*
Y350573D01*
X357064Y349786D01*
Y354508D02*
X356277Y355296D01*
Y356870D01*
X357064Y357657D01*
X360213D01*
X361000Y356870D01*
Y355296D01*
X360213Y354508D01*
X357064D01*
Y359231D02*
X356277Y360018D01*
Y361593D01*
X357064Y362380D01*
X357851D01*
X358639Y361593D01*
Y360806D01*
Y361593D01*
X359426Y362380D01*
X360213D01*
X361000Y361593D01*
Y360018D01*
X360213Y359231D01*
X392936Y391851D02*
X393723Y392639D01*
Y394213D01*
X392936Y395000D01*
X389787D01*
X389000Y394213D01*
Y392639D01*
X389787Y391851D01*
X389000Y387128D02*
Y390277D01*
X392149Y387128D01*
X392936D01*
X393723Y387916D01*
Y389490D01*
X392936Y390277D01*
Y385554D02*
X393723Y384767D01*
Y383193D01*
X392936Y382406D01*
X389787D01*
X389000Y383193D01*
Y384767D01*
X389787Y385554D01*
X392936D01*
X389000Y378470D02*
X393723D01*
X391361Y380831D01*
Y377683D01*
X379564Y380649D02*
X378777Y379861D01*
Y378287D01*
X379564Y377500D01*
X382713D01*
X383500Y378287D01*
Y379861D01*
X382713Y380649D01*
X383500Y385371D02*
Y382223D01*
X380351Y385371D01*
X379564D01*
X378777Y384584D01*
Y383010D01*
X379564Y382223D01*
Y386946D02*
X378777Y387733D01*
Y389307D01*
X379564Y390094D01*
X382713D01*
X383500Y389307D01*
Y387733D01*
X382713Y386946D01*
X379564D01*
X378777Y394817D02*
Y391669D01*
X381139D01*
X380351Y393243D01*
Y394030D01*
X381139Y394817D01*
X382713D01*
X383500Y394030D01*
Y392456D01*
X382713Y391669D01*
X602400Y318623D02*
Y313900D01*
X604761D01*
X605549Y314687D01*
Y317836D01*
X604761Y318623D01*
X602400D01*
X607123Y313900D02*
X608697D01*
X607910D01*
Y318623D01*
X607123Y317836D01*
X569100Y307823D02*
Y303100D01*
X571461D01*
X572249Y303887D01*
Y307036D01*
X571461Y307823D01*
X569100D01*
X576971Y303100D02*
X573823D01*
X576971Y306249D01*
Y307036D01*
X576184Y307823D01*
X574610D01*
X573823Y307036D01*
X549000Y318723D02*
Y314000D01*
X551361D01*
X552149Y314787D01*
Y317936D01*
X551361Y318723D01*
X549000D01*
X553723Y317936D02*
X554510Y318723D01*
X556084D01*
X556872Y317936D01*
Y317149D01*
X556084Y316361D01*
X555297D01*
X556084D01*
X556872Y315574D01*
Y314787D01*
X556084Y314000D01*
X554510D01*
X553723Y314787D01*
X508817Y307833D02*
Y303110D01*
X511178D01*
X511965Y303897D01*
Y307046D01*
X511178Y307833D01*
X508817D01*
X515901Y303110D02*
Y307833D01*
X513539Y305472D01*
X516688D01*
X474100Y321113D02*
Y316390D01*
X476461D01*
X477249Y317177D01*
Y320325D01*
X476461Y321113D01*
X474100D01*
X481972D02*
X478823D01*
Y318751D01*
X480397Y319538D01*
X481184D01*
X481972Y318751D01*
Y317177D01*
X481184Y316390D01*
X479610D01*
X478823Y317177D01*
X493500Y333723D02*
Y329000D01*
X496649D01*
X498223D02*
X499797D01*
X499010D01*
Y333723D01*
X498223Y332936D01*
X502159D02*
X502946Y333723D01*
X504520D01*
X505307Y332936D01*
Y329787D01*
X504520Y329000D01*
X502946D01*
X502159Y329787D01*
Y332936D01*
X506882D02*
X507669Y333723D01*
X509243D01*
X510030Y332936D01*
Y329787D01*
X509243Y329000D01*
X507669D01*
X506882Y329787D01*
Y332936D01*
X372000Y436723D02*
Y432000D01*
X375149D01*
X376723D02*
Y436723D01*
X378297Y435149D01*
X379872Y436723D01*
Y432000D01*
X381446Y436723D02*
Y432000D01*
X383807D01*
X384594Y432787D01*
Y435936D01*
X383807Y436723D01*
X381446D01*
X386169Y432000D02*
X387743D01*
X386956D01*
Y436723D01*
X386169Y435936D01*
X360000Y439000D02*
Y443723D01*
X362361D01*
X363149Y442936D01*
Y441361D01*
X362361Y440574D01*
X360000D01*
X367084Y439000D02*
Y443723D01*
X364723Y441361D01*
X367871D01*
X427600Y459400D02*
Y464123D01*
X429961D01*
X430749Y463336D01*
Y461761D01*
X429961Y460974D01*
X427600D01*
X435471Y463336D02*
X434684Y464123D01*
X433110D01*
X432323Y463336D01*
Y460187D01*
X433110Y459400D01*
X434684D01*
X435471Y460187D01*
X437046Y459400D02*
X438620D01*
X437833D01*
Y464123D01*
X437046Y463336D01*
X437000Y431000D02*
Y435723D01*
X439361D01*
X440149Y434936D01*
Y433361D01*
X439361Y432574D01*
X437000D01*
X441723Y431000D02*
Y435723D01*
X443297Y434149D01*
X444872Y435723D01*
Y431000D01*
X446446D02*
X448020D01*
X447233D01*
Y435723D01*
X446446Y434936D01*
X634100Y431900D02*
Y436623D01*
X636461D01*
X637249Y435836D01*
Y434261D01*
X636461Y433474D01*
X634100D01*
X638823Y431900D02*
Y436623D01*
X640397Y435049D01*
X641971Y436623D01*
Y431900D01*
X646694D02*
X643546D01*
X646694Y435049D01*
Y435836D01*
X645907Y436623D01*
X644333D01*
X643546Y435836D01*
X584400Y319990D02*
Y324713D01*
X586761D01*
X587549Y323925D01*
Y322351D01*
X586761Y321564D01*
X584400D01*
X585974D02*
X587549Y319990D01*
X589123D02*
X590697D01*
X589910D01*
Y324713D01*
X589123Y323925D01*
X585700Y286590D02*
Y291313D01*
X588061D01*
X588849Y290526D01*
Y288951D01*
X588061Y288164D01*
X585700D01*
X587274D02*
X588849Y286590D01*
X593572D02*
X590423D01*
X593572Y289738D01*
Y290526D01*
X592784Y291313D01*
X591210D01*
X590423Y290526D01*
X540100Y281400D02*
Y286123D01*
X542461D01*
X543249Y285336D01*
Y283761D01*
X542461Y282974D01*
X540100D01*
X541674D02*
X543249Y281400D01*
X544823Y285336D02*
X545610Y286123D01*
X547184D01*
X547971Y285336D01*
Y284549D01*
X547184Y283761D01*
X546397D01*
X547184D01*
X547971Y282974D01*
Y282187D01*
X547184Y281400D01*
X545610D01*
X544823Y282187D01*
X489600Y303400D02*
Y308123D01*
X491961D01*
X492749Y307336D01*
Y305761D01*
X491961Y304974D01*
X489600D01*
X491174D02*
X492749Y303400D01*
X496684D02*
Y308123D01*
X494323Y305761D01*
X497472D01*
X458600Y312400D02*
Y317123D01*
X460961D01*
X461749Y316336D01*
Y314761D01*
X460961Y313974D01*
X458600D01*
X460174D02*
X461749Y312400D01*
X466471Y317123D02*
X463323D01*
Y314761D01*
X464897Y315549D01*
X465684D01*
X466471Y314761D01*
Y313187D01*
X465684Y312400D01*
X464110D01*
X463323Y313187D01*
X465000Y421000D02*
X460277D01*
Y423361D01*
X461064Y424149D01*
X462639D01*
X463426Y423361D01*
Y421000D01*
Y422574D02*
X465000Y424149D01*
Y425723D02*
Y427297D01*
Y426510D01*
X460277D01*
X461064Y425723D01*
Y429659D02*
X460277Y430446D01*
Y432020D01*
X461064Y432807D01*
X464213D01*
X465000Y432020D01*
Y430446D01*
X464213Y429659D01*
X461064D01*
Y434381D02*
X460277Y435169D01*
Y436743D01*
X461064Y437530D01*
X464213D01*
X465000Y436743D01*
Y435169D01*
X464213Y434381D01*
X461064D01*
X504000Y353032D02*
X499277D01*
Y355393D01*
X500064Y356180D01*
X501639D01*
X502426Y355393D01*
Y353032D01*
Y354606D02*
X504000Y356180D01*
Y357754D02*
Y359329D01*
Y358542D01*
X499277D01*
X500064Y357754D01*
Y361690D02*
X499277Y362477D01*
Y364052D01*
X500064Y364839D01*
X503213D01*
X504000Y364052D01*
Y362477D01*
X503213Y361690D01*
X500064D01*
X504000Y366413D02*
Y367987D01*
Y367200D01*
X499277D01*
X500064Y366413D01*
X505000Y419000D02*
Y423723D01*
X507361D01*
X508149Y422936D01*
Y421361D01*
X507361Y420574D01*
X505000D01*
X506574D02*
X508149Y419000D01*
X509723D02*
X511297D01*
X510510D01*
Y423723D01*
X509723Y422936D01*
X513659D02*
X514446Y423723D01*
X516020D01*
X516807Y422936D01*
Y419787D01*
X516020Y419000D01*
X514446D01*
X513659Y419787D01*
Y422936D01*
X521530Y419000D02*
X518382D01*
X521530Y422149D01*
Y422936D01*
X520743Y423723D01*
X519169D01*
X518382Y422936D01*
X498564Y416278D02*
X497777Y415491D01*
Y413917D01*
X498564Y413130D01*
X499351D01*
X500139Y413917D01*
Y415491D01*
X500926Y416278D01*
X501713D01*
X502500Y415491D01*
Y413917D01*
X501713Y413130D01*
X497777Y417853D02*
X502500D01*
Y420214D01*
X501713Y421001D01*
X500926D01*
X500139Y420214D01*
Y417853D01*
Y420214D01*
X499351Y421001D01*
X498564D01*
X497777Y420214D01*
Y417853D01*
Y424937D02*
Y423363D01*
X498564Y422576D01*
X501713D01*
X502500Y423363D01*
Y424937D01*
X501713Y425724D01*
X498564D01*
X497777Y424937D01*
X498564Y427298D02*
X497777Y428086D01*
Y429660D01*
X498564Y430447D01*
X501713D01*
X502500Y429660D01*
Y428086D01*
X501713Y427298D01*
X498564D01*
X487564Y417649D02*
X486777Y416861D01*
Y415287D01*
X487564Y414500D01*
X488351D01*
X489139Y415287D01*
Y416861D01*
X489926Y417649D01*
X490713D01*
X491500Y416861D01*
Y415287D01*
X490713Y414500D01*
X486777Y419223D02*
X491500D01*
Y421584D01*
X490713Y422371D01*
X489926D01*
X489139Y421584D01*
Y419223D01*
Y421584D01*
X488351Y422371D01*
X487564D01*
X486777Y421584D01*
Y419223D01*
Y426307D02*
Y424733D01*
X487564Y423946D01*
X490713D01*
X491500Y424733D01*
Y426307D01*
X490713Y427094D01*
X487564D01*
X486777Y426307D01*
X491500Y428669D02*
Y430243D01*
Y429456D01*
X486777D01*
X487564Y428669D01*
X477564Y416042D02*
X476777Y415255D01*
Y413681D01*
X477564Y412894D01*
X478351D01*
X479139Y413681D01*
Y415255D01*
X479926Y416042D01*
X480713D01*
X481500Y415255D01*
Y413681D01*
X480713Y412894D01*
X476777Y417617D02*
X481500D01*
Y419978D01*
X480713Y420765D01*
X479926D01*
X479139Y419978D01*
Y417617D01*
Y419978D01*
X478351Y420765D01*
X477564D01*
X476777Y419978D01*
Y417617D01*
Y424701D02*
Y423127D01*
X477564Y422340D01*
X480713D01*
X481500Y423127D01*
Y424701D01*
X480713Y425488D01*
X477564D01*
X476777Y424701D01*
X481500Y430211D02*
Y427062D01*
X478351Y430211D01*
X477564D01*
X476777Y429424D01*
Y427850D01*
X477564Y427062D01*
X413064Y446149D02*
X412277Y445361D01*
Y443787D01*
X413064Y443000D01*
X413851D01*
X414639Y443787D01*
Y445361D01*
X415426Y446149D01*
X416213D01*
X417000Y445361D01*
Y443787D01*
X416213Y443000D01*
X412277Y447723D02*
X417000D01*
Y450084D01*
X416213Y450872D01*
X415426D01*
X414639Y450084D01*
Y447723D01*
Y450084D01*
X413851Y450872D01*
X413064D01*
X412277Y450084D01*
Y447723D01*
X417000Y452446D02*
X412277D01*
Y454807D01*
X413064Y455594D01*
X414639D01*
X415426Y454807D01*
Y452446D01*
X417000Y457169D02*
Y458743D01*
Y457956D01*
X412277D01*
X413064Y457169D01*
X512000Y410723D02*
Y406787D01*
X512787Y406000D01*
X514361D01*
X515149Y406787D01*
Y410723D01*
X516723Y406000D02*
X518297D01*
X517510D01*
Y410723D01*
X516723Y409936D01*
X520659D02*
X521446Y410723D01*
X523020D01*
X523807Y409936D01*
Y406787D01*
X523020Y406000D01*
X521446D01*
X520659Y406787D01*
Y409936D01*
X525382D02*
X526169Y410723D01*
X527743D01*
X528530Y409936D01*
Y406787D01*
X527743Y406000D01*
X526169D01*
X525382Y406787D01*
Y409936D01*
X615149Y352936D02*
X614361Y353723D01*
X612787D01*
X612000Y352936D01*
Y349787D01*
X612787Y349000D01*
X614361D01*
X615149Y349787D01*
X616723Y349000D02*
X618297D01*
X617510D01*
Y353723D01*
X616723Y352936D01*
X620659Y349000D02*
X622233D01*
X621446D01*
Y353723D01*
X620659Y352936D01*
X627743Y353723D02*
X626169Y352936D01*
X624594Y351361D01*
Y349787D01*
X625382Y349000D01*
X626956D01*
X627743Y349787D01*
Y350574D01*
X626956Y351361D01*
X624594D01*
X481599Y466398D02*
X479600D01*
X478600Y465398D01*
Y461400D01*
X479600Y460400D01*
X481599D01*
X482599Y461400D01*
Y465398D01*
X481599Y466398D01*
X488597Y465398D02*
X487597Y466398D01*
X485598D01*
X484598Y465398D01*
Y464399D01*
X485598Y463399D01*
X487597D01*
X488597Y462399D01*
Y461400D01*
X487597Y460400D01*
X485598D01*
X484598Y461400D01*
X494595Y465398D02*
X493595Y466398D01*
X491596D01*
X490596Y465398D01*
Y461400D01*
X491596Y460400D01*
X493595D01*
X494595Y461400D01*
X496594Y460400D02*
X498594D01*
X497594D01*
Y466398D01*
X496594Y465398D01*
X519500Y455000D02*
Y459723D01*
X521861D01*
X522649Y458936D01*
Y457361D01*
X521861Y456574D01*
X519500D01*
X524223Y455000D02*
X525797D01*
X525010D01*
Y459723D01*
X524223Y458936D01*
X358000Y464998D02*
Y460000D01*
Y462499D01*
X361332D01*
Y464998D01*
Y460000D01*
X362998D02*
Y463332D01*
X364665Y464998D01*
X366331Y463332D01*
Y460000D01*
Y462499D01*
X362998D01*
X367997Y460000D02*
Y464998D01*
X371329Y460000D01*
Y464998D01*
X376327Y464165D02*
X375494Y464998D01*
X373828D01*
X372995Y464165D01*
Y460833D01*
X373828Y460000D01*
X375494D01*
X376327Y460833D01*
X382992Y464998D02*
Y460000D01*
X385491D01*
X386324Y460833D01*
Y464165D01*
X385491Y464998D01*
X382992D01*
X387990Y460000D02*
X389656D01*
X388823D01*
Y463332D01*
X387990D01*
X393822Y458334D02*
X394655D01*
X395488Y459167D01*
Y463332D01*
X392989D01*
X392156Y462499D01*
Y460833D01*
X392989Y460000D01*
X395488D01*
X397154D02*
X398820D01*
X397987D01*
Y463332D01*
X397154D01*
X402152Y464165D02*
Y463332D01*
X401319D01*
X402985D01*
X402152D01*
Y460833D01*
X402985Y460000D01*
X406318Y463332D02*
X407984D01*
X408817Y462499D01*
Y460000D01*
X406318D01*
X405485Y460833D01*
X406318Y461666D01*
X408817D01*
X410483Y460000D02*
X412149D01*
X411316D01*
Y464998D01*
X410483D01*
X652999Y395499D02*
X652499Y395999D01*
X651500D01*
X651000Y395499D01*
Y393500D01*
X651500Y393000D01*
X652499D01*
X652999Y393500D01*
X655998Y395499D02*
X655499Y395999D01*
X654499D01*
X653999Y395499D01*
Y394999D01*
X654499Y394499D01*
X655499D01*
X655998Y394000D01*
Y393500D01*
X655499Y393000D01*
X654499D01*
X653999Y393500D01*
X646000Y383000D02*
Y385999D01*
X647000Y384999D01*
X647999Y385999D01*
Y383000D01*
X648999Y385999D02*
X649999D01*
X649499D01*
Y383000D01*
X648999D01*
X649999D01*
X653498Y385499D02*
X652998Y385999D01*
X651998D01*
X651498Y385499D01*
Y384999D01*
X651998Y384500D01*
X652998D01*
X653498Y384000D01*
Y383500D01*
X652998Y383000D01*
X651998D01*
X651498Y383500D01*
X655997Y385999D02*
X654997D01*
X654497Y385499D01*
Y383500D01*
X654997Y383000D01*
X655997D01*
X656497Y383500D01*
Y385499D01*
X655997Y385999D01*
X646000Y374000D02*
Y376999D01*
X647000Y375999D01*
X647999Y376999D01*
Y374000D01*
X650498Y376999D02*
X649499D01*
X648999Y376499D01*
Y374500D01*
X649499Y374000D01*
X650498D01*
X650998Y374500D01*
Y376499D01*
X650498Y376999D01*
X653997Y376499D02*
X653498Y376999D01*
X652498D01*
X651998Y376499D01*
Y375999D01*
X652498Y375500D01*
X653498D01*
X653997Y375000D01*
Y374500D01*
X653498Y374000D01*
X652498D01*
X651998Y374500D01*
X654997Y376999D02*
X655997D01*
X655497D01*
Y374000D01*
X654997D01*
X655997D01*
X647999Y365499D02*
X647500Y365999D01*
X646500D01*
X646000Y365499D01*
Y364999D01*
X646500Y364499D01*
X647500D01*
X647999Y364000D01*
Y363500D01*
X647500Y363000D01*
X646500D01*
X646000Y363500D01*
X650998Y365499D02*
X650498Y365999D01*
X649499D01*
X648999Y365499D01*
Y363500D01*
X649499Y363000D01*
X650498D01*
X650998Y363500D01*
X651998Y365999D02*
Y363000D01*
X653997D01*
X654997Y365999D02*
Y363000D01*
Y364000D01*
X656996Y365999D01*
X655497Y364499D01*
X656996Y363000D01*
X650499Y425999D02*
X649500D01*
X649000Y425499D01*
Y423500D01*
X649500Y423000D01*
X650499D01*
X650999Y423500D01*
Y425499D01*
X650499Y425999D01*
X653998Y425499D02*
X653499Y425999D01*
X652499D01*
X651999Y425499D01*
Y424999D01*
X652499Y424500D01*
X653499D01*
X653998Y424000D01*
Y423500D01*
X653499Y423000D01*
X652499D01*
X651999Y423500D01*
X656997Y425499D02*
X656498Y425999D01*
X655498D01*
X654998Y425499D01*
Y423500D01*
X655498Y423000D01*
X656498D01*
X656997Y423500D01*
X648000Y415999D02*
Y413500D01*
X648500Y413000D01*
X649500D01*
X649999Y413500D01*
Y415999D01*
X650999Y413000D02*
X652998Y414999D01*
X653998Y415999D02*
Y413000D01*
X655498D01*
X655997Y413500D01*
Y415499D01*
X655498Y415999D01*
X653998D01*
X648000Y405999D02*
Y403000D01*
X649500D01*
X649999Y403500D01*
Y405499D01*
X649500Y405999D01*
X648000D01*
X650999Y404499D02*
X652998D01*
X655997Y405499D02*
X655498Y405999D01*
X654498D01*
X653998Y405499D01*
Y404999D01*
X654498Y404499D01*
X655498D01*
X655997Y404000D01*
Y403500D01*
X655498Y403000D01*
X654498D01*
X653998Y403500D01*
X650999Y355999D02*
X649000D01*
Y353000D01*
X650999D01*
X649000Y354500D02*
X650000D01*
X653499Y355999D02*
X652499D01*
X651999Y355499D01*
Y353500D01*
X652499Y353000D01*
X653499D01*
X653998Y353500D01*
Y355499D01*
X653499Y355999D01*
X656997Y355499D02*
X656498Y355999D01*
X655498D01*
X654998Y355499D01*
Y353500D01*
X655498Y353000D01*
X656498D01*
X656997Y353500D01*
X649999Y344499D02*
X649500Y344999D01*
X648500D01*
X648000Y344499D01*
Y342500D01*
X648500Y342000D01*
X649500D01*
X649999Y342500D01*
X650999Y343499D02*
X652998D01*
X653998Y342000D02*
Y344999D01*
X655498D01*
X655997Y344499D01*
Y343499D01*
X655498Y343000D01*
X653998D01*
X654998D02*
X655997Y342000D01*
X649999Y334499D02*
X649500Y334999D01*
X648500D01*
X648000Y334499D01*
Y333999D01*
X648500Y333500D01*
X649500D01*
X649999Y333000D01*
Y332500D01*
X649500Y332000D01*
X648500D01*
X648000Y332500D01*
X650999Y334999D02*
Y332000D01*
Y333500D01*
X652998D01*
Y334999D01*
Y332000D01*
X653998Y334999D02*
Y332000D01*
X655498D01*
X655997Y332500D01*
Y334499D01*
X655498Y334999D01*
X653998D01*
X430999Y332499D02*
X430500Y332999D01*
X429500D01*
X429000Y332499D01*
Y331999D01*
X429500Y331500D01*
X430500D01*
X430999Y331000D01*
Y330500D01*
X430500Y330000D01*
X429500D01*
X429000Y330500D01*
X431999Y332999D02*
Y330000D01*
Y331500D01*
X433998D01*
Y332999D01*
Y330000D01*
X434998Y332999D02*
Y330000D01*
X436498D01*
X436997Y330500D01*
Y332499D01*
X436498Y332999D01*
X434998D01*
X430999Y342499D02*
X430500Y342999D01*
X429500D01*
X429000Y342499D01*
Y340500D01*
X429500Y340000D01*
X430500D01*
X430999Y340500D01*
X431999Y341499D02*
X433998D01*
X434998Y340000D02*
Y342999D01*
X436498D01*
X436997Y342499D01*
Y341499D01*
X436498Y341000D01*
X434998D01*
X435998D02*
X436997Y340000D01*
X431999Y353999D02*
X430000D01*
Y351000D01*
X431999D01*
X430000Y352500D02*
X431000D01*
X434499Y353999D02*
X433499D01*
X432999Y353499D01*
Y351500D01*
X433499Y351000D01*
X434499D01*
X434998Y351500D01*
Y353499D01*
X434499Y353999D01*
X437997Y353499D02*
X437498Y353999D01*
X436498D01*
X435998Y353499D01*
Y351500D01*
X436498Y351000D01*
X437498D01*
X437997Y351500D01*
X429000Y403999D02*
Y401000D01*
X430500D01*
X430999Y401500D01*
Y403499D01*
X430500Y403999D01*
X429000D01*
X431999Y402499D02*
X433998D01*
X436997Y403499D02*
X436498Y403999D01*
X435498D01*
X434998Y403499D01*
Y402999D01*
X435498Y402499D01*
X436498D01*
X436997Y402000D01*
Y401500D01*
X436498Y401000D01*
X435498D01*
X434998Y401500D01*
X429000Y413999D02*
Y411500D01*
X429500Y411000D01*
X430500D01*
X430999Y411500D01*
Y413999D01*
X431999Y411000D02*
X433998Y412999D01*
X434998Y413999D02*
Y411000D01*
X436498D01*
X436997Y411500D01*
Y413499D01*
X436498Y413999D01*
X434998D01*
X431499Y423999D02*
X430500D01*
X430000Y423499D01*
Y421500D01*
X430500Y421000D01*
X431499D01*
X431999Y421500D01*
Y423499D01*
X431499Y423999D01*
X434998Y423499D02*
X434499Y423999D01*
X433499D01*
X432999Y423499D01*
Y422999D01*
X433499Y422500D01*
X434499D01*
X434998Y422000D01*
Y421500D01*
X434499Y421000D01*
X433499D01*
X432999Y421500D01*
X437997Y423499D02*
X437498Y423999D01*
X436498D01*
X435998Y423499D01*
Y421500D01*
X436498Y421000D01*
X437498D01*
X437997Y421500D01*
X428999Y363499D02*
X428500Y363999D01*
X427500D01*
X427000Y363499D01*
Y362999D01*
X427500Y362499D01*
X428500D01*
X428999Y362000D01*
Y361500D01*
X428500Y361000D01*
X427500D01*
X427000Y361500D01*
X431998Y363499D02*
X431498Y363999D01*
X430499D01*
X429999Y363499D01*
Y361500D01*
X430499Y361000D01*
X431498D01*
X431998Y361500D01*
X432998Y363999D02*
Y361000D01*
X434997D01*
X435997Y363999D02*
Y361000D01*
Y362000D01*
X437996Y363999D01*
X436497Y362499D01*
X437996Y361000D01*
X427000Y372000D02*
Y374999D01*
X428000Y373999D01*
X428999Y374999D01*
Y372000D01*
X431498Y374999D02*
X430499D01*
X429999Y374499D01*
Y372500D01*
X430499Y372000D01*
X431498D01*
X431998Y372500D01*
Y374499D01*
X431498Y374999D01*
X434997Y374499D02*
X434498Y374999D01*
X433498D01*
X432998Y374499D01*
Y373999D01*
X433498Y373499D01*
X434498D01*
X434997Y373000D01*
Y372500D01*
X434498Y372000D01*
X433498D01*
X432998Y372500D01*
X435997Y374999D02*
X436997D01*
X436497D01*
Y372000D01*
X435997D01*
X436997D01*
X427000Y381000D02*
Y383999D01*
X428000Y382999D01*
X428999Y383999D01*
Y381000D01*
X429999Y383999D02*
X430999D01*
X430499D01*
Y381000D01*
X429999D01*
X430999D01*
X434498Y383499D02*
X433998Y383999D01*
X432998D01*
X432498Y383499D01*
Y382999D01*
X432998Y382500D01*
X433998D01*
X434498Y382000D01*
Y381500D01*
X433998Y381000D01*
X432998D01*
X432498Y381500D01*
X436997Y383999D02*
X435997D01*
X435497Y383499D01*
Y381500D01*
X435997Y381000D01*
X436997D01*
X437497Y381500D01*
Y383499D01*
X436997Y383999D01*
X433999Y393499D02*
X433499Y393999D01*
X432500D01*
X432000Y393499D01*
Y391500D01*
X432500Y391000D01*
X433499D01*
X433999Y391500D01*
X436998Y393499D02*
X436498Y393999D01*
X435499D01*
X434999Y393499D01*
Y392999D01*
X435499Y392499D01*
X436498D01*
X436998Y392000D01*
Y391500D01*
X436498Y391000D01*
X435499D01*
X434999Y391500D01*
D35*
X373098Y356244D02*
G03*
X373098Y356244I-492J0D01*
G01*
X532480Y400378D02*
G03*
X532480Y400378I-492J0D01*
G01*
X419681Y427417D02*
G03*
X419681Y427417I-492J0D01*
G01*
D36*
X541043Y396638D02*
G03*
X541043Y396638I-1181J0D01*
G01*
D37*
X627378Y421213D02*
Y422787D01*
X624622Y421213D02*
Y422787D01*
X618378Y421213D02*
Y422787D01*
X615622Y421213D02*
Y422787D01*
X606622Y421213D02*
Y422787D01*
X609378Y421213D02*
Y422787D01*
X484925Y366583D02*
Y389417D01*
X463075Y366583D02*
Y389417D01*
X375165Y353488D02*
Y356835D01*
X378512D01*
X392488D02*
X395835D01*
Y353488D02*
Y356835D01*
Y336165D02*
Y339512D01*
X392488Y336165D02*
X395835D01*
X375165D02*
Y339512D01*
Y336165D02*
X378512D01*
X608453Y374925D02*
Y378075D01*
X602547Y374925D02*
Y378075D01*
X633500Y328500D02*
X643500D01*
X633500D02*
Y428500D01*
X643500D01*
Y421000D02*
Y428500D01*
Y328500D02*
Y421000D01*
X419622Y448213D02*
Y449787D01*
X422378Y448213D02*
Y449787D01*
X501378Y435213D02*
Y436787D01*
X498622Y435213D02*
Y436787D01*
X463878Y442713D02*
Y444287D01*
X461122Y442713D02*
Y444287D01*
X438000Y328500D02*
X448000D01*
X438000D02*
Y428500D01*
X448000D01*
Y421000D02*
Y428500D01*
Y328500D02*
Y421000D01*
X427000Y456000D02*
X447000D01*
X427000Y446000D02*
Y456000D01*
Y446000D02*
X447000D01*
Y456000D01*
X358000Y447000D02*
Y457000D01*
X398000D01*
X358000Y447000D02*
X398000D01*
Y457000D01*
X482528Y288972D02*
Y296453D01*
X473472Y288972D02*
Y296453D01*
Y288972D02*
X482528D01*
X475047Y312988D02*
X480953D01*
X482528Y304327D02*
Y311020D01*
X473472D02*
X475047Y312988D01*
X480953D02*
X482528Y311020D01*
X473472Y304327D02*
Y311020D01*
X517244Y275693D02*
Y283173D01*
X508189Y275693D02*
Y283173D01*
Y275693D02*
X517244D01*
X509764Y299709D02*
X515669D01*
X517244Y291047D02*
Y297740D01*
X508189D02*
X509764Y299709D01*
X515669D02*
X517244Y297740D01*
X508189Y291047D02*
Y297740D01*
X577528Y275693D02*
Y283173D01*
X568472Y275693D02*
Y283173D01*
Y275693D02*
X577528D01*
X570047Y299709D02*
X575953D01*
X577528Y291047D02*
Y297740D01*
X568472D02*
X570047Y299709D01*
X575953D02*
X577528Y297740D01*
X568472Y291047D02*
Y297740D01*
X601772Y303037D02*
Y310517D01*
X610828Y303037D02*
Y310517D01*
X601772D02*
X610828D01*
X603347Y286502D02*
X609253D01*
X601772Y288470D02*
Y295163D01*
X609253Y286502D02*
X610828Y288470D01*
X601772D02*
X603347Y286502D01*
X610828Y288470D02*
Y295163D01*
X480378Y435213D02*
Y436787D01*
X477622Y435213D02*
Y436787D01*
X490378Y435213D02*
Y436787D01*
X487622Y435213D02*
Y436787D01*
X548028Y288693D02*
Y296173D01*
X538972Y288693D02*
Y296173D01*
Y288693D02*
X548028D01*
X540547Y312709D02*
X546453D01*
X548028Y304047D02*
Y310740D01*
X538972D02*
X540547Y312709D01*
X546453D02*
X548028Y310740D01*
X538972Y304047D02*
Y310740D01*
X618453Y364425D02*
Y367575D01*
X612547Y364425D02*
Y367575D01*
X535925Y347425D02*
Y400575D01*
X589075Y347425D02*
Y400575D01*
X535925D02*
X589075D01*
X535925Y347425D02*
X589075D01*
X392811Y410488D02*
Y421512D01*
X419189Y410488D02*
Y421512D01*
X392811Y410488D02*
X419189D01*
X392811Y421512D02*
X419189D01*
X478000Y447000D02*
X498000D01*
Y457000D01*
X478000D02*
X498000D01*
X478000Y447000D02*
Y457000D01*
X533000D02*
X593000D01*
X533000Y447000D02*
X593000D01*
Y457000D01*
X533000Y447000D02*
Y457000D01*
X524213Y414622D02*
X525787D01*
X524213Y417378D02*
X525787D01*
D38*
X517100Y330400D02*
X520900D01*
X517100D02*
Y338600D01*
X520900D01*
Y330400D02*
Y338600D01*
M02*
