G04 Layer_Color=32896*
%FSLAX25Y25*%
%MOIN*%
G70*
G01*
G75*
%ADD27C,0.01000*%
D27*
X652500Y321394D02*
Y323893D01*
X651250D01*
X650834Y323477D01*
Y322644D01*
X651250Y322227D01*
X652500D01*
X651667D02*
X650834Y321394D01*
X650001Y323060D02*
Y321811D01*
X649584Y321394D01*
X648335D01*
Y320978D01*
X648751Y320561D01*
X649168D01*
X648335Y321394D02*
Y323060D01*
X647085D02*
X646252D01*
X645835Y322644D01*
Y321394D01*
X647085D01*
X647502Y321811D01*
X647085Y322227D01*
X645835D01*
X645002Y321394D02*
Y323060D01*
X643753D01*
X643336Y322644D01*
Y321394D01*
X638338Y323477D02*
X638754Y323893D01*
X639587D01*
X640004Y323477D01*
Y323060D01*
X639587Y322644D01*
X638754D01*
X638338Y322227D01*
Y321811D01*
X638754Y321394D01*
X639587D01*
X640004Y321811D01*
X637505Y321394D02*
X636672D01*
X637088D01*
Y323060D01*
X637505D01*
X634589Y320561D02*
X634173D01*
X633756Y320978D01*
Y323060D01*
X635006D01*
X635422Y322644D01*
Y321811D01*
X635006Y321394D01*
X633756D01*
X632507Y323060D02*
X631673D01*
X631257Y322644D01*
Y321394D01*
X632507D01*
X632923Y321811D01*
X632507Y322227D01*
X631257D01*
X630424Y323060D02*
Y321394D01*
Y322227D01*
X630007Y322644D01*
X629591Y323060D01*
X629174D01*
X650834Y317661D02*
X652500D01*
Y316412D01*
X651667D01*
X652500D01*
Y315162D01*
X650001D02*
X649168D01*
X649584D01*
Y317661D01*
X650001D01*
X647502Y315162D02*
X646668D01*
X646252Y315579D01*
Y316412D01*
X646668Y316828D01*
X647502D01*
X647918Y316412D01*
Y315579D01*
X647502Y315162D01*
X645419Y316828D02*
Y315162D01*
Y315995D01*
X645002Y316412D01*
X644586Y316828D01*
X644169D01*
X638754Y317245D02*
X639171Y317661D01*
X640004D01*
X640421Y317245D01*
Y315579D01*
X640004Y315162D01*
X639171D01*
X638754Y315579D01*
Y316412D01*
X639587D01*
X637505Y315162D02*
X636672D01*
X636255Y315579D01*
Y316412D01*
X636672Y316828D01*
X637505D01*
X637921Y316412D01*
Y315579D01*
X637505Y315162D01*
X635422Y316828D02*
Y315162D01*
Y315995D01*
X635006Y316412D01*
X634589Y316828D01*
X634173D01*
X631257Y317661D02*
Y315162D01*
X632507D01*
X632923Y315579D01*
Y316412D01*
X632507Y316828D01*
X631257D01*
X630424Y315162D02*
X629591D01*
X630007D01*
Y316828D01*
X630424D01*
X628341D02*
X627508Y315162D01*
X626675Y316828D01*
X625425D02*
X624592D01*
X624176Y316412D01*
Y315162D01*
X625425D01*
X625842Y315579D01*
X625425Y315995D01*
X624176D01*
X623343Y315162D02*
X622093D01*
X621677Y315579D01*
X622093Y315995D01*
X622926D01*
X623343Y316412D01*
X622926Y316828D01*
X621677D01*
X652500Y312262D02*
Y309763D01*
Y311013D01*
X650834D01*
Y312262D01*
Y309763D01*
X649584Y311429D02*
X648751D01*
X648335Y311013D01*
Y309763D01*
X649584D01*
X650001Y310180D01*
X649584Y310596D01*
X648335D01*
X645002Y312262D02*
X643336D01*
X644169D01*
Y309763D01*
X642503Y311429D02*
Y309763D01*
Y310596D01*
X642087Y311013D01*
X641670Y311429D01*
X641254D01*
X639587D02*
X638754D01*
X638338Y311013D01*
Y309763D01*
X639587D01*
X640004Y310180D01*
X639587Y310596D01*
X638338D01*
X637505Y309763D02*
Y311429D01*
X636255D01*
X635839Y311013D01*
Y309763D01*
X652500Y304364D02*
Y306863D01*
X651667Y306030D01*
X650834Y306863D01*
Y304364D01*
X649584Y306030D02*
X648751D01*
X648335Y305614D01*
Y304364D01*
X649584D01*
X650001Y304781D01*
X649584Y305197D01*
X648335D01*
X647085Y306447D02*
Y306030D01*
X647502D01*
X646669D01*
X647085D01*
Y304781D01*
X646669Y304364D01*
X645002Y306447D02*
Y306030D01*
X645419D01*
X644586D01*
X645002D01*
Y304781D01*
X644586Y304364D01*
X652500Y298965D02*
Y301464D01*
X651667Y300631D01*
X650834Y301464D01*
Y298965D01*
X648335Y300631D02*
X649584D01*
X650001Y300215D01*
Y299381D01*
X649584Y298965D01*
X648335D01*
X647502D02*
Y301464D01*
X645835Y298965D01*
Y301464D01*
X645002Y298965D02*
X644169D01*
X644586D01*
Y300631D01*
X645002D01*
X641254D02*
X642503D01*
X642920Y300215D01*
Y299381D01*
X642503Y298965D01*
X641254D01*
X640421Y301464D02*
Y298965D01*
Y300215D01*
X640004Y300631D01*
X639171D01*
X638754Y300215D01*
Y298965D01*
X637505D02*
X636672D01*
X636255Y299381D01*
Y300215D01*
X636672Y300631D01*
X637505D01*
X637921Y300215D01*
Y299381D01*
X637505Y298965D01*
X635422D02*
X634589D01*
X635006D01*
Y301464D01*
X635422D01*
X633340Y298965D02*
X632090D01*
X631673Y299381D01*
X632090Y299798D01*
X632923D01*
X633340Y300215D01*
X632923Y300631D01*
X631673D01*
X650834Y296065D02*
X651667D01*
X651250D01*
Y293983D01*
X651667Y293566D01*
X652083D01*
X652500Y293983D01*
X648751Y293566D02*
X649584D01*
X650001Y293983D01*
Y294816D01*
X649584Y295232D01*
X648751D01*
X648335Y294816D01*
Y294399D01*
X650001D01*
X647085Y293566D02*
X646252D01*
X645835Y293983D01*
Y294816D01*
X646252Y295232D01*
X647085D01*
X647502Y294816D01*
Y293983D01*
X647085Y293566D01*
X645002D02*
Y295232D01*
X643753D01*
X643336Y294816D01*
Y293566D01*
X641670Y292733D02*
X641254D01*
X640837Y293149D01*
Y295232D01*
X642087D01*
X642503Y294816D01*
Y293983D01*
X642087Y293566D01*
X640837D01*
X637505D02*
Y296065D01*
X636672Y295232D01*
X635839Y296065D01*
Y293566D01*
X635006D02*
X634173D01*
X634589D01*
Y295232D01*
X635006D01*
X632923Y293566D02*
Y295232D01*
X631673D01*
X631257Y294816D01*
Y293566D01*
X627925Y296065D02*
Y293566D01*
X626259D01*
X624176D02*
X625009D01*
X625425Y293983D01*
Y294816D01*
X625009Y295232D01*
X624176D01*
X623759Y294816D01*
Y294399D01*
X625425D01*
X621677Y293566D02*
X622510D01*
X622926Y293983D01*
Y294816D01*
X622510Y295232D01*
X621677D01*
X621260Y294816D01*
Y294399D01*
X622926D01*
X650834Y289417D02*
X651250Y289833D01*
X652083D01*
X652500Y289417D01*
Y289000D01*
X652083Y288583D01*
X651250D01*
X650834Y288167D01*
Y287750D01*
X651250Y287334D01*
X652083D01*
X652500Y287750D01*
X648335Y289833D02*
X649168D01*
X648751D01*
Y287750D01*
X649168Y287334D01*
X649584D01*
X650001Y287750D01*
X645002Y287334D02*
Y289833D01*
X643753D01*
X643336Y289417D01*
Y288583D01*
X643753Y288167D01*
X645002D01*
X642087Y289000D02*
X641254D01*
X640837Y288583D01*
Y287334D01*
X642087D01*
X642503Y287750D01*
X642087Y288167D01*
X640837D01*
X640004Y289000D02*
Y287334D01*
Y288167D01*
X639587Y288583D01*
X639171Y289000D01*
X638754D01*
X637505Y287334D02*
Y289833D01*
Y288167D02*
X636255Y289000D01*
X637505Y288167D02*
X636255Y287334D01*
X654000Y336998D02*
Y332000D01*
Y334499D01*
X650668D01*
Y336998D01*
Y332000D01*
X649002Y335332D02*
Y332833D01*
X648169Y332000D01*
X645669D01*
Y331167D01*
X646502Y330334D01*
X647335D01*
X645669Y332000D02*
Y335332D01*
X640671Y336998D02*
Y332000D01*
X643170D01*
X644003Y332833D01*
Y334499D01*
X643170Y335332D01*
X640671D01*
X639005D02*
Y332000D01*
Y333666D01*
X638172Y334499D01*
X637339Y335332D01*
X636506D01*
X633173Y332000D02*
X631507D01*
X630674Y332833D01*
Y334499D01*
X631507Y335332D01*
X633173D01*
X634007Y334499D01*
Y332833D01*
X633173Y332000D01*
X629008Y336998D02*
Y332000D01*
X626509D01*
X625676Y332833D01*
Y336165D01*
X626509Y336998D01*
X629008D01*
X624010Y335332D02*
Y332833D01*
X623177Y332000D01*
X620678D01*
Y331167D01*
X621511Y330334D01*
X622344D01*
X620678Y332000D02*
Y335332D01*
X619011Y332000D02*
Y335332D01*
X616512D01*
X615679Y334499D01*
Y332000D01*
X613180Y335332D02*
X611514D01*
X610681Y334499D01*
Y332000D01*
X613180D01*
X614013Y332833D01*
X613180Y333666D01*
X610681D01*
X609015Y332000D02*
Y335332D01*
X608181D01*
X607348Y334499D01*
Y332000D01*
Y334499D01*
X606515Y335332D01*
X605682Y334499D01*
Y332000D01*
X604016D02*
X602350D01*
X603183D01*
Y335332D01*
X604016D01*
X599851D02*
X596519Y332000D01*
X598185Y333666D01*
X596519Y335332D01*
X599851Y332000D01*
M02*
