G04 Layer_Color=255*
%FSLAX25Y25*%
%MOIN*%
G70*
G01*
G75*
%ADD10R,0.01181X0.04724*%
%ADD11R,0.04724X0.01181*%
%ADD12R,0.06693X0.04331*%
%ADD13R,0.05906X0.05906*%
%ADD14R,0.03543X0.02756*%
%ADD15R,0.03150X0.03543*%
%ADD16R,0.03543X0.03150*%
%ADD17R,0.03937X0.09449*%
%ADD18R,0.12992X0.09449*%
%ADD19R,0.10630X0.10630*%
%ADD20O,0.00984X0.03740*%
%ADD21O,0.03740X0.00984*%
%ADD22R,0.22638X0.18701*%
%ADD23R,0.01969X0.02362*%
%ADD24R,0.02362X0.01969*%
%ADD25R,0.02000X0.02500*%
%ADD31R,0.05906X0.05906*%
%ADD32C,0.05906*%
D10*
X538878Y404512D02*
D03*
X540846D02*
D03*
X542815D02*
D03*
X544783D02*
D03*
X546752D02*
D03*
X548720D02*
D03*
X550689D02*
D03*
X552657D02*
D03*
X554626D02*
D03*
X556594D02*
D03*
X558563D02*
D03*
X560532D02*
D03*
X562500D02*
D03*
X564469D02*
D03*
X566437D02*
D03*
X568406D02*
D03*
X570374D02*
D03*
X572343D02*
D03*
X574311D02*
D03*
X576280D02*
D03*
X578248D02*
D03*
X580217D02*
D03*
X582185D02*
D03*
X584154D02*
D03*
X586122D02*
D03*
Y343488D02*
D03*
X584154D02*
D03*
X582185D02*
D03*
X580217D02*
D03*
X578248D02*
D03*
X576280D02*
D03*
X574311D02*
D03*
X572343D02*
D03*
X570374D02*
D03*
X568406D02*
D03*
X566437D02*
D03*
X564469D02*
D03*
X562500D02*
D03*
X560532D02*
D03*
X558563D02*
D03*
X556594D02*
D03*
X554626D02*
D03*
X552657D02*
D03*
X550689D02*
D03*
X548720D02*
D03*
X546752D02*
D03*
X544783D02*
D03*
X542815D02*
D03*
X540846D02*
D03*
X538878D02*
D03*
D11*
X593012Y397622D02*
D03*
Y395654D02*
D03*
Y393685D02*
D03*
Y391717D02*
D03*
Y389748D02*
D03*
Y387780D02*
D03*
Y385811D02*
D03*
Y383843D02*
D03*
Y381874D02*
D03*
Y379906D02*
D03*
Y377937D02*
D03*
Y375969D02*
D03*
Y374000D02*
D03*
Y372032D02*
D03*
Y370063D02*
D03*
Y368094D02*
D03*
Y366126D02*
D03*
Y364157D02*
D03*
Y362189D02*
D03*
Y360220D02*
D03*
Y358252D02*
D03*
Y356283D02*
D03*
Y354315D02*
D03*
Y352346D02*
D03*
Y350378D02*
D03*
X531988D02*
D03*
Y352346D02*
D03*
Y354315D02*
D03*
Y356283D02*
D03*
Y358252D02*
D03*
Y360220D02*
D03*
Y362189D02*
D03*
Y364157D02*
D03*
Y366126D02*
D03*
Y368094D02*
D03*
Y370063D02*
D03*
Y372032D02*
D03*
Y374000D02*
D03*
Y375969D02*
D03*
Y377937D02*
D03*
Y379906D02*
D03*
Y381874D02*
D03*
Y383843D02*
D03*
Y385811D02*
D03*
Y387780D02*
D03*
Y389748D02*
D03*
Y391717D02*
D03*
Y393685D02*
D03*
Y395654D02*
D03*
Y397622D02*
D03*
D12*
X615500Y360685D02*
D03*
Y371315D02*
D03*
X605500Y371185D02*
D03*
Y381815D02*
D03*
D13*
X543500Y293220D02*
D03*
Y307000D02*
D03*
X606300Y305990D02*
D03*
Y292210D02*
D03*
X573000Y280220D02*
D03*
Y294000D02*
D03*
X512717Y280220D02*
D03*
Y294000D02*
D03*
X478000Y293500D02*
D03*
Y307280D02*
D03*
X443000Y423500D02*
D03*
X638500D02*
D03*
D14*
X493500Y440547D02*
D03*
Y446453D02*
D03*
X478500Y440153D02*
D03*
Y446059D02*
D03*
X462500Y440547D02*
D03*
Y446453D02*
D03*
X605000Y402047D02*
D03*
Y407953D02*
D03*
X508500Y441917D02*
D03*
Y447823D02*
D03*
X379000Y428500D02*
D03*
Y434406D02*
D03*
D15*
X372488Y412500D02*
D03*
X378000D02*
D03*
X388244Y372000D02*
D03*
X393756D02*
D03*
X377744D02*
D03*
X383256D02*
D03*
X520256Y388500D02*
D03*
X514744D02*
D03*
D16*
X366000Y428244D02*
D03*
Y433756D02*
D03*
X510000Y400256D02*
D03*
Y394744D02*
D03*
X444500Y440547D02*
D03*
Y446059D02*
D03*
X612000Y397756D02*
D03*
Y392244D02*
D03*
X403000Y354256D02*
D03*
Y348744D02*
D03*
X408500Y337744D02*
D03*
Y343256D02*
D03*
X409000Y361244D02*
D03*
Y366756D02*
D03*
X365000Y353256D02*
D03*
Y347744D02*
D03*
X509000Y348756D02*
D03*
Y343244D02*
D03*
D17*
X415055Y427417D02*
D03*
X406000D02*
D03*
X396945D02*
D03*
D18*
X406000Y404583D02*
D03*
D19*
X385500Y346500D02*
D03*
D20*
X380579Y355555D02*
D03*
X382547D02*
D03*
X384516D02*
D03*
X386484D02*
D03*
X388453D02*
D03*
X390421D02*
D03*
Y337445D02*
D03*
X388453D02*
D03*
X386484D02*
D03*
X384516D02*
D03*
X382547D02*
D03*
X380579D02*
D03*
D21*
X394555Y351421D02*
D03*
Y349453D02*
D03*
Y347484D02*
D03*
Y345516D02*
D03*
Y343547D02*
D03*
Y341579D02*
D03*
X376445D02*
D03*
Y343547D02*
D03*
Y345516D02*
D03*
Y347484D02*
D03*
Y349453D02*
D03*
Y351421D02*
D03*
D22*
X474000Y355657D02*
D03*
Y400342D02*
D03*
D23*
X512000Y378000D02*
D03*
Y374063D02*
D03*
X519000Y357532D02*
D03*
Y361469D02*
D03*
D24*
X527713Y423000D02*
D03*
X523776D02*
D03*
X538969Y429000D02*
D03*
X535031D02*
D03*
X549713Y421500D02*
D03*
X545776D02*
D03*
X559969Y428000D02*
D03*
X556031D02*
D03*
X570713Y422000D02*
D03*
X566776D02*
D03*
X581713Y427000D02*
D03*
X577776D02*
D03*
X588776Y421500D02*
D03*
X592713D02*
D03*
X602713Y427000D02*
D03*
X598776D02*
D03*
X586332Y314600D02*
D03*
X590269D02*
D03*
X587632Y281200D02*
D03*
X591569D02*
D03*
X542032Y276000D02*
D03*
X545969D02*
D03*
X491532Y298000D02*
D03*
X495469D02*
D03*
X460532Y307000D02*
D03*
X464469D02*
D03*
X535532Y319000D02*
D03*
X539469D02*
D03*
D25*
X519000Y336500D02*
D03*
Y332500D02*
D03*
D31*
X588000Y444500D02*
D03*
X404500Y449000D02*
D03*
X628000Y444000D02*
D03*
D32*
X578000Y444500D02*
D03*
X568000D02*
D03*
X558000D02*
D03*
X548000D02*
D03*
X538000D02*
D03*
X374500Y449000D02*
D03*
X384500D02*
D03*
X394500D02*
D03*
X638000Y444000D02*
D03*
X443000Y403500D02*
D03*
Y333500D02*
D03*
Y343500D02*
D03*
Y353500D02*
D03*
Y363500D02*
D03*
Y373500D02*
D03*
Y383500D02*
D03*
Y393500D02*
D03*
Y413500D02*
D03*
X638500Y403500D02*
D03*
Y333500D02*
D03*
Y343500D02*
D03*
Y353500D02*
D03*
Y363500D02*
D03*
Y373500D02*
D03*
Y383500D02*
D03*
Y393500D02*
D03*
Y413500D02*
D03*
M02*
