M48
;Layer_Color=9474304
;FILE_FORMAT=2:5
INCH,LZ
;TYPE=PLATED
T1F00S00C0.01500
T2F00S00C0.03543
%
T01
X03859Y03279
X03899Y03249
X0387665Y0344335
Y0348665
X0383335
Y0344335
X0399635Y0346146
X04043Y03449
X04259Y03455
X042Y03606
X0422Y0377553
X0402Y0369
X0387Y0366
X0389Y0422
X036Y0417
X04536Y04036
X04389Y03585
X0446Y0313
X04574Y03221
X0488Y0322
X0499Y0314
X05245Y03326
X05219Y03354
X05304Y03326
X0538878Y03358
X0558Y0331
X05645Y0327
X0573Y033
X0578Y0335
X0582Y0332
X0589Y0345
X059745Y03452
X0602Y0333
X06167Y03393
X0600843Y0362907
X05886Y03546
X0574Y0353
X0564996Y0360557
X05675Y03663
X05521Y03578
X0537323Y0364927
X0536218Y0372032
X052545Y036755
X0517Y0377
X0501Y03705
X0488Y0377
X05352Y04046
X0542815Y04127
X0560532Y0413
X0578382Y0411
X0587Y0415
X0585Y0432
X0601Y0401
X06Y0391
X05884Y03745
X0571Y0393
X0557Y03858
T02
X0443Y03335
Y03435
Y03535
Y03635
Y03735
Y03835
Y03935
Y04035
Y04135
Y04235
X0442Y0451
X0432
X0393Y0452
X0383
X0373
X0363
X0483
X0493
X0538
X0548
X0558
X0568
X0578
X0588
X06385Y04235
Y04135
Y04035
Y03935
Y03835
Y03735
Y03635
Y03535
Y03435
Y03335
M30
