G04 Layer_Color=2752767*
%FSLAX25Y25*%
%MOIN*%
G70*
G01*
G75*
%ADD59C,0.00200*%
%ADD60C,0.00267*%
D59*
X637700Y422700D02*
Y424300D01*
X639300D01*
Y422700D01*
X637700D01*
Y412700D02*
Y414300D01*
X639300D01*
Y412700D01*
X637700D01*
Y392700D02*
Y394300D01*
X639300D01*
Y392700D01*
X637700D01*
Y382700D02*
Y384300D01*
X639300D01*
Y382700D01*
X637700D01*
Y372700D02*
Y374300D01*
X639300D01*
Y372700D01*
X637700D01*
Y362700D02*
Y364300D01*
X639300D01*
Y362700D01*
X637700D01*
Y352700D02*
Y354300D01*
X639300D01*
Y352700D01*
X637700D01*
Y342700D02*
Y344300D01*
X639300D01*
Y342700D01*
X637700D01*
Y332700D02*
Y334300D01*
X639300D01*
Y332700D01*
X637700D01*
Y402700D02*
Y404300D01*
X639300D01*
Y402700D01*
X637700D01*
X442200Y422700D02*
Y424300D01*
X443800D01*
Y422700D01*
X442200D01*
Y412700D02*
Y414300D01*
X443800D01*
Y412700D01*
X442200D01*
Y392700D02*
Y394300D01*
X443800D01*
Y392700D01*
X442200D01*
Y382700D02*
Y384300D01*
X443800D01*
Y382700D01*
X442200D01*
Y372700D02*
Y374300D01*
X443800D01*
Y372700D01*
X442200D01*
Y362700D02*
Y364300D01*
X443800D01*
Y362700D01*
X442200D01*
Y352700D02*
Y354300D01*
X443800D01*
Y352700D01*
X442200D01*
Y342700D02*
Y344300D01*
X443800D01*
Y342700D01*
X442200D01*
Y332700D02*
Y334300D01*
X443800D01*
Y332700D01*
X442200D01*
Y402700D02*
Y404300D01*
X443800D01*
Y402700D01*
X442200D01*
X637200Y443200D02*
Y444800D01*
X638800D01*
Y443200D01*
X637200D01*
X627200D02*
Y444800D01*
X628800D01*
Y443200D01*
X627200D01*
X403700Y448200D02*
Y449800D01*
X405300D01*
Y448200D01*
X403700D01*
X393700D02*
Y449800D01*
X395300D01*
Y448200D01*
X393700D01*
X383700D02*
Y449800D01*
X385300D01*
Y448200D01*
X383700D01*
X373700D02*
Y449800D01*
X375300D01*
Y448200D01*
X373700D01*
X537200Y443700D02*
Y445300D01*
X538800D01*
Y443700D01*
X537200D01*
X547200D02*
Y445300D01*
X548800D01*
Y443700D01*
X547200D01*
X557200D02*
Y445300D01*
X558800D01*
Y443700D01*
X557200D01*
X567200D02*
Y445300D01*
X568800D01*
Y443700D01*
X567200D01*
X577200D02*
Y445300D01*
X578800D01*
Y443700D01*
X577200D01*
X587200D02*
Y445300D01*
X588800D01*
Y443700D01*
X587200D01*
D60*
X384135Y348665D02*
G03*
X384135Y348665I-800J0D01*
G01*
X388465D02*
G03*
X388465Y348665I-800J0D01*
G01*
X384135Y344335D02*
G03*
X384135Y344335I-800J0D01*
G01*
X388465D02*
G03*
X388465Y344335I-800J0D01*
G01*
X361300Y415000D02*
G03*
X361300Y415000I-800J0D01*
G01*
X543615Y412700D02*
G03*
X543615Y412700I-800J0D01*
G01*
X454400Y403600D02*
G03*
X454400Y403600I-800J0D01*
G01*
X557800Y385800D02*
G03*
X557800Y385800I-800J0D01*
G01*
X501800Y370500D02*
G03*
X501800Y370500I-800J0D01*
G01*
X589200Y374500D02*
G03*
X589200Y374500I-800J0D01*
G01*
X601643Y362907D02*
G03*
X601643Y362907I-800J0D01*
G01*
X602800Y333000D02*
G03*
X602800Y333000I-800J0D01*
G01*
X575111Y423700D02*
G03*
X575111Y423700I-800J0D01*
G01*
X577080Y393500D02*
G03*
X577080Y393500I-800J0D01*
G01*
X538123Y364927D02*
G03*
X538123Y364927I-800J0D01*
G01*
X420800Y360600D02*
G03*
X420800Y360600I-800J0D01*
G01*
X526250Y367550D02*
G03*
X526250Y367550I-800J0D01*
G01*
X401100Y344200D02*
G03*
X401100Y344200I-800J0D01*
G01*
X521200Y378500D02*
G03*
X521200Y378500I-800J0D01*
G01*
X405100Y344900D02*
G03*
X405100Y344900I-800J0D01*
G01*
X598250Y345200D02*
G03*
X598250Y345200I-800J0D01*
G01*
X561332Y413000D02*
G03*
X561332Y413000I-800J0D01*
G01*
X565300Y327000D02*
G03*
X565300Y327000I-800J0D01*
G01*
X458200Y322100D02*
G03*
X458200Y322100I-800J0D01*
G01*
X488100Y319400D02*
G03*
X488100Y319400I-800J0D01*
G01*
X598600Y390317D02*
G03*
X598600Y390317I-800J0D01*
G01*
X589400Y354600D02*
G03*
X589400Y354600I-800J0D01*
G01*
X439700Y358500D02*
G03*
X439700Y358500I-800J0D01*
G01*
X568300Y366300D02*
G03*
X568300Y366300I-800J0D01*
G01*
X539678Y335800D02*
G03*
X539678Y335800I-800J0D01*
G01*
X390700Y324900D02*
G03*
X390700Y324900I-800J0D01*
G01*
X522700Y335400D02*
G03*
X522700Y335400I-800J0D01*
G01*
X537018Y372032D02*
G03*
X537018Y372032I-800J0D01*
G01*
X413300Y337400D02*
G03*
X413300Y337400I-800J0D01*
G01*
X405697Y340603D02*
G03*
X405697Y340603I-800J0D01*
G01*
X398700Y354300D02*
G03*
X398700Y354300I-800J0D01*
G01*
X617500Y339300D02*
G03*
X617500Y339300I-800J0D01*
G01*
X589576Y430300D02*
G03*
X589576Y430300I-800J0D01*
G01*
X581700D02*
G03*
X581700Y430300I-800J0D01*
G01*
X531200Y332600D02*
G03*
X531200Y332600I-800J0D01*
G01*
X393900Y354700D02*
G03*
X393900Y354700I-800J0D01*
G01*
X525300Y332600D02*
G03*
X525300Y332600I-800J0D01*
G01*
X373500Y386600D02*
G03*
X373500Y386600I-800J0D01*
G01*
X378800Y399400D02*
G03*
X378800Y399400I-800J0D01*
G01*
X536000Y404600D02*
G03*
X536000Y404600I-800J0D01*
G01*
X573800Y286100D02*
G03*
X573800Y286100I-800J0D01*
G01*
X513517D02*
G03*
X513517Y286100I-800J0D01*
G01*
X513500D02*
G03*
X513500Y286100I-800J0D01*
G01*
X516200Y376800D02*
G03*
X516200Y376800I-800J0D01*
G01*
Y367533D02*
G03*
X516200Y367533I-800J0D01*
G01*
X363400Y428244D02*
G03*
X363400Y428244I-800J0D01*
G01*
X492300Y304500D02*
G03*
X492300Y304500I-800J0D01*
G01*
X511300D02*
G03*
X511300Y304500I-800J0D01*
G01*
X388800Y366000D02*
G03*
X388800Y366000I-800J0D01*
G01*
X393800Y362000D02*
G03*
X393800Y362000I-800J0D01*
G01*
X382800Y360000D02*
G03*
X382800Y360000I-800J0D01*
G01*
X558800Y331000D02*
G03*
X558800Y331000I-800J0D01*
G01*
X386700Y327900D02*
G03*
X386700Y327900I-800J0D01*
G01*
X552900Y357800D02*
G03*
X552900Y357800I-800J0D01*
G01*
X565796Y360557D02*
G03*
X565796Y360557I-800J0D01*
G01*
X574800Y353000D02*
G03*
X574800Y353000I-800J0D01*
G01*
X589800Y345000D02*
G03*
X589800Y345000I-800J0D01*
G01*
X573800Y330000D02*
G03*
X573800Y330000I-800J0D01*
G01*
X582800Y332000D02*
G03*
X582800Y332000I-800J0D01*
G01*
X578800Y335000D02*
G03*
X578800Y335000I-800J0D01*
G01*
M02*
