G04 Layer_Color=8421504*
%FSLAX25Y25*%
%MOIN*%
G70*
G01*
G75*
%ADD10R,0.22638X0.18701*%
%ADD11O,0.03740X0.00984*%
%ADD12O,0.00984X0.03740*%
%ADD13R,0.10630X0.10630*%
%ADD14R,0.01969X0.02362*%
%ADD15R,0.02362X0.01969*%
%ADD16R,0.02000X0.02500*%
%ADD17R,0.03543X0.03150*%
%ADD18R,0.03150X0.03543*%
%ADD19R,0.06693X0.04331*%
%ADD20R,0.03543X0.02756*%
%ADD21R,0.05906X0.05906*%
%ADD22R,0.04724X0.01181*%
%ADD23R,0.01181X0.04724*%
%ADD24R,0.12992X0.09449*%
%ADD25R,0.03937X0.09449*%
%ADD26R,0.02756X0.03543*%
D10*
X474000Y400342D02*
D03*
Y355657D02*
D03*
D11*
X376445Y351421D02*
D03*
Y349453D02*
D03*
Y347484D02*
D03*
Y345516D02*
D03*
Y343547D02*
D03*
Y341579D02*
D03*
X394555D02*
D03*
Y343547D02*
D03*
Y345516D02*
D03*
Y347484D02*
D03*
Y349453D02*
D03*
Y351421D02*
D03*
D12*
X380579Y337445D02*
D03*
X382547D02*
D03*
X384516D02*
D03*
X386484D02*
D03*
X388453D02*
D03*
X390421D02*
D03*
Y355555D02*
D03*
X388453D02*
D03*
X386484D02*
D03*
X384516D02*
D03*
X382547D02*
D03*
X380579D02*
D03*
D13*
X385500Y346500D02*
D03*
D14*
X509000Y361969D02*
D03*
Y358032D02*
D03*
X593000Y422031D02*
D03*
Y425969D02*
D03*
X545776Y421500D02*
D03*
Y425437D02*
D03*
X524000Y423032D02*
D03*
Y426968D02*
D03*
X510000Y369031D02*
D03*
Y372968D02*
D03*
D15*
X464469Y307000D02*
D03*
X460532D02*
D03*
X495469Y298000D02*
D03*
X491532D02*
D03*
X545969Y276000D02*
D03*
X542032D02*
D03*
X591569Y281200D02*
D03*
X587632D02*
D03*
X590269Y314600D02*
D03*
X586332D02*
D03*
X598776Y427000D02*
D03*
X602713D02*
D03*
X568968Y428000D02*
D03*
X565031D02*
D03*
X566968Y422000D02*
D03*
X563031D02*
D03*
X556031Y428000D02*
D03*
X559969D02*
D03*
X535031Y429000D02*
D03*
X538969D02*
D03*
X515031Y355000D02*
D03*
X518968D02*
D03*
D16*
X519000Y332500D02*
D03*
Y336500D02*
D03*
D17*
X509000Y343244D02*
D03*
Y348756D02*
D03*
X365000Y347744D02*
D03*
Y353256D02*
D03*
X373000Y361244D02*
D03*
Y366756D02*
D03*
X406000Y360244D02*
D03*
Y365756D02*
D03*
X517000Y433244D02*
D03*
Y438756D02*
D03*
X453000Y446756D02*
D03*
Y441244D02*
D03*
X510000Y394744D02*
D03*
Y400256D02*
D03*
D18*
X505756Y381000D02*
D03*
X500244D02*
D03*
X383256Y372000D02*
D03*
X377744D02*
D03*
X393756D02*
D03*
X388244D02*
D03*
X387244Y405000D02*
D03*
X392756D02*
D03*
X422756Y438000D02*
D03*
X417244D02*
D03*
X396244D02*
D03*
X401756D02*
D03*
D19*
X605500Y381815D02*
D03*
Y371185D02*
D03*
X615500Y371315D02*
D03*
Y360685D02*
D03*
D20*
X421000Y446047D02*
D03*
Y451953D02*
D03*
X500000Y438953D02*
D03*
Y433047D02*
D03*
X462500Y446453D02*
D03*
Y440547D02*
D03*
X479000Y438953D02*
D03*
Y433047D02*
D03*
X489000Y438953D02*
D03*
Y433047D02*
D03*
D21*
X478000Y307280D02*
D03*
Y293500D02*
D03*
X512717Y294000D02*
D03*
Y280220D02*
D03*
X573000Y294000D02*
D03*
Y280220D02*
D03*
X606300Y292210D02*
D03*
Y305990D02*
D03*
X543500Y307000D02*
D03*
Y293220D02*
D03*
D22*
X531988Y397622D02*
D03*
Y395654D02*
D03*
Y393685D02*
D03*
Y391717D02*
D03*
Y389748D02*
D03*
Y387780D02*
D03*
Y385811D02*
D03*
Y383843D02*
D03*
Y381874D02*
D03*
Y379906D02*
D03*
Y377937D02*
D03*
Y375969D02*
D03*
Y374000D02*
D03*
Y372032D02*
D03*
Y370063D02*
D03*
Y368094D02*
D03*
Y366126D02*
D03*
Y364157D02*
D03*
Y362189D02*
D03*
Y360220D02*
D03*
Y358252D02*
D03*
Y356283D02*
D03*
Y354315D02*
D03*
Y352346D02*
D03*
Y350378D02*
D03*
X593012D02*
D03*
Y352346D02*
D03*
Y354315D02*
D03*
Y356283D02*
D03*
Y358252D02*
D03*
Y360220D02*
D03*
Y362189D02*
D03*
Y364157D02*
D03*
Y366126D02*
D03*
Y368094D02*
D03*
Y370063D02*
D03*
Y372032D02*
D03*
Y374000D02*
D03*
Y375969D02*
D03*
Y377937D02*
D03*
Y379906D02*
D03*
Y381874D02*
D03*
Y383843D02*
D03*
Y385811D02*
D03*
Y387780D02*
D03*
Y389748D02*
D03*
Y391717D02*
D03*
Y393685D02*
D03*
Y395654D02*
D03*
Y397622D02*
D03*
D23*
X538878Y343488D02*
D03*
X540846D02*
D03*
X542815D02*
D03*
X544783D02*
D03*
X546752D02*
D03*
X548720D02*
D03*
X550689D02*
D03*
X552657D02*
D03*
X554626D02*
D03*
X556594D02*
D03*
X558563D02*
D03*
X560532D02*
D03*
X562500D02*
D03*
X564469D02*
D03*
X566437D02*
D03*
X568406D02*
D03*
X570374D02*
D03*
X572343D02*
D03*
X574311D02*
D03*
X576280D02*
D03*
X578248D02*
D03*
X580217D02*
D03*
X582185D02*
D03*
X584154D02*
D03*
X586122D02*
D03*
Y404512D02*
D03*
X584154D02*
D03*
X582185D02*
D03*
X580217D02*
D03*
X578248D02*
D03*
X576280D02*
D03*
X574311D02*
D03*
X572343D02*
D03*
X570374D02*
D03*
X568406D02*
D03*
X566437D02*
D03*
X564469D02*
D03*
X562500D02*
D03*
X560532D02*
D03*
X558563D02*
D03*
X556594D02*
D03*
X554626D02*
D03*
X552657D02*
D03*
X550689D02*
D03*
X548720D02*
D03*
X546752D02*
D03*
X544783D02*
D03*
X542815D02*
D03*
X540846D02*
D03*
X538878D02*
D03*
D24*
X406000Y404583D02*
D03*
D25*
X396945Y427417D02*
D03*
X406000D02*
D03*
X415055D02*
D03*
D26*
X527953Y416000D02*
D03*
X522047D02*
D03*
M02*
