G04 Layer_Color=32768*
%FSLAX25Y25*%
%MOIN*%
G70*
G01*
G75*
%ADD24C,0.04724*%
%ADD57C,0.00394*%
%ADD58C,0.00197*%
D24*
X100000Y100000D02*
X727000D01*
Y483500D01*
X100000D02*
X727000D01*
X100000Y100000D02*
Y483500D01*
D57*
X505512Y182350D02*
Y188650D01*
X494488Y182350D02*
Y188650D01*
Y182350D02*
X505512D01*
X494488Y188650D02*
X505512D01*
X498032Y185500D02*
X501968D01*
X500000Y183531D02*
Y187469D01*
X378224Y221335D02*
Y225665D01*
X368776Y221335D02*
Y225665D01*
Y221335D02*
X378224D01*
X368776Y225665D02*
X378224D01*
X371630Y223500D02*
X375370D01*
X373500Y221630D02*
Y225370D01*
X347988Y220350D02*
Y226650D01*
X359012Y220350D02*
Y226650D01*
X347988D02*
X359012D01*
X347988Y220350D02*
X359012D01*
X351532Y223500D02*
X355469D01*
X353500Y221532D02*
Y225468D01*
X256512Y182350D02*
Y188650D01*
X245488Y182350D02*
Y188650D01*
Y182350D02*
X256512D01*
X245488Y188650D02*
X256512D01*
X249031Y185500D02*
X252969D01*
X251000Y183531D02*
Y187469D01*
X585000Y385532D02*
Y389469D01*
X583032Y387500D02*
X586969D01*
X261464Y266032D02*
Y269969D01*
X259496Y268000D02*
X263433D01*
X255724Y221335D02*
Y225665D01*
X246276Y221335D02*
Y225665D01*
Y221335D02*
X255724D01*
X246276Y225665D02*
X255724D01*
X249130Y223500D02*
X252870D01*
X251000Y221630D02*
Y225370D01*
X146282Y208000D02*
X150219D01*
X148250Y206032D02*
Y209969D01*
X201782Y208000D02*
X205719D01*
X203750Y206032D02*
Y209969D01*
X174032Y208000D02*
X177969D01*
X176000Y206032D02*
Y209969D01*
X131724Y221335D02*
Y225665D01*
X122276Y221335D02*
Y225665D01*
Y221335D02*
X131724D01*
X122276Y225665D02*
X131724D01*
X125130Y223500D02*
X128870D01*
X127000Y221630D02*
Y225370D01*
X224776Y202335D02*
Y206665D01*
X234224Y202335D02*
Y206665D01*
X224776D02*
X234224D01*
X224776Y202335D02*
X234224D01*
X227630Y204500D02*
X231370D01*
X229500Y202630D02*
Y206370D01*
X246776Y202335D02*
Y206665D01*
X256224Y202335D02*
Y206665D01*
X246776D02*
X256224D01*
X246776Y202335D02*
X256224D01*
X249630Y204500D02*
X253370D01*
X251500Y202630D02*
Y206370D01*
X122276Y202335D02*
Y206665D01*
X131724Y202335D02*
Y206665D01*
X122276D02*
X131724D01*
X122276Y202335D02*
X131724D01*
X125130Y204500D02*
X128870D01*
X127000Y202630D02*
Y206370D01*
X106276Y202335D02*
Y206665D01*
X115724Y202335D02*
Y206665D01*
X106276D02*
X115724D01*
X106276Y202335D02*
X115724D01*
X109130Y204500D02*
X112870D01*
X111000Y202630D02*
Y206370D01*
X672835Y419724D02*
X677165D01*
X672835Y410276D02*
X677165D01*
Y419724D01*
X672835Y410276D02*
Y419724D01*
X675000Y413130D02*
Y416870D01*
X673130Y415000D02*
X676870D01*
X464724Y444835D02*
Y449165D01*
X455276Y444835D02*
Y449165D01*
Y444835D02*
X464724D01*
X455276Y449165D02*
X464724D01*
X458130Y447000D02*
X461870D01*
X460000Y445130D02*
Y448870D01*
X478276Y444835D02*
Y449165D01*
X487724Y444835D02*
Y449165D01*
X478276D02*
X487724D01*
X478276Y444835D02*
X487724D01*
X481130Y447000D02*
X484870D01*
X483000Y445130D02*
Y448870D01*
X464724Y457835D02*
Y462165D01*
X455275Y457835D02*
Y462165D01*
Y457835D02*
X464724D01*
X455275Y462165D02*
X464724D01*
X458130Y460000D02*
X461870D01*
X460000Y458130D02*
Y461870D01*
X478276Y457335D02*
Y461665D01*
X487724Y457335D02*
Y461665D01*
X478276D02*
X487724D01*
X478276Y457335D02*
X487724D01*
X481130Y459500D02*
X484870D01*
X483000Y457630D02*
Y461370D01*
X232224Y273835D02*
Y278165D01*
X222776Y273835D02*
Y278165D01*
Y273835D02*
X232224D01*
X222776Y278165D02*
X232224D01*
X225630Y276000D02*
X229370D01*
X227500Y274130D02*
Y277870D01*
X232224Y255835D02*
Y260165D01*
X222776Y255835D02*
Y260165D01*
Y255835D02*
X232224D01*
X222776Y260165D02*
X232224D01*
X225630Y258000D02*
X229370D01*
X227500Y256130D02*
Y259870D01*
X636224Y285335D02*
Y289665D01*
X626776Y285335D02*
Y289665D01*
Y285335D02*
X636224D01*
X626776Y289665D02*
X636224D01*
X629630Y287500D02*
X633370D01*
X631500Y285630D02*
Y289370D01*
X636224Y300835D02*
Y305165D01*
X626776Y300835D02*
Y305165D01*
Y300835D02*
X636224D01*
X626776Y305165D02*
X636224D01*
X629630Y303000D02*
X633370D01*
X631500Y301130D02*
Y304870D01*
X124724Y273835D02*
Y278165D01*
X115276Y273835D02*
Y278165D01*
Y273835D02*
X124724D01*
X115276Y278165D02*
X124724D01*
X118130Y276000D02*
X121870D01*
X120000Y274130D02*
Y277870D01*
X124724Y255835D02*
Y260165D01*
X115276Y255835D02*
Y260165D01*
Y255835D02*
X124724D01*
X115276Y260165D02*
X124724D01*
X118130Y258000D02*
X121870D01*
X120000Y256130D02*
Y259870D01*
X387724Y272835D02*
Y277165D01*
X378276Y272835D02*
Y277165D01*
Y272835D02*
X387724D01*
X378276Y277165D02*
X387724D01*
X381130Y275000D02*
X384870D01*
X383000Y273130D02*
Y276870D01*
X387724Y254835D02*
Y259165D01*
X378276Y254835D02*
Y259165D01*
Y254835D02*
X387724D01*
X378276Y259165D02*
X387724D01*
X381130Y257000D02*
X384870D01*
X383000Y255130D02*
Y258870D01*
X528224Y300835D02*
Y305165D01*
X518776Y300835D02*
Y305165D01*
Y300835D02*
X528224D01*
X518776Y305165D02*
X528224D01*
X521630Y303000D02*
X525370D01*
X523500Y301130D02*
Y304870D01*
X528224Y285335D02*
Y289665D01*
X518776Y285335D02*
Y289665D01*
Y285335D02*
X528224D01*
X518776Y289665D02*
X528224D01*
X521630Y287500D02*
X525370D01*
X523500Y285630D02*
Y289370D01*
X178276Y273835D02*
Y278165D01*
X187724Y273835D02*
Y278165D01*
X178276D02*
X187724D01*
X178276Y273835D02*
X187724D01*
X181130Y276000D02*
X184870D01*
X183000Y274130D02*
Y277870D01*
X187724Y255835D02*
Y260165D01*
X178276Y255835D02*
Y260165D01*
Y255835D02*
X187724D01*
X178276Y260165D02*
X187724D01*
X181130Y258000D02*
X184870D01*
X183000Y256130D02*
Y259870D01*
X121724Y153335D02*
Y157665D01*
X112276Y153335D02*
Y157665D01*
Y153335D02*
X121724D01*
X112276Y157665D02*
X121724D01*
X115130Y155500D02*
X118870D01*
X117000Y153630D02*
Y157370D01*
X112276Y135835D02*
Y140165D01*
X121724Y135835D02*
Y140165D01*
X112276D02*
X121724D01*
X112276Y135835D02*
X121724D01*
X115130Y138000D02*
X118870D01*
X117000Y136130D02*
Y139870D01*
X287276Y273835D02*
Y278165D01*
X296724Y273835D02*
Y278165D01*
X287276D02*
X296724D01*
X287276Y273835D02*
X296724D01*
X290130Y276000D02*
X293870D01*
X292000Y274130D02*
Y277870D01*
X296724Y255835D02*
Y260165D01*
X287276Y255835D02*
Y260165D01*
Y255835D02*
X296724D01*
X287276Y260165D02*
X296724D01*
X290130Y258000D02*
X293870D01*
X292000Y256130D02*
Y259870D01*
X244974Y153335D02*
Y157665D01*
X235526Y153335D02*
Y157665D01*
Y153335D02*
X244974D01*
X235526Y157665D02*
X244974D01*
X238380Y155500D02*
X242120D01*
X240250Y153630D02*
Y157370D01*
X235276Y135835D02*
Y140165D01*
X244724Y135835D02*
Y140165D01*
X235276D02*
X244724D01*
X235276Y135835D02*
X244724D01*
X238130Y138000D02*
X241870D01*
X240000Y136130D02*
Y139870D01*
X614724Y153335D02*
Y157665D01*
X605276Y153335D02*
Y157665D01*
Y153335D02*
X614724D01*
X605276Y157665D02*
X614724D01*
X608130Y155500D02*
X611870D01*
X610000Y153630D02*
Y157370D01*
X605276Y135835D02*
Y140165D01*
X614724Y135835D02*
Y140165D01*
X605276D02*
X614724D01*
X605276Y135835D02*
X614724D01*
X608130Y138000D02*
X611870D01*
X610000Y136130D02*
Y139870D01*
X693323Y300835D02*
Y305165D01*
X702772Y300835D02*
Y305165D01*
X693323D02*
X702772D01*
X693323Y300835D02*
X702772D01*
X696177Y303000D02*
X699917D01*
X698047Y301130D02*
Y304870D01*
X702772Y285335D02*
Y289665D01*
X693323Y285335D02*
Y289665D01*
Y285335D02*
X702772D01*
X693323Y289665D02*
X702772D01*
X696177Y287500D02*
X699917D01*
X698047Y285630D02*
Y289370D01*
X439275Y273835D02*
Y278165D01*
X448724Y273835D02*
Y278165D01*
X439275D02*
X448724D01*
X439275Y273835D02*
X448724D01*
X442130Y276000D02*
X445870D01*
X444000Y274130D02*
Y277870D01*
X448724Y255835D02*
Y260165D01*
X439276Y255835D02*
Y260165D01*
Y255835D02*
X448724D01*
X439276Y260165D02*
X448724D01*
X442130Y258000D02*
X445870D01*
X444000Y256130D02*
Y259870D01*
X368224Y153335D02*
Y157665D01*
X358776Y153335D02*
Y157665D01*
Y153335D02*
X368224D01*
X358776Y157665D02*
X368224D01*
X361630Y155500D02*
X365370D01*
X363500Y153630D02*
Y157370D01*
X358776Y135835D02*
Y140165D01*
X368224Y135835D02*
Y140165D01*
X358776D02*
X368224D01*
X358776Y135835D02*
X368224D01*
X361630Y138000D02*
X365370D01*
X363500Y136130D02*
Y139870D01*
X573276Y300835D02*
Y305165D01*
X582724Y300835D02*
Y305165D01*
X573276D02*
X582724D01*
X573276Y300835D02*
X582724D01*
X576130Y303000D02*
X579870D01*
X578000Y301130D02*
Y304870D01*
X582724Y285335D02*
Y289665D01*
X573276Y285335D02*
Y289665D01*
Y285335D02*
X582724D01*
X573276Y289665D02*
X582724D01*
X576130Y287500D02*
X579870D01*
X578000Y285630D02*
Y289370D01*
X491474Y153335D02*
Y157665D01*
X482026Y153335D02*
Y157665D01*
Y153335D02*
X491474D01*
X482026Y157665D02*
X491474D01*
X484880Y155500D02*
X488620D01*
X486750Y153630D02*
Y157370D01*
X482026Y135835D02*
Y140165D01*
X491474Y135835D02*
Y140165D01*
X482026D02*
X491474D01*
X482026Y135835D02*
X491474D01*
X484880Y138000D02*
X488620D01*
X486750Y136130D02*
Y139870D01*
X323969Y318835D02*
Y323165D01*
X314520Y318835D02*
Y323165D01*
Y318835D02*
X323969D01*
X314520Y323165D02*
X323969D01*
X317374Y321000D02*
X321114D01*
X319244Y319130D02*
Y322870D01*
X419000Y265032D02*
Y268969D01*
X417032Y267000D02*
X420969D01*
X547500Y263032D02*
Y266969D01*
X545531Y265000D02*
X549468D01*
X665130Y265032D02*
Y268969D01*
X663161Y267000D02*
X667098D01*
X326532Y208000D02*
X330469D01*
X328500Y206032D02*
Y209969D01*
X298532Y208000D02*
X302469D01*
X300500Y206032D02*
Y209969D01*
X270532Y208000D02*
X274469D01*
X272500Y206032D02*
Y209969D01*
X450916Y208000D02*
X454853D01*
X452885Y206032D02*
Y209969D01*
X423166Y208000D02*
X427103D01*
X425135Y206032D02*
Y209969D01*
X368776Y202335D02*
Y206665D01*
X378224Y202335D02*
Y206665D01*
X368776D02*
X378224D01*
X368776Y202335D02*
X378224D01*
X371630Y204500D02*
X375370D01*
X373500Y202630D02*
Y206370D01*
X348776Y202335D02*
Y206665D01*
X358224Y202335D02*
Y206665D01*
X348776D02*
X358224D01*
X348776Y202335D02*
X358224D01*
X351630Y204500D02*
X355370D01*
X353500Y202630D02*
Y206370D01*
X395416Y208000D02*
X399353D01*
X397385Y206032D02*
Y209969D01*
X575532Y207500D02*
X579469D01*
X577500Y205532D02*
Y209469D01*
X548032Y207500D02*
X551969D01*
X550000Y205532D02*
Y209469D01*
X495276Y202335D02*
Y206665D01*
X504724Y202335D02*
Y206665D01*
X495276D02*
X504724D01*
X495276Y202335D02*
X504724D01*
X498130Y204500D02*
X501870D01*
X500000Y202630D02*
Y206370D01*
X504724Y221335D02*
Y225665D01*
X495276Y221335D02*
Y225665D01*
Y221335D02*
X504724D01*
X495276Y225665D02*
X504724D01*
X498130Y223500D02*
X501870D01*
X500000Y221630D02*
Y225370D01*
X474776Y202335D02*
Y206665D01*
X484224Y202335D02*
Y206665D01*
X474776D02*
X484224D01*
X474776Y202335D02*
X484224D01*
X477630Y204500D02*
X481370D01*
X479500Y202630D02*
Y206370D01*
X520532Y207500D02*
X524469D01*
X522500Y205532D02*
Y209469D01*
X699782Y207500D02*
X703719D01*
X701750Y205532D02*
Y209469D01*
X672532Y207500D02*
X676469D01*
X674500Y205532D02*
Y209469D01*
X618776Y202335D02*
Y206665D01*
X628224Y202335D02*
Y206665D01*
X618776D02*
X628224D01*
X618776Y202335D02*
X628224D01*
X621630Y204500D02*
X625370D01*
X623500Y202630D02*
Y206370D01*
X628224Y221335D02*
Y225665D01*
X618776Y221335D02*
Y225665D01*
Y221335D02*
X628224D01*
X618776Y225665D02*
X628224D01*
X621630Y223500D02*
X625370D01*
X623500Y221630D02*
Y225370D01*
X596276Y202335D02*
Y206665D01*
X605724Y202335D02*
Y206665D01*
X596276D02*
X605724D01*
X596276Y202335D02*
X605724D01*
X599130Y204500D02*
X602870D01*
X601000Y202630D02*
Y206370D01*
X645282Y207500D02*
X649219D01*
X647250Y205532D02*
Y209469D01*
X154500Y266032D02*
Y269969D01*
X152531Y268000D02*
X156468D01*
X130486Y365835D02*
Y370165D01*
X121037Y365835D02*
Y370165D01*
Y365835D02*
X130486D01*
X121037Y370165D02*
X130486D01*
X123892Y368000D02*
X127632D01*
X125762Y366130D02*
Y369870D01*
X135787Y365835D02*
Y370165D01*
X145236Y365835D02*
Y370165D01*
X135787D02*
X145236D01*
X135787Y365835D02*
X145236D01*
X138642Y368000D02*
X142382D01*
X140512Y366130D02*
Y369870D01*
X444276Y365585D02*
Y369915D01*
X453724Y365585D02*
Y369915D01*
X444276D02*
X453724D01*
X444276Y365585D02*
X453724D01*
X447130Y367750D02*
X450870D01*
X449000Y365880D02*
Y369620D01*
X651775Y379935D02*
Y384265D01*
X661224Y379935D02*
Y384265D01*
X651775D02*
X661224D01*
X651775Y379935D02*
X661224D01*
X654630Y382100D02*
X658370D01*
X656500Y380230D02*
Y383970D01*
X651775Y366135D02*
Y370465D01*
X661224Y366135D02*
Y370465D01*
X651775D02*
X661224D01*
X651775Y366135D02*
X661224D01*
X654630Y368300D02*
X658370D01*
X656500Y366430D02*
Y370170D01*
X651775Y352335D02*
Y356665D01*
X661224Y352335D02*
Y356665D01*
X651775D02*
X661224D01*
X651775Y352335D02*
X661224D01*
X654630Y354500D02*
X658370D01*
X656500Y352630D02*
Y356370D01*
X259276Y433335D02*
Y437665D01*
X268724Y433335D02*
Y437665D01*
X259276D02*
X268724D01*
X259276Y433335D02*
X268724D01*
X262130Y435500D02*
X265870D01*
X264000Y433630D02*
Y437370D01*
X294224Y433335D02*
Y437665D01*
X284776Y433335D02*
Y437665D01*
Y433335D02*
X294224D01*
X284776Y437665D02*
X294224D01*
X287630Y435500D02*
X291370D01*
X289500Y433630D02*
Y437370D01*
X259276Y417835D02*
Y422165D01*
X268724Y417835D02*
Y422165D01*
X259276D02*
X268724D01*
X259276Y417835D02*
X268724D01*
X262130Y420000D02*
X265870D01*
X264000Y418130D02*
Y421870D01*
X651775Y445335D02*
Y449665D01*
X661224Y445335D02*
Y449665D01*
X651775D02*
X661224D01*
X651775Y445335D02*
X661224D01*
X654630Y447500D02*
X658370D01*
X656500Y445630D02*
Y449370D01*
X651775Y431535D02*
Y435865D01*
X661224Y431535D02*
Y435865D01*
X651775D02*
X661224D01*
X651775Y431535D02*
X661224D01*
X654630Y433700D02*
X658370D01*
X656500Y431830D02*
Y435570D01*
X651775Y417735D02*
Y422065D01*
X661224Y417735D02*
Y422065D01*
X651775D02*
X661224D01*
X651775Y417735D02*
X661224D01*
X654630Y419900D02*
X658370D01*
X656500Y418030D02*
Y421770D01*
X353224Y415835D02*
Y420165D01*
X343776Y415835D02*
Y420165D01*
Y415835D02*
X353224D01*
X343776Y420165D02*
X353224D01*
X346630Y418000D02*
X350370D01*
X348500Y416130D02*
Y419870D01*
X314120Y441068D02*
Y445399D01*
X323569Y441068D02*
Y445399D01*
X314120D02*
X323569D01*
X314120Y441068D02*
X323569D01*
X316974Y443233D02*
X320714D01*
X318844Y441363D02*
Y445103D01*
X353224Y433335D02*
Y437665D01*
X343776Y433335D02*
Y437665D01*
Y433335D02*
X353224D01*
X343776Y437665D02*
X353224D01*
X346630Y435500D02*
X350370D01*
X348500Y433630D02*
Y437370D01*
X314520Y304835D02*
Y309165D01*
X323969Y304835D02*
Y309165D01*
X314520D02*
X323969D01*
X314520Y304835D02*
X323969D01*
X317374Y307000D02*
X321114D01*
X319244Y305130D02*
Y308870D01*
X257725Y304835D02*
Y309165D01*
X248276Y304835D02*
Y309165D01*
Y304835D02*
X257725D01*
X248276Y309165D02*
X257725D01*
X251130Y307000D02*
X254870D01*
X253000Y305130D02*
Y308870D01*
X257725Y318835D02*
Y323165D01*
X248276Y318835D02*
Y323165D01*
Y318835D02*
X257725D01*
X248276Y323165D02*
X257725D01*
X251130Y321000D02*
X254870D01*
X253000Y319130D02*
Y322870D01*
X323024Y428735D02*
Y433065D01*
X313576Y428735D02*
Y433065D01*
Y428735D02*
X323024D01*
X313576Y433065D02*
X323024D01*
X316430Y430900D02*
X320170D01*
X318300Y429030D02*
Y432770D01*
X239224Y417835D02*
Y422165D01*
X229776Y417835D02*
Y422165D01*
Y417835D02*
X239224D01*
X229776Y422165D02*
X239224D01*
X232630Y420000D02*
X236370D01*
X234500Y418130D02*
Y421870D01*
X353224Y383168D02*
Y387499D01*
X343776Y383168D02*
Y387499D01*
Y383168D02*
X353224D01*
X343776Y387499D02*
X353224D01*
X346630Y385333D02*
X350370D01*
X348500Y383463D02*
Y387203D01*
X323969Y382918D02*
Y387249D01*
X314520Y382918D02*
Y387249D01*
Y382918D02*
X323969D01*
X314520Y387249D02*
X323969D01*
X317374Y385083D02*
X321114D01*
X319244Y383213D02*
Y386953D01*
X353224Y366835D02*
Y371165D01*
X343776Y366835D02*
Y371165D01*
Y366835D02*
X353224D01*
X343776Y371165D02*
X353224D01*
X346630Y369000D02*
X350370D01*
X348500Y367130D02*
Y370870D01*
X294224Y337835D02*
Y342165D01*
X284776Y337835D02*
Y342165D01*
Y337835D02*
X294224D01*
X284776Y342165D02*
X294224D01*
X287630Y340000D02*
X291370D01*
X289500Y338130D02*
Y341870D01*
X294224Y350835D02*
Y355165D01*
X284776Y350835D02*
Y355165D01*
Y350835D02*
X294224D01*
X284776Y355165D02*
X294224D01*
X287630Y353000D02*
X291370D01*
X289500Y351130D02*
Y354870D01*
X323969Y350835D02*
Y355165D01*
X314520Y350835D02*
Y355165D01*
Y350835D02*
X323969D01*
X314520Y355165D02*
X323969D01*
X317374Y353000D02*
X321114D01*
X319244Y351130D02*
Y354870D01*
X324224Y336335D02*
Y340665D01*
X314775Y336335D02*
Y340665D01*
Y336335D02*
X324224D01*
X314775Y340665D02*
X324224D01*
X317630Y338500D02*
X321370D01*
X319500Y336630D02*
Y340370D01*
X399224Y301835D02*
Y306165D01*
X389776Y301835D02*
Y306165D01*
Y301835D02*
X399224D01*
X389776Y306165D02*
X399224D01*
X392630Y304000D02*
X396370D01*
X394500Y302130D02*
Y305870D01*
X389276Y318335D02*
Y322665D01*
X398725Y318335D02*
Y322665D01*
X389276D02*
X398725D01*
X389276Y318335D02*
X398725D01*
X392130Y320500D02*
X395870D01*
X394000Y318630D02*
Y322370D01*
X366520Y309335D02*
Y313665D01*
X375968Y309335D02*
Y313665D01*
X366520D02*
X375968D01*
X366520Y309335D02*
X375968D01*
X369374Y311500D02*
X373114D01*
X371244Y309630D02*
Y313370D01*
X685276Y379935D02*
Y384265D01*
X694724Y379935D02*
Y384265D01*
X685276D02*
X694724D01*
X685276Y379935D02*
X694724D01*
X688130Y382100D02*
X691870D01*
X690000Y380230D02*
Y383970D01*
X685276Y366135D02*
Y370465D01*
X694724Y366135D02*
Y370465D01*
X685276D02*
X694724D01*
X685276Y366135D02*
X694724D01*
X688130Y368300D02*
X691870D01*
X690000Y366430D02*
Y370170D01*
X685276Y352335D02*
Y356665D01*
X694724Y352335D02*
Y356665D01*
X685276D02*
X694724D01*
X685276Y352335D02*
X694724D01*
X688130Y354500D02*
X691870D01*
X690000Y352630D02*
Y356370D01*
X527224Y417335D02*
Y421665D01*
X517776Y417335D02*
Y421665D01*
Y417335D02*
X527224D01*
X517776Y421665D02*
X527224D01*
X520630Y419500D02*
X524370D01*
X522500Y417630D02*
Y421370D01*
X493471Y417335D02*
Y421665D01*
X502920Y417335D02*
Y421665D01*
X493471D02*
X502920D01*
X493471Y417335D02*
X502920D01*
X496325Y419500D02*
X500065D01*
X498195Y417630D02*
Y421370D01*
X527224Y397835D02*
Y402165D01*
X517776Y397835D02*
Y402165D01*
Y397835D02*
X527224D01*
X517776Y402165D02*
X527224D01*
X520630Y400000D02*
X524370D01*
X522500Y398130D02*
Y401870D01*
X685276Y445335D02*
Y449665D01*
X694724Y445335D02*
Y449665D01*
X685276D02*
X694724D01*
X685276Y445335D02*
X694724D01*
X688130Y447500D02*
X691870D01*
X690000Y445630D02*
Y449370D01*
X685276Y431535D02*
Y435865D01*
X694724Y431535D02*
Y435865D01*
X685276D02*
X694724D01*
X685276Y431535D02*
X694724D01*
X688130Y433700D02*
X691870D01*
X690000Y431830D02*
Y435570D01*
X685276Y417735D02*
Y422065D01*
X694724Y417735D02*
Y422065D01*
X685276D02*
X694724D01*
X685276Y417735D02*
X694724D01*
X688130Y419900D02*
X691870D01*
X690000Y418030D02*
Y421770D01*
X554724Y375335D02*
Y379665D01*
X545276Y375335D02*
Y379665D01*
Y375335D02*
X554724D01*
X545276Y379665D02*
X554724D01*
X548130Y377500D02*
X551870D01*
X550000Y375630D02*
Y379370D01*
X613776Y375835D02*
Y380165D01*
X623224Y375835D02*
Y380165D01*
X613776D02*
X623224D01*
X613776Y375835D02*
X623224D01*
X616630Y378000D02*
X620370D01*
X618500Y376130D02*
Y379870D01*
X468609Y417335D02*
Y421665D01*
X478058Y417335D02*
Y421665D01*
X468609D02*
X478058D01*
X468609Y417335D02*
X478058D01*
X471463Y419500D02*
X475203D01*
X473333Y417630D02*
Y421370D01*
X453724Y417335D02*
Y421665D01*
X444276Y417335D02*
Y421665D01*
Y417335D02*
X453724D01*
X444276Y421665D02*
X453724D01*
X447130Y419500D02*
X450870D01*
X449000Y417630D02*
Y421370D01*
X502920Y350525D02*
Y354856D01*
X493471Y350525D02*
Y354856D01*
Y350525D02*
X502920D01*
X493471Y354856D02*
X502920D01*
X496325Y352691D02*
X500065D01*
X498195Y350820D02*
Y354561D01*
X517776Y350525D02*
Y354856D01*
X527224Y350525D02*
Y354856D01*
X517776D02*
X527224D01*
X517776Y350525D02*
X527224D01*
X520630Y352691D02*
X524370D01*
X522500Y350821D02*
Y354561D01*
X527224Y370335D02*
Y374665D01*
X517776Y370335D02*
Y374665D01*
Y370335D02*
X527224D01*
X517776Y374665D02*
X527224D01*
X520630Y372500D02*
X524370D01*
X522500Y370630D02*
Y374370D01*
X623224Y408335D02*
Y412665D01*
X613776Y408335D02*
Y412665D01*
Y408335D02*
X623224D01*
X613776Y412665D02*
X623224D01*
X616630Y410500D02*
X620370D01*
X618500Y408630D02*
Y412370D01*
X284776Y417835D02*
Y422165D01*
X294224Y417835D02*
Y422165D01*
X284776D02*
X294224D01*
X284776Y417835D02*
X294224D01*
X287630Y420000D02*
X291370D01*
X289500Y418130D02*
Y421870D01*
X548725Y417335D02*
Y421665D01*
X539276Y417335D02*
Y421665D01*
Y417335D02*
X548725D01*
X539276Y421665D02*
X548725D01*
X542130Y419500D02*
X545870D01*
X544000Y417630D02*
Y421370D01*
X323969Y399501D02*
Y403832D01*
X314520Y399501D02*
Y403832D01*
Y399501D02*
X323969D01*
X314520Y403832D02*
X323969D01*
X317374Y401667D02*
X321114D01*
X319244Y399797D02*
Y403537D01*
X343776Y399501D02*
Y403832D01*
X353224Y399501D02*
Y403832D01*
X343776D02*
X353224D01*
X343776Y399501D02*
X353224D01*
X346630Y401667D02*
X350370D01*
X348500Y399797D02*
Y403537D01*
X323969Y366335D02*
Y370665D01*
X314520Y366335D02*
Y370665D01*
Y366335D02*
X323969D01*
X314520Y370665D02*
X323969D01*
X317374Y368500D02*
X321114D01*
X319244Y366630D02*
Y370370D01*
X434634Y445016D02*
Y446984D01*
X429122Y445016D02*
Y446984D01*
Y445016D02*
X434634D01*
X429122Y446984D02*
X434634D01*
X431189Y446000D02*
X432567D01*
X431878Y445311D02*
Y446689D01*
X434756Y458516D02*
Y460484D01*
X429244Y458516D02*
Y460484D01*
Y458516D02*
X434756D01*
X429244Y460484D02*
X434756D01*
X431311Y459500D02*
X432689D01*
X432000Y458811D02*
Y460189D01*
X126827Y347126D02*
X155173D01*
X126827Y312874D02*
X155173D01*
Y347126D01*
X126827Y312874D02*
Y347126D01*
X141000Y328031D02*
Y331969D01*
X139032Y330000D02*
X142969D01*
X159986Y365835D02*
Y370165D01*
X150537Y365835D02*
Y370165D01*
Y365835D02*
X159986D01*
X150537Y370165D02*
X159986D01*
X153392Y368000D02*
X157132D01*
X155262Y366130D02*
Y369870D01*
X288500Y310532D02*
Y314469D01*
X286531Y312500D02*
X290469D01*
X125762Y441130D02*
Y444870D01*
X123892Y443000D02*
X127632D01*
X121037Y445165D02*
X130486D01*
X121037Y440835D02*
X130486D01*
X121037D02*
Y445165D01*
X130486Y440835D02*
Y445165D01*
X140512Y441130D02*
Y444870D01*
X138642Y443000D02*
X142382D01*
X135787Y440835D02*
X145236D01*
X135787Y445165D02*
X145236D01*
Y440835D02*
Y445165D01*
X135787Y440835D02*
Y445165D01*
X139032Y402000D02*
X142969D01*
X141000Y400031D02*
Y403969D01*
X126827Y384874D02*
Y419126D01*
X155173Y384874D02*
Y419126D01*
X126827Y384874D02*
X155173D01*
X126827Y419126D02*
X155173D01*
X155262Y441130D02*
Y444870D01*
X153392Y443000D02*
X157132D01*
X150537Y445165D02*
X159986D01*
X150537Y440835D02*
X159986D01*
X150537D02*
Y445165D01*
X159986Y440835D02*
Y445165D01*
X234488Y364130D02*
Y367870D01*
X232618Y366000D02*
X236358D01*
X229764Y368165D02*
X239213D01*
X229764Y363835D02*
X239213D01*
X229764D02*
Y368165D01*
X239213Y363835D02*
Y368165D01*
X234488Y399130D02*
Y402870D01*
X232618Y401000D02*
X236358D01*
X229764Y398835D02*
X239213D01*
X229764Y403165D02*
X239213D01*
Y398835D02*
Y403165D01*
X229764Y398835D02*
Y403165D01*
X449000Y350630D02*
Y354370D01*
X447130Y352500D02*
X450870D01*
X444276Y354665D02*
X453724D01*
X444276Y350335D02*
X453724D01*
X444276D02*
Y354665D01*
X453724Y350335D02*
Y354665D01*
X449000Y381630D02*
Y385370D01*
X447130Y383500D02*
X450870D01*
X444276Y385665D02*
X453724D01*
X444276Y381335D02*
X453724D01*
X444276D02*
Y385665D01*
X453724Y381335D02*
Y385665D01*
X554724Y395335D02*
Y399665D01*
X545276Y395335D02*
Y399665D01*
Y395335D02*
X554724D01*
X545276Y399665D02*
X554724D01*
X548130Y397500D02*
X551870D01*
X550000Y395630D02*
Y399370D01*
X229776Y350335D02*
Y354665D01*
X239224Y350335D02*
Y354665D01*
X229776D02*
X239224D01*
X229776Y350335D02*
X239224D01*
X232630Y352500D02*
X236370D01*
X234500Y350630D02*
Y354370D01*
X623224Y395335D02*
Y399665D01*
X613776Y395335D02*
Y399665D01*
Y395335D02*
X623224D01*
X613776Y399665D02*
X623224D01*
X616630Y397500D02*
X620370D01*
X618500Y395630D02*
Y399370D01*
X105488Y182350D02*
Y188650D01*
X116512Y182350D02*
Y188650D01*
X105488D02*
X116512D01*
X105488Y182350D02*
X116512D01*
X109031Y185500D02*
X112969D01*
X111000Y183531D02*
Y187469D01*
X105488Y220350D02*
Y226650D01*
X116512Y220350D02*
Y226650D01*
X105488D02*
X116512D01*
X105488Y220350D02*
X116512D01*
X109031Y223500D02*
X112969D01*
X111000Y221532D02*
Y225468D01*
X132512Y182350D02*
Y188650D01*
X121488Y182350D02*
Y188650D01*
Y182350D02*
X132512D01*
X121488Y188650D02*
X132512D01*
X125031Y185500D02*
X128969D01*
X127000Y183531D02*
Y187469D01*
X223988Y182350D02*
Y188650D01*
X235012Y182350D02*
Y188650D01*
X223988D02*
X235012D01*
X223988Y182350D02*
X235012D01*
X227532Y185500D02*
X231469D01*
X229500Y183531D02*
Y187469D01*
X223988Y220350D02*
Y226650D01*
X235012Y220350D02*
Y226650D01*
X223988D02*
X235012D01*
X223988Y220350D02*
X235012D01*
X227532Y223500D02*
X231469D01*
X229500Y221532D02*
Y225468D01*
X347988Y182350D02*
Y188650D01*
X359012Y182350D02*
Y188650D01*
X347988D02*
X359012D01*
X347988Y182350D02*
X359012D01*
X351532Y185500D02*
X355469D01*
X353500Y183531D02*
Y187469D01*
X379012Y182350D02*
Y188650D01*
X367988Y182350D02*
Y188650D01*
Y182350D02*
X379012D01*
X367988Y188650D02*
X379012D01*
X371532Y185500D02*
X375469D01*
X373500Y183531D02*
Y187469D01*
X473988Y182350D02*
Y188650D01*
X485012Y182350D02*
Y188650D01*
X473988D02*
X485012D01*
X473988Y182350D02*
X485012D01*
X477531Y185500D02*
X481468D01*
X479500Y183531D02*
Y187469D01*
X473988Y220350D02*
Y226650D01*
X485012Y220350D02*
Y226650D01*
X473988D02*
X485012D01*
X473988Y220350D02*
X485012D01*
X477531Y223500D02*
X481468D01*
X479500Y221532D02*
Y225468D01*
X595488Y182350D02*
Y188650D01*
X606512Y182350D02*
Y188650D01*
X595488D02*
X606512D01*
X595488Y182350D02*
X606512D01*
X599031Y185500D02*
X602969D01*
X601000Y183531D02*
Y187469D01*
X595488Y220350D02*
Y226650D01*
X606512Y220350D02*
Y226650D01*
X595488D02*
X606512D01*
X595488Y220350D02*
X606512D01*
X599031Y223500D02*
X602969D01*
X601000Y221532D02*
Y225468D01*
X629012Y182350D02*
Y188650D01*
X617988Y182350D02*
Y188650D01*
Y182350D02*
X629012D01*
X617988Y188650D02*
X629012D01*
X621531Y185500D02*
X625468D01*
X623500Y183531D02*
Y187469D01*
X486581Y387181D02*
X490518D01*
X488550Y385212D02*
Y389149D01*
X281000Y386032D02*
Y389968D01*
X279031Y388000D02*
X282968D01*
D58*
X568465Y375689D02*
X601535D01*
X568465Y399311D02*
X601535D01*
Y375689D02*
Y399311D01*
X568465Y375689D02*
Y399311D01*
X246700Y257173D02*
X276228D01*
X246700Y278827D02*
X276228D01*
Y257173D02*
Y278827D01*
X246700Y257173D02*
Y278827D01*
X137423Y227488D02*
X159077D01*
X137423Y188512D02*
Y227488D01*
X159077Y188512D02*
Y227488D01*
X137423Y188512D02*
X159077D01*
X192923Y227488D02*
X214577D01*
X192923Y188512D02*
Y227488D01*
X214577Y188512D02*
Y227488D01*
X192923Y188512D02*
X214577D01*
X165173Y227488D02*
X186827D01*
X165173Y188512D02*
Y227488D01*
X186827Y188512D02*
Y227488D01*
X165173Y188512D02*
X186827D01*
X404236Y256173D02*
X433764D01*
X404236Y277827D02*
X433764D01*
Y256173D02*
Y277827D01*
X404236Y256173D02*
Y277827D01*
X532736Y254173D02*
X562264D01*
X532736Y275827D02*
X562264D01*
Y254173D02*
Y275827D01*
X532736Y254173D02*
Y275827D01*
X650366Y256173D02*
X679894D01*
X650366Y277827D02*
X679894D01*
Y256173D02*
Y277827D01*
X650366Y256173D02*
Y277827D01*
X317673Y227488D02*
X339327D01*
X317673Y188512D02*
Y227488D01*
X339327Y188512D02*
Y227488D01*
X317673Y188512D02*
X339327D01*
X289673Y227488D02*
X311327D01*
X289673Y188512D02*
Y227488D01*
X311327Y188512D02*
Y227488D01*
X289673Y188512D02*
X311327D01*
X261673Y227488D02*
X283327D01*
X261673Y188512D02*
Y227488D01*
X283327Y188512D02*
Y227488D01*
X261673Y188512D02*
X283327D01*
X442058Y227488D02*
X463712D01*
X442058Y188512D02*
Y227488D01*
X463712Y188512D02*
Y227488D01*
X442058Y188512D02*
X463712D01*
X414308Y227488D02*
X435962D01*
X414308Y188512D02*
Y227488D01*
X435962Y188512D02*
Y227488D01*
X414308Y188512D02*
X435962D01*
X386558Y227488D02*
X408212D01*
X386558Y188512D02*
Y227488D01*
X408212Y188512D02*
Y227488D01*
X386558Y188512D02*
X408212D01*
X566673Y226988D02*
X588327D01*
X566673Y188012D02*
Y226988D01*
X588327Y188012D02*
Y226988D01*
X566673Y188012D02*
X588327D01*
X539173Y226988D02*
X560827D01*
X539173Y188012D02*
Y226988D01*
X560827Y188012D02*
Y226988D01*
X539173Y188012D02*
X560827D01*
X511673Y226988D02*
X533327D01*
X511673Y188012D02*
Y226988D01*
X533327Y188012D02*
Y226988D01*
X511673Y188012D02*
X533327D01*
X690923Y226988D02*
X712577D01*
X690923Y188012D02*
Y226988D01*
X712577Y188012D02*
Y226988D01*
X690923Y188012D02*
X712577D01*
X663673Y226988D02*
X685327D01*
X663673Y188012D02*
Y226988D01*
X685327Y188012D02*
Y226988D01*
X663673Y188012D02*
X685327D01*
X636423Y226988D02*
X658077D01*
X636423Y188012D02*
Y226988D01*
X658077Y188012D02*
Y226988D01*
X636423Y188012D02*
X658077D01*
X139736Y257173D02*
X169264D01*
X139736Y278827D02*
X169264D01*
Y257173D02*
Y278827D01*
X139736Y257173D02*
Y278827D01*
X275114Y302264D02*
X301886D01*
X275114Y322736D02*
X301886D01*
Y302264D02*
Y322736D01*
X275114Y302264D02*
Y322736D01*
X474376Y373008D02*
Y401354D01*
X502723Y373008D02*
Y401354D01*
X474376Y373008D02*
X502723D01*
X474376Y401354D02*
X502723D01*
X266827Y402173D02*
X295173D01*
X266827Y373827D02*
X295173D01*
Y402173D01*
X266827Y373827D02*
Y402173D01*
M02*
