G04 Layer_Color=8388736*
%FSLAX25Y25*%
%MOIN*%
G70*
G01*
G75*
%ADD25C,0.04724*%
%ADD38R,0.04343X0.03950*%
%ADD39R,0.03556X0.04343*%
%ADD40O,0.09461X0.03162*%
%ADD41R,0.05131X0.06312*%
%ADD42R,0.16942X0.16942*%
%ADD43O,0.04540X0.01784*%
%ADD44O,0.01784X0.04540*%
%ADD45R,0.03950X0.04343*%
%ADD46R,0.04737X0.10249*%
%ADD47R,0.13792X0.10249*%
%ADD48O,0.08280X0.03162*%
%ADD49R,0.02769X0.01981*%
%ADD50R,0.04343X0.03556*%
%ADD51O,0.10642X0.03556*%
%ADD52C,0.06706*%
%ADD53R,0.06706X0.06706*%
%ADD54R,0.06706X0.06706*%
%ADD55C,0.13792*%
%ADD56R,0.05524X0.05524*%
%ADD57C,0.05524*%
%ADD58C,0.03300*%
D25*
X100000Y100000D02*
Y483500D01*
X727000D01*
Y100000D02*
Y483500D01*
X100000Y100000D02*
X727000D01*
D38*
X504500Y339656D02*
D03*
Y334144D02*
D03*
X292100Y455556D02*
D03*
Y450044D02*
D03*
X278300Y455556D02*
D03*
Y450044D02*
D03*
X264500Y455556D02*
D03*
Y450044D02*
D03*
X518300Y339656D02*
D03*
Y334144D02*
D03*
X490700Y339656D02*
D03*
Y334144D02*
D03*
D39*
X497047Y223500D02*
D03*
X502953D02*
D03*
X247547Y170300D02*
D03*
X253453D02*
D03*
X123747Y169300D02*
D03*
X129653D02*
D03*
X644560Y204500D02*
D03*
X650465D02*
D03*
X644560Y223500D02*
D03*
X650465D02*
D03*
X620247Y169500D02*
D03*
X626153D02*
D03*
X146247Y223500D02*
D03*
X152153D02*
D03*
X146247Y204500D02*
D03*
X152153D02*
D03*
X267947D02*
D03*
X273853D02*
D03*
X267947Y223500D02*
D03*
X273853D02*
D03*
X396060Y204500D02*
D03*
X401965D02*
D03*
X396060Y223500D02*
D03*
X401965D02*
D03*
X369847Y169500D02*
D03*
X375753D02*
D03*
X521160Y204500D02*
D03*
X527065D02*
D03*
X521160Y223500D02*
D03*
X527065D02*
D03*
X496947Y168400D02*
D03*
X502853D02*
D03*
X615547Y397500D02*
D03*
X621453D02*
D03*
X158215Y443000D02*
D03*
X152309D02*
D03*
Y368000D02*
D03*
X158215D02*
D03*
X603953Y204500D02*
D03*
X598047D02*
D03*
X620547Y223500D02*
D03*
X626453D02*
D03*
Y204500D02*
D03*
X620547D02*
D03*
X482453D02*
D03*
X476547D02*
D03*
X502953D02*
D03*
X497047D02*
D03*
X356453D02*
D03*
X350547D02*
D03*
X376453D02*
D03*
X370547D02*
D03*
X316291Y321000D02*
D03*
X322197D02*
D03*
X489703Y138000D02*
D03*
X483797D02*
D03*
X483797Y155500D02*
D03*
X489703D02*
D03*
X575047Y287500D02*
D03*
X580953D02*
D03*
Y303000D02*
D03*
X575047D02*
D03*
X366453Y138000D02*
D03*
X360547D02*
D03*
Y155500D02*
D03*
X366453D02*
D03*
X441047Y258000D02*
D03*
X446953D02*
D03*
X446953Y276000D02*
D03*
X441047D02*
D03*
X695094Y287500D02*
D03*
X701000D02*
D03*
Y303000D02*
D03*
X695094D02*
D03*
X612953Y138000D02*
D03*
X607047D02*
D03*
X607047Y155500D02*
D03*
X612953D02*
D03*
X242953Y138000D02*
D03*
X237047D02*
D03*
X237297Y155500D02*
D03*
X243203D02*
D03*
X289047Y258000D02*
D03*
X294953D02*
D03*
Y276000D02*
D03*
X289047D02*
D03*
X119953Y138000D02*
D03*
X114047D02*
D03*
Y155500D02*
D03*
X119953D02*
D03*
X180047Y258000D02*
D03*
X185953D02*
D03*
Y276000D02*
D03*
X180047D02*
D03*
X520547Y287500D02*
D03*
X526453D02*
D03*
X520547Y303000D02*
D03*
X526453D02*
D03*
X380047Y257000D02*
D03*
X385953D02*
D03*
X380047Y275000D02*
D03*
X385953D02*
D03*
X117047Y258000D02*
D03*
X122953D02*
D03*
X117047Y276000D02*
D03*
X122953D02*
D03*
X628547Y303000D02*
D03*
X634453D02*
D03*
X628547Y287500D02*
D03*
X634453D02*
D03*
X224547Y258000D02*
D03*
X230453D02*
D03*
X224547Y276000D02*
D03*
X230453D02*
D03*
X485953Y459500D02*
D03*
X480047D02*
D03*
X457047Y460000D02*
D03*
X462953D02*
D03*
X485953Y447000D02*
D03*
X480047D02*
D03*
X457047D02*
D03*
X462953D02*
D03*
X113953Y204500D02*
D03*
X108047D02*
D03*
X129953D02*
D03*
X124047D02*
D03*
X254453D02*
D03*
X248547D02*
D03*
X232453D02*
D03*
X226547D02*
D03*
X124047Y223500D02*
D03*
X129953D02*
D03*
X248047D02*
D03*
X253953D02*
D03*
X370547D02*
D03*
X376453D02*
D03*
D40*
X655681Y274500D02*
D03*
Y269500D02*
D03*
Y264500D02*
D03*
Y259500D02*
D03*
X674579Y274500D02*
D03*
Y269500D02*
D03*
Y264500D02*
D03*
Y259500D02*
D03*
X145051Y275500D02*
D03*
Y270500D02*
D03*
Y265500D02*
D03*
Y260500D02*
D03*
X163949Y275500D02*
D03*
Y270500D02*
D03*
Y265500D02*
D03*
Y260500D02*
D03*
X538051Y272500D02*
D03*
Y267500D02*
D03*
Y262500D02*
D03*
Y257500D02*
D03*
X556949Y272500D02*
D03*
Y267500D02*
D03*
Y262500D02*
D03*
Y257500D02*
D03*
X409551Y274500D02*
D03*
Y269500D02*
D03*
Y264500D02*
D03*
Y259500D02*
D03*
X428449Y274500D02*
D03*
Y269500D02*
D03*
Y264500D02*
D03*
Y259500D02*
D03*
X252015Y275500D02*
D03*
Y270500D02*
D03*
Y265500D02*
D03*
Y260500D02*
D03*
X270913Y275500D02*
D03*
Y270500D02*
D03*
Y265500D02*
D03*
Y260500D02*
D03*
D41*
X645347Y185500D02*
D03*
X651253D02*
D03*
X147035Y185500D02*
D03*
X152940D02*
D03*
X268735D02*
D03*
X274640D02*
D03*
X396847D02*
D03*
X402753D02*
D03*
X521947Y185500D02*
D03*
X527853D02*
D03*
X620547D02*
D03*
X626453D02*
D03*
X603953Y223500D02*
D03*
X598047D02*
D03*
X603953Y185500D02*
D03*
X598047D02*
D03*
X482453Y223500D02*
D03*
X476547D02*
D03*
X482453Y185500D02*
D03*
X476547D02*
D03*
X370547Y185500D02*
D03*
X376453D02*
D03*
X356453Y185500D02*
D03*
X350547D02*
D03*
X232453Y223500D02*
D03*
X226547D02*
D03*
X232453Y185500D02*
D03*
X226547D02*
D03*
X124047Y185500D02*
D03*
X129953D02*
D03*
X113953Y223500D02*
D03*
X108047D02*
D03*
X113953Y185500D02*
D03*
X108047D02*
D03*
X248047Y185500D02*
D03*
X253953D02*
D03*
X356453Y223500D02*
D03*
X350547D02*
D03*
X497047Y185500D02*
D03*
X502953D02*
D03*
D42*
X281000Y388000D02*
D03*
X488550Y387181D02*
D03*
D43*
X292319Y396858D02*
D03*
Y394890D02*
D03*
Y392921D02*
D03*
Y390953D02*
D03*
Y388984D02*
D03*
Y387016D02*
D03*
Y385047D02*
D03*
Y383079D02*
D03*
Y381110D02*
D03*
Y379142D02*
D03*
X269681D02*
D03*
Y381110D02*
D03*
Y383079D02*
D03*
Y385047D02*
D03*
Y387016D02*
D03*
Y388984D02*
D03*
Y390953D02*
D03*
Y392921D02*
D03*
Y394890D02*
D03*
Y396858D02*
D03*
X477231Y396039D02*
D03*
Y394071D02*
D03*
Y392102D02*
D03*
Y390134D02*
D03*
Y388165D02*
D03*
Y386197D02*
D03*
Y384228D02*
D03*
Y382260D02*
D03*
Y380291D02*
D03*
Y378323D02*
D03*
X499868D02*
D03*
Y380291D02*
D03*
Y382260D02*
D03*
Y384228D02*
D03*
Y386197D02*
D03*
Y388165D02*
D03*
Y390134D02*
D03*
Y392102D02*
D03*
Y394071D02*
D03*
Y396039D02*
D03*
D44*
X289858Y376681D02*
D03*
X287890D02*
D03*
X285921D02*
D03*
X283953D02*
D03*
X281984D02*
D03*
X280016D02*
D03*
X278047D02*
D03*
X276079D02*
D03*
X274110D02*
D03*
X272142D02*
D03*
Y399319D02*
D03*
X274110D02*
D03*
X276079D02*
D03*
X278047D02*
D03*
X280016D02*
D03*
X281984D02*
D03*
X283953D02*
D03*
X285921D02*
D03*
X287890D02*
D03*
X289858D02*
D03*
X497408Y398500D02*
D03*
X495439D02*
D03*
X493471D02*
D03*
X491502D02*
D03*
X489534D02*
D03*
X487565D02*
D03*
X485597D02*
D03*
X483628D02*
D03*
X481660D02*
D03*
X479691D02*
D03*
Y375862D02*
D03*
X481660D02*
D03*
X483628D02*
D03*
X485597D02*
D03*
X487565D02*
D03*
X489534D02*
D03*
X491502D02*
D03*
X493471D02*
D03*
X495439D02*
D03*
X497408D02*
D03*
D45*
X237256Y352500D02*
D03*
X231744D02*
D03*
X547244Y397500D02*
D03*
X552756D02*
D03*
X451756Y383500D02*
D03*
X446244D02*
D03*
X451756Y352500D02*
D03*
X446244D02*
D03*
X231732Y401000D02*
D03*
X237244D02*
D03*
X237244Y366000D02*
D03*
X231732D02*
D03*
X137756Y443000D02*
D03*
X143268D02*
D03*
X128518D02*
D03*
X123006D02*
D03*
X316488Y368500D02*
D03*
X322000D02*
D03*
X351256Y401667D02*
D03*
X345744D02*
D03*
X316488D02*
D03*
X322000D02*
D03*
X541244Y419500D02*
D03*
X546756D02*
D03*
X292256Y420000D02*
D03*
X286744D02*
D03*
X615744Y410500D02*
D03*
X621256D02*
D03*
X519744Y372500D02*
D03*
X525256D02*
D03*
X525256Y352691D02*
D03*
X519744D02*
D03*
X495439D02*
D03*
X500951D02*
D03*
X446244Y419500D02*
D03*
X451756D02*
D03*
X476089Y419500D02*
D03*
X470577D02*
D03*
X621256Y378000D02*
D03*
X615744D02*
D03*
X547244Y377500D02*
D03*
X552756D02*
D03*
X519744Y400000D02*
D03*
X525256D02*
D03*
X500951Y419500D02*
D03*
X495439D02*
D03*
X519744Y419500D02*
D03*
X525256D02*
D03*
X221544Y333600D02*
D03*
X227056D02*
D03*
X221544Y319800D02*
D03*
X227056D02*
D03*
X221544Y306000D02*
D03*
X227056D02*
D03*
X374000Y311500D02*
D03*
X368488D02*
D03*
X396756Y320500D02*
D03*
X391244D02*
D03*
X391744Y304000D02*
D03*
X397256D02*
D03*
X316744Y338500D02*
D03*
X322256D02*
D03*
X316488Y353000D02*
D03*
X322000D02*
D03*
X286744D02*
D03*
X292256D02*
D03*
X286744Y340000D02*
D03*
X292256D02*
D03*
X345744Y369000D02*
D03*
X351256D02*
D03*
X316488Y385083D02*
D03*
X322000D02*
D03*
X345744Y385333D02*
D03*
X351256D02*
D03*
X231744Y420000D02*
D03*
X237256D02*
D03*
X315544Y430900D02*
D03*
X321056D02*
D03*
X250244Y321000D02*
D03*
X255756D02*
D03*
X250244Y307000D02*
D03*
X255756D02*
D03*
X322000D02*
D03*
X316488D02*
D03*
X345744Y435500D02*
D03*
X351256D02*
D03*
X321600Y443233D02*
D03*
X316088D02*
D03*
X345744Y418000D02*
D03*
X351256D02*
D03*
X579756Y417200D02*
D03*
X574244D02*
D03*
X579756Y431000D02*
D03*
X574244D02*
D03*
X579756Y444800D02*
D03*
X574244D02*
D03*
X266756Y420000D02*
D03*
X261244D02*
D03*
X286744Y435500D02*
D03*
X292256D02*
D03*
X266756D02*
D03*
X261244D02*
D03*
X451756Y367750D02*
D03*
X446244D02*
D03*
X143268Y368000D02*
D03*
X137756D02*
D03*
X123006D02*
D03*
X128518D02*
D03*
D46*
X150055Y413417D02*
D03*
X141000D02*
D03*
X131945D02*
D03*
Y341417D02*
D03*
X141000D02*
D03*
X150055D02*
D03*
D47*
X141000Y390583D02*
D03*
Y318583D02*
D03*
D48*
X279248Y320000D02*
D03*
Y315000D02*
D03*
Y310000D02*
D03*
Y305000D02*
D03*
X297752Y320000D02*
D03*
Y315000D02*
D03*
Y310000D02*
D03*
Y305000D02*
D03*
D49*
X430622Y459500D02*
D03*
X433378D02*
D03*
X430500Y446000D02*
D03*
X433256D02*
D03*
D50*
X675000Y412047D02*
D03*
Y417953D02*
D03*
D51*
X575354Y395000D02*
D03*
Y390000D02*
D03*
Y385000D02*
D03*
Y380000D02*
D03*
X594646Y395000D02*
D03*
Y390000D02*
D03*
Y385000D02*
D03*
Y380000D02*
D03*
D52*
X632500Y461000D02*
D03*
X622500D02*
D03*
X612500D02*
D03*
X680000Y322500D02*
D03*
X670000D02*
D03*
X462000D02*
D03*
X472000D02*
D03*
X482000D02*
D03*
X492000D02*
D03*
X475500Y266000D02*
D03*
X485500D02*
D03*
X495500D02*
D03*
X505500D02*
D03*
X368000Y268000D02*
D03*
X358000D02*
D03*
X348000D02*
D03*
X338000D02*
D03*
X328000D02*
D03*
X598500Y266000D02*
D03*
X608500D02*
D03*
X618500D02*
D03*
X628500D02*
D03*
X523500Y461000D02*
D03*
X533500D02*
D03*
X543500D02*
D03*
X684421Y160079D02*
D03*
X559699D02*
D03*
X434977D02*
D03*
X310255D02*
D03*
X185534D02*
D03*
X393000Y429000D02*
D03*
Y409000D02*
D03*
Y399000D02*
D03*
Y389000D02*
D03*
Y379000D02*
D03*
Y369000D02*
D03*
Y359000D02*
D03*
Y349000D02*
D03*
Y419000D02*
D03*
X197500Y429000D02*
D03*
Y409000D02*
D03*
Y399000D02*
D03*
Y389000D02*
D03*
Y379000D02*
D03*
Y369000D02*
D03*
Y359000D02*
D03*
Y349000D02*
D03*
Y419000D02*
D03*
X196500Y466500D02*
D03*
D53*
X602500Y461000D02*
D03*
X660000Y322500D02*
D03*
X452000D02*
D03*
X465500Y266000D02*
D03*
X318000Y268000D02*
D03*
X588500Y266000D02*
D03*
X513500Y461000D02*
D03*
X186500Y466500D02*
D03*
D54*
X674579Y160079D02*
D03*
X549857D02*
D03*
X425135D02*
D03*
X300413D02*
D03*
X175691D02*
D03*
X393000Y439000D02*
D03*
X197500D02*
D03*
D55*
X694657Y140000D02*
D03*
X654500D02*
D03*
X569936D02*
D03*
X529778D02*
D03*
X445214D02*
D03*
X405056D02*
D03*
X320492D02*
D03*
X280334D02*
D03*
X195770D02*
D03*
X155612D02*
D03*
D56*
X674500Y217500D02*
D03*
X701750D02*
D03*
X550000D02*
D03*
X577500D02*
D03*
X425135Y218000D02*
D03*
X452885D02*
D03*
X300500D02*
D03*
X328500D02*
D03*
X176000D02*
D03*
X203750D02*
D03*
D57*
X674500Y207500D02*
D03*
Y197500D02*
D03*
X701750Y207500D02*
D03*
Y197500D02*
D03*
X550000Y207500D02*
D03*
Y197500D02*
D03*
X577500Y207500D02*
D03*
Y197500D02*
D03*
X425135Y208000D02*
D03*
Y198000D02*
D03*
X452885Y208000D02*
D03*
Y198000D02*
D03*
X300500Y208000D02*
D03*
Y198000D02*
D03*
X328500Y208000D02*
D03*
Y198000D02*
D03*
X176000Y208000D02*
D03*
Y198000D02*
D03*
X203750Y208000D02*
D03*
Y198000D02*
D03*
D58*
X123100Y244100D02*
D03*
X163700Y247500D02*
D03*
X128100Y250300D02*
D03*
X140100Y229800D02*
D03*
X173600Y236300D02*
D03*
X207600Y233200D02*
D03*
X271100Y244100D02*
D03*
X240100Y243400D02*
D03*
X386700Y242900D02*
D03*
X559200Y248900D02*
D03*
X511400Y246600D02*
D03*
X612700Y197800D02*
D03*
X635700D02*
D03*
X264300Y409600D02*
D03*
X276500Y429600D02*
D03*
X267800Y425500D02*
D03*
X276700Y442300D02*
D03*
X280200Y420900D02*
D03*
X561300Y419800D02*
D03*
X428500Y242800D02*
D03*
X383800Y249300D02*
D03*
X591500Y249100D02*
D03*
X599300Y236100D02*
D03*
X563300Y234200D02*
D03*
X498500Y232000D02*
D03*
X436200Y236800D02*
D03*
X372700Y233600D02*
D03*
X279000Y235700D02*
D03*
X428700Y281300D02*
D03*
X645400Y282400D02*
D03*
X687900Y252000D02*
D03*
X657900Y193000D02*
D03*
X275500Y282600D02*
D03*
X169800Y285300D02*
D03*
X449000Y309300D02*
D03*
X285100Y202300D02*
D03*
X411400D02*
D03*
X534400Y198500D02*
D03*
X684500Y262200D02*
D03*
X409200Y446200D02*
D03*
X420200Y450300D02*
D03*
X328900Y429100D02*
D03*
X303200Y403200D02*
D03*
X267000Y371000D02*
D03*
X482500Y414000D02*
D03*
X455900Y348300D02*
D03*
X273800Y407000D02*
D03*
X465700Y385300D02*
D03*
X482600Y363500D02*
D03*
X492500Y411700D02*
D03*
X486000Y353500D02*
D03*
X490000Y360000D02*
D03*
X477000Y452000D02*
D03*
X504500Y441500D02*
D03*
X271000Y358000D02*
D03*
X516000Y407500D02*
D03*
X284000Y369000D02*
D03*
X550000Y349500D02*
D03*
X319000Y346500D02*
D03*
X328000Y289500D02*
D03*
X227500D02*
D03*
X384500Y348000D02*
D03*
X375500Y347500D02*
D03*
X379500Y366000D02*
D03*
X363000Y347500D02*
D03*
X540000Y412500D02*
D03*
X130000Y458000D02*
D03*
X447000Y456500D02*
D03*
X450000Y442500D02*
D03*
X119500Y449000D02*
D03*
X305500Y397000D02*
D03*
X294500Y430000D02*
D03*
X246500Y432000D02*
D03*
X371000Y373500D02*
D03*
X345500Y427500D02*
D03*
X333500Y341000D02*
D03*
X307500Y342000D02*
D03*
X187000Y247500D02*
D03*
X175000Y273500D02*
D03*
X183500Y325500D02*
D03*
X208500Y369000D02*
D03*
X205500Y402000D02*
D03*
X123000Y149000D02*
D03*
X245500D02*
D03*
X261000Y205500D02*
D03*
X245000Y217000D02*
D03*
X369000Y148500D02*
D03*
X383000Y204500D02*
D03*
X367500Y217000D02*
D03*
X509000Y204500D02*
D03*
X492500Y216000D02*
D03*
X633000Y204500D02*
D03*
X136000D02*
D03*
X120047Y216453D02*
D03*
X613047Y149500D02*
D03*
X617000Y217500D02*
D03*
X122000Y228500D02*
D03*
X251500Y234000D02*
D03*
X624000Y235500D02*
D03*
X492500Y148000D02*
D03*
X122000Y124500D02*
D03*
X247000Y128500D02*
D03*
X463500Y123500D02*
D03*
X368000Y131500D02*
D03*
X473500Y143500D02*
D03*
X469000Y131500D02*
D03*
X507000Y254000D02*
D03*
X603500Y241500D02*
D03*
X608500Y247000D02*
D03*
X292000Y270500D02*
D03*
X451000Y253500D02*
D03*
X296500Y252500D02*
D03*
X456500Y267500D02*
D03*
X234406Y246500D02*
D03*
X699000Y278500D02*
D03*
X617000Y276000D02*
D03*
X528000Y280000D02*
D03*
X567500Y283500D02*
D03*
X353500Y290000D02*
D03*
X493500Y297000D02*
D03*
X585000Y292500D02*
D03*
X483000Y294500D02*
D03*
X330500Y385500D02*
D03*
Y369000D02*
D03*
X305000Y382500D02*
D03*
X213000Y408500D02*
D03*
X326000Y281500D02*
D03*
X318000Y396500D02*
D03*
X117500Y327000D02*
D03*
X363000Y384000D02*
D03*
X625500Y334000D02*
D03*
X404000Y434000D02*
D03*
X664500Y339000D02*
D03*
X507272Y384228D02*
D03*
X630000Y392500D02*
D03*
X536500Y327500D02*
D03*
X543000Y306000D02*
D03*
X615000Y300000D02*
D03*
X407500Y400500D02*
D03*
X416500Y382500D02*
D03*
X691000Y313500D02*
D03*
X400500Y298500D02*
D03*
X511000Y303000D02*
D03*
X347500Y330000D02*
D03*
X490100Y406600D02*
D03*
X257000Y379800D02*
D03*
X258500Y354700D02*
D03*
X288500Y407100D02*
D03*
X309200Y415900D02*
D03*
X300200Y406800D02*
D03*
X283500Y407500D02*
D03*
X308600Y432800D02*
D03*
X270300Y413300D02*
D03*
M02*
