M48
;Layer_Color=9474304
;FILE_FORMAT=2:5
INCH,LZ
;TYPE=PLATED
T1F00S00C0.01500
T2F00S00C0.02756
T3F00S00C0.03543
T4F00S00C0.07874
%
T01
X0122Y01245
X0123Y0149
X02455
X0247Y01285
X0368Y01315
X0369Y01485
X04635Y01235
X0469Y01315
X04735Y01435
X04925Y0148
X0613047Y01495
X06357Y01978
X0633Y02045
X06579Y0193
X06879Y0252
X06845Y02622
X0699Y02785
X06454Y02824
X0617Y0276
X0615Y03
X0585Y02925
X05675Y02835
X05592Y02489
X05633Y02342
X05993Y02361
X06035Y02415
X06085Y0247
X05915Y02491
X0624Y02355
X0617Y02175
X06127Y01978
X05344Y01985
X0509Y02045
X04925Y0216
X04985Y0232
X05114Y02466
X0507Y0254
X0528Y028
X0511Y0303
X04935Y0297
X0483Y02945
X0543Y0306
X0449Y03093
X04287Y02813
X04285Y02428
X04362Y02368
X0451Y02535
X04565Y02675
X04005Y02985
X03535Y029
X0328Y02895
X0326Y02815
X03838Y02493
X03867Y02429
X03727Y02336
X03675Y0217
X0383Y02045
X04114Y02023
X02851
X0261Y02055
X0245Y0217
X02515Y0234
X02401Y02434
X0234406Y02465
X02711Y02441
X0279Y02357
X02965Y02525
X0292Y02705
X02755Y02826
X02275Y02895
X01698Y02853
X0175Y02735
X01637Y02475
X01736Y02363
X0187Y02475
X02076Y02332
X01401Y02298
X0122Y02285
X0120047Y0216453
X0136Y02045
X01231Y02441
X01281Y02503
X01175Y0327
X01195Y0449
X013Y0458
X02055Y0402
X0213Y04085
X02085Y0369
X0257Y03798
X0267Y0371
X0271Y0358
X02585Y03547
X0284Y0369
X0305Y03825
X03055Y0397
X03032Y04032
X03002Y04068
X02885Y04071
X02835Y04075
X02738Y0407
X02703Y04133
X02643Y04096
X02678Y04255
X02765Y04296
X02802Y04209
X02945Y043
X03086Y04328
X03092Y04159
X02767Y04423
X02465Y0432
X03075Y0342
X01835Y03255
X0319Y03465
X03335Y0341
X03475Y033
X0363Y03475
X03755
X03845Y0348
X03795Y0366
X0371Y03735
X0363Y0384
X03305Y03855
Y0369
X0318Y03965
X03289Y04291
X03455Y04275
X0404Y0434
X04092Y04462
X04202Y04503
X0447Y04565
X045Y04425
X04657Y03853
X04559Y03483
X04165Y03825
X04075Y04005
X04825Y0414
X04925Y04117
X04901Y04066
X0516Y04075
X054Y04125
X05613Y04198
X05045Y04415
X0477Y0452
X04826Y03635
X049Y036
X0486Y03535
X0507272Y0384228
X055Y03495
X05365Y03275
X06255Y0334
X06645Y0339
X0691Y03135
X063Y03925
T02
X06745Y01975
Y02075
Y02175
X070175
Y02075
Y01975
X05775
Y02075
Y02175
X055
Y02075
Y01975
X0452885Y0198
Y0208
Y0218
X0425135
Y0208
Y0198
X03285
Y0208
Y0218
X03005
Y0208
Y0198
X020375
Y0208
Y0218
X0176
Y0208
Y0198
T03
X0674579Y0160079
X0684421
X06285Y0266
X06185
X06085
X05985
X05885
X05055
X04955
X04855
X04755
X0549857Y0160079
X0559699
X0434977
X0425135
X04655Y0266
X0368Y0268
X0358
X0348
X0338
X0328
X0318
X0310255Y0160079
X0300413
X0185534
X0175691
X01975Y0349
Y0359
Y0369
Y0379
Y0389
Y0399
Y0409
Y0419
Y0429
Y0439
X01965Y04665
X01865
X0393Y0439
Y0429
Y0419
Y0409
Y0399
Y0389
Y0379
Y0369
Y0359
Y0349
X0452Y03225
X0462
X0472
X0482
X0492
X05135Y0461
X05235
X05335
X05435
X06025
X06125
X06225
X06325
X066Y03225
X067
X068
T04
X0155612Y014
X019577
X0280334
X0320492
X0405056
X0445214
X0529778
X0569936
X06545
X0694657
M30
