G04 Layer_Color=16711935*
%FSLAX25Y25*%
%MOIN*%
G70*
G01*
G75*
%ADD24C,0.04724*%
%ADD57C,0.00394*%
D24*
X100000Y100000D02*
X727000D01*
Y483500D01*
X100000D02*
X727000D01*
X100000Y100000D02*
Y483500D01*
D57*
X582638Y393799D02*
G03*
X582638Y393799I-1969J0D01*
G01*
X259102Y274299D02*
G03*
X259102Y274299I-1969J0D01*
G01*
X416638Y273299D02*
G03*
X416638Y273299I-1969J0D01*
G01*
X545138Y271299D02*
G03*
X545138Y271299I-1969J0D01*
G01*
X662768Y273299D02*
G03*
X662768Y273299I-1969J0D01*
G01*
X152138Y274299D02*
G03*
X152138Y274299I-1969J0D01*
G01*
X286138Y318799D02*
G03*
X286138Y318799I-1969J0D01*
G01*
X498983Y395646D02*
G03*
X498983Y395646I-1969J0D01*
G01*
X291433Y396465D02*
G03*
X291433Y396465I-1969J0D01*
G01*
X504331Y182646D02*
Y188354D01*
X495669Y182646D02*
Y188354D01*
Y182646D02*
X504331D01*
X495669Y188354D02*
X504331D01*
X376846Y221630D02*
Y225370D01*
X370154Y221630D02*
Y225370D01*
Y221630D02*
X376846D01*
X370154Y225370D02*
X376846D01*
X349169Y220646D02*
Y226354D01*
X357831Y220646D02*
Y226354D01*
X349169D02*
X357831D01*
X349169Y220646D02*
X357831D01*
X255331Y182646D02*
Y188354D01*
X246669Y182646D02*
Y188354D01*
Y182646D02*
X255331D01*
X246669Y188354D02*
X255331D01*
X577126Y377657D02*
X592874D01*
X577126Y397343D02*
X592874D01*
Y377657D02*
Y397343D01*
X577126Y377657D02*
Y397343D01*
X253590Y258157D02*
X269338D01*
X253590Y277843D02*
X269338D01*
Y258157D02*
Y277843D01*
X253590Y258157D02*
Y277843D01*
X254346Y221630D02*
Y225370D01*
X247654Y221630D02*
Y225370D01*
Y221630D02*
X254346D01*
X247654Y225370D02*
X254346D01*
X158093Y189496D02*
Y226504D01*
X138407Y189496D02*
X158093D01*
X138407D02*
Y226504D01*
X158093D01*
X148250Y183591D02*
Y189496D01*
X138407Y183591D02*
X148250D01*
X138407D02*
Y189496D01*
X213593D02*
Y226504D01*
X193907Y189496D02*
X213593D01*
X193907D02*
Y226504D01*
X213593D01*
X203750Y183591D02*
Y189496D01*
X193907Y183591D02*
X203750D01*
X193907D02*
Y189496D01*
X185843D02*
Y226504D01*
X166157Y189496D02*
X185843D01*
X166157D02*
Y226504D01*
X185843D01*
X176000Y183591D02*
Y189496D01*
X166157Y183591D02*
X176000D01*
X166157D02*
Y189496D01*
X130346Y221630D02*
Y225370D01*
X123654Y221630D02*
Y225370D01*
Y221630D02*
X130346D01*
X123654Y225370D02*
X130346D01*
X226154Y202630D02*
Y206370D01*
X232846Y202630D02*
Y206370D01*
X226154D02*
X232846D01*
X226154Y202630D02*
X232846D01*
X248154D02*
Y206370D01*
X254846Y202630D02*
Y206370D01*
X248154D02*
X254846D01*
X248154Y202630D02*
X254846D01*
X123654D02*
Y206370D01*
X130346Y202630D02*
Y206370D01*
X123654D02*
X130346D01*
X123654Y202630D02*
X130346D01*
X107654D02*
Y206370D01*
X114346Y202630D02*
Y206370D01*
X107654D02*
X114346D01*
X107654Y202630D02*
X114346D01*
X673130Y418346D02*
X676870D01*
X673130Y411654D02*
X676870D01*
Y418346D01*
X673130Y411654D02*
Y418346D01*
X463346Y445130D02*
Y448870D01*
X456653Y445130D02*
Y448870D01*
Y445130D02*
X463346D01*
X456653Y448870D02*
X463346D01*
X479654Y445130D02*
Y448870D01*
X486347Y445130D02*
Y448870D01*
X479654D02*
X486347D01*
X479654Y445130D02*
X486347D01*
X463346Y458130D02*
Y461870D01*
X456653Y458130D02*
Y461870D01*
Y458130D02*
X463346D01*
X456653Y461870D02*
X463346D01*
X479654Y457630D02*
Y461370D01*
X486347Y457630D02*
Y461370D01*
X479654D02*
X486347D01*
X479654Y457630D02*
X486347D01*
X230847Y274130D02*
Y277870D01*
X224154Y274130D02*
Y277870D01*
Y274130D02*
X230847D01*
X224154Y277870D02*
X230847D01*
Y256130D02*
Y259870D01*
X224154Y256130D02*
Y259870D01*
Y256130D02*
X230847D01*
X224154Y259870D02*
X230847D01*
X634846Y285630D02*
Y289370D01*
X628154Y285630D02*
Y289370D01*
Y285630D02*
X634846D01*
X628154Y289370D02*
X634846D01*
Y301130D02*
Y304870D01*
X628154Y301130D02*
Y304870D01*
Y301130D02*
X634846D01*
X628154Y304870D02*
X634846D01*
X123346Y274130D02*
Y277870D01*
X116654Y274130D02*
Y277870D01*
Y274130D02*
X123346D01*
X116654Y277870D02*
X123346D01*
Y256130D02*
Y259870D01*
X116654Y256130D02*
Y259870D01*
Y256130D02*
X123346D01*
X116654Y259870D02*
X123346D01*
X386346Y273130D02*
Y276870D01*
X379654Y273130D02*
Y276870D01*
Y273130D02*
X386346D01*
X379654Y276870D02*
X386346D01*
Y255130D02*
Y258870D01*
X379654Y255130D02*
Y258870D01*
Y255130D02*
X386346D01*
X379654Y258870D02*
X386346D01*
X526846Y301130D02*
Y304870D01*
X520154Y301130D02*
Y304870D01*
Y301130D02*
X526846D01*
X520154Y304870D02*
X526846D01*
Y285630D02*
Y289370D01*
X520154Y285630D02*
Y289370D01*
Y285630D02*
X526846D01*
X520154Y289370D02*
X526846D01*
X179654Y274130D02*
Y277870D01*
X186346Y274130D02*
Y277870D01*
X179654D02*
X186346D01*
X179654Y274130D02*
X186346D01*
Y256130D02*
Y259870D01*
X179654Y256130D02*
Y259870D01*
Y256130D02*
X186346D01*
X179654Y259870D02*
X186346D01*
X120346Y153630D02*
Y157370D01*
X113654Y153630D02*
Y157370D01*
Y153630D02*
X120346D01*
X113654Y157370D02*
X120346D01*
X113654Y136130D02*
Y139870D01*
X120346Y136130D02*
Y139870D01*
X113654D02*
X120346D01*
X113654Y136130D02*
X120346D01*
X288654Y274130D02*
Y277870D01*
X295346Y274130D02*
Y277870D01*
X288654D02*
X295346D01*
X288654Y274130D02*
X295346D01*
Y256130D02*
Y259870D01*
X288654Y256130D02*
Y259870D01*
Y256130D02*
X295346D01*
X288654Y259870D02*
X295346D01*
X243596Y153630D02*
Y157370D01*
X236904Y153630D02*
Y157370D01*
Y153630D02*
X243596D01*
X236904Y157370D02*
X243596D01*
X236654Y136130D02*
Y139870D01*
X243346Y136130D02*
Y139870D01*
X236654D02*
X243346D01*
X236654Y136130D02*
X243346D01*
X613347Y153630D02*
Y157370D01*
X606654Y153630D02*
Y157370D01*
Y153630D02*
X613347D01*
X606654Y157370D02*
X613347D01*
X606654Y136130D02*
Y139870D01*
X613346Y136130D02*
Y139870D01*
X606654D02*
X613346D01*
X606654Y136130D02*
X613346D01*
X694701Y301130D02*
Y304870D01*
X701394Y301130D02*
Y304870D01*
X694701D02*
X701394D01*
X694701Y301130D02*
X701394D01*
Y285630D02*
Y289370D01*
X694701Y285630D02*
Y289370D01*
Y285630D02*
X701394D01*
X694701Y289370D02*
X701394D01*
X440653Y274130D02*
Y277870D01*
X447346Y274130D02*
Y277870D01*
X440653D02*
X447346D01*
X440653Y274130D02*
X447346D01*
Y256130D02*
Y259870D01*
X440654Y256130D02*
Y259870D01*
Y256130D02*
X447346D01*
X440654Y259870D02*
X447346D01*
X366846Y153630D02*
Y157370D01*
X360154Y153630D02*
Y157370D01*
Y153630D02*
X366846D01*
X360154Y157370D02*
X366846D01*
X360154Y136130D02*
Y139870D01*
X366846Y136130D02*
Y139870D01*
X360154D02*
X366846D01*
X360154Y136130D02*
X366846D01*
X574654Y301130D02*
Y304870D01*
X581347Y301130D02*
Y304870D01*
X574654D02*
X581347D01*
X574654Y301130D02*
X581347D01*
Y285630D02*
Y289370D01*
X574654Y285630D02*
Y289370D01*
Y285630D02*
X581347D01*
X574654Y289370D02*
X581347D01*
X490097Y153630D02*
Y157370D01*
X483404Y153630D02*
Y157370D01*
Y153630D02*
X490097D01*
X483404Y157370D02*
X490097D01*
X483404Y136130D02*
Y139870D01*
X490096Y136130D02*
Y139870D01*
X483404D02*
X490096D01*
X483404Y136130D02*
X490096D01*
X322591Y319130D02*
Y322870D01*
X315898Y319130D02*
Y322870D01*
Y319130D02*
X322591D01*
X315898Y322870D02*
X322591D01*
X411126Y257157D02*
X426874D01*
X411126Y276843D02*
X426874D01*
Y257157D02*
Y276843D01*
X411126Y257157D02*
Y276843D01*
X539626Y255157D02*
X555374D01*
X539626Y274843D02*
X555374D01*
Y255157D02*
Y274843D01*
X539626Y255157D02*
Y274843D01*
X657256Y257157D02*
X673004D01*
X657256Y276843D02*
X673004D01*
Y257157D02*
Y276843D01*
X657256Y257157D02*
Y276843D01*
X338343Y189496D02*
Y226504D01*
X318657Y189496D02*
X338343D01*
X318657D02*
Y226504D01*
X338343D01*
X328500Y183591D02*
Y189496D01*
X318657Y183591D02*
X328500D01*
X318657D02*
Y189496D01*
X310343D02*
Y226504D01*
X290657Y189496D02*
X310343D01*
X290657D02*
Y226504D01*
X310343D01*
X300500Y183591D02*
Y189496D01*
X290657Y183591D02*
X300500D01*
X290657D02*
Y189496D01*
X282343D02*
Y226504D01*
X262657Y189496D02*
X282343D01*
X262657D02*
Y226504D01*
X282343D01*
X272500Y183591D02*
Y189496D01*
X262657Y183591D02*
X272500D01*
X262657D02*
Y189496D01*
X462727D02*
Y226504D01*
X443042Y189496D02*
X462727D01*
X443042D02*
Y226504D01*
X462727D01*
X452885Y183591D02*
Y189496D01*
X443042Y183591D02*
X452885D01*
X443042D02*
Y189496D01*
X434977D02*
Y226504D01*
X415292Y189496D02*
X434977D01*
X415292D02*
Y226504D01*
X434977D01*
X425135Y183591D02*
Y189496D01*
X415292Y183591D02*
X425135D01*
X415292D02*
Y189496D01*
X370154Y202630D02*
Y206370D01*
X376846Y202630D02*
Y206370D01*
X370154D02*
X376846D01*
X370154Y202630D02*
X376846D01*
X350154D02*
Y206370D01*
X356846Y202630D02*
Y206370D01*
X350154D02*
X356846D01*
X350154Y202630D02*
X356846D01*
X407227Y189496D02*
Y226504D01*
X387542Y189496D02*
X407227D01*
X387542D02*
Y226504D01*
X407227D01*
X397385Y183591D02*
Y189496D01*
X387542Y183591D02*
X397385D01*
X387542D02*
Y189496D01*
X587343Y188996D02*
Y226004D01*
X567657Y188996D02*
X587343D01*
X567657D02*
Y226004D01*
X587343D01*
X577500Y183091D02*
Y188996D01*
X567657Y183091D02*
X577500D01*
X567657D02*
Y188996D01*
X559843D02*
Y226004D01*
X540157Y188996D02*
X559843D01*
X540157D02*
Y226004D01*
X559843D01*
X550000Y183091D02*
Y188996D01*
X540157Y183091D02*
X550000D01*
X540157D02*
Y188996D01*
X496654Y202630D02*
Y206370D01*
X503346Y202630D02*
Y206370D01*
X496654D02*
X503346D01*
X496654Y202630D02*
X503346D01*
Y221630D02*
Y225370D01*
X496654Y221630D02*
Y225370D01*
Y221630D02*
X503346D01*
X496654Y225370D02*
X503346D01*
X476154Y202630D02*
Y206370D01*
X482846Y202630D02*
Y206370D01*
X476154D02*
X482846D01*
X476154Y202630D02*
X482846D01*
X532343Y188996D02*
Y226004D01*
X512657Y188996D02*
X532343D01*
X512657D02*
Y226004D01*
X532343D01*
X522500Y183091D02*
Y188996D01*
X512657Y183091D02*
X522500D01*
X512657D02*
Y188996D01*
X711593D02*
Y226004D01*
X691907Y188996D02*
X711593D01*
X691907D02*
Y226004D01*
X711593D01*
X701750Y183091D02*
Y188996D01*
X691907Y183091D02*
X701750D01*
X691907D02*
Y188996D01*
X684343D02*
Y226004D01*
X664657Y188996D02*
X684343D01*
X664657D02*
Y226004D01*
X684343D01*
X674500Y183091D02*
Y188996D01*
X664657Y183091D02*
X674500D01*
X664657D02*
Y188996D01*
X620154Y202630D02*
Y206370D01*
X626847Y202630D02*
Y206370D01*
X620154D02*
X626847D01*
X620154Y202630D02*
X626847D01*
X626846Y221630D02*
Y225370D01*
X620154Y221630D02*
Y225370D01*
Y221630D02*
X626846D01*
X620154Y225370D02*
X626846D01*
X597654Y202630D02*
Y206370D01*
X604346Y202630D02*
Y206370D01*
X597654D02*
X604346D01*
X597654Y202630D02*
X604346D01*
X657093Y188996D02*
Y226004D01*
X637407Y188996D02*
X657093D01*
X637407D02*
Y226004D01*
X657093D01*
X647250Y183091D02*
Y188996D01*
X637407Y183091D02*
X647250D01*
X637407D02*
Y188996D01*
X146626Y258157D02*
X162374D01*
X146626Y277843D02*
X162374D01*
Y258157D02*
Y277843D01*
X146626Y258157D02*
Y277843D01*
X129207Y366130D02*
Y369870D01*
X122317Y366130D02*
Y369870D01*
Y366130D02*
X129207D01*
X122317Y369870D02*
X129207D01*
X137067Y366130D02*
Y369870D01*
X143957Y366130D02*
Y369870D01*
X137067D02*
X143957D01*
X137067Y366130D02*
X143957D01*
X445555Y365880D02*
Y369620D01*
X452445Y365880D02*
Y369620D01*
X445555D02*
X452445D01*
X445555Y365880D02*
X452445D01*
X653055Y380230D02*
Y383970D01*
X659945Y380230D02*
Y383970D01*
X653055D02*
X659945D01*
X653055Y380230D02*
X659945D01*
X653055Y366430D02*
Y370170D01*
X659945Y366430D02*
Y370170D01*
X653055D02*
X659945D01*
X653055Y366430D02*
X659945D01*
X653055Y352630D02*
Y356370D01*
X659945Y352630D02*
Y356370D01*
X653055D02*
X659945D01*
X653055Y352630D02*
X659945D01*
X260555Y433630D02*
Y437370D01*
X267445Y433630D02*
Y437370D01*
X260555D02*
X267445D01*
X260555Y433630D02*
X267445D01*
X292945D02*
Y437370D01*
X286055Y433630D02*
Y437370D01*
Y433630D02*
X292945D01*
X286055Y437370D02*
X292945D01*
X260555Y418130D02*
Y421870D01*
X267445Y418130D02*
Y421870D01*
X260555D02*
X267445D01*
X260555Y418130D02*
X267445D01*
X653055Y445630D02*
Y449370D01*
X659945Y445630D02*
Y449370D01*
X653055D02*
X659945D01*
X653055Y445630D02*
X659945D01*
X653055Y431830D02*
Y435570D01*
X659945Y431830D02*
Y435570D01*
X653055D02*
X659945D01*
X653055Y431830D02*
X659945D01*
X653055Y418030D02*
Y421770D01*
X659945Y418030D02*
Y421770D01*
X653055D02*
X659945D01*
X653055Y418030D02*
X659945D01*
X351945Y416130D02*
Y419870D01*
X345055Y416130D02*
Y419870D01*
Y416130D02*
X351945D01*
X345055Y419870D02*
X351945D01*
X315399Y441363D02*
Y445103D01*
X322289Y441363D02*
Y445103D01*
X315399D02*
X322289D01*
X315399Y441363D02*
X322289D01*
X351945Y433630D02*
Y437370D01*
X345055Y433630D02*
Y437370D01*
Y433630D02*
X351945D01*
X345055Y437370D02*
X351945D01*
X315799Y305130D02*
Y308870D01*
X322689Y305130D02*
Y308870D01*
X315799D02*
X322689D01*
X315799Y305130D02*
X322689D01*
X256445D02*
Y308870D01*
X249555Y305130D02*
Y308870D01*
Y305130D02*
X256445D01*
X249555Y308870D02*
X256445D01*
Y319130D02*
Y322870D01*
X249555Y319130D02*
Y322870D01*
Y319130D02*
X256445D01*
X249555Y322870D02*
X256445D01*
X321745Y429030D02*
Y432770D01*
X314855Y429030D02*
Y432770D01*
Y429030D02*
X321745D01*
X314855Y432770D02*
X321745D01*
X237945Y418130D02*
Y421870D01*
X231055Y418130D02*
Y421870D01*
Y418130D02*
X237945D01*
X231055Y421870D02*
X237945D01*
X351945Y383463D02*
Y387203D01*
X345055Y383463D02*
Y387203D01*
Y383463D02*
X351945D01*
X345055Y387203D02*
X351945D01*
X322689Y383213D02*
Y386953D01*
X315799Y383213D02*
Y386953D01*
Y383213D02*
X322689D01*
X315799Y386953D02*
X322689D01*
X351945Y367130D02*
Y370870D01*
X345055Y367130D02*
Y370870D01*
Y367130D02*
X351945D01*
X345055Y370870D02*
X351945D01*
X292945Y338130D02*
Y341870D01*
X286055Y338130D02*
Y341870D01*
Y338130D02*
X292945D01*
X286055Y341870D02*
X292945D01*
Y351130D02*
Y354870D01*
X286055Y351130D02*
Y354870D01*
Y351130D02*
X292945D01*
X286055Y354870D02*
X292945D01*
X322689Y351130D02*
Y354870D01*
X315799Y351130D02*
Y354870D01*
Y351130D02*
X322689D01*
X315799Y354870D02*
X322689D01*
X322945Y336630D02*
Y340370D01*
X316055Y336630D02*
Y340370D01*
Y336630D02*
X322945D01*
X316055Y340370D02*
X322945D01*
X397945Y302130D02*
Y305870D01*
X391055Y302130D02*
Y305870D01*
Y302130D02*
X397945D01*
X391055Y305870D02*
X397945D01*
X390555Y318630D02*
Y322370D01*
X397445Y318630D02*
Y322370D01*
X390555D02*
X397445D01*
X390555Y318630D02*
X397445D01*
X367799Y309630D02*
Y313370D01*
X374689Y309630D02*
Y313370D01*
X367799D02*
X374689D01*
X367799Y309630D02*
X374689D01*
X686555Y380230D02*
Y383970D01*
X693445Y380230D02*
Y383970D01*
X686555D02*
X693445D01*
X686555Y380230D02*
X693445D01*
X686555Y366430D02*
Y370170D01*
X693445Y366430D02*
Y370170D01*
X686555D02*
X693445D01*
X686555Y366430D02*
X693445D01*
X686555Y352630D02*
Y356370D01*
X693445Y352630D02*
Y356370D01*
X686555D02*
X693445D01*
X686555Y352630D02*
X693445D01*
X525945Y417630D02*
Y421370D01*
X519055Y417630D02*
Y421370D01*
Y417630D02*
X525945D01*
X519055Y421370D02*
X525945D01*
X494750Y417630D02*
Y421370D01*
X501640Y417630D02*
Y421370D01*
X494750D02*
X501640D01*
X494750Y417630D02*
X501640D01*
X525945Y398130D02*
Y401870D01*
X519055Y398130D02*
Y401870D01*
Y398130D02*
X525945D01*
X519055Y401870D02*
X525945D01*
X686555Y445630D02*
Y449370D01*
X693445Y445630D02*
Y449370D01*
X686555D02*
X693445D01*
X686555Y445630D02*
X693445D01*
X686555Y431830D02*
Y435570D01*
X693445Y431830D02*
Y435570D01*
X686555D02*
X693445D01*
X686555Y431830D02*
X693445D01*
X686555Y418030D02*
Y421770D01*
X693445Y418030D02*
Y421770D01*
X686555D02*
X693445D01*
X686555Y418030D02*
X693445D01*
X553445Y375630D02*
Y379370D01*
X546555Y375630D02*
Y379370D01*
Y375630D02*
X553445D01*
X546555Y379370D02*
X553445D01*
X615055Y376130D02*
Y379870D01*
X621945Y376130D02*
Y379870D01*
X615055D02*
X621945D01*
X615055Y376130D02*
X621945D01*
X469888Y417630D02*
Y421370D01*
X476778Y417630D02*
Y421370D01*
X469888D02*
X476778D01*
X469888Y417630D02*
X476778D01*
X452445D02*
Y421370D01*
X445555Y417630D02*
Y421370D01*
Y417630D02*
X452445D01*
X445555Y421370D02*
X452445D01*
X501640Y350820D02*
Y354561D01*
X494751Y350820D02*
Y354561D01*
Y350820D02*
X501640D01*
X494751Y354561D02*
X501640D01*
X519055Y350821D02*
Y354561D01*
X525945Y350821D02*
Y354561D01*
X519055D02*
X525945D01*
X519055Y350821D02*
X525945D01*
Y370630D02*
Y374370D01*
X519055Y370630D02*
Y374370D01*
Y370630D02*
X525945D01*
X519055Y374370D02*
X525945D01*
X621945Y408630D02*
Y412370D01*
X615055Y408630D02*
Y412370D01*
Y408630D02*
X621945D01*
X615055Y412370D02*
X621945D01*
X286055Y418130D02*
Y421870D01*
X292945Y418130D02*
Y421870D01*
X286055D02*
X292945D01*
X286055Y418130D02*
X292945D01*
X547445Y417630D02*
Y421370D01*
X540555Y417630D02*
Y421370D01*
Y417630D02*
X547445D01*
X540555Y421370D02*
X547445D01*
X322689Y399797D02*
Y403537D01*
X315799Y399797D02*
Y403537D01*
Y399797D02*
X322689D01*
X315799Y403537D02*
X322689D01*
X345055Y399797D02*
Y403537D01*
X351945Y399797D02*
Y403537D01*
X345055D02*
X351945D01*
X345055Y399797D02*
X351945D01*
X322689Y366630D02*
Y370370D01*
X315799Y366630D02*
Y370370D01*
Y366630D02*
X322689D01*
X315799Y370370D02*
X322689D01*
X433157Y445311D02*
Y446689D01*
X430598Y445311D02*
Y446689D01*
Y445311D02*
X433157D01*
X430598Y446689D02*
X433157D01*
X433280Y458811D02*
Y460189D01*
X430720Y458811D02*
Y460189D01*
Y458811D02*
X433280D01*
X430720Y460189D02*
X433280D01*
X127811Y337283D02*
X154189D01*
X127811Y322717D02*
X154189D01*
Y337283D01*
X127811Y322717D02*
Y337283D01*
X158608Y366130D02*
Y369870D01*
X151915Y366130D02*
Y369870D01*
Y366130D02*
X158608D01*
X151915Y369870D02*
X158608D01*
X280626Y302657D02*
X296374D01*
X280626Y322343D02*
X296374D01*
Y302657D02*
Y322343D01*
X280626Y302657D02*
Y322343D01*
X122317Y444870D02*
X129207D01*
X122317Y441130D02*
X129207D01*
X122317D02*
Y444870D01*
X129207Y441130D02*
Y444870D01*
X137067Y441130D02*
X143957D01*
X137067Y444870D02*
X143957D01*
Y441130D02*
Y444870D01*
X137067Y441130D02*
Y444870D01*
X127811Y394717D02*
Y409283D01*
X154189Y394717D02*
Y409283D01*
X127811Y394717D02*
X154189D01*
X127811Y409283D02*
X154189D01*
X151915Y444870D02*
X158608D01*
X151915Y441130D02*
X158608D01*
X151915D02*
Y444870D01*
X158608Y441130D02*
Y444870D01*
X231043Y367870D02*
X237933D01*
X231043Y364130D02*
X237933D01*
X231043D02*
Y367870D01*
X237933Y364130D02*
Y367870D01*
X231043Y399130D02*
X237933D01*
X231043Y402870D02*
X237933D01*
Y399130D02*
Y402870D01*
X231043Y399130D02*
Y402870D01*
X445555Y354370D02*
X452445D01*
X445555Y350630D02*
X452445D01*
X445555D02*
Y354370D01*
X452445Y350630D02*
Y354370D01*
X445555Y385370D02*
X452445D01*
X445555Y381630D02*
X452445D01*
X445555D02*
Y385370D01*
X452445Y381630D02*
Y385370D01*
X553445Y395630D02*
Y399370D01*
X546555Y395630D02*
Y399370D01*
Y395630D02*
X553445D01*
X546555Y399370D02*
X553445D01*
X231055Y350630D02*
Y354370D01*
X237945Y350630D02*
Y354370D01*
X231055D02*
X237945D01*
X231055Y350630D02*
X237945D01*
X621846Y395630D02*
Y399370D01*
X615154Y395630D02*
Y399370D01*
Y395630D02*
X621846D01*
X615154Y399370D02*
X621846D01*
X106669Y182646D02*
Y188354D01*
X115331Y182646D02*
Y188354D01*
X106669D02*
X115331D01*
X106669Y182646D02*
X115331D01*
X106669Y220646D02*
Y226354D01*
X115331Y220646D02*
Y226354D01*
X106669D02*
X115331D01*
X106669Y220646D02*
X115331D01*
X131331Y182646D02*
Y188354D01*
X122669Y182646D02*
Y188354D01*
Y182646D02*
X131331D01*
X122669Y188354D02*
X131331D01*
X225169Y182646D02*
Y188354D01*
X233831Y182646D02*
Y188354D01*
X225169D02*
X233831D01*
X225169Y182646D02*
X233831D01*
X225169Y220646D02*
Y226354D01*
X233831Y220646D02*
Y226354D01*
X225169D02*
X233831D01*
X225169Y220646D02*
X233831D01*
X349169Y182646D02*
Y188354D01*
X357831Y182646D02*
Y188354D01*
X349169D02*
X357831D01*
X349169Y182646D02*
X357831D01*
X377831Y182646D02*
Y188354D01*
X369169Y182646D02*
Y188354D01*
Y182646D02*
X377831D01*
X369169Y188354D02*
X377831D01*
X475169Y182646D02*
Y188354D01*
X483831Y182646D02*
Y188354D01*
X475169D02*
X483831D01*
X475169Y182646D02*
X483831D01*
X475169Y220646D02*
Y226354D01*
X483831Y220646D02*
Y226354D01*
X475169D02*
X483831D01*
X475169Y220646D02*
X483831D01*
X596669Y182646D02*
Y188354D01*
X605331Y182646D02*
Y188354D01*
X596669D02*
X605331D01*
X596669Y182646D02*
X605331D01*
X596669Y220646D02*
Y226354D01*
X605331Y220646D02*
Y226354D01*
X596669D02*
X605331D01*
X596669Y220646D02*
X605331D01*
X627831Y182646D02*
Y188354D01*
X619169Y182646D02*
Y188354D01*
Y182646D02*
X627831D01*
X619169Y188354D02*
X627831D01*
X476542Y375173D02*
Y399189D01*
X500558Y375173D02*
Y399189D01*
X476542Y375173D02*
X500558D01*
X476542Y399189D02*
X500558D01*
X268992Y400008D02*
X293008D01*
X268992Y375992D02*
X293008D01*
Y400008D01*
X268992Y375992D02*
Y400008D01*
M02*
