G04 Layer_Color=8421504*
%FSLAX25Y25*%
%MOIN*%
G70*
G01*
G75*
%ADD10R,0.03543X0.03150*%
%ADD11R,0.02756X0.03543*%
%ADD12O,0.08661X0.02362*%
%ADD13R,0.04331X0.05512*%
%ADD14R,0.16142X0.16142*%
%ADD15O,0.03740X0.00984*%
%ADD16O,0.00984X0.03740*%
%ADD17R,0.03150X0.03543*%
%ADD18R,0.03937X0.09449*%
%ADD19R,0.12992X0.09449*%
%ADD20O,0.07480X0.02362*%
%ADD21R,0.01969X0.01181*%
%ADD22R,0.03543X0.02756*%
%ADD23O,0.09843X0.02756*%
%ADD25C,0.04724*%
D10*
X504500Y339656D02*
D03*
Y334144D02*
D03*
X292100Y455556D02*
D03*
Y450044D02*
D03*
X278300Y455556D02*
D03*
Y450044D02*
D03*
X264500Y455556D02*
D03*
Y450044D02*
D03*
X518300Y339656D02*
D03*
Y334144D02*
D03*
X490700Y339656D02*
D03*
Y334144D02*
D03*
D11*
X497047Y223500D02*
D03*
X502953D02*
D03*
X247547Y170300D02*
D03*
X253453D02*
D03*
X123747Y169300D02*
D03*
X129653D02*
D03*
X644560Y204500D02*
D03*
X650465D02*
D03*
X644560Y223500D02*
D03*
X650465D02*
D03*
X620247Y169500D02*
D03*
X626153D02*
D03*
X146247Y223500D02*
D03*
X152153D02*
D03*
X146247Y204500D02*
D03*
X152153D02*
D03*
X267947D02*
D03*
X273853D02*
D03*
X267947Y223500D02*
D03*
X273853D02*
D03*
X396060Y204500D02*
D03*
X401965D02*
D03*
X396060Y223500D02*
D03*
X401965D02*
D03*
X369847Y169500D02*
D03*
X375753D02*
D03*
X521160Y204500D02*
D03*
X527065D02*
D03*
X521160Y223500D02*
D03*
X527065D02*
D03*
X496947Y168400D02*
D03*
X502853D02*
D03*
X615547Y397500D02*
D03*
X621453D02*
D03*
X158215Y443000D02*
D03*
X152309D02*
D03*
Y368000D02*
D03*
X158215D02*
D03*
X603953Y204500D02*
D03*
X598047D02*
D03*
X620547Y223500D02*
D03*
X626453D02*
D03*
Y204500D02*
D03*
X620547D02*
D03*
X482453D02*
D03*
X476547D02*
D03*
X502953D02*
D03*
X497047D02*
D03*
X356453D02*
D03*
X350547D02*
D03*
X376453D02*
D03*
X370547D02*
D03*
X316291Y321000D02*
D03*
X322197D02*
D03*
X489703Y138000D02*
D03*
X483797D02*
D03*
X483797Y155500D02*
D03*
X489703D02*
D03*
X575047Y287500D02*
D03*
X580953D02*
D03*
Y303000D02*
D03*
X575047D02*
D03*
X366453Y138000D02*
D03*
X360547D02*
D03*
Y155500D02*
D03*
X366453D02*
D03*
X441047Y258000D02*
D03*
X446953D02*
D03*
X446953Y276000D02*
D03*
X441047D02*
D03*
X695094Y287500D02*
D03*
X701000D02*
D03*
Y303000D02*
D03*
X695094D02*
D03*
X612953Y138000D02*
D03*
X607047D02*
D03*
X607047Y155500D02*
D03*
X612953D02*
D03*
X242953Y138000D02*
D03*
X237047D02*
D03*
X237297Y155500D02*
D03*
X243203D02*
D03*
X289047Y258000D02*
D03*
X294953D02*
D03*
Y276000D02*
D03*
X289047D02*
D03*
X119953Y138000D02*
D03*
X114047D02*
D03*
Y155500D02*
D03*
X119953D02*
D03*
X180047Y258000D02*
D03*
X185953D02*
D03*
Y276000D02*
D03*
X180047D02*
D03*
X520547Y287500D02*
D03*
X526453D02*
D03*
X520547Y303000D02*
D03*
X526453D02*
D03*
X380047Y257000D02*
D03*
X385953D02*
D03*
X380047Y275000D02*
D03*
X385953D02*
D03*
X117047Y258000D02*
D03*
X122953D02*
D03*
X117047Y276000D02*
D03*
X122953D02*
D03*
X628547Y303000D02*
D03*
X634453D02*
D03*
X628547Y287500D02*
D03*
X634453D02*
D03*
X224547Y258000D02*
D03*
X230453D02*
D03*
X224547Y276000D02*
D03*
X230453D02*
D03*
X485953Y459500D02*
D03*
X480047D02*
D03*
X457047Y460000D02*
D03*
X462953D02*
D03*
X485953Y447000D02*
D03*
X480047D02*
D03*
X457047D02*
D03*
X462953D02*
D03*
X113953Y204500D02*
D03*
X108047D02*
D03*
X129953D02*
D03*
X124047D02*
D03*
X254453D02*
D03*
X248547D02*
D03*
X232453D02*
D03*
X226547D02*
D03*
X124047Y223500D02*
D03*
X129953D02*
D03*
X248047D02*
D03*
X253953D02*
D03*
X370547D02*
D03*
X376453D02*
D03*
D12*
X655681Y274500D02*
D03*
Y269500D02*
D03*
Y264500D02*
D03*
Y259500D02*
D03*
X674579Y274500D02*
D03*
Y269500D02*
D03*
Y264500D02*
D03*
Y259500D02*
D03*
X145051Y275500D02*
D03*
Y270500D02*
D03*
Y265500D02*
D03*
Y260500D02*
D03*
X163949Y275500D02*
D03*
Y270500D02*
D03*
Y265500D02*
D03*
Y260500D02*
D03*
X538051Y272500D02*
D03*
Y267500D02*
D03*
Y262500D02*
D03*
Y257500D02*
D03*
X556949Y272500D02*
D03*
Y267500D02*
D03*
Y262500D02*
D03*
Y257500D02*
D03*
X409551Y274500D02*
D03*
Y269500D02*
D03*
Y264500D02*
D03*
Y259500D02*
D03*
X428449Y274500D02*
D03*
Y269500D02*
D03*
Y264500D02*
D03*
Y259500D02*
D03*
X252015Y275500D02*
D03*
Y270500D02*
D03*
Y265500D02*
D03*
Y260500D02*
D03*
X270913Y275500D02*
D03*
Y270500D02*
D03*
Y265500D02*
D03*
Y260500D02*
D03*
D13*
X645347Y185500D02*
D03*
X651253D02*
D03*
X147035Y185500D02*
D03*
X152940D02*
D03*
X268735D02*
D03*
X274640D02*
D03*
X396847D02*
D03*
X402753D02*
D03*
X521947Y185500D02*
D03*
X527853D02*
D03*
X620547D02*
D03*
X626453D02*
D03*
X603953Y223500D02*
D03*
X598047D02*
D03*
X603953Y185500D02*
D03*
X598047D02*
D03*
X482453Y223500D02*
D03*
X476547D02*
D03*
X482453Y185500D02*
D03*
X476547D02*
D03*
X370547Y185500D02*
D03*
X376453D02*
D03*
X356453Y185500D02*
D03*
X350547D02*
D03*
X232453Y223500D02*
D03*
X226547D02*
D03*
X232453Y185500D02*
D03*
X226547D02*
D03*
X124047Y185500D02*
D03*
X129953D02*
D03*
X113953Y223500D02*
D03*
X108047D02*
D03*
X113953Y185500D02*
D03*
X108047D02*
D03*
X248047Y185500D02*
D03*
X253953D02*
D03*
X356453Y223500D02*
D03*
X350547D02*
D03*
X497047Y185500D02*
D03*
X502953D02*
D03*
D14*
X281000Y388000D02*
D03*
X488550Y387181D02*
D03*
D15*
X292319Y396858D02*
D03*
Y394890D02*
D03*
Y392921D02*
D03*
Y390953D02*
D03*
Y388984D02*
D03*
Y387016D02*
D03*
Y385047D02*
D03*
Y383079D02*
D03*
Y381110D02*
D03*
Y379142D02*
D03*
X269681D02*
D03*
Y381110D02*
D03*
Y383079D02*
D03*
Y385047D02*
D03*
Y387016D02*
D03*
Y388984D02*
D03*
Y390953D02*
D03*
Y392921D02*
D03*
Y394890D02*
D03*
Y396858D02*
D03*
X477231Y396039D02*
D03*
Y394071D02*
D03*
Y392102D02*
D03*
Y390134D02*
D03*
Y388165D02*
D03*
Y386197D02*
D03*
Y384228D02*
D03*
Y382260D02*
D03*
Y380291D02*
D03*
Y378323D02*
D03*
X499868D02*
D03*
Y380291D02*
D03*
Y382260D02*
D03*
Y384228D02*
D03*
Y386197D02*
D03*
Y388165D02*
D03*
Y390134D02*
D03*
Y392102D02*
D03*
Y394071D02*
D03*
Y396039D02*
D03*
D16*
X289858Y376681D02*
D03*
X287890D02*
D03*
X285921D02*
D03*
X283953D02*
D03*
X281984D02*
D03*
X280016D02*
D03*
X278047D02*
D03*
X276079D02*
D03*
X274110D02*
D03*
X272142D02*
D03*
Y399319D02*
D03*
X274110D02*
D03*
X276079D02*
D03*
X278047D02*
D03*
X280016D02*
D03*
X281984D02*
D03*
X283953D02*
D03*
X285921D02*
D03*
X287890D02*
D03*
X289858D02*
D03*
X497408Y398500D02*
D03*
X495439D02*
D03*
X493471D02*
D03*
X491502D02*
D03*
X489534D02*
D03*
X487565D02*
D03*
X485597D02*
D03*
X483628D02*
D03*
X481660D02*
D03*
X479691D02*
D03*
Y375862D02*
D03*
X481660D02*
D03*
X483628D02*
D03*
X485597D02*
D03*
X487565D02*
D03*
X489534D02*
D03*
X491502D02*
D03*
X493471D02*
D03*
X495439D02*
D03*
X497408D02*
D03*
D17*
X237256Y352500D02*
D03*
X231744D02*
D03*
X547244Y397500D02*
D03*
X552756D02*
D03*
X451756Y383500D02*
D03*
X446244D02*
D03*
X451756Y352500D02*
D03*
X446244D02*
D03*
X231732Y401000D02*
D03*
X237244D02*
D03*
X237244Y366000D02*
D03*
X231732D02*
D03*
X137756Y443000D02*
D03*
X143268D02*
D03*
X128518D02*
D03*
X123006D02*
D03*
X316488Y368500D02*
D03*
X322000D02*
D03*
X351256Y401667D02*
D03*
X345744D02*
D03*
X316488D02*
D03*
X322000D02*
D03*
X541244Y419500D02*
D03*
X546756D02*
D03*
X292256Y420000D02*
D03*
X286744D02*
D03*
X615744Y410500D02*
D03*
X621256D02*
D03*
X519744Y372500D02*
D03*
X525256D02*
D03*
X525256Y352691D02*
D03*
X519744D02*
D03*
X495439D02*
D03*
X500951D02*
D03*
X446244Y419500D02*
D03*
X451756D02*
D03*
X476089Y419500D02*
D03*
X470577D02*
D03*
X621256Y378000D02*
D03*
X615744D02*
D03*
X547244Y377500D02*
D03*
X552756D02*
D03*
X519744Y400000D02*
D03*
X525256D02*
D03*
X500951Y419500D02*
D03*
X495439D02*
D03*
X519744Y419500D02*
D03*
X525256D02*
D03*
X221544Y333600D02*
D03*
X227056D02*
D03*
X221544Y319800D02*
D03*
X227056D02*
D03*
X221544Y306000D02*
D03*
X227056D02*
D03*
X374000Y311500D02*
D03*
X368488D02*
D03*
X396756Y320500D02*
D03*
X391244D02*
D03*
X391744Y304000D02*
D03*
X397256D02*
D03*
X316744Y338500D02*
D03*
X322256D02*
D03*
X316488Y353000D02*
D03*
X322000D02*
D03*
X286744D02*
D03*
X292256D02*
D03*
X286744Y340000D02*
D03*
X292256D02*
D03*
X345744Y369000D02*
D03*
X351256D02*
D03*
X316488Y385083D02*
D03*
X322000D02*
D03*
X345744Y385333D02*
D03*
X351256D02*
D03*
X231744Y420000D02*
D03*
X237256D02*
D03*
X315544Y430900D02*
D03*
X321056D02*
D03*
X250244Y321000D02*
D03*
X255756D02*
D03*
X250244Y307000D02*
D03*
X255756D02*
D03*
X322000D02*
D03*
X316488D02*
D03*
X345744Y435500D02*
D03*
X351256D02*
D03*
X321600Y443233D02*
D03*
X316088D02*
D03*
X345744Y418000D02*
D03*
X351256D02*
D03*
X579756Y417200D02*
D03*
X574244D02*
D03*
X579756Y431000D02*
D03*
X574244D02*
D03*
X579756Y444800D02*
D03*
X574244D02*
D03*
X266756Y420000D02*
D03*
X261244D02*
D03*
X286744Y435500D02*
D03*
X292256D02*
D03*
X266756D02*
D03*
X261244D02*
D03*
X451756Y367750D02*
D03*
X446244D02*
D03*
X143268Y368000D02*
D03*
X137756D02*
D03*
X123006D02*
D03*
X128518D02*
D03*
D18*
X150055Y413417D02*
D03*
X141000D02*
D03*
X131945D02*
D03*
Y341417D02*
D03*
X141000D02*
D03*
X150055D02*
D03*
D19*
X141000Y390583D02*
D03*
Y318583D02*
D03*
D20*
X279248Y320000D02*
D03*
Y315000D02*
D03*
Y310000D02*
D03*
Y305000D02*
D03*
X297752Y320000D02*
D03*
Y315000D02*
D03*
Y310000D02*
D03*
Y305000D02*
D03*
D21*
X430622Y459500D02*
D03*
X433378D02*
D03*
X430500Y446000D02*
D03*
X433256D02*
D03*
D22*
X675000Y412047D02*
D03*
Y417953D02*
D03*
D23*
X575354Y395000D02*
D03*
Y390000D02*
D03*
Y385000D02*
D03*
Y380000D02*
D03*
X594646Y395000D02*
D03*
Y390000D02*
D03*
Y385000D02*
D03*
Y380000D02*
D03*
D25*
X100000Y100000D02*
Y483500D01*
X727000D01*
Y100000D02*
Y483500D01*
X100000Y100000D02*
X727000D01*
M02*
