M48
;Layer_Color=9474304
;FILE_FORMAT=2:5
INCH,LZ
;TYPE=PLATED
T1F00S00C0.01500
T2F00S00C0.02756
T3F00S00C0.03543
T4F00S00C0.07874
%
T01
X0122Y01245
X0123Y0149
X02455
X0247Y01285
X0368Y01315
X0369Y01485
X04635Y01235
X0469Y01315
X04735Y01435
X04925Y0148
X0613047Y01495
X0633Y02045
X06495Y02405
X0686Y024
X0699Y02785
X06685Y02815
X0617Y0276
X0615Y03
X0585Y02925
X05675Y02835
X0549Y02775
X0528Y028
X0511Y0303
X04935Y0297
X0483Y02945
X0507Y0254
X05015Y0235
X04925Y0216
X0487Y0199953
X0509Y02045
X0563Y02395
X05925Y0249
X06085Y0247
X06035Y02415
X06Y0236
X0624Y02355
X0617Y02175
X0609Y0199453
X0543Y0306
X0447Y0307
X0437Y02685
X04565Y02675
X0451Y02535
X0436Y02395
X0387Y0248
X0375Y0236
X03675Y0217
X0361953Y0199
X0383Y02045
X04005Y02985
X0420551Y0281551
X03535Y029
X0328Y02895
X0326Y02815
X0292Y02705
X0283Y02735
X02765Y02815
Y02385
X0283Y02285
X02515Y0234
X0245Y0217
X02425Y02
X0261Y02055
X0234406Y02465
X0187Y02475
X0171Y0238
X0175Y02735
X01695Y02855
X02275Y02895
X02965Y02525
X0123Y02485
X0122Y02285
X0120047Y0216453
X0119Y0199453
X0136Y02045
X01175Y0327
X01195Y0449
X013Y0458
X02055Y0402
X0213Y04085
X02085Y0369
X0257Y03798
X0267Y0371
X0271Y0358
X02585Y03547
X0284Y0369
X0305Y03825
X03055Y0397
X03002Y04068
X02885Y04071
X02835Y04075
X02738Y0407
X02703Y04133
X02635Y0411
X02741Y04199
X02715Y0424744
X02945Y043
X03086Y04328
X03092Y04159
X03075Y0342
X01835Y03255
X02465Y0432
X03455Y04275
X03305Y03855
Y0369
X03335Y0341
X0319Y03465
X03475Y033
X0363Y03475
X03755
X03845Y0348
X03795Y0366
X0371Y03735
X0363Y0384
X04165Y03825
X04075Y04005
X0404Y0434
X0424
X045Y04425
X0447Y04565
X04657Y03853
X04559Y03483
X0318Y03965
X04825Y0414
X04925Y04117
X04901Y04066
X0516Y04075
X054Y04125
X0507272Y0384228
X049Y036
X0486Y03535
X04826Y03635
X055Y03495
X056Y03705
X05365Y03275
X05045Y04415
X0477Y0452
X06415Y04185
X063Y03925
X06415Y0373
X06255Y0334
X06645Y0339
X0691Y03135
T02
X064725Y01975
Y02075
Y02175
X06745
Y02075
Y01975
X070175
Y02075
Y02175
X05775
Y02075
Y01975
X055
Y02075
Y02175
X05225
Y02075
Y01975
X0452885Y0198
Y0208
Y0218
X0425135
Y0208
Y0198
X0397385
Y0208
Y0218
X03285
Y0208
Y0198
X03005
Y0208
Y0218
X02725
Y0208
Y0198
X020375
Y0208
Y0218
X0176
Y0208
Y0198
X014825
Y0208
Y0218
T03
X0674579Y0160079
X0684421
X06285Y0266
X06185
X06085
X05985
X05885
X05055
X04955
X04855
X04755
X0549857Y0160079
X0559699
X0434977
X0425135
X04655Y0266
X0368Y0268
X0358
X0348
X0338
X0328
X0318
X0310255Y0160079
X0300413
X0185534
X0175691
X01975Y0349
Y0359
Y0369
Y0379
Y0389
Y0399
Y0409
Y0419
Y0429
Y0439
X01965Y04665
X01865
X0393Y0439
Y0429
Y0419
Y0409
Y0399
Y0389
Y0379
Y0369
Y0359
Y0349
X0452Y03225
X0462
X0472
X0482
X0492
X05135Y0461
X05235
X05335
X05435
X06025
X06125
X06225
X06325
X066Y03225
X067
X068
T04
X0155612Y014
X019577
X0280334
X0320492
X0405056
X0445214
X0529778
X0569936
X06545
X0694657
M30
