G04 Layer_Physical_Order=2*
G04 Layer_Color=16711680*
%FSLAX25Y25*%
%MOIN*%
G70*
G01*
G75*
%ADD23C,0.01000*%
%ADD24C,0.04724*%
%ADD25C,0.04724*%
%ADD26R,0.04724X0.04724*%
%ADD27R,0.05906X0.05906*%
%ADD28C,0.05906*%
%ADD29R,0.05906X0.05906*%
%ADD30C,0.12992*%
%ADD31C,0.02500*%
D23*
X311550Y403050D02*
Y416873D01*
X305500Y397000D02*
X311550Y403050D01*
X260500Y205500D02*
X267000Y212000D01*
X492450Y406550D02*
Y411700D01*
X273300Y407500D02*
X273800Y407000D01*
X269500Y407500D02*
X273300D01*
X270300Y413300D02*
X301800D01*
X308600Y419823D02*
X311550Y416873D01*
X308600Y419823D02*
Y432800D01*
X283500Y407500D02*
X287100Y411100D01*
X289077Y406523D02*
X299923D01*
X300200Y406800D01*
X304400Y415900D02*
X309200D01*
X301800Y413300D02*
X304400Y415900D01*
X288500Y407100D02*
X289077Y406523D01*
X301673Y411100D02*
X303200Y409573D01*
Y398023D02*
Y409573D01*
X287100Y411100D02*
X301673D01*
X302650Y380650D02*
Y383473D01*
X291000Y369000D02*
X302650Y380650D01*
X303150Y397973D02*
X303200Y398023D01*
X303150Y396027D02*
Y397973D01*
Y396027D02*
X303200Y395977D01*
Y384023D02*
Y395977D01*
X302650Y383473D02*
X303200Y384023D01*
X257000Y356200D02*
X258500Y354700D01*
X257000Y356200D02*
Y379800D01*
X483800Y406600D02*
X490100D01*
X285000Y337000D02*
X444500D01*
X455900Y381900D02*
X477500Y403500D01*
X444500Y337000D02*
X455800Y348300D01*
X455900D01*
Y381900D01*
X344500Y333000D02*
X347500Y330000D01*
X493850Y299350D02*
X497500Y303000D01*
X492527Y299350D02*
X493850D01*
X491677Y298500D02*
X492527Y299350D01*
X400500Y298500D02*
X491677D01*
X497500Y303000D02*
X511000D01*
X669000Y313500D02*
X691000D01*
X660000Y322500D02*
X669000Y313500D01*
X413500Y385500D02*
Y424500D01*
X404000Y434000D02*
X413500Y424500D01*
Y385500D02*
X416500Y382500D01*
X407500Y400500D02*
Y401000D01*
X404000Y364000D02*
Y397500D01*
X399000Y359000D02*
X404000Y364000D01*
X393000Y359000D02*
X399000D01*
X612500Y297500D02*
X615000Y300000D01*
X551500Y297500D02*
X612500D01*
X543000Y306000D02*
X551500Y297500D01*
X541500Y322500D02*
X660000D01*
X536500Y327500D02*
X541500Y322500D01*
X630000Y387500D02*
Y392500D01*
X626728Y384228D02*
X630000Y387500D01*
X507272Y384228D02*
X626728D01*
X661000Y342500D02*
X664500Y339000D01*
X629000Y330500D02*
X672000D01*
X625500Y334000D02*
X629000Y330500D01*
X672000D02*
X680000Y322500D01*
X639000Y370500D02*
X641500Y373000D01*
X560000Y370500D02*
X639000D01*
X313039Y270500D02*
X314592Y272053D01*
X292000Y270500D02*
X313039D01*
X314592Y272053D02*
X323947D01*
X357500Y278500D02*
X368000Y268000D01*
X329000Y278500D02*
X357500D01*
X326000Y281500D02*
X329000Y278500D01*
X211000Y406500D02*
X213000Y408500D01*
X330500Y369000D02*
Y385500D01*
X278000Y333000D02*
X344500D01*
X278000Y281500D02*
X283000Y276500D01*
X276500Y281500D02*
X278000D01*
X276500D02*
X281000Y286000D01*
X272000D02*
X276500Y281500D01*
X467732Y322500D02*
X472000D01*
X463679Y318447D02*
X467732Y322500D01*
X458447Y318447D02*
X463679D01*
X447000Y307000D02*
X458447Y318447D01*
X483000Y294500D02*
X485000Y292500D01*
X585000D01*
X493500Y297000D02*
X495000Y295500D01*
X419000Y293000D02*
X428500Y283500D01*
X356500Y293000D02*
X419000D01*
X353500Y290000D02*
X356500Y293000D01*
X428500Y283500D02*
X567500D01*
X613000Y280000D02*
X617000Y276000D01*
X528000Y280000D02*
X613000D01*
X420551Y281551D02*
X424602Y277500D01*
X549000D01*
X697000Y278500D02*
X699000D01*
X680000Y295500D02*
X697000Y278500D01*
X495000Y295500D02*
X680000D01*
X658000Y249000D02*
Y274000D01*
X665500Y281500D01*
X234406Y246500D02*
X234500D01*
X236500Y244500D01*
X441500Y252500D02*
X456500Y267500D01*
X296500Y252500D02*
X441500D01*
X387000Y247000D02*
Y248000D01*
Y247000D02*
X387900Y246100D01*
X589900D02*
X591000Y245000D01*
X387900Y246100D02*
X589900D01*
X586500Y244500D02*
X591000Y240000D01*
X236500Y244500D02*
X586500D01*
X123000Y244000D02*
Y248500D01*
Y244000D02*
X125000Y242000D01*
X323947Y272053D02*
X328000Y268000D01*
X606500Y245000D02*
X608500Y247000D01*
X591000Y245000D02*
X606500D01*
X602000Y240000D02*
X603500Y241500D01*
X591000Y240000D02*
X602000D01*
X599000Y235000D02*
X600000Y236000D01*
X588000Y235000D02*
X599000D01*
X581000Y242000D02*
X588000Y235000D01*
X125000Y242000D02*
X581000D01*
X560500Y237000D02*
X563000Y239500D01*
X503500Y237000D02*
X560500D01*
X501500Y235000D02*
X503500Y237000D01*
X416102Y286000D02*
X420551Y281551D01*
X281000Y286000D02*
X416102D01*
X170000D02*
X272000D01*
X169500Y285500D02*
X170000Y286000D01*
X665500Y281500D02*
X668500D01*
X649500Y240500D02*
X658000Y249000D01*
X626500Y238000D02*
X684000D01*
X686000Y240000D01*
X590000Y251500D02*
X592500Y249000D01*
X509500Y251500D02*
X590000D01*
X507000Y254000D02*
X509500Y251500D01*
X464000Y126500D02*
X469000Y131500D01*
X249000Y126500D02*
X464000D01*
X462177Y130000D02*
X470027Y137850D01*
X369500Y130000D02*
X462177D01*
X368000Y131500D02*
X369500Y130000D01*
X247000Y128500D02*
X249000Y126500D01*
X664000Y149500D02*
X674579Y160079D01*
X289334Y149000D02*
X300413Y160079D01*
X164612Y149000D02*
X175691Y160079D01*
X413556Y148500D02*
X425135Y160079D01*
X537778Y148000D02*
X549857Y160079D01*
X470027Y138027D02*
X473500Y141500D01*
X470027Y137850D02*
Y138027D01*
X473500Y141500D02*
Y143500D01*
X462500Y122500D02*
X463500Y123500D01*
X124000Y122500D02*
X462500D01*
X122000Y124500D02*
X124000Y122500D01*
X492500Y148000D02*
X537778D01*
X636750Y228000D02*
X647250Y217500D01*
X548000Y228000D02*
X636750D01*
X537500Y217500D02*
X548000Y228000D01*
X522500Y217500D02*
X537500D01*
X512000Y228000D02*
X522500Y217500D01*
X416500Y228000D02*
X512000D01*
X406500Y218000D02*
X416500Y228000D01*
X397385Y218000D02*
X406500D01*
X387885Y227500D02*
X397385Y218000D01*
X308500Y227500D02*
X387885D01*
X302462Y221462D02*
X308500Y227500D01*
X297682Y221462D02*
X302462D01*
X294220Y218000D02*
X297682Y221462D01*
X270000Y220500D02*
X272500Y218000D01*
X244823Y220500D02*
X270000D01*
X240823Y224500D02*
X244823Y220500D01*
X175500Y224500D02*
X240823D01*
X169000Y218000D02*
X175500Y224500D01*
X123000Y213500D02*
X198250D01*
X172538Y211462D02*
X176000Y208000D01*
X146816Y211462D02*
X172538D01*
X148250Y218000D02*
X169000D01*
X647250Y203750D02*
Y207500D01*
X671038Y210962D02*
X674500Y207500D01*
X696688Y212562D02*
X701750Y207500D01*
X624000Y235500D02*
X626500Y238000D01*
X618500Y212562D02*
X696688D01*
X617000Y214062D02*
X618500Y212562D01*
X434500Y238000D02*
X436000Y239500D01*
X377000Y238000D02*
X434500D01*
X375000Y236000D02*
X377000Y238000D01*
X275000Y237000D02*
X276500Y238500D01*
X254500Y237000D02*
X275000D01*
X251500Y234000D02*
X254500Y237000D01*
X166500Y233500D02*
X171000Y238000D01*
X126000Y233500D02*
X166500D01*
X122000Y229500D02*
X126000Y233500D01*
X122000Y228500D02*
Y229500D01*
X546538Y210962D02*
X550000Y207500D01*
X572500Y212500D02*
X577500Y207500D01*
X617000Y214062D02*
Y217500D01*
X613047Y149500D02*
X664000D01*
X198250Y213500D02*
X203750Y208000D01*
X120047Y216453D02*
X123000Y213500D01*
X144788Y209434D02*
X146816Y211462D01*
X144788Y209288D02*
Y209434D01*
X140000Y204500D02*
X144788Y209288D01*
X136000Y204500D02*
X140000D01*
X143453Y199453D02*
X147625Y203625D01*
X119000Y199453D02*
X143453D01*
X272500Y204000D02*
Y208000D01*
X268500Y200000D02*
X272500Y204000D01*
X242500Y200000D02*
X268500D01*
X397385Y203385D02*
Y208000D01*
X393000Y199000D02*
X397385Y203385D01*
X361953Y199000D02*
X393000D01*
X522500Y203000D02*
Y207500D01*
X519453Y199953D02*
X522500Y203000D01*
X487000Y199953D02*
X519453D01*
X642953Y199453D02*
X647250Y203750D01*
X609000Y199453D02*
X642953D01*
X633000Y204500D02*
X639462Y210962D01*
X671038D01*
X492500Y214062D02*
Y216000D01*
Y214062D02*
X494000Y212562D01*
X547263Y212500D02*
X572500D01*
X547201Y212562D02*
X547263Y212500D01*
X494000Y212562D02*
X547201D01*
X519038Y210962D02*
X546538D01*
X512576Y204500D02*
X519038Y210962D01*
X509000Y204500D02*
X512576D01*
X367500Y217000D02*
X369962Y214538D01*
X452500Y208000D02*
X452885D01*
X445962Y214538D02*
X452500Y208000D01*
X369962Y214538D02*
X445962D01*
X421635Y211500D02*
X425135Y208000D01*
X395989Y211500D02*
X421635D01*
X388988Y204500D02*
X395989Y211500D01*
X383000Y204500D02*
X388988D01*
X369000Y148500D02*
X413556D01*
X245000Y215500D02*
Y217000D01*
Y215500D02*
X246000Y214500D01*
X322000D02*
X328500Y208000D01*
X246000Y214500D02*
X322000D01*
X260500Y205500D02*
X261000D01*
X267000Y212000D02*
X296500D01*
X300500Y208000D01*
X245500Y149000D02*
X289334D01*
X123000D02*
X164612D01*
X197500Y439000D02*
X199500D01*
X205500Y372000D02*
X208500Y369000D01*
X205500Y372000D02*
Y402000D01*
X197500Y359000D02*
X206500D01*
X205500Y402000D02*
Y433000D01*
X199500Y439000D02*
X205500Y433000D01*
X206500Y359000D02*
X211000Y363500D01*
Y406500D01*
X315500Y265500D02*
X318000Y268000D01*
X175000Y268500D02*
X178000Y265500D01*
X315500D01*
X279500Y218000D02*
X283000Y221500D01*
Y228500D01*
X272500Y218000D02*
X279500D01*
X294220D01*
X263500Y340500D02*
Y411000D01*
X175000Y268500D02*
Y273500D01*
X188000Y246500D02*
X230123D01*
X187000Y247500D02*
X188000Y246500D01*
X283000Y273500D02*
Y276500D01*
X230123Y246500D02*
X232623Y249000D01*
X446500D02*
X451000Y253500D01*
X232623Y249000D02*
X384677D01*
X386027Y250350D01*
X387973D01*
X389323Y249000D01*
X446500D01*
X183500Y325500D02*
X186500Y328500D01*
X251500D01*
X263500Y340500D01*
X305000Y344500D02*
X307500Y342000D01*
X305000Y344500D02*
Y382500D01*
X333500Y341000D02*
Y415500D01*
X345500Y427500D01*
X370500Y373500D02*
X371000D01*
X117500Y327000D02*
X124500Y334000D01*
X237000D01*
X243000Y340000D01*
Y428500D01*
X246500Y432000D01*
X362650Y372527D02*
X363000Y372177D01*
X362650Y383650D02*
X363000Y384000D01*
X362650Y372527D02*
Y383650D01*
X271500Y424744D02*
X274256Y427500D01*
X292000D01*
X294500Y430000D01*
X119500Y449000D02*
Y449500D01*
X123000Y453000D01*
X434500D01*
X445000Y442500D01*
X450000D01*
X443000Y460500D02*
X447000Y456500D01*
X130000Y458000D02*
X132500Y460500D01*
X443000D01*
X424000Y434000D02*
X428500Y429500D01*
X535500Y408000D02*
X540000Y412500D01*
X363000Y347500D02*
Y372177D01*
X375500Y347500D02*
Y368500D01*
X384500Y348000D02*
Y361000D01*
X379500Y366000D02*
X384500Y361000D01*
X227500Y289500D02*
X328000D01*
X309000Y387500D02*
X318000Y396500D01*
X309000Y352500D02*
Y387500D01*
Y352500D02*
X315000Y346500D01*
X319000D01*
X277000Y345000D02*
X285000Y337000D01*
X491500Y346000D02*
X546500D01*
X550000Y349500D01*
X338000Y268000D02*
X343000Y263000D01*
X431500D01*
X437000Y268500D01*
X284000Y369000D02*
X291000D01*
X265500Y403500D02*
X269500Y407500D01*
X489000Y342500D02*
X661000D01*
X493000Y418500D02*
X641500D01*
X535000Y408500D02*
X535500Y408000D01*
X534000Y407500D02*
X535000Y408500D01*
X516000Y407500D02*
X534000D01*
X488500Y414000D02*
X493000Y418500D01*
X482500Y414000D02*
X488500D01*
X428500Y429500D02*
X472500D01*
X482500Y419500D01*
Y414000D02*
Y419500D01*
X265500Y372500D02*
Y403500D01*
Y372500D02*
X267000Y371000D01*
X268500Y342500D02*
X278000Y333000D01*
X267000Y368000D02*
Y371000D01*
Y368000D02*
X277000Y358000D01*
Y345000D02*
Y358000D01*
X268500Y342500D02*
Y355500D01*
X271000Y358000D01*
X504500Y441500D02*
X593000D01*
X612500Y461000D01*
X477000Y452000D02*
X593500D01*
X602500Y461000D01*
X477500Y403500D02*
Y409000D01*
X482500Y414000D01*
X490000Y347500D02*
X491500Y346000D01*
X490000Y347500D02*
Y360000D01*
Y361000D01*
X486000Y345500D02*
X489000Y342500D01*
X486000Y345500D02*
Y353500D01*
X490000Y361000D02*
X503000Y374000D01*
Y396000D01*
X147625Y203625D02*
Y208625D01*
X257000Y379800D02*
Y409500D01*
X267400Y419900D01*
X274100D01*
X492450Y406550D02*
X503000Y396000D01*
X492500Y411523D02*
Y411700D01*
X478400Y363500D02*
X482600D01*
X465700Y385300D02*
Y388500D01*
Y376200D02*
Y385300D01*
Y376200D02*
X478400Y363500D01*
X465700Y388500D02*
X483800Y406600D01*
X404000Y397500D02*
X407500Y401000D01*
X370500Y373500D02*
X375500Y368500D01*
D24*
X100000Y100000D02*
X727000D01*
Y483500D01*
X100000D02*
X727000D01*
X100000Y100000D02*
Y483500D01*
D25*
X148250Y198000D02*
D03*
Y208000D02*
D03*
X203750Y198000D02*
D03*
Y208000D02*
D03*
X176000Y198000D02*
D03*
Y208000D02*
D03*
X328500Y198000D02*
D03*
Y208000D02*
D03*
X300500Y198000D02*
D03*
Y208000D02*
D03*
X272500Y198000D02*
D03*
Y208000D02*
D03*
X452885Y198000D02*
D03*
Y208000D02*
D03*
X425135Y198000D02*
D03*
Y208000D02*
D03*
X397385Y198000D02*
D03*
Y208000D02*
D03*
X577500Y197500D02*
D03*
Y207500D02*
D03*
X550000Y197500D02*
D03*
Y207500D02*
D03*
X522500Y197500D02*
D03*
Y207500D02*
D03*
X701750Y197500D02*
D03*
Y207500D02*
D03*
X674500Y197500D02*
D03*
Y207500D02*
D03*
X647250Y197500D02*
D03*
Y207500D02*
D03*
D26*
X148250Y218000D02*
D03*
X203750D02*
D03*
X176000D02*
D03*
X328500D02*
D03*
X300500D02*
D03*
X272500D02*
D03*
X452885D02*
D03*
X425135D02*
D03*
X397385D02*
D03*
X577500Y217500D02*
D03*
X550000D02*
D03*
X522500D02*
D03*
X701750D02*
D03*
X674500D02*
D03*
X647250D02*
D03*
D27*
X186500Y466500D02*
D03*
X513500Y461000D02*
D03*
X588500Y266000D02*
D03*
X318000Y268000D02*
D03*
X465500Y266000D02*
D03*
X452000Y322500D02*
D03*
X660000D02*
D03*
X602500Y461000D02*
D03*
D28*
X196500Y466500D02*
D03*
X197500Y419000D02*
D03*
Y349000D02*
D03*
Y359000D02*
D03*
Y369000D02*
D03*
Y379000D02*
D03*
Y389000D02*
D03*
Y399000D02*
D03*
Y409000D02*
D03*
Y429000D02*
D03*
X393000Y419000D02*
D03*
Y349000D02*
D03*
Y359000D02*
D03*
Y369000D02*
D03*
Y379000D02*
D03*
Y389000D02*
D03*
Y399000D02*
D03*
Y409000D02*
D03*
Y429000D02*
D03*
X185534Y160079D02*
D03*
X310255D02*
D03*
X434977D02*
D03*
X559699D02*
D03*
X684421D02*
D03*
X543500Y461000D02*
D03*
X533500D02*
D03*
X523500D02*
D03*
X628500Y266000D02*
D03*
X618500D02*
D03*
X608500D02*
D03*
X598500D02*
D03*
X328000Y268000D02*
D03*
X338000D02*
D03*
X348000D02*
D03*
X358000D02*
D03*
X368000D02*
D03*
X505500Y266000D02*
D03*
X495500D02*
D03*
X485500D02*
D03*
X475500D02*
D03*
X492000Y322500D02*
D03*
X482000D02*
D03*
X472000D02*
D03*
X462000D02*
D03*
X670000D02*
D03*
X680000D02*
D03*
X612500Y461000D02*
D03*
X622500D02*
D03*
X632500D02*
D03*
D29*
X197500Y439000D02*
D03*
X393000D02*
D03*
X175691Y160079D02*
D03*
X300413D02*
D03*
X425135D02*
D03*
X549857D02*
D03*
X674579D02*
D03*
D30*
X155612Y140000D02*
D03*
X195770D02*
D03*
X280334D02*
D03*
X320492D02*
D03*
X405056D02*
D03*
X445214D02*
D03*
X529778D02*
D03*
X569936D02*
D03*
X654500D02*
D03*
X694657D02*
D03*
D31*
X273800Y407000D02*
D03*
X270300Y413300D02*
D03*
X308600Y432800D02*
D03*
X283500Y407500D02*
D03*
X300200Y406800D02*
D03*
X309200Y415900D02*
D03*
X288500Y407100D02*
D03*
X258500Y354700D02*
D03*
X257000Y379800D02*
D03*
X490100Y406600D02*
D03*
X455900Y348300D02*
D03*
X347500Y330000D02*
D03*
X511000Y303000D02*
D03*
X400500Y298500D02*
D03*
X691000Y313500D02*
D03*
X416500Y382500D02*
D03*
X407500Y400500D02*
D03*
X615000Y300000D02*
D03*
X543000Y306000D02*
D03*
X536500Y327500D02*
D03*
X630000Y392500D02*
D03*
X507272Y384228D02*
D03*
X664500Y339000D02*
D03*
X404000Y434000D02*
D03*
X625500Y334000D02*
D03*
X641500Y373000D02*
D03*
X560000Y370500D02*
D03*
X363000Y384000D02*
D03*
X117500Y327000D02*
D03*
X318000Y396500D02*
D03*
X326000Y281500D02*
D03*
X213000Y408500D02*
D03*
X305000Y382500D02*
D03*
X330500Y369000D02*
D03*
Y385500D02*
D03*
X276500Y281500D02*
D03*
X447000Y307000D02*
D03*
X549000Y277500D02*
D03*
X483000Y294500D02*
D03*
X585000Y292500D02*
D03*
X493500Y297000D02*
D03*
X353500Y290000D02*
D03*
X567500Y283500D02*
D03*
X528000Y280000D02*
D03*
X617000Y276000D02*
D03*
X699000Y278500D02*
D03*
X234406Y246500D02*
D03*
X456500Y267500D02*
D03*
X296500Y252500D02*
D03*
X387000Y248000D02*
D03*
X451000Y253500D02*
D03*
X292000Y270500D02*
D03*
X608500Y247000D02*
D03*
X600000Y236000D02*
D03*
X603500Y241500D02*
D03*
X123000Y248500D02*
D03*
X563000Y239500D02*
D03*
X501500Y235000D02*
D03*
X169500Y285500D02*
D03*
X668500Y281500D02*
D03*
X649500Y240500D02*
D03*
X420551Y281551D02*
D03*
X507000Y254000D02*
D03*
X592500Y249000D02*
D03*
X469000Y131500D02*
D03*
X473500Y143500D02*
D03*
X368000Y131500D02*
D03*
X463500Y123500D02*
D03*
X247000Y128500D02*
D03*
X122000Y124500D02*
D03*
X492500Y148000D02*
D03*
X686000Y240000D02*
D03*
X624000Y235500D02*
D03*
X436000Y239500D02*
D03*
X375000Y236000D02*
D03*
X276500Y238500D02*
D03*
X251500Y234000D02*
D03*
X171000Y238000D02*
D03*
X122000Y228500D02*
D03*
X617000Y217500D02*
D03*
X613047Y149500D02*
D03*
X120047Y216453D02*
D03*
X136000Y204500D02*
D03*
X633000D02*
D03*
X609000Y199453D02*
D03*
X492500Y216000D02*
D03*
X509000Y204500D02*
D03*
X487000Y199953D02*
D03*
X367500Y217000D02*
D03*
X383000Y204500D02*
D03*
X361953Y199000D02*
D03*
X369000Y148500D02*
D03*
X245000Y217000D02*
D03*
X261000Y205500D02*
D03*
X242500Y200000D02*
D03*
X245500Y149000D02*
D03*
X123000D02*
D03*
X119000Y199453D02*
D03*
X205500Y402000D02*
D03*
X208500Y369000D02*
D03*
X283000Y228500D02*
D03*
X263500Y411000D02*
D03*
X183500Y325500D02*
D03*
X175000Y273500D02*
D03*
X187000Y247500D02*
D03*
X283000Y273500D02*
D03*
X307500Y342000D02*
D03*
X333500Y341000D02*
D03*
X345500Y427500D02*
D03*
X371000Y373500D02*
D03*
X641500Y418500D02*
D03*
X246500Y432000D02*
D03*
X271500Y424744D02*
D03*
X294500Y430000D02*
D03*
X305500Y397000D02*
D03*
X119500Y449000D02*
D03*
X450000Y442500D02*
D03*
X447000Y456500D02*
D03*
X130000Y458000D02*
D03*
X424000Y434000D02*
D03*
X540000Y412500D02*
D03*
X363000Y347500D02*
D03*
X379500Y366000D02*
D03*
X375500Y347500D02*
D03*
X384500Y348000D02*
D03*
X227500Y289500D02*
D03*
X328000D02*
D03*
X319000Y346500D02*
D03*
X550000Y349500D02*
D03*
X437000Y268500D02*
D03*
X284000Y369000D02*
D03*
X516000Y407500D02*
D03*
X482500Y414000D02*
D03*
X267000Y371000D02*
D03*
X271000Y358000D02*
D03*
X504500Y441500D02*
D03*
X477000Y452000D02*
D03*
X490000Y360000D02*
D03*
X486000Y353500D02*
D03*
X274100Y419900D02*
D03*
X492500Y411700D02*
D03*
X482600Y363500D02*
D03*
X465700Y385300D02*
D03*
M02*
