G04 Layer_Color=65535*
%FSLAX25Y25*%
%MOIN*%
G70*
G01*
G75*
%ADD24C,0.01000*%
%ADD25C,0.04724*%
%ADD33C,0.00984*%
%ADD34C,0.00098*%
%ADD35C,0.01575*%
%ADD36C,0.00787*%
%ADD37C,0.00098*%
D24*
X268500Y414498D02*
Y409916D01*
X269416Y409000D01*
X271249D01*
X272165Y409916D01*
Y414498D01*
X273998Y409000D02*
X275831D01*
X274915D01*
Y414498D01*
X273998Y413582D01*
X278580D02*
X279496Y414498D01*
X281329D01*
X282246Y413582D01*
Y409916D01*
X281329Y409000D01*
X279496D01*
X278580Y409916D01*
Y413582D01*
X284078Y409000D02*
X285911D01*
X284995D01*
Y414498D01*
X284078Y413582D01*
X569400Y407998D02*
Y403416D01*
X570316Y402500D01*
X572149D01*
X573066Y403416D01*
Y407998D01*
X578564Y402500D02*
X574898D01*
X578564Y406166D01*
Y407082D01*
X577647Y407998D01*
X575815D01*
X574898Y407082D01*
X580396D02*
X581313Y407998D01*
X583146D01*
X584062Y407082D01*
Y403416D01*
X583146Y402500D01*
X581313D01*
X580396Y403416D01*
Y407082D01*
X585895D02*
X586811Y407998D01*
X588644D01*
X589560Y407082D01*
Y403416D01*
X588644Y402500D01*
X586811D01*
X585895Y403416D01*
Y407082D01*
X250313Y288298D02*
X248481D01*
X247564Y287382D01*
Y283716D01*
X248481Y282800D01*
X250313D01*
X251230Y283716D01*
Y287382D01*
X250313Y288298D01*
X253062Y282800D02*
Y288298D01*
X255811D01*
X256728Y287382D01*
Y285549D01*
X255811Y284633D01*
X253062D01*
X262226Y282800D02*
X258560D01*
X262226Y286466D01*
Y287382D01*
X261310Y288298D01*
X259477D01*
X258560Y287382D01*
X693594Y297498D02*
X697260Y292000D01*
Y297498D02*
X693594Y292000D01*
X702758Y297498D02*
X699093D01*
Y294749D01*
X700925D01*
X699093D01*
Y292000D01*
X708256Y297498D02*
X704591D01*
Y294749D01*
X706424Y295666D01*
X707340D01*
X708256Y294749D01*
Y292916D01*
X707340Y292000D01*
X705507D01*
X704591Y292916D01*
X574000Y296998D02*
X577666Y291500D01*
Y296998D02*
X574000Y291500D01*
X583164Y296998D02*
X579498D01*
Y294249D01*
X581331D01*
X579498D01*
Y291500D01*
X587746D02*
Y296998D01*
X584996Y294249D01*
X588662D01*
X440000Y267498D02*
X443665Y262000D01*
Y267498D02*
X440000Y262000D01*
X449164Y267498D02*
X445498D01*
Y264749D01*
X447331D01*
X445498D01*
Y262000D01*
X450996Y266582D02*
X451913Y267498D01*
X453746D01*
X454662Y266582D01*
Y265666D01*
X453746Y264749D01*
X452829D01*
X453746D01*
X454662Y263833D01*
Y262916D01*
X453746Y262000D01*
X451913D01*
X450996Y262916D01*
X287500Y267998D02*
X291165Y262500D01*
Y267998D02*
X287500Y262500D01*
X296664Y267998D02*
X292998D01*
Y265249D01*
X294831D01*
X292998D01*
Y262500D01*
X302162D02*
X298496D01*
X302162Y266165D01*
Y267082D01*
X301246Y267998D01*
X299413D01*
X298496Y267082D01*
X178500Y267498D02*
X182166Y262000D01*
Y267498D02*
X178500Y262000D01*
X187664Y267498D02*
X183998D01*
Y264749D01*
X185831D01*
X183998D01*
Y262000D01*
X189496D02*
X191329D01*
X190413D01*
Y267498D01*
X189496Y266582D01*
X630713Y311582D02*
X629796Y312498D01*
X627964D01*
X627047Y311582D01*
Y310665D01*
X627964Y309749D01*
X629796D01*
X630713Y308833D01*
Y307916D01*
X629796Y307000D01*
X627964D01*
X627047Y307916D01*
X636211Y312498D02*
X632545D01*
Y309749D01*
X634378Y310665D01*
X635294D01*
X636211Y309749D01*
Y307916D01*
X635294Y307000D01*
X633462D01*
X632545Y307916D01*
X522713Y313582D02*
X521796Y314498D01*
X519964D01*
X519047Y313582D01*
Y312666D01*
X519964Y311749D01*
X521796D01*
X522713Y310833D01*
Y309916D01*
X521796Y309000D01*
X519964D01*
X519047Y309916D01*
X527294Y309000D02*
Y314498D01*
X524545Y311749D01*
X528211D01*
X383118Y284582D02*
X382202Y285498D01*
X380369D01*
X379453Y284582D01*
Y283665D01*
X380369Y282749D01*
X382202D01*
X383118Y281833D01*
Y280916D01*
X382202Y280000D01*
X380369D01*
X379453Y280916D01*
X384951Y284582D02*
X385867Y285498D01*
X387700D01*
X388616Y284582D01*
Y283665D01*
X387700Y282749D01*
X386784D01*
X387700D01*
X388616Y281833D01*
Y280916D01*
X387700Y280000D01*
X385867D01*
X384951Y280916D01*
X226866Y284882D02*
X225949Y285798D01*
X224116D01*
X223200Y284882D01*
Y283965D01*
X224116Y283049D01*
X225949D01*
X226866Y282133D01*
Y281216D01*
X225949Y280300D01*
X224116D01*
X223200Y281216D01*
X232364Y280300D02*
X228698D01*
X232364Y283965D01*
Y284882D01*
X231447Y285798D01*
X229615D01*
X228698Y284882D01*
X119166Y285082D02*
X118249Y285998D01*
X116416D01*
X115500Y285082D01*
Y284166D01*
X116416Y283249D01*
X118249D01*
X119166Y282333D01*
Y281416D01*
X118249Y280500D01*
X116416D01*
X115500Y281416D01*
X120998Y280500D02*
X122831D01*
X121915D01*
Y285998D01*
X120998Y285082D01*
X693547Y312498D02*
X695380D01*
X694464D01*
Y307000D01*
X693547D01*
X695380D01*
X701794Y312498D02*
X698129D01*
Y309749D01*
X699962D01*
X698129D01*
Y307000D01*
X707293Y312498D02*
X703627D01*
Y309749D01*
X705460Y310665D01*
X706376D01*
X707293Y309749D01*
Y307916D01*
X706376Y307000D01*
X704544D01*
X703627Y307916D01*
X574000Y312498D02*
X575833D01*
X574916D01*
Y307000D01*
X574000D01*
X575833D01*
X582247Y312498D02*
X578582D01*
Y309749D01*
X580415D01*
X578582D01*
Y307000D01*
X586829D02*
Y312498D01*
X584080Y309749D01*
X587746D01*
X440000Y285498D02*
X441833D01*
X440916D01*
Y280000D01*
X440000D01*
X441833D01*
X448247Y285498D02*
X444582D01*
Y282749D01*
X446415D01*
X444582D01*
Y280000D01*
X450080Y284582D02*
X450996Y285498D01*
X452829D01*
X453746Y284582D01*
Y283665D01*
X452829Y282749D01*
X451913D01*
X452829D01*
X453746Y281833D01*
Y280916D01*
X452829Y280000D01*
X450996D01*
X450080Y280916D01*
X288000Y285998D02*
X289833D01*
X288916D01*
Y280500D01*
X288000D01*
X289833D01*
X296247Y285998D02*
X292582D01*
Y283249D01*
X294415D01*
X292582D01*
Y280500D01*
X301746D02*
X298080D01*
X301746Y284166D01*
Y285082D01*
X300829Y285998D01*
X298996D01*
X298080Y285082D01*
X178600Y286598D02*
X180433D01*
X179516D01*
Y281100D01*
X178600D01*
X180433D01*
X186847Y286598D02*
X183182D01*
Y283849D01*
X185015D01*
X183182D01*
Y281100D01*
X188680D02*
X190513D01*
X189596D01*
Y286598D01*
X188680Y285682D01*
X627200Y298498D02*
Y293000D01*
X629949D01*
X630865Y293916D01*
Y297582D01*
X629949Y298498D01*
X627200D01*
X636364D02*
X632698D01*
Y295749D01*
X634531Y296666D01*
X635447D01*
X636364Y295749D01*
Y293916D01*
X635447Y293000D01*
X633615D01*
X632698Y293916D01*
X518547Y297498D02*
Y292000D01*
X521296D01*
X522213Y292916D01*
Y296582D01*
X521296Y297498D01*
X518547D01*
X526794Y292000D02*
Y297498D01*
X524045Y294749D01*
X527711D01*
X378453Y265998D02*
Y260500D01*
X381202D01*
X382118Y261416D01*
Y265082D01*
X381202Y265998D01*
X378453D01*
X383951Y265082D02*
X384867Y265998D01*
X386700D01*
X387616Y265082D01*
Y264165D01*
X386700Y263249D01*
X385784D01*
X386700D01*
X387616Y262333D01*
Y261416D01*
X386700Y260500D01*
X384867D01*
X383951Y261416D01*
X223000Y267998D02*
Y262500D01*
X225749D01*
X226665Y263416D01*
Y267082D01*
X225749Y267998D01*
X223000D01*
X232164Y262500D02*
X228498D01*
X232164Y266165D01*
Y267082D01*
X231247Y267998D01*
X229415D01*
X228498Y267082D01*
X115400Y268998D02*
Y263500D01*
X118149D01*
X119065Y264416D01*
Y268082D01*
X118149Y268998D01*
X115400D01*
X120898Y263500D02*
X122731D01*
X121815D01*
Y268998D01*
X120898Y268082D01*
X614000Y401500D02*
Y406998D01*
X616749D01*
X617665Y406082D01*
Y404249D01*
X616749Y403333D01*
X614000D01*
X615833D02*
X617665Y401500D01*
X619498Y406998D02*
Y401500D01*
X622247D01*
X623164Y402416D01*
Y403333D01*
X622247Y404249D01*
X619498D01*
X622247D01*
X623164Y405165D01*
Y406082D01*
X622247Y406998D01*
X619498D01*
X624996Y401500D02*
Y406998D01*
X627746D01*
X628662Y406082D01*
Y404249D01*
X627746Y403333D01*
X624996D01*
X634160Y401500D02*
X630495D01*
X634160Y405165D01*
Y406082D01*
X633244Y406998D01*
X631411D01*
X630495Y406082D01*
X315344Y326400D02*
Y331898D01*
X318093D01*
X319010Y330982D01*
Y329149D01*
X318093Y328233D01*
X315344D01*
X317177D02*
X319010Y326400D01*
X320842Y331898D02*
Y326400D01*
X323591D01*
X324508Y327316D01*
Y328233D01*
X323591Y329149D01*
X320842D01*
X323591D01*
X324508Y330065D01*
Y330982D01*
X323591Y331898D01*
X320842D01*
X326341Y326400D02*
Y331898D01*
X329090D01*
X330006Y330982D01*
Y329149D01*
X329090Y328233D01*
X326341D01*
X331839Y326400D02*
X333672D01*
X332755D01*
Y331898D01*
X331839Y330982D01*
X455500Y469498D02*
X457333D01*
X456416D01*
Y464000D01*
X455500D01*
X457333D01*
X460082Y469498D02*
Y464000D01*
X462831D01*
X463747Y464916D01*
Y468582D01*
X462831Y469498D01*
X460082D01*
X465580D02*
Y465833D01*
X467413Y464000D01*
X469246Y465833D01*
Y469498D01*
X471078Y464000D02*
X472911D01*
X471995D01*
Y469498D01*
X471078Y468582D01*
X455100Y456498D02*
X456933D01*
X456016D01*
Y451000D01*
X455100D01*
X456933D01*
X459682D02*
Y454666D01*
X461515Y456498D01*
X463347Y454666D01*
Y451000D01*
Y453749D01*
X459682D01*
X465180Y456498D02*
Y452833D01*
X467013Y451000D01*
X468846Y452833D01*
Y456498D01*
X470678Y451000D02*
X472511D01*
X471595D01*
Y456498D01*
X470678Y455582D01*
X606000Y146998D02*
Y141500D01*
Y144249D01*
X609665D01*
Y146998D01*
Y141500D01*
X611498D02*
Y146998D01*
X614247D01*
X615164Y146082D01*
Y144249D01*
X614247Y143333D01*
X611498D01*
X620662Y146998D02*
X616996D01*
Y144249D01*
X618829Y145166D01*
X619746D01*
X620662Y144249D01*
Y142416D01*
X619746Y141500D01*
X617913D01*
X616996Y142416D01*
X625244Y146998D02*
X623411D01*
X622495Y146082D01*
Y142416D01*
X623411Y141500D01*
X625244D01*
X626160Y142416D01*
Y146082D01*
X625244Y146998D01*
X606000Y164498D02*
Y159000D01*
Y161749D01*
X609666D01*
Y164498D01*
Y159000D01*
X611498D02*
Y164498D01*
X614247D01*
X615164Y163582D01*
Y161749D01*
X614247Y160833D01*
X611498D01*
X620662Y164498D02*
X616996D01*
Y161749D01*
X618829Y162665D01*
X619746D01*
X620662Y161749D01*
Y159916D01*
X619746Y159000D01*
X617913D01*
X616996Y159916D01*
X622495Y164498D02*
X624328D01*
X623411D01*
Y159000D01*
X622495D01*
X624328D01*
X481900Y149398D02*
Y143900D01*
Y146649D01*
X485566D01*
Y149398D01*
Y143900D01*
X487398D02*
Y149398D01*
X490147D01*
X491064Y148482D01*
Y146649D01*
X490147Y145733D01*
X487398D01*
X495646Y143900D02*
Y149398D01*
X492896Y146649D01*
X496562D01*
X501144Y149398D02*
X499311D01*
X498395Y148482D01*
Y144816D01*
X499311Y143900D01*
X501144D01*
X502060Y144816D01*
Y148482D01*
X501144Y149398D01*
X482400Y164798D02*
Y159300D01*
Y162049D01*
X486065D01*
Y164798D01*
Y159300D01*
X487898D02*
Y164798D01*
X490647D01*
X491564Y163882D01*
Y162049D01*
X490647Y161133D01*
X487898D01*
X496146Y159300D02*
Y164798D01*
X493396Y162049D01*
X497062D01*
X498895Y164798D02*
X500727D01*
X499811D01*
Y159300D01*
X498895D01*
X500727D01*
X359200Y148398D02*
Y142900D01*
Y145649D01*
X362865D01*
Y148398D01*
Y142900D01*
X364698D02*
Y148398D01*
X367447D01*
X368364Y147482D01*
Y145649D01*
X367447Y144733D01*
X364698D01*
X370196Y147482D02*
X371113Y148398D01*
X372946D01*
X373862Y147482D01*
Y146565D01*
X372946Y145649D01*
X372029D01*
X372946D01*
X373862Y144733D01*
Y143816D01*
X372946Y142900D01*
X371113D01*
X370196Y143816D01*
X378444Y148398D02*
X376611D01*
X375695Y147482D01*
Y143816D01*
X376611Y142900D01*
X378444D01*
X379360Y143816D01*
Y147482D01*
X378444Y148398D01*
X359500Y164998D02*
Y159500D01*
Y162249D01*
X363165D01*
Y164998D01*
Y159500D01*
X364998D02*
Y164998D01*
X367747D01*
X368664Y164082D01*
Y162249D01*
X367747Y161333D01*
X364998D01*
X370497Y164082D02*
X371413Y164998D01*
X373246D01*
X374162Y164082D01*
Y163165D01*
X373246Y162249D01*
X372329D01*
X373246D01*
X374162Y161333D01*
Y160416D01*
X373246Y159500D01*
X371413D01*
X370497Y160416D01*
X375995Y164998D02*
X377827D01*
X376911D01*
Y159500D01*
X375995D01*
X377827D01*
X235600Y147998D02*
Y142500D01*
Y145249D01*
X239265D01*
Y147998D01*
Y142500D01*
X241098D02*
Y147998D01*
X243847D01*
X244764Y147082D01*
Y145249D01*
X243847Y144333D01*
X241098D01*
X250262Y142500D02*
X246596D01*
X250262Y146166D01*
Y147082D01*
X249346Y147998D01*
X247513D01*
X246596Y147082D01*
X254844Y147998D02*
X253011D01*
X252095Y147082D01*
Y143416D01*
X253011Y142500D01*
X254844D01*
X255760Y143416D01*
Y147082D01*
X254844Y147998D01*
X236100Y164998D02*
Y159500D01*
Y162249D01*
X239766D01*
Y164998D01*
Y159500D01*
X241598D02*
Y164998D01*
X244347D01*
X245264Y164082D01*
Y162249D01*
X244347Y161333D01*
X241598D01*
X250762Y159500D02*
X247096D01*
X250762Y163165D01*
Y164082D01*
X249846Y164998D01*
X248013D01*
X247096Y164082D01*
X252595Y164998D02*
X254427D01*
X253511D01*
Y159500D01*
X252595D01*
X254427D01*
X113100Y148198D02*
Y142700D01*
Y145449D01*
X116765D01*
Y148198D01*
Y142700D01*
X118598D02*
Y148198D01*
X121347D01*
X122264Y147282D01*
Y145449D01*
X121347Y144533D01*
X118598D01*
X124096Y142700D02*
X125929D01*
X125013D01*
Y148198D01*
X124096Y147282D01*
X131427Y148198D02*
X129595D01*
X128678Y147282D01*
Y143616D01*
X129595Y142700D01*
X131427D01*
X132344Y143616D01*
Y147282D01*
X131427Y148198D01*
X112800Y164598D02*
Y159100D01*
Y161849D01*
X116465D01*
Y164598D01*
Y159100D01*
X118298D02*
Y164598D01*
X121047D01*
X121964Y163682D01*
Y161849D01*
X121047Y160933D01*
X118298D01*
X123796Y159100D02*
X125629D01*
X124713D01*
Y164598D01*
X123796Y163682D01*
X128378Y164598D02*
X130211D01*
X129295D01*
Y159100D01*
X128378D01*
X130211D01*
X482118Y468998D02*
X478453D01*
Y463500D01*
X482118D01*
X478453Y466249D02*
X480286D01*
X483951Y468998D02*
Y463500D01*
X486700D01*
X487616Y464416D01*
Y468082D01*
X486700Y468998D01*
X483951D01*
X489449D02*
Y465333D01*
X491282Y463500D01*
X493115Y465333D01*
Y468998D01*
X494947Y463500D02*
X496780D01*
X495864D01*
Y468998D01*
X494947Y468082D01*
X482165Y455998D02*
X478500D01*
Y450500D01*
X482165D01*
X478500Y453249D02*
X480333D01*
X483998Y450500D02*
Y454166D01*
X485831Y455998D01*
X487664Y454166D01*
Y450500D01*
Y453249D01*
X483998D01*
X489496Y455998D02*
Y452333D01*
X491329Y450500D01*
X493162Y452333D01*
Y455998D01*
X494995Y450500D02*
X496827D01*
X495911D01*
Y455998D01*
X494995Y455082D01*
X407849Y287298D02*
X406016D01*
X405100Y286382D01*
Y282716D01*
X406016Y281800D01*
X407849D01*
X408766Y282716D01*
Y286382D01*
X407849Y287298D01*
X410598Y281800D02*
Y287298D01*
X413347D01*
X414264Y286382D01*
Y284549D01*
X413347Y283633D01*
X410598D01*
X416096Y286382D02*
X417013Y287298D01*
X418846D01*
X419762Y286382D01*
Y285466D01*
X418846Y284549D01*
X417929D01*
X418846D01*
X419762Y283633D01*
Y282716D01*
X418846Y281800D01*
X417013D01*
X416096Y282716D01*
X536349Y285298D02*
X534516D01*
X533600Y284382D01*
Y280716D01*
X534516Y279800D01*
X536349D01*
X537265Y280716D01*
Y284382D01*
X536349Y285298D01*
X539098Y279800D02*
Y285298D01*
X541847D01*
X542764Y284382D01*
Y282549D01*
X541847Y281633D01*
X539098D01*
X547346Y279800D02*
Y285298D01*
X544596Y282549D01*
X548262D01*
X318600Y230600D02*
Y236098D01*
X321349D01*
X322266Y235182D01*
Y233349D01*
X321349Y232433D01*
X318600D01*
X320433D02*
X322266Y230600D01*
X324098D02*
Y236098D01*
X326847D01*
X327764Y235182D01*
Y233349D01*
X326847Y232433D01*
X324098D01*
X333262Y230600D02*
X329596D01*
X333262Y234265D01*
Y235182D01*
X332346Y236098D01*
X330513D01*
X329596Y235182D01*
X338760Y230600D02*
X335095D01*
X338760Y234265D01*
Y235182D01*
X337844Y236098D01*
X336011D01*
X335095Y235182D01*
X290600Y230600D02*
Y236098D01*
X293349D01*
X294266Y235182D01*
Y233349D01*
X293349Y232433D01*
X290600D01*
X292433D02*
X294266Y230600D01*
X296098D02*
Y236098D01*
X298847D01*
X299764Y235182D01*
Y233349D01*
X298847Y232433D01*
X296098D01*
X305262Y230600D02*
X301596D01*
X305262Y234265D01*
Y235182D01*
X304346Y236098D01*
X302513D01*
X301596Y235182D01*
X307095Y230600D02*
X308927D01*
X308011D01*
Y236098D01*
X307095Y235182D01*
X246600Y209800D02*
Y215298D01*
X249349D01*
X250266Y214382D01*
Y212549D01*
X249349Y211633D01*
X246600D01*
X248433D02*
X250266Y209800D01*
X252098D02*
X253931D01*
X253015D01*
Y215298D01*
X252098Y214382D01*
X256680Y209800D02*
X258513D01*
X257596D01*
Y215298D01*
X256680Y214382D01*
X243100Y228700D02*
Y234198D01*
X245849D01*
X246765Y233282D01*
Y231449D01*
X245849Y230533D01*
X243100D01*
X244933D02*
X246765Y228700D01*
X248598D02*
X250431D01*
X249515D01*
Y234198D01*
X248598Y233282D01*
X256846Y228700D02*
X253180D01*
X256846Y232365D01*
Y233282D01*
X255929Y234198D01*
X254096D01*
X253180Y233282D01*
X225500Y210000D02*
Y215498D01*
X228249D01*
X229166Y214582D01*
Y212749D01*
X228249Y211833D01*
X225500D01*
X227333D02*
X229166Y210000D01*
X230998D02*
X232831D01*
X231915D01*
Y215498D01*
X230998Y214582D01*
X235580D02*
X236496Y215498D01*
X238329D01*
X239246Y214582D01*
Y213666D01*
X238329Y212749D01*
X237413D01*
X238329D01*
X239246Y211833D01*
Y210916D01*
X238329Y210000D01*
X236496D01*
X235580Y210916D01*
X443000Y230600D02*
Y236098D01*
X445749D01*
X446665Y235182D01*
Y233349D01*
X445749Y232433D01*
X443000D01*
X444833D02*
X446665Y230600D01*
X448498D02*
Y236098D01*
X451247D01*
X452164Y235182D01*
Y233349D01*
X451247Y232433D01*
X448498D01*
X453996Y235182D02*
X454913Y236098D01*
X456746D01*
X457662Y235182D01*
Y234265D01*
X456746Y233349D01*
X455829D01*
X456746D01*
X457662Y232433D01*
Y231516D01*
X456746Y230600D01*
X454913D01*
X453996Y231516D01*
X463160Y230600D02*
X459495D01*
X463160Y234265D01*
Y235182D01*
X462244Y236098D01*
X460411D01*
X459495Y235182D01*
X415200Y230600D02*
Y236098D01*
X417949D01*
X418865Y235182D01*
Y233349D01*
X417949Y232433D01*
X415200D01*
X417033D02*
X418865Y230600D01*
X420698D02*
Y236098D01*
X423447D01*
X424364Y235182D01*
Y233349D01*
X423447Y232433D01*
X420698D01*
X426196Y235182D02*
X427113Y236098D01*
X428946D01*
X429862Y235182D01*
Y234265D01*
X428946Y233349D01*
X428029D01*
X428946D01*
X429862Y232433D01*
Y231516D01*
X428946Y230600D01*
X427113D01*
X426196Y231516D01*
X431695Y230600D02*
X433527D01*
X432611D01*
Y236098D01*
X431695Y235182D01*
X369600Y209900D02*
Y215398D01*
X372349D01*
X373266Y214482D01*
Y212649D01*
X372349Y211733D01*
X369600D01*
X371433D02*
X373266Y209900D01*
X375098D02*
X376931D01*
X376015D01*
Y215398D01*
X375098Y214482D01*
X379680Y215398D02*
X383346D01*
Y214482D01*
X379680Y210816D01*
Y209900D01*
X369100Y227500D02*
Y232998D01*
X371849D01*
X372765Y232082D01*
Y230249D01*
X371849Y229333D01*
X369100D01*
X370933D02*
X372765Y227500D01*
X374598D02*
X376431D01*
X375515D01*
Y232998D01*
X374598Y232082D01*
X379180D02*
X380096Y232998D01*
X381929D01*
X382846Y232082D01*
Y231166D01*
X381929Y230249D01*
X382846Y229333D01*
Y228416D01*
X381929Y227500D01*
X380096D01*
X379180Y228416D01*
Y229333D01*
X380096Y230249D01*
X379180Y231166D01*
Y232082D01*
X380096Y230249D02*
X381929D01*
X349600Y209900D02*
Y215398D01*
X352349D01*
X353266Y214482D01*
Y212649D01*
X352349Y211733D01*
X349600D01*
X351433D02*
X353266Y209900D01*
X355098D02*
X356931D01*
X356015D01*
Y215398D01*
X355098Y214482D01*
X359680Y210816D02*
X360596Y209900D01*
X362429D01*
X363346Y210816D01*
Y214482D01*
X362429Y215398D01*
X360596D01*
X359680Y214482D01*
Y213565D01*
X360596Y212649D01*
X363346D01*
X567600Y230100D02*
Y235598D01*
X570349D01*
X571266Y234682D01*
Y232849D01*
X570349Y231933D01*
X567600D01*
X569433D02*
X571266Y230100D01*
X573098D02*
Y235598D01*
X575847D01*
X576764Y234682D01*
Y232849D01*
X575847Y231933D01*
X573098D01*
X581346Y230100D02*
Y235598D01*
X578596Y232849D01*
X582262D01*
X587760Y230100D02*
X584095D01*
X587760Y233766D01*
Y234682D01*
X586844Y235598D01*
X585011D01*
X584095Y234682D01*
X540100Y230100D02*
Y235598D01*
X542849D01*
X543765Y234682D01*
Y232849D01*
X542849Y231933D01*
X540100D01*
X541933D02*
X543765Y230100D01*
X545598D02*
Y235598D01*
X548347D01*
X549264Y234682D01*
Y232849D01*
X548347Y231933D01*
X545598D01*
X553846Y230100D02*
Y235598D01*
X551096Y232849D01*
X554762D01*
X556595Y230100D02*
X558427D01*
X557511D01*
Y235598D01*
X556595Y234682D01*
X496100Y209900D02*
Y215398D01*
X498849D01*
X499765Y214482D01*
Y212649D01*
X498849Y211733D01*
X496100D01*
X497933D02*
X499765Y209900D01*
X505264D02*
X501598D01*
X505264Y213565D01*
Y214482D01*
X504347Y215398D01*
X502515D01*
X501598Y214482D01*
X507096D02*
X508013Y215398D01*
X509846D01*
X510762Y214482D01*
Y213565D01*
X509846Y212649D01*
X508929D01*
X509846D01*
X510762Y211733D01*
Y210816D01*
X509846Y209900D01*
X508013D01*
X507096Y210816D01*
X496500Y228200D02*
Y233698D01*
X499249D01*
X500166Y232782D01*
Y230949D01*
X499249Y230033D01*
X496500D01*
X498333D02*
X500166Y228200D01*
X505664D02*
X501998D01*
X505664Y231866D01*
Y232782D01*
X504747Y233698D01*
X502915D01*
X501998Y232782D01*
X510246Y228200D02*
Y233698D01*
X507496Y230949D01*
X511162D01*
X475600Y209900D02*
Y215398D01*
X478349D01*
X479265Y214482D01*
Y212649D01*
X478349Y211733D01*
X475600D01*
X477433D02*
X479265Y209900D01*
X484764D02*
X481098D01*
X484764Y213565D01*
Y214482D01*
X483847Y215398D01*
X482015D01*
X481098Y214482D01*
X490262Y215398D02*
X486596D01*
Y212649D01*
X488429Y213565D01*
X489346D01*
X490262Y212649D01*
Y210816D01*
X489346Y209900D01*
X487513D01*
X486596Y210816D01*
X691800Y230100D02*
Y235598D01*
X694549D01*
X695466Y234682D01*
Y232849D01*
X694549Y231933D01*
X691800D01*
X693633D02*
X695466Y230100D01*
X697298D02*
Y235598D01*
X700047D01*
X700964Y234682D01*
Y232849D01*
X700047Y231933D01*
X697298D01*
X706462Y235598D02*
X702796D01*
Y232849D01*
X704629Y233766D01*
X705546D01*
X706462Y232849D01*
Y231016D01*
X705546Y230100D01*
X703713D01*
X702796Y231016D01*
X711960Y230100D02*
X708295D01*
X711960Y233766D01*
Y234682D01*
X711044Y235598D01*
X709211D01*
X708295Y234682D01*
X664600Y230100D02*
Y235598D01*
X667349D01*
X668265Y234682D01*
Y232849D01*
X667349Y231933D01*
X664600D01*
X666433D02*
X668265Y230100D01*
X670098D02*
Y235598D01*
X672847D01*
X673764Y234682D01*
Y232849D01*
X672847Y231933D01*
X670098D01*
X679262Y235598D02*
X675596D01*
Y232849D01*
X677429Y233766D01*
X678346D01*
X679262Y232849D01*
Y231016D01*
X678346Y230100D01*
X676513D01*
X675596Y231016D01*
X681095Y230100D02*
X682927D01*
X682011D01*
Y235598D01*
X681095Y234682D01*
X619553Y209900D02*
Y215398D01*
X622302D01*
X623218Y214482D01*
Y212649D01*
X622302Y211733D01*
X619553D01*
X621385D02*
X623218Y209900D01*
X628717D02*
X625051D01*
X628717Y213565D01*
Y214482D01*
X627800Y215398D01*
X625967D01*
X625051Y214482D01*
X630549Y210816D02*
X631466Y209900D01*
X633298D01*
X634215Y210816D01*
Y214482D01*
X633298Y215398D01*
X631466D01*
X630549Y214482D01*
Y213565D01*
X631466Y212649D01*
X634215D01*
X619600Y228900D02*
Y234398D01*
X622349D01*
X623266Y233482D01*
Y231649D01*
X622349Y230733D01*
X619600D01*
X621433D02*
X623266Y228900D01*
X625098Y233482D02*
X626015Y234398D01*
X627847D01*
X628764Y233482D01*
Y232565D01*
X627847Y231649D01*
X626931D01*
X627847D01*
X628764Y230733D01*
Y229816D01*
X627847Y228900D01*
X626015D01*
X625098Y229816D01*
X630596Y233482D02*
X631513Y234398D01*
X633346D01*
X634262Y233482D01*
Y229816D01*
X633346Y228900D01*
X631513D01*
X630596Y229816D01*
Y233482D01*
X597100Y209900D02*
Y215398D01*
X599849D01*
X600765Y214482D01*
Y212649D01*
X599849Y211733D01*
X597100D01*
X598933D02*
X600765Y209900D01*
X602598Y214482D02*
X603514Y215398D01*
X605347D01*
X606264Y214482D01*
Y213565D01*
X605347Y212649D01*
X604431D01*
X605347D01*
X606264Y211733D01*
Y210816D01*
X605347Y209900D01*
X603514D01*
X602598Y210816D01*
X608096Y209900D02*
X609929D01*
X609013D01*
Y215398D01*
X608096Y214482D01*
X229265Y195482D02*
X228349Y196398D01*
X226516D01*
X225600Y195482D01*
Y191816D01*
X226516Y190900D01*
X228349D01*
X229265Y191816D01*
X231098Y190900D02*
X232931D01*
X232015D01*
Y196398D01*
X231098Y195482D01*
X239346Y190900D02*
X235680D01*
X239346Y194565D01*
Y195482D01*
X238429Y196398D01*
X236596D01*
X235680Y195482D01*
X226866Y234482D02*
X225949Y235398D01*
X224116D01*
X223200Y234482D01*
Y230816D01*
X224116Y229900D01*
X225949D01*
X226866Y230816D01*
X228698Y229900D02*
X230531D01*
X229615D01*
Y235398D01*
X228698Y234482D01*
X233280D02*
X234196Y235398D01*
X236029D01*
X236946Y234482D01*
Y233565D01*
X236029Y232649D01*
X235113D01*
X236029D01*
X236946Y231733D01*
Y230816D01*
X236029Y229900D01*
X234196D01*
X233280Y230816D01*
X249365Y196382D02*
X248449Y197298D01*
X246616D01*
X245700Y196382D01*
Y192716D01*
X246616Y191800D01*
X248449D01*
X249365Y192716D01*
X251198Y191800D02*
X253031D01*
X252115D01*
Y197298D01*
X251198Y196382D01*
X258529Y191800D02*
Y197298D01*
X255780Y194549D01*
X259446D01*
X353266Y195482D02*
X352349Y196398D01*
X350516D01*
X349600Y195482D01*
Y191816D01*
X350516Y190900D01*
X352349D01*
X353266Y191816D01*
X355098Y190900D02*
X356931D01*
X356015D01*
Y196398D01*
X355098Y195482D01*
X363346Y196398D02*
X359680D01*
Y193649D01*
X361513Y194565D01*
X362429D01*
X363346Y193649D01*
Y191816D01*
X362429Y190900D01*
X360596D01*
X359680Y191816D01*
X351365Y234182D02*
X350449Y235098D01*
X348616D01*
X347700Y234182D01*
Y230516D01*
X348616Y229600D01*
X350449D01*
X351365Y230516D01*
X353198Y229600D02*
X355031D01*
X354115D01*
Y235098D01*
X353198Y234182D01*
X361446Y235098D02*
X359613Y234182D01*
X357780Y232349D01*
Y230516D01*
X358696Y229600D01*
X360529D01*
X361446Y230516D01*
Y231433D01*
X360529Y232349D01*
X357780D01*
X373266Y195482D02*
X372349Y196398D01*
X370516D01*
X369600Y195482D01*
Y191816D01*
X370516Y190900D01*
X372349D01*
X373266Y191816D01*
X375098Y190900D02*
X376931D01*
X376015D01*
Y196398D01*
X375098Y195482D01*
X379680Y196398D02*
X383346D01*
Y195482D01*
X379680Y191816D01*
Y190900D01*
X479265Y195482D02*
X478349Y196398D01*
X476516D01*
X475600Y195482D01*
Y191816D01*
X476516Y190900D01*
X478349D01*
X479265Y191816D01*
X481098Y190900D02*
X482931D01*
X482015D01*
Y196398D01*
X481098Y195482D01*
X485680D02*
X486596Y196398D01*
X488429D01*
X489346Y195482D01*
Y194565D01*
X488429Y193649D01*
X489346Y192733D01*
Y191816D01*
X488429Y190900D01*
X486596D01*
X485680Y191816D01*
Y192733D01*
X486596Y193649D01*
X485680Y194565D01*
Y195482D01*
X486596Y193649D02*
X488429D01*
X479265Y233482D02*
X478349Y234398D01*
X476516D01*
X475600Y233482D01*
Y229816D01*
X476516Y228900D01*
X478349D01*
X479265Y229816D01*
X481098Y228900D02*
X482931D01*
X482015D01*
Y234398D01*
X481098Y233482D01*
X485680Y229816D02*
X486596Y228900D01*
X488429D01*
X489346Y229816D01*
Y233482D01*
X488429Y234398D01*
X486596D01*
X485680Y233482D01*
Y232565D01*
X486596Y231649D01*
X489346D01*
X499566Y196682D02*
X498649Y197598D01*
X496816D01*
X495900Y196682D01*
Y193016D01*
X496816Y192100D01*
X498649D01*
X499566Y193016D01*
X505064Y192100D02*
X501398D01*
X505064Y195765D01*
Y196682D01*
X504147Y197598D01*
X502315D01*
X501398Y196682D01*
X506896D02*
X507813Y197598D01*
X509646D01*
X510562Y196682D01*
Y193016D01*
X509646Y192100D01*
X507813D01*
X506896Y193016D01*
Y196682D01*
X600766Y195482D02*
X599849Y196398D01*
X598016D01*
X597100Y195482D01*
Y191816D01*
X598016Y190900D01*
X599849D01*
X600766Y191816D01*
X606264Y190900D02*
X602598D01*
X606264Y194565D01*
Y195482D01*
X605347Y196398D01*
X603515D01*
X602598Y195482D01*
X608096Y190900D02*
X609929D01*
X609013D01*
Y196398D01*
X608096Y195482D01*
X600766Y233482D02*
X599849Y234398D01*
X598016D01*
X597100Y233482D01*
Y229816D01*
X598016Y228900D01*
X599849D01*
X600766Y229816D01*
X606264Y228900D02*
X602598D01*
X606264Y232565D01*
Y233482D01*
X605347Y234398D01*
X603515D01*
X602598Y233482D01*
X611762Y228900D02*
X608096D01*
X611762Y232565D01*
Y233482D01*
X610846Y234398D01*
X609013D01*
X608096Y233482D01*
X623266Y195482D02*
X622349Y196398D01*
X620516D01*
X619600Y195482D01*
Y191816D01*
X620516Y190900D01*
X622349D01*
X623266Y191816D01*
X628764Y190900D02*
X625098D01*
X628764Y194565D01*
Y195482D01*
X627847Y196398D01*
X626015D01*
X625098Y195482D01*
X630596D02*
X631513Y196398D01*
X633346D01*
X634262Y195482D01*
Y194565D01*
X633346Y193649D01*
X632429D01*
X633346D01*
X634262Y192733D01*
Y191816D01*
X633346Y190900D01*
X631513D01*
X630596Y191816D01*
X143349Y288298D02*
X141516D01*
X140600Y287382D01*
Y283716D01*
X141516Y282800D01*
X143349D01*
X144265Y283716D01*
Y287382D01*
X143349Y288298D01*
X146098Y282800D02*
Y288298D01*
X148847D01*
X149764Y287382D01*
Y285549D01*
X148847Y284633D01*
X146098D01*
X151596Y282800D02*
X153429D01*
X152513D01*
Y288298D01*
X151596Y287382D01*
X107100Y209900D02*
Y215398D01*
X109849D01*
X110766Y214482D01*
Y212649D01*
X109849Y211733D01*
X107100D01*
X108933D02*
X110766Y209900D01*
X112598Y215398D02*
X116264D01*
Y214482D01*
X112598Y210816D01*
Y209900D01*
X124900Y230700D02*
Y236198D01*
X127649D01*
X128566Y235282D01*
Y233449D01*
X127649Y232533D01*
X124900D01*
X126733D02*
X128566Y230700D01*
X134064Y236198D02*
X130398D01*
Y233449D01*
X132231Y234366D01*
X133147D01*
X134064Y233449D01*
Y231616D01*
X133147Y230700D01*
X131315D01*
X130398Y231616D01*
X122500Y209500D02*
Y214998D01*
X125249D01*
X126165Y214082D01*
Y212249D01*
X125249Y211333D01*
X122500D01*
X124333D02*
X126165Y209500D01*
X130747D02*
Y214998D01*
X127998Y212249D01*
X131664D01*
X193800Y230600D02*
Y236098D01*
X196549D01*
X197466Y235182D01*
Y233349D01*
X196549Y232433D01*
X193800D01*
X195633D02*
X197466Y230600D01*
X199298D02*
Y236098D01*
X202047D01*
X202964Y235182D01*
Y233349D01*
X202047Y232433D01*
X199298D01*
X204796Y230600D02*
X206629D01*
X205713D01*
Y236098D01*
X204796Y235182D01*
X213044Y230600D02*
X209378D01*
X213044Y234265D01*
Y235182D01*
X212127Y236098D01*
X210295D01*
X209378Y235182D01*
X166500Y230500D02*
Y235998D01*
X169249D01*
X170166Y235082D01*
Y233249D01*
X169249Y232333D01*
X166500D01*
X168333D02*
X170166Y230500D01*
X171998D02*
Y235998D01*
X174747D01*
X175664Y235082D01*
Y233249D01*
X174747Y232333D01*
X171998D01*
X177496Y230500D02*
X179329D01*
X178413D01*
Y235998D01*
X177496Y235082D01*
X182078Y230500D02*
X183911D01*
X182995D01*
Y235998D01*
X182078Y235082D01*
X126766Y195482D02*
X125849Y196398D01*
X124016D01*
X123100Y195482D01*
Y191816D01*
X124016Y190900D01*
X125849D01*
X126766Y191816D01*
X128598Y190900D02*
X130431D01*
X129515D01*
Y196398D01*
X128598Y195482D01*
X133180Y190900D02*
X135013D01*
X134096D01*
Y196398D01*
X133180Y195482D01*
X109065Y235582D02*
X108149Y236498D01*
X106316D01*
X105400Y235582D01*
Y231916D01*
X106316Y231000D01*
X108149D01*
X109065Y231916D01*
X110898Y231000D02*
X112731D01*
X111815D01*
Y236498D01*
X110898Y235582D01*
X115480D02*
X116396Y236498D01*
X118229D01*
X119146Y235582D01*
Y231916D01*
X118229Y231000D01*
X116396D01*
X115480Y231916D01*
Y235582D01*
X110766Y195482D02*
X109849Y196398D01*
X108016D01*
X107100Y195482D01*
Y191816D01*
X108016Y190900D01*
X109849D01*
X110766Y191816D01*
X112598D02*
X113515Y190900D01*
X115347D01*
X116264Y191816D01*
Y195482D01*
X115347Y196398D01*
X113515D01*
X112598Y195482D01*
Y194565D01*
X113515Y193649D01*
X116264D01*
X182100Y474900D02*
Y480398D01*
X184849D01*
X185766Y479482D01*
Y477649D01*
X184849Y476733D01*
X182100D01*
X191264Y479482D02*
X190347Y480398D01*
X188515D01*
X187598Y479482D01*
Y475816D01*
X188515Y474900D01*
X190347D01*
X191264Y475816D01*
X193096Y474900D02*
X194929D01*
X194013D01*
Y480398D01*
X193096Y479482D01*
X191500Y446500D02*
Y451998D01*
X194249D01*
X195166Y451082D01*
Y449249D01*
X194249Y448333D01*
X191500D01*
X196998Y446500D02*
Y451998D01*
X198831Y450166D01*
X200664Y451998D01*
Y446500D01*
X202496D02*
X204329D01*
X203413D01*
Y451998D01*
X202496Y451082D01*
X388600Y447400D02*
Y452898D01*
X391349D01*
X392266Y451982D01*
Y450149D01*
X391349Y449233D01*
X388600D01*
X394098Y447400D02*
Y452898D01*
X395931Y451065D01*
X397764Y452898D01*
Y447400D01*
X403262D02*
X399596D01*
X403262Y451065D01*
Y451982D01*
X402346Y452898D01*
X400513D01*
X399596Y451982D01*
X233265Y361482D02*
X232349Y362398D01*
X230516D01*
X229600Y361482D01*
Y357816D01*
X230516Y356900D01*
X232349D01*
X233265Y357816D01*
X235098Y356900D02*
X236931D01*
X236015D01*
Y362398D01*
X235098Y361482D01*
X125527Y377982D02*
X124611Y378898D01*
X122778D01*
X121862Y377982D01*
Y374316D01*
X122778Y373400D01*
X124611D01*
X125527Y374316D01*
X130109Y373400D02*
Y378898D01*
X127360Y376149D01*
X131026D01*
X140277Y377982D02*
X139361Y378898D01*
X137528D01*
X136612Y377982D01*
Y374316D01*
X137528Y373400D01*
X139361D01*
X140277Y374316D01*
X145775Y378898D02*
X142110D01*
Y376149D01*
X143943Y377065D01*
X144859D01*
X145775Y376149D01*
Y374316D01*
X144859Y373400D01*
X143026D01*
X142110Y374316D01*
X448166Y376332D02*
X447249Y377248D01*
X445416D01*
X444500Y376332D01*
Y372666D01*
X445416Y371750D01*
X447249D01*
X448166Y372666D01*
X453664Y377248D02*
X451831Y376332D01*
X449998Y374499D01*
Y372666D01*
X450915Y371750D01*
X452747D01*
X453664Y372666D01*
Y373583D01*
X452747Y374499D01*
X449998D01*
X484201Y334399D02*
X483701Y333899D01*
Y332900D01*
X484201Y332400D01*
X486200D01*
X486700Y332900D01*
Y333899D01*
X486200Y334399D01*
X486700Y335399D02*
Y336399D01*
Y335899D01*
X483701D01*
X484201Y335399D01*
Y337898D02*
X483701Y338398D01*
Y339398D01*
X484201Y339897D01*
X486200D01*
X486700Y339398D01*
Y338398D01*
X486200Y337898D01*
X484201D01*
Y340897D02*
X483701Y341397D01*
Y342397D01*
X484201Y342896D01*
X486200D01*
X486700Y342397D01*
Y341397D01*
X486200Y340897D01*
X484201D01*
X511301Y333799D02*
X510801Y333299D01*
Y332300D01*
X511301Y331800D01*
X513300D01*
X513800Y332300D01*
Y333299D01*
X513300Y333799D01*
X513800Y334799D02*
Y335799D01*
Y335299D01*
X510801D01*
X511301Y334799D01*
Y337298D02*
X510801Y337798D01*
Y338798D01*
X511301Y339298D01*
X513300D01*
X513800Y338798D01*
Y337798D01*
X513300Y337298D01*
X511301D01*
X513800Y342297D02*
Y340297D01*
X511801Y342297D01*
X511301D01*
X510801Y341797D01*
Y340797D01*
X511301Y340297D01*
X263165Y443582D02*
X262249Y444498D01*
X260416D01*
X259500Y443582D01*
Y439916D01*
X260416Y439000D01*
X262249D01*
X263165Y439916D01*
X264998Y439000D02*
X266831D01*
X265915D01*
Y444498D01*
X264998Y443582D01*
X269580D02*
X270496Y444498D01*
X272329D01*
X273246Y443582D01*
Y439916D01*
X272329Y439000D01*
X270496D01*
X269580Y439916D01*
Y443582D01*
X275078D02*
X275995Y444498D01*
X277827D01*
X278744Y443582D01*
Y442665D01*
X277827Y441749D01*
X276911D01*
X277827D01*
X278744Y440833D01*
Y439916D01*
X277827Y439000D01*
X275995D01*
X275078Y439916D01*
X289165Y443582D02*
X288249Y444498D01*
X286416D01*
X285500Y443582D01*
Y439916D01*
X286416Y439000D01*
X288249D01*
X289165Y439916D01*
X290998Y439000D02*
X292831D01*
X291915D01*
Y444498D01*
X290998Y443582D01*
X295580D02*
X296496Y444498D01*
X298329D01*
X299246Y443582D01*
Y439916D01*
X298329Y439000D01*
X296496D01*
X295580Y439916D01*
Y443582D01*
X303827Y439000D02*
Y444498D01*
X301078Y441749D01*
X304744D01*
X263165Y429082D02*
X262249Y429998D01*
X260416D01*
X259500Y429082D01*
Y425416D01*
X260416Y424500D01*
X262249D01*
X263165Y425416D01*
X264998Y424500D02*
X266831D01*
X265915D01*
Y429998D01*
X264998Y429082D01*
X269580D02*
X270496Y429998D01*
X272329D01*
X273246Y429082D01*
Y425416D01*
X272329Y424500D01*
X270496D01*
X269580Y425416D01*
Y429082D01*
X278744Y429998D02*
X275078D01*
Y427249D01*
X276911Y428165D01*
X277827D01*
X278744Y427249D01*
Y425416D01*
X277827Y424500D01*
X275995D01*
X275078Y425416D01*
X574499Y451299D02*
X573999Y451799D01*
X573000D01*
X572500Y451299D01*
Y449300D01*
X573000Y448800D01*
X573999D01*
X574499Y449300D01*
X575499Y448800D02*
X576499D01*
X575999D01*
Y451799D01*
X575499Y451299D01*
X577998D02*
X578498Y451799D01*
X579497D01*
X579997Y451299D01*
Y449300D01*
X579497Y448800D01*
X578498D01*
X577998Y449300D01*
Y451299D01*
X582996Y451799D02*
X581997Y451299D01*
X580997Y450300D01*
Y449300D01*
X581497Y448800D01*
X582497D01*
X582996Y449300D01*
Y449800D01*
X582497Y450300D01*
X580997D01*
X574499Y437499D02*
X574000Y437999D01*
X573000D01*
X572500Y437499D01*
Y435500D01*
X573000Y435000D01*
X574000D01*
X574499Y435500D01*
X575499Y435000D02*
X576499D01*
X575999D01*
Y437999D01*
X575499Y437499D01*
X577998D02*
X578498Y437999D01*
X579498D01*
X579998Y437499D01*
Y435500D01*
X579498Y435000D01*
X578498D01*
X577998Y435500D01*
Y437499D01*
X580997Y437999D02*
X582997D01*
Y437499D01*
X580997Y435500D01*
Y435000D01*
X574499Y423699D02*
X573999Y424199D01*
X573000D01*
X572500Y423699D01*
Y421700D01*
X573000Y421200D01*
X573999D01*
X574499Y421700D01*
X575499Y421200D02*
X576499D01*
X575999D01*
Y424199D01*
X575499Y423699D01*
X577998D02*
X578498Y424199D01*
X579497D01*
X579997Y423699D01*
Y421700D01*
X579497Y421200D01*
X578498D01*
X577998Y421700D01*
Y423699D01*
X580997D02*
X581497Y424199D01*
X582497D01*
X582996Y423699D01*
Y423199D01*
X582497Y422699D01*
X582996Y422200D01*
Y421700D01*
X582497Y421200D01*
X581497D01*
X580997Y421700D01*
Y422200D01*
X581497Y422699D01*
X580997Y423199D01*
Y423699D01*
X581497Y422699D02*
X582497D01*
X347465Y429082D02*
X346549Y429998D01*
X344716D01*
X343800Y429082D01*
Y425416D01*
X344716Y424500D01*
X346549D01*
X347465Y425416D01*
X349298Y424500D02*
X351131D01*
X350215D01*
Y429998D01*
X349298Y429082D01*
X353880D02*
X354796Y429998D01*
X356629D01*
X357546Y429082D01*
Y425416D01*
X356629Y424500D01*
X354796D01*
X353880Y425416D01*
Y429082D01*
X359378Y425416D02*
X360295Y424500D01*
X362127D01*
X363044Y425416D01*
Y429082D01*
X362127Y429998D01*
X360295D01*
X359378Y429082D01*
Y428165D01*
X360295Y427249D01*
X363044D01*
X318266Y451482D02*
X317349Y452398D01*
X315516D01*
X314600Y451482D01*
Y447816D01*
X315516Y446900D01*
X317349D01*
X318266Y447816D01*
X320098Y446900D02*
X321931D01*
X321015D01*
Y452398D01*
X320098Y451482D01*
X324680Y446900D02*
X326513D01*
X325596D01*
Y452398D01*
X324680Y451482D01*
X329262D02*
X330178Y452398D01*
X332011D01*
X332927Y451482D01*
Y447816D01*
X332011Y446900D01*
X330178D01*
X329262Y447816D01*
Y451482D01*
X347165Y443582D02*
X346249Y444498D01*
X344416D01*
X343500Y443582D01*
Y439916D01*
X344416Y439000D01*
X346249D01*
X347165Y439916D01*
X348998Y439000D02*
X350831D01*
X349915D01*
Y444498D01*
X348998Y443582D01*
X353580Y439000D02*
X355413D01*
X354496D01*
Y444498D01*
X353580Y443582D01*
X358162Y439000D02*
X359995D01*
X359078D01*
Y444498D01*
X358162Y443582D01*
X318165Y315582D02*
X317249Y316498D01*
X315416D01*
X314500Y315582D01*
Y311916D01*
X315416Y311000D01*
X317249D01*
X318165Y311916D01*
X319998Y311000D02*
X321831D01*
X320915D01*
Y316498D01*
X319998Y315582D01*
X324580Y311000D02*
X326413D01*
X325496D01*
Y316498D01*
X324580Y315582D01*
X332827Y311000D02*
X329162D01*
X332827Y314666D01*
Y315582D01*
X331911Y316498D01*
X330078D01*
X329162Y315582D01*
X251466Y315882D02*
X250549Y316798D01*
X248716D01*
X247800Y315882D01*
Y312216D01*
X248716Y311300D01*
X250549D01*
X251466Y312216D01*
X253298Y311300D02*
X255131D01*
X254215D01*
Y316798D01*
X253298Y315882D01*
X257880Y311300D02*
X259713D01*
X258796D01*
Y316798D01*
X257880Y315882D01*
X262462D02*
X263378Y316798D01*
X265211D01*
X266127Y315882D01*
Y314966D01*
X265211Y314049D01*
X264295D01*
X265211D01*
X266127Y313133D01*
Y312216D01*
X265211Y311300D01*
X263378D01*
X262462Y312216D01*
X251665Y330582D02*
X250749Y331498D01*
X248916D01*
X248000Y330582D01*
Y326916D01*
X248916Y326000D01*
X250749D01*
X251665Y326916D01*
X253498Y326000D02*
X255331D01*
X254415D01*
Y331498D01*
X253498Y330582D01*
X258080Y326000D02*
X259913D01*
X258996D01*
Y331498D01*
X258080Y330582D01*
X265411Y326000D02*
Y331498D01*
X262662Y328749D01*
X266327D01*
X317266Y439082D02*
X316349Y439998D01*
X314516D01*
X313600Y439082D01*
Y435416D01*
X314516Y434500D01*
X316349D01*
X317266Y435416D01*
X319098Y434500D02*
X320931D01*
X320015D01*
Y439998D01*
X319098Y439082D01*
X323680Y434500D02*
X325513D01*
X324596D01*
Y439998D01*
X323680Y439082D01*
X331927Y439998D02*
X328262D01*
Y437249D01*
X330095Y438166D01*
X331011D01*
X331927Y437249D01*
Y435416D01*
X331011Y434500D01*
X329178D01*
X328262Y435416D01*
X234166Y428082D02*
X233249Y428998D01*
X231416D01*
X230500Y428082D01*
Y424416D01*
X231416Y423500D01*
X233249D01*
X234166Y424416D01*
X235998Y423500D02*
X237831D01*
X236915D01*
Y428998D01*
X235998Y428082D01*
X240580Y423500D02*
X242413D01*
X241496D01*
Y428998D01*
X240580Y428082D01*
X248827Y428998D02*
X246995Y428082D01*
X245162Y426249D01*
Y424416D01*
X246078Y423500D01*
X247911D01*
X248827Y424416D01*
Y425333D01*
X247911Y426249D01*
X245162D01*
X348165Y393415D02*
X347249Y394332D01*
X345416D01*
X344500Y393415D01*
Y389750D01*
X345416Y388833D01*
X347249D01*
X348165Y389750D01*
X349998Y388833D02*
X351831D01*
X350915D01*
Y394332D01*
X349998Y393415D01*
X354580Y388833D02*
X356413D01*
X355496D01*
Y394332D01*
X354580Y393415D01*
X359162Y394332D02*
X362827D01*
Y393415D01*
X359162Y389750D01*
Y388833D01*
X318566Y393682D02*
X317649Y394598D01*
X315816D01*
X314900Y393682D01*
Y390016D01*
X315816Y389100D01*
X317649D01*
X318566Y390016D01*
X320398Y389100D02*
X322231D01*
X321315D01*
Y394598D01*
X320398Y393682D01*
X324980Y389100D02*
X326813D01*
X325896D01*
Y394598D01*
X324980Y393682D01*
X329562D02*
X330478Y394598D01*
X332311D01*
X333227Y393682D01*
Y392765D01*
X332311Y391849D01*
X333227Y390933D01*
Y390016D01*
X332311Y389100D01*
X330478D01*
X329562Y390016D01*
Y390933D01*
X330478Y391849D01*
X329562Y392765D01*
Y393682D01*
X330478Y391849D02*
X332311D01*
X347666Y377082D02*
X346749Y377998D01*
X344916D01*
X344000Y377082D01*
Y373416D01*
X344916Y372500D01*
X346749D01*
X347666Y373416D01*
X349498Y372500D02*
X351331D01*
X350415D01*
Y377998D01*
X349498Y377082D01*
X354080Y372500D02*
X355913D01*
X354996D01*
Y377998D01*
X354080Y377082D01*
X358662Y373416D02*
X359578Y372500D01*
X361411D01*
X362327Y373416D01*
Y377082D01*
X361411Y377998D01*
X359578D01*
X358662Y377082D01*
Y376166D01*
X359578Y375249D01*
X362327D01*
X289165Y348082D02*
X288249Y348998D01*
X286416D01*
X285500Y348082D01*
Y344416D01*
X286416Y343500D01*
X288249D01*
X289165Y344416D01*
X290998Y343500D02*
X292831D01*
X291915D01*
Y348998D01*
X290998Y348082D01*
X299246Y343500D02*
X295580D01*
X299246Y347165D01*
Y348082D01*
X298329Y348998D01*
X296496D01*
X295580Y348082D01*
X301078D02*
X301995Y348998D01*
X303827D01*
X304744Y348082D01*
Y344416D01*
X303827Y343500D01*
X301995D01*
X301078Y344416D01*
Y348082D01*
X288366Y363182D02*
X287449Y364098D01*
X285616D01*
X284700Y363182D01*
Y359516D01*
X285616Y358600D01*
X287449D01*
X288366Y359516D01*
X290198Y358600D02*
X292031D01*
X291115D01*
Y364098D01*
X290198Y363182D01*
X298446Y358600D02*
X294780D01*
X298446Y362265D01*
Y363182D01*
X297529Y364098D01*
X295696D01*
X294780Y363182D01*
X300278Y358600D02*
X302111D01*
X301195D01*
Y364098D01*
X300278Y363182D01*
X318154Y361582D02*
X317237Y362498D01*
X315405D01*
X314488Y361582D01*
Y357916D01*
X315405Y357000D01*
X317237D01*
X318154Y357916D01*
X319986Y357000D02*
X321819D01*
X320903D01*
Y362498D01*
X319986Y361582D01*
X328234Y357000D02*
X324568D01*
X328234Y360665D01*
Y361582D01*
X327317Y362498D01*
X325485D01*
X324568Y361582D01*
X333732Y357000D02*
X330066D01*
X333732Y360665D01*
Y361582D01*
X332816Y362498D01*
X330983D01*
X330066Y361582D01*
X318666Y347082D02*
X317749Y347998D01*
X315916D01*
X315000Y347082D01*
Y343416D01*
X315916Y342500D01*
X317749D01*
X318666Y343416D01*
X320498Y342500D02*
X322331D01*
X321415D01*
Y347998D01*
X320498Y347082D01*
X328746Y342500D02*
X325080D01*
X328746Y346165D01*
Y347082D01*
X327829Y347998D01*
X325996D01*
X325080Y347082D01*
X334244Y347998D02*
X330578D01*
Y345249D01*
X332411Y346165D01*
X333327D01*
X334244Y345249D01*
Y343416D01*
X333327Y342500D01*
X331495D01*
X330578Y343416D01*
X393421Y312082D02*
X392505Y312998D01*
X390672D01*
X389756Y312082D01*
Y308416D01*
X390672Y307500D01*
X392505D01*
X393421Y308416D01*
X395254Y307500D02*
X397087D01*
X396170D01*
Y312998D01*
X395254Y312082D01*
X403502Y307500D02*
X399836D01*
X403502Y311165D01*
Y312082D01*
X402585Y312998D01*
X400752D01*
X399836Y312082D01*
X409000Y312998D02*
X407167Y312082D01*
X405334Y310249D01*
Y308416D01*
X406251Y307500D01*
X408083D01*
X409000Y308416D01*
Y309333D01*
X408083Y310249D01*
X405334D01*
X393165Y329082D02*
X392249Y329998D01*
X390416D01*
X389500Y329082D01*
Y325416D01*
X390416Y324500D01*
X392249D01*
X393165Y325416D01*
X394998Y324500D02*
X396831D01*
X395915D01*
Y329998D01*
X394998Y329082D01*
X403246Y324500D02*
X399580D01*
X403246Y328166D01*
Y329082D01*
X402329Y329998D01*
X400496D01*
X399580Y329082D01*
X405078Y329998D02*
X408744D01*
Y329082D01*
X405078Y325416D01*
Y324500D01*
X369165Y320082D02*
X368249Y320998D01*
X366416D01*
X365500Y320082D01*
Y316416D01*
X366416Y315500D01*
X368249D01*
X369165Y316416D01*
X370998Y315500D02*
X372831D01*
X371915D01*
Y320998D01*
X370998Y320082D01*
X379246Y315500D02*
X375580D01*
X379246Y319165D01*
Y320082D01*
X378329Y320998D01*
X376496D01*
X375580Y320082D01*
X381078Y316416D02*
X381995Y315500D01*
X383827D01*
X384744Y316416D01*
Y320082D01*
X383827Y320998D01*
X381995D01*
X381078Y320082D01*
Y319165D01*
X381995Y318249D01*
X384744D01*
X221199Y313699D02*
X220700Y314199D01*
X219700D01*
X219200Y313699D01*
Y311700D01*
X219700Y311200D01*
X220700D01*
X221199Y311700D01*
X224198Y311200D02*
X222199D01*
X224198Y313199D01*
Y313699D01*
X223698Y314199D01*
X222699D01*
X222199Y313699D01*
X225198D02*
X225698Y314199D01*
X226698D01*
X227197Y313699D01*
Y311700D01*
X226698Y311200D01*
X225698D01*
X225198Y311700D01*
Y313699D01*
X228197D02*
X228697Y314199D01*
X229697D01*
X230196Y313699D01*
Y311700D01*
X229697Y311200D01*
X228697D01*
X228197Y311700D01*
Y313699D01*
X222099Y327699D02*
X221600Y328199D01*
X220600D01*
X220100Y327699D01*
Y325700D01*
X220600Y325200D01*
X221600D01*
X222099Y325700D01*
X225098Y325200D02*
X223099D01*
X225098Y327199D01*
Y327699D01*
X224599Y328199D01*
X223599D01*
X223099Y327699D01*
X226098D02*
X226598Y328199D01*
X227598D01*
X228097Y327699D01*
Y325700D01*
X227598Y325200D01*
X226598D01*
X226098Y325700D01*
Y327699D01*
X229097Y325200D02*
X230097D01*
X229597D01*
Y328199D01*
X229097Y327699D01*
X221499Y339299D02*
X221000Y339799D01*
X220000D01*
X219500Y339299D01*
Y337300D01*
X220000Y336800D01*
X221000D01*
X221499Y337300D01*
X224498Y336800D02*
X222499D01*
X224498Y338799D01*
Y339299D01*
X223998Y339799D01*
X222999D01*
X222499Y339299D01*
X225498D02*
X225998Y339799D01*
X226998D01*
X227497Y339299D01*
Y337300D01*
X226998Y336800D01*
X225998D01*
X225498Y337300D01*
Y339299D01*
X230496Y336800D02*
X228497D01*
X230496Y338799D01*
Y339299D01*
X229997Y339799D01*
X228997D01*
X228497Y339299D01*
X521166Y428182D02*
X520249Y429098D01*
X518416D01*
X517500Y428182D01*
Y424516D01*
X518416Y423600D01*
X520249D01*
X521166Y424516D01*
X526664Y423600D02*
X522998D01*
X526664Y427266D01*
Y428182D01*
X525747Y429098D01*
X523915D01*
X522998Y428182D01*
X528496D02*
X529413Y429098D01*
X531246D01*
X532162Y428182D01*
Y424516D01*
X531246Y423600D01*
X529413D01*
X528496Y424516D01*
Y428182D01*
X533995D02*
X534911Y429098D01*
X536744D01*
X537660Y428182D01*
Y427266D01*
X536744Y426349D01*
X535827D01*
X536744D01*
X537660Y425433D01*
Y424516D01*
X536744Y423600D01*
X534911D01*
X533995Y424516D01*
X497361Y428582D02*
X496445Y429498D01*
X494612D01*
X493695Y428582D01*
Y424916D01*
X494612Y424000D01*
X496445D01*
X497361Y424916D01*
X502859Y424000D02*
X499194D01*
X502859Y427665D01*
Y428582D01*
X501943Y429498D01*
X500110D01*
X499194Y428582D01*
X504692D02*
X505608Y429498D01*
X507441D01*
X508357Y428582D01*
Y424916D01*
X507441Y424000D01*
X505608D01*
X504692Y424916D01*
Y428582D01*
X512939Y424000D02*
Y429498D01*
X510190Y426749D01*
X513856D01*
X521166Y408582D02*
X520249Y409498D01*
X518416D01*
X517500Y408582D01*
Y404916D01*
X518416Y404000D01*
X520249D01*
X521166Y404916D01*
X526664Y404000D02*
X522998D01*
X526664Y407665D01*
Y408582D01*
X525747Y409498D01*
X523915D01*
X522998Y408582D01*
X528496D02*
X529413Y409498D01*
X531246D01*
X532162Y408582D01*
Y404916D01*
X531246Y404000D01*
X529413D01*
X528496Y404916D01*
Y408582D01*
X537660Y409498D02*
X533995D01*
Y406749D01*
X535827Y407665D01*
X536744D01*
X537660Y406749D01*
Y404916D01*
X536744Y404000D01*
X534911D01*
X533995Y404916D01*
X258501Y450799D02*
X258001Y450300D01*
Y449300D01*
X258501Y448800D01*
X260500D01*
X261000Y449300D01*
Y450300D01*
X260500Y450799D01*
X261000Y453798D02*
Y451799D01*
X259001Y453798D01*
X258501D01*
X258001Y453299D01*
Y452299D01*
X258501Y451799D01*
Y454798D02*
X258001Y455298D01*
Y456298D01*
X258501Y456797D01*
X260500D01*
X261000Y456298D01*
Y455298D01*
X260500Y454798D01*
X258501D01*
X258001Y459796D02*
X258501Y458797D01*
X259501Y457797D01*
X260500D01*
X261000Y458297D01*
Y459297D01*
X260500Y459796D01*
X260000D01*
X259501Y459297D01*
Y457797D01*
X272301Y450799D02*
X271801Y450300D01*
Y449300D01*
X272301Y448800D01*
X274300D01*
X274800Y449300D01*
Y450300D01*
X274300Y450799D01*
X274800Y453798D02*
Y451799D01*
X272801Y453798D01*
X272301D01*
X271801Y453299D01*
Y452299D01*
X272301Y451799D01*
Y454798D02*
X271801Y455298D01*
Y456298D01*
X272301Y456797D01*
X274300D01*
X274800Y456298D01*
Y455298D01*
X274300Y454798D01*
X272301D01*
X271801Y457797D02*
Y459796D01*
X272301D01*
X274300Y457797D01*
X274800D01*
X285601Y450299D02*
X285101Y449799D01*
Y448800D01*
X285601Y448300D01*
X287600D01*
X288100Y448800D01*
Y449799D01*
X287600Y450299D01*
X288100Y453298D02*
Y451299D01*
X286101Y453298D01*
X285601D01*
X285101Y452799D01*
Y451799D01*
X285601Y451299D01*
Y454298D02*
X285101Y454798D01*
Y455798D01*
X285601Y456297D01*
X287600D01*
X288100Y455798D01*
Y454798D01*
X287600Y454298D01*
X285601D01*
Y457297D02*
X285101Y457797D01*
Y458797D01*
X285601Y459296D01*
X286101D01*
X286600Y458797D01*
X287100Y459296D01*
X287600D01*
X288100Y458797D01*
Y457797D01*
X287600Y457297D01*
X287100D01*
X286600Y457797D01*
X286101Y457297D01*
X285601D01*
X286600Y457797D02*
Y458797D01*
X549765Y387482D02*
X548849Y388398D01*
X547016D01*
X546100Y387482D01*
Y383816D01*
X547016Y382900D01*
X548849D01*
X549765Y383816D01*
X555264Y382900D02*
X551598D01*
X555264Y386565D01*
Y387482D01*
X554347Y388398D01*
X552515D01*
X551598Y387482D01*
X557096Y382900D02*
X558929D01*
X558013D01*
Y388398D01*
X557096Y387482D01*
X561678Y382900D02*
X563511D01*
X562595D01*
Y388398D01*
X561678Y387482D01*
X618265Y387982D02*
X617349Y388898D01*
X615516D01*
X614600Y387982D01*
Y384316D01*
X615516Y383400D01*
X617349D01*
X618265Y384316D01*
X623764Y383400D02*
X620098D01*
X623764Y387066D01*
Y387982D01*
X622847Y388898D01*
X621015D01*
X620098Y387982D01*
X625596Y383400D02*
X627429D01*
X626513D01*
Y388898D01*
X625596Y387982D01*
X633844Y383400D02*
X630178D01*
X633844Y387066D01*
Y387982D01*
X632927Y388898D01*
X631095D01*
X630178Y387982D01*
X549410Y406582D02*
X548493Y407498D01*
X546661D01*
X545744Y406582D01*
Y402916D01*
X546661Y402000D01*
X548493D01*
X549410Y402916D01*
X554908Y402000D02*
X551242D01*
X554908Y405665D01*
Y406582D01*
X553991Y407498D01*
X552159D01*
X551242Y406582D01*
X556741Y402000D02*
X558573D01*
X557657D01*
Y407498D01*
X556741Y406582D01*
X564072Y402000D02*
Y407498D01*
X561322Y404749D01*
X564988D01*
X472566Y428282D02*
X471649Y429198D01*
X469816D01*
X468900Y428282D01*
Y424616D01*
X469816Y423700D01*
X471649D01*
X472566Y424616D01*
X478064Y423700D02*
X474398D01*
X478064Y427365D01*
Y428282D01*
X477147Y429198D01*
X475315D01*
X474398Y428282D01*
X479896Y423700D02*
X481729D01*
X480813D01*
Y429198D01*
X479896Y428282D01*
X488144Y429198D02*
X484478D01*
Y426449D01*
X486311Y427365D01*
X487227D01*
X488144Y426449D01*
Y424616D01*
X487227Y423700D01*
X485395D01*
X484478Y424616D01*
X446365Y429482D02*
X445449Y430398D01*
X443616D01*
X442700Y429482D01*
Y425816D01*
X443616Y424900D01*
X445449D01*
X446365Y425816D01*
X451864Y424900D02*
X448198D01*
X451864Y428566D01*
Y429482D01*
X450947Y430398D01*
X449115D01*
X448198Y429482D01*
X453696Y424900D02*
X455529D01*
X454613D01*
Y430398D01*
X453696Y429482D01*
X461944Y430398D02*
X460111Y429482D01*
X458278Y427649D01*
Y425816D01*
X459195Y424900D01*
X461027D01*
X461944Y425816D01*
Y426733D01*
X461027Y427649D01*
X458278D01*
X497361Y360272D02*
X496445Y361189D01*
X494612D01*
X493695Y360272D01*
Y356607D01*
X494612Y355691D01*
X496445D01*
X497361Y356607D01*
X502859Y355691D02*
X499194D01*
X502859Y359356D01*
Y360272D01*
X501943Y361189D01*
X500110D01*
X499194Y360272D01*
X508357Y355691D02*
X504692D01*
X508357Y359356D01*
Y360272D01*
X507441Y361189D01*
X505608D01*
X504692Y360272D01*
X510190Y355691D02*
X512023D01*
X511106D01*
Y361189D01*
X510190Y360272D01*
X521665Y360772D02*
X520749Y361689D01*
X518916D01*
X518000Y360772D01*
Y357107D01*
X518916Y356191D01*
X520749D01*
X521665Y357107D01*
X527164Y356191D02*
X523498D01*
X527164Y359856D01*
Y360772D01*
X526247Y361689D01*
X524415D01*
X523498Y360772D01*
X532662Y356191D02*
X528996D01*
X532662Y359856D01*
Y360772D01*
X531746Y361689D01*
X529913D01*
X528996Y360772D01*
X538160Y356191D02*
X534495D01*
X538160Y359856D01*
Y360772D01*
X537244Y361689D01*
X535411D01*
X534495Y360772D01*
X522165Y380582D02*
X521249Y381498D01*
X519416D01*
X518500Y380582D01*
Y376916D01*
X519416Y376000D01*
X521249D01*
X522165Y376916D01*
X527664Y376000D02*
X523998D01*
X527664Y379665D01*
Y380582D01*
X526747Y381498D01*
X524915D01*
X523998Y380582D01*
X533162Y376000D02*
X529496D01*
X533162Y379665D01*
Y380582D01*
X532246Y381498D01*
X530413D01*
X529496Y380582D01*
X534995D02*
X535911Y381498D01*
X537744D01*
X538660Y380582D01*
Y379665D01*
X537744Y378749D01*
X536827D01*
X537744D01*
X538660Y377833D01*
Y376916D01*
X537744Y376000D01*
X535911D01*
X534995Y376916D01*
X617166Y419082D02*
X616249Y419998D01*
X614416D01*
X613500Y419082D01*
Y415416D01*
X614416Y414500D01*
X616249D01*
X617166Y415416D01*
X622664Y414500D02*
X618998D01*
X622664Y418165D01*
Y419082D01*
X621747Y419998D01*
X619915D01*
X618998Y419082D01*
X628162Y414500D02*
X624496D01*
X628162Y418165D01*
Y419082D01*
X627246Y419998D01*
X625413D01*
X624496Y419082D01*
X633660Y419998D02*
X629995D01*
Y417249D01*
X631827Y418165D01*
X632744D01*
X633660Y417249D01*
Y415416D01*
X632744Y414500D01*
X630911D01*
X629995Y415416D01*
X287865Y429082D02*
X286949Y429998D01*
X285116D01*
X284200Y429082D01*
Y425416D01*
X285116Y424500D01*
X286949D01*
X287865Y425416D01*
X289698Y424500D02*
Y429998D01*
X292447D01*
X293364Y429082D01*
Y427249D01*
X292447Y426333D01*
X289698D01*
X291531D02*
X293364Y424500D01*
X298862Y429998D02*
X295196D01*
Y427249D01*
X297029D01*
X295196D01*
Y424500D01*
X300695D02*
Y428165D01*
X302527Y429998D01*
X304360Y428165D01*
Y424500D01*
Y427249D01*
X300695D01*
X306193Y424500D02*
X308026D01*
X307109D01*
Y429998D01*
X306193Y429082D01*
X546266Y428082D02*
X545349Y428998D01*
X543516D01*
X542600Y428082D01*
Y424416D01*
X543516Y423500D01*
X545349D01*
X546266Y424416D01*
X548098Y423500D02*
Y428998D01*
X550847D01*
X551764Y428082D01*
Y426249D01*
X550847Y425333D01*
X548098D01*
X549931D02*
X551764Y423500D01*
X557262Y428998D02*
X553596D01*
Y426249D01*
X555429D01*
X553596D01*
Y423500D01*
X559095D02*
Y427166D01*
X560927Y428998D01*
X562760Y427166D01*
Y423500D01*
Y426249D01*
X559095D01*
X568258Y423500D02*
X564593D01*
X568258Y427166D01*
Y428082D01*
X567342Y428998D01*
X565509D01*
X564593Y428082D01*
X318865Y411682D02*
X317949Y412598D01*
X316116D01*
X315200Y411682D01*
Y408016D01*
X316116Y407100D01*
X317949D01*
X318865Y408016D01*
X320698Y407100D02*
Y412598D01*
X323447D01*
X324364Y411682D01*
Y409849D01*
X323447Y408933D01*
X320698D01*
X322531D02*
X324364Y407100D01*
X329862Y412598D02*
X326196D01*
Y409849D01*
X328029D01*
X326196D01*
Y407100D01*
X331695Y412598D02*
Y407100D01*
X334444D01*
X335360Y408016D01*
Y408933D01*
X334444Y409849D01*
X331695D01*
X334444D01*
X335360Y410766D01*
Y411682D01*
X334444Y412598D01*
X331695D01*
X337193Y407100D02*
X339026D01*
X338109D01*
Y412598D01*
X337193Y411682D01*
X347165Y409749D02*
X346249Y410665D01*
X344416D01*
X343500Y409749D01*
Y406083D01*
X344416Y405167D01*
X346249D01*
X347165Y406083D01*
X348998Y405167D02*
Y410665D01*
X351747D01*
X352664Y409749D01*
Y407916D01*
X351747Y406999D01*
X348998D01*
X350831D02*
X352664Y405167D01*
X358162Y410665D02*
X354496D01*
Y407916D01*
X356329D01*
X354496D01*
Y405167D01*
X363660Y409749D02*
X362744Y410665D01*
X360911D01*
X359995Y409749D01*
Y406083D01*
X360911Y405167D01*
X362744D01*
X363660Y406083D01*
X365493Y405167D02*
X367326D01*
X366409D01*
Y410665D01*
X365493Y409749D01*
X318410Y376582D02*
X317493Y377498D01*
X315661D01*
X314744Y376582D01*
Y372916D01*
X315661Y372000D01*
X317493D01*
X318410Y372916D01*
X320242Y372000D02*
Y377498D01*
X322991D01*
X323908Y376582D01*
Y374749D01*
X322991Y373833D01*
X320242D01*
X322075D02*
X323908Y372000D01*
X329406Y377498D02*
X325741D01*
Y374749D01*
X327573D01*
X325741D01*
Y372000D01*
X331239Y377498D02*
Y372000D01*
X333988D01*
X334904Y372916D01*
Y376582D01*
X333988Y377498D01*
X331239D01*
X336737Y372000D02*
X338570D01*
X337653D01*
Y377498D01*
X336737Y376582D01*
X432865Y454998D02*
X429200D01*
Y452249D01*
X431033D01*
X429200D01*
Y449500D01*
X434698Y454998D02*
Y449500D01*
X437447D01*
X438364Y450416D01*
Y451333D01*
X437447Y452249D01*
X434698D01*
X437447D01*
X438364Y453165D01*
Y454082D01*
X437447Y454998D01*
X434698D01*
X443862Y449500D02*
X440196D01*
X443862Y453165D01*
Y454082D01*
X442946Y454998D01*
X441113D01*
X440196Y454082D01*
X432966Y468498D02*
X429300D01*
Y465749D01*
X431133D01*
X429300D01*
Y463000D01*
X434798Y468498D02*
Y463000D01*
X437547D01*
X438464Y463916D01*
Y464833D01*
X437547Y465749D01*
X434798D01*
X437547D01*
X438464Y466666D01*
Y467582D01*
X437547Y468498D01*
X434798D01*
X440296Y463000D02*
X442129D01*
X441213D01*
Y468498D01*
X440296Y467582D01*
X167691Y176577D02*
Y171079D01*
Y173828D01*
X171356D01*
Y176577D01*
Y171079D01*
X173189D02*
Y176577D01*
X175938D01*
X176855Y175661D01*
Y173828D01*
X175938Y172912D01*
X173189D01*
X178687Y171079D02*
X180520D01*
X179604D01*
Y176577D01*
X178687Y175661D01*
X294492Y174498D02*
Y169000D01*
Y171749D01*
X298157D01*
Y174498D01*
Y169000D01*
X299990D02*
Y174498D01*
X302739D01*
X303655Y173582D01*
Y171749D01*
X302739Y170833D01*
X299990D01*
X309154Y169000D02*
X305488D01*
X309154Y172666D01*
Y173582D01*
X308237Y174498D01*
X306404D01*
X305488Y173582D01*
X417556Y178998D02*
Y173500D01*
Y176249D01*
X421222D01*
Y178998D01*
Y173500D01*
X423054D02*
Y178998D01*
X425803D01*
X426720Y178082D01*
Y176249D01*
X425803Y175333D01*
X423054D01*
X428553Y178082D02*
X429469Y178998D01*
X431302D01*
X432218Y178082D01*
Y177165D01*
X431302Y176249D01*
X430385D01*
X431302D01*
X432218Y175333D01*
Y174416D01*
X431302Y173500D01*
X429469D01*
X428553Y174416D01*
X539857Y174577D02*
Y169079D01*
Y171828D01*
X543522D01*
Y174577D01*
Y169079D01*
X545355D02*
Y174577D01*
X548104D01*
X549020Y173661D01*
Y171828D01*
X548104Y170912D01*
X545355D01*
X553602Y169079D02*
Y174577D01*
X550853Y171828D01*
X554519D01*
X668421Y175577D02*
Y170079D01*
Y172828D01*
X672087D01*
Y175577D01*
Y170079D01*
X673919D02*
Y175577D01*
X676669D01*
X677585Y174661D01*
Y172828D01*
X676669Y171912D01*
X673919D01*
X683083Y175577D02*
X679418D01*
Y172828D01*
X681250Y173744D01*
X682167D01*
X683083Y172828D01*
Y170995D01*
X682167Y170079D01*
X680334D01*
X679418Y170995D01*
X127600Y355798D02*
Y350300D01*
X131265D01*
X133098D02*
Y355798D01*
X134931Y353965D01*
X136764Y355798D01*
Y350300D01*
X138596D02*
Y353965D01*
X140429Y355798D01*
X142262Y353965D01*
Y350300D01*
Y353049D01*
X138596D01*
X144095Y350300D02*
X145927D01*
X145011D01*
Y355798D01*
X144095Y354882D01*
X509100Y469400D02*
Y474898D01*
X511849D01*
X512766Y473982D01*
Y472149D01*
X511849Y471233D01*
X509100D01*
X514598Y474898D02*
X518264D01*
Y473982D01*
X514598Y470316D01*
Y469400D01*
X584100Y274400D02*
Y279898D01*
X586849D01*
X587766Y278982D01*
Y277149D01*
X586849Y276233D01*
X584100D01*
X589598Y279898D02*
Y274400D01*
X592347D01*
X593264Y275316D01*
Y278982D01*
X592347Y279898D01*
X589598D01*
X595096Y274400D02*
X596929D01*
X596013D01*
Y279898D01*
X595096Y278982D01*
X599678Y277149D02*
X603344D01*
X608842Y279898D02*
X605176D01*
Y277149D01*
X607009Y278065D01*
X607926D01*
X608842Y277149D01*
Y275316D01*
X607926Y274400D01*
X606093D01*
X605176Y275316D01*
X311500Y275500D02*
Y280998D01*
X314249D01*
X315165Y280082D01*
Y278249D01*
X314249Y277333D01*
X311500D01*
X316998Y280998D02*
X320664D01*
X318831D01*
Y275500D01*
X326162Y280082D02*
X325246Y280998D01*
X323413D01*
X322496Y280082D01*
Y279166D01*
X323413Y278249D01*
X325246D01*
X326162Y277333D01*
Y276416D01*
X325246Y275500D01*
X323413D01*
X322496Y276416D01*
X327995Y280998D02*
X331660D01*
X329827D01*
Y275500D01*
X333493D02*
X335326D01*
X334409D01*
Y280998D01*
X333493Y280082D01*
X461100Y274400D02*
Y279898D01*
X463849D01*
X464766Y278982D01*
Y277149D01*
X463849Y276233D01*
X461100D01*
X466598Y279898D02*
Y274400D01*
Y277149D01*
X470264D01*
Y279898D01*
Y274400D01*
X474846Y279898D02*
X473013D01*
X472096Y278982D01*
Y275316D01*
X473013Y274400D01*
X474846D01*
X475762Y275316D01*
Y278982D01*
X474846Y279898D01*
X477595D02*
Y275316D01*
X478511Y274400D01*
X480344D01*
X481260Y275316D01*
Y279898D01*
X483093D02*
X486758D01*
X484926D01*
Y274400D01*
X451265Y336398D02*
X447600D01*
Y330900D01*
X451265D01*
X447600Y333649D02*
X449433D01*
X456764Y336398D02*
X453098D01*
Y333649D01*
X454931D01*
X453098D01*
Y330900D01*
X458596Y336398D02*
X460429D01*
X459513D01*
Y330900D01*
X458596D01*
X460429D01*
X463178D02*
Y336398D01*
X466844Y330900D01*
Y336398D01*
X654000Y332500D02*
Y337998D01*
X656749D01*
X657665Y337082D01*
Y335249D01*
X656749Y334333D01*
X654000D01*
X659498Y337998D02*
X663164D01*
X661331D01*
Y332500D01*
X668662Y337082D02*
X667746Y337998D01*
X665913D01*
X664996Y337082D01*
Y336165D01*
X665913Y335249D01*
X667746D01*
X668662Y334333D01*
Y333416D01*
X667746Y332500D01*
X665913D01*
X664996Y333416D01*
X670495Y337998D02*
X674160D01*
X672327D01*
Y332500D01*
X679658D02*
X675993D01*
X679658Y336165D01*
Y337082D01*
X678742Y337998D01*
X676909D01*
X675993Y337082D01*
X668000Y421900D02*
Y425565D01*
X669833Y427398D01*
X671665Y425565D01*
Y421900D01*
Y424649D01*
X668000D01*
X677164Y421900D02*
X673498D01*
X677164Y425565D01*
Y426482D01*
X676247Y427398D01*
X674415D01*
X673498Y426482D01*
X678996Y427398D02*
Y421900D01*
X681746D01*
X682662Y422816D01*
Y426482D01*
X681746Y427398D01*
X678996D01*
X151309Y373400D02*
Y377065D01*
X153142Y378898D01*
X154974Y377065D01*
Y373400D01*
Y376149D01*
X151309D01*
X156807Y378898D02*
Y375233D01*
X158640Y373400D01*
X160473Y375233D01*
Y378898D01*
X162305D02*
Y373400D01*
X165055D01*
X165971Y374316D01*
Y377982D01*
X165055Y378898D01*
X162305D01*
X276000Y332798D02*
Y328216D01*
X276916Y327300D01*
X278749D01*
X279665Y328216D01*
Y332798D01*
X281498Y327300D02*
X283331D01*
X282415D01*
Y332798D01*
X281498Y331882D01*
X286080D02*
X286996Y332798D01*
X288829D01*
X289746Y331882D01*
Y328216D01*
X288829Y327300D01*
X286996D01*
X286080Y328216D01*
Y331882D01*
X291578D02*
X292495Y332798D01*
X294327D01*
X295244Y331882D01*
Y328216D01*
X294327Y327300D01*
X292495D01*
X291578Y328216D01*
Y331882D01*
X468600Y410398D02*
Y405816D01*
X469516Y404900D01*
X471349D01*
X472265Y405816D01*
Y410398D01*
X477764Y404900D02*
X474098D01*
X477764Y408566D01*
Y409482D01*
X476847Y410398D01*
X475015D01*
X474098Y409482D01*
X479596D02*
X480513Y410398D01*
X482346D01*
X483262Y409482D01*
Y405816D01*
X482346Y404900D01*
X480513D01*
X479596Y405816D01*
Y409482D01*
X485095Y404900D02*
X486927D01*
X486011D01*
Y410398D01*
X485095Y409482D01*
X233665Y410582D02*
X232749Y411498D01*
X230916D01*
X230000Y410582D01*
Y406916D01*
X230916Y406000D01*
X232749D01*
X233665Y406916D01*
X235498Y406000D02*
X237331D01*
X236415D01*
Y411498D01*
X235498Y410582D01*
X240080D02*
X240996Y411498D01*
X242829D01*
X243746Y410582D01*
Y409665D01*
X242829Y408749D01*
X241913D01*
X242829D01*
X243746Y407833D01*
Y406916D01*
X242829Y406000D01*
X240996D01*
X240080Y406916D01*
X245578Y410582D02*
X246495Y411498D01*
X248327D01*
X249244Y410582D01*
Y406916D01*
X248327Y406000D01*
X246495D01*
X245578Y406916D01*
Y410582D01*
X233466Y375882D02*
X232549Y376798D01*
X230716D01*
X229800Y375882D01*
Y372216D01*
X230716Y371300D01*
X232549D01*
X233466Y372216D01*
X235298Y371300D02*
X237131D01*
X236215D01*
Y376798D01*
X235298Y375882D01*
X239880D02*
X240796Y376798D01*
X242629D01*
X243546Y375882D01*
Y374966D01*
X242629Y374049D01*
X241713D01*
X242629D01*
X243546Y373133D01*
Y372216D01*
X242629Y371300D01*
X240796D01*
X239880Y372216D01*
X245378Y371300D02*
X247211D01*
X246295D01*
Y376798D01*
X245378Y375882D01*
X125527Y452982D02*
X124611Y453898D01*
X122778D01*
X121862Y452982D01*
Y449316D01*
X122778Y448400D01*
X124611D01*
X125527Y449316D01*
X127360Y453898D02*
X131026D01*
Y452982D01*
X127360Y449316D01*
Y448400D01*
X140277Y452982D02*
X139361Y453898D01*
X137528D01*
X136612Y452982D01*
Y449316D01*
X137528Y448400D01*
X139361D01*
X140277Y449316D01*
X142110Y452982D02*
X143026Y453898D01*
X144859D01*
X145775Y452982D01*
Y452066D01*
X144859Y451149D01*
X145775Y450233D01*
Y449316D01*
X144859Y448400D01*
X143026D01*
X142110Y449316D01*
Y450233D01*
X143026Y451149D01*
X142110Y452066D01*
Y452982D01*
X143026Y451149D02*
X144859D01*
X127600Y427798D02*
Y422300D01*
X131265D01*
X133098D02*
Y427798D01*
X134931Y425965D01*
X136764Y427798D01*
Y422300D01*
X138596Y427798D02*
Y422300D01*
X141346D01*
X142262Y423216D01*
Y426882D01*
X141346Y427798D01*
X138596D01*
X144095Y422300D02*
X145927D01*
X145011D01*
Y427798D01*
X144095Y426882D01*
X151362Y453898D02*
Y448400D01*
X154111D01*
X155027Y449316D01*
Y452982D01*
X154111Y453898D01*
X151362D01*
X156860D02*
Y450233D01*
X158693Y448400D01*
X160526Y450233D01*
Y453898D01*
X162358D02*
Y448400D01*
X165107D01*
X166024Y449316D01*
Y452982D01*
X165107Y453898D01*
X162358D01*
X449098Y393898D02*
X448099Y394898D01*
X446100D01*
X445100Y393898D01*
Y389900D01*
X446100Y388900D01*
X448099D01*
X449098Y389900D01*
X455097Y388900D02*
X451098D01*
X455097Y392899D01*
Y393898D01*
X454097Y394898D01*
X452098D01*
X451098Y393898D01*
X457096D02*
X458096Y394898D01*
X460095D01*
X461095Y393898D01*
Y392899D01*
X460095Y391899D01*
X459095D01*
X460095D01*
X461095Y390899D01*
Y389900D01*
X460095Y388900D01*
X458096D01*
X457096Y389900D01*
X463094Y393898D02*
X464094Y394898D01*
X466093D01*
X467093Y393898D01*
Y389900D01*
X466093Y388900D01*
X464094D01*
X463094Y389900D01*
Y393898D01*
X449098Y362898D02*
X448099Y363898D01*
X446100D01*
X445100Y362898D01*
Y358900D01*
X446100Y357900D01*
X448099D01*
X449098Y358900D01*
X455097Y357900D02*
X451098D01*
X455097Y361899D01*
Y362898D01*
X454097Y363898D01*
X452098D01*
X451098Y362898D01*
X457096D02*
X458096Y363898D01*
X460095D01*
X461095Y362898D01*
Y361899D01*
X460095Y360899D01*
X459095D01*
X460095D01*
X461095Y359899D01*
Y358900D01*
X460095Y357900D01*
X458096D01*
X457096Y358900D01*
X463094Y357900D02*
X465093D01*
X464094D01*
Y363898D01*
X463094Y362898D01*
X598100Y475398D02*
X602099D01*
X600099D01*
Y469400D01*
X608097Y475398D02*
X604098D01*
Y469400D01*
X608097D01*
X604098Y472399D02*
X606097D01*
X614095Y474398D02*
X613095Y475398D01*
X611096D01*
X610096Y474398D01*
Y473399D01*
X611096Y472399D01*
X613095D01*
X614095Y471399D01*
Y470400D01*
X613095Y469400D01*
X611096D01*
X610096Y470400D01*
X616094Y475398D02*
X620093D01*
X618093D01*
Y469400D01*
X149286Y196798D02*
X148286Y197798D01*
X146287D01*
X145287Y196798D01*
Y192800D01*
X146287Y191800D01*
X148286D01*
X149286Y192800D01*
X155284Y191800D02*
X151286D01*
X155284Y195799D01*
Y196798D01*
X154285Y197798D01*
X152285D01*
X151286Y196798D01*
X270986D02*
X269987Y197798D01*
X267987D01*
X266987Y196798D01*
Y192800D01*
X267987Y191800D01*
X269987D01*
X270986Y192800D01*
X272986Y196798D02*
X273985Y197798D01*
X275985D01*
X276984Y196798D01*
Y195799D01*
X275985Y194799D01*
X274985D01*
X275985D01*
X276984Y193799D01*
Y192800D01*
X275985Y191800D01*
X273985D01*
X272986Y192800D01*
X399099Y196798D02*
X398099Y197798D01*
X396100D01*
X395100Y196798D01*
Y192800D01*
X396100Y191800D01*
X398099D01*
X399099Y192800D01*
X405097Y191800D02*
X401098D01*
X405097Y195799D01*
Y196798D01*
X404097Y197798D01*
X402098D01*
X401098Y196798D01*
X410095Y191800D02*
Y197798D01*
X407096Y194799D01*
X411095D01*
X524199Y196798D02*
X523199Y197798D01*
X521200D01*
X520200Y196798D01*
Y192800D01*
X521200Y191800D01*
X523199D01*
X524199Y192800D01*
X530197Y191800D02*
X526198D01*
X530197Y195799D01*
Y196798D01*
X529197Y197798D01*
X527198D01*
X526198Y196798D01*
X536195Y197798D02*
X532196D01*
Y194799D01*
X534196Y195799D01*
X535195D01*
X536195Y194799D01*
Y192800D01*
X535195Y191800D01*
X533196D01*
X532196Y192800D01*
X647599Y196798D02*
X646599Y197798D01*
X644600D01*
X643600Y196798D01*
Y192800D01*
X644600Y191800D01*
X646599D01*
X647599Y192800D01*
X653597Y191800D02*
X649598D01*
X653597Y195799D01*
Y196798D01*
X652597Y197798D01*
X650598D01*
X649598Y196798D01*
X659595Y197798D02*
X657595Y196798D01*
X655596Y194799D01*
Y192800D01*
X656596Y191800D01*
X658595D01*
X659595Y192800D01*
Y193799D01*
X658595Y194799D01*
X655596D01*
X145250Y209850D02*
Y215848D01*
X148249D01*
X149249Y214848D01*
Y212849D01*
X148249Y211849D01*
X145250D01*
X147249D02*
X149249Y209850D01*
X151248D02*
X153247D01*
X152248D01*
Y215848D01*
X151248Y214848D01*
X145250Y228850D02*
Y234848D01*
X148249D01*
X149249Y233848D01*
Y231849D01*
X148249Y230849D01*
X145250D01*
X147249D02*
X149249Y228850D01*
X155247D02*
X151248D01*
X155247Y232849D01*
Y233848D01*
X154247Y234848D01*
X152248D01*
X151248Y233848D01*
X122700Y173300D02*
Y179298D01*
X125699D01*
X126699Y178298D01*
Y176299D01*
X125699Y175299D01*
X122700D01*
X124699D02*
X126699Y173300D01*
X128698Y178298D02*
X129698Y179298D01*
X131697D01*
X132697Y178298D01*
Y177299D01*
X131697Y176299D01*
X130697D01*
X131697D01*
X132697Y175299D01*
Y174300D01*
X131697Y173300D01*
X129698D01*
X128698Y174300D01*
X266950Y209850D02*
Y215848D01*
X269949D01*
X270949Y214848D01*
Y212849D01*
X269949Y211849D01*
X266950D01*
X268949D02*
X270949Y209850D01*
X276947Y215848D02*
X274947Y214848D01*
X272948Y212849D01*
Y210850D01*
X273948Y209850D01*
X275947D01*
X276947Y210850D01*
Y211849D01*
X275947Y212849D01*
X272948D01*
X266950Y228850D02*
Y234848D01*
X269949D01*
X270949Y233848D01*
Y231849D01*
X269949Y230849D01*
X266950D01*
X268949D02*
X270949Y228850D01*
X272948Y233848D02*
X273948Y234848D01*
X275947D01*
X276947Y233848D01*
Y232849D01*
X275947Y231849D01*
X276947Y230849D01*
Y229850D01*
X275947Y228850D01*
X273948D01*
X272948Y229850D01*
Y230849D01*
X273948Y231849D01*
X272948Y232849D01*
Y233848D01*
X273948Y231849D02*
X275947D01*
X246500Y174500D02*
Y180498D01*
X249499D01*
X250499Y179498D01*
Y177499D01*
X249499Y176499D01*
X246500D01*
X248499D02*
X250499Y174500D01*
X252498Y175500D02*
X253498Y174500D01*
X255497D01*
X256497Y175500D01*
Y179498D01*
X255497Y180498D01*
X253498D01*
X252498Y179498D01*
Y178499D01*
X253498Y177499D01*
X256497D01*
X395113Y209900D02*
Y215898D01*
X398112D01*
X399111Y214898D01*
Y212899D01*
X398112Y211899D01*
X395113D01*
X397112D02*
X399111Y209900D01*
X401111D02*
X403110D01*
X402110D01*
Y215898D01*
X401111Y214898D01*
X406109D02*
X407109Y215898D01*
X409108D01*
X410108Y214898D01*
Y210900D01*
X409108Y209900D01*
X407109D01*
X406109Y210900D01*
Y214898D01*
X395113Y228900D02*
Y234898D01*
X398112D01*
X399111Y233898D01*
Y231899D01*
X398112Y230899D01*
X395113D01*
X397112D02*
X399111Y228900D01*
X401111D02*
X403110D01*
X402110D01*
Y234898D01*
X401111Y233898D01*
X409108Y228900D02*
Y234898D01*
X406109Y231899D01*
X410108D01*
X368900Y174900D02*
Y180898D01*
X371899D01*
X372899Y179898D01*
Y177899D01*
X371899Y176899D01*
X368900D01*
X370899D02*
X372899Y174900D01*
X374898D02*
X376897D01*
X375898D01*
Y180898D01*
X374898Y179898D01*
X383895Y180898D02*
X379896D01*
Y177899D01*
X381896Y178899D01*
X382895D01*
X383895Y177899D01*
Y175900D01*
X382895Y174900D01*
X380896D01*
X379896Y175900D01*
X520213Y209900D02*
Y215898D01*
X523212D01*
X524211Y214898D01*
Y212899D01*
X523212Y211899D01*
X520213D01*
X522212D02*
X524211Y209900D01*
X526211D02*
X528210D01*
X527210D01*
Y215898D01*
X526211Y214898D01*
X535208Y215898D02*
X533208Y214898D01*
X531209Y212899D01*
Y210900D01*
X532209Y209900D01*
X534208D01*
X535208Y210900D01*
Y211899D01*
X534208Y212899D01*
X531209D01*
X520213Y228900D02*
Y234898D01*
X523212D01*
X524211Y233898D01*
Y231899D01*
X523212Y230899D01*
X520213D01*
X522212D02*
X524211Y228900D01*
X530209D02*
X526211D01*
X530209Y232899D01*
Y233898D01*
X529210Y234898D01*
X527210D01*
X526211Y233898D01*
X532209D02*
X533208Y234898D01*
X535208D01*
X536207Y233898D01*
Y229900D01*
X535208Y228900D01*
X533208D01*
X532209Y229900D01*
Y233898D01*
X496000Y173800D02*
Y179798D01*
X498999D01*
X499999Y178798D01*
Y176799D01*
X498999Y175799D01*
X496000D01*
X497999D02*
X499999Y173800D01*
X505997D02*
X501998D01*
X505997Y177799D01*
Y178798D01*
X504997Y179798D01*
X502998D01*
X501998Y178798D01*
X507996Y173800D02*
X509996D01*
X508996D01*
Y179798D01*
X507996Y178798D01*
X643600Y209900D02*
Y215898D01*
X646599D01*
X647599Y214898D01*
Y212899D01*
X646599Y211899D01*
X643600D01*
X645599D02*
X647599Y209900D01*
X653597D02*
X649598D01*
X653597Y213899D01*
Y214898D01*
X652597Y215898D01*
X650598D01*
X649598Y214898D01*
X659595Y209900D02*
X655596D01*
X659595Y213899D01*
Y214898D01*
X658595Y215898D01*
X656596D01*
X655596Y214898D01*
X643613Y228900D02*
Y234898D01*
X646612D01*
X647611Y233898D01*
Y231899D01*
X646612Y230899D01*
X643613D01*
X645612D02*
X647611Y228900D01*
X653609D02*
X649611D01*
X653609Y232899D01*
Y233898D01*
X652610Y234898D01*
X650610D01*
X649611Y233898D01*
X659607Y234898D02*
X657608Y233898D01*
X655609Y231899D01*
Y229900D01*
X656608Y228900D01*
X658608D01*
X659607Y229900D01*
Y230899D01*
X658608Y231899D01*
X655609D01*
X619300Y174900D02*
Y180898D01*
X622299D01*
X623299Y179898D01*
Y177899D01*
X622299Y176899D01*
X619300D01*
X621299D02*
X623299Y174900D01*
X629297D02*
X625298D01*
X629297Y178899D01*
Y179898D01*
X628297Y180898D01*
X626298D01*
X625298Y179898D01*
X631296Y180898D02*
X635295D01*
Y179898D01*
X631296Y175900D01*
Y174900D01*
X653979Y287298D02*
X652146D01*
X651230Y286382D01*
Y282716D01*
X652146Y281800D01*
X653979D01*
X654895Y282716D01*
Y286382D01*
X653979Y287298D01*
X656728Y281800D02*
Y287298D01*
X659477D01*
X660394Y286382D01*
Y284549D01*
X659477Y283633D01*
X656728D01*
X665892Y287298D02*
X662226D01*
Y284549D01*
X664059Y285466D01*
X664976D01*
X665892Y284549D01*
Y282716D01*
X664976Y281800D01*
X663143D01*
X662226Y282716D01*
X497201Y333799D02*
X496701Y333299D01*
Y332300D01*
X497201Y331800D01*
X499200D01*
X499700Y332300D01*
Y333299D01*
X499200Y333799D01*
X499700Y334799D02*
Y335799D01*
Y335299D01*
X496701D01*
X497201Y334799D01*
Y337298D02*
X496701Y337798D01*
Y338798D01*
X497201Y339298D01*
X499200D01*
X499700Y338798D01*
Y337798D01*
X499200Y337298D01*
X497201D01*
X499700Y340297D02*
Y341297D01*
Y340797D01*
X496701D01*
X497201Y340297D01*
X248600Y478997D02*
Y471000D01*
Y474999D01*
X253932D01*
Y478997D01*
Y471000D01*
X256597D02*
Y476332D01*
X259263Y478997D01*
X261929Y476332D01*
Y471000D01*
Y474999D01*
X256597D01*
X264595Y471000D02*
Y478997D01*
X269926Y471000D01*
Y478997D01*
X277924Y477665D02*
X276591Y478997D01*
X273925D01*
X272592Y477665D01*
Y472333D01*
X273925Y471000D01*
X276591D01*
X277924Y472333D01*
X288587Y471000D02*
Y476332D01*
X291253Y478997D01*
X293919Y476332D01*
Y471000D01*
Y474999D01*
X288587D01*
X296585Y471000D02*
Y476332D01*
X300583D01*
X301916Y474999D01*
Y471000D01*
X305915Y476332D02*
X308581D01*
X309913Y474999D01*
Y471000D01*
X305915D01*
X304582Y472333D01*
X305915Y473666D01*
X309913D01*
X312579Y471000D02*
X315245D01*
X313912D01*
Y478997D01*
X312579D01*
X320577Y471000D02*
X323242D01*
X324575Y472333D01*
Y474999D01*
X323242Y476332D01*
X320577D01*
X319244Y474999D01*
Y472333D01*
X320577Y471000D01*
X329907Y468334D02*
X331240D01*
X332573Y469667D01*
Y476332D01*
X328574D01*
X327241Y474999D01*
Y472333D01*
X328574Y471000D01*
X332573D01*
X343236D02*
Y478997D01*
X347235D01*
X348568Y477665D01*
Y474999D01*
X347235Y473666D01*
X343236D01*
X345902D02*
X348568Y471000D01*
X355232D02*
X352566D01*
X351233Y472333D01*
Y474999D01*
X352566Y476332D01*
X355232D01*
X356565Y474999D01*
Y473666D01*
X351233D01*
X359231Y476332D02*
X361897Y471000D01*
X364562Y476332D01*
X367228Y471000D02*
Y472333D01*
X368561D01*
Y471000D01*
X367228D01*
X381890D02*
X384556D01*
X383223D01*
Y478997D01*
X381890Y477665D01*
X388555Y471000D02*
Y472333D01*
X389888D01*
Y471000D01*
X388555D01*
X395219Y477665D02*
X396552Y478997D01*
X399218D01*
X400551Y477665D01*
Y472333D01*
X399218Y471000D01*
X396552D01*
X395219Y472333D01*
Y477665D01*
X313902Y246132D02*
Y242800D01*
X316401D01*
Y244466D01*
Y242800D01*
X318900D01*
X313902Y247798D02*
X318900D01*
Y251131D01*
X313902Y252797D02*
Y256129D01*
Y254463D01*
X318900D01*
Y257795D02*
Y259461D01*
Y258628D01*
X313902D01*
X314735Y257795D01*
X325702Y246132D02*
Y242800D01*
X328201D01*
Y244466D01*
Y242800D01*
X330700D01*
X325702Y247798D02*
X330700D01*
Y251131D01*
X325702Y252797D02*
Y256129D01*
Y254463D01*
X330700D01*
Y261127D02*
Y257795D01*
X327368Y261127D01*
X326535D01*
X325702Y260294D01*
Y258628D01*
X326535Y257795D01*
X336402Y246132D02*
Y242800D01*
X338901D01*
Y244466D01*
Y242800D01*
X341400D01*
X336402Y247798D02*
X341400D01*
Y251131D01*
X336402Y252797D02*
Y256129D01*
Y254463D01*
X341400D01*
X337235Y257795D02*
X336402Y258628D01*
Y260294D01*
X337235Y261127D01*
X338068D01*
X338901Y260294D01*
Y259461D01*
Y260294D01*
X339734Y261127D01*
X340567D01*
X341400Y260294D01*
Y258628D01*
X340567Y257795D01*
X345702Y246132D02*
Y242800D01*
X348201D01*
Y244466D01*
Y242800D01*
X350700D01*
X345702Y247798D02*
X350700D01*
Y251131D01*
X345702Y252797D02*
Y256129D01*
Y254463D01*
X350700D01*
Y260294D02*
X345702D01*
X348201Y257795D01*
Y261127D01*
X360600Y239468D02*
X357268D01*
X355602Y241134D01*
X357268Y242800D01*
X360600D01*
X358101D01*
Y239468D01*
X355602Y246965D02*
Y245299D01*
X356435Y244466D01*
X359767D01*
X360600Y245299D01*
Y246965D01*
X359767Y247798D01*
X356435D01*
X355602Y246965D01*
Y249465D02*
X359767D01*
X360600Y250298D01*
Y251964D01*
X359767Y252797D01*
X355602D01*
Y254463D02*
Y257795D01*
Y256129D01*
X360600D01*
Y259461D02*
Y261127D01*
Y260294D01*
X355602D01*
X356435Y259461D01*
X370800Y239468D02*
X365802D01*
Y241967D01*
X366635Y242800D01*
X368301D01*
X369134Y241967D01*
Y239468D01*
Y241134D02*
X370800Y242800D01*
X365802Y247798D02*
Y244466D01*
X368301D01*
Y246132D01*
Y244466D01*
X370800D01*
X365802Y249465D02*
X370800D01*
Y251964D01*
X369967Y252797D01*
X369134D01*
X368301Y251964D01*
Y249465D01*
Y251964D01*
X367468Y252797D01*
X366635D01*
X365802Y251964D01*
Y249465D01*
X370800Y254463D02*
X365802D01*
Y256962D01*
X366635Y257795D01*
X368301D01*
X369134Y256962D01*
Y254463D01*
X370800Y259461D02*
Y261127D01*
Y260294D01*
X365802D01*
X366635Y259461D01*
X683700Y291500D02*
X678702D01*
Y293999D01*
X679535Y294832D01*
X681201D01*
X682034Y293999D01*
Y291500D01*
Y293166D02*
X683700Y294832D01*
X678702Y299831D02*
Y296498D01*
X681201D01*
Y298165D01*
Y296498D01*
X683700D01*
X678702Y301497D02*
X683700D01*
Y303996D01*
X682867Y304829D01*
X682034D01*
X681201Y303996D01*
Y301497D01*
Y303996D01*
X680368Y304829D01*
X679535D01*
X678702Y303996D01*
Y301497D01*
X683700Y306495D02*
X678702D01*
Y308994D01*
X679535Y309827D01*
X681201D01*
X682034Y308994D01*
Y306495D01*
X683700Y314826D02*
Y311493D01*
X680368Y314826D01*
X679535D01*
X678702Y313993D01*
Y312327D01*
X679535Y311493D01*
X672300Y292300D02*
X668968D01*
X667302Y293966D01*
X668968Y295632D01*
X672300D01*
X669801D01*
Y292300D01*
X667302Y299798D02*
Y298131D01*
X668135Y297298D01*
X671467D01*
X672300Y298131D01*
Y299798D01*
X671467Y300631D01*
X668135D01*
X667302Y299798D01*
Y302297D02*
X671467D01*
X672300Y303130D01*
Y304796D01*
X671467Y305629D01*
X667302D01*
Y307295D02*
Y310627D01*
Y308961D01*
X672300D01*
Y315626D02*
Y312294D01*
X668968Y315626D01*
X668135D01*
X667302Y314793D01*
Y313127D01*
X668135Y312294D01*
X657102Y300232D02*
Y296900D01*
X659601D01*
Y298566D01*
Y296900D01*
X662100D01*
X657102Y301898D02*
X662100D01*
Y305231D01*
X657102Y306897D02*
Y310229D01*
Y308563D01*
X662100D01*
X657102Y315227D02*
Y311895D01*
X659601D01*
X658768Y313561D01*
Y314394D01*
X659601Y315227D01*
X661267D01*
X662100Y314394D01*
Y312728D01*
X661267Y311895D01*
X630902Y435600D02*
X635900D01*
Y438099D01*
X635067Y438932D01*
X631735D01*
X630902Y438099D01*
Y435600D01*
X631735Y443931D02*
X630902Y443098D01*
Y441431D01*
X631735Y440598D01*
X635067D01*
X635900Y441431D01*
Y443098D01*
X635067Y443931D01*
X633401D01*
Y442265D01*
X635900Y445597D02*
X630902D01*
X635900Y448929D01*
X630902D01*
Y450595D02*
X635900D01*
Y453094D01*
X635067Y453927D01*
X631735D01*
X630902Y453094D01*
Y450595D01*
X625100Y435000D02*
X621768D01*
X620102Y436666D01*
X621768Y438332D01*
X625100D01*
X622601D01*
Y435000D01*
X620935Y443331D02*
X620102Y442498D01*
Y440831D01*
X620935Y439998D01*
X624267D01*
X625100Y440831D01*
Y442498D01*
X624267Y443331D01*
X622601D01*
Y441665D01*
X625100Y444997D02*
X620102D01*
X625100Y448329D01*
X620102D01*
Y449995D02*
X625100D01*
Y452494D01*
X624267Y453327D01*
X620935D01*
X620102Y452494D01*
Y449995D01*
X599702Y435400D02*
X604700D01*
Y437899D01*
X603867Y438732D01*
X600535D01*
X599702Y437899D01*
Y435400D01*
X600535Y440398D02*
X599702Y441231D01*
Y442898D01*
X600535Y443731D01*
X601368D01*
X602201Y442898D01*
Y442065D01*
Y442898D01*
X603034Y443731D01*
X603867D01*
X604700Y442898D01*
Y441231D01*
X603867Y440398D01*
X599702Y445397D02*
X603034D01*
X604700Y447063D01*
X603034Y448729D01*
X599702D01*
X600535Y450395D02*
X599702Y451228D01*
Y452894D01*
X600535Y453727D01*
X601368D01*
X602201Y452894D01*
Y452061D01*
Y452894D01*
X603034Y453727D01*
X603867D01*
X604700Y452894D01*
Y451228D01*
X603867Y450395D01*
X615400Y434900D02*
X612068D01*
X610402Y436566D01*
X612068Y438232D01*
X615400D01*
X612901D01*
Y434900D01*
X611235Y439898D02*
X610402Y440731D01*
Y442398D01*
X611235Y443231D01*
X612068D01*
X612901Y442398D01*
Y441565D01*
Y442398D01*
X613734Y443231D01*
X614567D01*
X615400Y442398D01*
Y440731D01*
X614567Y439898D01*
X610402Y444897D02*
X613734D01*
X615400Y446563D01*
X613734Y448229D01*
X610402D01*
X611235Y449895D02*
X610402Y450728D01*
Y452394D01*
X611235Y453227D01*
X612068D01*
X612901Y452394D01*
Y451561D01*
Y452394D01*
X613734Y453227D01*
X614567D01*
X615400Y452394D01*
Y450728D01*
X614567Y449895D01*
X117999Y343499D02*
X116666D01*
X116000Y342832D01*
Y340166D01*
X116666Y339500D01*
X117999D01*
X118666Y340166D01*
Y342832D01*
X117999Y343499D01*
X119999Y342166D02*
Y340166D01*
X120665Y339500D01*
X122664D01*
Y342166D01*
X124664Y342832D02*
Y342166D01*
X123997D01*
X125330D01*
X124664D01*
Y340166D01*
X125330Y339500D01*
X118999Y415499D02*
X117666D01*
X117000Y414832D01*
Y412166D01*
X117666Y411500D01*
X118999D01*
X119666Y412166D01*
Y414832D01*
X118999Y415499D01*
X120999Y414166D02*
Y412166D01*
X121665Y411500D01*
X123664D01*
Y414166D01*
X125664Y414832D02*
Y414166D01*
X124997D01*
X126330D01*
X125664D01*
Y412166D01*
X126330Y411500D01*
X406999Y348999D02*
X406499Y349499D01*
X405500D01*
X405000Y348999D01*
Y348499D01*
X405500Y348000D01*
X406499D01*
X406999Y347500D01*
Y347000D01*
X406499Y346500D01*
X405500D01*
X405000Y347000D01*
X407999Y349499D02*
Y346500D01*
Y348000D01*
X409998D01*
Y349499D01*
Y346500D01*
X410998Y349499D02*
Y346500D01*
X412498D01*
X412997Y347000D01*
Y348999D01*
X412498Y349499D01*
X410998D01*
X406999Y358999D02*
X406499Y359499D01*
X405500D01*
X405000Y358999D01*
Y357000D01*
X405500Y356500D01*
X406499D01*
X406999Y357000D01*
X407999Y357999D02*
X409998D01*
X410998Y356500D02*
Y359499D01*
X412498D01*
X412997Y358999D01*
Y357999D01*
X412498Y357500D01*
X410998D01*
X411998D02*
X412997Y356500D01*
X407999Y370499D02*
X406000D01*
Y367500D01*
X407999D01*
X406000Y369000D02*
X407000D01*
X410499Y370499D02*
X409499D01*
X408999Y369999D01*
Y368000D01*
X409499Y367500D01*
X410499D01*
X410998Y368000D01*
Y369999D01*
X410499Y370499D01*
X413997Y369999D02*
X413498Y370499D01*
X412498D01*
X411998Y369999D01*
Y368000D01*
X412498Y367500D01*
X413498D01*
X413997Y368000D01*
X405000Y420499D02*
Y417500D01*
X406499D01*
X406999Y418000D01*
Y419999D01*
X406499Y420499D01*
X405000D01*
X407999Y418999D02*
X409998D01*
X412997Y419999D02*
X412498Y420499D01*
X411498D01*
X410998Y419999D01*
Y419499D01*
X411498Y418999D01*
X412498D01*
X412997Y418500D01*
Y418000D01*
X412498Y417500D01*
X411498D01*
X410998Y418000D01*
X405000Y430499D02*
Y428000D01*
X405500Y427500D01*
X406499D01*
X406999Y428000D01*
Y430499D01*
X407999Y427500D02*
X409998Y429499D01*
X410998Y430499D02*
Y427500D01*
X412498D01*
X412997Y428000D01*
Y429999D01*
X412498Y430499D01*
X410998D01*
X407500Y440499D02*
X406500D01*
X406000Y439999D01*
Y438000D01*
X406500Y437500D01*
X407500D01*
X407999Y438000D01*
Y439999D01*
X407500Y440499D01*
X410998Y439999D02*
X410499Y440499D01*
X409499D01*
X408999Y439999D01*
Y439499D01*
X409499Y439000D01*
X410499D01*
X410998Y438500D01*
Y438000D01*
X410499Y437500D01*
X409499D01*
X408999Y438000D01*
X413997Y439999D02*
X413498Y440499D01*
X412498D01*
X411998Y439999D01*
Y438000D01*
X412498Y437500D01*
X413498D01*
X413997Y438000D01*
X404999Y379999D02*
X404499Y380499D01*
X403500D01*
X403000Y379999D01*
Y379499D01*
X403500Y378999D01*
X404499D01*
X404999Y378500D01*
Y378000D01*
X404499Y377500D01*
X403500D01*
X403000Y378000D01*
X407998Y379999D02*
X407499Y380499D01*
X406499D01*
X405999Y379999D01*
Y378000D01*
X406499Y377500D01*
X407499D01*
X407998Y378000D01*
X408998Y380499D02*
Y377500D01*
X410997D01*
X411997Y380499D02*
Y377500D01*
Y378500D01*
X413996Y380499D01*
X412497Y378999D01*
X413996Y377500D01*
X403000Y388500D02*
Y391499D01*
X404000Y390499D01*
X404999Y391499D01*
Y388500D01*
X407499Y391499D02*
X406499D01*
X405999Y390999D01*
Y389000D01*
X406499Y388500D01*
X407499D01*
X407998Y389000D01*
Y390999D01*
X407499Y391499D01*
X410997Y390999D02*
X410498Y391499D01*
X409498D01*
X408998Y390999D01*
Y390499D01*
X409498Y390000D01*
X410498D01*
X410997Y389500D01*
Y389000D01*
X410498Y388500D01*
X409498D01*
X408998Y389000D01*
X411997Y391499D02*
X412997D01*
X412497D01*
Y388500D01*
X411997D01*
X412997D01*
X403000Y397500D02*
Y400499D01*
X404000Y399499D01*
X404999Y400499D01*
Y397500D01*
X405999Y400499D02*
X406999D01*
X406499D01*
Y397500D01*
X405999D01*
X406999D01*
X410498Y399999D02*
X409998Y400499D01*
X408998D01*
X408498Y399999D01*
Y399499D01*
X408998Y399000D01*
X409998D01*
X410498Y398500D01*
Y398000D01*
X409998Y397500D01*
X408998D01*
X408498Y398000D01*
X412997Y400499D02*
X411997D01*
X411497Y399999D01*
Y398000D01*
X411997Y397500D01*
X412997D01*
X413497Y398000D01*
Y399999D01*
X412997Y400499D01*
X409999Y409999D02*
X409500Y410499D01*
X408500D01*
X408000Y409999D01*
Y408000D01*
X408500Y407500D01*
X409500D01*
X409999Y408000D01*
X412998Y409999D02*
X412499Y410499D01*
X411499D01*
X410999Y409999D01*
Y409499D01*
X411499Y408999D01*
X412499D01*
X412998Y408500D01*
Y408000D01*
X412499Y407500D01*
X411499D01*
X410999Y408000D01*
X184999Y410499D02*
X184500Y410999D01*
X183500D01*
X183000Y410499D01*
Y408500D01*
X183500Y408000D01*
X184500D01*
X184999Y408500D01*
X187998Y410499D02*
X187499Y410999D01*
X186499D01*
X185999Y410499D01*
Y409999D01*
X186499Y409500D01*
X187499D01*
X187998Y409000D01*
Y408500D01*
X187499Y408000D01*
X186499D01*
X185999Y408500D01*
X178000Y398000D02*
Y400999D01*
X179000Y399999D01*
X179999Y400999D01*
Y398000D01*
X180999Y400999D02*
X181999D01*
X181499D01*
Y398000D01*
X180999D01*
X181999D01*
X185498Y400499D02*
X184998Y400999D01*
X183998D01*
X183498Y400499D01*
Y399999D01*
X183998Y399500D01*
X184998D01*
X185498Y399000D01*
Y398500D01*
X184998Y398000D01*
X183998D01*
X183498Y398500D01*
X187997Y400999D02*
X186997D01*
X186497Y400499D01*
Y398500D01*
X186997Y398000D01*
X187997D01*
X188497Y398500D01*
Y400499D01*
X187997Y400999D01*
X178000Y389000D02*
Y391999D01*
X179000Y390999D01*
X179999Y391999D01*
Y389000D01*
X182499Y391999D02*
X181499D01*
X180999Y391499D01*
Y389500D01*
X181499Y389000D01*
X182499D01*
X182998Y389500D01*
Y391499D01*
X182499Y391999D01*
X185997Y391499D02*
X185498Y391999D01*
X184498D01*
X183998Y391499D01*
Y390999D01*
X184498Y390499D01*
X185498D01*
X185997Y390000D01*
Y389500D01*
X185498Y389000D01*
X184498D01*
X183998Y389500D01*
X186997Y391999D02*
X187997D01*
X187497D01*
Y389000D01*
X186997D01*
X187997D01*
X179999Y380499D02*
X179499Y380999D01*
X178500D01*
X178000Y380499D01*
Y379999D01*
X178500Y379500D01*
X179499D01*
X179999Y379000D01*
Y378500D01*
X179499Y378000D01*
X178500D01*
X178000Y378500D01*
X182998Y380499D02*
X182499Y380999D01*
X181499D01*
X180999Y380499D01*
Y378500D01*
X181499Y378000D01*
X182499D01*
X182998Y378500D01*
X183998Y380999D02*
Y378000D01*
X185997D01*
X186997Y380999D02*
Y378000D01*
Y379000D01*
X188996Y380999D01*
X187497Y379500D01*
X188996Y378000D01*
X182500Y440999D02*
X181500D01*
X181000Y440499D01*
Y438500D01*
X181500Y438000D01*
X182500D01*
X182999Y438500D01*
Y440499D01*
X182500Y440999D01*
X185998Y440499D02*
X185499Y440999D01*
X184499D01*
X183999Y440499D01*
Y439999D01*
X184499Y439500D01*
X185499D01*
X185998Y439000D01*
Y438500D01*
X185499Y438000D01*
X184499D01*
X183999Y438500D01*
X188997Y440499D02*
X188498Y440999D01*
X187498D01*
X186998Y440499D01*
Y438500D01*
X187498Y438000D01*
X188498D01*
X188997Y438500D01*
X180000Y430999D02*
Y428500D01*
X180500Y428000D01*
X181500D01*
X181999Y428500D01*
Y430999D01*
X182999Y428000D02*
X184998Y429999D01*
X185998Y430999D02*
Y428000D01*
X187498D01*
X187997Y428500D01*
Y430499D01*
X187498Y430999D01*
X185998D01*
X180000Y420999D02*
Y418000D01*
X181500D01*
X181999Y418500D01*
Y420499D01*
X181500Y420999D01*
X180000D01*
X182999Y419499D02*
X184998D01*
X187997Y420499D02*
X187498Y420999D01*
X186498D01*
X185998Y420499D01*
Y419999D01*
X186498Y419499D01*
X187498D01*
X187997Y419000D01*
Y418500D01*
X187498Y418000D01*
X186498D01*
X185998Y418500D01*
X182999Y370999D02*
X181000D01*
Y368000D01*
X182999D01*
X181000Y369499D02*
X182000D01*
X185499Y370999D02*
X184499D01*
X183999Y370499D01*
Y368500D01*
X184499Y368000D01*
X185499D01*
X185998Y368500D01*
Y370499D01*
X185499Y370999D01*
X188997Y370499D02*
X188498Y370999D01*
X187498D01*
X186998Y370499D01*
Y368500D01*
X187498Y368000D01*
X188498D01*
X188997Y368500D01*
X181999Y359499D02*
X181500Y359999D01*
X180500D01*
X180000Y359499D01*
Y357500D01*
X180500Y357000D01*
X181500D01*
X181999Y357500D01*
X182999Y358500D02*
X184998D01*
X185998Y357000D02*
Y359999D01*
X187498D01*
X187997Y359499D01*
Y358500D01*
X187498Y358000D01*
X185998D01*
X186998D02*
X187997Y357000D01*
X181999Y349499D02*
X181500Y349999D01*
X180500D01*
X180000Y349499D01*
Y348999D01*
X180500Y348499D01*
X181500D01*
X181999Y348000D01*
Y347500D01*
X181500Y347000D01*
X180500D01*
X180000Y347500D01*
X182999Y349999D02*
Y347000D01*
Y348499D01*
X184998D01*
Y349999D01*
Y347000D01*
X185998Y349999D02*
Y347000D01*
X187498D01*
X187997Y347500D01*
Y349499D01*
X187498Y349999D01*
X185998D01*
X524000Y474998D02*
X527999Y469000D01*
Y474998D02*
X524000Y469000D01*
X529998D02*
Y472999D01*
X531997Y474998D01*
X533997Y472999D01*
Y469000D01*
Y471999D01*
X529998D01*
X535996Y474998D02*
Y469000D01*
X538995D01*
X539995Y470000D01*
Y473998D01*
X538995Y474998D01*
X535996D01*
X545993Y473998D02*
X544993Y474998D01*
X542994D01*
X541994Y473998D01*
Y470000D01*
X542994Y469000D01*
X544993D01*
X545993Y470000D01*
X547992Y467001D02*
Y472999D01*
X550991D01*
X551991Y471999D01*
Y470000D01*
X550991Y469000D01*
X547992D01*
X553990Y472999D02*
Y470000D01*
X554990Y469000D01*
X555990Y470000D01*
X556989Y469000D01*
X557989Y470000D01*
Y472999D01*
X559988D02*
Y469000D01*
Y470999D01*
X560988Y471999D01*
X561988Y472999D01*
X562987D01*
X672899Y405698D02*
X671899Y406698D01*
X669900D01*
X668900Y405698D01*
Y401700D01*
X669900Y400700D01*
X671899D01*
X672899Y401700D01*
Y403699D01*
X670899D01*
X674898Y400700D02*
Y406698D01*
X678897Y400700D01*
Y406698D01*
X680896D02*
Y400700D01*
X683895D01*
X684895Y401700D01*
Y405698D01*
X683895Y406698D01*
X680896D01*
D25*
X100000Y100000D02*
X727000D01*
Y483500D01*
X100000D02*
X727000D01*
X100000Y100000D02*
Y483500D01*
D33*
X575846Y398543D02*
G03*
X575846Y398543I-492J0D01*
G01*
X252507Y278847D02*
G03*
X252507Y278847I-492J0D01*
G01*
X410043Y277847D02*
G03*
X410043Y277847I-492J0D01*
G01*
X538543Y275847D02*
G03*
X538543Y275847I-492J0D01*
G01*
X145543Y278847D02*
G03*
X145543Y278847I-492J0D01*
G01*
X154681Y341417D02*
G03*
X154681Y341417I-492J0D01*
G01*
X279740Y323346D02*
G03*
X279740Y323346I-492J0D01*
G01*
X154681Y413417D02*
G03*
X154681Y413417I-492J0D01*
G01*
X501050Y402339D02*
G03*
X501050Y402339I-492J0D01*
G01*
X293500Y403158D02*
G03*
X293500Y403158I-492J0D01*
G01*
X656173Y277847D02*
G03*
X656173Y277847I-492J0D01*
G01*
D34*
X179628Y46299D02*
G03*
X179628Y46299I-3937J0D01*
G01*
X304350D02*
G03*
X304350Y46299I-3937J0D01*
G01*
X429072D02*
G03*
X429072Y46299I-3937J0D01*
G01*
X553794D02*
G03*
X553794Y46299I-3937J0D01*
G01*
X678516D02*
G03*
X678516Y46299I-3937J0D01*
G01*
X151085Y77008D02*
X200297Y80945D01*
X151085D02*
X200297Y84882D01*
X151085D02*
X200297Y88819D01*
X151085D02*
X200297Y92756D01*
X151085D02*
X200297Y96693D01*
X151085D02*
X200297Y100630D01*
X151085D02*
X200297Y104567D01*
X151085D02*
X200297Y108504D01*
X152463Y116772D02*
X198919D01*
X275807Y77008D02*
X325019Y80945D01*
X275807D02*
X325019Y84882D01*
X275807D02*
X325019Y88819D01*
X275807D02*
X325019Y92756D01*
X275807D02*
X325019Y96693D01*
X275807D02*
X325019Y100630D01*
X275807D02*
X325019Y104567D01*
X275807D02*
X325019Y108504D01*
X277185Y116772D02*
X323641D01*
X400529Y77008D02*
X449741Y80945D01*
X400529D02*
X449741Y84882D01*
X400529D02*
X449741Y88819D01*
X400529D02*
X449741Y92756D01*
X400529D02*
X449741Y96693D01*
X400529D02*
X449741Y100630D01*
X400529D02*
X449741Y104567D01*
X400529D02*
X449741Y108504D01*
X401906Y116772D02*
X448363D01*
X525251Y77008D02*
X574463Y80945D01*
X525251D02*
X574463Y84882D01*
X525251D02*
X574463Y88819D01*
X525251D02*
X574463Y92756D01*
X525251D02*
X574463Y96693D01*
X525251D02*
X574463Y100630D01*
X525251D02*
X574463Y104567D01*
X525251D02*
X574463Y108504D01*
X526628Y116772D02*
X573085D01*
X649972Y77008D02*
X699185Y80945D01*
X649972D02*
X699185Y84882D01*
X649972D02*
X699185Y88819D01*
X649972D02*
X699185Y92756D01*
X649972D02*
X699185Y96693D01*
X649972D02*
X699185Y100630D01*
X649972D02*
X699185Y104567D01*
X649972D02*
X699185Y108504D01*
X651350Y116772D02*
X697807D01*
D35*
X288500Y319193D02*
G03*
X288500Y319193I-787J0D01*
G01*
D36*
X372713Y222122D02*
X374287D01*
X372713Y224878D02*
X374287D01*
X581850Y377657D02*
X588150D01*
X581850Y397343D02*
X588150D01*
Y377657D02*
Y397343D01*
X581850Y377657D02*
Y397343D01*
X257921Y258157D02*
X265007D01*
X257921Y277843D02*
X265007D01*
Y258157D02*
Y277843D01*
X257921Y258157D02*
Y277843D01*
X250213Y222122D02*
X251787D01*
X250213Y224878D02*
X251787D01*
X213593Y189496D02*
Y226504D01*
X203750Y189496D02*
X213593D01*
X203750Y183591D02*
Y189496D01*
X193907Y183591D02*
X203750D01*
X193907D02*
Y226504D01*
X213593D01*
X185843Y189496D02*
Y226504D01*
X176000Y189496D02*
X185843D01*
X176000Y183591D02*
Y189496D01*
X166157Y183591D02*
X176000D01*
X166157D02*
Y226504D01*
X185843D01*
X126213Y222122D02*
X127787D01*
X126213Y224878D02*
X127787D01*
X228713Y205878D02*
X230287D01*
X228713Y203122D02*
X230287D01*
X250713Y205878D02*
X252287D01*
X250713Y203122D02*
X252287D01*
X126213Y205878D02*
X127787D01*
X126213Y203122D02*
X127787D01*
X110213Y205878D02*
X111787D01*
X110213Y203122D02*
X111787D01*
X676378Y414213D02*
Y415787D01*
X673622Y414213D02*
Y415787D01*
X459213Y445622D02*
X460787D01*
X459213Y448378D02*
X460787D01*
X482213D02*
X483787D01*
X482213Y445622D02*
X483787D01*
X459213Y458622D02*
X460787D01*
X459213Y461378D02*
X460787D01*
X482213Y460878D02*
X483787D01*
X482213Y458122D02*
X483787D01*
X226713Y274622D02*
X228287D01*
X226713Y277378D02*
X228287D01*
X226713Y256622D02*
X228287D01*
X226713Y259378D02*
X228287D01*
X630713Y286122D02*
X632287D01*
X630713Y288878D02*
X632287D01*
X630713Y301622D02*
X632287D01*
X630713Y304378D02*
X632287D01*
X119213Y274622D02*
X120787D01*
X119213Y277378D02*
X120787D01*
X119213Y256622D02*
X120787D01*
X119213Y259378D02*
X120787D01*
X382213Y273622D02*
X383787D01*
X382213Y276378D02*
X383787D01*
X382213Y255622D02*
X383787D01*
X382213Y258378D02*
X383787D01*
X522713Y301622D02*
X524287D01*
X522713Y304378D02*
X524287D01*
X522713Y286122D02*
X524287D01*
X522713Y288878D02*
X524287D01*
X182213Y277378D02*
X183787D01*
X182213Y274622D02*
X183787D01*
X182213Y256622D02*
X183787D01*
X182213Y259378D02*
X183787D01*
X116213Y154122D02*
X117787D01*
X116213Y156878D02*
X117787D01*
X116213Y139378D02*
X117787D01*
X116213Y136622D02*
X117787D01*
X291213Y277378D02*
X292787D01*
X291213Y274622D02*
X292787D01*
X291213Y256622D02*
X292787D01*
X291213Y259378D02*
X292787D01*
X239463Y154122D02*
X241037D01*
X239463Y156878D02*
X241037D01*
X239213Y139378D02*
X240787D01*
X239213Y136622D02*
X240787D01*
X609213Y154122D02*
X610787D01*
X609213Y156878D02*
X610787D01*
X609213Y139378D02*
X610787D01*
X609213Y136622D02*
X610787D01*
X697260Y304378D02*
X698835D01*
X697260Y301622D02*
X698835D01*
X697260Y286122D02*
X698835D01*
X697260Y288878D02*
X698835D01*
X443212Y277378D02*
X444787D01*
X443212Y274622D02*
X444787D01*
X443213Y256622D02*
X444787D01*
X443213Y259378D02*
X444787D01*
X362713Y154122D02*
X364287D01*
X362713Y156878D02*
X364287D01*
X362713Y139378D02*
X364287D01*
X362713Y136622D02*
X364287D01*
X577213Y304378D02*
X578787D01*
X577213Y301622D02*
X578787D01*
X577213Y286122D02*
X578787D01*
X577213Y288878D02*
X578787D01*
X485963Y154122D02*
X487537D01*
X485963Y156878D02*
X487537D01*
X485963Y139378D02*
X487537D01*
X485963Y136622D02*
X487537D01*
X318457Y319622D02*
X320032D01*
X318457Y322378D02*
X320032D01*
X415457Y257157D02*
X422543D01*
X415457Y276843D02*
X422543D01*
Y257157D02*
Y276843D01*
X415457Y257157D02*
Y276843D01*
X543957Y255157D02*
X551043D01*
X543957Y274843D02*
X551043D01*
Y255157D02*
Y274843D01*
X543957Y255157D02*
Y274843D01*
X338343Y189496D02*
Y226504D01*
X328500Y189496D02*
X338343D01*
X328500Y183591D02*
Y189496D01*
X318657Y183591D02*
X328500D01*
X318657D02*
Y226504D01*
X338343D01*
X310343Y189496D02*
Y226504D01*
X300500Y189496D02*
X310343D01*
X300500Y183591D02*
Y189496D01*
X290657Y183591D02*
X300500D01*
X290657D02*
Y226504D01*
X310343D01*
X462727Y189496D02*
Y226504D01*
X452885Y189496D02*
X462727D01*
X452885Y183591D02*
Y189496D01*
X443042Y183591D02*
X452885D01*
X443042D02*
Y226504D01*
X462727D01*
X434977Y189496D02*
Y226504D01*
X425135Y189496D02*
X434977D01*
X425135Y183591D02*
Y189496D01*
X415292Y183591D02*
X425135D01*
X415292D02*
Y226504D01*
X434977D01*
X372713Y205878D02*
X374287D01*
X372713Y203122D02*
X374287D01*
X352713Y205878D02*
X354287D01*
X352713Y203122D02*
X354287D01*
X587343Y188996D02*
Y226004D01*
X577500Y188996D02*
X587343D01*
X577500Y183091D02*
Y188996D01*
X567657Y183091D02*
X577500D01*
X567657D02*
Y226004D01*
X587343D01*
X559843Y188996D02*
Y226004D01*
X550000Y188996D02*
X559843D01*
X550000Y183091D02*
Y188996D01*
X540157Y183091D02*
X550000D01*
X540157D02*
Y226004D01*
X559843D01*
X499213Y205878D02*
X500787D01*
X499213Y203122D02*
X500787D01*
X478713Y205878D02*
X480287D01*
X478713Y203122D02*
X480287D01*
X711593Y188996D02*
Y226004D01*
X701750Y188996D02*
X711593D01*
X701750Y183091D02*
Y188996D01*
X691907Y183091D02*
X701750D01*
X691907D02*
Y226004D01*
X711593D01*
X684343Y188996D02*
Y226004D01*
X674500Y188996D02*
X684343D01*
X674500Y183091D02*
Y188996D01*
X664657Y183091D02*
X674500D01*
X664657D02*
Y226004D01*
X684343D01*
X622713Y205878D02*
X624287D01*
X622713Y203122D02*
X624287D01*
X622713Y222122D02*
X624287D01*
X622713Y224878D02*
X624287D01*
X600213Y205878D02*
X601787D01*
X600213Y203122D02*
X601787D01*
X150957Y258157D02*
X158043D01*
X150957Y277843D02*
X158043D01*
Y258157D02*
Y277843D01*
X150957Y258157D02*
Y277843D01*
X201500Y461500D02*
Y471500D01*
X181500Y461500D02*
X201500D01*
X181500D02*
Y471500D01*
X201500D01*
X202500Y344000D02*
Y436500D01*
Y444000D01*
X192500D02*
X202500D01*
X192500Y344000D02*
Y444000D01*
Y344000D02*
X202500D01*
X398000D02*
Y436500D01*
Y444000D01*
X388000D02*
X398000D01*
X388000Y344000D02*
Y444000D01*
Y344000D02*
X398000D01*
X435421Y445803D02*
Y446197D01*
X435543Y459303D02*
Y459697D01*
X146557Y167559D02*
X204825D01*
Y112047D02*
Y167559D01*
X200297Y112047D02*
X204825D01*
X200297Y77008D02*
Y112047D01*
X194589Y77008D02*
X200297D01*
X194589Y30157D02*
Y77008D01*
X156793Y30157D02*
X194589D01*
X156793D02*
Y77008D01*
X151085D02*
X156793D01*
X151085D02*
Y112047D01*
X146557D02*
X151085D01*
X146557D02*
Y167559D01*
X151085Y112047D02*
X200297D01*
X156793Y77008D02*
X194589D01*
X271279Y167559D02*
X329547D01*
Y112047D02*
Y167559D01*
X325019Y112047D02*
X329547D01*
X325019Y77008D02*
Y112047D01*
X319311Y77008D02*
X325019D01*
X319311Y30157D02*
Y77008D01*
X281515Y30157D02*
X319311D01*
X281515D02*
Y77008D01*
X275807D02*
X281515D01*
X275807D02*
Y112047D01*
X271279D02*
X275807D01*
X271279D02*
Y167559D01*
X275807Y112047D02*
X325019D01*
X281515Y77008D02*
X319311D01*
X396001Y167559D02*
X454269D01*
Y112047D02*
Y167559D01*
X449741Y112047D02*
X454269D01*
X449741Y77008D02*
Y112047D01*
X444033Y77008D02*
X449741D01*
X444033Y30157D02*
Y77008D01*
X406237Y30157D02*
X444033D01*
X406237D02*
Y77008D01*
X400529D02*
X406237D01*
X400529D02*
Y112047D01*
X396001D02*
X400529D01*
X396001D02*
Y167559D01*
X400529Y112047D02*
X449741D01*
X406237Y77008D02*
X444033D01*
X520723Y167559D02*
X578991D01*
Y112047D02*
Y167559D01*
X574463Y112047D02*
X578991D01*
X574463Y77008D02*
Y112047D01*
X568754Y77008D02*
X574463D01*
X568754Y30157D02*
Y77008D01*
X530959Y30157D02*
X568754D01*
X530959D02*
Y77008D01*
X525251D02*
X530959D01*
X525251D02*
Y112047D01*
X520723D02*
X525251D01*
X520723D02*
Y167559D01*
X525251Y112047D02*
X574463D01*
X530959Y77008D02*
X568754D01*
X645445Y167559D02*
X703713D01*
Y112047D02*
Y167559D01*
X699185Y112047D02*
X703713D01*
X699185Y77008D02*
Y112047D01*
X693476Y77008D02*
X699185D01*
X693476Y30157D02*
Y77008D01*
X655681Y30157D02*
X693476D01*
X655681D02*
Y77008D01*
X649972D02*
X655681D01*
X649972D02*
Y112047D01*
X645445D02*
X649972D01*
X645445D02*
Y167559D01*
X649972Y112047D02*
X699185D01*
X655681Y77008D02*
X693476D01*
X127811Y335512D02*
X154189D01*
X127811Y324488D02*
X154189D01*
Y335512D01*
X127811Y324488D02*
Y335512D01*
X508500Y456000D02*
Y466000D01*
X548500D01*
X508500Y456000D02*
X548500D01*
Y466000D01*
X583500Y261000D02*
Y271000D01*
X633500D01*
X583500Y261000D02*
X633500D01*
Y271000D01*
X373000Y263000D02*
Y273000D01*
X313000Y263000D02*
Y273000D01*
X373000D01*
X313000Y263000D02*
X373000D01*
X460500Y261000D02*
Y271000D01*
X510500D01*
X460500Y261000D02*
X510500D01*
Y271000D01*
X447000Y317500D02*
Y327500D01*
X497000D01*
X447000Y317500D02*
X497000D01*
Y327500D01*
X655000Y317500D02*
X685000D01*
Y327500D01*
X655000D02*
X685000D01*
X655000Y317500D02*
Y327500D01*
X154474Y366622D02*
X156049D01*
X154474Y369378D02*
X156049D01*
X284563Y302657D02*
X292437D01*
X284563Y322343D02*
X292437D01*
Y302657D02*
Y322343D01*
X284563Y302657D02*
Y322343D01*
X127811Y396488D02*
Y407512D01*
X154189Y396488D02*
Y407512D01*
X127811Y396488D02*
X154189D01*
X127811Y407512D02*
X154189D01*
X154474Y444378D02*
X156049D01*
X154474Y441622D02*
X156049D01*
X617713Y396122D02*
X619287D01*
X617713Y398878D02*
X619287D01*
X637500Y456000D02*
Y466000D01*
X597500Y456000D02*
X637500D01*
X597500Y466000D02*
X637500D01*
X597500Y456000D02*
Y466000D01*
X475951Y398106D02*
Y399779D01*
X477625D01*
X475951Y374583D02*
Y376256D01*
Y374583D02*
X477625D01*
X499475D02*
X501148D01*
Y376256D01*
Y398106D02*
Y399779D01*
X499475D02*
X501148D01*
X291925Y400598D02*
X293598D01*
Y398925D02*
Y400598D01*
Y375402D02*
Y377075D01*
X291925Y375402D02*
X293598D01*
X268402D02*
X270075D01*
X268402D02*
Y377075D01*
Y400598D02*
X270075D01*
X268402Y398925D02*
Y400598D01*
X499113Y167022D02*
X500687D01*
X499113Y169778D02*
X500687D01*
X523325Y222122D02*
X524900D01*
X523325Y224878D02*
X524900D01*
X523325Y203122D02*
X524900D01*
X523325Y205878D02*
X524900D01*
X372013Y168122D02*
X373587D01*
X372013Y170878D02*
X373587D01*
X398225Y222122D02*
X399800D01*
X398225Y224878D02*
X399800D01*
X398225Y203122D02*
X399800D01*
X398225Y205878D02*
X399800D01*
X270113Y222122D02*
X271687D01*
X270113Y224878D02*
X271687D01*
X270113Y203122D02*
X271687D01*
X270113Y205878D02*
X271687D01*
X148413Y203122D02*
X149987D01*
X148413Y205878D02*
X149987D01*
X148413Y222122D02*
X149987D01*
X148413Y224878D02*
X149987D01*
X622413Y168122D02*
X623987D01*
X622413Y170878D02*
X623987D01*
X646725Y222122D02*
X648300D01*
X646725Y224878D02*
X648300D01*
X646725Y203122D02*
X648300D01*
X646725Y205878D02*
X648300D01*
X125913Y167922D02*
X127487D01*
X125913Y170678D02*
X127487D01*
X249713Y168922D02*
X251287D01*
X249713Y171678D02*
X251287D01*
X661587Y257157D02*
X668673D01*
X661587Y276843D02*
X668673D01*
Y257157D02*
Y276843D01*
X661587Y257157D02*
Y276843D01*
X499213Y222122D02*
X500787D01*
X499213Y224878D02*
X500787D01*
D37*
X152463Y116772D02*
Y148268D01*
X198919D01*
Y116772D02*
Y148268D01*
X200297Y112047D02*
X204825D01*
Y167559D01*
X146557D02*
X204825D01*
X146557Y112047D02*
Y167559D01*
Y112047D02*
X151085D01*
X194589Y77008D02*
X200297D01*
Y112047D01*
X151085D02*
X200297D01*
X151085Y77008D02*
Y112047D01*
Y77008D02*
X156793D01*
Y30157D02*
Y77008D01*
X194589D01*
Y30157D02*
Y77008D01*
X156793Y30157D02*
X194589D01*
X277185Y116772D02*
Y148268D01*
X323641D01*
Y116772D02*
Y148268D01*
X325019Y112047D02*
X329547D01*
Y167559D01*
X271279D02*
X329547D01*
X271279Y112047D02*
Y167559D01*
Y112047D02*
X275807D01*
X319311Y77008D02*
X325019D01*
Y112047D01*
X275807D02*
X325019D01*
X275807Y77008D02*
Y112047D01*
Y77008D02*
X281515D01*
Y30157D02*
Y77008D01*
X319311D01*
Y30157D02*
Y77008D01*
X281515Y30157D02*
X319311D01*
X401907Y116772D02*
Y148268D01*
X448363D01*
Y116772D02*
Y148268D01*
X449741Y112047D02*
X454269D01*
Y167559D01*
X396001D02*
X454269D01*
X396001Y112047D02*
Y167559D01*
Y112047D02*
X400529D01*
X444033Y77008D02*
X449741D01*
Y112047D01*
X400529D02*
X449741D01*
X400529Y77008D02*
Y112047D01*
Y77008D02*
X406237D01*
Y30157D02*
Y77008D01*
X444033D01*
Y30157D02*
Y77008D01*
X406237Y30157D02*
X444033D01*
X526628Y116772D02*
Y148268D01*
X573085D01*
Y116772D02*
Y148268D01*
X574463Y112047D02*
X578991D01*
Y167559D01*
X520723D02*
X578991D01*
X520723Y112047D02*
Y167559D01*
Y112047D02*
X525251D01*
X568754Y77008D02*
X574463D01*
Y112047D01*
X525251D02*
X574463D01*
X525251Y77008D02*
Y112047D01*
Y77008D02*
X530959D01*
Y30157D02*
Y77008D01*
X568754D01*
Y30157D02*
Y77008D01*
X530959Y30157D02*
X568754D01*
X651350Y116772D02*
Y148268D01*
X697807D01*
Y116772D02*
Y148268D01*
X699185Y112047D02*
X703713D01*
Y167559D01*
X645445D02*
X703713D01*
X645445Y112047D02*
Y167559D01*
Y112047D02*
X649972D01*
X693476Y77008D02*
X699185D01*
Y112047D01*
X649972D02*
X699185D01*
X649972Y77008D02*
Y112047D01*
Y77008D02*
X655681D01*
Y30157D02*
Y77008D01*
X693476D01*
Y30157D02*
Y77008D01*
X655681Y30157D02*
X693476D01*
M02*
