G04 Layer_Color=16711935*
%FSLAX25Y25*%
%MOIN*%
G70*
G01*
G75*
%ADD25C,0.04724*%
%ADD52C,0.06706*%
%ADD53R,0.06706X0.06706*%
%ADD54R,0.06706X0.06706*%
%ADD55C,0.13792*%
%ADD56R,0.05524X0.05524*%
%ADD57C,0.05524*%
%ADD58C,0.03300*%
D25*
X100000Y100000D02*
Y483500D01*
X727000D01*
Y100000D02*
Y483500D01*
X100000Y100000D02*
X727000D01*
D52*
X632500Y461000D02*
D03*
X622500D02*
D03*
X612500D02*
D03*
X680000Y322500D02*
D03*
X670000D02*
D03*
X462000D02*
D03*
X472000D02*
D03*
X482000D02*
D03*
X492000D02*
D03*
X475500Y266000D02*
D03*
X485500D02*
D03*
X495500D02*
D03*
X505500D02*
D03*
X368000Y268000D02*
D03*
X358000D02*
D03*
X348000D02*
D03*
X338000D02*
D03*
X328000D02*
D03*
X598500Y266000D02*
D03*
X608500D02*
D03*
X618500D02*
D03*
X628500D02*
D03*
X523500Y461000D02*
D03*
X533500D02*
D03*
X543500D02*
D03*
X684421Y160079D02*
D03*
X559699D02*
D03*
X434977D02*
D03*
X310255D02*
D03*
X185534D02*
D03*
X393000Y429000D02*
D03*
Y409000D02*
D03*
Y399000D02*
D03*
Y389000D02*
D03*
Y379000D02*
D03*
Y369000D02*
D03*
Y359000D02*
D03*
Y349000D02*
D03*
Y419000D02*
D03*
X197500Y429000D02*
D03*
Y409000D02*
D03*
Y399000D02*
D03*
Y389000D02*
D03*
Y379000D02*
D03*
Y369000D02*
D03*
Y359000D02*
D03*
Y349000D02*
D03*
Y419000D02*
D03*
X196500Y466500D02*
D03*
D53*
X602500Y461000D02*
D03*
X660000Y322500D02*
D03*
X452000D02*
D03*
X465500Y266000D02*
D03*
X318000Y268000D02*
D03*
X588500Y266000D02*
D03*
X513500Y461000D02*
D03*
X186500Y466500D02*
D03*
D54*
X674579Y160079D02*
D03*
X549857D02*
D03*
X425135D02*
D03*
X300413D02*
D03*
X175691D02*
D03*
X393000Y439000D02*
D03*
X197500D02*
D03*
D55*
X694657Y140000D02*
D03*
X654500D02*
D03*
X569936D02*
D03*
X529778D02*
D03*
X445214D02*
D03*
X405056D02*
D03*
X320492D02*
D03*
X280334D02*
D03*
X195770D02*
D03*
X155612D02*
D03*
D56*
X674500Y217500D02*
D03*
X701750D02*
D03*
X550000D02*
D03*
X577500D02*
D03*
X425135Y218000D02*
D03*
X452885D02*
D03*
X300500D02*
D03*
X328500D02*
D03*
X176000D02*
D03*
X203750D02*
D03*
D57*
X674500Y207500D02*
D03*
Y197500D02*
D03*
X701750Y207500D02*
D03*
Y197500D02*
D03*
X550000Y207500D02*
D03*
Y197500D02*
D03*
X577500Y207500D02*
D03*
Y197500D02*
D03*
X425135Y208000D02*
D03*
Y198000D02*
D03*
X452885Y208000D02*
D03*
Y198000D02*
D03*
X300500Y208000D02*
D03*
Y198000D02*
D03*
X328500Y208000D02*
D03*
Y198000D02*
D03*
X176000Y208000D02*
D03*
Y198000D02*
D03*
X203750Y208000D02*
D03*
Y198000D02*
D03*
D58*
X123100Y244100D02*
D03*
X163700Y247500D02*
D03*
X128100Y250300D02*
D03*
X140100Y229800D02*
D03*
X173600Y236300D02*
D03*
X207600Y233200D02*
D03*
X271100Y244100D02*
D03*
X240100Y243400D02*
D03*
X386700Y242900D02*
D03*
X559200Y248900D02*
D03*
X511400Y246600D02*
D03*
X612700Y197800D02*
D03*
X635700D02*
D03*
X264300Y409600D02*
D03*
X276500Y429600D02*
D03*
X267800Y425500D02*
D03*
X276700Y442300D02*
D03*
X280200Y420900D02*
D03*
X561300Y419800D02*
D03*
X428500Y242800D02*
D03*
X383800Y249300D02*
D03*
X591500Y249100D02*
D03*
X599300Y236100D02*
D03*
X563300Y234200D02*
D03*
X498500Y232000D02*
D03*
X436200Y236800D02*
D03*
X372700Y233600D02*
D03*
X279000Y235700D02*
D03*
X428700Y281300D02*
D03*
X645400Y282400D02*
D03*
X687900Y252000D02*
D03*
X657900Y193000D02*
D03*
X275500Y282600D02*
D03*
X169800Y285300D02*
D03*
X449000Y309300D02*
D03*
X285100Y202300D02*
D03*
X411400D02*
D03*
X534400Y198500D02*
D03*
X684500Y262200D02*
D03*
X409200Y446200D02*
D03*
X420200Y450300D02*
D03*
X328900Y429100D02*
D03*
X303200Y403200D02*
D03*
X267000Y371000D02*
D03*
X482500Y414000D02*
D03*
X455900Y348300D02*
D03*
X273800Y407000D02*
D03*
X465700Y385300D02*
D03*
X482600Y363500D02*
D03*
X492500Y411700D02*
D03*
X486000Y353500D02*
D03*
X490000Y360000D02*
D03*
X477000Y452000D02*
D03*
X504500Y441500D02*
D03*
X271000Y358000D02*
D03*
X516000Y407500D02*
D03*
X284000Y369000D02*
D03*
X550000Y349500D02*
D03*
X319000Y346500D02*
D03*
X328000Y289500D02*
D03*
X227500D02*
D03*
X384500Y348000D02*
D03*
X375500Y347500D02*
D03*
X379500Y366000D02*
D03*
X363000Y347500D02*
D03*
X540000Y412500D02*
D03*
X130000Y458000D02*
D03*
X447000Y456500D02*
D03*
X450000Y442500D02*
D03*
X119500Y449000D02*
D03*
X305500Y397000D02*
D03*
X294500Y430000D02*
D03*
X246500Y432000D02*
D03*
X371000Y373500D02*
D03*
X345500Y427500D02*
D03*
X333500Y341000D02*
D03*
X307500Y342000D02*
D03*
X187000Y247500D02*
D03*
X175000Y273500D02*
D03*
X183500Y325500D02*
D03*
X208500Y369000D02*
D03*
X205500Y402000D02*
D03*
X123000Y149000D02*
D03*
X245500D02*
D03*
X261000Y205500D02*
D03*
X245000Y217000D02*
D03*
X369000Y148500D02*
D03*
X383000Y204500D02*
D03*
X367500Y217000D02*
D03*
X509000Y204500D02*
D03*
X492500Y216000D02*
D03*
X633000Y204500D02*
D03*
X136000D02*
D03*
X120047Y216453D02*
D03*
X613047Y149500D02*
D03*
X617000Y217500D02*
D03*
X122000Y228500D02*
D03*
X251500Y234000D02*
D03*
X624000Y235500D02*
D03*
X492500Y148000D02*
D03*
X122000Y124500D02*
D03*
X247000Y128500D02*
D03*
X463500Y123500D02*
D03*
X368000Y131500D02*
D03*
X473500Y143500D02*
D03*
X469000Y131500D02*
D03*
X507000Y254000D02*
D03*
X603500Y241500D02*
D03*
X608500Y247000D02*
D03*
X292000Y270500D02*
D03*
X451000Y253500D02*
D03*
X296500Y252500D02*
D03*
X456500Y267500D02*
D03*
X234406Y246500D02*
D03*
X699000Y278500D02*
D03*
X617000Y276000D02*
D03*
X528000Y280000D02*
D03*
X567500Y283500D02*
D03*
X353500Y290000D02*
D03*
X493500Y297000D02*
D03*
X585000Y292500D02*
D03*
X483000Y294500D02*
D03*
X330500Y385500D02*
D03*
Y369000D02*
D03*
X305000Y382500D02*
D03*
X213000Y408500D02*
D03*
X326000Y281500D02*
D03*
X318000Y396500D02*
D03*
X117500Y327000D02*
D03*
X363000Y384000D02*
D03*
X625500Y334000D02*
D03*
X404000Y434000D02*
D03*
X664500Y339000D02*
D03*
X507272Y384228D02*
D03*
X630000Y392500D02*
D03*
X536500Y327500D02*
D03*
X543000Y306000D02*
D03*
X615000Y300000D02*
D03*
X407500Y400500D02*
D03*
X416500Y382500D02*
D03*
X691000Y313500D02*
D03*
X400500Y298500D02*
D03*
X511000Y303000D02*
D03*
X347500Y330000D02*
D03*
X490100Y406600D02*
D03*
X257000Y379800D02*
D03*
X258500Y354700D02*
D03*
X288500Y407100D02*
D03*
X309200Y415900D02*
D03*
X300200Y406800D02*
D03*
X283500Y407500D02*
D03*
X308600Y432800D02*
D03*
X270300Y413300D02*
D03*
M02*
