G04 Layer_Color=12632256*
%FSLAX25Y25*%
%MOIN*%
G70*
G01*
G75*
%ADD24C,0.04724*%
%ADD25C,0.04724*%
%ADD26R,0.04724X0.04724*%
%ADD27R,0.05906X0.05906*%
%ADD28C,0.05906*%
%ADD29R,0.05906X0.05906*%
%ADD30C,0.12992*%
D24*
X100000Y100000D02*
X727000D01*
Y483500D01*
X100000D02*
X727000D01*
X100000Y100000D02*
Y483500D01*
D25*
X148250Y198000D02*
D03*
Y208000D02*
D03*
X203750Y198000D02*
D03*
Y208000D02*
D03*
X176000Y198000D02*
D03*
Y208000D02*
D03*
X328500Y198000D02*
D03*
Y208000D02*
D03*
X300500Y198000D02*
D03*
Y208000D02*
D03*
X272500Y198000D02*
D03*
Y208000D02*
D03*
X452885Y198000D02*
D03*
Y208000D02*
D03*
X425135Y198000D02*
D03*
Y208000D02*
D03*
X397385Y198000D02*
D03*
Y208000D02*
D03*
X577500Y197500D02*
D03*
Y207500D02*
D03*
X550000Y197500D02*
D03*
Y207500D02*
D03*
X522500Y197500D02*
D03*
Y207500D02*
D03*
X701750Y197500D02*
D03*
Y207500D02*
D03*
X674500Y197500D02*
D03*
Y207500D02*
D03*
X647250Y197500D02*
D03*
Y207500D02*
D03*
D26*
X148250Y218000D02*
D03*
X203750D02*
D03*
X176000D02*
D03*
X328500D02*
D03*
X300500D02*
D03*
X272500D02*
D03*
X452885D02*
D03*
X425135D02*
D03*
X397385D02*
D03*
X577500Y217500D02*
D03*
X550000D02*
D03*
X522500D02*
D03*
X701750D02*
D03*
X674500D02*
D03*
X647250D02*
D03*
D27*
X186500Y466500D02*
D03*
X513500Y461000D02*
D03*
X588500Y266000D02*
D03*
X318000Y268000D02*
D03*
X465500Y266000D02*
D03*
X452000Y322500D02*
D03*
X660000D02*
D03*
X602500Y461000D02*
D03*
D28*
X196500Y466500D02*
D03*
X197500Y419000D02*
D03*
Y349000D02*
D03*
Y359000D02*
D03*
Y369000D02*
D03*
Y379000D02*
D03*
Y389000D02*
D03*
Y399000D02*
D03*
Y409000D02*
D03*
Y429000D02*
D03*
X393000Y419000D02*
D03*
Y349000D02*
D03*
Y359000D02*
D03*
Y369000D02*
D03*
Y379000D02*
D03*
Y389000D02*
D03*
Y399000D02*
D03*
Y409000D02*
D03*
Y429000D02*
D03*
X185534Y160079D02*
D03*
X310255D02*
D03*
X434977D02*
D03*
X559699D02*
D03*
X684421D02*
D03*
X543500Y461000D02*
D03*
X533500D02*
D03*
X523500D02*
D03*
X628500Y266000D02*
D03*
X618500D02*
D03*
X608500D02*
D03*
X598500D02*
D03*
X328000Y268000D02*
D03*
X338000D02*
D03*
X348000D02*
D03*
X358000D02*
D03*
X368000D02*
D03*
X505500Y266000D02*
D03*
X495500D02*
D03*
X485500D02*
D03*
X475500D02*
D03*
X492000Y322500D02*
D03*
X482000D02*
D03*
X472000D02*
D03*
X462000D02*
D03*
X670000D02*
D03*
X680000D02*
D03*
X612500Y461000D02*
D03*
X622500D02*
D03*
X632500D02*
D03*
D29*
X197500Y439000D02*
D03*
X393000D02*
D03*
X175691Y160079D02*
D03*
X300413D02*
D03*
X425135D02*
D03*
X549857D02*
D03*
X674579D02*
D03*
D30*
X155612Y140000D02*
D03*
X195770D02*
D03*
X280334D02*
D03*
X320492D02*
D03*
X405056D02*
D03*
X445214D02*
D03*
X529778D02*
D03*
X569936D02*
D03*
X654500D02*
D03*
X694657D02*
D03*
M02*
